<?xml version="1.0" encoding="UTF-8" standalone="no"?>
<!-- Created with Inkscape (http://www.inkscape.org/) -->

<svg
   xmlns:dc="http://purl.org/dc/elements/1.1/"
   xmlns:cc="http://creativecommons.org/ns#"
   xmlns:rdf="http://www.w3.org/1999/02/22-rdf-syntax-ns#"
   xmlns:svg="http://www.w3.org/2000/svg"
   xmlns="http://www.w3.org/2000/svg"
   xmlns:sodipodi="http://sodipodi.sourceforge.net/DTD/sodipodi-0.dtd"
   xmlns:inkscape="http://www.inkscape.org/namespaces/inkscape"
   width="31"
   height="31"
   viewBox="0 0 8.202083 8.2020835"
   version="1.1"
   id="svg8"
   inkscape:version="0.92.2 (5c3e80d, 2017-08-06)"
   sodipodi:docname="BlueSmallKnob.svg">
  <defs
     id="defs2">
    <pattern
       y="0"
       x="0"
       height="6"
       width="6"
       patternUnits="userSpaceOnUse"
       id="EMFhbasepattern" />
  </defs>
  <sodipodi:namedview
     id="base"
     pagecolor="#ffffff"
     bordercolor="#666666"
     borderopacity="1.0"
     inkscape:pageopacity="0.0"
     inkscape:pageshadow="2"
     inkscape:zoom="16.000001"
     inkscape:cx="26.531877"
     inkscape:cy="18.680778"
     inkscape:document-units="mm"
     inkscape:current-layer="layer1"
     showgrid="false"
     units="px"
     inkscape:window-width="1920"
     inkscape:window-height="1033"
     inkscape:window-x="-4"
     inkscape:window-y="-4"
     inkscape:window-maximized="1" />
  <metadata
     id="metadata5">
    <rdf:RDF>
      <cc:Work
         rdf:about="">
        <dc:format>image/svg+xml</dc:format>
        <dc:type
           rdf:resource="http://purl.org/dc/dcmitype/StillImage" />
        <dc:title />
      </cc:Work>
    </rdf:RDF>
  </metadata>
  <g
     inkscape:label="Ebene 1"
     inkscape:groupmode="layer"
     id="layer1"
     transform="translate(0,-288.79791)">
    <path
       style="opacity:1;fill:#4d4d4d;fill-opacity:1;fill-rule:nonzero;stroke:#000000;stroke-width:0.19728461;stroke-linecap:round;stroke-linejoin:miter;stroke-miterlimit:1.5;stroke-dasharray:none;stroke-dashoffset:0;stroke-opacity:1;paint-order:markers stroke fill"
       id="path5852"
       sodipodi:type="arc"
       sodipodi:cx="4.101037"
       sodipodi:cy="292.89896"
       sodipodi:rx="3.9668164"
       sodipodi:ry="3.9668164"
       sodipodi:start="0"
       sodipodi:end="6.2782635"
       sodipodi:open="true"
       d="m 8.0678535,292.89896 a 3.9668164,3.9668164 0 0 1 -3.9619355,3.96681 3.9668164,3.9668164 0 0 1 -3.97168539,-3.95705 3.9668164,3.9668164 0 0 1 3.95216149,-3.97655 3.9668164,3.9668164 0 0 1 3.9814113,3.94726" />
    <path
       id="path820"
       d="m 3.7399638,288.95463 c -0.4444038,0.0417 -0.8888074,0.16665 -1.2915479,0.36108 l 0.1805389,0.30553 -0.6388302,0.36107 -0.1666513,-0.30552 c -0.3749656,0.24997 -0.6943802,0.56939 -0.94435774,0.94436 l 0.30552794,0.16665 -0.36107836,0.63883 -0.30552732,-0.18054 c -0.19442647,0.40273 -0.3055273,0.84714 -0.34719044,1.29154 h 0.34719044 v 0.72216 H 0.1569601 c 0.0416631,0.4444 0.16665125,0.8888 0.36107772,1.29155 l 0.30552732,-0.18053 0.36107836,0.62493 -0.30552794,0.18054 c 0.24997754,0.37497 0.56939214,0.69438 0.94435774,0.94436 l 0.1666513,-0.30554 0.6388302,0.36109 -0.1805389,0.30552 c 0.4027405,0.19444 0.8471441,0.31942 1.2915479,0.36108 v -0.36108 h 0.7221557 v 0.36108 c 0.4444036,-0.0556 0.8888072,-0.16664 1.2915479,-0.36108 l -0.1805391,-0.30552 0.6249426,-0.36109 0.180539,0.30554 c 0.3749656,-0.24998 0.6943802,-0.56939 0.9443578,-0.94436 l -0.305528,-0.18054 0.3610784,-0.62493 0.3055272,0.18053 c 0.1944266,-0.40275 0.3055272,-0.84715 0.3471903,-1.29155 H 7.6840453 v -0.72216 h 0.3610776 c -0.041663,-0.4444 -0.166651,-0.88881 -0.3610776,-1.29154 l -0.3055272,0.18054 -0.3610784,-0.63883 0.305528,-0.16665 c -0.2499776,-0.37497 -0.5693922,-0.69439 -0.9443578,-0.94436 l -0.180539,0.30552 -0.6249426,-0.36107 0.1805391,-0.30553 c -0.4027407,-0.19443 -0.8471443,-0.30553 -1.2915479,-0.3472 v 0.3472 H 3.7399638 Z"
       style="fill:#141414;fill-opacity:1;fill-rule:nonzero;stroke:#f0f0f0;stroke-width:0.02777522px;stroke-linecap:round;stroke-linejoin:miter;stroke-miterlimit:2;stroke-dasharray:none;stroke-opacity:1"
       inkscape:connector-curvature="0" />
    <path
       style="opacity:1;fill:#3b3b3b;fill-opacity:1;fill-rule:nonzero;stroke:#bfbfbf;stroke-width:0.0986423;stroke-linecap:round;stroke-linejoin:miter;stroke-miterlimit:1.5;stroke-dasharray:none;stroke-dashoffset:0;stroke-opacity:1;paint-order:markers stroke fill"
       id="path5854"
       sodipodi:type="arc"
       sodipodi:cx="4.101037"
       sodipodi:cy="292.89896"
       sodipodi:rx="2.6111286"
       sodipodi:ry="2.6111286"
       sodipodi:start="0"
       sodipodi:end="6.2782635"
       sodipodi:open="true"
       d="m 6.7121656,292.89896 a 2.6111286,2.6111286 0 0 1 -2.6079157,2.61112 2.6111286,2.6111286 0 0 1 -2.6143335,-2.6047 2.6111286,2.6111286 0 0 1 2.601482,-2.61753 2.6111286,2.6111286 0 0 1 2.6207356,2.59825" />
    <rect
       style="opacity:1;fill:#45eff3;fill-opacity:1;fill-rule:nonzero;stroke:none;stroke-width:0.09190325;stroke-linecap:round;stroke-linejoin:miter;stroke-miterlimit:1.5;stroke-dasharray:none;stroke-dashoffset:0;stroke-opacity:1;paint-order:markers stroke fill"
       id="rect5856"
       width="0.72500116"
       height="3.0907884"
       x="3.7385437"
       y="288.93686" />
    <path
       d="m 5.0113513,292.89896 a 0.91031289,0.91031289 0 0 1 -0.9091927,0.91031 0.91031289,0.91031289 0 0 1 -0.9114303,-0.90807 0.91031289,0.91031289 0 0 1 0.9069499,-0.91255 0.91031289,0.91031289 0 0 1 0.9136621,0.90583"
       sodipodi:open="true"
       sodipodi:end="6.2782635"
       sodipodi:start="0"
       sodipodi:ry="0.91031289"
       sodipodi:rx="0.91031289"
       sodipodi:cy="292.89896"
       sodipodi:cx="4.1010385"
       sodipodi:type="arc"
       id="path999-4"
       style="opacity:1;fill:none;fill-opacity:1;fill-rule:nonzero;stroke:#141414;stroke-width:0.12839647;stroke-linecap:round;stroke-linejoin:miter;stroke-miterlimit:1.5;stroke-dasharray:none;stroke-dashoffset:0;stroke-opacity:1;paint-order:markers stroke fill" />
    <path
       d="m 5.1299747,292.89896 a 1.0289363,1.0289363 0 0 1 -1.0276702,1.02893 1.0289363,1.0289363 0 0 1 -1.0301992,-1.0264 1.0289363,1.0289363 0 0 1 1.025135,-1.03146 1.0289363,1.0289363 0 0 1 1.032722,1.02386"
       sodipodi:open="true"
       sodipodi:end="6.2782635"
       sodipodi:start="0"
       sodipodi:ry="1.0289363"
       sodipodi:rx="1.0289363"
       sodipodi:cy="292.89896"
       sodipodi:cx="4.1010385"
       sodipodi:type="arc"
       id="path1001-8"
       style="opacity:1;fill:none;fill-opacity:1;fill-rule:nonzero;stroke:#bfbfbf;stroke-width:0.12247202;stroke-linecap:round;stroke-linejoin:miter;stroke-miterlimit:1.5;stroke-dasharray:none;stroke-dashoffset:0;stroke-opacity:1;paint-order:markers stroke fill" />
    <path
       style="opacity:1;fill:#4d4d4d;fill-opacity:1;fill-rule:nonzero;stroke:#000000;stroke-width:0.1966197;stroke-linecap:round;stroke-linejoin:miter;stroke-miterlimit:1.5;stroke-dasharray:none;stroke-dashoffset:0;stroke-opacity:1;paint-order:markers stroke fill"
       id="path5852-0"
       sodipodi:type="arc"
       sodipodi:cx="4.1010365"
       sodipodi:cy="292.89896"
       sodipodi:rx="3.9534471"
       sodipodi:ry="3.9534471"
       sodipodi:start="0"
       sodipodi:end="6.2782635"
       sodipodi:open="true"
       d="M 8.0544837,292.89896 A 3.9534471,3.9534471 0 0 1 4.1059011,296.8524 3.9534471,3.9534471 0 0 1 0.14760142,292.90869 3.9534471,3.9534471 0 0 1 4.086443,288.94554 3.9534471,3.9534471 0 0 1 8.0544358,292.8795" />
    <path
       style="opacity:1;fill:#141414;fill-opacity:1;fill-rule:nonzero;stroke:#f0f0f0;stroke-width:0.03276995;stroke-linecap:round;stroke-linejoin:miter;stroke-miterlimit:1.5;stroke-dasharray:none;stroke-dashoffset:0;stroke-opacity:1;paint-order:markers stroke fill"
       d="m 3.7396718,288.96372 a 3.9534472,3.9534472 0 0 0 -1.2910742,0.35054 l 0.1761171,0.30482 -0.6255546,0.36138 -0.1767946,-0.30617 a 3.9534472,3.9534472 0 0 0 -0.94290418,0.94731 l 0.30346348,0.1751 -0.36137847,0.62555 -0.30515706,-0.17611 a 3.9534472,3.9534472 0 0 0 -0.34613784,1.29107 h 0.35257255 v 0.72276 H 0.1661873 a 3.9534472,3.9534472 0 0 0 0.350879,1.29073 l 0.30448003,-0.17578 0.36137847,0.62556 -0.30583406,0.17645 a 3.9534472,3.9534472 0 0 0 0.94730716,0.94257 l 0.1747622,-0.30279 0.6255546,0.36138 -0.1757785,0.30448 a 3.9534472,3.9534472 0 0 0 1.2907356,0.35156 v -0.35732 h 0.7227576 v 0.35563 a 3.9534472,3.9534472 0 0 0 1.2903969,-0.35021 l -0.1754398,-0.30414 0.6255546,-0.36138 0.1764558,0.3055 a 3.9534472,3.9534472 0 0 0 0.942904,-0.94663 l -0.3031246,-0.1751 0.3613785,-0.62556 0.3048182,0.17612 a 3.9534472,3.9534472 0 0 0 0.3464766,-1.29107 H 7.6792771 v -0.72276 H 8.0359138 A 3.9534472,3.9534472 0 0 0 7.685373,291.24614 l -0.3048182,0.17611 -0.3613785,-0.62555 0.3061729,-0.1768 A 3.9534472,3.9534472 0 0 0 6.3780421,289.677 l -0.175101,0.30346 -0.6255546,-0.36138 0.1761171,-0.30516 a 3.9534472,3.9534472 0 0 0 -1.2910742,-0.34613 v 0.35257 H 3.7396718 Z"
       id="path957"
       inkscape:connector-curvature="0" />
    <path
       style="opacity:1;fill:#434343;fill-opacity:1;fill-rule:nonzero;stroke:#bfbfbf;stroke-width:0.09830985;stroke-linecap:round;stroke-linejoin:miter;stroke-miterlimit:1.5;stroke-dasharray:none;stroke-dashoffset:0;stroke-opacity:1;paint-order:markers stroke fill"
       id="path5854-3"
       sodipodi:type="arc"
       sodipodi:cx="4.1010365"
       sodipodi:cy="292.89896"
       sodipodi:rx="2.6023285"
       sodipodi:ry="2.6023285"
       sodipodi:start="0"
       sodipodi:end="6.2782635"
       sodipodi:open="true"
       d="m 6.7033651,292.89896 a 2.6023285,2.6023285 0 0 1 -2.5991265,2.60232 2.6023285,2.6023285 0 0 1 -2.6055227,-2.59592 2.6023285,2.6023285 0 0 1 2.5927146,-2.60871 2.6023285,2.6023285 0 0 1 2.6119031,2.5895" />
    <path
       d="m 4.8605543,292.89896 a 0.75951636,0.75951636 0 0 1 -0.7585818,0.75951 0.75951636,0.75951636 0 0 1 -0.7604486,-0.75764 0.75951636,0.75951636 0 0 1 0.7567104,-0.76138 0.75951636,0.75951636 0 0 1 0.7623108,0.75577"
       sodipodi:open="true"
       sodipodi:end="6.2782635"
       sodipodi:start="0"
       sodipodi:ry="0.75951636"
       sodipodi:rx="0.75951636"
       sodipodi:cy="292.89896"
       sodipodi:cx="4.101038"
       sodipodi:type="arc"
       id="path999"
       style="opacity:1;fill:none;fill-opacity:1;fill-rule:nonzero;stroke:#141414;stroke-width:0.10712714;stroke-linecap:round;stroke-linejoin:miter;stroke-miterlimit:1.5;stroke-dasharray:none;stroke-dashoffset:0;stroke-opacity:1;paint-order:markers stroke fill" />
    <path
       d="m 5.0357727,292.89896 a 0.93473428,0.93473428 0 0 1 -0.9335841,0.93473 0.93473428,0.93473428 0 0 1 -0.9358816,-0.93243 0.93473428,0.93473428 0 0 1 0.931281,-0.93703 0.93473428,0.93473428 0 0 1 0.9381734,0.93013"
       sodipodi:open="true"
       sodipodi:end="6.2782635"
       sodipodi:start="0"
       sodipodi:ry="0.93473428"
       sodipodi:rx="0.93473428"
       sodipodi:cy="292.89896"
       sodipodi:cx="4.1010385"
       sodipodi:type="arc"
       id="path1001-8-0"
       style="opacity:1;fill:none;fill-opacity:1;fill-rule:nonzero;stroke:#2e2b2b;stroke-width:0.1040446;stroke-linecap:round;stroke-linejoin:miter;stroke-miterlimit:1.5;stroke-dasharray:none;stroke-dashoffset:0;stroke-opacity:1;paint-order:markers stroke fill" />
    <path
       style="opacity:1;fill:#282828;fill-opacity:1;fill-rule:nonzero;stroke:none;stroke-width:0.10218379;stroke-linecap:round;stroke-linejoin:miter;stroke-miterlimit:1.5;stroke-dasharray:none;stroke-dashoffset:0;stroke-opacity:1;paint-order:markers stroke fill"
       d="m 4.0890359,288.92252 c -0.1388751,10e-4 -0.2774927,0.0145 -0.4149871,0.0311 v 1.31593 0.46907 1.38748 c 0.1339101,-0.0478 0.2776536,-0.0728 0.4229907,-0.0735 0.1479786,-4.2e-4 0.294544,0.0244 0.4309942,0.0728 v -1.38747 -0.4684 -1.31357 c -0.1454318,-0.0175 -0.2921059,-0.0328 -0.4389978,-0.0334 z"
       id="path1429"
       inkscape:connector-curvature="0"
       sodipodi:nodetypes="ccccccccccc" />
    <path
       id="path845"
       d="m 4.0908805,288.92089 a 2.7296616,2.7296616 0 0 0 -0.3512181,0.0271 v 1.78894 a 0.93473433,0.93473433 0 0 1 0.357992,-0.0735 0.93473433,0.93473433 0 0 1 0.3647656,0.0728 v -1.78826 a 2.7296616,2.7296616 0 0 0 -0.3715395,-0.0271 z"
       style="opacity:1;fill:#2bc2db;fill-opacity:1;fill-rule:nonzero;stroke:none;stroke-width:0.0940055;stroke-linecap:round;stroke-linejoin:miter;stroke-miterlimit:1.5;stroke-dasharray:none;stroke-dashoffset:0;stroke-opacity:1;paint-order:markers stroke fill"
       inkscape:connector-curvature="0" />
    <path
       style="opacity:1;fill:#3fd6ef;fill-opacity:1;fill-rule:nonzero;stroke:none;stroke-width:0.0940055;stroke-linecap:round;stroke-linejoin:miter;stroke-miterlimit:1.5;stroke-dasharray:none;stroke-dashoffset:0;stroke-opacity:1;paint-order:markers stroke fill"
       d="m 4.0908805,290.24058 c -0.1175339,10e-4 -0.2348508,0.0105 -0.3512181,0.0271 v 1.8393 c 0.1133326,-0.0478 0.2349879,-0.0728 0.357992,-0.0735 0.125239,-4.2e-4 0.2492831,0.0244 0.3647656,0.0728 v -1.83861 c -0.1230849,-0.0175 -0.2472204,-0.0265 -0.3715395,-0.0271 z"
       id="rect5856-5"
       inkscape:connector-curvature="0"
       sodipodi:nodetypes="ccccccc" />
    <path
       d="m 4.9595274,292.89896 a 0.85848939,0.85848939 0 0 1 -0.8574331,0.85849 0.85848939,0.85848939 0 0 1 -0.8595431,-0.85638 0.85848939,0.85848939 0 0 1 0.8553178,-0.8606 0.85848939,0.85848939 0 0 1 0.861648,0.85426"
       sodipodi:open="true"
       sodipodi:end="6.2782635"
       sodipodi:start="0"
       sodipodi:ry="0.85848939"
       sodipodi:rx="0.85848939"
       sodipodi:cy="292.89896"
       sodipodi:cx="4.101038"
       sodipodi:type="arc"
       id="path1001"
       style="opacity:1;fill:none;fill-opacity:1;fill-rule:nonzero;stroke:#bfbfbf;stroke-width:0.1021841;stroke-linecap:round;stroke-linejoin:miter;stroke-miterlimit:1.5;stroke-dasharray:none;stroke-dashoffset:0;stroke-opacity:1;paint-order:markers stroke fill" />
    <path
       d="m 4.8605548,292.89896 a 0.75951636,0.75951636 0 0 1 -0.7585818,0.75951 0.75951636,0.75951636 0 0 1 -0.7604486,-0.75764 0.75951636,0.75951636 0 0 1 0.7567104,-0.76138 0.75951636,0.75951636 0 0 1 0.7623108,0.75577"
       sodipodi:open="true"
       sodipodi:end="6.2782635"
       sodipodi:start="0"
       sodipodi:ry="0.75951636"
       sodipodi:rx="0.75951636"
       sodipodi:cy="292.89896"
       sodipodi:cx="4.1010385"
       sodipodi:type="arc"
       id="path999-4-7"
       style="opacity:1;fill:none;fill-opacity:1;fill-rule:nonzero;stroke:#141414;stroke-width:0.10712714;stroke-linecap:round;stroke-linejoin:miter;stroke-miterlimit:1.5;stroke-dasharray:none;stroke-dashoffset:0;stroke-opacity:1;paint-order:markers stroke fill" />
    <path
       style="opacity:1;fill:none;fill-opacity:1;fill-rule:nonzero;stroke:#545454;stroke-width:0.06134219;stroke-linecap:round;stroke-linejoin:miter;stroke-miterlimit:1.5;stroke-dasharray:none;stroke-dashoffset:0;stroke-opacity:1;paint-order:markers stroke fill"
       id="path866"
       sodipodi:type="arc"
       sodipodi:cx="4.1010399"
       sodipodi:cy="292.89896"
       sodipodi:rx="0.63686013"
       sodipodi:ry="0.63686013"
       sodipodi:start="0"
       sodipodi:end="6.2782635"
       sodipodi:open="true"
       d="m 4.7379,292.89896 a 0.63686013,0.63686013 0 0 1 -0.6360765,0.63686 0.63686013,0.63686013 0 0 1 -0.6376418,-0.6353 0.63686013,0.63686013 0 0 1 0.6345073,-0.63842 0.63686013,0.63686013 0 0 1 0.6392033,0.63372" />
  </g>
</svg>
