<?xml version="1.0" encoding="UTF-8" standalone="no"?>
<!-- Created with Inkscape (http://www.inkscape.org/) -->

<svg
   xmlns:dc="http://purl.org/dc/elements/1.1/"
   xmlns:cc="http://creativecommons.org/ns#"
   xmlns:rdf="http://www.w3.org/1999/02/22-rdf-syntax-ns#"
   xmlns:svg="http://www.w3.org/2000/svg"
   xmlns="http://www.w3.org/2000/svg"
   xmlns:sodipodi="http://sodipodi.sourceforge.net/DTD/sodipodi-0.dtd"
   xmlns:inkscape="http://www.inkscape.org/namespaces/inkscape"
   width="47"
   height="47"
   viewBox="0 0 12.435416 12.435417"
   version="1.1"
   id="svg5266"
   sodipodi:docname="GreenLargeKnob.svg"
   inkscape:version="0.92.2 (5c3e80d, 2017-08-06)">
  <defs
     id="defs5260" />
  <sodipodi:namedview
     id="base"
     pagecolor="#ffffff"
     bordercolor="#666666"
     borderopacity="1.0"
     inkscape:pageopacity="0.0"
     inkscape:pageshadow="2"
     inkscape:zoom="16.000001"
     inkscape:cx="9.0300803"
     inkscape:cy="24.489114"
     inkscape:document-units="mm"
     inkscape:current-layer="layer1"
     showgrid="false"
     units="px"
     inkscape:snap-bbox="false"
     inkscape:bbox-paths="false"
     inkscape:bbox-nodes="false"
     inkscape:snap-bbox-edge-midpoints="false"
     inkscape:snap-bbox-midpoints="false"
     inkscape:snap-object-midpoints="false"
     inkscape:snap-center="false"
     inkscape:snap-page="true"
     showguides="true"
     inkscape:guide-bbox="true"
     inkscape:window-width="1920"
     inkscape:window-height="1033"
     inkscape:window-x="-4"
     inkscape:window-y="-4"
     inkscape:window-maximized="1"
     inkscape:snap-nodes="false" />
  <metadata
     id="metadata5263">
    <rdf:RDF>
      <cc:Work
         rdf:about="">
        <dc:format>image/svg+xml</dc:format>
        <dc:type
           rdf:resource="http://purl.org/dc/dcmitype/StillImage" />
        <dc:title />
      </cc:Work>
    </rdf:RDF>
  </metadata>
  <g
     inkscape:label="Ebene 1"
     inkscape:groupmode="layer"
     id="layer1"
     transform="translate(0,-284.56457)">
    <path
       style="opacity:1;fill:#4d4d4d;fill-opacity:1;fill-rule:nonzero;stroke:#000000;stroke-width:0.30000001;stroke-linecap:round;stroke-linejoin:miter;stroke-miterlimit:1.5;stroke-dasharray:none;stroke-dashoffset:0;stroke-opacity:1;paint-order:markers stroke fill"
       id="path5852-3"
       sodipodi:type="arc"
       sodipodi:cx="6.217701"
       sodipodi:cy="290.78229"
       sodipodi:rx="6.0321226"
       sodipodi:ry="6.0321226"
       sodipodi:start="0"
       sodipodi:end="6.2782635"
       sodipodi:open="true"
       d="m 12.249824,290.78229 a 6.0321226,6.0321226 0 0 1 -6.0247008,6.03212 6.0321226,6.0321226 0 0 1 -6.03952659,-6.01728 6.0321226,6.0321226 0 0 1 6.00983769,-6.04692 6.0321226,6.0321226 0 0 1 6.0543167,6.00239" />
    <path
       style="opacity:1;fill:#141414;fill-opacity:1;fill-rule:nonzero;stroke:#f0f0f0;stroke-width:0.05;stroke-linecap:round;stroke-linejoin:miter;stroke-miterlimit:1.5;stroke-dasharray:none;stroke-dashoffset:0;stroke-opacity:1;paint-order:markers stroke fill"
       d="m 5.6663349,284.77793 a 6.0321227,6.0321227 0 0 0 -1.9699057,0.53485 l 0.2687174,0.46509 -0.9544637,0.55139 -0.2697509,-0.46716 a 6.0321227,6.0321227 0 0 0 -1.438672,1.44539 l 0.4630209,0.26717 -0.5513879,0.95446 -0.465604,-0.26871 a 6.0321227,6.0321227 0 0 0 -0.528133,1.9699 h 0.537951 v 1.10278 H 0.213954 a 6.0321227,6.0321227 0 0 0 0.535368,1.96938 l 0.464571,-0.2682 0.5513879,0.95447 -0.4666381,0.26923 a 6.0321227,6.0321227 0 0 0 1.4453898,1.43816 l 0.2666503,-0.46199 0.9544637,0.55139 -0.2682007,0.46457 a 6.0321227,6.0321227 0 0 0 1.969389,0.5364 v -0.54519 h 1.1027749 v 0.54261 a 6.0321227,6.0321227 0 0 0 1.9688722,-0.53434 l -0.267684,-0.46405 0.9544638,-0.55139 0.2692342,0.46612 a 6.0321227,6.0321227 0 0 0 1.438672,-1.44436 l -0.462504,-0.26716 0.551387,-0.95447 0.465088,0.26872 a 6.0321227,6.0321227 0 0 0 0.52865,-1.9699 h -0.537951 v -1.10278 h 0.544152 a 6.0321227,6.0321227 0 0 0 -0.534851,-1.9699 l -0.465088,0.26871 -0.551387,-0.95446 0.467155,-0.26975 a 6.0321227,6.0321227 0 0 0 -1.4453902,-1.43867 l -0.267167,0.46302 -0.9544638,-0.55139 0.2687175,-0.46561 a 6.0321227,6.0321227 0 0 0 -1.9699057,-0.52813 v 0.53795 H 5.6663349 Z"
       id="path957-7"
       inkscape:connector-curvature="0" />
    <path
       style="opacity:1;fill:#434343;fill-opacity:1;fill-rule:nonzero;stroke:#bfbfbf;stroke-width:0.15000001;stroke-linecap:round;stroke-linejoin:miter;stroke-miterlimit:1.5;stroke-dasharray:none;stroke-dashoffset:0;stroke-opacity:1;paint-order:markers stroke fill"
       id="path5854-3"
       sodipodi:type="arc"
       sodipodi:cx="6.217701"
       sodipodi:cy="290.78229"
       sodipodi:rx="3.9706018"
       sodipodi:ry="3.9706018"
       sodipodi:start="0"
       sodipodi:end="6.2782635"
       sodipodi:open="true"
       d="m 10.188303,290.78229 a 3.9706018,3.9706018 0 0 1 -3.9657164,3.9706 3.9706018,3.9706018 0 0 1 -3.9754754,-3.96083 3.9706018,3.9706018 0 0 1 3.9559329,-3.98035 3.9706018,3.9706018 0 0 1 3.9852109,3.95104" />
    <path
       d="m 7.3765639,290.78229 a 1.158861,1.158861 0 0 1 -1.1574351,1.15886 1.158861,1.158861 0 0 1 -1.1602835,-1.15601 1.158861,1.158861 0 0 1 1.1545798,-1.16171 1.158861,1.158861 0 0 1 1.1631248,1.15315"
       sodipodi:open="true"
       sodipodi:end="6.2782635"
       sodipodi:start="0"
       sodipodi:ry="1.158861"
       sodipodi:rx="1.158861"
       sodipodi:cy="290.78229"
       sodipodi:cx="6.2177029"
       sodipodi:type="arc"
       id="path999"
       style="opacity:1;fill:none;fill-opacity:1;fill-rule:nonzero;stroke:#141414;stroke-width:0.16345331;stroke-linecap:round;stroke-linejoin:miter;stroke-miterlimit:1.5;stroke-dasharray:none;stroke-dashoffset:0;stroke-opacity:1;paint-order:markers stroke fill" />
    <path
       d="m 7.6439103,290.78229 a 1.4262065,1.4262065 0 0 1 -1.4244516,1.4262 1.4262065,1.4262065 0 0 1 -1.427957,-1.42269 1.4262065,1.4262065 0 0 1 1.4209375,-1.42971 1.4262065,1.4262065 0 0 1 1.4314538,1.41918"
       sodipodi:open="true"
       sodipodi:end="6.2782635"
       sodipodi:start="0"
       sodipodi:ry="1.4262065"
       sodipodi:rx="1.4262065"
       sodipodi:cy="290.78229"
       sodipodi:cx="6.2177038"
       sodipodi:type="arc"
       id="path1001-8"
       style="opacity:1;fill:none;fill-opacity:1;fill-rule:nonzero;stroke:#2e2b2b;stroke-width:0.15875001;stroke-linecap:round;stroke-linejoin:miter;stroke-miterlimit:1.5;stroke-dasharray:none;stroke-dashoffset:0;stroke-opacity:1;paint-order:markers stroke fill" />
    <path
       style="opacity:1;fill:#282828;fill-opacity:1;fill-rule:nonzero;stroke:none;stroke-width:0.1559108;stroke-linecap:round;stroke-linejoin:miter;stroke-miterlimit:1.5;stroke-dasharray:none;stroke-dashoffset:0;stroke-opacity:1;paint-order:markers stroke fill"
       d="m 6.1993904,284.71506 c -0.2118939,0.002 -0.423395,0.0221 -0.6331823,0.0474 v 2.00782 0.71571 2.11699 c 0.2043184,-0.073 0.4236405,-0.11107 0.6453942,-0.11214 0.225784,-6.4e-4 0.4494117,0.0372 0.6576057,0.11111 v -2.11699 -0.71468 -2.00422 c -0.2218981,-0.0267 -0.4456917,-0.0501 -0.6698176,-0.051 z"
       id="path1429"
       inkscape:connector-curvature="0"
       sodipodi:nodetypes="ccccccccccc" />
    <path
       id="path845"
       d="m 6.202205,284.71257 a 4.1648851,4.1648851 0 0 0 -0.5358844,0.0413 v 2.72955 a 1.4262065,1.4262065 0 0 1 0.5462199,-0.11214 1.4262065,1.4262065 0 0 1 0.556555,0.1111 v -2.72851 a 4.1648851,4.1648851 0 0 0 -0.5668905,-0.0413 z"
       style="opacity:1;fill:#40db0d;fill-opacity:1;fill-rule:nonzero;stroke:none;stroke-width:0.14343247;stroke-linecap:round;stroke-linejoin:miter;stroke-miterlimit:1.5;stroke-dasharray:none;stroke-dashoffset:0;stroke-opacity:1;paint-order:markers stroke fill"
       inkscape:connector-curvature="0" />
    <path
       style="opacity:1;fill:#45f00e;fill-opacity:1;fill-rule:nonzero;stroke:none;stroke-width:0.14343247;stroke-linecap:round;stroke-linejoin:miter;stroke-miterlimit:1.5;stroke-dasharray:none;stroke-dashoffset:0;stroke-opacity:1;paint-order:markers stroke fill"
       d="m 6.202205,286.72614 c -0.1793319,0.002 -0.3583326,0.016 -0.5358844,0.0413 v 2.80638 c 0.1729214,-0.073 0.3585416,-0.11107 0.5462199,-0.11214 0.1910881,-6.4e-4 0.3803531,0.0372 0.556555,0.1111 v -2.80534 c -0.1878015,-0.0267 -0.3772059,-0.0405 -0.5668905,-0.0413 z"
       id="rect5856-2"
       inkscape:connector-curvature="0"
       sodipodi:nodetypes="ccccccc" />
    <path
       d="m 7.5275757,290.78229 a 1.3098729,1.3098729 0 0 1 -1.3082611,1.30987 1.3098729,1.3098729 0 0 1 -1.3114806,-1.30665 1.3098729,1.3098729 0 0 1 1.3050337,-1.31309 1.3098729,1.3098729 0 0 1 1.3146922,1.30342"
       sodipodi:open="true"
       sodipodi:end="6.2782635"
       sodipodi:start="0"
       sodipodi:ry="1.3098729"
       sodipodi:rx="1.3098729"
       sodipodi:cy="290.78229"
       sodipodi:cx="6.2177029"
       sodipodi:type="arc"
       id="path1001"
       style="opacity:1;fill:none;fill-opacity:1;fill-rule:nonzero;stroke:#bfbfbf;stroke-width:0.15591128;stroke-linecap:round;stroke-linejoin:miter;stroke-miterlimit:1.5;stroke-dasharray:none;stroke-dashoffset:0;stroke-opacity:1;paint-order:markers stroke fill" />
    <path
       d="m 7.3765649,290.78229 a 1.158861,1.158861 0 0 1 -1.1574352,1.15886 1.158861,1.158861 0 0 1 -1.1602834,-1.15601 1.158861,1.158861 0 0 1 1.1545798,-1.16171 1.158861,1.158861 0 0 1 1.1631247,1.15315"
       sodipodi:open="true"
       sodipodi:end="6.2782635"
       sodipodi:start="0"
       sodipodi:ry="1.158861"
       sodipodi:rx="1.158861"
       sodipodi:cy="290.78229"
       sodipodi:cx="6.2177038"
       sodipodi:type="arc"
       id="path999-4"
       style="opacity:1;fill:none;fill-opacity:1;fill-rule:nonzero;stroke:#141414;stroke-width:0.16345331;stroke-linecap:round;stroke-linejoin:miter;stroke-miterlimit:1.5;stroke-dasharray:none;stroke-dashoffset:0;stroke-opacity:1;paint-order:markers stroke fill" />
    <path
       style="opacity:1;fill:none;fill-opacity:1;fill-rule:nonzero;stroke:#545454;stroke-width:0.09359519;stroke-linecap:round;stroke-linejoin:miter;stroke-miterlimit:1.5;stroke-dasharray:none;stroke-dashoffset:0;stroke-opacity:1;paint-order:markers stroke fill"
       id="path866"
       sodipodi:type="arc"
       sodipodi:cx="6.2177062"
       sodipodi:cy="290.78229"
       sodipodi:rx="0.9717136"
       sodipodi:ry="0.9717136"
       sodipodi:start="0"
       sodipodi:end="6.2782635"
       sodipodi:open="true"
       d="m 7.1894198,290.78229 a 0.9717136,0.9717136 0 0 1 -0.970518,0.97171 0.9717136,0.9717136 0 0 1 -0.9729063,-0.96932 0.9717136,0.9717136 0 0 1 0.9681238,-0.9741 0.9717136,0.9717136 0 0 1 0.9752887,0.96693" />
    <path
       d="m 7.3765653,290.78229 a 1.158861,1.158861 0 0 1 -1.1574351,1.15886 1.158861,1.158861 0 0 1 -1.1602834,-1.15601 1.158861,1.158861 0 0 1 1.1545797,-1.16171 1.158861,1.158861 0 0 1 1.1631248,1.15315"
       sodipodi:open="true"
       sodipodi:end="6.2782635"
       sodipodi:start="0"
       sodipodi:ry="1.158861"
       sodipodi:rx="1.158861"
       sodipodi:cy="290.78229"
       sodipodi:cx="6.2177043"
       sodipodi:type="arc"
       id="path999-6"
       style="opacity:1;fill:none;fill-opacity:1;fill-rule:nonzero;stroke:#141414;stroke-width:0.16345331;stroke-linecap:round;stroke-linejoin:miter;stroke-miterlimit:1.5;stroke-dasharray:none;stroke-dashoffset:0;stroke-opacity:1;paint-order:markers stroke fill" />
    <path
       d="m 7.5275772,290.78229 a 1.3098729,1.3098729 0 0 1 -1.3082612,1.30987 1.3098729,1.3098729 0 0 1 -1.3114806,-1.30665 1.3098729,1.3098729 0 0 1 1.3050337,-1.31309 1.3098729,1.3098729 0 0 1 1.3146922,1.30342"
       sodipodi:open="true"
       sodipodi:end="6.2782635"
       sodipodi:start="0"
       sodipodi:ry="1.3098729"
       sodipodi:rx="1.3098729"
       sodipodi:cy="290.78229"
       sodipodi:cx="6.2177043"
       sodipodi:type="arc"
       id="path1001-3"
       style="opacity:1;fill:none;fill-opacity:1;fill-rule:nonzero;stroke:#bfbfbf;stroke-width:0.15591128;stroke-linecap:round;stroke-linejoin:miter;stroke-miterlimit:1.5;stroke-dasharray:none;stroke-dashoffset:0;stroke-opacity:1;paint-order:markers stroke fill" />
  </g>
</svg>
