<?xml version="1.0" encoding="UTF-8" standalone="no"?>
<!-- Created with Inkscape (http://www.inkscape.org/) -->

<svg
   xmlns:dc="http://purl.org/dc/elements/1.1/"
   xmlns:cc="http://creativecommons.org/ns#"
   xmlns:rdf="http://www.w3.org/1999/02/22-rdf-syntax-ns#"
   xmlns:svg="http://www.w3.org/2000/svg"
   xmlns="http://www.w3.org/2000/svg"
   xmlns:sodipodi="http://sodipodi.sourceforge.net/DTD/sodipodi-0.dtd"
   xmlns:inkscape="http://www.inkscape.org/namespaces/inkscape"
   width="47"
   height="47"
   viewBox="0 0 12.435416 12.435417"
   version="1.1"
   id="svg5266"
   sodipodi:docname="GreyLargeKnob.svg"
   inkscape:version="0.92.2 (5c3e80d, 2017-08-06)">
  <defs
     id="defs5260" />
  <sodipodi:namedview
     id="base"
     pagecolor="#ffffff"
     bordercolor="#666666"
     borderopacity="1.0"
     inkscape:pageopacity="0.0"
     inkscape:pageshadow="2"
     inkscape:zoom="16"
     inkscape:cx="13.938721"
     inkscape:cy="21.991249"
     inkscape:document-units="mm"
     inkscape:current-layer="layer1"
     showgrid="false"
     units="px"
     inkscape:snap-bbox="false"
     inkscape:bbox-paths="true"
     inkscape:bbox-nodes="true"
     inkscape:snap-bbox-edge-midpoints="true"
     inkscape:snap-bbox-midpoints="true"
     inkscape:snap-object-midpoints="true"
     inkscape:snap-center="true"
     inkscape:snap-page="true"
     showguides="true"
     inkscape:guide-bbox="true"
     inkscape:window-width="1920"
     inkscape:window-height="1033"
     inkscape:window-x="-4"
     inkscape:window-y="-4"
     inkscape:window-maximized="1"
     inkscape:snap-others="false"
     inkscape:snap-nodes="false" />
  <metadata
     id="metadata5263">
    <rdf:RDF>
      <cc:Work
         rdf:about="">
        <dc:format>image/svg+xml</dc:format>
        <dc:type
           rdf:resource="http://purl.org/dc/dcmitype/StillImage" />
        <dc:title />
      </cc:Work>
    </rdf:RDF>
  </metadata>
  <g
     inkscape:label="Ebene 1"
     inkscape:groupmode="layer"
     id="layer1"
     transform="translate(0,-284.56457)">
    <path
       style="opacity:1;fill:#dfdfdf;fill-opacity:1;fill-rule:nonzero;stroke:#000000;stroke-width:0.30000001;stroke-linecap:round;stroke-linejoin:miter;stroke-miterlimit:1.5;stroke-dasharray:none;stroke-dashoffset:0;stroke-opacity:1;paint-order:markers stroke fill"
       id="path5852"
       sodipodi:type="arc"
       sodipodi:cx="6.217701"
       sodipodi:cy="290.78229"
       sodipodi:rx="6.0321226"
       sodipodi:ry="6.0321226"
       sodipodi:start="0"
       sodipodi:end="6.2782635"
       sodipodi:open="true"
       d="m 12.249824,290.78229 a 6.0321226,6.0321226 0 0 1 -6.0247008,6.03212 6.0321226,6.0321226 0 0 1 -6.03952659,-6.01728 6.0321226,6.0321226 0 0 1 6.00983769,-6.04692 6.0321226,6.0321226 0 0 1 6.0543167,6.00239" />
    <path
       inkscape:connector-curvature="0"
       style="opacity:1;fill:#1d1c1d;fill-opacity:1;fill-rule:nonzero;stroke:#000000;stroke-width:0.1;stroke-linecap:round;stroke-linejoin:miter;stroke-miterlimit:1.5;stroke-dasharray:none;stroke-dashoffset:0;stroke-opacity:1;paint-order:markers stroke fill"
       d="m 6.1954788,284.6968 a 6.0854167,6.0854167 0 0 0 -0.8826304,0.0749 2.9466463,2.9466463 0 0 1 -1.3399699,1.32344 2.9466463,2.9466463 0 0 1 -1.8887801,0.23151 6.0854167,6.0854167 0 0 0 -1.1301601,1.41335 2.9466463,2.9466463 0 0 1 0.19947,1.87534 2.9466463,2.9466463 0 0 1 -0.99787,1.6216 6.0854167,6.0854167 0 0 0 0.40204,1.76424 2.9466463,2.9466463 0 0 1 1.5906001,1.01285 2.9466463,2.9466463 0 0 1 0.64544,1.79473 6.0854167,6.0854167 0 0 0 1.62471,0.786 2.9466463,2.9466463 0 0 1 0.008,-0.006 2.9466463,2.9466463 0 0 1 0.2315101,-0.16174 2.9466463,2.9466463 0 0 1 0.012401,-0.007 2.9466463,2.9466463 0 0 1 0.2439099,-0.13591 2.9466463,2.9466463 0 0 1 0.024299,-0.0108 2.9466463,2.9466463 0 0 1 0.2377099,-0.10284 2.9466463,2.9466463 0 0 1 0.0791,-0.0269 2.9466463,2.9466463 0 0 1 0.1968805,-0.0625 2.9466463,2.9466463 0 0 1 0.115239,-0.0264 2.9466463,2.9466463 0 0 1 0.16588,-0.0351 2.9466463,2.9466463 0 0 1 0.146761,-0.0181 2.9466463,2.9466463 0 0 1 0.1509,-0.016 2.9466463,2.9466463 0 0 1 0.1757,-0.007 2.9466463,2.9466463 0 0 1 1.80144,0.61133 2.9466463,2.9466463 0 0 1 0.002,10e-4 6.0854167,6.0854167 0 0 0 1.63039,-0.78393 2.9466463,2.9466463 0 0 1 0.6335592,-1.77664 2.9466463,2.9466463 0 0 1 1.60662,-1.02888 6.0854167,6.0854167 0 0 0 0.40411,-1.75855 2.9466463,2.9466463 0 0 1 -0.99788,-1.60662 2.9466463,2.9466463 0 0 1 0.196371,-1.89652 6.0854167,6.0854167 0 0 0 -1.126053,-1.41335 2.9466463,2.9466463 0 0 1 -1.8748202,-0.22169 2.9466463,2.9466463 0 0 1 -1.36167,-1.33946 6.0854167,6.0854167 0 0 0 -0.92501,-0.0687 z"
       id="path5814" />
    <path
       style="opacity:1;fill:#4d4d4d;fill-opacity:1;fill-rule:nonzero;stroke:#000000;stroke-width:0.30000001;stroke-linecap:round;stroke-linejoin:miter;stroke-miterlimit:1.5;stroke-dasharray:none;stroke-dashoffset:0;stroke-opacity:1;paint-order:markers stroke fill"
       id="path5852-7"
       sodipodi:type="arc"
       sodipodi:cx="6.217701"
       sodipodi:cy="290.78229"
       sodipodi:rx="6.0321226"
       sodipodi:ry="6.0321226"
       sodipodi:start="0"
       sodipodi:end="6.2782635"
       sodipodi:open="true"
       d="m 12.249824,290.78229 a 6.0321226,6.0321226 0 0 1 -6.0247008,6.03212 6.0321226,6.0321226 0 0 1 -6.03952659,-6.01728 6.0321226,6.0321226 0 0 1 6.00983769,-6.04692 6.0321226,6.0321226 0 0 1 6.0543167,6.00239" />
    <path
       style="opacity:1;fill:#141414;fill-opacity:1;fill-rule:nonzero;stroke:#f0f0f0;stroke-width:0.05;stroke-linecap:round;stroke-linejoin:miter;stroke-miterlimit:1.5;stroke-dasharray:none;stroke-dashoffset:0;stroke-opacity:1;paint-order:markers stroke fill"
       d="m 5.666326,284.77798 a 6.0321227,6.0321227 0 0 0 -1.9699057,0.53485 l 0.2687175,0.46509 -0.9544638,0.55139 -0.2697509,-0.46716 a 6.0321227,6.0321227 0 0 0 -1.438672,1.44539 l 0.4630209,0.26717 -0.5513876,0.95446 -0.46560454,-0.26871 a 6.0321227,6.0321227 0 0 0 -0.5281332,1.9699 h 0.5379517 v 1.10278 h -0.5441529 a 6.0321227,6.0321227 0 0 0 0.5353679,1.96938 l 0.46457104,-0.2682 0.5513876,0.95447 -0.4666382,0.26923 a 6.0321227,6.0321227 0 0 0 1.4453899,1.43816 l 0.2666503,-0.46199 0.9544638,0.55139 -0.2682008,0.46457 a 6.0321227,6.0321227 0 0 0 1.969389,0.5364 v -0.54519 h 1.1027749 v 0.54261 a 6.0321227,6.0321227 0 0 0 1.9688723,-0.53434 l -0.267684,-0.46405 0.9544637,-0.55139 0.2692342,0.46612 a 6.0321227,6.0321227 0 0 0 1.4386719,-1.44436 l -0.462504,-0.26716 0.551387,-0.95447 0.465088,0.26872 a 6.0321227,6.0321227 0 0 0 0.52865,-1.9699 h -0.537951 v -1.10278 h 0.544152 a 6.0321227,6.0321227 0 0 0 -0.534851,-1.9699 l -0.465088,0.26871 -0.551387,-0.95446 0.467155,-0.26975 a 6.0321227,6.0321227 0 0 0 -1.4453901,-1.43867 l -0.267167,0.46302 -0.9544637,-0.55139 0.2687174,-0.46561 a 6.0321227,6.0321227 0 0 0 -1.9699057,-0.52813 v 0.53795 H 5.666326 Z"
       id="path957"
       inkscape:connector-curvature="0" />
    <path
       style="opacity:1;fill:#3b3b3b;fill-opacity:1;fill-rule:nonzero;stroke:#bfbfbf;stroke-width:0.15000001;stroke-linecap:round;stroke-linejoin:miter;stroke-miterlimit:1.5;stroke-dasharray:none;stroke-dashoffset:0;stroke-opacity:1;paint-order:markers stroke fill"
       id="path5854"
       sodipodi:type="arc"
       sodipodi:cx="6.217701"
       sodipodi:cy="290.78229"
       sodipodi:rx="3.9706018"
       sodipodi:ry="3.9706018"
       sodipodi:start="0"
       sodipodi:end="6.2782635"
       sodipodi:open="true"
       d="m 10.188303,290.78229 a 3.9706018,3.9706018 0 0 1 -3.9657164,3.9706 3.9706018,3.9706018 0 0 1 -3.9754754,-3.96083 3.9706018,3.9706018 0 0 1 3.9559329,-3.98035 3.9706018,3.9706018 0 0 1 3.9852109,3.95104" />
    <g
       id="g873"
       transform="translate(0.01313936)">
      <path
         style="opacity:1;fill:none;fill-opacity:1;fill-rule:nonzero;stroke:#2e2b2b;stroke-width:0.15875001;stroke-linecap:round;stroke-linejoin:miter;stroke-miterlimit:1.5;stroke-dasharray:none;stroke-dashoffset:0;stroke-opacity:1;paint-order:markers stroke fill"
         id="path1001-8"
         sodipodi:type="arc"
         sodipodi:cx="6.204565"
         sodipodi:cy="290.77744"
         sodipodi:rx="1.4262065"
         sodipodi:ry="1.4262065"
         sodipodi:start="0"
         sodipodi:end="6.2782635"
         sodipodi:open="true"
         d="m 7.6307715,290.77744 a 1.4262065,1.4262065 0 0 1 -1.4244516,1.4262 1.4262065,1.4262065 0 0 1 -1.427957,-1.42269 1.4262065,1.4262065 0 0 1 1.4209375,-1.42971 1.4262065,1.4262065 0 0 1 1.4314538,1.41918" />
      <path
         sodipodi:nodetypes="ccccccccccc"
         inkscape:connector-curvature="0"
         id="path1429"
         d="m 6.1862518,284.71023 c -0.211894,0.002 -0.423395,0.0221 -0.633183,0.0474 v 2.00782 0.71571 2.11699 c 0.204319,-0.073 0.423641,-0.11107 0.645395,-0.11214 0.225784,-6.4e-4 0.449411,0.0372 0.657605,0.11111 v -2.11699 -0.71468 -2.00422 c -0.221898,-0.0267 -0.445691,-0.0501 -0.669817,-0.051 z"
         style="opacity:1;fill:#282828;fill-opacity:1;fill-rule:nonzero;stroke:none;stroke-width:0.1559108;stroke-linecap:round;stroke-linejoin:miter;stroke-miterlimit:1.5;stroke-dasharray:none;stroke-dashoffset:0;stroke-opacity:1;paint-order:markers stroke fill" />
    </g>
    <path
       id="path845"
       d="m 6.2011714,284.71052 a 4.1648851,4.1648851 0 0 0 -0.535884,0.0413 v 2.72955 a 1.4262065,1.4262065 0 0 1 0.54622,-0.11214 1.4262065,1.4262065 0 0 1 0.556555,0.1111 v -2.72851 a 4.1648851,4.1648851 0 0 0 -0.566891,-0.0413 z"
       style="opacity:1;fill:#2bc2db;fill-opacity:1;fill-rule:nonzero;stroke:none;stroke-width:0.14343247;stroke-linecap:round;stroke-linejoin:miter;stroke-miterlimit:1.5;stroke-dasharray:none;stroke-dashoffset:0;stroke-opacity:1;paint-order:markers stroke fill"
       inkscape:connector-curvature="0" />
    <rect
       style="opacity:1;fill:#3fd6ef;fill-opacity:1;fill-rule:nonzero;stroke:none;stroke-width:0.14321089;stroke-linecap:round;stroke-linejoin:miter;stroke-miterlimit:1.5;stroke-dasharray:none;stroke-dashoffset:0;stroke-opacity:1;paint-order:markers stroke fill"
       id="rect5856"
       width="1.1024699"
       height="4.9355049"
       x="5.6664782"
       y="284.74899" />
    <path
       style="opacity:1;fill:#3fd6ef;fill-opacity:1;fill-rule:nonzero;stroke:none;stroke-width:0.14343247;stroke-linecap:round;stroke-linejoin:miter;stroke-miterlimit:1.5;stroke-dasharray:none;stroke-dashoffset:0;stroke-opacity:1;paint-order:markers stroke fill"
       d="m 6.2011714,286.72409 c -0.179332,0.002 -0.358332,0.016 -0.535884,0.0413 v 2.80638 c 0.172921,-0.073 0.358541,-0.11107 0.54622,-0.11214 0.191088,-6.4e-4 0.380353,0.0372 0.556555,0.1111 v -2.80534 c -0.187802,-0.0267 -0.377206,-0.0405 -0.566891,-0.0413 z"
       id="rect5856-1"
       inkscape:connector-curvature="0"
       sodipodi:nodetypes="ccccccc" />
    <path
       d="m 9.8689735,290.78229 a 3.6512778,3.6512778 0 0 1 -3.6467851,3.65127 3.6512778,3.6512778 0 0 1 -3.6557594,-3.64229 3.6512778,3.6512778 0 0 1 3.6377886,-3.66024 3.6512778,3.6512778 0 0 1 3.6647117,3.63329"
       sodipodi:open="true"
       sodipodi:end="6.2782635"
       sodipodi:start="0"
       sodipodi:ry="3.6512778"
       sodipodi:rx="3.6512778"
       sodipodi:cy="290.78229"
       sodipodi:cx="6.2176957"
       sodipodi:type="arc"
       id="path999"
       style="opacity:1;fill:none;fill-opacity:1;fill-rule:nonzero;stroke:#141414;stroke-width:0.51499999;stroke-linecap:round;stroke-linejoin:miter;stroke-miterlimit:1.5;stroke-dasharray:none;stroke-dashoffset:0;stroke-opacity:1;paint-order:markers stroke fill" />
    <path
       d="m 10.188307,290.78229 a 3.9706018,3.9706018 0 0 1 -3.9657166,3.9706 3.9706018,3.9706018 0 0 1 -3.9754754,-3.96083 3.9706018,3.9706018 0 0 1 3.9559329,-3.98035 3.9706018,3.9706018 0 0 1 3.9852101,3.95104"
       sodipodi:open="true"
       sodipodi:end="6.2782635"
       sodipodi:start="0"
       sodipodi:ry="3.9706018"
       sodipodi:rx="3.9706018"
       sodipodi:cy="290.78229"
       sodipodi:cx="6.2177048"
       sodipodi:type="arc"
       id="path1001"
       style="opacity:1;fill:none;fill-opacity:1;fill-rule:nonzero;stroke:#bfbfbf;stroke-width:0.15000001;stroke-linecap:round;stroke-linejoin:miter;stroke-miterlimit:1.5;stroke-dasharray:none;stroke-dashoffset:0;stroke-opacity:1;paint-order:markers stroke fill" />
    <path
       d="m 7.3765653,290.78229 a 1.158861,1.158861 0 0 1 -1.1574351,1.15886 1.158861,1.158861 0 0 1 -1.1602834,-1.15601 1.158861,1.158861 0 0 1 1.1545797,-1.16171 1.158861,1.158861 0 0 1 1.1631248,1.15315"
       sodipodi:open="true"
       sodipodi:end="6.2782635"
       sodipodi:start="0"
       sodipodi:ry="1.158861"
       sodipodi:rx="1.158861"
       sodipodi:cy="290.78229"
       sodipodi:cx="6.2177043"
       sodipodi:type="arc"
       id="path999-0"
       style="opacity:1;fill:none;fill-opacity:1;fill-rule:nonzero;stroke:#141414;stroke-width:0.16345331;stroke-linecap:round;stroke-linejoin:miter;stroke-miterlimit:1.5;stroke-dasharray:none;stroke-dashoffset:0;stroke-opacity:1;paint-order:markers stroke fill" />
    <path
       d="m 7.5275772,290.78229 a 1.3098729,1.3098729 0 0 1 -1.3082612,1.30987 1.3098729,1.3098729 0 0 1 -1.3114806,-1.30665 1.3098729,1.3098729 0 0 1 1.3050337,-1.31309 1.3098729,1.3098729 0 0 1 1.3146922,1.30342"
       sodipodi:open="true"
       sodipodi:end="6.2782635"
       sodipodi:start="0"
       sodipodi:ry="1.3098729"
       sodipodi:rx="1.3098729"
       sodipodi:cy="290.78229"
       sodipodi:cx="6.2177043"
       sodipodi:type="arc"
       id="path1001-3"
       style="opacity:1;fill:none;fill-opacity:1;fill-rule:nonzero;stroke:#bfbfbf;stroke-width:0.15591128;stroke-linecap:round;stroke-linejoin:miter;stroke-miterlimit:1.5;stroke-dasharray:none;stroke-dashoffset:0;stroke-opacity:1;paint-order:markers stroke fill" />
    <path
       style="opacity:1;fill:none;fill-opacity:1;fill-rule:nonzero;stroke:#545454;stroke-width:0.09359519;stroke-linecap:round;stroke-linejoin:miter;stroke-miterlimit:1.5;stroke-dasharray:none;stroke-dashoffset:0;stroke-opacity:1;paint-order:markers stroke fill"
       id="path866-6"
       sodipodi:type="arc"
       sodipodi:cx="6.2177062"
       sodipodi:cy="290.78229"
       sodipodi:rx="0.9717136"
       sodipodi:ry="0.9717136"
       sodipodi:start="0"
       sodipodi:end="6.2782635"
       sodipodi:open="true"
       d="m 7.1894198,290.78229 a 0.9717136,0.9717136 0 0 1 -0.970518,0.97171 0.9717136,0.9717136 0 0 1 -0.9729063,-0.96932 0.9717136,0.9717136 0 0 1 0.9681238,-0.9741 0.9717136,0.9717136 0 0 1 0.9752887,0.96693" />
  </g>
</svg>
