<?xml version="1.0" encoding="UTF-8" standalone="no"?>
<!-- Created with Inkscape (http://www.inkscape.org/) -->

<svg
   xmlns:dc="http://purl.org/dc/elements/1.1/"
   xmlns:cc="http://creativecommons.org/ns#"
   xmlns:rdf="http://www.w3.org/1999/02/22-rdf-syntax-ns#"
   xmlns:svg="http://www.w3.org/2000/svg"
   xmlns="http://www.w3.org/2000/svg"
   xmlns:sodipodi="http://sodipodi.sourceforge.net/DTD/sodipodi-0.dtd"
   xmlns:inkscape="http://www.inkscape.org/namespaces/inkscape"
   width="47"
   height="47"
   viewBox="0 0 12.435416 12.435416"
   version="1.1"
   id="svg16908"
   inkscape:version="0.92.2 (5c3e80d, 2017-08-06)"
   sodipodi:docname="RedLargeKnob.svg">
  <defs
     id="defs16902">
    <clipPath
       clipPathUnits="userSpaceOnUse"
       id="clipPath6367">
      <path
         d="M 0,3193 H 2089 V 0 H 0 Z"
         id="path6365"
         inkscape:connector-curvature="0" />
    </clipPath>
  </defs>
  <sodipodi:namedview
     id="base"
     pagecolor="#ffffff"
     bordercolor="#666666"
     borderopacity="1.0"
     inkscape:pageopacity="0.0"
     inkscape:pageshadow="2"
     inkscape:zoom="16.000001"
     inkscape:cx="16.44384"
     inkscape:cy="22.970263"
     inkscape:document-units="mm"
     inkscape:current-layer="layer1"
     showgrid="false"
     fit-margin-top="0"
     fit-margin-left="0"
     fit-margin-right="0"
     fit-margin-bottom="0"
     inkscape:window-width="1920"
     inkscape:window-height="1033"
     inkscape:window-x="-4"
     inkscape:window-y="-4"
     inkscape:window-maximized="1"
     inkscape:measure-start="0,0"
     inkscape:measure-end="0,0"
     showguides="true"
     inkscape:guide-bbox="true"
     units="px"
     inkscape:snap-page="true"
     inkscape:snap-bbox="true"
     inkscape:bbox-paths="true"
     inkscape:bbox-nodes="true"
     inkscape:snap-bbox-edge-midpoints="true"
     inkscape:snap-bbox-midpoints="true"
     inkscape:object-nodes="false"
     inkscape:snap-nodes="true"
     inkscape:snap-others="true"
     inkscape:snap-object-midpoints="true"
     inkscape:snap-center="true" />
  <metadata
     id="metadata16905">
    <rdf:RDF>
      <cc:Work
         rdf:about="">
        <dc:format>image/svg+xml</dc:format>
        <dc:type
           rdf:resource="http://purl.org/dc/dcmitype/StillImage" />
        <dc:title />
      </cc:Work>
    </rdf:RDF>
  </metadata>
  <g
     inkscape:label="Layer 1"
     inkscape:groupmode="layer"
     id="layer1"
     transform="translate(-230.09585,-120.32241)">
    <path
       style="opacity:1;fill:#4d4d4d;fill-opacity:1;fill-rule:nonzero;stroke:#000000;stroke-width:0.30000001;stroke-linecap:round;stroke-linejoin:miter;stroke-miterlimit:1.5;stroke-dasharray:none;stroke-dashoffset:0;stroke-opacity:1;paint-order:markers stroke fill"
       id="path5852-9"
       sodipodi:type="arc"
       sodipodi:cx="236.31355"
       sodipodi:cy="126.54012"
       sodipodi:rx="6.0321226"
       sodipodi:ry="6.0321226"
       sodipodi:start="0"
       sodipodi:end="6.2782635"
       sodipodi:open="true"
       d="m 242.34568,126.54012 a 6.0321226,6.0321226 0 0 1 -6.0247,6.03212 6.0321226,6.0321226 0 0 1 -6.03953,-6.01727 6.0321226,6.0321226 0 0 1 6.00984,-6.04693 6.0321226,6.0321226 0 0 1 6.05431,6.00239" />
    <path
       style="opacity:1;fill:#141414;fill-opacity:1;fill-rule:nonzero;stroke:#f0f0f0;stroke-width:0.05;stroke-linecap:round;stroke-linejoin:miter;stroke-miterlimit:1.5;stroke-dasharray:none;stroke-dashoffset:0;stroke-opacity:1;paint-order:markers stroke fill"
       d="m 235.7622,120.5358 a 6.0321227,6.0321227 0 0 0 -1.96991,0.53485 l 0.26872,0.46509 -0.95446,0.55139 -0.26976,-0.46716 a 6.0321227,6.0321227 0 0 0 -1.43867,1.44539 l 0.46302,0.26717 -0.55138,0.95446 -0.46561,-0.26871 a 6.0321227,6.0321227 0 0 0 -0.52813,1.9699 h 0.53795 v 1.10278 h -0.54415 a 6.0321227,6.0321227 0 0 0 0.53536,1.96938 l 0.46458,-0.2682 0.55138,0.95447 -0.46663,0.26923 a 6.0321227,6.0321227 0 0 0 1.44538,1.43816 l 0.26666,-0.46199 0.95446,0.55139 -0.2682,0.46457 a 6.0321227,6.0321227 0 0 0 1.96939,0.5364 v -0.54519 h 1.10277 v 0.54261 a 6.0321227,6.0321227 0 0 0 1.96887,-0.53434 l -0.26768,-0.46405 0.95446,-0.55139 0.26924,0.46612 a 6.0321227,6.0321227 0 0 0 1.43867,-1.44436 l -0.4625,-0.26716 0.55138,-0.95447 0.46509,0.26872 a 6.0321227,6.0321227 0 0 0 0.52865,-1.9699 h -0.53795 v -1.10278 h 0.54415 a 6.0321227,6.0321227 0 0 0 -0.53485,-1.9699 l -0.46509,0.26871 -0.55138,-0.95446 0.46715,-0.26975 a 6.0321227,6.0321227 0 0 0 -1.44539,-1.43867 l -0.26717,0.46302 -0.95446,-0.55139 0.26872,-0.46561 a 6.0321227,6.0321227 0 0 0 -1.96991,-0.52813 v 0.53795 h -1.10277 z"
       id="path957-6"
       inkscape:connector-curvature="0" />
    <path
       style="opacity:1;fill:#434343;fill-opacity:1;fill-rule:nonzero;stroke:#bfbfbf;stroke-width:0.15000001;stroke-linecap:round;stroke-linejoin:miter;stroke-miterlimit:1.5;stroke-dasharray:none;stroke-dashoffset:0;stroke-opacity:1;paint-order:markers stroke fill"
       id="path5854-8"
       sodipodi:type="arc"
       sodipodi:cx="236.31355"
       sodipodi:cy="126.54012"
       sodipodi:rx="3.9706018"
       sodipodi:ry="3.9706018"
       sodipodi:start="0"
       sodipodi:end="6.2782635"
       sodipodi:open="true"
       d="m 240.28415,126.54012 a 3.9706018,3.9706018 0 0 1 -3.96571,3.9706 3.9706018,3.9706018 0 0 1 -3.97548,-3.96083 3.9706018,3.9706018 0 0 1 3.95594,-3.98034 3.9706018,3.9706018 0 0 1 3.98521,3.95103" />
    <path
       d="m 237.47241,126.54012 a 1.158861,1.158861 0 0 1 -1.15743,1.15886 1.158861,1.158861 0 0 1 -1.16028,-1.15601 1.158861,1.158861 0 0 1 1.15458,-1.1617 1.158861,1.158861 0 0 1 1.16312,1.15315"
       sodipodi:open="true"
       sodipodi:end="6.2782635"
       sodipodi:start="0"
       sodipodi:ry="1.158861"
       sodipodi:rx="1.158861"
       sodipodi:cy="126.54012"
       sodipodi:cx="236.31355"
       sodipodi:type="arc"
       id="path999"
       style="opacity:1;fill:none;fill-opacity:1;fill-rule:nonzero;stroke:#141414;stroke-width:0.16345331;stroke-linecap:round;stroke-linejoin:miter;stroke-miterlimit:1.5;stroke-dasharray:none;stroke-dashoffset:0;stroke-opacity:1;paint-order:markers stroke fill" />
    <path
       d="m 237.73976,126.54012 a 1.4262065,1.4262065 0 0 1 -1.42445,1.42621 1.4262065,1.4262065 0 0 1 -1.42796,-1.4227 1.4262065,1.4262065 0 0 1 1.42094,-1.4297 1.4262065,1.4262065 0 0 1 1.43145,1.41917"
       sodipodi:open="true"
       sodipodi:end="6.2782635"
       sodipodi:start="0"
       sodipodi:ry="1.4262065"
       sodipodi:rx="1.4262065"
       sodipodi:cy="126.54012"
       sodipodi:cx="236.31355"
       sodipodi:type="arc"
       id="path1001-8-7"
       style="opacity:1;fill:none;fill-opacity:1;fill-rule:nonzero;stroke:#2e2b2b;stroke-width:0.15875001;stroke-linecap:round;stroke-linejoin:miter;stroke-miterlimit:1.5;stroke-dasharray:none;stroke-dashoffset:0;stroke-opacity:1;paint-order:markers stroke fill" />
    <path
       style="opacity:1;fill:#282828;fill-opacity:1;fill-rule:nonzero;stroke:none;stroke-width:0.1559108;stroke-linecap:round;stroke-linejoin:miter;stroke-miterlimit:1.5;stroke-dasharray:none;stroke-dashoffset:0;stroke-opacity:1;paint-order:markers stroke fill"
       d="m 236.29525,120.47293 c -0.21189,0.002 -0.42339,0.0221 -0.63318,0.0474 v 2.00782 0.71571 2.11699 c 0.20432,-0.073 0.42364,-0.11107 0.64539,-0.11214 0.22579,-6.4e-4 0.44942,0.0372 0.65761,0.11111 v -2.11699 -0.71468 -2.00422 c -0.2219,-0.0267 -0.44569,-0.0501 -0.66982,-0.051 z"
       id="path1429"
       inkscape:connector-curvature="0"
       sodipodi:nodetypes="ccccccccccc" />
    <path
       id="path845"
       d="m 236.29807,120.47044 a 4.1648851,4.1648851 0 0 0 -0.53589,0.0413 v 2.72955 a 1.4262065,1.4262065 0 0 1 0.54622,-0.11214 1.4262065,1.4262065 0 0 1 0.55656,0.1111 v -2.72851 a 4.1648851,4.1648851 0 0 0 -0.56689,-0.0413 z"
       style="opacity:1;fill:#bf1835;fill-opacity:1;fill-rule:nonzero;stroke:none;stroke-width:0.14343247;stroke-linecap:round;stroke-linejoin:miter;stroke-miterlimit:1.5;stroke-dasharray:none;stroke-dashoffset:0;stroke-opacity:1;paint-order:markers stroke fill"
       inkscape:connector-curvature="0" />
    <path
       style="opacity:1;fill:#f01f44;fill-opacity:1;fill-rule:nonzero;stroke:none;stroke-width:0.14343247;stroke-linecap:round;stroke-linejoin:miter;stroke-miterlimit:1.5;stroke-dasharray:none;stroke-dashoffset:0;stroke-opacity:1;paint-order:markers stroke fill"
       d="m 236.29807,122.48401 c -0.17933,0.002 -0.35834,0.016 -0.53589,0.0413 v 2.80638 c 0.17292,-0.073 0.35854,-0.11107 0.54622,-0.11214 0.19109,-6.4e-4 0.38036,0.0372 0.55656,0.1111 v -2.80534 c -0.1878,-0.0267 -0.37721,-0.0405 -0.56689,-0.0413 z"
       id="rect5856-9"
       inkscape:connector-curvature="0"
       sodipodi:nodetypes="ccccccc" />
    <path
       d="m 237.62343,126.54012 a 1.3098729,1.3098729 0 0 1 -1.30827,1.30987 1.3098729,1.3098729 0 0 1 -1.31148,-1.30664 1.3098729,1.3098729 0 0 1 1.30504,-1.31309 1.3098729,1.3098729 0 0 1 1.31469,1.30342"
       sodipodi:open="true"
       sodipodi:end="6.2782635"
       sodipodi:start="0"
       sodipodi:ry="1.3098729"
       sodipodi:rx="1.3098729"
       sodipodi:cy="126.54012"
       sodipodi:cx="236.31355"
       sodipodi:type="arc"
       id="path1001"
       style="opacity:1;fill:none;fill-opacity:1;fill-rule:nonzero;stroke:#bfbfbf;stroke-width:0.15591128;stroke-linecap:round;stroke-linejoin:miter;stroke-miterlimit:1.5;stroke-dasharray:none;stroke-dashoffset:0;stroke-opacity:1;paint-order:markers stroke fill" />
    <path
       d="m 237.47241,126.54012 a 1.158861,1.158861 0 0 1 -1.15743,1.15886 1.158861,1.158861 0 0 1 -1.16028,-1.15601 1.158861,1.158861 0 0 1 1.15458,-1.1617 1.158861,1.158861 0 0 1 1.16312,1.15315"
       sodipodi:open="true"
       sodipodi:end="6.2782635"
       sodipodi:start="0"
       sodipodi:ry="1.158861"
       sodipodi:rx="1.158861"
       sodipodi:cy="126.54012"
       sodipodi:cx="236.31355"
       sodipodi:type="arc"
       id="path999-4-0"
       style="opacity:1;fill:none;fill-opacity:1;fill-rule:nonzero;stroke:#141414;stroke-width:0.16345331;stroke-linecap:round;stroke-linejoin:miter;stroke-miterlimit:1.5;stroke-dasharray:none;stroke-dashoffset:0;stroke-opacity:1;paint-order:markers stroke fill" />
    <path
       style="opacity:1;fill:none;fill-opacity:1;fill-rule:nonzero;stroke:#545454;stroke-width:0.09359519;stroke-linecap:round;stroke-linejoin:miter;stroke-miterlimit:1.5;stroke-dasharray:none;stroke-dashoffset:0;stroke-opacity:1;paint-order:markers stroke fill"
       id="path866"
       sodipodi:type="arc"
       sodipodi:cx="236.31357"
       sodipodi:cy="126.54012"
       sodipodi:rx="0.9717136"
       sodipodi:ry="0.9717136"
       sodipodi:start="0"
       sodipodi:end="6.2782635"
       sodipodi:open="true"
       d="m 237.28528,126.54012 a 0.9717136,0.9717136 0 0 1 -0.97052,0.97172 0.9717136,0.9717136 0 0 1 -0.9729,-0.96933 0.9717136,0.9717136 0 0 1 0.96812,-0.97409 0.9717136,0.9717136 0 0 1 0.97529,0.96692" />
  </g>
</svg>
