<?xml version="1.0" encoding="UTF-8" standalone="no"?>
<!-- Created with Inkscape (http://www.inkscape.org/) -->

<svg
   xmlns:dc="http://purl.org/dc/elements/1.1/"
   xmlns:cc="http://creativecommons.org/ns#"
   xmlns:rdf="http://www.w3.org/1999/02/22-rdf-syntax-ns#"
   xmlns:svg="http://www.w3.org/2000/svg"
   xmlns="http://www.w3.org/2000/svg"
   xmlns:sodipodi="http://sodipodi.sourceforge.net/DTD/sodipodi-0.dtd"
   xmlns:inkscape="http://www.inkscape.org/namespaces/inkscape"
   width="31"
   height="31"
   viewBox="0 0 8.202083 8.2020835"
   version="1.1"
   id="svg8"
   inkscape:version="0.92.2 (5c3e80d, 2017-08-06)"
   sodipodi:docname="RedSmallKnob.svg">
  <defs
     id="defs2" />
  <sodipodi:namedview
     id="base"
     pagecolor="#ffffff"
     bordercolor="#666666"
     borderopacity="1.0"
     inkscape:pageopacity="0.0"
     inkscape:pageshadow="2"
     inkscape:zoom="11.313709"
     inkscape:cx="3.3946761"
     inkscape:cy="21.728966"
     inkscape:document-units="mm"
     inkscape:current-layer="layer1"
     showgrid="false"
     units="px"
     inkscape:window-width="1920"
     inkscape:window-height="1033"
     inkscape:window-x="-4"
     inkscape:window-y="-4"
     inkscape:window-maximized="1" />
  <metadata
     id="metadata5">
    <rdf:RDF>
      <cc:Work
         rdf:about="">
        <dc:format>image/svg+xml</dc:format>
        <dc:type
           rdf:resource="http://purl.org/dc/dcmitype/StillImage" />
        <dc:title />
      </cc:Work>
    </rdf:RDF>
  </metadata>
  <g
     inkscape:label="Ebene 1"
     inkscape:groupmode="layer"
     id="layer1"
     transform="translate(0,-288.79791)">
    <g
       id="g855"
       transform="matrix(0.65692904,0,0,0.65426439,9.616358,102.00979)">
      <path
         d="m -2.3634892,291.76151 a 6.0321226,6.0321226 0 0 1 -6.0247003,6.03211 6.0321226,6.0321226 0 0 1 -6.0395265,-6.01727 6.0321226,6.0321226 0 0 1 6.0098376,-6.04693 6.0321226,6.0321226 0 0 1 6.0543162,6.0024"
         sodipodi:open="true"
         sodipodi:end="6.2782635"
         sodipodi:start="0"
         sodipodi:ry="6.0321226"
         sodipodi:rx="6.0321226"
         sodipodi:cy="291.76151"
         sodipodi:cx="-8.3956118"
         sodipodi:type="arc"
         id="path5852-9"
         style="opacity:1;fill:#4d4d4d;fill-opacity:1;fill-rule:nonzero;stroke:#000000;stroke-width:0.30000001;stroke-linecap:round;stroke-linejoin:miter;stroke-miterlimit:1.5;stroke-dasharray:none;stroke-dashoffset:0;stroke-opacity:1;paint-order:markers stroke fill" />
      <path
         inkscape:connector-curvature="0"
         id="path957-6"
         d="m -8.9469643,285.75718 a 6.0321227,6.0321227 0 0 0 -1.9699097,0.53485 l 0.26872,0.46509 -0.95446,0.55139 -0.26976,-0.46716 a 6.0321227,6.0321227 0 0 0 -1.43867,1.44539 l 0.46302,0.26717 -0.55138,0.95446 -0.46561,-0.26871 a 6.0321227,6.0321227 0 0 0 -0.52813,1.9699 h 0.53795 v 1.10278 h -0.54415 a 6.0321227,6.0321227 0 0 0 0.53536,1.96938 l 0.46458,-0.2682 0.55138,0.95447 -0.46663,0.26923 a 6.0321227,6.0321227 0 0 0 1.44538,1.43816 l 0.26666,-0.46199 0.95446,0.55139 -0.2682,0.46457 a 6.0321227,6.0321227 0 0 0 1.9693897,0.5364 v -0.54519 h 1.1027701 v 0.54261 a 6.0321227,6.0321227 0 0 0 1.9688699,-0.53434 l -0.2676801,-0.46405 0.9544601,-0.55139 0.26924,0.46612 a 6.0321227,6.0321227 0 0 0 1.4386698,-1.44436 l -0.4625,-0.26716 0.55138,-0.95447 0.46509,0.26872 a 6.0321227,6.0321227 0 0 0 0.52865,-1.9699 h -0.53795 v -1.10278 h 0.54415 a 6.0321227,6.0321227 0 0 0 -0.53485,-1.9699 l -0.46509,0.26871 -0.55138,-0.95446 0.46715,-0.26975 a 6.0321227,6.0321227 0 0 0 -1.4453897,-1.43867 l -0.2671701,0.46302 -0.9544601,-0.55139 0.2687201,-0.46561 a 6.0321227,6.0321227 0 0 0 -1.9699099,-0.52813 v 0.53795 h -1.1027701 z"
         style="opacity:1;fill:#141414;fill-opacity:1;fill-rule:nonzero;stroke:#f0f0f0;stroke-width:0.05;stroke-linecap:round;stroke-linejoin:miter;stroke-miterlimit:1.5;stroke-dasharray:none;stroke-dashoffset:0;stroke-opacity:1;paint-order:markers stroke fill" />
      <path
         d="m -4.42501,291.76151 a 3.9706018,3.9706018 0 0 1 -3.9657161,3.97059 3.9706018,3.9706018 0 0 1 -3.9754759,-3.96082 3.9706018,3.9706018 0 0 1 3.9559334,-3.98035 3.9706018,3.9706018 0 0 1 3.9852105,3.95103"
         sodipodi:open="true"
         sodipodi:end="6.2782635"
         sodipodi:start="0"
         sodipodi:ry="3.9706018"
         sodipodi:rx="3.9706018"
         sodipodi:cy="291.76151"
         sodipodi:cx="-8.3956118"
         sodipodi:type="arc"
         id="path5854-8"
         style="opacity:1;fill:#434343;fill-opacity:1;fill-rule:nonzero;stroke:#bfbfbf;stroke-width:0.15000001;stroke-linecap:round;stroke-linejoin:miter;stroke-miterlimit:1.5;stroke-dasharray:none;stroke-dashoffset:0;stroke-opacity:1;paint-order:markers stroke fill" />
      <path
         style="opacity:1;fill:none;fill-opacity:1;fill-rule:nonzero;stroke:#141414;stroke-width:0.16345331;stroke-linecap:round;stroke-linejoin:miter;stroke-miterlimit:1.5;stroke-dasharray:none;stroke-dashoffset:0;stroke-opacity:1;paint-order:markers stroke fill"
         id="path999"
         sodipodi:type="arc"
         sodipodi:cx="-8.3956118"
         sodipodi:cy="291.76151"
         sodipodi:rx="1.158861"
         sodipodi:ry="1.158861"
         sodipodi:start="0"
         sodipodi:end="6.2782635"
         sodipodi:open="true"
         d="m -7.2367507,291.76151 a 1.158861,1.158861 0 0 1 -1.1574351,1.15886 1.158861,1.158861 0 0 1 -1.1602835,-1.15601 1.158861,1.158861 0 0 1 1.1545798,-1.16171 1.158861,1.158861 0 0 1 1.1631247,1.15315" />
      <path
         style="opacity:1;fill:none;fill-opacity:1;fill-rule:nonzero;stroke:#2e2b2b;stroke-width:0.15875003;stroke-linecap:round;stroke-linejoin:miter;stroke-miterlimit:1.5;stroke-dasharray:none;stroke-dashoffset:0;stroke-opacity:1;paint-order:markers stroke fill"
         id="path1001-8-7"
         sodipodi:type="arc"
         sodipodi:cx="-8.3956118"
         sodipodi:cy="291.76151"
         sodipodi:rx="1.4262065"
         sodipodi:ry="1.4262065"
         sodipodi:start="0"
         sodipodi:end="6.2782635"
         sodipodi:open="true"
         d="m -6.9694053,291.76151 a 1.4262065,1.4262065 0 0 1 -1.4244516,1.4262 1.4262065,1.4262065 0 0 1 -1.427957,-1.4227 1.4262065,1.4262065 0 0 1 1.4209375,-1.4297 1.4262065,1.4262065 0 0 1 1.4314538,1.41918" />
      <path
         sodipodi:nodetypes="ccccccccccc"
         inkscape:connector-curvature="0"
         id="path1429"
         d="m -8.4139144,285.69431 c -0.21189,0.002 -0.4233899,0.0221 -0.6331799,0.0474 v 2.00782 0.71571 2.11699 c 0.20432,-0.073 0.42364,-0.11107 0.6453899,-0.11214 0.2257901,-6.3e-4 0.4494202,0.0372 0.65761,0.11111 v -2.11699 -0.71468 -2.00422 c -0.2219,-0.0267 -0.4456899,-0.0501 -0.66982,-0.051 z"
         style="opacity:1;fill:#282828;fill-opacity:1;fill-rule:nonzero;stroke:none;stroke-width:0.1559108;stroke-linecap:round;stroke-linejoin:miter;stroke-miterlimit:1.5;stroke-dasharray:none;stroke-dashoffset:0;stroke-opacity:1;paint-order:markers stroke fill" />
      <path
         inkscape:connector-curvature="0"
         style="opacity:1;fill:#bf1835;fill-opacity:1;fill-rule:nonzero;stroke:none;stroke-width:0.14343247;stroke-linecap:round;stroke-linejoin:miter;stroke-miterlimit:1.5;stroke-dasharray:none;stroke-dashoffset:0;stroke-opacity:1;paint-order:markers stroke fill"
         d="m -8.4110942,285.69182 a 4.1648851,4.1648851 0 0 0 -0.53589,0.0413 v 2.72955 a 1.4262065,1.4262065 0 0 1 0.5462199,-0.11214 1.4262065,1.4262065 0 0 1 0.55656,0.1111 v -2.72851 a 4.1648851,4.1648851 0 0 0 -0.5668899,-0.0413 z"
         id="path845" />
      <path
         sodipodi:nodetypes="ccccccc"
         inkscape:connector-curvature="0"
         id="rect5856-9"
         d="m -8.4110942,287.70539 c -0.1793301,0.002 -0.35834,0.016 -0.53589,0.0413 v 2.80638 c 0.1729198,-0.073 0.3585398,-0.11107 0.5462199,-0.11214 0.19109,-6.3e-4 0.3803599,0.0372 0.55656,0.1111 v -2.80534 c -0.1877999,-0.0267 -0.3772101,-0.0405 -0.5668899,-0.0413 z"
         style="opacity:1;fill:#f01f44;fill-opacity:1;fill-rule:nonzero;stroke:none;stroke-width:0.14343247;stroke-linecap:round;stroke-linejoin:miter;stroke-miterlimit:1.5;stroke-dasharray:none;stroke-dashoffset:0;stroke-opacity:1;paint-order:markers stroke fill" />
      <path
         style="opacity:1;fill:none;fill-opacity:1;fill-rule:nonzero;stroke:#bfbfbf;stroke-width:0.15591128;stroke-linecap:round;stroke-linejoin:miter;stroke-miterlimit:1.5;stroke-dasharray:none;stroke-dashoffset:0;stroke-opacity:1;paint-order:markers stroke fill"
         id="path1001"
         sodipodi:type="arc"
         sodipodi:cx="-8.3956118"
         sodipodi:cy="291.76151"
         sodipodi:rx="1.3098729"
         sodipodi:ry="1.3098729"
         sodipodi:start="0"
         sodipodi:end="6.2782635"
         sodipodi:open="true"
         d="m -7.0857389,291.76151 a 1.3098729,1.3098729 0 0 1 -1.3082611,1.30987 1.3098729,1.3098729 0 0 1 -1.3114807,-1.30665 1.3098729,1.3098729 0 0 1 1.3050337,-1.31309 1.3098729,1.3098729 0 0 1 1.3146922,1.30342" />
      <path
         style="opacity:1;fill:none;fill-opacity:1;fill-rule:nonzero;stroke:#141414;stroke-width:0.16345331;stroke-linecap:round;stroke-linejoin:miter;stroke-miterlimit:1.5;stroke-dasharray:none;stroke-dashoffset:0;stroke-opacity:1;paint-order:markers stroke fill"
         id="path999-4-0"
         sodipodi:type="arc"
         sodipodi:cx="-8.3956118"
         sodipodi:cy="291.76151"
         sodipodi:rx="1.158861"
         sodipodi:ry="1.158861"
         sodipodi:start="0"
         sodipodi:end="6.2782635"
         sodipodi:open="true"
         d="m -7.2367507,291.76151 a 1.158861,1.158861 0 0 1 -1.1574351,1.15886 1.158861,1.158861 0 0 1 -1.1602835,-1.15601 1.158861,1.158861 0 0 1 1.1545798,-1.16171 1.158861,1.158861 0 0 1 1.1631247,1.15315" />
      <path
         d="m -7.4238829,291.76151 a 0.9717136,0.9717136 0 0 1 -0.970518,0.97171 0.9717136,0.9717136 0 0 1 -0.9729063,-0.96932 0.9717136,0.9717136 0 0 1 0.9681238,-0.9741 0.9717136,0.9717136 0 0 1 0.9752887,0.96692"
         sodipodi:open="true"
         sodipodi:end="6.2782635"
         sodipodi:start="0"
         sodipodi:ry="0.9717136"
         sodipodi:rx="0.9717136"
         sodipodi:cy="291.76151"
         sodipodi:cx="-8.3955965"
         sodipodi:type="arc"
         id="path866"
         style="opacity:1;fill:none;fill-opacity:1;fill-rule:nonzero;stroke:#545454;stroke-width:0.09359519;stroke-linecap:round;stroke-linejoin:miter;stroke-miterlimit:1.5;stroke-dasharray:none;stroke-dashoffset:0;stroke-opacity:1;paint-order:markers stroke fill" />
    </g>
  </g>
</svg>
