<?xml version="1.0" encoding="UTF-8" standalone="no"?>
<!-- Created with Inkscape (http://www.inkscape.org/) -->

<svg
   xmlns:dc="http://purl.org/dc/elements/1.1/"
   xmlns:cc="http://creativecommons.org/ns#"
   xmlns:rdf="http://www.w3.org/1999/02/22-rdf-syntax-ns#"
   xmlns:svg="http://www.w3.org/2000/svg"
   xmlns="http://www.w3.org/2000/svg"
   xmlns:sodipodi="http://sodipodi.sourceforge.net/DTD/sodipodi-0.dtd"
   xmlns:inkscape="http://www.inkscape.org/namespaces/inkscape"
   width="47"
   height="47"
   viewBox="0 0 12.435416 12.435416"
   version="1.1"
   id="svg16908"
   inkscape:version="0.92.2 (5c3e80d, 2017-08-06)"
   sodipodi:docname="VioLargeKnob.svg">
  <defs
     id="defs16902">
    <clipPath
       clipPathUnits="userSpaceOnUse"
       id="clipPath6367">
      <path
         d="M 0,3193 H 2089 V 0 H 0 Z"
         id="path6365"
         inkscape:connector-curvature="0" />
    </clipPath>
    <pattern
       y="0"
       x="0"
       height="6"
       width="6"
       patternUnits="userSpaceOnUse"
       id="EMFhbasepattern" />
  </defs>
  <sodipodi:namedview
     id="base"
     pagecolor="#ffffff"
     bordercolor="#666666"
     borderopacity="1.0"
     inkscape:pageopacity="0.0"
     inkscape:pageshadow="2"
     inkscape:zoom="12.377506"
     inkscape:cx="17.627139"
     inkscape:cy="24.200846"
     inkscape:document-units="mm"
     inkscape:current-layer="layer1"
     showgrid="false"
     fit-margin-top="0"
     fit-margin-left="0"
     fit-margin-right="0"
     fit-margin-bottom="0"
     inkscape:window-width="1920"
     inkscape:window-height="1033"
     inkscape:window-x="-4"
     inkscape:window-y="-4"
     inkscape:window-maximized="1"
     inkscape:measure-start="0,0"
     inkscape:measure-end="0,0"
     showguides="true"
     inkscape:guide-bbox="true"
     units="px"
     inkscape:snap-page="true"
     inkscape:snap-bbox="false"
     inkscape:bbox-paths="true"
     inkscape:bbox-nodes="true"
     inkscape:snap-bbox-edge-midpoints="true"
     inkscape:snap-bbox-midpoints="true"
     inkscape:snap-others="false"
     inkscape:object-nodes="true"
     inkscape:snap-nodes="false" />
  <metadata
     id="metadata16905">
    <rdf:RDF>
      <cc:Work
         rdf:about="">
        <dc:format>image/svg+xml</dc:format>
        <dc:type
           rdf:resource="http://purl.org/dc/dcmitype/StillImage" />
        <dc:title />
      </cc:Work>
    </rdf:RDF>
  </metadata>
  <g
     inkscape:label="Layer 1"
     inkscape:groupmode="layer"
     id="layer1"
     transform="translate(-230.09585,-120.32241)">
    <path
       style="opacity:1;fill:#141414;fill-opacity:1;fill-rule:nonzero;stroke:#000000;stroke-width:0.30000001;stroke-linecap:round;stroke-linejoin:miter;stroke-miterlimit:1.5;stroke-dasharray:none;stroke-dashoffset:0;stroke-opacity:1;paint-order:markers stroke fill"
       id="path5852"
       sodipodi:type="arc"
       sodipodi:cx="236.31355"
       sodipodi:cy="126.54012"
       sodipodi:rx="6.0321226"
       sodipodi:ry="6.0321226"
       sodipodi:start="0"
       sodipodi:end="6.2782635"
       sodipodi:open="true"
       d="m 242.34568,126.54012 a 6.0321226,6.0321226 0 0 1 -6.0247,6.03212 6.0321226,6.0321226 0 0 1 -6.03953,-6.01727 6.0321226,6.0321226 0 0 1 6.00984,-6.04693 6.0321226,6.0321226 0 0 1 6.05431,6.00239" />
    <path
       style="opacity:1;fill:#3b3b3b;fill-opacity:1;fill-rule:nonzero;stroke:#bfbfbf;stroke-width:0.15000001;stroke-linecap:round;stroke-linejoin:miter;stroke-miterlimit:1.5;stroke-dasharray:none;stroke-dashoffset:0;stroke-opacity:1;paint-order:markers stroke fill"
       id="path5854"
       sodipodi:type="arc"
       sodipodi:cx="236.31355"
       sodipodi:cy="126.54012"
       sodipodi:rx="3.9706018"
       sodipodi:ry="3.9706018"
       sodipodi:start="0"
       sodipodi:end="6.2782635"
       sodipodi:open="true"
       d="m 240.28415,126.54012 a 3.9706018,3.9706018 0 0 1 -3.96571,3.9706 3.9706018,3.9706018 0 0 1 -3.97548,-3.96083 3.9706018,3.9706018 0 0 1 3.95594,-3.98034 3.9706018,3.9706018 0 0 1 3.98521,3.95103" />
    <path
       id="path858"
       d="m 242.346,126.54011 c 0,3.32314 -2.68815,6.03246 -6.03246,6.03246 -3.32314,0 -6.03245,-2.68815 -6.03245,-6.01129 0,-3.32314 2.68814,-6.03246 6.01128,-6.05362 3.32315,0 6.03246,2.66698 6.05363,6.01128 z"
       style="fill:#4d4d4d;fill-opacity:1;fill-rule:nonzero;stroke:none;stroke-width:0.26458332"
       inkscape:connector-curvature="0" />
    <path
       id="path860"
       d="m 242.346,126.54011 c 0,3.32314 -2.68815,6.03246 -6.03246,6.03246 -3.32314,0 -6.03245,-2.68815 -6.03245,-6.01129 0,-3.32314 2.68814,-6.03246 6.01128,-6.05362 3.32315,0 6.03246,2.66698 6.05363,6.01128"
       style="fill:none;stroke:#000000;stroke-width:0.29633114px;stroke-linecap:round;stroke-linejoin:miter;stroke-miterlimit:2;stroke-dasharray:none;stroke-opacity:1"
       inkscape:connector-curvature="0" />
    <path
       id="path862"
       d="m 235.76321,120.52882 c -0.67733,0.0635 -1.35466,0.254 -1.96848,0.55033 l 0.27516,0.46566 -0.95249,0.55033 -0.27517,-0.46566 c -0.57149,0.381 -1.05832,0.86783 -1.43932,1.43932 l 0.46566,0.27517 -0.55033,0.95249 -0.46566,-0.27516 c -0.29633,0.61382 -0.46566,1.29115 -0.52916,1.96848 h 0.52916 v 1.10066 h -0.55033 c 0.0847,0.67733 0.254,1.35466 0.55033,1.96849 l 0.46566,-0.27517 0.55033,0.97366 -0.46566,0.254 c 0.381,0.57149 0.88899,1.05832 1.43932,1.43932 l 0.27517,-0.46566 0.95249,0.55033 -0.27516,0.46566 c 0.61382,0.29633 1.29115,0.48683 1.96848,0.55033 v -0.55033 h 1.10066 v 0.55033 c 0.67733,-0.0635 1.35466,-0.254 1.96849,-0.55033 l -0.27517,-0.46566 0.97366,-0.55033 0.254,0.46566 c 0.57149,-0.381 1.05832,-0.86783 1.43932,-1.43932 l -0.46566,-0.254 0.55033,-0.97366 0.46566,0.27517 c 0.29633,-0.61383 0.46566,-1.29116 0.52916,-1.96849 h -0.52916 v -1.10066 h 0.55033 c -0.0635,-0.67733 -0.254,-1.35466 -0.55033,-1.96848 l -0.46566,0.27516 -0.55033,-0.95249 0.46566,-0.27517 c -0.381,-0.57149 -0.86783,-1.05832 -1.43932,-1.43932 l -0.254,0.46566 -0.97366,-0.55033 0.27517,-0.46566 c -0.61383,-0.29633 -1.29116,-0.46566 -1.96849,-0.52916 v 0.52916 h -1.10066 z"
       style="fill:#141414;fill-opacity:1;fill-rule:nonzero;stroke:#f0f0f0;stroke-width:0.04233302px;stroke-linecap:round;stroke-linejoin:miter;stroke-miterlimit:2;stroke-dasharray:none;stroke-opacity:1"
       inkscape:connector-curvature="0" />
    <path
       id="path864"
       d="m 240.29284,126.54011 c 0,2.20132 -1.77798,3.9793 -3.9793,3.9793 -2.18015,0 -3.95814,-1.77798 -3.9793,-3.95813 0,-2.20132 1.77798,-3.97931 3.95813,-4.00047 2.20132,0 3.97931,1.77798 4.00047,3.95813 z"
       style="fill:#434343;fill-opacity:1;fill-rule:nonzero;stroke:none;stroke-width:0.26458332"
       inkscape:connector-curvature="0" />
    <path
       id="path866"
       d="m 240.29284,126.54011 c 0,2.20132 -1.77798,3.9793 -3.9793,3.9793 -2.18015,0 -3.95814,-1.77798 -3.9793,-3.95813 0,-2.20132 1.77798,-3.97931 3.95813,-4.00047 2.20132,0 3.97931,1.77798 4.00047,3.95813"
       style="fill:none;stroke:#bfbfbf;stroke-width:0.14816557px;stroke-linecap:round;stroke-linejoin:miter;stroke-miterlimit:2;stroke-dasharray:none;stroke-opacity:1"
       inkscape:connector-curvature="0" />
    <path
       id="path868"
       d="m 237.4777,126.54011 c 0,0.635 -0.52916,1.16416 -1.16416,1.16416 -0.63499,0 -1.16416,-0.52916 -1.16416,-1.16416 0,-0.63499 0.52917,-1.16416 1.16416,-1.16416 0.635,0 1.16416,0.52917 1.16416,1.16416"
       style="fill:none;stroke:#141414;stroke-width:0.16933209px;stroke-linecap:round;stroke-linejoin:miter;stroke-miterlimit:2;stroke-dasharray:none;stroke-opacity:1"
       inkscape:connector-curvature="0" />
    <path
       id="path870"
       d="m 237.7317,126.54011 c 0,0.78316 -0.635,1.41816 -1.41816,1.41816 -0.78316,0 -1.41816,-0.635 -1.41816,-1.41816 0,-0.78316 0.635,-1.41816 1.41816,-1.41816 0.78316,0 1.41816,0.635 1.41816,1.41816"
       style="fill:none;stroke:#2e2b2b;stroke-width:0.16933209px;stroke-linecap:round;stroke-linejoin:miter;stroke-miterlimit:2;stroke-dasharray:none;stroke-opacity:1"
       inkscape:connector-curvature="0" />
    <path
       id="path872"
       d="m 236.29237,120.46532 c -0.21166,0.0212 -0.42333,0.0212 -0.63499,0.0635 v 2.01082 0.6985 2.11665 c 0.21166,-0.0635 0.42333,-0.10584 0.65616,-0.10584 0.21167,0 0.4445,0.0423 0.65616,0.10584 v -2.11665 -0.6985 -2.01082 c -0.23283,-0.0212 -0.44449,-0.0635 -0.67733,-0.0635 z"
       style="fill:#282828;fill-opacity:1;fill-rule:nonzero;stroke:none;stroke-width:0.26458332"
       inkscape:connector-curvature="0" />
    <path
       id="path874"
       d="m 236.29237,120.46532 c -0.16933,0 -0.35983,0.0212 -0.52916,0.0423 v 2.73048 c 0.16933,-0.0635 0.35983,-0.10584 0.55033,-0.10584 0.1905,0 0.381,0.0423 0.55033,0.10584 v -2.73048 c -0.1905,-0.0212 -0.381,-0.0423 -0.5715,-0.0423 z"
       style="fill:#bf1835;fill-opacity:1;fill-rule:nonzero;stroke:none;stroke-width:0.26458332"
       inkscape:connector-curvature="0" />
    <path
       id="path876"
       d="m 236.29237,122.47614 c -0.16933,0.0212 -0.35983,0.0212 -0.52916,0.0423 v 2.81515 c 0.16933,-0.0635 0.35983,-0.10583 0.55033,-0.10583 0.1905,0 0.381,0.0212 0.55033,0.10583 v -2.81515 c -0.1905,-0.0212 -0.381,-0.0423 -0.5715,-0.0423 z"
       style="fill:#ef1f43;fill-opacity:1;fill-rule:nonzero;stroke:none;stroke-width:0.26458332"
       inkscape:connector-curvature="0" />
    <path
       id="path878"
       d="m 237.62586,126.54011 c 0,0.71966 -0.59266,1.31232 -1.31232,1.31232 -0.71966,0 -1.31232,-0.59266 -1.31232,-1.31232 0,-0.71966 0.59266,-1.31232 1.31232,-1.31232 0.71966,0 1.31232,0.59266 1.31232,1.31232"
       style="fill:none;stroke:#bfbfbf;stroke-width:0.14816557px;stroke-linecap:round;stroke-linejoin:miter;stroke-miterlimit:2;stroke-dasharray:none;stroke-opacity:1"
       inkscape:connector-curvature="0" />
    <path
       id="path880"
       d="m 237.4777,126.54011 c 0,0.635 -0.52916,1.16416 -1.16416,1.16416 -0.63499,0 -1.16416,-0.52916 -1.16416,-1.16416 0,-0.63499 0.52917,-1.16416 1.16416,-1.16416 0.635,0 1.16416,0.52917 1.16416,1.16416"
       style="fill:none;stroke:#141414;stroke-width:0.16933209px;stroke-linecap:round;stroke-linejoin:miter;stroke-miterlimit:2;stroke-dasharray:none;stroke-opacity:1"
       inkscape:connector-curvature="0" />
    <path
       id="path882"
       d="m 237.2872,126.54011 c 0,0.52916 -0.4445,0.97366 -0.97366,0.97366 -0.52916,0 -0.97366,-0.42333 -0.97366,-0.97366 0,-0.52916 0.4445,-0.97366 0.97366,-0.97366 0.52916,0 0.97366,0.4445 0.97366,0.97366"
       style="fill:none;stroke:#545454;stroke-width:0.08466604px;stroke-linecap:round;stroke-linejoin:miter;stroke-miterlimit:2;stroke-dasharray:none;stroke-opacity:1"
       inkscape:connector-curvature="0" />
  </g>
</svg>
