<?xml version="1.0" encoding="UTF-8" standalone="no"?>
<!-- Created with Inkscape (http://www.inkscape.org/) -->

<svg
   xmlns:dc="http://purl.org/dc/elements/1.1/"
   xmlns:cc="http://creativecommons.org/ns#"
   xmlns:rdf="http://www.w3.org/1999/02/22-rdf-syntax-ns#"
   xmlns:svg="http://www.w3.org/2000/svg"
   xmlns="http://www.w3.org/2000/svg"
   xmlns:sodipodi="http://sodipodi.sourceforge.net/DTD/sodipodi-0.dtd"
   xmlns:inkscape="http://www.inkscape.org/namespaces/inkscape"
   width="70"
   height="19.9"
   viewBox="0 0 18.520835 5.2652086"
   version="1.1"
   id="svg8"
   inkscape:version="0.92.2 (5c3e80d, 2017-08-06)"
   sodipodi:docname="Easteregg_1.svg">
  <defs
     id="defs2" />
  <sodipodi:namedview
     id="base"
     pagecolor="#ffffff"
     bordercolor="#666666"
     borderopacity="1.0"
     inkscape:pageopacity="0.0"
     inkscape:pageshadow="2"
     inkscape:zoom="11.313709"
     inkscape:cx="40.970244"
     inkscape:cy="17.362807"
     inkscape:document-units="mm"
     inkscape:current-layer="layer1"
     showgrid="false"
     units="px"
     inkscape:window-width="1920"
     inkscape:window-height="1028"
     inkscape:window-x="-8"
     inkscape:window-y="-8"
     inkscape:window-maximized="1"
     inkscape:snap-global="true"
     showguides="true"
     inkscape:guide-bbox="true" />
  <metadata
     id="metadata5">
    <rdf:RDF>
      <cc:Work
         rdf:about="">
        <dc:format>image/svg+xml</dc:format>
        <dc:type
           rdf:resource="http://purl.org/dc/dcmitype/StillImage" />
        <dc:title></dc:title>
      </cc:Work>
    </rdf:RDF>
  </metadata>
  <g
     inkscape:label="Ebene 1"
     inkscape:groupmode="layer"
     id="layer1"
     transform="translate(0,-291.73479)">
    <g
       aria-label="OSCiX"
       style="font-size:10.58333302px;font-family:'DejaVu Sans Mono';-inkscape-font-specification:'DejaVu Sans Mono';letter-spacing:0px;word-spacing:0px;fill:#000000;stroke-width:0.26458332"
       id="text1004"
       transform="matrix(1.4872559,0,0,1.4872559,-38.448836,-4.726817)">
      <path
         d="m 26.91727,200.20144 q -0.233577,0 -0.341064,0.25011 -0.107487,0.24805 -0.107487,0.80409 0,0.55397 0.107487,0.80408 0.107487,0.24805 0.341064,0.24805 0.235645,0 0.343132,-0.24805 0.107487,-0.25011 0.107487,-0.80408 0,-0.55604 -0.107487,-0.80409 -0.107487,-0.25011 -0.343132,-0.25011 z m -1.083138,1.0542 q 0,-0.79169 0.272852,-1.19683 0.274918,-0.40514 0.810286,-0.40514 0.537435,0 0.810287,0.40514 0.274918,0.40514 0.274918,1.19683 0,0.78961 -0.274918,1.19475 -0.272852,0.40515 -0.810287,0.40515 -0.535368,0 -0.810286,-0.40515 -0.272852,-0.40514 -0.272852,-1.19475 z"
         style="-inkscape-font-specification:'DejaVu Sans Mono Bold'"
         id="path1006"
         inkscape:connector-curvature="0" />
      <path
         d="m 29.244776,201.44167 q -0.460953,-0.1757 -0.624251,-0.36794 -0.163297,-0.1943 -0.163297,-0.52089 0,-0.41962 0.268717,-0.6594 0.268718,-0.23977 0.737939,-0.23977 0.212907,0 0.425814,0.0496 0.212907,0.0475 0.42168,0.14262 v 0.59532 q -0.19637,-0.1385 -0.398942,-0.21084 -0.202572,-0.0724 -0.401009,-0.0724 -0.221175,0 -0.338998,0.0889 -0.117822,0.0889 -0.117822,0.25425 0,0.12816 0.08475,0.21291 0.08682,0.0827 0.359667,0.18396 l 0.262517,0.0992 q 0.37207,0.13643 0.54777,0.36174 0.1757,0.22531 0.1757,0.56844 0,0.46715 -0.276986,0.69866 -0.274919,0.22945 -0.833024,0.22945 -0.229443,0 -0.460954,-0.0558 -0.229443,-0.0538 -0.444417,-0.16123 v -0.63046 q 0.243913,0.17364 0.471289,0.25839 0.229443,0.0847 0.452686,0.0847 0.225309,0 0.349332,-0.10129 0.124024,-0.10335 0.124024,-0.28732 0,-0.13849 -0.08268,-0.24185 -0.08268,-0.10542 -0.239778,-0.16536 z"
         style="-inkscape-font-specification:'DejaVu Sans Mono Bold'"
         id="path1008"
         inkscape:connector-curvature="0" />
      <path
         d="m 32.97168,202.70671 q -0.144694,0.0744 -0.303857,0.11162 -0.159163,0.0372 -0.334863,0.0372 -0.624251,0 -0.952914,-0.41135 -0.328662,-0.41134 -0.328662,-1.18855 0,-0.77928 0.328662,-1.19063 0.328663,-0.41134 0.952914,-0.41134 0.1757,0 0.33693,0.0372 0.161231,0.0372 0.30179,0.11162 v 0.678 q -0.157096,-0.14469 -0.305924,-0.21084 -0.146761,-0.0682 -0.303857,-0.0682 -0.334864,0 -0.506429,0.26665 -0.169499,0.26458 -0.169499,0.78755 0,0.52089 0.169499,0.78754 0.171565,0.26459 0.506429,0.26459 0.157096,0 0.303857,-0.0661 0.148828,-0.0682 0.305924,-0.2129 z"
         style="-inkscape-font-specification:'DejaVu Sans Mono Bold'"
         id="path1010"
         inkscape:connector-curvature="0" />
      <path
         d="m 33.740625,200.48049 h 1.198894 v 1.85002 h 0.752408 v 0.46508 h -2.112532 v -0.46508 h 0.754476 v -1.38493 h -0.593246 z m 0.593246,-1.12655 h 0.605648 v 0.70694 h -0.605648 z"
         style="-inkscape-font-specification:'DejaVu Sans Mono Bold'"
         id="path1012"
         inkscape:connector-curvature="0" />
      <path
         d="m 38.323291,202.79559 h -0.630452 l -0.589111,-1.02112 -0.587045,1.02112 h -0.630452 l 0.905371,-1.56683 -0.880566,-1.51928 h 0.630452 l 0.56224,0.98185 0.564306,-0.98185 h 0.630453 l -0.876432,1.51928 z"
         style="-inkscape-font-specification:'DejaVu Sans Mono Bold'"
         id="path1021"
         inkscape:connector-curvature="0" />
    </g>
    <path
       style="opacity:0;fill:none;stroke:#000000;stroke-width:0.26458332px"
       d="m 85.394271,198.64114 v 96.17604"
       id="path2122"
       inkscape:connector-curvature="0" />
    <flowRoot
       xml:space="preserve"
       id="flowRoot1407"
       style="font-size:40px;line-height:1.25;font-family:'DejaVu Sans Mono';-inkscape-font-specification:'DejaVu Sans Mono';letter-spacing:0px;word-spacing:0px"><flowRegion
         id="flowRegion1409"><rect
           id="rect1411"
           width="100.40916"
           height="46.845821"
           x="232.28458"
           y="68.165916" /></flowRegion><flowPara
         id="flowPara1413" /></flowRoot>  </g>
</svg>
