<?xml version="1.0" encoding="UTF-8" standalone="no"?>
<svg
   xmlns:dc="http://purl.org/dc/elements/1.1/"
   xmlns:cc="http://creativecommons.org/ns#"
   xmlns:rdf="http://www.w3.org/1999/02/22-rdf-syntax-ns#"
   xmlns:svg="http://www.w3.org/2000/svg"
   xmlns="http://www.w3.org/2000/svg"
   xmlns:sodipodi="http://sodipodi.sourceforge.net/DTD/sodipodi-0.dtd"
   xmlns:inkscape="http://www.inkscape.org/namespaces/inkscape"
   inkscape:version="1.0beta2 (2b71d25, 2019-12-03)"
   id="svg1477"
   version="1.1"
   viewBox="0 0 14.620377 14.619999"
   height="14.62mm"
   width="14.620378mm"
   sodipodi:docname="davies_maroon_large.svg">
  <defs
     id="defs1471">
    <clipPath
       id="clipPath6367"
       clipPathUnits="userSpaceOnUse">
      <path
         inkscape:connector-curvature="0"
         id="path6365"
         d="M 0,3193 H 2089 V 0 H 0 Z" />
    </clipPath>
    <clipPath
       id="clipPath6367-0"
       clipPathUnits="userSpaceOnUse">
      <path
         inkscape:connector-curvature="0"
         id="path6365-6"
         d="M 0,3193 H 2089 V 0 H 0 Z" />
    </clipPath>
    <clipPath
       id="clipPath6367-7"
       clipPathUnits="userSpaceOnUse">
      <path
         inkscape:connector-curvature="0"
         id="path6365-1"
         d="M 0,3193 H 2089 V 0 H 0 Z" />
    </clipPath>
  </defs>
  <sodipodi:namedview
     inkscape:pagecheckerboard="true"
     showgrid="true"
     inkscape:document-rotation="0"
     inkscape:current-layer="g2004"
     inkscape:document-units="mm"
     inkscape:cy="25.938612"
     inkscape:cx="18.72483"
     inkscape:zoom="8.989161"
     inkscape:pageshadow="2"
     inkscape:pageopacity="0.0"
     borderopacity="1.0"
     bordercolor="#666666"
     pagecolor="#ffffff"
     id="base"
     inkscape:window-width="1600"
     inkscape:window-height="880"
     inkscape:window-x="239"
     inkscape:window-y="65"
     inkscape:window-maximized="0"
     inkscape:object-nodes="false"
     showguides="false"
     inkscape:snap-nodes="false"
     inkscape:snap-others="false">
    <inkscape:grid
       spacingy="0.25"
       spacingx="0.25"
       units="mm"
       id="grid1479"
       type="xygrid"
       originx="-0.38026726"
       originy="4.2853611" />
  </sodipodi:namedview>
  <metadata
     id="metadata1474">
    <rdf:RDF>
      <cc:Work
         rdf:about="">
        <dc:format>image/svg+xml</dc:format>
        <dc:type
           rdf:resource="http://purl.org/dc/dcmitype/StillImage" />
        <dc:title></dc:title>
      </cc:Work>
    </rdf:RDF>
  </metadata>
  <g
     id="layer1"
     inkscape:groupmode="layer"
     inkscape:label="Layer 1"
     transform="translate(-0.38026728,4.2853622)"
     style="display:inline" />
  <g
     inkscape:groupmode="layer"
     id="layer2"
     inkscape:label="Layer 2"
     style="display:inline"
     transform="translate(-0.41826751,4.2473619)">
    <g
       id="g2004"
       transform="matrix(0.25649811,0,0,-0.24271165,-346.85264,579.3657)"
       style="stroke-width:1.33335">
      <g
         transform="matrix(1.5833151,0,0,1.6731317,1410.892,2374.4346)"
         id="g6455"
         style="fill:#1a1a1a;stroke-width:1.33335">
        <path
           inkscape:connector-curvature="0"
           id="path6457"
           style="fill:#1a1a1a;fill-opacity:1;fill-rule:nonzero;stroke:none;stroke-width:1.33335"
           d="m 0,0 c 0,-9.941 -8.059,-18 -18,-18 -9.941,0 -18,8.059 -18,18 0,9.941 8.059,18 18,18 C -8.059,18 0,9.941 0,0" />
      </g>
      <g
         transform="matrix(1.5833151,0,0,1.6731317,1410.7311,2377.6174)"
         id="g6459"
         style="fill:#800000;stroke-width:1.33335">
        <path
           inkscape:connector-curvature="0"
           id="path6461"
           style="fill:#800000;fill-opacity:1;fill-rule:evenodd;stroke:none;stroke-width:1.33335"
           d="m 0,0 c -0.79,1.279 -2.12,2.537 -2.86,4.327 -0.74,1.784 -0.691,3.609 -1.033,5.067 -0.805,0.997 -1.711,1.902 -2.709,2.708 -1.459,0.341 -3.282,0.293 -5.068,1.033 -1.79,0.742 -3.048,2.069 -4.325,2.86 -0.625,0.066 -1.26,0.104 -1.902,0.104 -0.644,0 -1.279,-0.038 -1.903,-0.104 -1.279,-0.791 -2.537,-2.118 -4.327,-2.86 -1.784,-0.74 -3.607,-0.692 -5.067,-1.033 -0.997,-0.806 -1.904,-1.711 -2.708,-2.708 -0.342,-1.458 -0.294,-3.283 -1.035,-5.067 -0.74,-1.79 -2.069,-3.048 -2.858,-4.327 -0.066,-0.625 -0.103,-1.26 -0.103,-1.902 0,-0.643 0.037,-1.278 0.103,-1.905 0.789,-1.277 2.118,-2.535 2.858,-4.325 0.741,-1.784 0.693,-3.609 1.035,-5.066 0.804,-0.998 1.711,-1.904 2.708,-2.709 1.46,-0.342 3.283,-0.293 5.067,-1.032 1.79,-0.743 3.048,-2.071 4.327,-2.861 0.624,-0.065 1.259,-0.103 1.903,-0.103 0.642,0 1.277,0.038 1.902,0.103 1.277,0.79 2.535,2.118 4.325,2.861 1.786,0.739 3.609,0.69 5.068,1.032 0.998,0.805 1.904,1.711 2.709,2.709 0.342,1.457 0.293,3.282 1.033,5.066 0.74,1.79 2.07,3.048 2.86,4.325 0.065,0.627 0.102,1.262 0.102,1.905 C 0.102,-1.26 0.065,-0.625 0,0" />
      </g>
      <g
         transform="matrix(3.8800878,0,0,1.6731317,1384.7134,2404.4366)"
         id="g6463"
         style="fill:#b3b3b3;stroke-width:1.33335">
        <path
           inkscape:connector-curvature="0"
           id="path6465"
           style="fill:#b3b3b3;fill-opacity:1;fill-rule:evenodd;stroke:none;stroke-width:1.33335"
           d="M 0,0 C -0.195,0.045 -0.393,0.069 -0.598,0.069 -0.804,0.069 -1.002,0.045 -1.196,0 V -18.157 H 0 Z" />
      </g>
    </g>
  </g>
</svg>
