<?xml version="1.0" encoding="UTF-8" standalone="no"?>
<svg
   xmlns:dc="http://purl.org/dc/elements/1.1/"
   xmlns:cc="http://creativecommons.org/ns#"
   xmlns:rdf="http://www.w3.org/1999/02/22-rdf-syntax-ns#"
   xmlns:svg="http://www.w3.org/2000/svg"
   xmlns="http://www.w3.org/2000/svg"
   xmlns:sodipodi="http://sodipodi.sourceforge.net/DTD/sodipodi-0.dtd"
   xmlns:inkscape="http://www.inkscape.org/namespaces/inkscape"
   inkscape:version="1.0beta2 (2b71d25, 2019-12-03)"
   id="svg1477"
   version="1.1"
   viewBox="0 0 132.08 128.5"
   height="128.5mm"
   width="132.08mm"
   sodipodi:docname="Progress.svg">
  <defs
     id="defs1471" />
  <sodipodi:namedview
     showguides="false"
     inkscape:snap-others="false"
     inkscape:snap-nodes="false"
     inkscape:pagecheckerboard="true"
     showgrid="true"
     inkscape:document-rotation="0"
     inkscape:current-layer="layer2"
     inkscape:document-units="mm"
     inkscape:cy="261.20538"
     inkscape:cx="-45.468265"
     inkscape:zoom="1.3367168"
     inkscape:pageshadow="2"
     inkscape:pageopacity="0.0"
     borderopacity="1.0"
     bordercolor="#666666"
     pagecolor="#ffffff"
     id="base"
     inkscape:window-width="1920"
     inkscape:window-height="1080"
     inkscape:window-x="0"
     inkscape:window-y="0"
     inkscape:window-maximized="0">
    <inkscape:grid
       spacingy="2.54"
       spacingx="2.54"
       units="mm"
       id="grid1479"
       type="xygrid" />
  </sodipodi:namedview>
  <metadata
     id="metadata1474">
    <rdf:RDF>
      <cc:Work
         rdf:about="">
        <dc:format>image/svg+xml</dc:format>
        <dc:type
           rdf:resource="http://purl.org/dc/dcmitype/StillImage" />
        <dc:title />
      </cc:Work>
    </rdf:RDF>
  </metadata>
  <g
     style="display:inline"
     id="layer1"
     inkscape:groupmode="layer"
     inkscape:label="Layer 1">
    <rect
       rx="0"
       ry="0"
       y="0"
       x="0"
       height="129.53999"
       width="132.08"
       id="rect1481"
       style="fill:#1a1a1a;fill-opacity:1;stroke-width:0.426627" />
    <g
       style="font-style:normal;font-variant:normal;font-weight:normal;font-stretch:normal;font-size:7.05556px;line-height:1.25;font-family:'Heiti SC';-inkscape-font-specification:'Heiti SC';fill:#ffffff;stroke-width:0.264583"
       id="text2316"
       aria-label=" PROGRESS">
      <path
         inkscape:connector-curvature="0"
         id="path1614"
         style="font-style:normal;font-variant:normal;font-weight:normal;font-stretch:normal;font-family:'Heiti SC';-inkscape-font-specification:'Heiti SC';fill:#ffffff;stroke-width:0.264583"
         d="m 48.678695,3.1483146 h 1.058334 q 0.903112,0 1.185334,0.070556 0.282223,0.070556 0.515056,0.2540001 0.239889,0.1834446 0.373945,0.4586114 0.134055,0.2751669 0.134055,0.6208893 0,0.3457225 -0.134055,0.6208893 -0.127,0.2751669 -0.373945,0.4586114 -0.239889,0.176389 -0.592667,0.2540002 -0.352778,0.070556 -1.248834,0.070556 h -0.310445 v 2.3565571 h -0.606778 z m 0.606778,2.2225014 h 0.804334 q 0.712612,0.014111 0.966612,-0.2257779 0.261055,-0.2398891 0.261055,-0.5997226 0,-0.8043339 -1.185334,-0.8043339 h -0.846667 z" />
      <path
         inkscape:connector-curvature="0"
         id="path1616"
         style="font-style:normal;font-variant:normal;font-weight:normal;font-stretch:normal;font-family:'Heiti TC';-inkscape-font-specification:'Heiti TC';fill:#ffffff;stroke-width:0.264583"
         d="M 56.283156,8.3129846 H 55.521155 L 53.700821,5.9564275 h -0.211667 v 2.3565571 h -0.606778 v -5.16467 h 1.058334 q 0.846667,0 1.164167,0.077611 0.3175,0.070556 0.550334,0.2469446 0.232833,0.176389 0.366889,0.4586114 0.134056,0.2751669 0.134056,0.6138338 0,0.6420559 -0.437445,1.0301118 -0.437445,0.3810002 -1.262945,0.3810002 z M 53.489154,5.3637605 h 0.8255 q 0.62089,0.00706 0.917223,-0.1834446 0.296334,-0.1975557 0.296334,-0.6208893 0,-0.4303892 -0.289278,-0.6208893 -0.289278,-0.1975557 -0.903112,-0.1975557 h -0.846667 z" />
      <path
         inkscape:connector-curvature="0"
         id="path1618"
         style="font-style:normal;font-variant:normal;font-weight:normal;font-stretch:normal;font-family:'Heiti TC';-inkscape-font-specification:'Heiti TC';fill:#ffffff;stroke-width:0.264583"
         d="m 59.609302,3.0213145 q 0.754945,0 1.389945,0.3598336 0.635,0.352778 0.994834,0.9807228 0.366889,0.6279449 0.366889,1.3687787 0,0.7337782 -0.359833,1.3617231 -0.359834,0.6279448 -0.987779,0.9877784 -0.627945,0.3598336 -1.368779,0.3598336 -0.733778,0 -1.368778,-0.352778 Q 57.6408,7.7273731 57.280967,7.1064838 56.921133,6.478539 56.921133,5.7447607 q 0,-0.7408338 0.359834,-1.3687787 Q 57.6408,3.7409816 58.26169,3.3811481 58.889635,3.0213145 59.609302,3.0213145 Z m 0.02117,4.8260031 q 0.881945,0 1.488724,-0.5997226 0.613833,-0.5997226 0.613833,-1.5028343 0,-0.9031117 -0.620889,-1.5169454 -0.613834,-0.6138338 -1.481668,-0.6138338 -0.889,0 -1.488723,0.6208893 -0.592667,0.6138338 -0.592667,1.5028343 0,0.8819451 0.613834,1.4957788 0.613834,0.6138337 1.467556,0.6138337 z" />
      <path
         inkscape:connector-curvature="0"
         id="path1620"
         style="font-style:normal;font-variant:normal;font-weight:normal;font-stretch:normal;font-family:'Heiti TC';-inkscape-font-specification:'Heiti TC';fill:#ffffff;stroke-width:0.264583"
         d="m 68.577911,5.7870941 q -0.02117,1.2558897 -0.733779,1.9543901 -0.705556,0.6985005 -1.862668,0.6985005 -1.326445,0 -2.116668,-0.8113895 -0.790222,-0.8184449 -0.790222,-1.9120567 0,-1.0936119 0.790222,-1.8908902 0.790223,-0.8043338 2.039057,-0.8043338 0.677334,0 1.25589,0.2540002 0.585611,0.2469446 1.143001,0.7620005 L 67.837077,4.4818154 Q 67.406688,4.0655374 66.905743,3.846815 66.404798,3.6210371 65.875631,3.6210371 q -0.529167,0 -1.051278,0.2822224 -0.522112,0.2822224 -0.818445,0.7620005 -0.296334,0.4797781 -0.296334,1.0371673 0,0.8678339 0.649112,1.5169455 0.656167,0.6420559 1.63689,0.6420559 0.726722,0 1.255889,-0.3951113 0.529167,-0.402167 0.649112,-1.0936119 H 66.291909 V 5.7870941 Z" />
      <path
         inkscape:connector-curvature="0"
         id="path1622"
         style="font-style:normal;font-variant:normal;font-weight:normal;font-stretch:normal;font-family:'Heiti TC';-inkscape-font-specification:'Heiti TC';fill:#ffffff;stroke-width:0.264583"
         d="M 72.847186,8.3129846 H 72.085185 L 70.264851,5.9564275 h -0.211667 v 2.3565571 h -0.606778 v -5.16467 h 1.058334 q 0.846667,0 1.164167,0.077611 0.3175,0.070556 0.550334,0.2469446 0.232833,0.176389 0.366889,0.4586114 0.134056,0.2751669 0.134056,0.6138338 0,0.6420559 -0.437445,1.0301118 -0.437445,0.3810002 -1.262945,0.3810002 z M 70.053184,5.3637605 h 0.825501 q 0.620889,0.00706 0.917222,-0.1834446 0.296334,-0.1975557 0.296334,-0.6208893 0,-0.4303892 -0.289278,-0.6208893 -0.289278,-0.1975557 -0.903112,-0.1975557 h -0.846667 z" />
      <path
         inkscape:connector-curvature="0"
         id="path1624"
         style="font-style:normal;font-variant:normal;font-weight:normal;font-stretch:normal;font-family:'Heiti TC';-inkscape-font-specification:'Heiti TC';fill:#ffffff;stroke-width:0.264583"
         d="m 76.71661,3.7480372 h -2.398891 v 1.4816676 h 2.377724 V 5.8223719 H 74.317719 V 7.713262 h 2.377724 v 0.5997226 h -2.984502 v -5.16467 h 3.005669 z" />
      <path
         inkscape:connector-curvature="0"
         id="path1626"
         style="font-style:normal;font-variant:normal;font-weight:normal;font-stretch:normal;font-family:'Heiti TC';-inkscape-font-specification:'Heiti TC';fill:#ffffff;stroke-width:0.264583"
         d="M 79.469381,4.2842598 Q 79.187158,3.9032595 78.989603,3.7762594 78.792047,3.6422038 78.523936,3.6422038 q -0.261056,0 -0.444501,0.1693334 -0.176389,0.1693335 -0.176389,0.4374448 0,0.2610557 0.169334,0.4586114 0.169333,0.1975556 0.776111,0.6491115 0.613834,0.4445003 0.896057,0.8396116 0.282222,0.3951114 0.282222,0.8325561 0,0.5715004 -0.4445,0.994834 -0.437445,0.4162781 -1.023057,0.4162781 -1.030111,0 -1.615723,-1.1500563 l 0.515056,-0.2963336 q 0.458611,0.8537228 1.030112,0.8537228 0.366889,0 0.627945,-0.2328335 0.261055,-0.2328335 0.261055,-0.5432781 0,-0.3104446 -0.218722,-0.5856115 Q 78.940214,6.2033721 78.403991,5.8012052 77.867769,5.3919827 77.663157,5.1803159 77.465602,4.9686491 77.373879,4.72876 q -0.09172,-0.239889 -0.09172,-0.479778 0,-0.5150559 0.352778,-0.8678339 0.359834,-0.3598336 0.924278,-0.3598336 0.437445,0 0.762001,0.2257779 0.324556,0.2187224 0.635,0.6561671 z" />
      <path
         inkscape:connector-curvature="0"
         id="path1628"
         style="font-style:normal;font-variant:normal;font-weight:normal;font-stretch:normal;font-family:'Heiti TC';-inkscape-font-specification:'Heiti TC';fill:#ffffff;stroke-width:0.264583"
         d="M 82.983381,4.2842598 Q 82.701158,3.9032595 82.503603,3.7762594 82.306047,3.6422038 82.037936,3.6422038 q -0.261056,0 -0.444501,0.1693334 -0.176389,0.1693335 -0.176389,0.4374448 0,0.2610557 0.169334,0.4586114 0.169333,0.1975556 0.776111,0.6491115 0.613834,0.4445003 0.896056,0.8396116 0.282223,0.3951114 0.282223,0.8325561 0,0.5715004 -0.4445,0.994834 -0.437445,0.4162781 -1.023057,0.4162781 -1.030111,0 -1.615723,-1.1500563 l 0.515056,-0.2963336 q 0.458611,0.8537228 1.030112,0.8537228 0.366889,0 0.627945,-0.2328335 0.261055,-0.2328335 0.261055,-0.5432781 0,-0.3104446 -0.218722,-0.5856115 Q 82.454214,6.2033721 81.917991,5.8012052 81.381768,5.3919827 81.177157,5.1803159 80.979602,4.9686491 80.887879,4.72876 q -0.09172,-0.239889 -0.09172,-0.479778 0,-0.5150559 0.352778,-0.8678339 0.359834,-0.3598336 0.924278,-0.3598336 0.437445,0 0.762001,0.2257779 0.324556,0.2187224 0.635,0.6561671 z" />
    </g>
    <text
       id="text311"
       y="48.259998"
       x="15.24"
       style="font-size:2.11667px;line-height:1.25;font-family:sans-serif;stroke-width:0.264583"
       xml:space="preserve"><tspan
         style="stroke-width:0.264583"
         y="48.259998"
         x="15.24"
         id="tspan309"
         sodipodi:role="line" /></text>
    <g
       id="layer1-6"
       inkscape:label="Layer 1"
       transform="matrix(0.05883517,0,0,0.05523385,59.89077,116.42261)">
      <path
         inkscape:connector-curvature="0"
         id="path1454-77"
         style="fill:none;stroke:#fffcff;stroke-width:1.09886;stroke-miterlimit:4;stroke-dasharray:none;stroke-opacity:1"
         inkscape:transform-center-x="2.7799366e-06"
         inkscape:transform-center-y="-4.7850238e-06"
         transform="matrix(1.8645584,0,0,1.7342507,0.81604088,4.6882012)"
         d="M 56.036957,111.76603 0.30789185,56.03696 56.036965,0.30789566 111.76603,56.036968 Z" />
      <path
         inkscape:connector-curvature="0"
         id="path1454-3-0"
         style="fill:none;stroke:#fffcff;stroke-width:1.09886;stroke-miterlimit:4;stroke-dasharray:none;stroke-opacity:1"
         inkscape:transform-center-x="2.8530163e-06"
         inkscape:transform-center-y="-4.6766449e-06"
         transform="matrix(1.8645584,0,0,1.7342507,0.97889955,10.346633)"
         d="M 56.036957,111.76603 0.30789185,56.03696 56.036965,0.30789566 111.76603,56.036968 Z" />
      <path
         inkscape:connector-curvature="0"
         id="path1454-9-2"
         style="fill:none;stroke:#fffcff;stroke-width:1.09886;stroke-miterlimit:4;stroke-dasharray:none;stroke-opacity:1"
         inkscape:transform-center-x="2.8302047e-06"
         inkscape:transform-center-y="-4.7888764e-06"
         transform="matrix(1.8645584,0,0,1.7342507,0.65319129,-0.07678856)"
         d="M 56.036957,111.76603 0.30789185,56.03696 56.036965,0.30789566 111.76603,56.036968 Z" />
      <path
         inkscape:connector-curvature="0"
         id="path1454-7-1"
         style="fill:none;stroke:#fffcff;stroke-width:1.09886;stroke-miterlimit:4;stroke-dasharray:none;stroke-opacity:1"
         inkscape:transform-center-x="2.8503732e-06"
         inkscape:transform-center-y="-4.5821857e-06"
         transform="matrix(1.8645584,0,0,1.7342507,0.97889987,16.005064)"
         d="M 56.036957,111.76603 0.30789185,56.03696 56.036965,0.30789566 111.76603,56.036968 Z" />
      <g
         aria-label="H"
         id="text2048-1"
         style="font-size:70.5556px;line-height:1.25;font-family:sans-serif;fill:#ffffff;stroke-width:0.264583">
        <path
           inkscape:connector-curvature="0"
           d="m 124.99941,100.04749 h -6.82129 V 74.93273 H 92.581042 v 25.11476 H 85.759748 V 48.749987 h 6.821294 V 68.869358 H 118.17812 V 48.749987 h 6.82129 z"
           style="fill:#ffffff;stroke-width:0.264583"
           id="path2641" />
      </g>
      <g
         aria-label="H"
         id="text2048-0-4"
         style="font-size:70.5556px;line-height:1.25;font-family:sans-serif;fill:#ffffff;stroke-width:0.264583">
        <path
           inkscape:connector-curvature="0"
           d="m 125.50951,160.74937 h -6.8213 V 135.63461 H 93.091136 v 25.11476 h -6.821294 v -51.2975 h 6.821294 v 20.11937 h 25.597074 v -20.11937 h 6.8213 z"
           style="fill:#ffffff;stroke-width:0.264583"
           id="path2644" />
      </g>
    </g>
  </g>
  <g
     style="display:inline"
     inkscape:label="Layer 2"
     id="layer2"
     inkscape:groupmode="layer">
    <rect
       ry="3.5623779"
       y="60.93047"
       x="5.0800004"
       height="53.4356"
       width="20.32"
       id="rect199"
       style="fill:#b3b3b3;stroke-width:0.313339" />
    <rect
       style="display:inline;fill:#b3b3b3;fill-opacity:0;stroke:#cccccc;stroke-width:0.193218;stroke-miterlimit:4;stroke-dasharray:none;stroke-opacity:1"
       id="rect199-6"
       width="20.320002"
       height="35.559998"
       x="5.079999"
       y="15.399237"
       ry="2.3706694" />
    <path
       style="display:inline;fill:none;stroke:#cccccc;stroke-width:0.36;stroke-linecap:butt;stroke-linejoin:miter;stroke-miterlimit:4;stroke-dasharray:none;stroke-opacity:1"
       d="m 43.18,20.32 c 83.82,0 83.82,0 83.82,0"
       id="path1240-3"
       inkscape:connector-curvature="0" />
    <path
       inkscape:connector-curvature="0"
       id="path1240-3-3"
       d="m 43.18,33.02 c 83.82,0 83.82,0 83.82,0"
       style="display:inline;fill:none;stroke:#cccccc;stroke-width:0.36;stroke-linecap:butt;stroke-linejoin:miter;stroke-miterlimit:4;stroke-dasharray:none;stroke-opacity:1" />
    <path
       inkscape:connector-curvature="0"
       id="path1240-3-7"
       d="m 43.18,45.72 c 83.82,0 83.82,0 83.82,0"
       style="display:inline;fill:none;stroke:#cccccc;stroke-width:0.36;stroke-linecap:butt;stroke-linejoin:miter;stroke-miterlimit:4;stroke-dasharray:none;stroke-opacity:1" />
    <path
       inkscape:connector-curvature="0"
       id="path1240-3-75"
       d="m 43.18,58.42 c 83.82,0 83.82,0 83.82,0"
       style="display:inline;fill:none;stroke:#cccccc;stroke-width:0.36;stroke-linecap:butt;stroke-linejoin:miter;stroke-miterlimit:4;stroke-dasharray:none;stroke-opacity:1" />
    <path
       inkscape:connector-curvature="0"
       id="path1240-3-1"
       d="m 43.18,71.12 c 83.82,0 83.82,0 83.82,0"
       style="display:inline;fill:none;stroke:#cccccc;stroke-width:0.36;stroke-linecap:butt;stroke-linejoin:miter;stroke-miterlimit:4;stroke-dasharray:none;stroke-opacity:1" />
    <path
       inkscape:connector-curvature="0"
       id="path1240-3-2"
       d="m 43.18,83.82 c 83.82,0 83.82,0 83.82,0"
       style="display:inline;fill:none;stroke:#cccccc;stroke-width:0.36;stroke-linecap:butt;stroke-linejoin:miter;stroke-miterlimit:4;stroke-dasharray:none;stroke-opacity:1" />
    <path
       inkscape:connector-curvature="0"
       id="path1240-3-6"
       d="m 43.18,96.52 c 83.82,0 83.82,0 83.82,0"
       style="display:inline;fill:none;stroke:#cccccc;stroke-width:0.36;stroke-linecap:butt;stroke-linejoin:miter;stroke-miterlimit:4;stroke-dasharray:none;stroke-opacity:1" />
    <path
       inkscape:connector-curvature="0"
       id="path1240-3-65"
       d="m 43.18,109.22 c 83.82,0 83.82,0 83.82,0"
       style="display:inline;fill:none;stroke:#cccccc;stroke-width:0.36;stroke-linecap:butt;stroke-linejoin:miter;stroke-miterlimit:4;stroke-dasharray:none;stroke-opacity:1" />
    <path
       inkscape:connector-curvature="0"
       id="path1240"
       d="m 10.16,45.879235 c 10.16,0 10.16,0 10.16,0"
       style="display:inline;fill:#b3b3b3;stroke:#cccccc;stroke-width:0.264583px;stroke-linecap:butt;stroke-linejoin:miter;stroke-opacity:1" />
  </g>
  <g
     style="display:inline"
     inkscape:label="Layer 3"
     id="layer4"
     inkscape:groupmode="layer">
    <g
       style="font-style:normal;font-variant:normal;font-weight:normal;font-stretch:normal;font-size:2.82223px;line-height:1.25;font-family:'Heiti SC';-inkscape-font-specification:'Heiti SC';display:inline;fill:#000000;stroke-width:0.264583"
       id="text203-4"
       aria-label="Poly"
       transform="translate(0,-10.763945)">
      <path
         id="path1688"
         style="font-style:normal;font-variant:normal;font-weight:normal;font-stretch:normal;font-family:'Heiti SC';-inkscape-font-specification:'Heiti SC';fill:#000000;stroke-width:0.264583"
         d="m 7.4289263,100.27184 h 0.4233345 q 0.3612455,0 0.4741347,0.0282 0.1128892,0.0282 0.2060228,0.1016 0.095956,0.0734 0.1495782,0.18344 0.053622,0.11007 0.053622,0.24836 0,0.13829 -0.053622,0.24835 -0.0508,0.11007 -0.1495782,0.18345 -0.095956,0.0705 -0.2370674,0.1016 -0.1411115,0.0282 -0.4995347,0.0282 H 7.6716381 v 0.94263 H 7.4289263 Z m 0.2427118,0.88901 h 0.3217342 q 0.2850453,0.006 0.3866455,-0.0903 0.1044226,-0.096 0.1044226,-0.23989 0,-0.32173 -0.4741347,-0.32173 H 7.6716381 Z"
         inkscape:connector-curvature="0" />
      <path
         id="path1690"
         style="font-style:normal;font-variant:normal;font-weight:normal;font-stretch:normal;font-family:'Heiti SC';-inkscape-font-specification:'Heiti SC';fill:#000000;stroke-width:0.264583"
         d="m 9.7990264,100.76009 q 0.3330236,0 0.5644456,0.23989 0.234245,0.23989 0.234245,0.57573 0,0.33585 -0.231422,0.57574 -0.228601,0.23707 -0.5672686,0.23707 -0.3386677,0 -0.5700905,-0.23707 -0.2314229,-0.23989 -0.2314229,-0.57574 0,-0.33584 0.2314229,-0.57573 0.2342451,-0.23989 0.5700905,-0.23989 z m 0,1.40547 q 0.2342446,0 0.3979346,-0.16933 0.166511,-0.17216 0.166511,-0.41205 0,-0.24271 -0.169333,-0.41769 -0.166512,-0.1778 -0.3979349,-0.1778 -0.2286006,0 -0.3951122,0.1778 -0.1665116,0.17498 -0.1665116,0.41769 0,0.24271 0.1608672,0.41205 0.1608671,0.16933 0.4035789,0.16933 z"
         inkscape:connector-curvature="0" />
      <path
         id="path1692"
         style="font-style:normal;font-variant:normal;font-weight:normal;font-stretch:normal;font-family:'Heiti SC';-inkscape-font-specification:'Heiti SC';fill:#000000;stroke-width:0.264583"
         d="m 11.117846,102.33772 h -0.231423 v -2.11668 h 0.231423 z"
         inkscape:connector-curvature="0" />
      <path
         id="path1694"
         style="font-style:normal;font-variant:normal;font-weight:normal;font-stretch:normal;font-family:'Heiti SC';-inkscape-font-specification:'Heiti SC';fill:#000000;stroke-width:0.264583"
         d="m 12.789223,100.7996 -0.91158,2.08281 h -0.242712 l 0.296334,-0.67734 -0.623713,-1.40547 h 0.242712 l 0.505179,1.12607 0.488246,-1.12607 z"
         inkscape:connector-curvature="0" />
    </g>
    <g
       style="font-style:normal;font-variant:normal;font-weight:normal;font-stretch:normal;font-size:2.82223px;line-height:1.25;font-family:'Heiti SC';-inkscape-font-specification:'Heiti SC';display:inline;fill:#000000;stroke-width:0.264583"
       id="text203-4-8"
       aria-label="Gate"
       transform="translate(0,-10.763945)">
      <path
         id="path1697"
         style="font-style:normal;font-variant:normal;font-weight:normal;font-stretch:normal;font-family:'Heiti SC';-inkscape-font-specification:'Heiti SC';fill:#000000;stroke-width:0.264583"
         d="m 19.020138,101.45289 q -0.0085,0.50236 -0.293512,0.78176 -0.282223,0.2794 -0.745068,0.2794 -0.53058,0 -0.846669,-0.32456 -0.31609,-0.32738 -0.31609,-0.76482 0,-0.43745 0.31609,-0.75636 0.316089,-0.32173 0.815624,-0.32173 0.270934,0 0.502357,0.1016 0.234245,0.0988 0.457201,0.3048 l -0.186267,0.1778 q -0.172156,-0.16651 -0.372534,-0.254 -0.200379,-0.0903 -0.412046,-0.0903 -0.211667,0 -0.420512,0.11289 -0.208845,0.11289 -0.327379,0.3048 -0.118533,0.19191 -0.118533,0.41486 0,0.34714 0.259645,0.60678 0.262467,0.25683 0.654757,0.25683 0.29069,0 0.502357,-0.15805 0.211667,-0.16086 0.259645,-0.43744 h -0.643468 v -0.23425 z"
         inkscape:connector-curvature="0" />
      <path
         id="path1699"
         style="font-style:normal;font-variant:normal;font-weight:normal;font-stretch:normal;font-family:'Heiti SC';-inkscape-font-specification:'Heiti SC';fill:#000000;stroke-width:0.264583"
         d="m 20.857675,102.46325 h -0.228601 v -0.22578 q -0.251178,0.27658 -0.578557,0.27658 -0.327379,0 -0.561624,-0.23989 -0.231423,-0.24271 -0.231423,-0.57573 0,-0.33585 0.234245,-0.57292 0.234245,-0.23989 0.570091,-0.23989 0.338667,0 0.567268,0.27376 v -0.23425 h 0.228601 z m -0.790225,-0.16651 q 0.234245,0 0.403579,-0.16934 0.169334,-0.16933 0.169334,-0.42051 0,-0.254 -0.166512,-0.42333 -0.166511,-0.17216 -0.409223,-0.17216 -0.23989,0 -0.406401,0.1778 -0.166512,0.17498 -0.166512,0.41487 0,0.23989 0.169334,0.41769 0.169334,0.17498 0.406401,0.17498 z"
         inkscape:connector-curvature="0" />
      <path
         id="path1701"
         style="font-style:normal;font-variant:normal;font-weight:normal;font-stretch:normal;font-family:'Heiti SC';-inkscape-font-specification:'Heiti SC';fill:#000000;stroke-width:0.264583"
         d="m 21.962842,101.12833 h -0.304801 v 1.0781 q 0,0.0593 0.01693,0.0734 0.01693,0.0113 0.08467,0.0113 h 0.135467 v 0.20038 q -0.135467,0.0226 -0.206023,0.0226 -0.135467,0 -0.200378,-0.0649 -0.06491,-0.0677 -0.06491,-0.21167 v -1.10914 h -0.265289 v -0.2032 h 0.265289 v -0.57855 h 0.234245 v 0.57855 h 0.304801 z"
         inkscape:connector-curvature="0" />
      <path
         id="path1703"
         style="font-style:normal;font-variant:normal;font-weight:normal;font-stretch:normal;font-family:'Heiti SC';-inkscape-font-specification:'Heiti SC';fill:#000000;stroke-width:0.264583"
         d="m 23.729117,101.73511 h -1.349026 q 0.01411,0.25401 0.169334,0.40923 0.158045,0.1524 0.375357,0.1524 0.369712,0 0.564446,-0.36407 l 0.197556,0.1016 q -0.132645,0.24553 -0.313268,0.36407 -0.180622,0.11571 -0.431801,0.11571 -0.347134,0 -0.572912,-0.23707 -0.225779,-0.23989 -0.225779,-0.57573 0,-0.33585 0.225779,-0.57574 0.2286,-0.23989 0.564446,-0.23989 0.335845,0 0.561623,0.2286 0.225779,0.22578 0.234245,0.62089 z m -0.259645,-0.20602 q -0.04233,-0.19755 -0.191911,-0.30762 -0.149579,-0.11007 -0.344312,-0.11007 -0.395113,0 -0.524935,0.41769 z"
         inkscape:connector-curvature="0" />
    </g>
    <g
       style="font-style:normal;font-variant:normal;font-weight:normal;font-stretch:normal;font-size:2.82223px;line-height:1.25;font-family:'Heiti SC';-inkscape-font-specification:'Heiti SC';display:inline;fill:#000000;stroke-width:0.264583"
       id="text203-4-9"
       aria-label="1"
       transform="translate(0,-10.763945)">
      <path
         id="path1676"
         style="font-style:normal;font-variant:normal;font-weight:normal;font-stretch:normal;font-family:'Heiti SC';-inkscape-font-specification:'Heiti SC';fill:#000000;stroke-width:0.264583"
         d="m 10.338491,77.062775 h -0.23989 V 75.23397 H 9.762756 l 0.146756,-0.237067 h 0.428979 z"
         inkscape:connector-curvature="0" />
    </g>
    <g
       style="font-style:normal;font-variant:normal;font-weight:normal;font-stretch:normal;font-size:2.82223px;line-height:1.25;font-family:'Heiti SC';-inkscape-font-specification:'Heiti SC';display:inline;fill:#000000;stroke-width:0.264583"
       id="text203-4-1"
       aria-label="2"
       transform="translate(0,-10.763945)">
      <path
         id="path1679"
         style="font-style:normal;font-variant:normal;font-weight:normal;font-stretch:normal;font-family:'Heiti SC';-inkscape-font-specification:'Heiti SC';fill:#000000;stroke-width:0.264583"
         d="m 21.043412,77.083146 h -1.44216 l 0.804336,-0.869247 q 0.2032,-0.21449 0.287867,-0.338668 0.08467,-0.124178 0.08467,-0.282223 0,-0.158045 -0.124178,-0.276578 -0.121356,-0.118534 -0.304801,-0.118534 -0.180623,0 -0.301979,0.129823 -0.121355,0.127 -0.138289,0.364067 H 19.67463 q 0.01411,-0.333023 0.211667,-0.527757 0.197556,-0.197556 0.476957,-0.197556 0.282223,0 0.465668,0.183445 0.186267,0.180623 0.186267,0.44309 0,0.191912 -0.1016,0.358423 -0.1016,0.166512 -0.307623,0.386646 l -0.474135,0.510824 h 0.911581 z"
         inkscape:connector-curvature="0" />
    </g>
    <g
       style="font-style:normal;font-variant:normal;font-weight:normal;font-stretch:normal;font-size:2.82223px;line-height:1.25;font-family:'Heiti SC';-inkscape-font-specification:'Heiti SC';display:inline;fill:#000000;stroke-width:0.264583"
       id="text203-4-4"
       aria-label="3"
       transform="translate(0,-10.763945)">
      <path
         id="path1682"
         style="font-style:normal;font-variant:normal;font-weight:normal;font-stretch:normal;font-family:'Heiti SC';-inkscape-font-specification:'Heiti SC';fill:#000000;stroke-width:0.264583"
         d="m 10.461994,88.620392 q 0.166512,0.08184 0.256823,0.225778 0.09313,0.143934 0.09313,0.313267 0,0.276579 -0.2032,0.476957 -0.200378,0.197556 -0.508001,0.197556 -0.276579,0 -0.4543795,-0.158044 -0.1749783,-0.160868 -0.2370674,-0.474135 h 0.2398896 q 0.053622,0.200378 0.1580449,0.299156 0.1072447,0.09596 0.3019784,0.09596 0.197556,0 0.330201,-0.121356 0.132645,-0.124178 0.132645,-0.310445 0,-0.186267 -0.1524,-0.296334 -0.149579,-0.110067 -0.4430906,-0.115712 v -0.225778 q 0.2116676,0 0.3414896,-0.09031 0.129823,-0.09031 0.129823,-0.222957 0,-0.135467 -0.1016,-0.222956 -0.09878,-0.09031 -0.242712,-0.09031 -0.1411118,0 -0.2314231,0.08185 -0.087489,0.07902 -0.1495782,0.242711 h -0.245534 q 0.062089,-0.270934 0.2257784,-0.414868 0.1636893,-0.143933 0.4035789,-0.143933 0.23989,0 0.414868,0.158045 0.1778,0.158045 0.1778,0.383823 0,0.259645 -0.237067,0.412046 z"
         inkscape:connector-curvature="0" />
    </g>
    <g
       style="font-style:normal;font-variant:normal;font-weight:normal;font-stretch:normal;font-size:2.82223px;line-height:1.25;font-family:'Heiti SC';-inkscape-font-specification:'Heiti SC';display:inline;fill:#000000;stroke-width:0.264583"
       id="text203-4-6"
       aria-label="4"
       transform="translate(0,-10.763945)">
      <path
         id="path1685"
         style="font-style:normal;font-variant:normal;font-weight:normal;font-stretch:normal;font-family:'Heiti SC';-inkscape-font-specification:'Heiti SC';fill:#000000;stroke-width:0.264583"
         d="m 21.066933,89.334795 h -0.245534 v 0.471312 h -0.23989 v -0.471312 h -0.990602 l 1.159936,-1.64536 h 0.07056 v 1.411115 h 0.245534 z M 20.581509,89.10055 v -0.762002 l -0.539046,0.762002 z"
         inkscape:connector-curvature="0" />
    </g>
    <g
       style="font-style:normal;font-variant:normal;font-weight:normal;font-stretch:normal;font-size:2.82223px;line-height:1.25;font-family:'Heiti SC';-inkscape-font-specification:'Heiti SC';display:inline;fill:#ffffff;stroke-width:0.264583"
       id="text203-2"
       aria-label="Steps "
       transform="translate(0,-7.2692924)">
      <path
         id="path1658"
         style="font-style:normal;font-variant:normal;font-weight:normal;font-stretch:normal;font-family:'Heiti SC';-inkscape-font-specification:'Heiti SC';fill:#ffffff;stroke-width:0.264583"
         d="m 12.717626,44.917251 q -0.112889,-0.1524 -0.191911,-0.203201 -0.07902,-0.05362 -0.186267,-0.05362 -0.104423,0 -0.177801,0.06773 -0.07056,0.06773 -0.07056,0.174978 0,0.104422 0.06773,0.183445 0.06773,0.07902 0.310445,0.259645 0.245534,0.1778 0.358423,0.335845 0.11289,0.158045 0.11289,0.333023 0,0.228601 -0.177801,0.397935 -0.174978,0.166511 -0.409223,0.166511 -0.412046,0 -0.646291,-0.460023 l 0.206023,-0.118534 q 0.183445,0.34149 0.412045,0.34149 0.146756,0 0.251179,-0.09313 0.104422,-0.09313 0.104422,-0.217312 0,-0.124178 -0.08749,-0.234245 -0.08749,-0.112889 -0.301978,-0.273757 -0.21449,-0.163689 -0.296334,-0.248356 -0.07902,-0.08467 -0.115712,-0.180623 -0.03669,-0.09595 -0.03669,-0.191911 0,-0.206023 0.141112,-0.347134 0.143933,-0.143934 0.369712,-0.143934 0.174978,0 0.304801,0.09031 0.129822,0.08749 0.254,0.262468 z"
         inkscape:connector-curvature="0" />
      <path
         id="path1660"
         style="font-style:normal;font-variant:normal;font-weight:normal;font-stretch:normal;font-family:'Heiti SC';-inkscape-font-specification:'Heiti SC';fill:#ffffff;stroke-width:0.264583"
         d="m 14.004696,45.19383 h -0.304801 v 1.078091 q 0,0.05927 0.01693,0.07338 0.01693,0.01129 0.08467,0.01129 h 0.135467 v 0.200379 q -0.135467,0.02258 -0.206023,0.02258 -0.135467,0 -0.200378,-0.06491 -0.06491,-0.06773 -0.06491,-0.211667 V 45.19383 h -0.26529 v -0.203201 h 0.26529 v -0.578557 h 0.234245 v 0.578557 h 0.304801 z"
         inkscape:connector-curvature="0" />
      <path
         id="path1662"
         style="font-style:normal;font-variant:normal;font-weight:normal;font-stretch:normal;font-family:'Heiti SC';-inkscape-font-specification:'Heiti SC';fill:#ffffff;stroke-width:0.264583"
         d="m 15.770971,45.800609 h -1.349026 q 0.01411,0.254001 0.169333,0.409223 0.158045,0.152401 0.375357,0.152401 0.369712,0 0.564446,-0.364068 l 0.197556,0.1016 q -0.132645,0.245534 -0.313267,0.364068 -0.180623,0.115711 -0.431802,0.115711 -0.347134,0 -0.572912,-0.237067 -0.225779,-0.239889 -0.225779,-0.575735 0,-0.335845 0.225779,-0.575735 0.2286,-0.239889 0.564446,-0.239889 0.335845,0 0.561624,0.2286 0.225778,0.225779 0.234245,0.620891 z m -0.259646,-0.206023 q -0.04233,-0.197556 -0.191911,-0.307623 -0.149578,-0.110067 -0.344312,-0.110067 -0.395112,0 -0.524935,0.41769 z"
         inkscape:connector-curvature="0" />
      <path
         id="path1664"
         style="font-style:normal;font-variant:normal;font-weight:normal;font-stretch:normal;font-family:'Heiti SC';-inkscape-font-specification:'Heiti SC';fill:#ffffff;stroke-width:0.264583"
         d="m 16.32523,45.224874 q 0.228601,-0.273756 0.564446,-0.273756 0.335846,0 0.570091,0.239889 0.234245,0.237068 0.234245,0.572913 0,0.335845 -0.231423,0.575735 -0.231423,0.239889 -0.558802,0.239889 -0.327378,0 -0.578557,-0.276578 v 0.770469 h -0.231423 v -2.082806 h 0.231423 z m 0.564446,1.137359 q 0.231423,0 0.400757,-0.172156 0.172156,-0.174979 0.172156,-0.420513 0,-0.245534 -0.169334,-0.41769 -0.166511,-0.174978 -0.409223,-0.174978 -0.242712,0 -0.409224,0.172156 -0.163689,0.169334 -0.163689,0.420512 0,0.251179 0.169334,0.423335 0.169334,0.169334 0.409223,0.169334 z"
         inkscape:connector-curvature="0" />
      <path
         id="path1666"
         style="font-style:normal;font-variant:normal;font-weight:normal;font-stretch:normal;font-family:'Heiti SC';-inkscape-font-specification:'Heiti SC';fill:#ffffff;stroke-width:0.264583"
         d="m 18.816245,45.171252 -0.149578,0.155222 q -0.166512,-0.155222 -0.304801,-0.155222 -0.08749,0 -0.146756,0.05644 -0.05927,0.05362 -0.05927,0.135467 0,0.07902 0.06491,0.141112 0.06773,0.05927 0.237068,0.149578 0.169334,0.08749 0.259645,0.194734 0.09313,0.107245 0.09313,0.262467 0,0.197556 -0.13829,0.333023 -0.135467,0.135467 -0.335845,0.135467 -0.279401,0 -0.465668,-0.237067 l 0.146756,-0.163689 q 0.1524,0.1778 0.310445,0.1778 0.107245,0 0.183445,-0.07055 0.0762,-0.07056 0.0762,-0.16369 0,-0.09596 -0.07056,-0.158045 -0.06773,-0.06491 -0.237068,-0.149578 -0.166511,-0.08467 -0.254,-0.186267 -0.08467,-0.104423 -0.08467,-0.270934 0,-0.169334 0.121356,-0.287868 0.124178,-0.118533 0.324556,-0.118533 0.203201,0 0.428979,0.220134 z"
         inkscape:connector-curvature="0" />
    </g>
    <g
       style="font-style:normal;font-variant:normal;font-weight:normal;font-stretch:normal;font-size:2.82223px;line-height:1.25;font-family:'Heiti SC';-inkscape-font-specification:'Heiti SC';display:inline;fill:#ffffff;stroke-width:0.264583"
       id="text203-0"
       aria-label="Clock"
       transform="translate(0,-8.6095981)">
      <path
         id="path1636"
         style="font-style:normal;font-variant:normal;font-weight:normal;font-stretch:normal;font-family:'Heiti SC';-inkscape-font-specification:'Heiti SC';fill:#ffffff;stroke-width:0.264583"
         d="M 8.2276025,28.45046 Q 7.8945794,28.879439 7.3132,28.879439 q -0.4910681,0 -0.8043356,-0.310445 -0.3132675,-0.310446 -0.3132675,-0.78458 0,-0.293512 0.1439337,-0.541869 0.146756,-0.248356 0.4035789,-0.389467 0.2568229,-0.141112 0.5531571,-0.141112 0.2991564,0 0.5334015,0.115712 0.2370673,0.112889 0.3951122,0.333023 L 8.0385131,27.304634 Q 7.7450012,26.949033 7.3132,26.949033 q -0.3527788,0 -0.6096017,0.248357 -0.2540007,0.248356 -0.2540007,0.609601 0,0.358424 0.2483562,0.601135 0.2511785,0.23989 0.6491129,0.23989 0.3979345,0 0.6914464,-0.34149 z"
         inkscape:connector-curvature="0" />
      <path
         id="path1638"
         style="font-style:normal;font-variant:normal;font-weight:normal;font-stretch:normal;font-family:'Heiti SC';-inkscape-font-specification:'Heiti SC';fill:#ffffff;stroke-width:0.264583"
         d="M 8.7539485,28.828639 H 8.5225256 v -2.116673 h 0.2314229 z"
         inkscape:connector-curvature="0" />
      <path
         id="path1640"
         style="font-style:normal;font-variant:normal;font-weight:normal;font-stretch:normal;font-family:'Heiti SC';-inkscape-font-specification:'Heiti SC';fill:#ffffff;stroke-width:0.264583"
         d="m 9.8439466,27.251012 q 0.3330234,0 0.5644464,0.23989 0.234245,0.239889 0.234245,0.575735 0,0.335845 -0.231423,0.575734 -0.228601,0.237068 -0.5672684,0.237068 -0.3386676,0 -0.5700905,-0.237068 -0.2314229,-0.239889 -0.2314229,-0.575734 0,-0.335846 0.2314229,-0.575735 0.2342451,-0.23989 0.5700905,-0.23989 z m 0,1.405471 q 0.2342454,0 0.3979344,-0.169334 0.166512,-0.172156 0.166512,-0.412046 0,-0.242712 -0.169334,-0.41769 -0.166512,-0.1778 -0.3979347,-0.1778 -0.2286006,0 -0.3951122,0.1778 -0.1665116,0.174978 -0.1665116,0.41769 0,0.242712 0.1608672,0.412046 0.1608671,0.169334 0.4035789,0.169334 z"
         inkscape:connector-curvature="0" />
      <path
         id="path1642"
         style="font-style:normal;font-variant:normal;font-weight:normal;font-stretch:normal;font-family:'Heiti SC';-inkscape-font-specification:'Heiti SC';fill:#ffffff;stroke-width:0.264583"
         d="m 12.463814,28.515371 q -0.121356,0.177801 -0.318912,0.270934 -0.194734,0.09313 -0.423334,0.09313 -0.355601,0 -0.595491,-0.234245 -0.237067,-0.234245 -0.237067,-0.572913 0,-0.338668 0.239889,-0.578557 0.23989,-0.242712 0.620891,-0.242712 0.225778,0 0.414868,0.09878 0.191911,0.09878 0.299156,0.276579 l -0.183445,0.115711 q -0.206023,-0.268112 -0.539046,-0.268112 -0.262467,0 -0.440268,0.169334 -0.1778,0.166512 -0.1778,0.414868 0,0.248356 0.174978,0.426157 0.174978,0.1778 0.44309,0.1778 0.321734,0 0.541868,-0.270934 z"
         inkscape:connector-curvature="0" />
      <path
         id="path1644"
         style="font-style:normal;font-variant:normal;font-weight:normal;font-stretch:normal;font-family:'Heiti SC';-inkscape-font-specification:'Heiti SC';fill:#ffffff;stroke-width:0.264583"
         d="m 13.992008,28.828639 h -0.335846 l -0.722491,-0.649113 v 0.649113 h -0.234245 v -2.116673 h 0.234245 v 1.159937 l 0.663224,-0.578557 0.347135,-0.0028 -0.846669,0.73378 z"
         inkscape:connector-curvature="0" />
    </g>
    <g
       style="font-style:normal;font-variant:normal;font-weight:normal;font-stretch:normal;font-size:2.82223px;line-height:1.25;font-family:'Heiti SC';-inkscape-font-specification:'Heiti SC';display:inline;fill:#ffffff;stroke-width:0.264583"
       id="text203-3"
       aria-label="Reset "
       transform="translate(0,-8.6095981)">
      <path
         id="path1647"
         style="font-style:normal;font-variant:normal;font-weight:normal;font-stretch:normal;font-family:'Heiti SC';-inkscape-font-specification:'Heiti SC';fill:#ffffff;stroke-width:0.264583"
         d="m 18.073752,28.974589 h -0.304801 l -0.728135,-0.942625 h -0.08467 v 0.942625 h -0.242712 v -2.065872 h 0.423335 q 0.338667,0 0.465668,0.03104 0.127,0.02822 0.220134,0.09878 0.09313,0.07056 0.146756,0.183445 0.05362,0.110067 0.05362,0.245534 0,0.256823 -0.174978,0.412046 -0.174979,0.1524 -0.50518,0.1524 z m -1.117603,-1.179692 h 0.330201 q 0.248356,0.0028 0.36689,-0.07338 0.118533,-0.07902 0.118533,-0.248356 0,-0.172156 -0.115711,-0.248357 -0.115711,-0.07902 -0.361245,-0.07902 h -0.338668 z"
         inkscape:connector-curvature="0" />
      <path
         id="path1649"
         style="font-style:normal;font-variant:normal;font-weight:normal;font-stretch:normal;font-family:'Heiti SC';-inkscape-font-specification:'Heiti SC';fill:#ffffff;stroke-width:0.264583"
         d="M 19.900926,28.246454 H 18.5519 q 0.01411,0.254 0.169333,0.409223 0.158045,0.1524 0.375357,0.1524 0.369712,0 0.564446,-0.364067 l 0.197556,0.1016 q -0.132645,0.245534 -0.313267,0.364068 -0.180623,0.115711 -0.431802,0.115711 -0.347134,0 -0.572912,-0.237067 -0.225779,-0.23989 -0.225779,-0.575735 0,-0.335846 0.225779,-0.575735 0.2286,-0.23989 0.564446,-0.23989 0.335845,0 0.561624,0.228601 0.225778,0.225778 0.234245,0.620891 z M 19.64128,28.040431 q -0.04233,-0.197556 -0.191911,-0.307623 -0.149578,-0.110067 -0.344312,-0.110067 -0.395113,0 -0.524935,0.41769 z"
         inkscape:connector-curvature="0" />
      <path
         id="path1651"
         style="font-style:normal;font-variant:normal;font-weight:normal;font-stretch:normal;font-family:'Heiti SC';-inkscape-font-specification:'Heiti SC';fill:#ffffff;stroke-width:0.264583"
         d="m 21.022453,27.617096 -0.149578,0.155223 q -0.166512,-0.155223 -0.304801,-0.155223 -0.08749,0 -0.146756,0.05645 -0.05927,0.05362 -0.05927,0.135467 0,0.07902 0.06491,0.141111 0.06773,0.05927 0.237067,0.149579 0.169334,0.08749 0.259645,0.194734 0.09313,0.107244 0.09313,0.262467 0,0.197556 -0.138289,0.333023 -0.135468,0.135467 -0.335846,0.135467 -0.279401,0 -0.465668,-0.237067 l 0.146756,-0.16369 q 0.152401,0.177801 0.310445,0.177801 0.107245,0 0.183445,-0.07056 0.0762,-0.07056 0.0762,-0.163689 0,-0.09596 -0.07056,-0.158045 -0.06773,-0.06491 -0.237067,-0.149578 -0.166512,-0.08467 -0.254001,-0.186267 -0.08467,-0.104423 -0.08467,-0.270934 0,-0.169334 0.121356,-0.287868 0.124178,-0.118534 0.324556,-0.118534 0.203201,0 0.428979,0.220134 z"
         inkscape:connector-curvature="0" />
      <path
         id="path1653"
         style="font-style:normal;font-variant:normal;font-weight:normal;font-stretch:normal;font-family:'Heiti SC';-inkscape-font-specification:'Heiti SC';fill:#ffffff;stroke-width:0.264583"
         d="m 22.833399,28.246454 h -1.349026 q 0.01411,0.254 0.169334,0.409223 0.158045,0.1524 0.375356,0.1524 0.369712,0 0.564446,-0.364067 l 0.197556,0.1016 q -0.132644,0.245534 -0.313267,0.364068 -0.180623,0.115711 -0.431801,0.115711 -0.347135,0 -0.572913,-0.237067 -0.225778,-0.23989 -0.225778,-0.575735 0,-0.335846 0.225778,-0.575735 0.228601,-0.23989 0.564446,-0.23989 0.335845,0 0.561624,0.228601 0.225778,0.225778 0.234245,0.620891 z m -0.259645,-0.206023 q -0.04233,-0.197556 -0.191912,-0.307623 -0.149578,-0.110067 -0.344312,-0.110067 -0.395112,0 -0.524935,0.41769 z"
         inkscape:connector-curvature="0" />
      <path
         id="path1655"
         style="font-style:normal;font-variant:normal;font-weight:normal;font-stretch:normal;font-family:'Heiti SC';-inkscape-font-specification:'Heiti SC';fill:#ffffff;stroke-width:0.264583"
         d="m 23.861793,27.639674 h -0.304801 v 1.078092 q 0,0.05927 0.01693,0.07338 0.01693,0.01129 0.08467,0.01129 h 0.135467 v 0.200378 q -0.135467,0.02258 -0.206023,0.02258 -0.135467,0 -0.200378,-0.06491 -0.06491,-0.06773 -0.06491,-0.211667 V 27.63968 h -0.265289 v -0.2032 h 0.265289 v -0.578558 h 0.234245 v 0.578558 h 0.304801 z"
         inkscape:connector-curvature="0" />
    </g>
    <g
       style="font-style:normal;font-variant:normal;font-weight:normal;font-stretch:normal;font-size:2.82223px;line-height:1.25;font-family:'Heiti SC';-inkscape-font-specification:'Heiti SC';display:inline;fill:#ffffff;stroke-width:0.264583"
       id="text203-1"
       aria-label="Root "
       transform="translate(0,-1.1488335)">
      <path
         id="path1706"
         style="font-style:normal;font-variant:normal;font-weight:normal;font-stretch:normal;font-family:'Heiti SC';-inkscape-font-specification:'Heiti SC';fill:#ffffff;stroke-width:0.264583"
         d="m 66.967232,14.900425 h -0.3048 L 65.934296,13.9578 h -0.08467 v 0.942625 h -0.242712 v -2.065873 h 0.423335 q 0.338668,0 0.465668,0.03104 0.127,0.02822 0.220134,0.09878 0.09313,0.07056 0.146756,0.183445 0.05362,0.110067 0.05362,0.245534 0,0.256823 -0.174978,0.412045 -0.174978,0.152401 -0.505179,0.152401 z m -1.117603,-1.179693 h 0.330201 q 0.248356,0.0028 0.36689,-0.07338 0.118534,-0.07902 0.118534,-0.248356 0,-0.172156 -0.115712,-0.248356 -0.115711,-0.07902 -0.361245,-0.07902 h -0.338668 z"
         inkscape:connector-curvature="0" />
      <path
         id="path1708"
         style="font-style:normal;font-variant:normal;font-weight:normal;font-stretch:normal;font-family:'Heiti SC';-inkscape-font-specification:'Heiti SC';fill:#ffffff;stroke-width:0.264583"
         d="m 68.009826,13.322798 q 0.333023,0 0.564446,0.23989 0.234245,0.239889 0.234245,0.575734 0,0.335846 -0.231423,0.575735 -0.2286,0.237068 -0.567268,0.237068 -0.338668,0 -0.570091,-0.237068 -0.231422,-0.239889 -0.231422,-0.575735 0,-0.335845 0.231422,-0.575734 0.234246,-0.23989 0.570091,-0.23989 z m 0,1.405471 q 0.234245,0 0.397934,-0.169334 0.166512,-0.172156 0.166512,-0.412046 0,-0.242712 -0.169334,-0.41769 -0.166511,-0.1778 -0.397934,-0.1778 -0.228601,0 -0.395113,0.1778 -0.166511,0.174978 -0.166511,0.41769 0,0.242712 0.160867,0.412046 0.160867,0.169334 0.403579,0.169334 z"
         inkscape:connector-curvature="0" />
      <path
         id="path1710"
         style="font-style:normal;font-variant:normal;font-weight:normal;font-stretch:normal;font-family:'Heiti SC';-inkscape-font-specification:'Heiti SC';fill:#ffffff;stroke-width:0.264583"
         d="m 69.856402,13.322798 q 0.333023,0 0.564446,0.23989 0.234245,0.239889 0.234245,0.575734 0,0.335846 -0.231422,0.575735 -0.228601,0.237068 -0.567269,0.237068 -0.338667,0 -0.57009,-0.237068 -0.231423,-0.239889 -0.231423,-0.575735 0,-0.335845 0.231423,-0.575734 0.234245,-0.23989 0.57009,-0.23989 z m 0,1.405471 q 0.234245,0 0.397935,-0.169334 0.166511,-0.172156 0.166511,-0.412046 0,-0.242712 -0.169334,-0.41769 -0.166511,-0.1778 -0.397934,-0.1778 -0.228601,0 -0.395112,0.1778 -0.166512,0.174978 -0.166512,0.41769 0,0.242712 0.160867,0.412046 0.160867,0.169334 0.403579,0.169334 z"
         inkscape:connector-curvature="0" />
      <path
         id="path1712"
         style="font-style:normal;font-variant:normal;font-weight:normal;font-stretch:normal;font-family:'Heiti SC';-inkscape-font-specification:'Heiti SC';fill:#ffffff;stroke-width:0.264583"
         d="M 71.680401,13.56551 H 71.3756 v 1.078092 q 0,0.05927 0.01693,0.07338 0.01693,0.01129 0.08467,0.01129 h 0.135467 v 0.200378 q -0.135467,0.02258 -0.206023,0.02258 -0.135467,0 -0.200378,-0.06491 -0.06491,-0.06773 -0.06491,-0.211667 V 13.56551 h -0.26529 v -0.203201 h 0.26529 V 12.783752 H 71.3756 v 0.578557 h 0.304801 z"
         inkscape:connector-curvature="0" />
    </g>
    <g
       style="font-style:normal;font-variant:normal;font-weight:normal;font-stretch:normal;font-size:2.82223px;line-height:1.25;font-family:'Heiti SC';-inkscape-font-specification:'Heiti SC';display:inline;fill:#ffffff;stroke-width:0.264583"
       id="text203-15"
       aria-label="Type "
       transform="translate(-0.22474613,-1.1488335)">
      <path
         id="path1715"
         style="font-style:normal;font-variant:normal;font-weight:normal;font-stretch:normal;font-family:'Heiti SC';-inkscape-font-specification:'Heiti SC';fill:#ffffff;stroke-width:0.264583"
         d="m 81.924734,13.067572 h -0.451557 v 1.828805 h -0.245534 v -1.828805 h -0.454379 v -0.237067 h 1.15147 z"
         inkscape:connector-curvature="0" />
      <path
         id="path1717"
         style="font-style:normal;font-variant:normal;font-weight:normal;font-stretch:normal;font-family:'Heiti SC';-inkscape-font-specification:'Heiti SC';fill:#ffffff;stroke-width:0.264583"
         d="m 83.456587,13.358262 -0.91158,2.082806 h -0.242712 l 0.296334,-0.677336 -0.623713,-1.40547 h 0.242712 l 0.505179,1.12607 0.488246,-1.12607 z"
         inkscape:connector-curvature="0" />
      <path
         id="path1719"
         style="font-style:normal;font-variant:normal;font-weight:normal;font-stretch:normal;font-family:'Heiti SC';-inkscape-font-specification:'Heiti SC';fill:#ffffff;stroke-width:0.264583"
         d="m 83.88883,13.592507 q 0.2286,-0.273756 0.564446,-0.273756 0.335845,0 0.57009,0.239889 0.234245,0.237067 0.234245,0.572913 0,0.335845 -0.231423,0.575735 -0.231423,0.239889 -0.558801,0.239889 -0.327379,0 -0.578557,-0.276578 v 0.770469 h -0.231423 v -2.082806 h 0.231423 z m 0.564446,1.137359 q 0.231422,0 0.400756,-0.172156 0.172156,-0.174979 0.172156,-0.420513 0,-0.245534 -0.169334,-0.41769 -0.166511,-0.174978 -0.409223,-0.174978 -0.242712,0 -0.409223,0.172156 -0.16369,0.169334 -0.16369,0.420512 0,0.251179 0.169334,0.423335 0.169334,0.169334 0.409224,0.169334 z"
         inkscape:connector-curvature="0" />
      <path
         id="path1721"
         style="font-style:normal;font-variant:normal;font-weight:normal;font-stretch:normal;font-family:'Heiti SC';-inkscape-font-specification:'Heiti SC';fill:#ffffff;stroke-width:0.264583"
         d="m 87.093869,14.168242 h -1.349026 q 0.01411,0.254001 0.169334,0.409223 0.158045,0.152401 0.375356,0.152401 0.369712,0 0.564446,-0.364068 l 0.197556,0.1016 q -0.132644,0.245534 -0.313267,0.364068 -0.180623,0.115711 -0.431801,0.115711 -0.347135,0 -0.572913,-0.237067 -0.225779,-0.23989 -0.225779,-0.575735 0,-0.335845 0.225779,-0.575735 0.228601,-0.239889 0.564446,-0.239889 0.335845,0 0.561624,0.2286 0.225778,0.225779 0.234245,0.620891 z M 86.834224,13.962219 Q 86.79189,13.764663 86.642312,13.654596 86.492734,13.544529 86.298,13.544529 q -0.395112,0 -0.524935,0.41769 z"
         inkscape:connector-curvature="0" />
    </g>
    <g
       style="font-style:normal;font-variant:normal;font-weight:normal;font-stretch:normal;font-size:2.82223px;line-height:1.25;font-family:'Heiti SC';-inkscape-font-specification:'Heiti SC';display:inline;fill:#ffffff;stroke-width:0.264583"
       id="text203-5"
       aria-label="Inversion "
       transform="translate(0,-1.1488335)">
      <path
         id="path1724"
         style="font-style:normal;font-variant:normal;font-weight:normal;font-stretch:normal;font-family:'Heiti SC';-inkscape-font-specification:'Heiti SC';fill:#ffffff;stroke-width:0.264583"
         d="m 93.633154,14.757688 h -0.242712 v -2.065872 h 0.242712 z"
         inkscape:connector-curvature="0" />
      <path
         id="path1726"
         style="font-style:normal;font-variant:normal;font-weight:normal;font-stretch:normal;font-family:'Heiti SC';-inkscape-font-specification:'Heiti SC';fill:#ffffff;stroke-width:0.264583"
         d="m 95.376058,14.757688 h -0.231423 v -0.73378 q 0,-0.254 -0.0254,-0.344312 -0.02258,-0.09313 -0.07056,-0.155222 -0.04516,-0.06491 -0.118534,-0.09596 -0.07055,-0.03105 -0.174978,-0.03105 -0.1016,0 -0.200378,0.0508 -0.09878,0.0508 -0.169334,0.141112 -0.07056,0.09031 -0.09878,0.191912 -0.0254,0.1016 -0.0254,0.406401 v 0.57009 h -0.234245 v -1.538115 h 0.234245 v 0.231423 q 0.2286,-0.270934 0.541868,-0.270934 0.166512,0 0.301979,0.08749 0.135467,0.08467 0.2032,0.237067 0.06773,0.149578 0.06773,0.462846 z"
         inkscape:connector-curvature="0" />
      <path
         id="path1728"
         style="font-style:normal;font-variant:normal;font-weight:normal;font-stretch:normal;font-family:'Heiti SC';-inkscape-font-specification:'Heiti SC';fill:#ffffff;stroke-width:0.264583"
         d="m 97.06481,13.219573 -0.702736,1.588915 h -0.05644 l -0.70838,-1.588915 h 0.245534 l 0.488246,1.111958 0.488246,-1.111958 z"
         inkscape:connector-curvature="0" />
      <path
         id="path1730"
         style="font-style:normal;font-variant:normal;font-weight:normal;font-stretch:normal;font-family:'Heiti SC';-inkscape-font-specification:'Heiti SC';fill:#ffffff;stroke-width:0.264583"
         d="m 98.827822,14.029553 h -1.349026 q 0.01411,0.254001 0.169333,0.409223 0.158045,0.152401 0.375357,0.152401 0.369712,0 0.564446,-0.364068 l 0.197556,0.1016 q -0.132645,0.245534 -0.313267,0.364068 -0.180623,0.115711 -0.431802,0.115711 -0.347134,0 -0.572912,-0.237067 -0.225779,-0.23989 -0.225779,-0.575735 0,-0.335845 0.225779,-0.575735 0.2286,-0.239889 0.564446,-0.239889 0.335845,0 0.561623,0.2286 0.225779,0.225779 0.234246,0.620891 z M 98.568176,13.82353 q -0.04233,-0.197556 -0.191911,-0.307623 -0.149578,-0.110067 -0.344312,-0.110067 -0.395113,0 -0.524935,0.41769 z"
         inkscape:connector-curvature="0" />
      <path
         id="path1732"
         style="font-style:normal;font-variant:normal;font-weight:normal;font-stretch:normal;font-family:'Heiti SC';-inkscape-font-specification:'Heiti SC';fill:#ffffff;stroke-width:0.264583"
         d="m 99.796949,13.242151 -0.121356,0.197556 q -0.04798,-0.0254 -0.09313,-0.0254 -0.08749,0 -0.158044,0.08749 -0.07056,0.08467 -0.107245,0.225778 -0.03387,0.138289 -0.03387,0.502357 v 0.527757 h -0.237067 v -1.538115 h 0.237067 v 0.166511 q 0.07056,-0.104422 0.141112,-0.155222 0.07338,-0.0508 0.163689,-0.0508 0.09313,0 0.208845,0.06209 z"
         inkscape:connector-curvature="0" />
      <path
         id="path1734"
         style="font-style:normal;font-variant:normal;font-weight:normal;font-stretch:normal;font-family:'Heiti SC';-inkscape-font-specification:'Heiti SC';fill:#ffffff;stroke-width:0.264583"
         d="m 100.79822,13.400195 -0.14957,0.155223 q -0.16652,-0.155223 -0.30481,-0.155223 -0.0875,0 -0.14675,0.05645 -0.0593,0.05362 -0.0593,0.135467 0,0.07902 0.0649,0.141112 0.0677,0.05927 0.23707,0.149578 0.16933,0.08749 0.25965,0.194734 0.0931,0.107244 0.0931,0.262467 0,0.197556 -0.13829,0.333023 -0.13547,0.135467 -0.33585,0.135467 -0.2794,0 -0.465664,-0.237067 l 0.146756,-0.163689 q 0.152398,0.1778 0.310448,0.1778 0.10724,0 0.18344,-0.07056 0.0762,-0.07056 0.0762,-0.163689 0,-0.09596 -0.0705,-0.158045 -0.0677,-0.06491 -0.23707,-0.149578 -0.16651,-0.08467 -0.254,-0.186267 -0.08467,-0.104423 -0.08467,-0.270934 0,-0.169334 0.12136,-0.287868 0.12418,-0.118533 0.32455,-0.118533 0.20321,0 0.42898,0.220133 z"
         inkscape:connector-curvature="0" />
      <path
         id="path1736"
         style="font-style:normal;font-variant:normal;font-weight:normal;font-stretch:normal;font-family:'Heiti SC';-inkscape-font-specification:'Heiti SC';fill:#ffffff;stroke-width:0.264583"
         d="m 101.18112,12.641016 q 0.0762,0 0.127,0.05362 0.0536,0.0508 0.0536,0.127 0,0.07338 -0.0536,0.127001 -0.0508,0.0508 -0.127,0.0508 -0.0734,0 -0.127,-0.05362 -0.0508,-0.05362 -0.0508,-0.124178 0,-0.07338 0.0508,-0.127 0.0536,-0.05362 0.127,-0.05362 z m 0.11853,2.116672 h -0.23424 v -1.538115 h 0.23424 z"
         inkscape:connector-curvature="0" />
      <path
         id="path1738"
         style="font-style:normal;font-variant:normal;font-weight:normal;font-stretch:normal;font-family:'Heiti SC';-inkscape-font-specification:'Heiti SC';fill:#ffffff;stroke-width:0.264583"
         d="m 102.38683,13.180062 q 0.33302,0 0.56445,0.239889 0.23424,0.23989 0.23424,0.575735 0,0.335845 -0.23142,0.575735 -0.2286,0.237067 -0.56727,0.237067 -0.33867,0 -0.57009,-0.237067 -0.23142,-0.23989 -0.23142,-0.575735 0,-0.335845 0.23142,-0.575735 0.23424,-0.239889 0.57009,-0.239889 z m 0,1.40547 q 0.23425,0 0.39793,-0.169334 0.16652,-0.172156 0.16652,-0.412045 0,-0.242712 -0.16934,-0.41769 -0.16651,-0.177801 -0.39793,-0.177801 -0.2286,0 -0.39511,0.177801 -0.16652,0.174978 -0.16652,0.41769 0,0.242712 0.16087,0.412045 0.16087,0.169334 0.40358,0.169334 z"
         inkscape:connector-curvature="0" />
      <path
         id="path1740"
         style="font-style:normal;font-variant:normal;font-weight:normal;font-stretch:normal;font-family:'Heiti SC';-inkscape-font-specification:'Heiti SC';fill:#ffffff;stroke-width:0.264583"
         d="m 104.85147,14.757688 h -0.23142 v -0.73378 q 0,-0.254 -0.0254,-0.344312 -0.0226,-0.09313 -0.0705,-0.155222 -0.0452,-0.06491 -0.11854,-0.09596 -0.0705,-0.03105 -0.17498,-0.03105 -0.1016,0 -0.20037,0.0508 -0.0988,0.0508 -0.16934,0.141112 -0.0706,0.09031 -0.0988,0.191912 -0.0254,0.1016 -0.0254,0.406401 v 0.57009 h -0.23424 v -1.538115 h 0.23424 v 0.231423 q 0.2286,-0.270934 0.54187,-0.270934 0.16651,0 0.30198,0.08749 0.13547,0.08467 0.2032,0.237067 0.0677,0.149578 0.0677,0.462846 z"
         inkscape:connector-curvature="0" />
    </g>
    <g
       style="font-style:normal;font-variant:normal;font-weight:normal;font-stretch:normal;font-size:2.82223px;line-height:1.25;font-family:'Heiti SC';-inkscape-font-specification:'Heiti SC';display:inline;fill:#ffffff;stroke-width:0.264583"
       id="text203-9"
       aria-label="Length "
       transform="translate(0,-1.1488335)">
      <path
         id="path1743"
         style="font-style:normal;font-variant:normal;font-weight:normal;font-stretch:normal;font-family:'Heiti SC';-inkscape-font-specification:'Heiti SC';fill:#ffffff;stroke-width:0.264583"
         d="m 115.99937,14.903913 h -1.02447 v -2.065872 h 0.24554 v 1.831627 h 0.77893 z"
         inkscape:connector-curvature="0" />
      <path
         id="path1745"
         style="font-style:normal;font-variant:normal;font-weight:normal;font-stretch:normal;font-family:'Heiti SC';-inkscape-font-specification:'Heiti SC';fill:#ffffff;stroke-width:0.264583"
         d="m 117.76578,14.175778 h -1.34903 q 0.0141,0.254 0.16934,0.409223 0.15804,0.152401 0.37535,0.152401 0.36971,0 0.56445,-0.364068 l 0.19755,0.1016 q -0.13264,0.245534 -0.31326,0.364068 -0.18063,0.115711 -0.4318,0.115711 -0.34714,0 -0.57292,-0.237067 -0.22578,-0.23989 -0.22578,-0.575735 0,-0.335845 0.22578,-0.575735 0.2286,-0.239889 0.56445,-0.239889 0.33584,0 0.56162,0.2286 0.22578,0.225779 0.23425,0.620891 z m -0.25965,-0.206023 q -0.0423,-0.197556 -0.19191,-0.307623 -0.14958,-0.110067 -0.34431,-0.110067 -0.39511,0 -0.52494,0.41769 z"
         inkscape:connector-curvature="0" />
      <path
         id="path1747"
         style="font-style:normal;font-variant:normal;font-weight:normal;font-stretch:normal;font-family:'Heiti SC';-inkscape-font-specification:'Heiti SC';fill:#ffffff;stroke-width:0.264583"
         d="m 119.43482,14.903913 h -0.23142 v -0.73378 q 0,-0.254 -0.0254,-0.344312 -0.0226,-0.09313 -0.0706,-0.155222 -0.0452,-0.06491 -0.11853,-0.09596 -0.0706,-0.03105 -0.17498,-0.03105 -0.1016,0 -0.20038,0.0508 -0.0988,0.0508 -0.16933,0.141112 -0.0706,0.09031 -0.0988,0.191912 -0.0254,0.1016 -0.0254,0.406401 v 0.57009 h -0.23425 v -1.538115 h 0.23425 v 0.231423 q 0.2286,-0.270934 0.54187,-0.270934 0.16651,0 0.30197,0.08749 0.13547,0.08467 0.2032,0.237067 0.0677,0.149578 0.0677,0.462846 z"
         inkscape:connector-curvature="0" />
      <path
         id="path1749"
         style="font-style:normal;font-variant:normal;font-weight:normal;font-stretch:normal;font-family:'Heiti SC';-inkscape-font-specification:'Heiti SC';fill:#ffffff;stroke-width:0.264583"
         d="m 121.3437,14.542668 q 0,0.304801 -0.0536,0.451557 -0.0508,0.146755 -0.15804,0.248356 -0.10443,0.1016 -0.254,0.1524 -0.14676,0.05362 -0.32456,0.05362 -0.60114,0 -0.80151,-0.508002 h 0.24835 q 0.16369,0.293512 0.54469,0.293512 0.17498,0 0.31327,-0.06773 0.13829,-0.06773 0.19473,-0.180623 0.0564,-0.112889 0.0564,-0.347134 v -0.01411 q -0.11007,0.124178 -0.26529,0.18909 -0.15522,0.06491 -0.32173,0.06491 -0.33303,0 -0.55881,-0.228601 -0.22295,-0.2286 -0.22013,-0.539046 -0.003,-0.324556 0.23425,-0.553157 0.23706,-0.231422 0.56162,-0.231422 0.32738,0 0.57009,0.265289 v -0.225778 h 0.23424 z m -0.22577,-0.431802 q 0,-0.242711 -0.16369,-0.400756 -0.16087,-0.158045 -0.39512,-0.158045 -0.24835,0 -0.41769,0.172156 -0.16651,0.169334 -0.16651,0.395112 0,0.225779 0.16087,0.383823 0.16087,0.155223 0.41205,0.155223 0.25117,0 0.40922,-0.1524 0.16087,-0.155223 0.16087,-0.395113 z"
         inkscape:connector-curvature="0" />
      <path
         id="path1751"
         style="font-style:normal;font-variant:normal;font-weight:normal;font-stretch:normal;font-family:'Heiti SC';-inkscape-font-specification:'Heiti SC';fill:#ffffff;stroke-width:0.264583"
         d="m 122.41567,13.568998 h -0.3048 v 1.078092 q 0,0.05927 0.0169,0.07338 0.0169,0.01129 0.0847,0.01129 h 0.13546 v 0.200378 q -0.13546,0.02258 -0.20602,0.02258 -0.13547,0 -0.20038,-0.06491 -0.0649,-0.06773 -0.0649,-0.211667 v -1.109137 h -0.26529 v -0.2032 h 0.26529 v -0.578557 h 0.23425 v 0.578557 h 0.3048 z"
         inkscape:connector-curvature="0" />
      <path
         id="path1753"
         style="font-style:normal;font-variant:normal;font-weight:normal;font-stretch:normal;font-family:'Heiti SC';-inkscape-font-specification:'Heiti SC';fill:#ffffff;stroke-width:0.264583"
         d="m 124.01543,14.903913 h -0.23425 v -0.73378 q 0,-0.214489 -0.0141,-0.301978 -0.0113,-0.08749 -0.0564,-0.16369 -0.0452,-0.07902 -0.12418,-0.118533 -0.0762,-0.04233 -0.18627,-0.04233 -0.10724,0 -0.20602,0.0508 -0.0988,0.0508 -0.16933,0.141112 -0.0706,0.09031 -0.0988,0.191912 -0.0254,0.1016 -0.0254,0.406401 v 0.57009 h -0.23425 v -2.116672 h 0.23425 v 0.80998 q 0.2286,-0.270934 0.54187,-0.270934 0.16651,0 0.30198,0.08749 0.13546,0.08467 0.2032,0.237067 0.0677,0.149578 0.0677,0.462846 z"
         inkscape:connector-curvature="0" />
    </g>
    <g
       transform="translate(0,-10.189528)"
       style="font-style:normal;font-variant:normal;font-weight:normal;font-stretch:normal;font-size:2.82222px;line-height:1.25;font-family:'Heiti SC';-inkscape-font-specification:'Heiti SC';display:inline;fill:#ffffff;stroke-width:0.264583"
       id="text203"
       aria-label="Out ">
      <path
         inkscape:connector-curvature="0"
         id="path1669"
         style="font-style:normal;font-variant:normal;font-weight:normal;font-stretch:normal;font-family:'Heiti SC';-inkscape-font-specification:'Heiti SC';fill:#ffffff;stroke-width:0.264583"
         d="m 13.747049,67.751348 q 0.301977,0 0.555977,0.143933 0.254,0.141111 0.397933,0.392288 0.146755,0.251178 0.146755,0.547511 0,0.293511 -0.143933,0.544689 -0.143933,0.251177 -0.395111,0.39511 -0.251177,0.143934 -0.54751,0.143934 -0.293511,0 -0.547511,-0.141111 -0.254,-0.143934 -0.397933,-0.392289 -0.143933,-0.251178 -0.143933,-0.544688 0,-0.296334 0.143933,-0.547511 0.143933,-0.254 0.392289,-0.397933 0.251177,-0.143933 0.539044,-0.143933 z m 0.0085,1.930398 q 0.352778,0 0.595489,-0.239889 0.245533,-0.239888 0.245533,-0.601132 0,-0.361245 -0.248355,-0.606778 -0.245534,-0.245533 -0.592667,-0.245533 -0.355599,0 -0.595488,0.248355 -0.237067,0.245534 -0.237067,0.601133 0,0.352778 0.245534,0.598311 0.245533,0.245533 0.587021,0.245533 z" />
      <path
         inkscape:connector-curvature="0"
         id="path1671"
         style="font-style:normal;font-variant:normal;font-weight:normal;font-stretch:normal;font-family:'Heiti SC';-inkscape-font-specification:'Heiti SC';fill:#ffffff;stroke-width:0.264583"
         d="m 16.507577,69.868013 h -0.234245 v -0.231422 q -0.228599,0.270933 -0.541866,0.270933 -0.166511,0 -0.301977,-0.08467 -0.135467,-0.08749 -0.2032,-0.237066 -0.06773,-0.1524 -0.06773,-0.465667 V 68.3299 h 0.231422 v 0.733777 q 0,0.254 0.02258,0.347133 0.0254,0.09031 0.07056,0.155222 0.04798,0.06209 0.118533,0.09313 0.07338,0.03105 0.174978,0.03105 0.104422,0 0.2032,-0.0508 0.09878,-0.0508 0.169333,-0.141111 0.07055,-0.09031 0.09596,-0.191911 0.02822,-0.1016 0.02822,-0.4064 v -0.570088 h 0.234245 z" />
      <path
         inkscape:connector-curvature="0"
         id="path1673"
         style="font-style:normal;font-variant:normal;font-weight:normal;font-stretch:normal;font-family:'Heiti SC';-inkscape-font-specification:'Heiti SC';fill:#ffffff;stroke-width:0.264583"
         d="m 17.603789,68.533103 h -0.3048 v 1.078088 q 0,0.05927 0.01693,0.07338 0.01693,0.01129 0.08467,0.01129 h 0.135466 v 0.200378 q -0.135466,0.02258 -0.206022,0.02258 -0.135466,0 -0.200377,-0.06491 -0.06491,-0.06773 -0.06491,-0.211667 V 68.53311 h -0.265289 v -0.2032 h 0.265289 v -0.578555 h 0.234244 v 0.578555 h 0.3048 z" />
    </g>
    <g
       transform="translate(0,-7.4607646)"
       style="font-style:normal;font-variant:normal;font-weight:normal;font-stretch:normal;font-size:2.82223px;line-height:1.25;font-family:'Heiti SC';-inkscape-font-specification:'Heiti SC';display:inline;fill:#ffffff;stroke-width:0.264583"
       id="text203-6"
       aria-label="In ">
      <path
         inkscape:connector-curvature="0"
         id="path1631"
         style="font-style:normal;font-variant:normal;font-weight:normal;font-stretch:normal;font-family:'Heiti SC';-inkscape-font-specification:'Heiti SC';fill:#ffffff;stroke-width:0.264583"
         d="M 14.627785,21.300942 H 14.385073 V 19.23507 h 0.242712 z" />
      <path
         inkscape:connector-curvature="0"
         id="path1633"
         style="font-style:normal;font-variant:normal;font-weight:normal;font-stretch:normal;font-family:'Heiti SC';-inkscape-font-specification:'Heiti SC';fill:#ffffff;stroke-width:0.264583"
         d="m 16.370689,21.300942 h -0.231423 v -0.73378 q 0,-0.254 -0.0254,-0.344312 -0.02258,-0.09313 -0.07056,-0.155222 -0.04516,-0.06491 -0.118534,-0.09596 -0.07056,-0.03105 -0.174978,-0.03105 -0.1016,0 -0.200378,0.0508 -0.09878,0.0508 -0.169334,0.141112 -0.07056,0.09031 -0.09878,0.191911 -0.0254,0.101601 -0.0254,0.406402 v 0.57009 h -0.234245 v -1.538115 h 0.234245 v 0.231423 q 0.2286,-0.270935 0.541868,-0.270935 0.166511,0 0.301978,0.08749 0.135467,0.08467 0.203201,0.237067 0.06773,0.149578 0.06773,0.462846 z" />
    </g>
    <g
       transform="translate(7.6200001,1.9360552)"
       aria-label="Poly"
       id="text203-4-7"
       style="font-style:normal;font-variant:normal;font-weight:normal;font-stretch:normal;font-size:2.82223px;line-height:1.25;font-family:'Heiti SC';-inkscape-font-specification:'Heiti SC';display:inline;fill:#000000;stroke-width:0.264583">
      <g
         aria-label="EOC"
         id="text1640"
         style="font-style:normal;font-weight:normal;font-size:2.82222px;line-height:1.25;font-family:sans-serif;fill:#000000;fill-opacity:1;stroke:none;stroke-width:0.0700042">
        <path
           inkscape:connector-curvature="0"
           d="M 5.8853686,100.64979 H 4.9258138 v 0.59267 H 5.876902 v 0.23707 H 4.9258138 v 0.75635 H 5.876902 v 0.23989 H 4.6831029 v -2.06586 h 1.2022657 z"
           style="font-style:normal;font-variant:normal;font-weight:normal;font-stretch:normal;font-family:'Heiti SC';-inkscape-font-specification:'Heiti SC';stroke-width:0.0700042"
           id="path1657" />
        <path
           inkscape:connector-curvature="0"
           d="m 7.1783865,100.35911 q 0.3019775,0 0.5559773,0.14393 0.2539998,0.14111 0.3979331,0.39229 0.1467554,0.25117 0.1467554,0.54751 0,0.29351 -0.1439332,0.54469 -0.1439332,0.25117 -0.3951108,0.39511 -0.2511776,0.14393 -0.5475107,0.14393 -0.2935109,0 -0.5475107,-0.14111 -0.2539998,-0.14393 -0.3979331,-0.39229 -0.1439332,-0.25118 -0.1439332,-0.54469 0,-0.29633 0.1439332,-0.54751 0.1439333,-0.254 0.3922886,-0.39793 0.2511776,-0.14393 0.5390441,-0.14393 z m 0.00847,1.93039 q 0.3527775,0 0.5954885,-0.23988 0.2455331,-0.23989 0.2455331,-0.60114 0,-0.36124 -0.2483554,-0.60678 -0.2455331,-0.24553 -0.5926662,-0.24553 -0.3555997,0 -0.5954884,0.24836 -0.2370665,0.24553 -0.2370665,0.60113 0,0.35278 0.2455331,0.59831 0.2455332,0.24553 0.5870218,0.24553 z"
           style="font-style:normal;font-variant:normal;font-weight:normal;font-stretch:normal;font-family:'Heiti SC';-inkscape-font-specification:'Heiti SC';stroke-width:0.0700042"
           id="path1659" />
        <path
           inkscape:connector-curvature="0"
           d="m 10.582381,102.09759 q -0.333022,0.42898 -0.9143995,0.42898 -0.4910663,0 -0.8043328,-0.31044 -0.3132664,-0.31045 -0.3132664,-0.78458 0,-0.29351 0.1439332,-0.54187 0.1467555,-0.24835 0.4035775,-0.38946 0.256822,-0.14111 0.5531551,-0.14111 0.2991554,0 0.5333999,0.11571 0.237066,0.11289 0.395111,0.33302 l -0.186267,0.14393 q -0.293511,-0.3556 -0.7253105,-0.3556 -0.3527776,0 -0.6095996,0.24836 -0.2539998,0.24835 -0.2539998,0.6096 0,0.35842 0.2483554,0.60113 0.2511776,0.23989 0.6491106,0.23989 0.3979329,0 0.6914439,-0.34149 z"
           style="font-style:normal;font-variant:normal;font-weight:normal;font-stretch:normal;font-family:'Heiti SC';-inkscape-font-specification:'Heiti SC';stroke-width:0.0700042"
           id="path1661" />
      </g>
    </g>
  </g>
  <g
     style="display:none"
     inkscape:label="components"
     id="layer3"
     inkscape:groupmode="layer">
    <circle
       r="2.54"
       cy="70.955879"
       cx="10.16"
       id="OUT_1"
       style="fill:#0000ff;stroke-width:0.264583" />
    <circle
       r="2.54"
       cy="71.018639"
       cx="20.32"
       id="OUT_2"
       style="fill:#0000ff;stroke-width:0.264583" />
    <circle
       r="2.54"
       cy="83.614197"
       cx="10.11714"
       id="OUT_3"
       style="fill:#0000ff;stroke-width:0.264583" />
    <circle
       r="2.54"
       cy="83.614197"
       cx="20.32"
       id="OUT_4"
       style="fill:#0000ff;stroke-width:0.264583" />
    <circle
       r="2.54"
       cy="96.335274"
       cx="10.16"
       id="POLY"
       style="fill:#0000ff;stroke-width:0.264583" />
    <circle
       r="2.54"
       cy="96.398041"
       cx="20.27714"
       id="GATE"
       style="fill:#0000ff;stroke-width:0.264583" />
    <circle
       r="2.54"
       cy="45.887783"
       cx="10.178735"
       id="STEPS"
       style="fill:#ff0000;stroke-width:0.264583" />
    <circle
       r="2.54"
       cy="45.887783"
       cx="20.338736"
       id="STEPS_CV"
       style="fill:#00ff00;stroke-width:0.264583" />
    <circle
       r="2.54"
       cy="25.559233"
       cx="10.16"
       id="CLOCK"
       style="fill:#00ff00;stroke-width:0.264583" />
    <circle
       r="2.54"
       cy="25.559233"
       cx="20.32"
       id="RESET"
       style="fill:#00ff00;stroke-width:0.264583" />
    <rect
       ry="4.0690105e-07"
       y="15.24"
       x="30.480001"
       height="10.16"
       width="30.458212"
       id="rect1242"
       style="display:inline;fill:#ffff00;fill-opacity:1;stroke:none;stroke-width:0.178821;stroke-miterlimit:4;stroke-dasharray:none;stroke-opacity:1" />
    <rect
       style="display:inline;fill:#ffff00;fill-opacity:1;stroke:none;stroke-width:0.178821;stroke-miterlimit:4;stroke-dasharray:none;stroke-opacity:1"
       id="rect1242-1"
       width="30.458214"
       height="10.160001"
       x="30.480001"
       y="27.939999"
       ry="4.0690108e-07" />
    <rect
       style="display:inline;fill:#ffff00;fill-opacity:1;stroke:none;stroke-width:0.178821;stroke-miterlimit:4;stroke-dasharray:none;stroke-opacity:1"
       id="rect1242-15"
       width="30.458214"
       height="10.160001"
       x="30.480001"
       y="40.639999"
       ry="4.0690108e-07" />
    <rect
       style="display:inline;fill:#ffff00;fill-opacity:1;stroke:none;stroke-width:0.178821;stroke-miterlimit:4;stroke-dasharray:none;stroke-opacity:1"
       id="rect1242-0"
       width="30.458214"
       height="10.160001"
       x="30.479996"
       y="53.34"
       ry="4.0690108e-07" />
    <rect
       style="display:inline;fill:#ffff00;fill-opacity:1;stroke:none;stroke-width:0.178821;stroke-miterlimit:4;stroke-dasharray:none;stroke-opacity:1"
       id="rect1242-08"
       width="30.458214"
       height="10.160001"
       x="30.479996"
       y="66.040001"
       ry="4.0690108e-07" />
    <rect
       style="display:inline;fill:#ffff00;fill-opacity:1;stroke:none;stroke-width:0.178821;stroke-miterlimit:4;stroke-dasharray:none;stroke-opacity:1"
       id="rect1242-3"
       width="30.458214"
       height="10.160001"
       x="30.480001"
       y="78.739998"
       ry="4.0690108e-07" />
    <rect
       style="display:inline;fill:#ffff00;fill-opacity:1;stroke:none;stroke-width:0.178821;stroke-miterlimit:4;stroke-dasharray:none;stroke-opacity:1"
       id="rect1242-7"
       width="30.458214"
       height="10.160001"
       x="30.480001"
       y="91.440002"
       ry="4.0690108e-07" />
    <rect
       style="display:inline;fill:#ffff00;fill-opacity:1;stroke:none;stroke-width:0.178821;stroke-miterlimit:4;stroke-dasharray:none;stroke-opacity:1"
       id="rect1242-01"
       width="30.458214"
       height="10.160001"
       x="30.479996"
       y="104.13999"
       ry="4.0690108e-07" />
    <circle
       r="2.54"
       cy="20.32"
       cx="124.46"
       id="LENGTH_CV_1"
       style="display:inline;fill:#00ff00;fill-opacity:1;stroke:none;stroke-width:0.36;stroke-miterlimit:4;stroke-dasharray:none;stroke-opacity:1" />
    <circle
       r="2.54"
       cy="33.02"
       cx="124.46"
       id="LENGTH_CV_2"
       style="display:inline;fill:#00ff00;fill-opacity:1;stroke:none;stroke-width:0.36;stroke-miterlimit:4;stroke-dasharray:none;stroke-opacity:1" />
    <circle
       r="2.54"
       cy="45.720001"
       cx="124.46"
       id="LENGTH_CV_3"
       style="display:inline;fill:#00ff00;fill-opacity:1;stroke:none;stroke-width:0.36;stroke-miterlimit:4;stroke-dasharray:none;stroke-opacity:1" />
    <circle
       r="2.54"
       cy="58.419998"
       cx="124.46"
       id="LENGTH_CV_4"
       style="display:inline;fill:#00ff00;fill-opacity:1;stroke:none;stroke-width:0.36;stroke-miterlimit:4;stroke-dasharray:none;stroke-opacity:1" />
    <circle
       r="2.54"
       cy="71.119995"
       cx="124.46"
       id="LENGTH_CV_5"
       style="display:inline;fill:#00ff00;fill-opacity:1;stroke:none;stroke-width:0.36;stroke-miterlimit:4;stroke-dasharray:none;stroke-opacity:1" />
    <circle
       r="2.54"
       cy="83.819992"
       cx="124.46"
       id="LENGTH_CV_6"
       style="display:inline;fill:#00ff00;fill-opacity:1;stroke:none;stroke-width:0.36;stroke-miterlimit:4;stroke-dasharray:none;stroke-opacity:1" />
    <circle
       r="2.54"
       cy="96.519997"
       cx="124.46"
       id="LENGTH_CV_7"
       style="display:inline;fill:#00ff00;fill-opacity:1;stroke:none;stroke-width:0.36;stroke-miterlimit:4;stroke-dasharray:none;stroke-opacity:1" />
    <circle
       r="2.54"
       cy="109.21999"
       cx="124.46"
       id="LENGTH_CV_8"
       style="display:inline;fill:#00ff00;fill-opacity:1;stroke:none;stroke-width:0.36;stroke-miterlimit:4;stroke-dasharray:none;stroke-opacity:1" />
    <circle
       r="2.54"
       cy="20.32"
       cx="114.3"
       id="LENGTH_1"
       style="display:inline;fill:#ff0000;fill-opacity:1;stroke:none;stroke-width:0.36;stroke-miterlimit:4;stroke-dasharray:none;stroke-opacity:1" />
    <circle
       r="2.54"
       cy="33.02"
       cx="114.3"
       id="LENGTH_2"
       style="display:inline;fill:#ff0000;fill-opacity:1;stroke:none;stroke-width:0.36;stroke-miterlimit:4;stroke-dasharray:none;stroke-opacity:1" />
    <circle
       r="2.54"
       cy="45.720001"
       cx="114.3"
       id="LENGTH_3"
       style="display:inline;fill:#ff0000;fill-opacity:1;stroke:none;stroke-width:0.36;stroke-miterlimit:4;stroke-dasharray:none;stroke-opacity:1" />
    <circle
       r="2.54"
       cy="58.419998"
       cx="114.3"
       id="LENGTH_4"
       style="display:inline;fill:#ff0000;fill-opacity:1;stroke:none;stroke-width:0.36;stroke-miterlimit:4;stroke-dasharray:none;stroke-opacity:1" />
    <circle
       r="2.54"
       cy="71.119995"
       cx="114.3"
       id="LENGTH_5"
       style="display:inline;fill:#ff0000;fill-opacity:1;stroke:none;stroke-width:0.36;stroke-miterlimit:4;stroke-dasharray:none;stroke-opacity:1" />
    <circle
       r="2.54"
       cy="83.819992"
       cx="114.3"
       id="LENGTH_6"
       style="display:inline;fill:#ff0000;fill-opacity:1;stroke:none;stroke-width:0.36;stroke-miterlimit:4;stroke-dasharray:none;stroke-opacity:1" />
    <circle
       r="2.54"
       cy="96.519997"
       cx="114.3"
       id="LENGTH_7"
       style="display:inline;fill:#ff0000;fill-opacity:1;stroke:none;stroke-width:0.36;stroke-miterlimit:4;stroke-dasharray:none;stroke-opacity:1" />
    <circle
       r="2.54"
       cy="109.21999"
       cx="114.3"
       id="LENGTH_8"
       style="display:inline;fill:#ff0000;fill-opacity:1;stroke:none;stroke-width:0.36;stroke-miterlimit:4;stroke-dasharray:none;stroke-opacity:1" />
    <circle
       r="2.54"
       cy="20.32"
       cx="68.609344"
       id="ROOT_1"
       style="display:inline;fill:#ff0000;fill-opacity:1;stroke:none;stroke-width:0.36;stroke-miterlimit:4;stroke-dasharray:none;stroke-opacity:1" />
    <circle
       r="2.54"
       cy="20.32"
       cx="99.059998"
       id="INVERSION_1"
       style="display:inline;fill:#ff0000;fill-opacity:1;stroke:none;stroke-width:0.36;stroke-miterlimit:4;stroke-dasharray:none;stroke-opacity:1" />
    <circle
       r="2.54"
       cy="20.32"
       cx="83.819992"
       id="TYPE_1"
       style="display:inline;fill:#ff0000;fill-opacity:1;stroke:none;stroke-width:0.36;stroke-miterlimit:4;stroke-dasharray:none;stroke-opacity:1" />
    <circle
       r="2.54"
       cy="33.02"
       cx="68.580002"
       id="ROOT_2"
       style="display:inline;fill:#ff0000;fill-opacity:1;stroke:none;stroke-width:0.36;stroke-miterlimit:4;stroke-dasharray:none;stroke-opacity:1" />
    <circle
       r="2.54"
       cy="33.02"
       cx="83.819992"
       id="TYPE_2"
       style="display:inline;fill:#ff0000;fill-opacity:1;stroke:none;stroke-width:0.36;stroke-miterlimit:4;stroke-dasharray:none;stroke-opacity:1" />
    <circle
       r="2.54"
       cy="33.02"
       cx="99.059998"
       id="INVERSION_2"
       style="display:inline;fill:#ff0000;fill-opacity:1;stroke:none;stroke-width:0.36;stroke-miterlimit:4;stroke-dasharray:none;stroke-opacity:1" />
    <circle
       r="2.54"
       cy="45.720001"
       cx="68.580002"
       id="ROOT_3"
       style="display:inline;fill:#ff0000;fill-opacity:1;stroke:none;stroke-width:0.36;stroke-miterlimit:4;stroke-dasharray:none;stroke-opacity:1" />
    <circle
       r="2.54"
       cy="45.720001"
       cx="83.819992"
       id="TYPE_3"
       style="display:inline;fill:#ff0000;fill-opacity:1;stroke:none;stroke-width:0.36;stroke-miterlimit:4;stroke-dasharray:none;stroke-opacity:1" />
    <circle
       r="2.54"
       cy="45.720001"
       cx="99.059998"
       id="INVERSION_3"
       style="display:inline;fill:#ff0000;fill-opacity:1;stroke:none;stroke-width:0.36;stroke-miterlimit:4;stroke-dasharray:none;stroke-opacity:1" />
    <circle
       r="2.54"
       cy="58.419998"
       cx="68.580002"
       id="ROOT_4"
       style="display:inline;fill:#ff0000;fill-opacity:1;stroke:none;stroke-width:0.36;stroke-miterlimit:4;stroke-dasharray:none;stroke-opacity:1" />
    <circle
       r="2.54"
       cy="58.419998"
       cx="83.819992"
       id="TYPE_4"
       style="display:inline;fill:#ff0000;fill-opacity:1;stroke:none;stroke-width:0.36;stroke-miterlimit:4;stroke-dasharray:none;stroke-opacity:1" />
    <circle
       r="2.54"
       cy="58.419998"
       cx="99.059998"
       id="INVERSION_4"
       style="display:inline;fill:#ff0000;fill-opacity:1;stroke:none;stroke-width:0.36;stroke-miterlimit:4;stroke-dasharray:none;stroke-opacity:1" />
    <circle
       r="2.54"
       cy="71.119995"
       cx="68.580002"
       id="ROOT_5"
       style="display:inline;fill:#ff0000;fill-opacity:1;stroke:none;stroke-width:0.36;stroke-miterlimit:4;stroke-dasharray:none;stroke-opacity:1" />
    <circle
       r="2.54"
       cy="71.119995"
       cx="83.819992"
       id="TYPE_5"
       style="display:inline;fill:#ff0000;fill-opacity:1;stroke:none;stroke-width:0.36;stroke-miterlimit:4;stroke-dasharray:none;stroke-opacity:1" />
    <circle
       r="2.54"
       cy="71.119995"
       cx="99.059998"
       id="INVERSION_5"
       style="display:inline;fill:#ff0000;fill-opacity:1;stroke:none;stroke-width:0.36;stroke-miterlimit:4;stroke-dasharray:none;stroke-opacity:1" />
    <circle
       r="2.54"
       cy="83.819992"
       cx="68.580002"
       id="ROOT_6"
       style="display:inline;fill:#ff0000;fill-opacity:1;stroke:none;stroke-width:0.36;stroke-miterlimit:4;stroke-dasharray:none;stroke-opacity:1" />
    <circle
       r="2.54"
       cy="96.519997"
       cx="68.580002"
       id="ROOT_7"
       style="display:inline;fill:#ff0000;fill-opacity:1;stroke:none;stroke-width:0.36;stroke-miterlimit:4;stroke-dasharray:none;stroke-opacity:1" />
    <circle
       r="2.54"
       cy="109.21999"
       cx="68.580002"
       id="ROOT_8"
       style="display:inline;fill:#ff0000;fill-opacity:1;stroke:none;stroke-width:0.36;stroke-miterlimit:4;stroke-dasharray:none;stroke-opacity:1" />
    <circle
       r="2.54"
       cy="83.819992"
       cx="83.819992"
       id="TYPE_6"
       style="display:inline;fill:#ff0000;fill-opacity:1;stroke:none;stroke-width:0.36;stroke-miterlimit:4;stroke-dasharray:none;stroke-opacity:1" />
    <circle
       r="2.54"
       cy="96.519997"
       cx="83.819992"
       id="TYPE_7"
       style="display:inline;fill:#ff0000;fill-opacity:1;stroke:none;stroke-width:0.36;stroke-miterlimit:4;stroke-dasharray:none;stroke-opacity:1" />
    <circle
       r="2.54"
       cy="109.21999"
       cx="83.819992"
       id="TYPE_8"
       style="display:inline;fill:#ff0000;fill-opacity:1;stroke:none;stroke-width:0.36;stroke-miterlimit:4;stroke-dasharray:none;stroke-opacity:1" />
    <circle
       r="2.54"
       cy="83.819992"
       cx="99.059998"
       id="INVERSION_6"
       style="display:inline;fill:#ff0000;fill-opacity:1;stroke:none;stroke-width:0.36;stroke-miterlimit:4;stroke-dasharray:none;stroke-opacity:1" />
    <circle
       r="2.54"
       cy="96.519997"
       cx="99.059998"
       id="INVERSION_7"
       style="display:inline;fill:#ff0000;fill-opacity:1;stroke:none;stroke-width:0.36;stroke-miterlimit:4;stroke-dasharray:none;stroke-opacity:1" />
    <circle
       r="2.54"
       cy="109.21999"
       cx="99.059998"
       id="INVERSION_8"
       style="display:inline;fill:#ff0000;fill-opacity:1;stroke:none;stroke-width:0.36;stroke-miterlimit:4;stroke-dasharray:none;stroke-opacity:1" />
    <circle
       style="display:inline;fill:#0000ff;stroke-width:0.264583"
       id="EOC"
       cx="15.152634"
       cy="109.16444"
       r="2.5400002"
       inkscape:label="#EOC" />
  </g>
</svg>
