<?xml version="1.0" encoding="UTF-8" standalone="no"?>
<svg
   xmlns:dc="http://purl.org/dc/elements/1.1/"
   xmlns:cc="http://creativecommons.org/ns#"
   xmlns:rdf="http://www.w3.org/1999/02/22-rdf-syntax-ns#"
   xmlns:svg="http://www.w3.org/2000/svg"
   xmlns="http://www.w3.org/2000/svg"
   xmlns:xlink="http://www.w3.org/1999/xlink"
   xmlns:sodipodi="http://sodipodi.sourceforge.net/DTD/sodipodi-0.dtd"
   xmlns:inkscape="http://www.inkscape.org/namespaces/inkscape"
   width="120"
   height="380"
   viewBox="0 0 120 380"
   version="1.1"
   id="svg214"
   sodipodi:docname="8vert.svg"
   inkscape:version="0.92.5 (2060ec1f9f, 2020-04-08)">
  <metadata
     id="metadata218">
    <rdf:RDF>
      <cc:Work
         rdf:about="">
        <dc:format>image/svg+xml</dc:format>
        <dc:type
           rdf:resource="http://purl.org/dc/dcmitype/StillImage" />
      </cc:Work>
    </rdf:RDF>
  </metadata>
  <sodipodi:namedview
     pagecolor="#ffffff"
     bordercolor="#666666"
     borderopacity="1"
     objecttolerance="10"
     gridtolerance="10"
     guidetolerance="10"
     inkscape:pageopacity="0"
     inkscape:pageshadow="2"
     inkscape:window-width="1920"
     inkscape:window-height="1026"
     id="namedview216"
     showgrid="false"
     inkscape:zoom="1.2421053"
     inkscape:cx="-167.34773"
     inkscape:cy="147.00904"
     inkscape:window-x="1920"
     inkscape:window-y="0"
     inkscape:window-maximized="1"
     inkscape:current-layer="svg214"
     inkscape:pagecheckerboard="0" />
  <defs
     id="defs10">
    <linearGradient
       id="a6287d73-2e3d-4133-aa81-491f0595359d"
       x1="60"
       x2="60"
       y2="380"
       gradientUnits="userSpaceOnUse">
      <stop
         offset="0"
         stop-color="#ebebeb"
         id="stop2" />
      <stop
         offset="1"
         stop-color="#e1e1e1"
         id="stop4" />
    </linearGradient>
    <linearGradient
       id="SVGID_3_"
       gradientUnits="userSpaceOnUse"
       x1="520.13452"
       y1="-5410.3999"
       x2="530.86426"
       y2="-5410.3999"
       gradientTransform="rotate(90,-2442.45,-2960.45)">
      <stop
         offset="0.01118"
         style="stop-color:#4C4C4C"
         id="stop45383" />
      <stop
         offset="0.67017823"
         style="stop-color:#3b3b3b;stop-opacity:0"
         id="stop45385" />
    </linearGradient>
    <linearGradient
       id="linearGradient46906"
       gradientUnits="userSpaceOnUse"
       x1="520.13452"
       y1="-5410.3999"
       x2="530.86426"
       y2="-5410.3999"
       gradientTransform="rotate(90,-2442.45,-2960.45)">
      <stop
         offset="0.02846069"
         style="stop-color:#ff8c8c;stop-opacity:1"
         id="stop46902" />
      <stop
         offset="0.82481533"
         style="stop-color:#ff1515;stop-opacity:0"
         id="stop46904" />
    </linearGradient>
    <linearGradient
       id="SVGID_3_-8"
       gradientUnits="userSpaceOnUse"
       x1="520.13452"
       y1="-5410.3999"
       x2="530.86426"
       y2="-5410.3999"
       gradientTransform="rotate(90,-2442.45,-2960.45)">
      <stop
         offset="0.02846069"
         style="stop-color:#ff8c8c;stop-opacity:1"
         id="stop45383-7" />
      <stop
         offset="0.67017823"
         style="stop-color:#ff1515;stop-opacity:0"
         id="stop45385-6" />
    </linearGradient>
    <linearGradient
       id="SVGID_1_"
       gradientUnits="userSpaceOnUse"
       x1="518.99988"
       y1="-5410.3999"
       x2="531.99988"
       y2="-5410.3999"
       gradientTransform="rotate(90,-2442.45,-2960.45)">
      <stop
         offset="0.00559"
         style="stop-color:#303030"
         id="stop45369" />
      <stop
         offset="1"
         style="stop-color:#222222"
         id="stop45371" />
    </linearGradient>
    <linearGradient
       id="SVGID_2_"
       gradientUnits="userSpaceOnUse"
       x1="519.68744"
       y1="-5410.3999"
       x2="531.31134"
       y2="-5410.3999"
       gradientTransform="rotate(90,-2442.45,-2960.45)">
      <stop
         offset="0.01118"
         style="stop-color:#636363"
         id="stop45376" />
      <stop
         offset="1"
         style="stop-color:#2B2B2B"
         id="stop45378" />
    </linearGradient>
    <linearGradient
       id="SVGID_3_-3"
       gradientUnits="userSpaceOnUse"
       x1="520.13452"
       y1="-5410.3999"
       x2="530.86426"
       y2="-5410.3999"
       gradientTransform="rotate(90,-2442.45,-2960.45)">
      <stop
         offset="0.01118"
         style="stop-color:#4C4C4C"
         id="stop45383-1" />
      <stop
         offset="1"
         style="stop-color:#3B3B3B"
         id="stop45385-69" />
    </linearGradient>
    <linearGradient
       inkscape:collect="always"
       id="linearGradient22215-5">
      <stop
         style="stop-color:#000000;stop-opacity:1"
         offset="0"
         id="stop22211" />
      <stop
         style="stop-color:#191928;stop-opacity:1"
         offset="1"
         id="stop22213" />
    </linearGradient>
    <linearGradient
       inkscape:collect="always"
       xlink:href="#linearGradient22215-5"
       id="linearGradient22217-5-1-5"
       x1="105"
       y1="380"
       x2="105"
       y2="0"
       gradientUnits="userSpaceOnUse" />
    <linearGradient
       inkscape:collect="always"
       xlink:href="#linearGradient22215-5"
       id="linearGradient37671"
       gradientUnits="userSpaceOnUse"
       x1="105"
       y1="380"
       x2="105"
       y2="0" />
    <linearGradient
       inkscape:collect="always"
       xlink:href="#linearGradient22215-5"
       id="linearGradient22217-5-1-5-6"
       x1="105"
       y1="380"
       x2="105"
       y2="0"
       gradientUnits="userSpaceOnUse" />
  </defs>
  <g
     id="b3947816-d40f-41db-852f-d14f402c3ab2-9-4-9"
     data-name="FND BG"
     style="fill:url(#linearGradient22217-5-1-5);fill-opacity:1.0;opacity:1"
     transform="scale(1.1428571,1)">
    <rect
       width="105"
       height="380"
       id="rect9-9-5-1-2"
       style="fill:url(#linearGradient37671);fill-opacity:1.0"
       x="0"
       y="0" />
  </g>
  <g
     id="b3947816-d40f-41db-852f-d14f402c3ab2-9-4-9-1"
     data-name="FND BG"
     style="fill:url(#linearGradient22217-5-1-5-6);fill-opacity:1"
     transform="scale(1.1428571,1)">
    <path
       id="rect9-9-5-1-2-7"
       style="fill:#ffffff;fill-opacity:1;stroke-width:1.06904;opacity:0.02"
       d="M 120 17.529297 L 0 145.73633 L 0 167.36914 L 120 39.162109 L 120 17.529297 z "
       transform="scale(0.87500003,1)" />
  </g>
  <g
     id="b0fe4617-c40c-4654-852b-870e05c106b0"
     data-name="components"
     inkscape:groupmode="layer"
     style="display:none">
    <circle
       id="b28b29b9-2163-47d8-9c26-57ecb02e4b7d"
       data-name="Out1#PJ301MPort"
       cx="98.536102"
       cy="64.865196"
       r="5"
       style="fill:#0000ff" />
    <circle
       id="b6041dbf-bba7-4553-b222-2a3cc5a293bc"
       data-name="Out8#PJ301MPort"
       cx="98.536102"
       cy="334"
       r="5"
       style="fill:#0000ff" />
    <circle
       id="bc0f64eb-61b0-4169-a4a3-714902c51c23"
       data-name="In1#PJ301MPort"
       cx="21.645691"
       cy="64.865196"
       r="5"
       style="fill:#00ff00" />
    <circle
       id="e671c58f-29a0-4642-a55c-3e465cc7d3e9"
       data-name="In8#PJ301MPort"
       cx="21.645691"
       cy="334"
       r="5"
       style="fill:#00ff00" />
    <circle
       id="f6cff63f-a24f-4756-904f-9bbc71fd2d51"
       data-name="Out7#PJ301MPort"
       cx="98.536102"
       cy="295.54874"
       r="5"
       style="fill:#0000ff" />
    <circle
       id="b24ce0c2-3772-4416-9cc9-49f0c2a1423d"
       data-name="In7#PJ301MPort"
       cx="21.645691"
       cy="295.54874"
       r="5"
       style="fill:#00ff00" />
    <circle
       id="b5ba0b2f-a811-46e8-b2a7-322005fe6a93"
       data-name="Out6#PJ301MPort"
       cx="98.536102"
       cy="257.09747"
       r="5"
       style="fill:#0000ff" />
    <circle
       id="a572312a-02c5-4500-b58c-04f4835a8cda"
       data-name="In6#PJ301MPort"
       cx="21.645691"
       cy="257.09747"
       r="5"
       style="fill:#00ff00" />
    <circle
       id="eaf325fd-e693-451c-b989-cb0fe3c56a6c"
       data-name="Out5#PJ301MPort"
       cx="98.536102"
       cy="218.64619"
       r="5"
       style="fill:#0000ff" />
    <circle
       id="aeab0bbb-1caa-4a6b-88b0-6575c2ca069e"
       data-name="In5#PJ301MPort"
       cx="21.645691"
       cy="218.64619"
       r="5"
       style="fill:#00ff00" />
    <circle
       id="fe93ace2-fb89-44a9-bf09-f457beaab2d7"
       data-name="Out4#PJ301MPort"
       cx="98.536102"
       cy="180.19495"
       r="5"
       style="fill:#0000ff" />
    <circle
       id="ae7263f9-8451-4667-896e-6b1c29482453"
       data-name="In4#PJ301MPort"
       cx="21.645691"
       cy="180.19495"
       r="5"
       style="fill:#00ff00" />
    <circle
       id="a8708828-11f1-4ead-951d-6af0c31fbb34"
       data-name="Out3#PJ301MPort"
       cx="98.536102"
       cy="141.74367"
       r="5"
       style="fill:#0000ff" />
    <circle
       id="aca34fbd-187b-4a95-b827-5c89d19b0e1d"
       data-name="In3#PJ301MPort"
       cx="21.645691"
       cy="141.74367"
       r="5"
       style="fill:#00ff00" />
    <circle
       id="fa0c6785-3cb2-4dfc-aca8-cd811771ad10"
       data-name="Out2#PJ301MPort"
       cx="98.536102"
       cy="103.2924"
       r="5"
       style="fill:#0000ff" />
    <circle
       id="f73fc078-808c-4deb-8594-05567c8860d6"
       data-name="In2#PJ301MPort"
       cx="21.645691"
       cy="103.2924"
       r="5"
       style="fill:#00ff00" />
    <circle
       id="b986b2e6-06eb-4c5f-936b-23792ff112b9"
       data-name="CV1#RoundBlackKnob"
       cx="60.09201"
       cy="64.865196"
       r="5"
       style="fill:#ff0000" />
    <circle
       id="adf135b3-392d-499a-b399-1f924b873db5"
       data-name="CV8#RoundBlackKnob"
       cx="60.09201"
       cy="334"
       r="5"
       style="fill:#ff0000" />
    <circle
       id="bec187f1-b9d4-456b-a59d-25bc4dd7ef7c"
       data-name="CV7#RoundBlackKnob"
       cx="60.09201"
       cy="295.54874"
       r="5"
       style="fill:#ff0000" />
    <circle
       id="f0cbe43e-20f7-4fb0-a0c3-5259b799b033"
       data-name="CV6#RoundBlackKnob"
       cx="60.09201"
       cy="257.09747"
       r="5"
       style="fill:#ff0000" />
    <circle
       id="ae9bddea-d824-44ed-8826-940b12a775a7"
       data-name="CV5#RoundBlackKnob"
       cx="60.09201"
       cy="218.64619"
       r="5"
       style="fill:#ff0000" />
    <circle
       id="ec4f3148-facb-41a4-bf69-80559a1edbd2"
       data-name="CV4#RoundBlackKnob"
       cx="60.09201"
       cy="180.19495"
       r="5"
       style="fill:#ff0000" />
    <circle
       id="be923ec7-0103-4449-8dd4-8fa2695b1d53"
       data-name="CV3#RoundBlackKnob"
       cx="60.09201"
       cy="141.74367"
       r="5"
       style="fill:#ff0000" />
    <circle
       id="bf093ceb-38c9-414d-89ba-6145f5b63ebf"
       data-name="CV2#RoundBlackKnob"
       cx="60.09201"
       cy="103.2924"
       r="5"
       style="fill:#ff0000" />
  </g>
  <path
     id="rect18523-8-7-0"
     style="opacity:0.04;fill:#ffffff;stroke-width:0.527778"
     d="M 60.787109,0 0,64.945312 V 86.578125 L 81.035156,0 Z" />
  <path
     id="rect18523-8-8-5-8"
     style="opacity:0.07;fill:#ffffff;stroke-width:0.527778"
     d="M 15.60352,0 0,16.671875 V 38.304688 L 35.85156,0 Z" />
  <rect
     style="fill:#44444a;fill-opacity:1;stroke-width:0.0744036"
     id="rect8523-8-1-0-7-6"
     width="110"
     height="1"
     x="5"
     y="33.58757" />
  <g
     aria-label="8VERT"
     id="text14110-1-2-2-5-9"
     style="font-size:16px;line-height:1.25;fill:#929090"
     transform="translate(-6.40625)">
    <path
       d="m 43.429687,20.238073 q -0.875,-0.320312 -1.296875,-0.914062 -0.421875,-0.59375 -0.421875,-1.421875 0,-1.25 0.898438,-2.101563 Q 43.507812,14.949011 45,14.949011 q 1.5,0 2.414062,0.875 0.914063,0.867187 0.914063,2.117187 0,0.796875 -0.421875,1.390625 -0.414063,0.585938 -1.265625,0.90625 1.054687,0.34375 1.601562,1.109375 0.554688,0.765625 0.554688,1.828125 0,1.46875 -1.039063,2.46875 -1.039062,1 -2.734375,1 -1.695312,0 -2.734375,-1 Q 41.25,24.636511 41.25,23.136511 q 0,-1.117188 0.5625,-1.867188 0.570312,-0.757812 1.617187,-1.03125 z m -0.28125,-2.382812 q 0,0.8125 0.523438,1.328125 0.523437,0.515625 1.359375,0.515625 0.8125,0 1.328125,-0.507813 0.523437,-0.515625 0.523437,-1.257812 0,-0.773438 -0.539062,-1.296875 -0.53125,-0.53125 -1.328125,-0.53125 -0.804688,0 -1.335938,0.515625 -0.53125,0.515625 -0.53125,1.234375 z m -0.453125,5.289062 q 0,0.601563 0.28125,1.164063 0.289063,0.5625 0.851563,0.875 0.5625,0.304687 1.210937,0.304687 1.007813,0 1.664063,-0.648437 0.65625,-0.648438 0.65625,-1.648438 0,-1.015625 -0.679688,-1.679687 -0.671875,-0.664063 -1.6875,-0.664063 -0.992187,0 -1.648437,0.65625 -0.648438,0.65625 -0.648438,1.640625 z"
       style="font-family:Arial;-inkscape-font-specification:Arial;text-align:center;text-anchor:middle"
       id="path57606"
       inkscape:connector-curvature="0" />
    <path
       d="m 54.007812,26.449011 -4.4375,-11.453125 h 1.640625 l 2.976563,8.320312 q 0.359375,1 0.601562,1.875 0.265625,-0.9375 0.617188,-1.875 L 58.5,14.995886 h 1.546875 L 55.5625,26.449011 Z"
       style="font-family:Arial;-inkscape-font-specification:Arial;text-align:center;text-anchor:middle"
       id="path57608"
       inkscape:connector-curvature="0" />
    <path
       d="M 61.4375,26.449011 V 14.995886 h 8.28125 v 1.351562 h -6.765625 v 3.507813 h 6.335937 v 1.34375 h -6.335937 v 3.898437 h 7.03125 v 1.351563 z"
       style="font-family:Arial;-inkscape-font-specification:Arial;text-align:center;text-anchor:middle"
       id="path57610"
       inkscape:connector-curvature="0" />
    <path
       d="M 72.101562,26.449011 V 14.995886 h 5.078125 q 1.53125,0 2.328125,0.3125 0.796875,0.304687 1.273438,1.085937 0.476562,0.78125 0.476562,1.726563 0,1.21875 -0.789062,2.054687 -0.789063,0.835938 -2.4375,1.0625 0.601562,0.289063 0.914062,0.570313 0.664063,0.609375 1.257813,1.523437 l 1.992187,3.117188 h -1.90625 L 78.773437,24.066198 Q 78.109375,23.034948 77.679687,22.488073 77.25,21.941198 76.90625,21.722448 q -0.335938,-0.21875 -0.6875,-0.304687 -0.257813,-0.05469 -0.84375,-0.05469 h -1.757813 v 5.085938 z m 1.515625,-6.398438 H 76.875 q 1.039062,0 1.625,-0.210937 0.585937,-0.21875 0.890625,-0.6875 0.304687,-0.476563 0.304687,-1.03125 0,-0.8125 -0.59375,-1.335938 -0.585937,-0.523437 -1.859375,-0.523437 h -3.625 z"
       style="font-family:Arial;-inkscape-font-specification:Arial;text-align:center;text-anchor:middle"
       id="path57612"
       inkscape:connector-curvature="0" />
    <path
       d="M 86.257812,26.449011 V 16.347448 H 82.484375 V 14.995886 H 91.5625 v 1.351562 h -3.789063 v 10.101563 z"
       style="font-family:Arial;-inkscape-font-specification:Arial;text-align:center;text-anchor:middle"
       id="path57614"
       inkscape:connector-curvature="0" />
  </g>
  <g
     aria-label="- | +"
     id="text14110-5-6-7-9-6-4-0"
     style="font-size:8px;line-height:1.25;fill:#929090">
    <g
       id="g932"
       transform="translate(0.556454)">
      <path
         inkscape:connector-curvature="0"
         id="path57599"
         style="font-family:Arial;-inkscape-font-specification:Arial;stroke-width:1.32300282"
         d="m 51.957,49.377159 v -0.707031 h 3.781 v 0.707031 z" />
      <path
         inkscape:connector-curvature="0"
         id="path57601"
         style="font-family:Arial;-inkscape-font-specification:Arial"
         d="M 59.137123,52.779503 V 45.27169 h 0.613281 v 7.507813 z" />
      <path
         inkscape:connector-curvature="0"
         id="path57603"
         style="font-family:Arial;-inkscape-font-specification:Arial"
         d="m 64.707436,50.952889 v -1.570313 h -1.558594 v -0.65625 h 1.558594 v -1.558593 h 0.664062 v 1.558593 h 1.558594 v 0.65625 h -1.558594 v 1.570313 z" />
    </g>
  </g>
  <path
     id="rect25890-0-7-1-0-1-4-6"
     style="fill:#d0d0d0;fill-opacity:0.75294119"
     d="m 91,48 h 16 c 4.432,0 8,3.568 8,8 v 24 c 0,4.432 -3.568,8 -8,8 H 91 c -4.432,0 -8,-3.568 -8,-8 V 56 c 0,-4.432 3.568,-8 8,-8 z"
     sodipodi:nodetypes="sssssssss"
     inkscape:connector-curvature="0" />
  <g
     aria-label="OUT"
     id="text14110-5-6-8-3-8-5-5-9-3"
     style="font-size:8px;line-height:1.25;fill:#00000f;fill-opacity:0.94117647"
     transform="translate(33.6267,-75.134854)">
    <path
       d="m 57.2033,129.51981 q 0,-1.42579 0.765625,-2.23047 0.765625,-0.8086 1.976563,-0.8086 0.792969,0 1.429687,0.37891 0.636719,0.37891 0.96875,1.05859 0.335938,0.67578 0.335938,1.53516 0,0.87109 -0.351563,1.55859 -0.351562,0.6875 -0.996093,1.04297 -0.644532,0.35156 -1.390625,0.35156 -0.808594,0 -1.445313,-0.39062 -0.636719,-0.39063 -0.964844,-1.06641 -0.328125,-0.67578 -0.328125,-1.42968 z m 0.78125,0.0117 q 0,1.03516 0.554688,1.63282 0.558594,0.59375 1.398437,0.59375 0.855469,0 1.40625,-0.60157 0.554688,-0.60156 0.554688,-1.70703 0,-0.69922 -0.238281,-1.21875 -0.234375,-0.52343 -0.691407,-0.80859 -0.453125,-0.28906 -1.019531,-0.28906 -0.804687,0 -1.386719,0.55468 -0.578125,0.55079 -0.578125,1.84375 z"
       style="font-family:Arial;-inkscape-font-specification:Arial;text-align:end;text-anchor:end;fill:#00000f;fill-opacity:0.94117647"
       id="path46038"
       inkscape:connector-curvature="0" />
    <path
       d="m 67.414238,126.58231 h 0.757812 v 3.30859 q 0,0.86328 -0.195312,1.37109 -0.195313,0.50782 -0.707031,0.82813 -0.507813,0.3164 -1.335938,0.3164 -0.804687,0 -1.316406,-0.27734 -0.511719,-0.27734 -0.730469,-0.80078 -0.21875,-0.52734 -0.21875,-1.4375 v -3.30859 h 0.757813 v 3.30468 q 0,0.7461 0.136718,1.10157 0.140625,0.35156 0.476563,0.54296 0.339844,0.19141 0.828125,0.19141 0.835937,0 1.191406,-0.37891 0.355469,-0.3789 0.355469,-1.45703 z"
       style="font-family:Arial;-inkscape-font-specification:Arial;text-align:end;text-anchor:end;fill:#00000f;fill-opacity:0.94117647"
       id="path46040"
       inkscape:connector-curvature="0" />
    <path
       d="m 70.8908,132.30887 v -5.05078 h -1.886718 v -0.67578 h 4.539062 v 0.67578 h -1.894531 v 5.05078 z"
       style="font-family:Arial;-inkscape-font-specification:Arial;text-align:end;text-anchor:end;fill:#00000f;fill-opacity:0.94117647"
       id="path46042"
       inkscape:connector-curvature="0" />
  </g>
  <g
     aria-label="10V"
     id="text14110-5-6-7-9-6-3-9-8-6-1-0"
     style="font-size:8px;line-height:1.25;fill:#929090"
     transform="translate(2)">
    <path
       d="M 14.775795,57.095886 H 14.07267 v -4.480469 q -0.253906,0.242188 -0.667969,0.484375 -0.410156,0.242188 -0.738281,0.363282 v -0.679688 q 0.589844,-0.277344 1.03125,-0.671875 0.441406,-0.394531 0.625,-0.765625 h 0.453125 z"
       style="font-family:Arial;-inkscape-font-specification:Arial;text-align:center;text-anchor:middle"
       id="path57617"
       inkscape:connector-curvature="0" />
    <path
       d="m 16.576576,54.271667 q 0,-1.015625 0.207031,-1.632812 0.210938,-0.621094 0.621094,-0.957031 0.414063,-0.335938 1.039063,-0.335938 0.460937,0 0.808593,0.1875 0.347657,0.183594 0.574219,0.535156 0.226563,0.347657 0.355469,0.851563 0.128906,0.5 0.128906,1.351562 0,1.007813 -0.207031,1.628907 -0.207031,0.617187 -0.621094,0.957031 -0.410156,0.335937 -1.039062,0.335937 -0.828125,0 -1.300782,-0.59375 -0.566406,-0.714843 -0.566406,-2.328125 z m 0.722656,0 q 0,1.410157 0.328125,1.878907 0.332032,0.464843 0.816407,0.464843 0.484375,0 0.8125,-0.46875 0.332031,-0.46875 0.332031,-1.875 0,-1.414062 -0.332031,-1.878906 -0.328125,-0.464844 -0.820313,-0.464844 -0.484375,0 -0.773437,0.410157 -0.363282,0.523437 -0.363282,1.933593 z"
       style="font-family:Arial;-inkscape-font-specification:Arial;text-align:center;text-anchor:middle"
       id="path57619"
       inkscape:connector-curvature="0" />
    <path
       d="m 22.94767,57.095886 -2.21875,-5.726562 h 0.820312 l 1.488282,4.160156 q 0.179687,0.5 0.300781,0.9375 0.132812,-0.46875 0.308594,-0.9375 l 1.546875,-4.160156 h 0.773437 l -2.242187,5.726562 z"
       style="font-family:Arial;-inkscape-font-specification:Arial;text-align:center;text-anchor:middle"
       id="path57621"
       inkscape:connector-curvature="0" />
  </g>
  <path
     id="rect25890-0-7-1-0-1-4-6-9"
     style="fill:#d0d0d0;fill-opacity:0.75294119;stroke-width:1.0000093"
     d="m 91,91.99937 h 15.99999 c 4.432,0 8,3.568066 8,8.000148 v 18.000332 c 0,4.43208 -3.568,8.00015 -8,8.00015 H 91 c -4.432,0 -8,-3.56807 -8,-8.00015 V 99.999518 c 0,-4.432082 3.568,-8.000148 8,-8.000148 z"
     sodipodi:nodetypes="sssssssss"
     inkscape:connector-curvature="0" />
  <path
     id="rect25890-0-7-1-0-1-4-6-9-3"
     style="fill:#d0d0d0;fill-opacity:0.75294119"
     d="m 91,130 h 16 c 4.432,0 8,3.568 8,8 v 18 c 0,4.432 -3.568,8 -8,8 H 91 c -4.432,0 -8,-3.568 -8,-8 v -18 c 0,-4.432 3.568,-8 8,-8 z"
     sodipodi:nodetypes="sssssssss"
     inkscape:connector-curvature="0" />
  <path
     id="rect25890-0-7-1-0-1-4-6-9-3-7"
     style="fill:#d0d0d0;fill-opacity:0.75294119"
     d="m 91,168 h 16 c 4.432,0 8,3.568 8,8 v 18 c 0,4.432 -3.568,8 -8,8 H 91 c -4.432,0 -8,-3.568 -8,-8 v -18 c 0,-4.432 3.568,-8 8,-8 z"
     sodipodi:nodetypes="sssssssss"
     inkscape:connector-curvature="0" />
  <path
     id="rect25890-0-7-1-0-1-4-6-9-3-7-0"
     style="fill:#d0d0d0;fill-opacity:0.75294119"
     d="m 91,206 h 16 c 4.432,0 8,3.568 8,8 v 18 c 0,4.432 -3.568,8 -8,8 H 91 c -4.432,0 -8,-3.568 -8,-8 v -18 c 0,-4.432 3.568,-8 8,-8 z"
     sodipodi:nodetypes="sssssssss"
     inkscape:connector-curvature="0" />
  <path
     id="rect25890-0-7-1-0-1-4-6-9-3-7-0-2"
     style="fill:#d0d0d0;fill-opacity:0.75294119"
     d="m 91,244 h 16 c 4.432,0 8,3.568 8,8 v 18 c 0,4.432 -3.568,8 -8,8 H 91 c -4.432,0 -8,-3.568 -8,-8 v -18 c 0,-4.432 3.568,-8 8,-8 z"
     sodipodi:nodetypes="sssssssss"
     inkscape:connector-curvature="0" />
  <path
     id="rect25890-0-7-1-0-1-4-6-9-3-7-0-8"
     style="fill:#d0d0d0;fill-opacity:0.75294119"
     d="m 91,282 h 16 c 4.432,0 8,3.568 8,8 v 18 c 0,4.432 -3.568,8 -8,8 H 91 c -4.432,0 -8,-3.568 -8,-8 v -18 c 0,-4.432 3.568,-8 8,-8 z"
     sodipodi:nodetypes="sssssssss"
     inkscape:connector-curvature="0" />
  <path
     id="rect25890-0-7-1-0-1-4-6-9-3-7-0-2-3"
     style="fill:#d0d0d0;fill-opacity:0.75294119"
     d="m 91,320 h 16 c 4.432,0 8,3.568 8,8 v 18 c 0,4.432 -3.568,8 -8,8 H 91 c -4.432,0 -8,-3.568 -8,-8 v -18 c 0,-4.432 3.568,-8 8,-8 z"
     sodipodi:nodetypes="sssssssss"
     inkscape:connector-curvature="0" />
</svg>
