<?xml version="1.0" encoding="UTF-8" standalone="no"?>
<svg
   xmlns:dc="http://purl.org/dc/elements/1.1/"
   xmlns:cc="http://creativecommons.org/ns#"
   xmlns:rdf="http://www.w3.org/1999/02/22-rdf-syntax-ns#"
   xmlns:svg="http://www.w3.org/2000/svg"
   xmlns="http://www.w3.org/2000/svg"
   xmlns:xlink="http://www.w3.org/1999/xlink"
   xmlns:sodipodi="http://sodipodi.sourceforge.net/DTD/sodipodi-0.dtd"
   xmlns:inkscape="http://www.inkscape.org/namespaces/inkscape"
   width="75"
   height="380"
   viewBox="0 0 75 380"
   version="1.1"
   id="svg132"
   sodipodi:docname="Merge.svg"
   inkscape:version="0.92.5 (2060ec1f9f, 2020-04-08)">
  <metadata
     id="metadata136">
    <rdf:RDF>
      <cc:Work
         rdf:about="">
        <dc:format>image/svg+xml</dc:format>
        <dc:type
           rdf:resource="http://purl.org/dc/dcmitype/StillImage" />
      </cc:Work>
    </rdf:RDF>
  </metadata>
  <sodipodi:namedview
     pagecolor="#ffffff"
     bordercolor="#666666"
     borderopacity="1"
     objecttolerance="10"
     gridtolerance="10"
     guidetolerance="10"
     inkscape:pageopacity="0"
     inkscape:pageshadow="2"
     inkscape:window-width="1920"
     inkscape:window-height="1026"
     id="namedview134"
     showgrid="false"
     inkscape:zoom="1.7566021"
     inkscape:cx="2.2776178"
     inkscape:cy="138.97915"
     inkscape:window-x="1920"
     inkscape:window-y="0"
     inkscape:window-maximized="1"
     inkscape:current-layer="g898"
     inkscape:pagecheckerboard="0" />
  <defs
     id="defs7">
    <linearGradient
       id="f70f6fb2-de46-4cef-bd00-17d002639a4b"
       x1="37.5"
       x2="37.5"
       y2="380"
       gradientUnits="userSpaceOnUse">
      <stop
         offset="0"
         stop-color="#ebebeb"
         id="stop2" />
      <stop
         offset="1"
         stop-color="#e1e1e1"
         id="stop4" />
    </linearGradient>
    <linearGradient
       inkscape:collect="always"
       id="linearGradient22215-5">
      <stop
         style="stop-color:#000000;stop-opacity:1"
         offset="0"
         id="stop22211" />
      <stop
         style="stop-color:#191928;stop-opacity:1"
         offset="1"
         id="stop22213" />
    </linearGradient>
    <linearGradient
       id="SVGID_3_"
       gradientUnits="userSpaceOnUse"
       x1="520.13452"
       y1="-5410.3999"
       x2="530.86426"
       y2="-5410.3999"
       gradientTransform="rotate(90,-2442.45,-2960.45)">
      <stop
         offset="0.01118"
         style="stop-color:#4C4C4C"
         id="stop45383" />
      <stop
         offset="0.67017823"
         style="stop-color:#3b3b3b;stop-opacity:0"
         id="stop45385" />
    </linearGradient>
    <linearGradient
       id="linearGradient46906"
       gradientUnits="userSpaceOnUse"
       x1="520.13452"
       y1="-5410.3999"
       x2="530.86426"
       y2="-5410.3999"
       gradientTransform="rotate(90,-2442.45,-2960.45)">
      <stop
         offset="0.02846069"
         style="stop-color:#ff8c8c;stop-opacity:1"
         id="stop46902" />
      <stop
         offset="0.82481533"
         style="stop-color:#ff1515;stop-opacity:0"
         id="stop46904" />
    </linearGradient>
    <linearGradient
       id="SVGID_3_-8"
       gradientUnits="userSpaceOnUse"
       x1="520.13452"
       y1="-5410.3999"
       x2="530.86426"
       y2="-5410.3999"
       gradientTransform="rotate(90,-2442.45,-2960.45)">
      <stop
         offset="0.02846069"
         style="stop-color:#ff8c8c;stop-opacity:1"
         id="stop45383-7" />
      <stop
         offset="0.67017823"
         style="stop-color:#ff1515;stop-opacity:0"
         id="stop45385-6" />
    </linearGradient>
    <linearGradient
       id="SVGID_1_"
       gradientUnits="userSpaceOnUse"
       x1="518.99988"
       y1="-5410.3999"
       x2="531.99988"
       y2="-5410.3999"
       gradientTransform="rotate(90,-2442.45,-2960.45)">
      <stop
         offset="0.00559"
         style="stop-color:#303030"
         id="stop45369" />
      <stop
         offset="1"
         style="stop-color:#222222"
         id="stop45371" />
    </linearGradient>
    <linearGradient
       id="SVGID_2_"
       gradientUnits="userSpaceOnUse"
       x1="519.68744"
       y1="-5410.3999"
       x2="531.31134"
       y2="-5410.3999"
       gradientTransform="rotate(90,-2442.45,-2960.45)">
      <stop
         offset="0.01118"
         style="stop-color:#636363"
         id="stop45376" />
      <stop
         offset="1"
         style="stop-color:#2B2B2B"
         id="stop45378" />
    </linearGradient>
    <linearGradient
       id="SVGID_3_-3"
       gradientUnits="userSpaceOnUse"
       x1="520.13452"
       y1="-5410.3999"
       x2="530.86426"
       y2="-5410.3999"
       gradientTransform="rotate(90,-2442.45,-2960.45)">
      <stop
         offset="0.01118"
         style="stop-color:#4C4C4C"
         id="stop45383-1" />
      <stop
         offset="1"
         style="stop-color:#3B3B3B"
         id="stop45385-69" />
    </linearGradient>
    <linearGradient
       inkscape:collect="always"
       xlink:href="#linearGradient22215-5"
       id="linearGradient3787"
       gradientUnits="userSpaceOnUse"
       x1="105"
       y1="380"
       x2="105"
       y2="0" />
    <linearGradient
       inkscape:collect="always"
       xlink:href="#linearGradient22215-5"
       id="linearGradient3789"
       gradientUnits="userSpaceOnUse"
       x1="105"
       y1="380"
       x2="105"
       y2="0" />
    <linearGradient
       inkscape:collect="always"
       xlink:href="#linearGradient22215-5"
       id="linearGradient22217-7-9-2"
       x1="105"
       y1="380"
       x2="105"
       y2="0"
       gradientUnits="userSpaceOnUse" />
    <linearGradient
       inkscape:collect="always"
       xlink:href="#linearGradient22215-5"
       id="linearGradient3789-6"
       gradientUnits="userSpaceOnUse"
       x1="105"
       y1="380"
       x2="105"
       y2="0" />
    <linearGradient
       inkscape:collect="always"
       xlink:href="#linearGradient22215-5"
       id="linearGradient3789-8"
       gradientUnits="userSpaceOnUse"
       x1="105"
       y1="380"
       x2="105"
       y2="0" />
  </defs>
  <g
     id="b3947816-d40f-41db-852f-d14f402c3ab2-8"
     data-name="FND BG"
     style="fill:url(#linearGradient3789);fill-opacity:1"
     transform="scale(0.71428571,1)">
    <rect
       width="105"
       height="380"
       fill="url(#b0234e08-fdca-44f0-b5b7-019b02f0775b)"
       id="rect9-9-4"
       style="fill:url(#linearGradient3787);fill-opacity:1"
       x="0"
       y="0" />
  </g>
  <g
     id="b3947816-d40f-41db-852f-d14f402c3ab2-8-5"
     data-name="FND BG"
     style="fill:url(#linearGradient3789-8);fill-opacity:1"
     transform="scale(0.71428571,1)">
    <path
       id="rect9-9-4-9"
       style="fill:#ffffff;fill-opacity:1;stroke-width:0.845154;opacity:0.02"
       d="M 75 65.607422 L 0 145.73633 L 0 167.36914 L 75 87.240234 L 75 65.607422 z "
       transform="scale(1.4,1)" />
  </g>
  <g
     id="b3947816-d40f-41db-852f-d14f402c3ab2-8-1"
     data-name="FND BG"
     style="fill:url(#linearGradient3789-6);fill-opacity:1"
     transform="scale(0.71428571,1)">
    <path
       id="rect9-9-4-1"
       style="fill:#ffffff;fill-opacity:1;stroke-width:0.845154;opacity:0.04"
       d="M 60.787109 0 L 0 64.945312 L 0 86.578125 L 75 6.4472656 L 75 0 L 60.787109 0 z "
       transform="scale(1.4,1)" />
  </g>
  <g
     id="b3947816-d40f-41db-852f-d14f402c3ab2-8-7-6-3"
     data-name="FND BG"
     style="fill:url(#linearGradient22217-7-9-2);fill-opacity:1" />
  <path
     id="rect18523-8-8-2-5-7"
     style="opacity:0.07;fill:#ffffff;stroke-width:0.527778"
     d="M 15.60352,0 0,16.671875 V 38.304688 L 35.85156,0 Z" />
  <rect
     style="fill:#44444a;fill-opacity:1;stroke-width:0.0570577"
     id="rect8523-8-1-0-4-8"
     width="64.689552"
     height="1"
     x="5.1552238"
     y="33.58757" />
  <rect
     style="fill:#44444a;fill-opacity:1;stroke-width:0.0570577"
     id="rect8523-8-1-0-4-8-5"
     width="64.689552"
     height="1"
     x="5.1552238"
     y="313.58759" />
  <g
     aria-label="MERGE"
     id="text14110-1-2-7-9-7"
     style="font-size:16px;line-height:1.25;fill:#929090">
    <path
       d="M 9.1875,28.449009 V 16.995884 h 2.28125 l 2.710938,8.109375 q 0.375,1.132812 0.546875,1.695312 0.195312,-0.625 0.609375,-1.835937 l 2.742187,-7.96875 h 2.039062 V 28.449009 H 18.65625 v -9.585938 l -3.328125,9.585938 h -1.367187 l -3.3125,-9.75 v 9.75 z"
       style="font-family:Arial;-inkscape-font-specification:Arial;text-align:center;text-anchor:middle"
       id="path14502"
       inkscape:connector-curvature="0" />
    <path
       d="M 22.59375,28.449009 V 16.995884 H 30.875 v 1.351562 h -6.765625 v 3.507813 h 6.335937 v 1.34375 h -6.335937 v 3.898437 h 7.03125 v 1.351563 z"
       style="font-family:Arial;-inkscape-font-specification:Arial;text-align:center;text-anchor:middle"
       id="path14504"
       inkscape:connector-curvature="0" />
    <path
       d="M 33.257812,28.449009 V 16.995884 h 5.078125 q 1.53125,0 2.328125,0.3125 0.796875,0.304687 1.273438,1.085937 0.476562,0.78125 0.476562,1.726563 0,1.21875 -0.789062,2.054687 -0.789063,0.835938 -2.4375,1.0625 0.601562,0.289063 0.914062,0.570313 0.664063,0.609375 1.257813,1.523437 l 1.992187,3.117188 h -1.90625 l -1.515625,-2.382813 q -0.664062,-1.03125 -1.09375,-1.578125 -0.429687,-0.546875 -0.773437,-0.765625 -0.335938,-0.21875 -0.6875,-0.304687 -0.257813,-0.05469 -0.84375,-0.05469 h -1.757813 v 5.085938 z m 1.515625,-6.398438 h 3.257813 q 1.039062,0 1.625,-0.210937 0.585937,-0.21875 0.890625,-0.6875 0.304687,-0.476563 0.304687,-1.03125 0,-0.8125 -0.59375,-1.335938 -0.585937,-0.523437 -1.859375,-0.523437 h -3.625 z"
       style="font-family:Arial;-inkscape-font-specification:Arial;text-align:center;text-anchor:middle"
       id="path14506"
       inkscape:connector-curvature="0" />
    <path
       d="m 50.148437,23.956821 v -1.34375 L 55,22.605259 v 4.25 q -1.117188,0.890625 -2.304688,1.34375 -1.1875,0.445312 -2.4375,0.445312 -1.6875,0 -3.070312,-0.71875 -1.375,-0.726562 -2.078125,-2.09375 -0.703125,-1.367187 -0.703125,-3.054687 0,-1.671875 0.695312,-3.117188 0.703125,-1.453125 2.015625,-2.15625 1.3125,-0.703125 3.023438,-0.703125 1.242187,0 2.242187,0.40625 1.007813,0.398438 1.578125,1.117188 0.570313,0.71875 0.867188,1.875 l -1.367188,0.375 q -0.257812,-0.875 -0.640625,-1.375 -0.382812,-0.5 -1.09375,-0.796875 -0.710937,-0.304688 -1.578125,-0.304688 -1.039062,0 -1.796875,0.320313 -0.757812,0.3125 -1.226562,0.828125 -0.460938,0.515625 -0.71875,1.132812 -0.4375,1.0625 -0.4375,2.304688 0,1.53125 0.523437,2.5625 0.53125,1.03125 1.539063,1.53125 1.007812,0.5 2.140625,0.5 0.984375,0 1.921875,-0.375 0.9375,-0.382813 1.421875,-0.8125 v -2.132813 z"
       style="font-family:Arial;-inkscape-font-specification:Arial;text-align:center;text-anchor:middle"
       id="path14508"
       inkscape:connector-curvature="0" />
    <path
       d="M 57.265625,28.449009 V 16.995884 h 8.28125 v 1.351562 H 58.78125 v 3.507813 h 6.335937 v 1.34375 H 58.78125 v 3.898437 h 7.03125 v 1.351563 z"
       style="font-family:Arial;-inkscape-font-specification:Arial;text-align:center;text-anchor:middle"
       id="path14510"
       inkscape:connector-curvature="0" />
  </g>
  <g
     id="g898">
    <rect
       rx="8"
       y="320.16788"
       x="19.5"
       height="40"
       width="36"
       id="rect25890-0-8-1-1-9"
       style="fill:#d0d0d0;fill-opacity:0.75294119" />
    <g
       style="font-size:8px;line-height:1.25;fill:#000000;fill-opacity:1"
       id="text14110-5-6-8-4-7-8-0"
       aria-label="OUT">
      <path
         inkscape:connector-curvature="0"
         id="path14537"
         style="font-family:Arial;-inkscape-font-specification:Arial;fill:#000000;fill-opacity:1"
         d="m 29.330078,325.92172 q 0,-1.42578 0.765625,-2.23047 0.765625,-0.80859 1.976563,-0.80859 0.792968,0 1.429687,0.37891 0.636719,0.3789 0.96875,1.05859 0.335938,0.67578 0.335938,1.53516 0,0.87109 -0.351563,1.55859 -0.351562,0.6875 -0.996094,1.04297 -0.644531,0.35156 -1.390625,0.35156 -0.808593,0 -1.445312,-0.39062 -0.636719,-0.39063 -0.964844,-1.06641 -0.328125,-0.67578 -0.328125,-1.42969 z m 0.78125,0.0117 q 0,1.03516 0.554688,1.63281 0.558593,0.59375 1.398437,0.59375 0.855469,0 1.40625,-0.60156 0.554688,-0.60156 0.554688,-1.70703 0,-0.69922 -0.238282,-1.21875 -0.234375,-0.52344 -0.691406,-0.80859 -0.453125,-0.28907 -1.019531,-0.28907 -0.804688,0 -1.386719,0.55469 -0.578125,0.55078 -0.578125,1.84375 z" />
      <path
         inkscape:connector-curvature="0"
         id="path14539"
         style="font-family:Arial;-inkscape-font-specification:Arial;fill:#000000;fill-opacity:1"
         d="m 39.541016,322.98422 h 0.757812 v 3.3086 q 0,0.86328 -0.195312,1.37109 -0.195313,0.50781 -0.707032,0.82812 -0.507812,0.31641 -1.335937,0.31641 -0.804688,0 -1.316406,-0.27734 -0.511719,-0.27735 -0.730469,-0.80078 -0.21875,-0.52735 -0.21875,-1.4375 v -3.3086 h 0.757812 v 3.30469 q 0,0.74609 0.136719,1.10156 0.140625,0.35156 0.476563,0.54297 0.339843,0.19141 0.828125,0.19141 0.835937,0 1.191406,-0.37891 0.355469,-0.37891 0.355469,-1.45703 z" />
      <path
         inkscape:connector-curvature="0"
         id="path14541"
         style="font-family:Arial;-inkscape-font-specification:Arial;fill:#000000;fill-opacity:1"
         d="M 43.017578,328.71078 V 323.66 h -1.886719 v -0.67578 h 4.539063 V 323.66 h -1.894531 v 5.05078 z" />
    </g>
  </g>
  <g
     aria-label="1-8 IN"
     id="text14110-5-6-7-9-6-1-9-8-2-1"
     style="font-size:8px;line-height:1.25;fill:#929090"
     transform="translate(-0.322359)">
    <path
       d="m 13.552734,61.113312 h -0.703125 v -4.480469 q -0.253906,0.242188 -0.667968,0.484375 -0.410157,0.242188 -0.738282,0.363281 v -0.679687 q 0.589844,-0.277344 1.03125,-0.671875 0.441407,-0.394531 0.625,-0.765625 h 0.453125 z"
       style="font-family:Arial;-inkscape-font-specification:Arial;text-align:center;text-anchor:middle"
       id="path14513"
       inkscape:connector-curvature="0" />
    <path
       d="m 15.275391,59.394562 v -0.707031 h 2.160156 v 0.707031 z"
       style="font-family:Arial;-inkscape-font-specification:Arial;text-align:center;text-anchor:middle"
       id="path14515"
       inkscape:connector-curvature="0" />
    <path
       d="m 19.099609,58.007843 q -0.4375,-0.160156 -0.648437,-0.457031 -0.210938,-0.296875 -0.210938,-0.710938 0,-0.625 0.449219,-1.050781 0.449219,-0.425781 1.195313,-0.425781 0.75,0 1.207031,0.4375 0.457031,0.433594 0.457031,1.058594 0,0.398437 -0.210937,0.695312 -0.207032,0.292969 -0.632813,0.453125 0.527344,0.171875 0.800781,0.554688 0.277344,0.382812 0.277344,0.914062 0,0.734375 -0.519531,1.234375 -0.519531,0.5 -1.367188,0.5 -0.847656,0 -1.367187,-0.5 -0.519531,-0.503906 -0.519531,-1.253906 0,-0.558594 0.28125,-0.933594 0.285156,-0.378906 0.808593,-0.515625 z m -0.140625,-1.191406 q 0,0.40625 0.261719,0.664062 0.261719,0.257813 0.679688,0.257813 0.40625,0 0.664062,-0.253906 0.261719,-0.257813 0.261719,-0.628907 0,-0.386718 -0.269531,-0.648437 -0.265625,-0.265625 -0.664063,-0.265625 -0.402344,0 -0.667969,0.257812 -0.265625,0.257813 -0.265625,0.617188 z m -0.226562,2.644531 q 0,0.300781 0.140625,0.582031 0.144531,0.28125 0.425781,0.4375 0.28125,0.152344 0.605469,0.152344 0.503906,0 0.832031,-0.324219 0.328125,-0.324218 0.328125,-0.824218 0,-0.507813 -0.339844,-0.839844 -0.335937,-0.332031 -0.84375,-0.332031 -0.496093,0 -0.824218,0.328125 -0.324219,0.328125 -0.324219,0.820312 z"
       style="font-family:Arial;-inkscape-font-specification:Arial;text-align:center;text-anchor:middle"
       id="path14517"
       inkscape:connector-curvature="0" />
    <path
       d="m 25.103516,61.113312 v -5.726563 h 0.757812 v 5.726563 z"
       style="font-family:Arial;-inkscape-font-specification:Arial;text-align:center;text-anchor:middle"
       id="path14519"
       inkscape:connector-curvature="0" />
    <path
       d="m 27.189453,61.113312 v -5.726563 h 0.777344 l 3.007812,4.496094 v -4.496094 h 0.726563 v 5.726563 h -0.777344 l -3.007812,-4.5 v 4.5 z"
       style="font-family:Arial;-inkscape-font-specification:Arial;text-align:center;text-anchor:middle"
       id="path14521"
       inkscape:connector-curvature="0" />
  </g>
  <g
     aria-label="9-16 IN"
     id="text14110-5-6-7-9-6-1-9-8-2-1-2"
     style="font-size:8px;line-height:1.25;fill:#929090"
     transform="translate(2.447306)">
    <path
       d="m 38.785156,59.789093 0.675781,-0.0625 q 0.08594,0.476563 0.328125,0.691406 0.242188,0.214844 0.621094,0.214844 0.324219,0 0.566406,-0.148437 0.246094,-0.148438 0.402344,-0.394532 0.15625,-0.25 0.261719,-0.671875 0.105469,-0.421875 0.105469,-0.859375 0,-0.04687 -0.0039,-0.140625 -0.210937,0.335938 -0.578125,0.546875 -0.363281,0.207032 -0.789062,0.207032 -0.710938,0 -1.203125,-0.515625 -0.492188,-0.515625 -0.492188,-1.359375 0,-0.871094 0.511719,-1.402344 0.515625,-0.53125 1.289063,-0.53125 0.558593,0 1.019531,0.300781 0.464844,0.300781 0.703125,0.859375 0.242187,0.554688 0.242187,1.609375 0,1.097656 -0.238281,1.75 -0.238281,0.648438 -0.710937,0.988281 -0.46875,0.339844 -1.101563,0.339844 -0.671875,0 -1.097656,-0.371094 -0.425781,-0.375 -0.511719,-1.050781 z m 2.878906,-2.527344 q 0,-0.605468 -0.324218,-0.960937 -0.320313,-0.355469 -0.773438,-0.355469 -0.46875,0 -0.816406,0.382813 -0.347656,0.382812 -0.347656,0.992187 0,0.546875 0.328125,0.890625 0.332031,0.339844 0.816406,0.339844 0.488281,0 0.800781,-0.339844 0.316406,-0.34375 0.316406,-0.949219 z"
       style="font-family:Arial;-inkscape-font-specification:Arial;text-align:center;text-anchor:middle"
       id="path14524"
       inkscape:connector-curvature="0" />
    <path
       d="m 43.050781,59.394562 v -0.707031 h 2.160156 v 0.707031 z"
       style="font-family:Arial;-inkscape-font-specification:Arial;text-align:center;text-anchor:middle"
       id="path14526"
       inkscape:connector-curvature="0" />
    <path
       d="m 48.441406,61.113312 h -0.703125 v -4.480469 q -0.253906,0.242188 -0.667969,0.484375 -0.410156,0.242188 -0.738281,0.363281 v -0.679687 q 0.589844,-0.277344 1.03125,-0.671875 0.441406,-0.394531 0.625,-0.765625 h 0.453125 z"
       style="font-family:Arial;-inkscape-font-specification:Arial;text-align:center;text-anchor:middle"
       id="path14528"
       inkscape:connector-curvature="0" />
    <path
       d="m 53.890625,56.789093 -0.699219,0.05469 q -0.09375,-0.414063 -0.265625,-0.601563 -0.285156,-0.300781 -0.703125,-0.300781 -0.335937,0 -0.589844,0.1875 -0.332031,0.242187 -0.523437,0.707031 -0.191406,0.464844 -0.199219,1.324219 0.253906,-0.386719 0.621094,-0.574219 0.367187,-0.1875 0.769531,-0.1875 0.703125,0 1.195313,0.519531 0.496093,0.515625 0.496093,1.335938 0,0.539062 -0.234375,1.003906 -0.230468,0.460938 -0.636718,0.707031 -0.40625,0.246094 -0.921875,0.246094 -0.878907,0 -1.433594,-0.644531 -0.554688,-0.648438 -0.554688,-2.132813 0,-1.660156 0.613282,-2.414062 0.535156,-0.65625 1.441406,-0.65625 0.675781,0 1.105469,0.378906 0.433593,0.378906 0.519531,1.046875 z m -2.871094,2.46875 q 0,0.363281 0.152344,0.695313 0.15625,0.332031 0.433594,0.507812 0.277343,0.171875 0.582031,0.171875 0.445312,0 0.765625,-0.359375 0.320312,-0.359375 0.320312,-0.976562 0,-0.59375 -0.316406,-0.933594 -0.316406,-0.34375 -0.796875,-0.34375 -0.476562,0 -0.808594,0.34375 -0.332031,0.339844 -0.332031,0.894531 z"
       style="font-family:Arial;-inkscape-font-specification:Arial;text-align:center;text-anchor:middle"
       id="path14530"
       inkscape:connector-curvature="0" />
    <path
       d="m 57.328125,61.113312 v -5.726563 h 0.757812 v 5.726563 z"
       style="font-family:Arial;-inkscape-font-specification:Arial;text-align:center;text-anchor:middle"
       id="path14532"
       inkscape:connector-curvature="0" />
    <path
       d="m 59.414062,61.113312 v -5.726563 h 0.777344 l 3.007813,4.496094 v -4.496094 h 0.726562 v 5.726563 h -0.777344 l -3.007812,-4.5 v 4.5 z"
       style="font-family:Arial;-inkscape-font-specification:Arial;text-align:center;text-anchor:middle"
       id="path14534"
       inkscape:connector-curvature="0" />
  </g>
  <g
     id="a1ba9572-c3ea-40b4-9150-debccd5536ff"
     data-name="components"
     inkscape:groupmode="layer"
     style="display:none">
    <circle
       id="e4b4ebf8-3bf6-4926-afd7-6b1a2a11dbd0"
       data-name="08#PJ301MPort"
       cx="21.50001"
       cy="334"
       r="5"
       style="fill:#00ff00" />
    <circle
       id="a29e2a6c-3e56-47ea-afa5-b0b2b2957b62"
       data-name="16#PJ301MPort"
       cx="53.500011"
       cy="334"
       r="5"
       style="fill:#00ff00" />
    <circle
       id="b3e76666-dc19-4501-a4f3-9225bc1480fb"
       data-name="Poly#PJ301MPort"
       cx="21.50001"
       cy="64.862877"
       r="5"
       style="fill:#0000ff" />
    <circle
       id="be0d66bc-b854-4639-a99f-8e191df6e7cd"
       data-name="07#PJ301MPort"
       cx="21.50001"
       cy="304"
       r="5"
       style="fill:#00ff00" />
    <circle
       id="ab1ab1d1-626c-471b-a396-96e1e18dcf8d"
       data-name="15#PJ301MPort"
       cx="53.500011"
       cy="304"
       r="5"
       style="fill:#00ff00" />
    <circle
       id="ad679732-598a-46c6-a9bb-d41dea63e6fa"
       data-name="06#PJ301MPort"
       cx="21.50001"
       cy="274"
       r="5"
       style="fill:#00ff00" />
    <circle
       id="a10eb093-a0a6-4d4e-a37e-724e7271b68d"
       data-name="14#PJ301MPort"
       cx="53.500011"
       cy="274"
       r="5"
       style="fill:#00ff00" />
    <circle
       id="b0bff14f-428f-4945-89ab-b595f667c087"
       data-name="05#PJ301MPort"
       cx="21.50001"
       cy="244"
       r="5"
       style="fill:#00ff00" />
    <circle
       id="f3f00b88-61bc-4c47-aee6-b8de1795f4de"
       data-name="13#PJ301MPort"
       cx="53.500011"
       cy="244"
       r="5"
       style="fill:#00ff00" />
    <circle
       id="e81fee87-72aa-4e30-9f6c-e713b333270a"
       data-name="04#PJ301MPort"
       cx="21.50001"
       cy="214"
       r="5"
       style="fill:#00ff00" />
    <circle
       id="abe8d9c4-eb1a-4b8c-baf7-7a8bd8c44961"
       data-name="12#PJ301MPort"
       cx="53.500011"
       cy="214"
       r="5"
       style="fill:#00ff00" />
    <circle
       id="a9ceb744-7c90-43ff-8698-2cbd23b0715b"
       data-name="03#PJ301MPort"
       cx="21.50001"
       cy="184"
       r="5"
       style="fill:#00ff00" />
    <circle
       id="a1ae0bda-08de-46d4-98c6-84eca2b57230"
       data-name="11#PJ301MPort"
       cx="53.500011"
       cy="184"
       r="5"
       style="fill:#00ff00" />
    <circle
       id="b16790cc-b76b-485a-9396-6946b8d84dc5"
       data-name="02#PJ301MPort"
       cx="21.50001"
       cy="154"
       r="5"
       style="fill:#00ff00" />
    <circle
       id="e04c626b-5d7e-417e-857d-594792dd4d6a"
       data-name="10#PJ301MPort"
       cx="53.500011"
       cy="154"
       r="5"
       style="fill:#00ff00" />
    <circle
       id="b2732450-96ef-44df-8a01-b899c0f56f26"
       data-name="01#PJ301MPort"
       cx="21.50001"
       cy="124"
       r="5"
       style="fill:#00ff00" />
    <circle
       id="ab2ee882-f264-4888-a069-0eccb87fe455"
       data-name="09#PJ301MPort"
       cx="53.500011"
       cy="124"
       r="5"
       style="fill:#00ff00" />
    <rect
       id="aac24c6d-2573-4410-a233-9e57c7465b7a"
       data-name="Chan"
       x="41.39806"
       y="54.953018"
       width="24.20389"
       height="24.20389"
       style="fill:#ffff00" />
  </g>
</svg>
