<?xml version="1.0" encoding="UTF-8" standalone="no"?>
<svg
   xmlns:dc="http://purl.org/dc/elements/1.1/"
   xmlns:cc="http://creativecommons.org/ns#"
   xmlns:rdf="http://www.w3.org/1999/02/22-rdf-syntax-ns#"
   xmlns:svg="http://www.w3.org/2000/svg"
   xmlns="http://www.w3.org/2000/svg"
   xmlns:xlink="http://www.w3.org/1999/xlink"
   xmlns:sodipodi="http://sodipodi.sourceforge.net/DTD/sodipodi-0.dtd"
   xmlns:inkscape="http://www.inkscape.org/namespaces/inkscape"
   width="75"
   height="380"
   viewBox="0 0 75 380"
   version="1.1"
   id="svg204"
   sodipodi:docname="MidSide.svg"
   inkscape:version="0.92.5 (2060ec1f9f, 2020-04-08)">
  <metadata
     id="metadata208">
    <rdf:RDF>
      <cc:Work
         rdf:about="">
        <dc:format>image/svg+xml</dc:format>
        <dc:type
           rdf:resource="http://purl.org/dc/dcmitype/StillImage" />
      </cc:Work>
    </rdf:RDF>
  </metadata>
  <sodipodi:namedview
     pagecolor="#ffffff"
     bordercolor="#666666"
     borderopacity="1"
     objecttolerance="10"
     gridtolerance="10"
     guidetolerance="10"
     inkscape:pageopacity="0"
     inkscape:pageshadow="2"
     inkscape:window-width="1920"
     inkscape:window-height="1026"
     id="namedview206"
     showgrid="false"
     inkscape:zoom="1.7566021"
     inkscape:cx="-220.88098"
     inkscape:cy="186.15485"
     inkscape:window-x="1920"
     inkscape:window-y="0"
     inkscape:window-maximized="1"
     inkscape:current-layer="svg204"
     inkscape:pagecheckerboard="0" />
  <defs
     id="defs10">
    <linearGradient
       id="a8f8366b-ec18-4d04-840b-1656766f8bff"
       x1="37.5"
       x2="37.5"
       y2="380"
       gradientUnits="userSpaceOnUse">
      <stop
         offset="0"
         stop-color="#ebebeb"
         id="stop2" />
      <stop
         offset="1"
         stop-color="#e1e1e1"
         id="stop4" />
    </linearGradient>
    <linearGradient
       inkscape:collect="always"
       id="linearGradient22215-5">
      <stop
         style="stop-color:#000000;stop-opacity:1"
         offset="0"
         id="stop22211" />
      <stop
         style="stop-color:#191928;stop-opacity:1"
         offset="1"
         id="stop22213" />
    </linearGradient>
    <linearGradient
       id="SVGID_1_"
       gradientUnits="userSpaceOnUse"
       x1="518.99988"
       y1="-5410.3999"
       x2="531.99988"
       y2="-5410.3999"
       gradientTransform="rotate(90,-2442.45,-2960.45)">
      <stop
         offset="0.00559"
         style="stop-color:#303030"
         id="stop45369" />
      <stop
         offset="1"
         style="stop-color:#222222"
         id="stop45371" />
    </linearGradient>
    <linearGradient
       id="SVGID_2_"
       gradientUnits="userSpaceOnUse"
       x1="519.68744"
       y1="-5410.3999"
       x2="531.31134"
       y2="-5410.3999"
       gradientTransform="rotate(90,-2442.45,-2960.45)">
      <stop
         offset="0.01118"
         style="stop-color:#636363"
         id="stop45376" />
      <stop
         offset="1"
         style="stop-color:#2B2B2B"
         id="stop45378" />
    </linearGradient>
    <linearGradient
       id="SVGID_3_-3"
       gradientUnits="userSpaceOnUse"
       x1="520.13452"
       y1="-5410.3999"
       x2="530.86426"
       y2="-5410.3999"
       gradientTransform="rotate(90,-2442.45,-2960.45)">
      <stop
         offset="0.01118"
         style="stop-color:#4C4C4C"
         id="stop45383-1" />
      <stop
         offset="1"
         style="stop-color:#3B3B3B"
         id="stop45385-69" />
    </linearGradient>
    <linearGradient
       inkscape:collect="always"
       xlink:href="#linearGradient22215-5"
       id="linearGradient32627-5"
       gradientUnits="userSpaceOnUse"
       x1="105"
       y1="380"
       x2="105"
       y2="0" />
    <linearGradient
       inkscape:collect="always"
       xlink:href="#linearGradient22215-5"
       id="linearGradient34552"
       gradientUnits="userSpaceOnUse"
       x1="105"
       y1="380"
       x2="105"
       y2="0" />
    <linearGradient
       inkscape:collect="always"
       xlink:href="#linearGradient22215-5"
       id="linearGradient34554"
       gradientUnits="userSpaceOnUse"
       x1="105"
       y1="380"
       x2="105"
       y2="0" />
    <linearGradient
       inkscape:collect="always"
       xlink:href="#linearGradient22215-5"
       id="linearGradient34556"
       gradientUnits="userSpaceOnUse"
       x1="105"
       y1="380"
       x2="105"
       y2="0" />
    <linearGradient
       inkscape:collect="always"
       xlink:href="#linearGradient22215-5"
       id="linearGradient34556-0"
       gradientUnits="userSpaceOnUse"
       x1="105"
       y1="380"
       x2="105"
       y2="0" />
  </defs>
  <g
     id="bcd11dc9-abab-4077-ba99-bf416940c5f8"
     data-name="components"
     inkscape:groupmode="layer"
     style="display:none">
    <circle
       id="f6d0bf8e-444b-4666-9957-a0e775ff6f09"
       data-name="LrWidth#PJ301MPort"
       cx="53.509392"
       cy="238"
       r="5"
       style="fill:#00ff00" />
    <circle
       id="eb95cf02-65f4-48aa-9e59-2369d2663a14"
       data-name="LOut#PJ301MPort"
       cx="21.50939"
       cy="334"
       r="5"
       style="fill:#0000ff" />
    <circle
       id="f685f9ee-3b3a-445b-97b0-7fd329dd7603"
       data-name="ROut#PJ301MPort"
       cx="53.509392"
       cy="334"
       r="5"
       style="fill:#0000ff" />
    <circle
       id="aa690aaf-4d84-4f9a-ba94-a4a2b8cd3e19"
       data-name="M#PJ301MPort"
       cx="21.50939"
       cy="286"
       r="5"
       style="fill:#00ff00" />
    <circle
       id="fb079d53-f64c-43ad-be21-429986b56aa8"
       data-name="S#PJ301MPort"
       cx="53.509392"
       cy="286"
       r="5"
       style="fill:#00ff00" />
    <circle
       id="a6b549b3-bec4-4d28-bff3-9dc93fd055b9"
       data-name="MsWidth#PJ301MPort"
       cx="53.509392"
       cy="74.238312"
       r="5"
       style="fill:#00ff00" />
    <circle
       id="e2a1bc20-b8bd-4bd7-89b6-cc1ba251af6e"
       data-name="MOut#PJ301MPort"
       cx="21.50939"
       cy="170.31178"
       r="5"
       style="fill:#0000ff" />
    <circle
       id="f3d59e12-b2da-4b58-9daf-afdfa68992ce"
       data-name="SOut#PJ301MPort"
       cx="53.509392"
       cy="170.31178"
       r="5"
       style="fill:#0000ff" />
    <circle
       id="f2d041ab-8eeb-4536-a1f7-73f95d5d0913"
       data-name="L#PJ301MPort"
       cx="21.50939"
       cy="122.16582"
       r="5"
       style="fill:#00ff00" />
    <circle
       id="b8e3be3c-079c-4703-8f51-3ebfc51ef353"
       data-name="R#PJ301MPort"
       cx="53.509392"
       cy="122.16582"
       r="5"
       style="fill:#00ff00" />
    <circle
       id="a4f9824c-3d8c-4d1b-875f-331fa0d29019"
       data-name="StWidth#RoundBlackKnob"
       cx="21.50939"
       cy="237.94203"
       r="5"
       style="fill:#ff0000" />
    <circle
       id="aa859f59-c51a-44ff-ac49-d9e5fe5b0879"
       data-name="MsWidth#RoundBlackKnob"
       cx="21.50939"
       cy="74.417717"
       r="5"
       style="fill:#ff0000" />
  </g>
  <g
     id="b3947816-d40f-41db-852f-d14f402c3ab2-8-9"
     data-name="FND BG"
     style="fill:url(#linearGradient34554);fill-opacity:1"
     transform="scale(0.71428571,1)">
    <rect
       width="105"
       height="380"
       fill="url(#b0234e08-fdca-44f0-b5b7-019b02f0775b)"
       id="rect9-9-4-6"
       style="fill:url(#linearGradient34552);fill-opacity:1"
       x="0"
       y="0" />
  </g>
  <g
     id="b3947816-d40f-41db-852f-d14f402c3ab2-8-5-2"
     data-name="FND BG"
     style="fill:url(#linearGradient34556);fill-opacity:1"
     transform="scale(0.71428571,1)">
    <path
       id="rect9-9-4-9-2"
       style="opacity:0.02;fill:#ffffff;fill-opacity:1;stroke-width:0.845154"
       d="M 75,65.607422 0,145.73633 v 21.63281 L 75,87.240234 Z"
       transform="scale(1.4,1)" />
  </g>
  <g
     id="b3947816-d40f-41db-852f-d14f402c3ab2-8-1-8"
     data-name="FND BG"
     style="fill:url(#linearGradient32627-5);fill-opacity:1"
     transform="scale(0.71428571,1)">
    <path
       id="rect9-9-4-1-5"
       style="opacity:0.04;fill:#ffffff;fill-opacity:1;stroke-width:0.845154"
       d="M 60.787109,0 0,64.945312 V 86.578125 L 75,6.4472656 V 0 Z"
       transform="scale(1.4,1)" />
  </g>
  <path
     id="rect18523-8-8-2-5-7-7"
     style="opacity:0.07;fill:#ffffff;stroke-width:0.527778"
     d="M 15.60352,0 0,16.671875 V 38.304688 L 35.85156,0 Z" />
  <rect
     style="fill:#44444a;fill-opacity:1;stroke-width:0.0570577"
     id="rect8523-8-1-0-4-8-3"
     width="64.689552"
     height="1"
     x="5.1552277"
     y="33.58757" />
  <rect
     style="fill:#44444a;fill-opacity:1;stroke-width:0.0570577"
     id="rect8523-8-1-0-4-8-5-0"
     width="64.689552"
     height="1"
     x="5.1552277"
     y="199.58759" />
  <g
     aria-label="M/S"
     id="text14110-1-2-7-9-7-6"
     style="font-size:16px;line-height:1.25;fill:#929090">
    <path
       d="M 24.289062,28.449009 V 16.995884 h 2.28125 l 2.710938,8.109375 q 0.375,1.132812 0.546875,1.695312 0.195312,-0.625 0.609375,-1.835937 l 2.742187,-7.96875 h 2.039063 v 11.453125 h -1.460938 v -9.585938 l -3.328125,9.585938 H 29.0625 l -3.3125,-9.75 v 9.75 z"
       style="font-family:Arial;-inkscape-font-specification:Arial;text-align:center;text-anchor:middle"
       id="path53789" />
    <path
       d="M 36.429687,28.644321 39.75,16.800571 h 1.125 l -3.3125,11.84375 z"
       style="font-family:Arial;-inkscape-font-specification:Arial;text-align:center;text-anchor:middle"
       id="path53791" />
    <path
       d="m 41.59375,24.769321 1.429687,-0.125 q 0.101563,0.859375 0.46875,1.414063 0.375,0.546875 1.15625,0.890625 0.78125,0.335937 1.757813,0.335937 0.867187,0 1.53125,-0.257812 0.664062,-0.257813 0.984375,-0.703125 Q 49.25,25.870884 49.25,25.339634 q 0,-0.539063 -0.3125,-0.9375 -0.3125,-0.40625 -1.03125,-0.679688 -0.460938,-0.179687 -2.039063,-0.554687 -1.578125,-0.382813 -2.210937,-0.71875 -0.820313,-0.429688 -1.226563,-1.0625 -0.398437,-0.640625 -0.398437,-1.429688 0,-0.867187 0.492187,-1.617187 0.492188,-0.757813 1.4375,-1.148438 0.945313,-0.390625 2.101563,-0.390625 1.273437,0 2.242187,0.414063 0.976563,0.40625 1.5,1.203125 0.523438,0.796875 0.5625,1.804687 l -1.453125,0.109375 Q 48.796875,19.245884 48.117187,18.691196 47.445312,18.136509 46.125,18.136509 q -1.375,0 -2.007813,0.507812 -0.625,0.5 -0.625,1.210938 0,0.617187 0.445313,1.015625 0.4375,0.398437 2.28125,0.820312 1.851562,0.414063 2.539062,0.726563 1,0.460937 1.476563,1.171875 0.476562,0.703125 0.476562,1.625 0,0.914062 -0.523437,1.726562 -0.523438,0.804688 -1.507813,1.257813 -0.976562,0.445312 -2.203125,0.445312 -1.554687,0 -2.609375,-0.453125 -1.046875,-0.453125 -1.648437,-1.359375 -0.59375,-0.914062 -0.625,-2.0625 z"
       style="font-family:Arial;-inkscape-font-specification:Arial;text-align:center;text-anchor:middle"
       id="path53793" />
  </g>
  <path
     style="fill:#d0d0d0;fill-opacity:0.75294118"
     d="M 11.25 154.16797 C 6.818 154.16797 3.25 157.73597 3.25 162.16797 L 3.25 186.16797 C 3.25 190.59997 6.818 194.16797 11.25 194.16797 L 31.25 194.16797 C 33.786841 194.16797 36.0364 192.99496 37.5 191.16406 C 38.9636 192.99496 41.213159 194.16797 43.75 194.16797 L 63.75 194.16797 C 68.182 194.16797 71.75 190.59997 71.75 186.16797 L 71.75 162.16797 C 71.75 157.73597 68.182 154.16797 63.75 154.16797 L 43.75 154.16797 C 41.213159 154.16797 38.9636 155.34098 37.5 157.17188 C 36.0364 155.34098 33.786841 154.16797 31.25 154.16797 L 11.25 154.16797 z "
     id="rect25890-0-8-1-1-9-0-7" />
  <g
     aria-label="MID"
     id="text14110-5-6-8-4-7-8-0-4-7"
     style="font-size:8px;line-height:1.25;fill:#000000;fill-opacity:1"
     transform="translate(-0.599609)">
    <path
       d="m 15.027344,162.71078 v -5.72656 h 1.140625 l 1.355468,4.05469 q 0.1875,0.56641 0.273438,0.84766 0.09766,-0.3125 0.304687,-0.91797 l 1.371094,-3.98438 h 1.019531 v 5.72656 h -0.730468 v -4.79296 l -1.664063,4.79296 h -0.683594 l -1.656249,-4.875 v 4.875 z"
       style="font-family:Arial;-inkscape-font-specification:Arial;text-align:center;text-anchor:middle;fill:#000000;fill-opacity:1"
       id="path53857"
       inkscape:connector-curvature="0" />
    <path
       d="m 21.84375,162.71078 v -5.72656 h 0.757812 v 5.72656 z"
       style="font-family:Arial;-inkscape-font-specification:Arial;text-align:center;text-anchor:middle;fill:#000000;fill-opacity:1"
       id="path53859"
       inkscape:connector-curvature="0" />
    <path
       d="m 23.9375,162.71078 v -5.72656 h 1.972656 q 0.667969,0 1.019531,0.082 0.492188,0.11328 0.839844,0.41016 0.453125,0.38281 0.675781,0.98047 0.226563,0.59375 0.226563,1.35937 0,0.65235 -0.152344,1.15625 -0.152344,0.50391 -0.390625,0.83594 -0.238281,0.32813 -0.523437,0.51953 -0.28125,0.1875 -0.683594,0.28516 -0.398438,0.0976 -0.917969,0.0976 z m 0.757812,-0.67578 h 1.222657 q 0.566406,0 0.886718,-0.10547 0.324219,-0.10546 0.515625,-0.29687 0.269532,-0.26953 0.417969,-0.72266 0.152344,-0.45703 0.152344,-1.10547 0,-0.89843 -0.296875,-1.3789 -0.292969,-0.48438 -0.714844,-0.64844 Q 26.574219,157.66 25.898437,157.66 h -1.203125 z"
       style="font-family:Arial;-inkscape-font-specification:Arial;text-align:center;text-anchor:middle;fill:#000000;fill-opacity:1"
       id="path53861"
       inkscape:connector-curvature="0" />
  </g>
  <g
     aria-label="SIDE"
     id="text14110-5-6-8-4-7-8-0-4-7-3"
     style="font-size:8px;line-height:1.25;fill:#000000;fill-opacity:1"
     transform="translate(-0.099609)">
    <path
       d="m 44.908203,160.87094 0.714844,-0.0625 q 0.05078,0.42969 0.234375,0.70703 0.1875,0.27344 0.578125,0.44531 0.390625,0.16797 0.878906,0.16797 0.433594,0 0.765625,-0.1289 0.332031,-0.12891 0.492188,-0.35157 0.164062,-0.22656 0.164062,-0.49218 0,-0.26953 -0.15625,-0.46875 -0.15625,-0.20313 -0.515625,-0.33985 -0.230469,-0.0898 -1.019531,-0.27734 -0.789063,-0.19141 -1.105469,-0.35938 -0.410156,-0.21484 -0.613281,-0.53125 -0.199219,-0.32031 -0.199219,-0.71484 0,-0.43359 0.246094,-0.80859 0.246094,-0.37891 0.71875,-0.57422 0.472656,-0.19531 1.050781,-0.19531 0.636719,0 1.121094,0.20703 0.488281,0.20312 0.75,0.60156 0.261719,0.39844 0.28125,0.90234 l -0.726563,0.0547 q -0.05859,-0.54297 -0.398437,-0.82031 -0.335938,-0.27735 -0.996094,-0.27735 -0.6875,0 -1.003906,0.25391 -0.3125,0.25 -0.3125,0.60547 0,0.30859 0.222656,0.50781 0.21875,0.19922 1.140625,0.41016 0.925781,0.20703 1.269531,0.36328 0.5,0.23047 0.738282,0.58594 0.238281,0.35156 0.238281,0.8125 0,0.45703 -0.261719,0.86328 -0.261719,0.40234 -0.753906,0.6289 -0.488281,0.22266 -1.101563,0.22266 -0.777343,0 -1.304687,-0.22656 -0.523438,-0.22656 -0.824219,-0.67969 -0.296875,-0.45703 -0.3125,-1.03125 z"
       style="font-family:Arial;-inkscape-font-specification:Arial;text-align:center;text-anchor:middle;fill:#000000;fill-opacity:1"
       id="path53848"
       inkscape:connector-curvature="0" />
    <path
       d="m 50.630859,162.71078 v -5.72656 h 0.757813 v 5.72656 z"
       style="font-family:Arial;-inkscape-font-specification:Arial;text-align:center;text-anchor:middle;fill:#000000;fill-opacity:1"
       id="path53850"
       inkscape:connector-curvature="0" />
    <path
       d="m 52.724609,162.71078 v -5.72656 h 1.972657 q 0.667968,0 1.019531,0.082 0.492187,0.11328 0.839844,0.41016 0.453125,0.38281 0.675781,0.98047 0.226562,0.59375 0.226562,1.35937 0,0.65235 -0.152343,1.15625 -0.152344,0.50391 -0.390625,0.83594 -0.238282,0.32813 -0.523438,0.51953 -0.28125,0.1875 -0.683594,0.28516 -0.398437,0.0976 -0.917968,0.0976 z m 0.757813,-0.67578 h 1.222656 q 0.566406,0 0.886719,-0.10547 0.324219,-0.10546 0.515625,-0.29687 0.269531,-0.26953 0.417969,-0.72266 0.152343,-0.45703 0.152343,-1.10547 0,-0.89843 -0.296875,-1.3789 -0.292968,-0.48438 -0.714843,-0.64844 Q 55.361328,157.66 54.685547,157.66 h -1.203125 z"
       style="font-family:Arial;-inkscape-font-specification:Arial;text-align:center;text-anchor:middle;fill:#000000;fill-opacity:1"
       id="path53852"
       inkscape:connector-curvature="0" />
    <path
       d="m 58.517578,162.71078 v -5.72656 h 4.140625 V 157.66 h -3.382812 v 1.75391 h 3.167968 v 0.67187 h -3.167968 v 1.94922 h 3.515625 v 0.67578 z"
       style="font-family:Arial;-inkscape-font-specification:Arial;text-align:center;text-anchor:middle;fill:#000000;fill-opacity:1"
       id="path53854"
       inkscape:connector-curvature="0" />
  </g>
  <g
     aria-label="L/R - M/S"
     id="text14110-5-6-7-9-6-1-9-8-2-1-4"
     style="font-size:8px;line-height:1.25;fill:#929090">
    <path
       d="m 21.111328,47.113312 v -5.726563 h 0.757813 v 5.050782 h 2.820312 v 0.675781 z"
       style="font-family:Arial;-inkscape-font-specification:Arial;text-align:center;text-anchor:middle"
       id="path53796" />
    <path
       d="m 24.974609,47.210968 1.660157,-5.921875 h 0.5625 l -1.65625,5.921875 z"
       style="font-family:Arial;-inkscape-font-specification:Arial;text-align:center;text-anchor:middle"
       id="path53798" />
    <path
       d="m 27.826172,47.113312 v -5.726563 h 2.539062 q 0.765625,0 1.164063,0.15625 0.398437,0.152344 0.636719,0.542969 0.238281,0.390625 0.238281,0.863281 0,0.609375 -0.394531,1.027344 -0.394532,0.417969 -1.21875,0.53125 0.300781,0.144531 0.457031,0.285156 0.332031,0.304688 0.628906,0.761719 l 0.996094,1.558594 h -0.953125 l -0.757813,-1.191406 q -0.332031,-0.515625 -0.546875,-0.789063 -0.214843,-0.273437 -0.386718,-0.382812 -0.167969,-0.109375 -0.34375,-0.152344 -0.128907,-0.02734 -0.421875,-0.02734 h -0.878907 v 2.542969 z m 0.757812,-3.199219 h 1.628907 q 0.519531,0 0.8125,-0.105469 0.292968,-0.109375 0.445312,-0.34375 0.152344,-0.238281 0.152344,-0.515625 0,-0.40625 -0.296875,-0.667968 -0.292969,-0.261719 -0.929688,-0.261719 h -1.8125 z"
       style="font-family:Arial;-inkscape-font-specification:Arial;text-align:center;text-anchor:middle"
       id="path53800" />
    <path
       d="m 35.451172,45.394562 v -0.707031 h 2.160156 v 0.707031 z"
       style="font-family:Arial;-inkscape-font-specification:Arial;text-align:center;text-anchor:middle"
       id="path53802" />
    <path
       d="m 40.677734,47.113312 v -5.726563 h 1.140625 l 1.355469,4.054688 q 0.1875,0.566406 0.273438,0.847656 0.09766,-0.3125 0.304687,-0.917969 l 1.371094,-3.984375 h 1.019531 v 5.726563 h -0.730469 v -4.792969 l -1.664062,4.792969 h -0.683594 l -1.65625,-4.875 v 4.875 z"
       style="font-family:Arial;-inkscape-font-specification:Arial;text-align:center;text-anchor:middle"
       id="path53804" />
    <path
       d="m 46.748047,47.210968 1.660156,-5.921875 h 0.5625 l -1.65625,5.921875 z"
       style="font-family:Arial;-inkscape-font-specification:Arial;text-align:center;text-anchor:middle"
       id="path53806" />
    <path
       d="m 49.330078,45.273468 0.714844,-0.0625 q 0.05078,0.429688 0.234375,0.707031 0.1875,0.273438 0.578125,0.445313 0.390625,0.167969 0.878906,0.167969 0.433594,0 0.765625,-0.128907 0.332031,-0.128906 0.492188,-0.351562 0.164062,-0.226563 0.164062,-0.492188 0,-0.269531 -0.15625,-0.46875 -0.15625,-0.203125 -0.515625,-0.339843 -0.230469,-0.08984 -1.019531,-0.277344 -0.789063,-0.191406 -1.105469,-0.359375 -0.410156,-0.214844 -0.613281,-0.53125 -0.199219,-0.320313 -0.199219,-0.714844 0,-0.433594 0.246094,-0.808594 0.246094,-0.378906 0.71875,-0.574218 0.472656,-0.195313 1.050781,-0.195313 0.636719,0 1.121094,0.207031 0.488281,0.203125 0.75,0.601563 0.261719,0.398437 0.28125,0.902344 l -0.726563,0.05469 q -0.05859,-0.542969 -0.398437,-0.820312 -0.335938,-0.277344 -0.996094,-0.277344 -0.6875,0 -1.003906,0.253906 -0.3125,0.25 -0.3125,0.605469 0,0.308594 0.222656,0.507812 0.21875,0.199219 1.140625,0.410157 0.925781,0.207031 1.269531,0.363281 0.5,0.230469 0.738282,0.585937 0.238281,0.351563 0.238281,0.8125 0,0.457032 -0.261719,0.863282 -0.261719,0.402343 -0.753906,0.628906 -0.488281,0.222656 -1.101563,0.222656 -0.777343,0 -1.304687,-0.226562 -0.523438,-0.226563 -0.824219,-0.679688 -0.296875,-0.457031 -0.3125,-1.03125 z"
       style="font-family:Arial;-inkscape-font-specification:Arial;text-align:center;text-anchor:middle"
       id="path53808" />
  </g>
  <g
     aria-label="L IN"
     id="text14110-5-6-7-9-6-1-9-8-2-1-4-8"
     style="font-size:8px;line-height:1.25;fill:#929090"
     transform="translate(-0.179688)">
    <path
       d="m 14.863281,125.11331 v -5.72656 h 0.757813 v 5.05078 h 2.820312 v 0.67578 z"
       style="font-family:Arial;-inkscape-font-specification:Arial;text-align:center;text-anchor:middle"
       id="path53834"
       inkscape:connector-curvature="0" />
    <path
       d="m 21.398437,125.11331 v -5.72656 h 0.757813 v 5.72656 z"
       style="font-family:Arial;-inkscape-font-specification:Arial;text-align:center;text-anchor:middle"
       id="path53836"
       inkscape:connector-curvature="0" />
    <path
       d="m 23.484375,125.11331 v -5.72656 h 0.777344 l 3.007812,4.49609 v -4.49609 h 0.726563 v 5.72656 H 27.21875 l -3.007813,-4.5 v 4.5 z"
       style="font-family:Arial;-inkscape-font-specification:Arial;text-align:center;text-anchor:middle"
       id="path53838"
       inkscape:connector-curvature="0" />
  </g>
  <g
     aria-label="R IN"
     id="text14110-5-6-7-9-6-1-9-8-2-1-4-8-1"
     style="font-size:8px;line-height:1.25;fill:#929090"
     transform="translate(0.298828)">
    <path
       d="m 46.09375,125.11331 v -5.72656 h 2.539062 q 0.765625,0 1.164063,0.15625 0.398437,0.15234 0.636719,0.54297 0.238281,0.39062 0.238281,0.86328 0,0.60937 -0.394531,1.02734 -0.394532,0.41797 -1.21875,0.53125 0.300781,0.14453 0.457031,0.28516 0.332031,0.30469 0.628906,0.76172 l 0.996094,1.55859 H 50.1875 l -0.757813,-1.1914 q -0.332031,-0.51563 -0.546875,-0.78907 -0.214843,-0.27343 -0.386718,-0.38281 -0.167969,-0.10937 -0.34375,-0.15234 -0.128907,-0.0273 -0.421875,-0.0273 h -0.878907 v 2.54297 z m 0.757812,-3.19922 h 1.628907 q 0.519531,0 0.8125,-0.10547 0.292968,-0.10937 0.445312,-0.34375 0.152344,-0.23828 0.152344,-0.51562 0,-0.40625 -0.296875,-0.66797 -0.292969,-0.26172 -0.929688,-0.26172 h -1.8125 z"
       style="font-family:Arial;-inkscape-font-specification:Arial;text-align:center;text-anchor:middle"
       id="path53841"
       inkscape:connector-curvature="0" />
    <path
       d="m 54.210937,125.11331 v -5.72656 h 0.757813 v 5.72656 z"
       style="font-family:Arial;-inkscape-font-specification:Arial;text-align:center;text-anchor:middle"
       id="path53843"
       inkscape:connector-curvature="0" />
    <path
       d="m 56.296875,125.11331 v -5.72656 h 0.777344 l 3.007812,4.49609 v -4.49609 h 0.726563 v 5.72656 H 60.03125 l -3.007813,-4.5 v 4.5 z"
       style="font-family:Arial;-inkscape-font-specification:Arial;text-align:center;text-anchor:middle"
       id="path53845"
       inkscape:connector-curvature="0" />
  </g>
  <g
     id="b3947816-d40f-41db-852f-d14f402c3ab2-8-5-2-8"
     data-name="FND BG"
     style="fill:url(#linearGradient34556-0);fill-opacity:1"
     transform="matrix(0.71428571,0,0,1,0,166)">
    <path
       id="rect9-9-4-9-2-7"
       style="opacity:0.02;fill:#ffffff;fill-opacity:1;stroke-width:0.845154"
       d="M 75,65.607422 0,145.73633 v 21.63281 L 75,87.240234 Z"
       transform="scale(1.4,1)" />
  </g>
  <path
     style="fill:#d0d0d0;fill-opacity:0.75294118"
     d="M 11.25 320.16797 C 6.818 320.16797 3.25 323.73597 3.25 328.16797 L 3.25 352.16797 C 3.25 356.59997 6.818 360.16797 11.25 360.16797 L 31.25 360.16797 C 33.786841 360.16797 36.0364 358.99496 37.5 357.16406 C 38.9636 358.99496 41.213159 360.16797 43.75 360.16797 L 63.75 360.16797 C 68.182 360.16797 71.75 356.59997 71.75 352.16797 L 71.75 328.16797 C 71.75 323.73597 68.182 320.16797 63.75 320.16797 L 43.75 320.16797 C 41.213159 320.16797 38.9636 321.34098 37.5 323.17188 C 36.0364 321.34098 33.786841 320.16797 31.25 320.16797 L 11.25 320.16797 z "
     id="rect25890-0-8-1-1-9-0-7-7" />
  <g
     aria-label="MID"
     id="text14110-5-6-8-4-7-8-0-4-7-4"
     style="font-size:8px;line-height:1.25;fill:#000000;fill-opacity:1"
     transform="translate(-0.599609)">
    <path
       d="m 15.027344,328.71078 v -5.72656 h 1.140625 l 1.355468,4.05469 q 0.1875,0.56641 0.273438,0.84766 0.09766,-0.3125 0.304687,-0.91797 l 1.371094,-3.98438 h 1.019531 v 5.72656 h -0.730468 v -4.79296 l -1.664063,4.79296 h -0.683594 l -1.656249,-4.875 v 4.875 z"
       style="font-family:Arial;-inkscape-font-specification:Arial;text-align:center;text-anchor:middle;fill:#000000;fill-opacity:1"
       id="path53925"
       inkscape:connector-curvature="0" />
    <path
       d="m 21.84375,328.71078 v -5.72656 h 0.757812 v 5.72656 z"
       style="font-family:Arial;-inkscape-font-specification:Arial;text-align:center;text-anchor:middle;fill:#000000;fill-opacity:1"
       id="path53927"
       inkscape:connector-curvature="0" />
    <path
       d="m 23.9375,328.71078 v -5.72656 h 1.972656 q 0.667969,0 1.019531,0.082 0.492188,0.11328 0.839844,0.41016 0.453125,0.38281 0.675781,0.98047 0.226563,0.59375 0.226563,1.35937 0,0.65235 -0.152344,1.15625 -0.152344,0.50391 -0.390625,0.83594 -0.238281,0.32813 -0.523437,0.51953 -0.28125,0.1875 -0.683594,0.28516 -0.398438,0.0976 -0.917969,0.0976 z m 0.757812,-0.67578 h 1.222657 q 0.566406,0 0.886718,-0.10547 0.324219,-0.10546 0.515625,-0.29687 0.269532,-0.26953 0.417969,-0.72266 0.152344,-0.45703 0.152344,-1.10547 0,-0.89843 -0.296875,-1.3789 -0.292969,-0.48438 -0.714844,-0.64844 Q 26.574219,323.66 25.898437,323.66 h -1.203125 z"
       style="font-family:Arial;-inkscape-font-specification:Arial;text-align:center;text-anchor:middle;fill:#000000;fill-opacity:1"
       id="path53929"
       inkscape:connector-curvature="0" />
  </g>
  <g
     aria-label="SIDE"
     id="text14110-5-6-8-4-7-8-0-4-7-3-2"
     style="font-size:8px;line-height:1.25;fill:#000000;fill-opacity:1"
     transform="translate(-0.099609)">
    <path
       d="m 44.908203,326.87094 0.714844,-0.0625 q 0.05078,0.42969 0.234375,0.70703 0.1875,0.27344 0.578125,0.44531 0.390625,0.16797 0.878906,0.16797 0.433594,0 0.765625,-0.1289 0.332031,-0.12891 0.492188,-0.35157 0.164062,-0.22656 0.164062,-0.49218 0,-0.26953 -0.15625,-0.46875 -0.15625,-0.20313 -0.515625,-0.33985 -0.230469,-0.0898 -1.019531,-0.27734 -0.789063,-0.19141 -1.105469,-0.35938 -0.410156,-0.21484 -0.613281,-0.53125 -0.199219,-0.32031 -0.199219,-0.71484 0,-0.43359 0.246094,-0.80859 0.246094,-0.37891 0.71875,-0.57422 0.472656,-0.19531 1.050781,-0.19531 0.636719,0 1.121094,0.20703 0.488281,0.20312 0.75,0.60156 0.261719,0.39844 0.28125,0.90234 l -0.726563,0.0547 q -0.05859,-0.54297 -0.398437,-0.82031 -0.335938,-0.27735 -0.996094,-0.27735 -0.6875,0 -1.003906,0.25391 -0.3125,0.25 -0.3125,0.60547 0,0.30859 0.222656,0.50781 0.21875,0.19922 1.140625,0.41016 0.925781,0.20703 1.269531,0.36328 0.5,0.23047 0.738282,0.58594 0.238281,0.35156 0.238281,0.8125 0,0.45703 -0.261719,0.86328 -0.261719,0.40234 -0.753906,0.6289 -0.488281,0.22266 -1.101563,0.22266 -0.777343,0 -1.304687,-0.22656 -0.523438,-0.22656 -0.824219,-0.67969 -0.296875,-0.45703 -0.3125,-1.03125 z"
       style="font-family:Arial;-inkscape-font-specification:Arial;text-align:center;text-anchor:middle;fill:#000000;fill-opacity:1"
       id="path53916"
       inkscape:connector-curvature="0" />
    <path
       d="m 50.630859,328.71078 v -5.72656 h 0.757813 v 5.72656 z"
       style="font-family:Arial;-inkscape-font-specification:Arial;text-align:center;text-anchor:middle;fill:#000000;fill-opacity:1"
       id="path53918"
       inkscape:connector-curvature="0" />
    <path
       d="m 52.724609,328.71078 v -5.72656 h 1.972657 q 0.667968,0 1.019531,0.082 0.492187,0.11328 0.839844,0.41016 0.453125,0.38281 0.675781,0.98047 0.226562,0.59375 0.226562,1.35937 0,0.65235 -0.152343,1.15625 -0.152344,0.50391 -0.390625,0.83594 -0.238282,0.32813 -0.523438,0.51953 -0.28125,0.1875 -0.683594,0.28516 -0.398437,0.0976 -0.917968,0.0976 z m 0.757813,-0.67578 h 1.222656 q 0.566406,0 0.886719,-0.10547 0.324219,-0.10546 0.515625,-0.29687 0.269531,-0.26953 0.417969,-0.72266 0.152343,-0.45703 0.152343,-1.10547 0,-0.89843 -0.296875,-1.3789 -0.292968,-0.48438 -0.714843,-0.64844 Q 55.361328,323.66 54.685547,323.66 h -1.203125 z"
       style="font-family:Arial;-inkscape-font-specification:Arial;text-align:center;text-anchor:middle;fill:#000000;fill-opacity:1"
       id="path53920"
       inkscape:connector-curvature="0" />
    <path
       d="m 58.517578,328.71078 v -5.72656 h 4.140625 V 323.66 h -3.382812 v 1.75391 h 3.167968 v 0.67187 h -3.167968 v 1.94922 h 3.515625 v 0.67578 z"
       style="font-family:Arial;-inkscape-font-specification:Arial;text-align:center;text-anchor:middle;fill:#000000;fill-opacity:1"
       id="path53922"
       inkscape:connector-curvature="0" />
  </g>
  <g
     aria-label="M/S - L/R"
     id="text14110-5-6-7-9-6-1-9-8-2-1-4-4"
     style="font-size:8px;line-height:1.25;fill:#929090">
    <path
       d="m 21.119141,213.11331 v -5.72656 h 1.140625 l 1.355468,4.05469 q 0.1875,0.5664 0.273438,0.84765 0.09766,-0.3125 0.304687,-0.91797 l 1.371094,-3.98437 h 1.019531 v 5.72656 h -0.730468 v -4.79297 l -1.664063,4.79297 h -0.683594 l -1.65625,-4.875 v 4.875 z"
       style="font-family:Arial;-inkscape-font-specification:Arial;text-align:center;text-anchor:middle"
       id="path53864" />
    <path
       d="m 27.189453,213.21097 1.660156,-5.92188 h 0.5625 l -1.65625,5.92188 z"
       style="font-family:Arial;-inkscape-font-specification:Arial;text-align:center;text-anchor:middle"
       id="path53866" />
    <path
       d="m 29.771484,211.27347 0.714844,-0.0625 q 0.05078,0.42969 0.234375,0.70703 0.1875,0.27344 0.578125,0.44531 0.390625,0.16797 0.878906,0.16797 0.433594,0 0.765625,-0.12891 0.332032,-0.1289 0.492188,-0.35156 0.164062,-0.22656 0.164062,-0.49219 0,-0.26953 -0.15625,-0.46875 -0.15625,-0.20312 -0.515625,-0.33984 -0.230468,-0.0898 -1.019531,-0.27734 -0.789062,-0.19141 -1.105469,-0.35938 -0.410156,-0.21484 -0.613281,-0.53125 -0.199219,-0.32031 -0.199219,-0.71484 0,-0.4336 0.246094,-0.8086 0.246094,-0.3789 0.71875,-0.57421 0.472656,-0.19532 1.050781,-0.19532 0.636719,0 1.121094,0.20703 0.488281,0.20313 0.75,0.60157 0.261719,0.39843 0.28125,0.90234 l -0.726562,0.0547 q -0.05859,-0.54297 -0.398438,-0.82031 -0.335937,-0.27735 -0.996094,-0.27735 -0.6875,0 -1.003906,0.25391 -0.3125,0.25 -0.3125,0.60547 0,0.30859 0.222656,0.50781 0.21875,0.19922 1.140625,0.41016 0.925782,0.20703 1.269532,0.36328 0.5,0.23047 0.738281,0.58593 0.238281,0.35157 0.238281,0.8125 0,0.45704 -0.261719,0.86329 -0.261718,0.40234 -0.753906,0.6289 -0.488281,0.22266 -1.101562,0.22266 -0.777344,0 -1.304688,-0.22656 -0.523437,-0.22657 -0.824219,-0.67969 -0.296875,-0.45703 -0.3125,-1.03125 z"
       style="font-family:Arial;-inkscape-font-specification:Arial;text-align:center;text-anchor:middle"
       id="path53868" />
    <path
       d="m 37.224609,211.39456 v -0.70703 h 2.160157 v 0.70703 z"
       style="font-family:Arial;-inkscape-font-specification:Arial;text-align:center;text-anchor:middle"
       id="path53870" />
    <path
       d="m 42.443359,213.11331 v -5.72656 h 0.757813 v 5.05078 h 2.820312 v 0.67578 z"
       style="font-family:Arial;-inkscape-font-specification:Arial;text-align:center;text-anchor:middle"
       id="path53872" />
    <path
       d="m 46.306641,213.21097 1.660156,-5.92188 h 0.5625 l -1.65625,5.92188 z"
       style="font-family:Arial;-inkscape-font-specification:Arial;text-align:center;text-anchor:middle"
       id="path53874" />
    <path
       d="m 49.158203,213.11331 v -5.72656 h 2.539063 q 0.765625,0 1.164062,0.15625 0.398438,0.15234 0.636719,0.54297 0.238281,0.39062 0.238281,0.86328 0,0.60937 -0.394531,1.02734 -0.394531,0.41797 -1.21875,0.53125 0.300781,0.14453 0.457031,0.28516 0.332031,0.30469 0.628906,0.76172 l 0.996094,1.55859 h -0.953125 l -0.757812,-1.1914 q -0.332032,-0.51563 -0.546875,-0.78907 -0.214844,-0.27343 -0.386719,-0.38281 -0.167969,-0.10937 -0.34375,-0.15234 -0.128906,-0.0274 -0.421875,-0.0274 h -0.878906 v 2.54297 z m 0.757813,-3.19922 h 1.628906 q 0.519531,0 0.8125,-0.10547 0.292969,-0.10937 0.445312,-0.34375 0.152344,-0.23828 0.152344,-0.51562 0,-0.40625 -0.296875,-0.66797 -0.292969,-0.26172 -0.929687,-0.26172 h -1.8125 z"
       style="font-family:Arial;-inkscape-font-specification:Arial;text-align:center;text-anchor:middle"
       id="path53876" />
  </g>
  <g
     aria-label="L IN"
     id="text14110-5-6-7-9-6-1-9-8-2-1-4-8-9"
     style="font-size:8px;line-height:1.25;fill:#929090"
     transform="translate(-0.179688)">
    <path
       d="m 14.863281,291.11331 v -5.72656 h 0.757813 v 5.05078 h 2.820312 v 0.67578 z"
       style="font-family:Arial;-inkscape-font-specification:Arial;text-align:center;text-anchor:middle"
       id="path53902"
       inkscape:connector-curvature="0" />
    <path
       d="m 21.398437,291.11331 v -5.72656 h 0.757813 v 5.72656 z"
       style="font-family:Arial;-inkscape-font-specification:Arial;text-align:center;text-anchor:middle"
       id="path53904"
       inkscape:connector-curvature="0" />
    <path
       d="m 23.484375,291.11331 v -5.72656 h 0.777344 l 3.007812,4.49609 v -4.49609 h 0.726563 v 5.72656 H 27.21875 l -3.007813,-4.5 v 4.5 z"
       style="font-family:Arial;-inkscape-font-specification:Arial;text-align:center;text-anchor:middle"
       id="path53906"
       inkscape:connector-curvature="0" />
  </g>
  <g
     aria-label="R IN"
     id="text14110-5-6-7-9-6-1-9-8-2-1-4-8-1-3"
     style="font-size:8px;line-height:1.25;fill:#929090"
     transform="translate(0.298828)">
    <path
       d="m 46.09375,291.11331 v -5.72656 h 2.539062 q 0.765625,0 1.164063,0.15625 0.398437,0.15234 0.636719,0.54297 0.238281,0.39062 0.238281,0.86328 0,0.60937 -0.394531,1.02734 -0.394532,0.41797 -1.21875,0.53125 0.300781,0.14453 0.457031,0.28516 0.332031,0.30469 0.628906,0.76172 l 0.996094,1.55859 H 50.1875 l -0.757813,-1.1914 q -0.332031,-0.51563 -0.546875,-0.78907 -0.214843,-0.27343 -0.386718,-0.38281 -0.167969,-0.10937 -0.34375,-0.15234 -0.128907,-0.0274 -0.421875,-0.0274 h -0.878907 v 2.54297 z m 0.757812,-3.19922 h 1.628907 q 0.519531,0 0.8125,-0.10547 0.292968,-0.10937 0.445312,-0.34375 0.152344,-0.23828 0.152344,-0.51562 0,-0.40625 -0.296875,-0.66797 -0.292969,-0.26172 -0.929688,-0.26172 h -1.8125 z"
       style="font-family:Arial;-inkscape-font-specification:Arial;text-align:center;text-anchor:middle"
       id="path53909"
       inkscape:connector-curvature="0" />
    <path
       d="m 54.210937,291.11331 v -5.72656 h 0.757813 v 5.72656 z"
       style="font-family:Arial;-inkscape-font-specification:Arial;text-align:center;text-anchor:middle"
       id="path53911"
       inkscape:connector-curvature="0" />
    <path
       d="m 56.296875,291.11331 v -5.72656 h 0.777344 l 3.007812,4.49609 v -4.49609 h 0.726563 v 5.72656 H 60.03125 l -3.007813,-4.5 v 4.5 z"
       style="font-family:Arial;-inkscape-font-specification:Arial;text-align:center;text-anchor:middle"
       id="path53913"
       inkscape:connector-curvature="0" />
  </g>
  <g
     aria-label="CV"
     id="text14110-5-6-7-9-6-1-9-8-2-1-4-8-1-3-8"
     style="font-size:8px;line-height:1.25;fill:#929090"
     transform="translate(0.493359)">
    <path
       d="m 58.611328,233.1055 0.757813,0.19141 q -0.238282,0.93359 -0.859375,1.42578 -0.617188,0.48828 -1.511719,0.48828 -0.925781,0 -1.507813,-0.375 -0.578125,-0.37891 -0.882812,-1.09375 -0.300781,-0.71485 -0.300781,-1.53516 0,-0.89453 0.339843,-1.55859 0.34375,-0.66797 0.972657,-1.01172 0.632812,-0.34766 1.390625,-0.34766 0.859375,0 1.445312,0.4375 0.585938,0.4375 0.816406,1.23047 l -0.746093,0.17578 q -0.199219,-0.625 -0.578125,-0.91015 -0.378907,-0.28516 -0.953125,-0.28516 -0.660157,0 -1.105469,0.31641 -0.441406,0.3164 -0.621094,0.85156 -0.179687,0.53125 -0.179687,1.09766 0,0.73046 0.210937,1.27734 0.214844,0.54297 0.664063,0.8125 0.449218,0.26953 0.972656,0.26953 0.636719,0 1.078125,-0.36719 0.441406,-0.36718 0.597656,-1.08984 z"
       style="font-family:Arial;-inkscape-font-specification:Arial;text-align:center;text-anchor:middle"
       id="path53897"
       inkscape:connector-curvature="0" />
    <path
       d="m 61.939453,235.11331 -2.21875,-5.72656 h 0.820313 l 1.488281,4.16016 q 0.179687,0.5 0.300781,0.9375 0.132813,-0.46875 0.308594,-0.9375 l 1.546875,-4.16016 h 0.773437 l -2.242187,5.72656 z"
       style="font-family:Arial;-inkscape-font-specification:Arial;text-align:center;text-anchor:middle"
       id="path53899"
       inkscape:connector-curvature="0" />
  </g>
  <rect
     style="fill:#3d3d3d;fill-opacity:1;fill-rule:nonzero;stroke:none;stroke-width:0.62782502;stroke-opacity:1"
     id="rect58277-7-8-9-3-1-6"
     width="26.059"
     height="1"
     x="-50.529499"
     y="-249.11275"
     transform="scale(-1)" />
  <g
     aria-label="CV"
     id="text14110-5-6-7-9-6-1-9-8-2-1-4-8-1-3-8-4"
     style="font-size:8px;line-height:1.25;fill:#929090"
     transform="translate(0.493359)">
    <path
       d="m 58.611328,67.105499 0.757813,0.191407 q -0.238282,0.933593 -0.859375,1.425781 -0.617188,0.488281 -1.511719,0.488281 -0.925781,0 -1.507813,-0.375 -0.578125,-0.378906 -0.882812,-1.09375 -0.300781,-0.714844 -0.300781,-1.535156 0,-0.894531 0.339843,-1.558594 0.34375,-0.667969 0.972657,-1.011719 0.632812,-0.347656 1.390625,-0.347656 0.859375,0 1.445312,0.4375 0.585938,0.4375 0.816406,1.230469 l -0.746093,0.175781 q -0.199219,-0.625 -0.578125,-0.910156 -0.378907,-0.285156 -0.953125,-0.285156 -0.660157,0 -1.105469,0.316406 -0.441406,0.316406 -0.621094,0.851562 -0.179687,0.53125 -0.179687,1.097657 0,0.730468 0.210937,1.277343 0.214844,0.542969 0.664063,0.8125 0.449218,0.269532 0.972656,0.269532 0.636719,0 1.078125,-0.367188 0.441406,-0.367187 0.597656,-1.089844 z"
       style="font-family:Arial;-inkscape-font-specification:Arial;text-align:center;text-anchor:middle"
       id="path53811"
       inkscape:connector-curvature="0" />
    <path
       d="m 61.939453,69.113312 -2.21875,-5.726563 h 0.820313 l 1.488281,4.160157 q 0.179687,0.5 0.300781,0.9375 0.132813,-0.46875 0.308594,-0.9375 l 1.546875,-4.160157 h 0.773437 l -2.242187,5.726563 z"
       style="font-family:Arial;-inkscape-font-specification:Arial;text-align:center;text-anchor:middle"
       id="path53813"
       inkscape:connector-curvature="0" />
  </g>
  <rect
     style="fill:#3d3d3d;fill-opacity:1;fill-rule:nonzero;stroke:none;stroke-width:0.62782502;stroke-opacity:1"
     id="rect58277-7-8-9-3-1-6-3"
     width="26.059"
     height="1"
     x="-50.529499"
     y="-83.112747"
     transform="scale(-1)" />
</svg>
