<?xml version="1.0" encoding="UTF-8" standalone="no"?>
<svg
   xmlns:dc="http://purl.org/dc/elements/1.1/"
   xmlns:cc="http://creativecommons.org/ns#"
   xmlns:rdf="http://www.w3.org/1999/02/22-rdf-syntax-ns#"
   xmlns:svg="http://www.w3.org/2000/svg"
   xmlns="http://www.w3.org/2000/svg"
   xmlns:xlink="http://www.w3.org/1999/xlink"
   xmlns:sodipodi="http://sodipodi.sourceforge.net/DTD/sodipodi-0.dtd"
   xmlns:inkscape="http://www.inkscape.org/namespaces/inkscape"
   width="45"
   height="380"
   viewBox="0 0 45 380"
   version="1.1"
   id="svg100"
   sodipodi:docname="Octave.svg"
   inkscape:version="0.92.5 (2060ec1f9f, 2020-04-08)">
  <metadata
     id="metadata104">
    <rdf:RDF>
      <cc:Work
         rdf:about="">
        <dc:format>image/svg+xml</dc:format>
        <dc:type
           rdf:resource="http://purl.org/dc/dcmitype/StillImage" />
      </cc:Work>
    </rdf:RDF>
  </metadata>
  <sodipodi:namedview
     pagecolor="#ffffff"
     bordercolor="#666666"
     borderopacity="1"
     objecttolerance="10"
     gridtolerance="10"
     guidetolerance="10"
     inkscape:pageopacity="0"
     inkscape:pageshadow="2"
     inkscape:window-width="1920"
     inkscape:window-height="1026"
     id="namedview102"
     showgrid="false"
     inkscape:zoom="7.0264084"
     inkscape:cx="-7.9495292"
     inkscape:cy="334.74143"
     inkscape:window-x="1920"
     inkscape:window-y="0"
     inkscape:window-maximized="1"
     inkscape:current-layer="svg100"
     inkscape:pagecheckerboard="0" />
  <defs
     id="defs7">
    <linearGradient
       id="b9d4c11d-62bb-4149-8428-d73ba37a61cb"
       x1="22.50001"
       x2="22.50001"
       y2="380"
       gradientUnits="userSpaceOnUse">
      <stop
         offset="0"
         stop-color="#ebebeb"
         id="stop2" />
      <stop
         offset="1"
         stop-color="#e1e1e1"
         id="stop4" />
    </linearGradient>
    <linearGradient
       id="linearGradient46906"
       gradientUnits="userSpaceOnUse"
       x1="520.13452"
       y1="-5410.3999"
       x2="530.86426"
       y2="-5410.3999"
       gradientTransform="rotate(90,-2442.45,-2960.45)">
      <stop
         offset="0.02846069"
         style="stop-color:#ff8c8c;stop-opacity:1"
         id="stop46902" />
      <stop
         offset="0.82481533"
         style="stop-color:#ff1515;stop-opacity:0"
         id="stop46904" />
    </linearGradient>
    <linearGradient
       id="SVGID_3_-8"
       gradientUnits="userSpaceOnUse"
       x1="520.13452"
       y1="-5410.3999"
       x2="530.86426"
       y2="-5410.3999"
       gradientTransform="rotate(90,-2442.45,-2960.45)">
      <stop
         offset="0.02846069"
         style="stop-color:#ff8c8c;stop-opacity:1"
         id="stop45383-7" />
      <stop
         offset="0.67017823"
         style="stop-color:#ff1515;stop-opacity:0"
         id="stop45385-6" />
    </linearGradient>
    <linearGradient
       id="SVGID_3_"
       gradientUnits="userSpaceOnUse"
       x1="520.13452"
       y1="-5410.3999"
       x2="530.86426"
       y2="-5410.3999"
       gradientTransform="rotate(90,-2442.45,-2960.45)">
      <stop
         offset="0.01118"
         style="stop-color:#4C4C4C"
         id="stop45383" />
      <stop
         offset="0.67017823"
         style="stop-color:#3b3b3b;stop-opacity:0"
         id="stop45385" />
    </linearGradient>
    <linearGradient
       id="SVGID_1_"
       gradientUnits="userSpaceOnUse"
       x1="518.99988"
       y1="-5410.3999"
       x2="531.99988"
       y2="-5410.3999"
       gradientTransform="rotate(90,-2442.45,-2960.45)">
      <stop
         offset="0.00559"
         style="stop-color:#303030"
         id="stop45369" />
      <stop
         offset="1"
         style="stop-color:#222222"
         id="stop45371" />
    </linearGradient>
    <linearGradient
       id="SVGID_2_"
       gradientUnits="userSpaceOnUse"
       x1="519.68744"
       y1="-5410.3999"
       x2="531.31134"
       y2="-5410.3999"
       gradientTransform="rotate(90,-2442.45,-2960.45)">
      <stop
         offset="0.01118"
         style="stop-color:#636363"
         id="stop45376" />
      <stop
         offset="1"
         style="stop-color:#2B2B2B"
         id="stop45378" />
    </linearGradient>
    <linearGradient
       id="SVGID_3_-3"
       gradientUnits="userSpaceOnUse"
       x1="520.13452"
       y1="-5410.3999"
       x2="530.86426"
       y2="-5410.3999"
       gradientTransform="rotate(90,-2442.45,-2960.45)">
      <stop
         offset="0.01118"
         style="stop-color:#4C4C4C"
         id="stop45383-1" />
      <stop
         offset="1"
         style="stop-color:#3B3B3B"
         id="stop45385-69" />
    </linearGradient>
    <linearGradient
       inkscape:collect="always"
       id="linearGradient22215-5">
      <stop
         style="stop-color:#000000;stop-opacity:1"
         offset="0"
         id="stop22211" />
      <stop
         style="stop-color:#191928;stop-opacity:1"
         offset="1"
         id="stop22213" />
    </linearGradient>
    <linearGradient
       inkscape:collect="always"
       xlink:href="#linearGradient22215-5"
       id="linearGradient80971-7"
       gradientUnits="userSpaceOnUse"
       x1="105"
       y1="380"
       x2="105"
       y2="0" />
    <linearGradient
       inkscape:collect="always"
       xlink:href="#linearGradient22215-5"
       id="linearGradient85051"
       gradientUnits="userSpaceOnUse"
       x1="105"
       y1="380"
       x2="105"
       y2="0" />
  </defs>
  <g
     id="e06e6f64-a3d5-42c7-b50d-73a05fd90b9f"
     data-name="components"
     inkscape:groupmode="layer"
     style="display:none">
    <circle
       id="a725d6ea-2baa-46de-82f9-1bd6b9e460ad"
       data-name="Out#PJ301MPort"
       cx="22.500031"
       cy="334"
       r="5"
       style="fill:#0000ff" />
    <circle
       id="bf7270a5-2377-4eae-9e85-177e863f28c8"
       data-name="In#PJ301MPort"
       cx="22.500031"
       cy="286"
       r="5"
       style="fill:#00ff00" />
    <circle
       id="a00b14f7-95f5-4478-ba64-af20446c3418"
       data-name="Oct#PJ301MPort"
       cx="22.500031"
       cy="237.911"
       r="5"
       style="fill:#00ff00" />
    <rect
       id="f28573d3-d0b1-4530-af50-653ae58dc253"
       data-name="Screen"
       x="-0.033849999"
       y="38.5"
       width="45.067699"
       height="165"
       style="fill:#ffff00" />
  </g>
  <g
     id="b3947816-d40f-41db-852f-d14f402c3ab2-9-6-8-0"
     data-name="FND BG"
     style="fill:url(#linearGradient80971-7);fill-opacity:1"
     transform="scale(0.43450383,1)">
    <rect
       width="105"
       height="380"
       fill="url(#b0234e08-fdca-44f0-b5b7-019b02f0775b)"
       id="rect9-9-5-3-1-0"
       style="fill:url(#linearGradient85051);fill-opacity:1"
       x="0"
       y="0" />
  </g>
  <path
     id="rect9-9-5-3-6-4-8"
     style="opacity:0.04;fill:#ffffff;fill-opacity:1;stroke-width:0.659169"
     d="M 45.623047,17.60156 0,66.3457 V 87.97852 L 45.623047,39.23438 Z" />
  <path
     id="rect9-9-5-3-6-4-8-2"
     style="opacity:0.02;fill:#ffffff;fill-opacity:1;stroke-width:0.659169"
     d="M 45.623047,77.60156 0,126.3457 v 21.63282 L 45.623047,99.23438 Z" />
  <path
     id="rect18523-8-8-7-6-1"
     style="opacity:0.07;fill:#ffffff;stroke-width:0.527778"
     d="M 15.60352,0 0,16.67187 V 38.30469 L 35.85156,0 Z" />
  <path
     id="rect8523-8-1-0-9-3-8"
     style="fill:#44444a;stroke-width:0.0424706"
     d="M 4.5793439,33.588 H 40.420656 v 1 H 4.5793439 Z"
     inkscape:connector-curvature="0" />
  <path
     id="rect8523-8-1-0-9-3-8-7"
     style="fill:#44444a;stroke-width:0.0940828"
     d="m 23,113.56757 0,175.8844 h -1 l 0,-175.8844 z"
     inkscape:connector-curvature="0" />
  <g
     aria-label="OCT"
     id="text14110-1-2-2-9-9-5"
     style="font-size:13.33329964px;line-height:1.25;fill:#929090"
     transform="translate(0.45677055,-3.36843)">
    <path
       d="m 8.4267269,25.201245 q 0,-2.376296 1.2760384,-3.717439 1.2760387,-1.347653 3.2942627,-1.347653 1.321611,0 2.382806,0.631509 1.061196,0.631509 1.61458,1.764319 0.559894,1.126299 0.559894,2.558587 0,1.451819 -0.585936,2.59765 -0.585936,1.14583 -1.660152,1.738276 -1.074216,0.585936 -2.317703,0.585936 -1.347652,0 -2.408848,-0.65104 Q 9.5204741,28.71035 8.9736005,27.584051 8.4267269,26.457752 8.4267269,25.201245 Z m 1.30208,0.01953 q 0,1.725256 0.9244771,2.721347 0.930987,0.989581 2.330723,0.989581 1.425778,0 2.343744,-1.002602 0.924477,-1.002601 0.924477,-2.845045 0,-1.165361 -0.397134,-2.031244 -0.390624,-0.872394 -1.152341,-1.347653 -0.755207,-0.48177 -1.699215,-0.48177 -1.341142,0 -2.311192,0.924477 -0.9635391,0.917966 -0.9635391,3.072909 z"
       style="font-family:Arial;-inkscape-font-specification:Arial;text-align:center;text-anchor:middle"
       id="path101427"
       inkscape:connector-curvature="0" />
    <path
       d="m 25.991787,26.503325 1.263018,0.319009 q -0.397135,1.555986 -1.432288,2.376296 -1.028644,0.8138 -2.519525,0.8138 -1.542965,0 -2.513015,-0.624998 -0.963539,-0.631509 -1.47135,-1.822912 -0.501301,-1.191403 -0.501301,-2.558587 0,-1.490882 0.566405,-2.59765 0.572915,-1.113278 1.62109,-1.686194 1.054684,-0.579425 2.317702,-0.579425 1.432288,0 2.408848,0.729165 0.97656,0.729164 1.360674,2.050776 l -1.243487,0.292968 q -0.33203,-1.041664 -0.963539,-1.516924 -0.631509,-0.475259 -1.588538,-0.475259 -1.100257,0 -1.842443,0.527343 -0.735675,0.527342 -1.035153,1.419267 -0.299479,0.885414 -0.299479,1.829422 0,1.217445 0.351562,2.128901 0.358072,0.904946 1.106768,1.354163 0.748696,0.449218 1.621089,0.449218 1.061196,0 1.796871,-0.611978 0.735675,-0.611977 0.996091,-1.816401 z"
       style="font-family:Arial;-inkscape-font-specification:Arial;text-align:center;text-anchor:middle"
       id="path101429"
       inkscape:connector-curvature="0" />
    <path
       d="m 31.23917,29.84967 v -8.417947 h -3.144523 v -1.126299 h 7.565085 v 1.126299 h -3.157544 v 8.417947 z"
       style="font-family:Arial;-inkscape-font-specification:Arial;text-align:center;text-anchor:middle"
       id="path101431"
       inkscape:connector-curvature="0" />
  </g>
  <g
     aria-label="V/OCT"
     id="text14110-5-6-8-3-8-2-8-4"
     style="font-size:8px;line-height:1.25;fill:#929090"
     transform="translate(-0.213791)">
    <path
       d="m 12.807541,47.113312 -2.21875,-5.726563 h 0.820312 l 1.488282,4.160157 q 0.179687,0.5 0.300781,0.9375 0.132812,-0.46875 0.308594,-0.9375 l 1.546875,-4.160157 h 0.773437 l -2.242187,5.726563 z"
       style="font-family:Arial;-inkscape-font-specification:Arial;text-align:center;text-anchor:middle"
       id="path101434"
       inkscape:connector-curvature="0" />
    <path
       d="m 15.889572,47.210968 1.660156,-5.921875 h 0.5625 l -1.65625,5.921875 z"
       style="font-family:Arial;-inkscape-font-specification:Arial;text-align:center;text-anchor:middle"
       id="path101436"
       inkscape:connector-curvature="0" />
    <path
       d="m 18.498947,44.324249 q 0,-1.425781 0.765625,-2.230468 0.765625,-0.808594 1.976563,-0.808594 0.792968,0 1.429687,0.378906 0.636719,0.378906 0.96875,1.058594 0.335938,0.675781 0.335938,1.535156 0,0.871094 -0.351563,1.558594 -0.351562,0.6875 -0.996094,1.042969 -0.644531,0.351562 -1.390625,0.351562 -0.808593,0 -1.445312,-0.390625 -0.636719,-0.390625 -0.964844,-1.066406 -0.328125,-0.675781 -0.328125,-1.429688 z m 0.78125,0.01172 q 0,1.035156 0.554688,1.632813 0.558593,0.59375 1.398437,0.59375 0.855469,0 1.40625,-0.601563 0.554688,-0.601562 0.554688,-1.707031 0,-0.699219 -0.238282,-1.21875 -0.234375,-0.523438 -0.691406,-0.808594 -0.453125,-0.289062 -1.019531,-0.289062 -0.804688,0 -1.386719,0.554687 -0.578125,0.550781 -0.578125,1.84375 z"
       style="font-family:Arial;-inkscape-font-specification:Arial;text-align:center;text-anchor:middle"
       id="path101438"
       inkscape:connector-curvature="0" />
    <path
       d="m 29.03801,45.105499 0.757812,0.191407 q -0.238281,0.933593 -0.859375,1.425781 -0.617187,0.488281 -1.511719,0.488281 -0.925781,0 -1.507812,-0.375 -0.578125,-0.378906 -0.882813,-1.09375 -0.300781,-0.714844 -0.300781,-1.535156 0,-0.894531 0.339844,-1.558594 0.34375,-0.667969 0.972656,-1.011719 0.632813,-0.347656 1.390625,-0.347656 0.859375,0 1.445313,0.4375 0.585937,0.4375 0.816406,1.230469 l -0.746094,0.175781 q -0.199219,-0.625 -0.578125,-0.910156 -0.378906,-0.285156 -0.953125,-0.285156 -0.660156,0 -1.105469,0.316406 -0.441406,0.316406 -0.621093,0.851562 -0.179688,0.53125 -0.179688,1.097657 0,0.730468 0.210938,1.277343 0.214843,0.542969 0.664062,0.8125 0.449219,0.269532 0.972656,0.269532 0.636719,0 1.078125,-0.367188 0.441407,-0.367187 0.597657,-1.089844 z"
       style="font-family:Arial;-inkscape-font-specification:Arial;text-align:center;text-anchor:middle"
       id="path101440"
       inkscape:connector-curvature="0" />
    <path
       d="m 32.186447,47.113312 v -5.050781 h -1.886719 v -0.675782 h 4.539063 v 0.675782 H 32.94426 v 5.050781 z"
       style="font-family:Arial;-inkscape-font-specification:Arial;text-align:center;text-anchor:middle"
       id="path101442"
       inkscape:connector-curvature="0" />
  </g>
  <g
     aria-label="SHIFT"
     id="text14110-5-6-8-3-8-2-8-4-6"
     style="font-size:8px;line-height:1.25;fill:#929090"
     transform="translate(-0.3759)">
    <path
       d="m 11.580978,85.273468 0.714844,-0.0625 q 0.05078,0.429688 0.234375,0.707031 0.1875,0.273438 0.578125,0.445313 0.390625,0.167969 0.878906,0.167969 0.433594,0 0.765625,-0.128907 0.332032,-0.128906 0.492188,-0.351562 0.164062,-0.226563 0.164062,-0.492188 0,-0.269531 -0.15625,-0.46875 -0.15625,-0.203125 -0.515625,-0.339843 -0.230468,-0.08984 -1.019531,-0.277344 -0.789062,-0.191406 -1.105469,-0.359375 -0.410156,-0.214844 -0.613281,-0.53125 -0.199219,-0.320313 -0.199219,-0.714844 0,-0.433594 0.246094,-0.808594 0.246094,-0.378906 0.71875,-0.574218 0.472656,-0.195313 1.050781,-0.195313 0.636719,0 1.121094,0.207031 0.488281,0.203125 0.75,0.601563 0.261719,0.398437 0.28125,0.902344 l -0.726562,0.05469 q -0.05859,-0.542969 -0.398438,-0.820312 -0.335937,-0.277344 -0.996094,-0.277344 -0.6875,0 -1.003906,0.253906 -0.3125,0.25 -0.3125,0.605469 0,0.308594 0.222656,0.507812 0.21875,0.199219 1.140625,0.410157 0.925782,0.207031 1.269532,0.363281 0.5,0.230469 0.738281,0.585937 0.238281,0.351563 0.238281,0.8125 0,0.457032 -0.261719,0.863282 -0.261718,0.402343 -0.753906,0.628906 -0.488281,0.222656 -1.101562,0.222656 -0.777344,0 -1.304688,-0.226562 -0.523437,-0.226563 -0.824219,-0.679688 -0.296875,-0.457031 -0.3125,-1.03125 z"
       style="font-family:Arial;-inkscape-font-specification:Arial;text-align:center;text-anchor:middle"
       id="path101445"
       inkscape:connector-curvature="0" />
    <path
       d="m 17.198166,87.113312 v -5.726563 h 0.757812 v 2.351563 h 2.976563 v -2.351563 h 0.757812 v 5.726563 h -0.757812 v -2.699219 h -2.976563 v 2.699219 z"
       style="font-family:Arial;-inkscape-font-specification:Arial;text-align:center;text-anchor:middle"
       id="path101447"
       inkscape:connector-curvature="0" />
    <path
       d="m 23.080978,87.113312 v -5.726563 h 0.757813 v 5.726563 z"
       style="font-family:Arial;-inkscape-font-specification:Arial;text-align:center;text-anchor:middle"
       id="path101449"
       inkscape:connector-curvature="0" />
    <path
       d="m 25.213791,87.113312 v -5.726563 h 3.863281 v 0.675782 h -3.105469 v 1.773437 h 2.6875 v 0.675781 h -2.6875 v 2.601563 z"
       style="font-family:Arial;-inkscape-font-specification:Arial;text-align:center;text-anchor:middle"
       id="path101451"
       inkscape:connector-curvature="0" />
    <path
       d="M 31.518478,87.113312 V 82.062531 H 29.63176 v -0.675782 h 4.539062 v 0.675782 h -1.894531 v 5.050781 z"
       style="font-family:Arial;-inkscape-font-specification:Arial;text-align:center;text-anchor:middle"
       id="path101453"
       inkscape:connector-curvature="0" />
  </g>
  <rect
     style="fill:#d0d0d0;fill-opacity:0.75294119"
     id="rect25890-0-7-1-28-6-0-2-9-8-8"
     width="36"
     height="40"
     x="4.5"
     y="320.16788"
     rx="8" />
  <g
     aria-label="OUT"
     id="text14110-5-6-8-3-8-2-5-4-5-9-6-9"
     style="font-size:8px;line-height:1.25;fill:#000000;fill-opacity:1"
     transform="translate(-0.311455)">
    <path
       d="m 14.641533,325.92172 q 0,-1.42578 0.765625,-2.23047 0.765625,-0.80859 1.976562,-0.80859 0.792969,0 1.429688,0.37891 0.636719,0.3789 0.96875,1.05859 0.335937,0.67578 0.335937,1.53516 0,0.87109 -0.351562,1.55859 -0.351563,0.6875 -0.996094,1.04297 -0.644531,0.35156 -1.390625,0.35156 -0.808594,0 -1.445312,-0.39062 -0.636719,-0.39063 -0.964844,-1.06641 -0.328125,-0.67578 -0.328125,-1.42969 z m 0.78125,0.0117 q 0,1.03516 0.554687,1.63281 0.558594,0.59375 1.398438,0.59375 0.855469,0 1.40625,-0.60156 0.554687,-0.60156 0.554687,-1.70703 0,-0.69922 -0.238281,-1.21875 -0.234375,-0.52344 -0.691406,-0.80859 -0.453125,-0.28907 -1.019531,-0.28907 -0.804688,0 -1.386719,0.55469 -0.578125,0.55078 -0.578125,1.84375 z"
       style="font-family:Arial;-inkscape-font-specification:Arial;fill:#000000;fill-opacity:1"
       id="path101456"
       inkscape:connector-curvature="0" />
    <path
       d="m 24.85247,322.98422 h 0.757813 v 3.3086 q 0,0.86328 -0.195313,1.37109 -0.195312,0.50781 -0.707031,0.82812 -0.507812,0.31641 -1.335937,0.31641 -0.804688,0 -1.316407,-0.27734 -0.511718,-0.27735 -0.730468,-0.80078 -0.21875,-0.52735 -0.21875,-1.4375 v -3.3086 h 0.757812 v 3.30469 q 0,0.74609 0.136719,1.10156 0.140625,0.35156 0.476562,0.54297 0.339844,0.19141 0.828125,0.19141 0.835938,0 1.191407,-0.37891 0.355468,-0.37891 0.355468,-1.45703 z"
       style="font-family:Arial;-inkscape-font-specification:Arial;fill:#000000;fill-opacity:1"
       id="path101458"
       inkscape:connector-curvature="0" />
    <path
       d="M 28.329033,328.71078 V 323.66 h -1.886719 v -0.67578 h 4.539063 V 323.66 h -1.894532 v 5.05078 z"
       style="font-family:Arial;-inkscape-font-specification:Arial;fill:#000000;fill-opacity:1"
       id="path101460"
       inkscape:connector-curvature="0" />
  </g>
  <path
     id="rect8523-2-4-9"
     style="fill:#44444a;stroke-width:0.0425646"
     d="m 4.5,312.07578 h 36 v 1 h -36 z"
     inkscape:connector-curvature="0" />
</svg>
