<?xml version="1.0" encoding="UTF-8" standalone="no"?>
<svg
   xmlns:dc="http://purl.org/dc/elements/1.1/"
   xmlns:cc="http://creativecommons.org/ns#"
   xmlns:rdf="http://www.w3.org/1999/02/22-rdf-syntax-ns#"
   xmlns:svg="http://www.w3.org/2000/svg"
   xmlns="http://www.w3.org/2000/svg"
   xmlns:xlink="http://www.w3.org/1999/xlink"
   xmlns:sodipodi="http://sodipodi.sourceforge.net/DTD/sodipodi-0.dtd"
   xmlns:inkscape="http://www.inkscape.org/namespaces/inkscape"
   width="120"
   height="380"
   viewBox="0 0 120 380"
   version="1.1"
   id="svg123"
   sodipodi:docname="Pulses.svg"
   inkscape:version="0.92.5 (2060ec1f9f, 2020-04-08)">
  <metadata
     id="metadata127">
    <rdf:RDF>
      <cc:Work
         rdf:about="">
        <dc:format>image/svg+xml</dc:format>
        <dc:type
           rdf:resource="http://purl.org/dc/dcmitype/StillImage" />
      </cc:Work>
    </rdf:RDF>
  </metadata>
  <sodipodi:namedview
     pagecolor="#ffffff"
     bordercolor="#666666"
     borderopacity="1"
     objecttolerance="10"
     gridtolerance="10"
     guidetolerance="10"
     inkscape:pageopacity="0"
     inkscape:pageshadow="2"
     inkscape:window-width="1920"
     inkscape:window-height="1026"
     id="namedview125"
     showgrid="false"
     inkscape:zoom="14.052817"
     inkscape:cx="82.054923"
     inkscape:cy="312.75067"
     inkscape:window-x="0"
     inkscape:window-y="0"
     inkscape:window-maximized="1"
     inkscape:current-layer="svg123"
     inkscape:pagecheckerboard="0" />
  <defs
     id="defs7">
    <linearGradient
       id="bdce50d6-b89f-47d4-9373-d598feae793c"
       x1="60"
       x2="60"
       y2="380"
       gradientUnits="userSpaceOnUse">
      <stop
         offset="0"
         stop-color="#ebebeb"
         id="stop2" />
      <stop
         offset="1"
         stop-color="#e1e1e1"
         id="stop4" />
    </linearGradient>
    <linearGradient
       inkscape:collect="always"
       id="linearGradient22215-5">
      <stop
         style="stop-color:#000000;stop-opacity:1"
         offset="0"
         id="stop22211" />
      <stop
         style="stop-color:#191928;stop-opacity:1"
         offset="1"
         id="stop22213" />
    </linearGradient>
    <linearGradient
       id="SVGID_1_"
       gradientUnits="userSpaceOnUse"
       x1="518.99988"
       y1="-5410.3999"
       x2="531.99988"
       y2="-5410.3999"
       gradientTransform="rotate(90,-2442.45,-2960.45)">
      <stop
         offset="0.00559"
         style="stop-color:#303030"
         id="stop45369" />
      <stop
         offset="1"
         style="stop-color:#222222"
         id="stop45371" />
    </linearGradient>
    <linearGradient
       id="SVGID_2_"
       gradientUnits="userSpaceOnUse"
       x1="519.68744"
       y1="-5410.3999"
       x2="531.31134"
       y2="-5410.3999"
       gradientTransform="rotate(90,-2442.45,-2960.45)">
      <stop
         offset="0.01118"
         style="stop-color:#636363"
         id="stop45376" />
      <stop
         offset="1"
         style="stop-color:#2B2B2B"
         id="stop45378" />
    </linearGradient>
    <linearGradient
       id="SVGID_3_-3"
       gradientUnits="userSpaceOnUse"
       x1="520.13452"
       y1="-5410.3999"
       x2="530.86426"
       y2="-5410.3999"
       gradientTransform="rotate(90,-2442.45,-2960.45)">
      <stop
         offset="0.01118"
         style="stop-color:#4C4C4C"
         id="stop45383-1" />
      <stop
         offset="1"
         style="stop-color:#3B3B3B"
         id="stop45385-69" />
    </linearGradient>
    <linearGradient
       id="SVGID_3_"
       gradientUnits="userSpaceOnUse"
       x1="520.13452"
       y1="-5410.3999"
       x2="530.86426"
       y2="-5410.3999"
       gradientTransform="rotate(90,-2442.45,-2960.45)">
      <stop
         offset="0.01118"
         style="stop-color:#4C4C4C"
         id="stop45383" />
      <stop
         offset="0.67017823"
         style="stop-color:#3b3b3b;stop-opacity:0"
         id="stop45385" />
    </linearGradient>
    <linearGradient
       id="linearGradient46906"
       gradientUnits="userSpaceOnUse"
       x1="520.13452"
       y1="-5410.3999"
       x2="530.86426"
       y2="-5410.3999"
       gradientTransform="rotate(90,-2442.45,-2960.45)">
      <stop
         offset="0.02846069"
         style="stop-color:#ff8c8c;stop-opacity:1"
         id="stop46902" />
      <stop
         offset="0.82481533"
         style="stop-color:#ff1515;stop-opacity:0"
         id="stop46904" />
    </linearGradient>
    <linearGradient
       id="SVGID_3_-8"
       gradientUnits="userSpaceOnUse"
       x1="520.13452"
       y1="-5410.3999"
       x2="530.86426"
       y2="-5410.3999"
       gradientTransform="rotate(90,-2442.45,-2960.45)">
      <stop
         offset="0.02846069"
         style="stop-color:#ff8c8c;stop-opacity:1"
         id="stop45383-7" />
      <stop
         offset="0.67017823"
         style="stop-color:#ff1515;stop-opacity:0"
         id="stop45385-6" />
    </linearGradient>
    <linearGradient
       inkscape:collect="always"
       xlink:href="#linearGradient22215-5"
       id="linearGradient26171-8"
       gradientUnits="userSpaceOnUse"
       x1="105"
       y1="380"
       x2="105"
       y2="0" />
    <linearGradient
       inkscape:collect="always"
       xlink:href="#linearGradient22215-5"
       id="linearGradient29208"
       gradientUnits="userSpaceOnUse"
       x1="105"
       y1="380"
       x2="105"
       y2="0" />
    <linearGradient
       inkscape:collect="always"
       xlink:href="#linearGradient22215-5"
       id="linearGradient29210"
       gradientUnits="userSpaceOnUse"
       x1="105"
       y1="380"
       x2="105"
       y2="0" />
  </defs>
  <g
     id="aadfc017-bc7c-4b4c-8e39-d82801fa3806"
     data-name="components"
     inkscape:groupmode="layer"
     style="display:none">
    <circle
       id="a4f03375-b3d9-482f-a1be-c74369bf81c6"
       data-name="Gate01#PJ301MPort"
       cx="98.387657"
       cy="64.865196"
       r="5"
       style="fill:#0000ff" />
    <circle
       id="add59a36-e480-4f1a-a56c-0170fa5bf559"
       data-name="Gat10#PJ301MPort"
       cx="98.387657"
       cy="334"
       r="5"
       style="fill:#0000ff" />
    <circle
       id="f618cd01-288f-42bb-b945-650e6eaf0bd4"
       data-name="Gate09#PJ301MPort"
       cx="98.387657"
       cy="304.0961"
       r="5"
       style="fill:#0000ff" />
    <circle
       id="ae1d2b54-59a2-45b4-969d-61bdb22984c1"
       data-name="Gate08#PJ301MPort"
       cx="98.387657"
       cy="274.1922"
       r="5"
       style="fill:#0000ff" />
    <circle
       id="f9463877-f193-466c-aa96-48c2425070de"
       data-name="Gate07#PJ301MPort"
       cx="98.387657"
       cy="244.28828"
       r="5"
       style="fill:#0000ff" />
    <circle
       id="fbcd65ad-bf9c-4c22-ac16-1c653b29e0a8"
       data-name="Gate06#PJ301MPort"
       cx="98.387657"
       cy="214.38438"
       r="5"
       style="fill:#0000ff" />
    <circle
       id="fc8ccb70-cf44-4573-a68e-92e002384bf7"
       data-name="Gate05#PJ301MPort"
       cx="98.387657"
       cy="184.48048"
       r="5"
       style="fill:#0000ff" />
    <circle
       id="a899ca9b-b178-4013-89b9-cabd17230738"
       data-name="Gate04#PJ301MPort"
       cx="98.387657"
       cy="154.57658"
       r="5"
       style="fill:#0000ff" />
    <circle
       id="abe58288-b73e-4fe5-a840-b2106b136fc8"
       data-name="Gate03#PJ301MPort"
       cx="98.387657"
       cy="124.67269"
       r="5"
       style="fill:#0000ff" />
    <circle
       id="f7cd9a37-5437-42fc-8c23-4e453c7f594a"
       data-name="Gate02#PJ301MPort"
       cx="98.387657"
       cy="94.768784"
       r="5"
       style="fill:#0000ff" />
    <circle
       id="a261c396-d364-4fd5-85e7-565c5877293d"
       data-name="Trig01#PJ301MPort"
       cx="59.980221"
       cy="64.865196"
       r="5"
       style="fill:#0000ff" />
    <circle
       id="a4d88dc8-2f62-40b5-a073-98d3f0ff178c"
       data-name="Trig10#PJ301MPort"
       cx="59.980221"
       cy="334"
       r="5"
       style="fill:#0000ff" />
    <circle
       id="b0f2ecc1-c21e-437e-bef0-81f9784eef17"
       data-name="Trig09#PJ301MPort"
       cx="59.980221"
       cy="304.0961"
       r="5"
       style="fill:#0000ff" />
    <circle
       id="f2cdba4f-df5a-413d-8254-2c083a05672e"
       data-name="Trig08#PJ301MPort"
       cx="59.980221"
       cy="274.1922"
       r="5"
       style="fill:#0000ff" />
    <circle
       id="b0e4543a-283a-4ee5-aa0a-cfbcdb2c2560"
       data-name="Trig07#PJ301MPort"
       cx="59.980221"
       cy="244.28828"
       r="5"
       style="fill:#0000ff" />
    <circle
       id="fa68b598-996b-45c4-84df-70483005b46f"
       data-name="Trig06#PJ301MPort"
       cx="59.980221"
       cy="214.38438"
       r="5"
       style="fill:#0000ff" />
    <circle
       id="e6647dc9-59ee-4223-be7b-b16bfb18d3df"
       data-name="Trig05#PJ301MPort"
       cx="59.980221"
       cy="184.48048"
       r="5"
       style="fill:#0000ff" />
    <circle
       id="f5e642f3-17c9-4067-b8c0-ed867ca02616"
       data-name="Trig04#PJ301MPort"
       cx="59.980221"
       cy="154.57658"
       r="5"
       style="fill:#0000ff" />
    <circle
       id="befa4269-2d7c-4a02-909d-40c31224ad8a"
       data-name="Trig03#PJ301MPort"
       cx="59.980221"
       cy="124.67269"
       r="5"
       style="fill:#0000ff" />
    <circle
       id="a04ec808-cc20-416c-8cc3-376ac8200d76"
       data-name="Trig02#PJ301MPort"
       cx="59.980221"
       cy="94.768784"
       r="5"
       style="fill:#0000ff" />
    <circle
       id="b4ac42b7-d402-46ad-9d0b-38dfcae73ede"
       data-name="Push01#LEDLightBezel"
       cx="21.497219"
       cy="64.865196"
       r="5"
       style="fill:#ff0000" />
    <circle
       id="e2132cfd-7ee5-4cce-acec-e9d7e093bf94"
       data-name="Push10#LEDLightBezel"
       cx="21.497219"
       cy="334"
       r="5"
       style="fill:#ff0000" />
    <circle
       id="e71e7e83-2df5-4438-b683-948dac9fbfd7"
       data-name="Push09#LEDLightBezel"
       cx="21.497219"
       cy="304.0961"
       r="5"
       style="fill:#ff0000" />
    <circle
       id="af359eeb-9349-4bfd-9915-2ea90a4e6c28"
       data-name="Push08#LEDLightBezel"
       cx="21.497219"
       cy="274.1922"
       r="5"
       style="fill:#ff0000" />
    <circle
       id="b2464ca6-efc3-4832-9d97-d1b74ea57aa1"
       data-name="Push07#LEDLightBezel"
       cx="21.497219"
       cy="244.28828"
       r="5"
       style="fill:#ff0000" />
    <circle
       id="a2a25d30-8f54-4f17-af0f-7bc666d07bff"
       data-name="Push06#LEDLightBezel"
       cx="21.497219"
       cy="214.38438"
       r="5"
       style="fill:#ff0000" />
    <circle
       id="b24c0b06-139b-4b63-b8d4-4c434c0db5e2"
       data-name="Push05#LEDLightBezel"
       cx="21.497219"
       cy="184.48048"
       r="5"
       style="fill:#ff0000" />
    <circle
       id="ac4ed106-9c6e-4900-9cf7-2c819bb878d2"
       data-name="Push04#LEDLightBezel"
       cx="21.497219"
       cy="154.57658"
       r="5"
       style="fill:#ff0000" />
    <circle
       id="b4b25169-4ca1-46c7-a819-61c163cc9ae7"
       data-name="Push03#LEDLightBezel"
       cx="21.497219"
       cy="124.67269"
       r="5"
       style="fill:#ff0000" />
    <circle
       id="f6209eb2-3b38-4460-8884-e2669fba9ce9"
       data-name="Push02#LEDLightBezel"
       cx="21.497219"
       cy="94.768784"
       r="5"
       style="fill:#ff0000" />
  </g>
  <g
     id="b3947816-d40f-41db-852f-d14f402c3ab2-9-4-9-9-3"
     data-name="FND BG"
     style="fill:url(#linearGradient29210);fill-opacity:1"
     transform="scale(1.1428571,1)">
    <rect
       width="105"
       height="380"
       fill="url(#b0234e08-fdca-44f0-b5b7-019b02f0775b)"
       id="rect9-9-5-1-2-4-7"
       style="fill:url(#linearGradient29208);fill-opacity:1"
       x="0"
       y="0" />
  </g>
  <g
     id="b3947816-d40f-41db-852f-d14f402c3ab2-9-4-9-1-7-4"
     data-name="FND BG"
     style="fill:url(#linearGradient26171-8);fill-opacity:1"
     transform="scale(1.1428571,1)">
    <path
       id="rect9-9-5-1-2-7-6-8"
       style="opacity:0.02;fill:#ffffff;fill-opacity:1;stroke-width:1.06904"
       d="M 120,17.529297 0,145.73633 v 21.63281 L 120,39.162109 Z"
       transform="scale(0.87500003,1)" />
  </g>
  <path
     id="rect18523-8-7-0-8-2"
     style="opacity:0.04;fill:#ffffff;stroke-width:0.527778"
     d="M 60.787109,0 0,64.945312 V 86.578125 L 81.03516,0 Z" />
  <path
     id="rect18523-8-8-5-8-6-8"
     style="opacity:0.07;fill:#ffffff;stroke-width:0.527778"
     d="M 15.60352,0 0,16.671875 V 38.304688 L 35.85156,0 Z" />
  <path
     id="rect8523-8-1-0-7-6-5-3"
     style="fill:#44444a;stroke-width:0.0744036"
     d="M 4.9999993,33.58757 H 115 v 1 H 4.9999993 Z"
     inkscape:connector-curvature="0" />
  <g
     aria-label="PULSES"
     id="text14110-1-2-2-5-9-2-9"
     style="font-size:16px;line-height:1.25;fill:#929090"
     transform="translate(4e-6)">
    <path
       d="M 29.46484,26.449011 V 14.995886 h 4.320312 q 1.140625,0 1.742188,0.109375 0.84375,0.140625 1.414062,0.539062 0.570313,0.390625 0.914063,1.101563 0.351562,0.710937 0.351562,1.5625 0,1.460937 -0.929687,2.476562 -0.929688,1.007813 -3.359375,1.007813 h -2.9375 v 4.65625 z m 1.515625,-6.007813 h 2.960937 q 1.46875,0 2.085938,-0.546875 0.617187,-0.546875 0.617187,-1.539062 0,-0.71875 -0.367187,-1.226563 -0.359375,-0.515625 -0.953125,-0.679687 -0.382813,-0.101563 -1.414063,-0.101563 h -2.929687 z"
       style="font-family:Arial;-inkscape-font-specification:Arial;text-align:center;text-anchor:middle"
       id="path39506"
       inkscape:connector-curvature="0" />
    <path
       d="m 47.65234,14.995886 h 1.515625 v 6.617187 q 0,1.726563 -0.390625,2.742188 -0.390625,1.015625 -1.414063,1.65625 -1.015625,0.632812 -2.671875,0.632812 -1.609375,0 -2.632812,-0.554687 -1.023438,-0.554688 -1.460938,-1.601563 -0.4375,-1.054687 -0.4375,-2.875 v -6.617187 h 1.515625 v 6.609375 q 0,1.492187 0.273438,2.203125 0.28125,0.703125 0.953125,1.085937 0.679687,0.382813 1.65625,0.382813 1.671875,0 2.382812,-0.757813 0.710938,-0.757812 0.710938,-2.914062 z"
       style="font-family:Arial;-inkscape-font-specification:Arial;text-align:center;text-anchor:middle"
       id="path39508"
       inkscape:connector-curvature="0" />
    <path
       d="M 51.628902,26.449011 V 14.995886 h 1.515625 v 10.101562 h 5.640625 v 1.351563 z"
       style="font-family:Arial;-inkscape-font-specification:Arial;text-align:center;text-anchor:middle"
       id="path39510"
       inkscape:connector-curvature="0" />
    <path
       d="m 60.074215,22.769323 1.429687,-0.125 q 0.101563,0.859375 0.46875,1.414063 0.375,0.546875 1.15625,0.890625 0.78125,0.335937 1.757813,0.335937 0.867187,0 1.53125,-0.257812 0.664062,-0.257813 0.984375,-0.703125 0.328125,-0.453125 0.328125,-0.984375 0,-0.539063 -0.3125,-0.9375 -0.3125,-0.40625 -1.03125,-0.679688 -0.460938,-0.179687 -2.039063,-0.554687 -1.578125,-0.382813 -2.210937,-0.71875 -0.820313,-0.429688 -1.226563,-1.0625 -0.398437,-0.640625 -0.398437,-1.429688 0,-0.867187 0.492187,-1.617187 0.492188,-0.757813 1.4375,-1.148438 0.945313,-0.390625 2.101563,-0.390625 1.273437,0 2.242187,0.414063 0.976563,0.40625 1.5,1.203125 0.523438,0.796875 0.5625,1.804687 l -1.453125,0.109375 q -0.117187,-1.085937 -0.796875,-1.640625 -0.671875,-0.554687 -1.992187,-0.554687 -1.375,0 -2.007813,0.507812 -0.625,0.5 -0.625,1.210938 0,0.617187 0.445313,1.015625 0.4375,0.398437 2.28125,0.820312 1.851562,0.414063 2.539062,0.726563 1,0.460937 1.476563,1.171875 0.476562,0.703125 0.476562,1.625 0,0.914062 -0.523437,1.726562 -0.523438,0.804688 -1.507813,1.257813 -0.976562,0.445312 -2.203125,0.445312 -1.554687,0 -2.609375,-0.453125 -1.046875,-0.453125 -1.648437,-1.359375 -0.59375,-0.914062 -0.625,-2.0625 z"
       style="font-family:Arial;-inkscape-font-specification:Arial;text-align:center;text-anchor:middle"
       id="path39512"
       inkscape:connector-curvature="0" />
    <path
       d="M 71.292965,26.449011 V 14.995886 h 8.28125 v 1.351562 H 72.80859 v 3.507813 h 6.335937 v 1.34375 H 72.80859 v 3.898437 h 7.03125 v 1.351563 z"
       style="font-family:Arial;-inkscape-font-specification:Arial;text-align:center;text-anchor:middle"
       id="path39514"
       inkscape:connector-curvature="0" />
    <path
       d="m 81.417965,22.769323 1.429687,-0.125 q 0.101563,0.859375 0.46875,1.414063 0.375,0.546875 1.15625,0.890625 0.78125,0.335937 1.757813,0.335937 0.867187,0 1.53125,-0.257812 0.664062,-0.257813 0.984375,-0.703125 0.328125,-0.453125 0.328125,-0.984375 0,-0.539063 -0.3125,-0.9375 -0.3125,-0.40625 -1.03125,-0.679688 -0.460938,-0.179687 -2.039063,-0.554687 -1.578125,-0.382813 -2.210937,-0.71875 -0.820313,-0.429688 -1.226563,-1.0625 -0.398437,-0.640625 -0.398437,-1.429688 0,-0.867187 0.492187,-1.617187 0.492188,-0.757813 1.4375,-1.148438 0.945313,-0.390625 2.101563,-0.390625 1.273437,0 2.242187,0.414063 0.976563,0.40625 1.5,1.203125 0.523438,0.796875 0.5625,1.804687 l -1.453125,0.109375 q -0.117187,-1.085937 -0.796875,-1.640625 -0.671875,-0.554687 -1.992187,-0.554687 -1.375,0 -2.007813,0.507812 -0.625,0.5 -0.625,1.210938 0,0.617187 0.445313,1.015625 0.4375,0.398437 2.28125,0.820312 1.851562,0.414063 2.539062,0.726563 1,0.460937 1.476563,1.171875 0.476562,0.703125 0.476562,1.625 0,0.914062 -0.523437,1.726562 -0.523438,0.804688 -1.507813,1.257813 -0.976562,0.445312 -2.203125,0.445312 -1.554687,0 -2.609375,-0.453125 -1.046875,-0.453125 -1.648437,-1.359375 -0.59375,-0.914062 -0.625,-2.0625 z"
       style="font-family:Arial;-inkscape-font-specification:Arial;text-align:center;text-anchor:middle"
       id="path39516"
       inkscape:connector-curvature="0" />
  </g>
  <g
     aria-label="OUT"
     id="text14110-5-6-8-3-8-5-5-9-3-1-1"
     style="font-size:8px;line-height:1.25;fill:#929090"
     transform="translate(31.289778,-85.111416)">
    <path
       d="m 57.2033,129.51981 q 0,-1.42579 0.765625,-2.23047 0.765625,-0.8086 1.976563,-0.8086 0.792969,0 1.429687,0.37891 0.636719,0.37891 0.96875,1.05859 0.335938,0.67578 0.335938,1.53516 0,0.87109 -0.351563,1.55859 -0.351562,0.6875 -0.996093,1.04297 -0.644532,0.35156 -1.390625,0.35156 -0.808594,0 -1.445313,-0.39062 -0.636719,-0.39063 -0.964844,-1.06641 -0.328125,-0.67578 -0.328125,-1.42968 z m 0.78125,0.0117 q 0,1.03516 0.554688,1.63282 0.558594,0.59375 1.398437,0.59375 0.855469,0 1.40625,-0.60157 0.554688,-0.60156 0.554688,-1.70703 0,-0.69922 -0.238281,-1.21875 -0.234375,-0.52343 -0.691407,-0.80859 -0.453125,-0.28906 -1.019531,-0.28906 -0.804687,0 -1.386719,0.55468 -0.578125,0.55079 -0.578125,1.84375 z"
       style="font-family:Arial;-inkscape-font-specification:Arial;text-align:end;text-anchor:end"
       id="path46038-1-8"
       inkscape:connector-curvature="0" />
    <path
       d="m 67.414238,126.58231 h 0.757812 v 3.30859 q 0,0.86328 -0.195312,1.37109 -0.195313,0.50782 -0.707031,0.82813 -0.507813,0.3164 -1.335938,0.3164 -0.804687,0 -1.316406,-0.27734 -0.511719,-0.27734 -0.730469,-0.80078 -0.21875,-0.52734 -0.21875,-1.4375 v -3.30859 h 0.757813 v 3.30468 q 0,0.7461 0.136718,1.10157 0.140625,0.35156 0.476563,0.54296 0.339844,0.19141 0.828125,0.19141 0.835937,0 1.191406,-0.37891 0.355469,-0.3789 0.355469,-1.45703 z"
       style="font-family:Arial;-inkscape-font-specification:Arial;text-align:end;text-anchor:end"
       id="path46040-4-4"
       inkscape:connector-curvature="0" />
    <path
       d="m 70.8908,132.30887 v -5.05078 h -1.886718 v -0.67578 h 4.539062 v 0.67578 h -1.894531 v 5.05078 z"
       style="font-family:Arial;-inkscape-font-specification:Arial;text-align:end;text-anchor:end"
       id="path46042-7-3"
       inkscape:connector-curvature="0" />
  </g>
  <g
     aria-label="PUSH"
     id="text14110-5-6-7-9-6-3-9-8-6-1-0-1-8"
     style="font-size:8px;line-height:1.25;fill:#929090"
     transform="translate(2.8856066)">
    <path
       d="M 9.9578934,47.095886 V 41.369324 H 12.11805 q 0.570312,0 0.871093,0.05469 0.421875,0.07031 0.707032,0.269531 0.285156,0.195313 0.457031,0.550782 0.175781,0.355468 0.175781,0.78125 0,0.730468 -0.464844,1.238281 -0.464843,0.503906 -1.679687,0.503906 h -1.46875 v 2.328125 z M 10.715706,44.09198 h 1.480469 q 0.734375,0 1.042968,-0.273438 0.308594,-0.273437 0.308594,-0.769531 0,-0.359375 -0.183594,-0.613281 -0.179687,-0.257813 -0.476562,-0.339844 -0.191406,-0.05078 -0.707031,-0.05078 h -1.464844 z"
       style="font-family:Arial;-inkscape-font-specification:Arial;text-align:center;text-anchor:middle"
       id="path39519"
       inkscape:connector-curvature="0" />
    <path
       d="m 19.051643,41.369324 h 0.757813 v 3.308593 q 0,0.863282 -0.195313,1.371094 -0.195312,0.507813 -0.707031,0.828125 -0.507812,0.316406 -1.335937,0.316406 -0.804688,0 -1.316407,-0.277343 -0.511718,-0.277344 -0.730468,-0.800782 -0.21875,-0.527343 -0.21875,-1.4375 v -3.308593 h 0.757812 v 3.304687 q 0,0.746094 0.136719,1.101563 0.140625,0.351562 0.476562,0.542968 0.339844,0.191407 0.828125,0.191407 0.835938,0 1.191407,-0.378907 0.355468,-0.378906 0.355468,-1.457031 z"
       style="font-family:Arial;-inkscape-font-specification:Arial;text-align:center;text-anchor:middle"
       id="path39521"
       inkscape:connector-curvature="0" />
    <path
       d="m 20.813362,45.256042 0.714844,-0.0625 q 0.05078,0.429688 0.234375,0.707032 0.1875,0.273437 0.578125,0.445312 0.390625,0.167969 0.878906,0.167969 0.433594,0 0.765625,-0.128906 0.332031,-0.128907 0.492188,-0.351563 0.164062,-0.226562 0.164062,-0.492187 0,-0.269532 -0.15625,-0.46875 -0.15625,-0.203125 -0.515625,-0.339844 -0.230469,-0.08984 -1.019531,-0.277344 -0.789063,-0.191406 -1.105469,-0.359375 -0.410156,-0.214844 -0.613281,-0.53125 -0.199219,-0.320312 -0.199219,-0.714844 0,-0.433593 0.246094,-0.808593 0.246094,-0.378907 0.71875,-0.574219 0.472656,-0.195313 1.050781,-0.195313 0.636719,0 1.121094,0.207032 0.488281,0.203125 0.75,0.601562 0.261719,0.398438 0.28125,0.902344 l -0.726563,0.05469 q -0.05859,-0.542968 -0.398437,-0.820312 -0.335938,-0.277344 -0.996094,-0.277344 -0.6875,0 -1.003906,0.253906 -0.3125,0.25 -0.3125,0.605469 0,0.308594 0.222656,0.507813 0.21875,0.199218 1.140625,0.410156 0.925781,0.207031 1.269531,0.363281 0.5,0.230469 0.738282,0.585938 0.238281,0.351562 0.238281,0.8125 0,0.457031 -0.261719,0.863281 -0.261719,0.402344 -0.753906,0.628906 -0.488281,0.222656 -1.101563,0.222656 -0.777343,0 -1.304687,-0.226562 -0.523438,-0.226563 -0.824219,-0.679688 -0.296875,-0.457031 -0.3125,-1.03125 z"
       style="font-family:Arial;-inkscape-font-specification:Arial;text-align:center;text-anchor:middle"
       id="path39523"
       inkscape:connector-curvature="0" />
    <path
       d="m 26.43055,47.095886 v -5.726562 h 0.757812 v 2.351562 h 2.976563 v -2.351562 h 0.757812 v 5.726562 h -0.757812 v -2.699219 h -2.976563 v 2.699219 z"
       style="font-family:Arial;-inkscape-font-specification:Arial;text-align:center;text-anchor:middle"
       id="path39525"
       inkscape:connector-curvature="0" />
  </g>
  <g
     aria-label="TRIG"
     id="text14110-5-6-7-9-6-3-9-8-6-1-0-1-8-1"
     style="font-size:8px;line-height:1.25;fill:#929090"
     transform="translate(-1.3168105)">
    <path
       d="m 53.992592,47.095886 v -5.050781 h -1.886719 v -0.675781 h 4.539063 v 0.675781 h -1.894532 v 5.050781 z"
       style="font-family:Arial;-inkscape-font-specification:Arial;text-align:center;text-anchor:middle"
       id="path39528"
       inkscape:connector-curvature="0" />
    <path
       d="m 57.433998,47.095886 v -5.726562 h 2.539063 q 0.765625,0 1.164062,0.15625 0.398438,0.152343 0.636719,0.542968 0.238281,0.390625 0.238281,0.863282 0,0.609375 -0.394531,1.027343 -0.394531,0.417969 -1.21875,0.53125 0.300781,0.144532 0.457031,0.285157 0.332031,0.304687 0.628906,0.761718 l 0.996094,1.558594 H 61.527748 L 60.769936,45.90448 q -0.332032,-0.515625 -0.546875,-0.789063 -0.214844,-0.273437 -0.386719,-0.382812 -0.167969,-0.109375 -0.34375,-0.152344 -0.128906,-0.02734 -0.421875,-0.02734 h -0.878906 v 2.542969 z m 0.757813,-3.199219 h 1.628906 q 0.519531,0 0.8125,-0.105468 0.292969,-0.109375 0.445312,-0.34375 0.152344,-0.238282 0.152344,-0.515625 0,-0.40625 -0.296875,-0.667969 -0.292969,-0.261719 -0.929687,-0.261719 h -1.8125 z"
       style="font-family:Arial;-inkscape-font-specification:Arial;text-align:center;text-anchor:middle"
       id="path39530"
       inkscape:connector-curvature="0" />
    <path
       d="m 63.328529,47.095886 v -5.726562 h 0.757813 v 5.726562 z"
       style="font-family:Arial;-inkscape-font-specification:Arial;text-align:center;text-anchor:middle"
       id="path39532"
       inkscape:connector-curvature="0" />
    <path
       d="m 68.101967,44.849792 v -0.671875 l 2.425781,-0.0039 v 2.125 q -0.558594,0.445313 -1.152344,0.671875 -0.59375,0.222656 -1.21875,0.222656 -0.84375,0 -1.535156,-0.359375 -0.6875,-0.363281 -1.039062,-1.046875 -0.351563,-0.683593 -0.351563,-1.527343 0,-0.835938 0.347656,-1.558594 0.351563,-0.726563 1.007813,-1.078125 0.65625,-0.351563 1.511719,-0.351563 0.621093,0 1.121093,0.203125 0.503907,0.199219 0.789063,0.558594 0.285156,0.359375 0.433594,0.9375 l -0.683594,0.1875 q -0.128906,-0.4375 -0.320313,-0.6875 -0.191406,-0.25 -0.546875,-0.398437 -0.355468,-0.152344 -0.789062,-0.152344 -0.519531,0 -0.898438,0.160156 -0.378906,0.15625 -0.613281,0.414063 -0.230469,0.257812 -0.359375,0.566406 -0.21875,0.53125 -0.21875,1.152344 0,0.765625 0.261719,1.28125 0.265625,0.515625 0.769531,0.765625 0.503906,0.25 1.070313,0.25 0.492187,0 0.960937,-0.1875 0.46875,-0.191407 0.710938,-0.40625 v -1.066407 z"
       style="font-family:Arial;-inkscape-font-specification:Arial;text-align:center;text-anchor:middle"
       id="path39534"
       inkscape:connector-curvature="0" />
  </g>
  <path
     id="rect25890-0-7-1-0-1-4-6-9-4-5"
     style="fill:#d0d0d0;fill-opacity:0.75294118;stroke-width:0.99671751"
     d="m 88.663,51.758454 h 16 c 4.432,0 8,3.544614 8,7.947566 v 286.11239 c 0,4.40294 -3.568,7.94756 -8,7.94756 h -16 c -4.432,0 -8,-3.54462 -8,-7.94756 V 59.70602 c 0,-4.402952 3.568,-7.947566 8,-7.947566 z"
     sodipodi:nodetypes="sssssssss"
     inkscape:connector-curvature="0" />
  <path
     id="rect25890-0-7-1-0-1-4-6-9-4-5-0"
     style="fill:#d0d0d0;fill-opacity:0.75294118;stroke-width:0.99671751"
     d="m 52,51.758454 h 16 c 4.432,0 8,3.544614 8,7.947566 v 286.11239 c 0,4.40294 -3.568,7.94756 -8,7.94756 H 52 c -4.432,0 -8,-3.54462 -8,-7.94756 V 59.70602 c 0,-4.402952 3.568,-7.947566 8,-7.947566 z"
     sodipodi:nodetypes="sssssssss"
     inkscape:connector-curvature="0" />
</svg>
