<?xml version="1.0" encoding="UTF-8" standalone="no"?>
<svg
   xmlns:dc="http://purl.org/dc/elements/1.1/"
   xmlns:cc="http://creativecommons.org/ns#"
   xmlns:rdf="http://www.w3.org/1999/02/22-rdf-syntax-ns#"
   xmlns:svg="http://www.w3.org/2000/svg"
   xmlns="http://www.w3.org/2000/svg"
   xmlns:xlink="http://www.w3.org/1999/xlink"
   xmlns:sodipodi="http://sodipodi.sourceforge.net/DTD/sodipodi-0.dtd"
   xmlns:inkscape="http://www.inkscape.org/namespaces/inkscape"
   width="195"
   height="380"
   viewBox="0 0 195 380"
   version="1.1"
   id="svg239"
   sodipodi:docname="Scope.svg"
   inkscape:version="0.92.5 (2060ec1f9f, 2020-04-08)">
  <metadata
     id="metadata243">
    <rdf:RDF>
      <cc:Work
         rdf:about="">
        <dc:format>image/svg+xml</dc:format>
        <dc:type
           rdf:resource="http://purl.org/dc/dcmitype/StillImage" />
      </cc:Work>
    </rdf:RDF>
  </metadata>
  <sodipodi:namedview
     pagecolor="#ffffff"
     bordercolor="#666666"
     borderopacity="1"
     objecttolerance="10"
     gridtolerance="10"
     guidetolerance="10"
     inkscape:pageopacity="0"
     inkscape:pageshadow="2"
     inkscape:window-width="1920"
     inkscape:window-height="1026"
     id="namedview241"
     showgrid="false"
     inkscape:zoom="2.4842106"
     inkscape:cx="56.982636"
     inkscape:cy="25.935416"
     inkscape:window-x="1920"
     inkscape:window-y="0"
     inkscape:window-maximized="1"
     inkscape:current-layer="g1005"
     inkscape:pagecheckerboard="0" />
  <defs
     id="defs7">
    <linearGradient
       id="b7084a32-89ea-4051-9fd3-02ae7ae97585"
       x1="97.50002"
       x2="97.50002"
       y2="380"
       gradientUnits="userSpaceOnUse">
      <stop
         offset="0"
         stop-color="#ebebeb"
         id="stop2" />
      <stop
         offset="1"
         stop-color="#e1e1e1"
         id="stop4" />
    </linearGradient>
    <linearGradient
       inkscape:collect="always"
       xlink:href="#linearGradient22215-5"
       id="linearGradient22217"
       x1="105"
       y1="380"
       x2="105"
       y2="0"
       gradientUnits="userSpaceOnUse" />
    <linearGradient
       inkscape:collect="always"
       id="linearGradient22215-5">
      <stop
         style="stop-color:#000000;stop-opacity:1"
         offset="0"
         id="stop22211" />
      <stop
         style="stop-color:#191928;stop-opacity:1"
         offset="1"
         id="stop22213" />
    </linearGradient>
    <linearGradient
       inkscape:collect="always"
       xlink:href="#linearGradient22215-5"
       id="linearGradient33073"
       gradientUnits="userSpaceOnUse"
       x1="105"
       y1="380"
       x2="105"
       y2="0" />
    <linearGradient
       id="SVGID_3_"
       gradientUnits="userSpaceOnUse"
       x1="520.13452"
       y1="-5410.3999"
       x2="530.86426"
       y2="-5410.3999"
       gradientTransform="rotate(90,-2442.45,-2960.45)">
      <stop
         offset="0.01118"
         style="stop-color:#4C4C4C"
         id="stop45383" />
      <stop
         offset="0.67017823"
         style="stop-color:#3b3b3b;stop-opacity:0"
         id="stop45385" />
    </linearGradient>
    <linearGradient
       id="linearGradient46906"
       gradientUnits="userSpaceOnUse"
       x1="520.13452"
       y1="-5410.3999"
       x2="530.86426"
       y2="-5410.3999"
       gradientTransform="rotate(90,-2442.45,-2960.45)">
      <stop
         offset="0.02846069"
         style="stop-color:#ff8c8c;stop-opacity:1"
         id="stop46902" />
      <stop
         offset="0.82481533"
         style="stop-color:#ff1515;stop-opacity:0"
         id="stop46904" />
    </linearGradient>
    <linearGradient
       id="SVGID_3_-8"
       gradientUnits="userSpaceOnUse"
       x1="520.13452"
       y1="-5410.3999"
       x2="530.86426"
       y2="-5410.3999"
       gradientTransform="rotate(90,-2442.45,-2960.45)">
      <stop
         offset="0.02846069"
         style="stop-color:#ff8c8c;stop-opacity:1"
         id="stop45383-7" />
      <stop
         offset="0.67017823"
         style="stop-color:#ff1515;stop-opacity:0"
         id="stop45385-6" />
    </linearGradient>
    <linearGradient
       id="SVGID_1_"
       gradientUnits="userSpaceOnUse"
       x1="518.99988"
       y1="-5410.3999"
       x2="531.99988"
       y2="-5410.3999"
       gradientTransform="rotate(90,-2442.45,-2960.45)">
      <stop
         offset="0.00559"
         style="stop-color:#303030"
         id="stop45369" />
      <stop
         offset="1"
         style="stop-color:#222222"
         id="stop45371" />
    </linearGradient>
    <linearGradient
       id="SVGID_2_"
       gradientUnits="userSpaceOnUse"
       x1="519.68744"
       y1="-5410.3999"
       x2="531.31134"
       y2="-5410.3999"
       gradientTransform="rotate(90,-2442.45,-2960.45)">
      <stop
         offset="0.01118"
         style="stop-color:#636363"
         id="stop45376" />
      <stop
         offset="1"
         style="stop-color:#2B2B2B"
         id="stop45378" />
    </linearGradient>
    <linearGradient
       id="SVGID_3_-3"
       gradientUnits="userSpaceOnUse"
       x1="520.13452"
       y1="-5410.3999"
       x2="530.86426"
       y2="-5410.3999"
       gradientTransform="rotate(90,-2442.45,-2960.45)">
      <stop
         offset="0.01118"
         style="stop-color:#4C4C4C"
         id="stop45383-1" />
      <stop
         offset="1"
         style="stop-color:#3B3B3B"
         id="stop45385-69" />
    </linearGradient>
  </defs>
  <g
     id="b3947816-d40f-41db-852f-d14f402c3ab2"
     data-name="FND BG"
     style="fill:url(#linearGradient22217);fill-opacity:1"
     transform="scale(1.8571429,1)">
    <rect
       width="105"
       height="380"
       id="rect9-9"
       style="fill:url(#linearGradient33073);fill-opacity:1"
       x="0"
       y="0" />
  </g>
  <rect
     style="opacity:0.02;fill:#ffffff;stroke-width:0.638454"
     id="rect18523"
     width="228.8811"
     height="23.000626"
     x="2.8938084e-07"
     y="145.73592"
     transform="matrix(0.68335061,-0.73009036,0,1,0,0)" />
  <path
     id="rect18523-8"
     style="opacity:0.04;fill:#ffffff;stroke-width:0.527778"
     d="M 61.704283,1.4006569 0.9171744,66.345969 V 87.978782 L 81.95233,1.4006569 Z" />
  <path
     id="rect18523-8-8"
     style="opacity:0.07;fill:#ffffff;stroke-width:0.527778"
     d="M 16.520694,1.4006569 0.9171744,18.072532 V 39.705345 L 36.768736,1.4006569 Z" />
  <g
     id="b1950596-670b-4466-898f-d443ae332145"
     data-name="components"
     inkscape:groupmode="layer"
     style="display:none">
    <circle
       id="b021da4b-0fe8-4f1e-b32d-9e773df7a5e4"
       data-name="1x2#LEDButton"
       cx="25.521191"
       cy="238"
       r="5"
       style="fill:#ff0000" />
    <circle
       id="f46b8a42-c463-489b-805b-fbe2a1576bce"
       data-name="Trig#LEDButton"
       cx="169.47881"
       cy="237.75993"
       r="5"
       style="fill:#ff0000" />
    <circle
       id="b6107851-233c-454f-b435-4825b228afd5"
       data-name="In1#PJ301MPort"
       cx="25.521191"
       cy="334"
       r="5"
       style="fill:#00ff00" />
    <circle
       id="e1c8f715-a579-4785-b3bc-4ce088c7be9e"
       data-name="Trig#PJ301MPort"
       cx="169.47881"
       cy="334"
       r="5"
       style="fill:#00ff00" />
    <circle
       id="ed578b6f-7e3c-4b50-85b1-604681a2f39e"
       data-name="Out2#PJ301MPort"
       cx="133.50073"
       cy="334"
       r="5"
       style="fill:#0000ff" />
    <circle
       id="b3b89114-537e-4df6-9608-ee818c8b7742"
       data-name="In2#PJ301MPort"
       cx="97.507553"
       cy="334"
       r="5"
       style="fill:#00ff00" />
    <circle
       id="a8fe9c8d-13ee-4090-a75f-7c992ddf15f2"
       data-name="Out1#PJ301MPort"
       cx="61.51437"
       cy="334"
       r="5"
       style="fill:#0000ff" />
    <circle
       id="bfcd5dca-3188-4901-91c1-93258e888f7e"
       data-name="Ofst2#RoundBlackKnob"
       cx="121.49648"
       cy="285.87146"
       r="5"
       style="fill:#ff0000" />
    <circle
       id="e88686ae-5b33-4183-b27d-2e9e655e5bc8"
       data-name="Time#RoundBlackKnob"
       cx="25.521191"
       cy="285.88263"
       r="5"
       style="fill:#ff0000" />
    <circle
       id="b7cebf3e-0520-412a-9c27-5920e30994e0"
       data-name="Ofst1#RoundBlackKnob"
       cx="73.515839"
       cy="285.79443"
       r="5"
       style="fill:#ff0000" />
    <circle
       id="a60159ac-1f78-454c-bfed-737ee7e4a0fc"
       data-name="Gain2#RoundBlackKnob"
       cx="121.49648"
       cy="237.84641"
       r="5"
       style="fill:#ff0000" />
    <circle
       id="a66a76d3-ef14-4827-8a1d-ad97abf66302"
       data-name="Gain1#RoundBlackKnob"
       cx="73.515839"
       cy="237.84641"
       r="5"
       style="fill:#ff0000" />
    <circle
       id="ac97f6fd-53ce-44fc-93d6-5d500818a3cb"
       data-name="Thers#RoundBlackKnob"
       cx="169.47881"
       cy="285.87146"
       r="5"
       style="fill:#ff0000" />
    <rect
       id="f07b4a9d-18ee-4999-88d5-97c10d878f46"
       data-name="Screen"
       x="3.9999999e-005"
       y="38.5"
       width="194.99995"
       height="165"
       style="fill:#ffff00" />
  </g>
  <rect
     style="fill:#44444a;fill-opacity:1;stroke-width:0.09622877"
     id="rect8523-8-1-4"
     width="184"
     height="1"
     x="5.5"
     y="33.58757" />
  <g
     aria-label="SCOPE"
     id="text14110-1-2-3"
     style="font-size:16px;line-height:1.25;fill:#929090">
    <path
       d="m 70.28125,22.769321 1.429687,-0.125 q 0.101563,0.859375 0.46875,1.414063 0.375,0.546875 1.15625,0.890625 0.78125,0.335937 1.757813,0.335937 0.867187,0 1.53125,-0.257812 0.664062,-0.257813 0.984375,-0.703125 0.328125,-0.453125 0.328125,-0.984375 0,-0.539063 -0.3125,-0.9375 -0.3125,-0.40625 -1.03125,-0.679688 -0.460938,-0.179687 -2.039063,-0.554687 -1.578125,-0.382813 -2.210937,-0.71875 -0.820313,-0.429688 -1.226563,-1.0625 -0.398437,-0.640625 -0.398437,-1.429688 0,-0.867187 0.492187,-1.617187 0.492188,-0.757813 1.4375,-1.148438 0.945313,-0.390625 2.101563,-0.390625 1.273437,0 2.242187,0.414063 0.976563,0.40625 1.5,1.203125 0.523438,0.796875 0.5625,1.804687 l -1.453125,0.109375 q -0.117187,-1.085937 -0.796875,-1.640625 -0.671875,-0.554687 -1.992187,-0.554687 -1.375,0 -2.007813,0.507812 -0.625,0.5 -0.625,1.210938 0,0.617187 0.445313,1.015625 0.4375,0.398437 2.28125,0.820312 1.851562,0.414063 2.539062,0.726563 1,0.460937 1.476563,1.171875 0.476562,0.703125 0.476562,1.625 0,0.914062 -0.523437,1.726562 -0.523438,0.804688 -1.507813,1.257813 -0.976562,0.445312 -2.203125,0.445312 -1.554687,0 -2.609375,-0.453125 -1.046875,-0.453125 -1.648437,-1.359375 -0.59375,-0.914062 -0.625,-2.0625 z"
       style="font-family:Arial;-inkscape-font-specification:Arial"
       id="path59104"
       inkscape:connector-curvature="0" />
    <path
       d="m 89.640625,22.433384 1.515625,0.382812 q -0.476563,1.867188 -1.71875,2.851563 -1.234375,0.976562 -3.023438,0.976562 -1.851562,0 -3.015625,-0.75 -1.15625,-0.757812 -1.765625,-2.1875 -0.601562,-1.429687 -0.601562,-3.070312 0,-1.789063 0.679687,-3.117188 0.6875,-1.335937 1.945313,-2.023437 1.265625,-0.695313 2.78125,-0.695313 1.71875,0 2.890625,0.875 1.171875,0.875 1.632812,2.460938 l -1.492187,0.351562 q -0.398438,-1.25 -1.15625,-1.820312 -0.757813,-0.570313 -1.90625,-0.570313 -1.320313,0 -2.210938,0.632813 -0.882812,0.632812 -1.242187,1.703125 -0.359375,1.0625 -0.359375,2.195312 0,1.460938 0.421875,2.554688 0.429687,1.085937 1.328125,1.625 0.898437,0.539062 1.945312,0.539062 1.273438,0 2.15625,-0.734375 0.882813,-0.734375 1.195313,-2.179687 z"
       style="font-family:Arial;-inkscape-font-specification:Arial"
       id="path59106"
       inkscape:connector-curvature="0" />
    <path
       d="m 92.5625,20.870884 q 0,-2.851563 1.53125,-4.460938 1.53125,-1.617187 3.953125,-1.617187 1.585937,0 2.859375,0.757812 1.27344,0.757813 1.9375,2.117188 0.67188,1.351562 0.67188,3.070312 0,1.742188 -0.70313,3.117188 -0.70312,1.375 -1.99219,2.085937 -1.28906,0.703125 -2.781248,0.703125 -1.617187,0 -2.890625,-0.78125 Q 93.875,25.081821 93.21875,23.730259 92.5625,22.378696 92.5625,20.870884 Z m 1.5625,0.02344 q 0,2.070313 1.109375,3.265625 1.117187,1.1875 2.796875,1.1875 1.710937,0 2.8125,-1.203125 1.10938,-1.203125 1.10938,-3.414062 0,-1.398438 -0.47657,-2.4375 -0.46875,-1.046875 -1.38281,-1.617188 -0.90625,-0.578125 -2.039063,-0.578125 -1.609375,0 -2.773437,1.109375 -1.15625,1.101563 -1.15625,3.6875 z"
       style="font-family:Arial;-inkscape-font-specification:Arial"
       id="path59108"
       inkscape:connector-curvature="0" />
    <path
       d="M 105.46875,26.449009 V 14.995884 h 4.32031 q 1.14063,0 1.74219,0.109375 0.84375,0.140625 1.41406,0.539062 0.57032,0.390625 0.91407,1.101563 0.35156,0.710937 0.35156,1.5625 0,1.460937 -0.92969,2.476562 -0.92969,1.007813 -3.35937,1.007813 h -2.9375 v 4.65625 z m 1.51563,-6.007813 h 2.96093 q 1.46875,0 2.08594,-0.546875 0.61719,-0.546875 0.61719,-1.539062 0,-0.71875 -0.36719,-1.226563 -0.35937,-0.515625 -0.95312,-0.679687 -0.38282,-0.101563 -1.41407,-0.101563 h -2.92968 z"
       style="font-family:Arial;-inkscape-font-specification:Arial"
       id="path59110"
       inkscape:connector-curvature="0" />
    <path
       d="M 116.17188,26.449009 V 14.995884 h 8.28125 v 1.351562 h -6.76563 v 3.507813 h 6.33594 v 1.34375 h -6.33594 v 3.898437 h 7.03125 v 1.351563 z"
       style="font-family:Arial;-inkscape-font-specification:Arial"
       id="path59112"
       inkscape:connector-curvature="0" />
  </g>
  <g
     id="g997"
     transform="translate(-23.125)">
    <g
       transform="translate(26.507809)"
       id="g969">
      <rect
         style="fill:#d0d0d0;fill-opacity:0.75294118"
         id="rect25890-0-8-4"
         width="36"
         height="40"
         x="52.992191"
         y="320.16788"
         rx="8" />
      <g
         aria-label="OUT 1"
         id="text14110-5-6-8-4-3"
         style="font-size:8px;line-height:1.25;fill:#000000;fill-opacity:1">
        <path
           d="m 60.582035,325.92172 q 0,-1.42578 0.765625,-2.23047 0.765625,-0.80859 1.976563,-0.80859 0.792968,0 1.429687,0.37891 0.636719,0.3789 0.96875,1.05859 0.335938,0.67578 0.335938,1.53516 0,0.87109 -0.351563,1.55859 -0.351562,0.6875 -0.996094,1.04297 -0.644531,0.35156 -1.390625,0.35156 -0.808593,0 -1.445312,-0.39062 -0.636719,-0.39063 -0.964844,-1.06641 -0.328125,-0.67578 -0.328125,-1.42969 z m 0.78125,0.0117 q 0,1.03516 0.554688,1.63281 0.558593,0.59375 1.398437,0.59375 0.855469,0 1.40625,-0.60156 0.554688,-0.60156 0.554688,-1.70703 0,-0.69922 -0.238282,-1.21875 -0.234375,-0.52344 -0.691406,-0.80859 -0.453125,-0.28907 -1.019531,-0.28907 -0.804688,0 -1.386719,0.55469 -0.578125,0.55078 -0.578125,1.84375 z"
           style="font-family:Arial;-inkscape-font-specification:Arial;fill:#000000;fill-opacity:1"
           id="path59220"
           inkscape:connector-curvature="0" />
        <path
           d="m 70.792973,322.98422 h 0.757812 v 3.3086 q 0,0.86328 -0.195312,1.37109 -0.195313,0.50781 -0.707032,0.82812 -0.507812,0.31641 -1.335937,0.31641 -0.804688,0 -1.316406,-0.27734 -0.511719,-0.27735 -0.730469,-0.80078 -0.21875,-0.52735 -0.21875,-1.4375 v -3.3086 h 0.757812 v 3.30469 q 0,0.74609 0.136719,1.10156 0.140625,0.35156 0.476563,0.54297 0.339843,0.19141 0.828125,0.19141 0.835937,0 1.191406,-0.37891 0.355469,-0.37891 0.355469,-1.45703 z"
           style="font-family:Arial;-inkscape-font-specification:Arial;fill:#000000;fill-opacity:1"
           id="path59222"
           inkscape:connector-curvature="0" />
        <path
           d="M 74.269535,328.71078 V 323.66 h -1.886719 v -0.67578 h 4.539063 V 323.66 h -1.894531 v 5.05078 z"
           style="font-family:Arial;-inkscape-font-specification:Arial;fill:#000000;fill-opacity:1"
           id="path59224"
           inkscape:connector-curvature="0" />
        <path
           d="m 82.140629,328.71078 h -0.703125 v -4.48046 q -0.253906,0.24218 -0.667969,0.48437 -0.410156,0.24219 -0.738281,0.36328 v -0.67969 q 0.589844,-0.27734 1.03125,-0.67187 0.441406,-0.39453 0.625,-0.76563 h 0.453125 z"
           style="font-family:Arial;-inkscape-font-specification:Arial;fill:#000000;fill-opacity:1"
           id="path59226"
           inkscape:connector-curvature="0" />
      </g>
    </g>
    <g
       transform="translate(26.507812)"
       style="font-size:8px;line-height:1.25;fill:#929090"
       id="text14110-5-6-8-3-5"
       aria-label="IN1">
      <path
         inkscape:connector-curvature="0"
         id="path59135"
         style="font-family:Arial;-inkscape-font-specification:Arial"
         d="m 65.875,196.71078 v -5.72656 h 0.757812 v 5.72656 z" />
      <path
         inkscape:connector-curvature="0"
         id="path59137"
         style="font-family:Arial;-inkscape-font-specification:Arial"
         d="m 67.960937,196.71078 v -5.72656 h 0.777344 l 3.007813,4.4961 v -4.4961 h 0.726562 v 5.72656 h -0.777344 l -3.007812,-4.5 v 4.5 z" />
      <path
         inkscape:connector-curvature="0"
         id="path59139"
         style="font-family:Arial;-inkscape-font-specification:Arial"
         d="M 76.109375,196.71078 H 75.40625 v -4.48046 q -0.253906,0.24218 -0.667969,0.48437 Q 74.328125,192.95688 74,193.07797 v -0.67969 q 0.589844,-0.27734 1.03125,-0.67187 0.441406,-0.39453 0.625,-0.76563 h 0.453125 z" />
    </g>
    <g
       transform="translate(26.507812)"
       style="font-size:8px;line-height:1.25;fill:#929090"
       id="text14110-5-6-8-3-5-7"
       aria-label="GAIN1">
      <path
         inkscape:connector-curvature="0"
         id="path59151"
         style="font-family:Arial;-inkscape-font-specification:Arial"
         d="m 62.806641,234.46469 v -0.67187 l 2.425781,-0.004 v 2.125 q -0.558594,0.44531 -1.152344,0.67187 -0.59375,0.22266 -1.21875,0.22266 -0.84375,0 -1.535156,-0.35937 -0.6875,-0.36329 -1.039063,-1.04688 -0.351562,-0.68359 -0.351562,-1.52734 0,-0.83594 0.347656,-1.5586 0.351563,-0.72656 1.007813,-1.07812 0.65625,-0.35156 1.511718,-0.35156 0.621094,0 1.121094,0.20312 0.503906,0.19922 0.789063,0.55859 0.285156,0.35938 0.433593,0.9375 l -0.683593,0.1875 q -0.128907,-0.4375 -0.320313,-0.6875 -0.191406,-0.25 -0.546875,-0.39843 -0.355469,-0.15235 -0.789062,-0.15235 -0.519532,0 -0.898438,0.16016 -0.378906,0.15625 -0.613281,0.41406 -0.230469,0.25781 -0.359375,0.56641 -0.21875,0.53125 -0.21875,1.15234 0,0.76563 0.261719,1.28125 0.265625,0.51563 0.769531,0.76563 0.503906,0.25 1.070312,0.25 0.492188,0 0.960938,-0.1875 0.46875,-0.19141 0.710937,-0.40625 v -1.06641 z" />
      <path
         inkscape:connector-curvature="0"
         id="path59153"
         style="font-family:Arial;-inkscape-font-specification:Arial"
         d="m 65.720703,236.71078 2.199219,-5.72656 h 0.816406 l 2.34375,5.72656 h -0.863281 l -0.667969,-1.73437 h -2.394531 l -0.628906,1.73437 z m 1.652344,-2.35156 h 1.941406 l -0.597656,-1.58594 q -0.273438,-0.72265 -0.40625,-1.1875 -0.109375,0.55079 -0.308594,1.09375 z" />
      <path
         inkscape:connector-curvature="0"
         id="path59155"
         style="font-family:Arial;-inkscape-font-specification:Arial"
         d="m 71.814453,236.71078 v -5.72656 h 0.757813 v 5.72656 z" />
      <path
         inkscape:connector-curvature="0"
         id="path59157"
         style="font-family:Arial;-inkscape-font-specification:Arial"
         d="m 73.900391,236.71078 v -5.72656 h 0.777343 l 3.007813,4.4961 v -4.4961 h 0.726562 v 5.72656 h -0.777343 l -3.007813,-4.5 v 4.5 z" />
      <path
         inkscape:connector-curvature="0"
         id="path59159"
         style="font-family:Arial;-inkscape-font-specification:Arial"
         d="m 82.048828,236.71078 h -0.703125 v -4.48046 q -0.253906,0.24218 -0.667969,0.48437 -0.410156,0.24219 -0.738281,0.36328 v -0.67969 q 0.589844,-0.27734 1.03125,-0.67187 0.441406,-0.39453 0.625,-0.76563 h 0.453125 z" />
    </g>
    <g
       transform="translate(26.507812)"
       style="font-size:8px;line-height:1.25;fill:#929090"
       id="text14110-5-6-8-3-5-7-3"
       aria-label="OFST1">
      <path
         inkscape:connector-curvature="0"
         id="path59202"
         style="font-family:Arial;-inkscape-font-specification:Arial"
         d="m 59.029297,283.92172 q 0,-1.42578 0.765625,-2.23047 0.765625,-0.80859 1.976562,-0.80859 0.792969,0 1.429688,0.37891 0.636719,0.3789 0.96875,1.05859 0.335937,0.67578 0.335937,1.53516 0,0.87109 -0.351562,1.55859 -0.351563,0.6875 -0.996094,1.04297 -0.644531,0.35156 -1.390625,0.35156 -0.808594,0 -1.445312,-0.39062 -0.636719,-0.39063 -0.964844,-1.06641 -0.328125,-0.67578 -0.328125,-1.42969 z m 0.78125,0.0117 q 0,1.03516 0.554687,1.63281 0.558594,0.59375 1.398438,0.59375 0.855469,0 1.40625,-0.60156 0.554687,-0.60156 0.554687,-1.70703 0,-0.69922 -0.238281,-1.21875 -0.234375,-0.52344 -0.691406,-0.80859 -0.453125,-0.28907 -1.019531,-0.28907 -0.804688,0 -1.386719,0.55469 -0.578125,0.55078 -0.578125,1.84375 z" />
      <path
         inkscape:connector-curvature="0"
         id="path59204"
         style="font-family:Arial;-inkscape-font-specification:Arial"
         d="m 65.521484,286.71078 v -5.72656 h 3.863282 V 281.66 h -3.105469 v 1.77344 h 2.6875 v 0.67578 h -2.6875 v 2.60156 z" />
      <path
         inkscape:connector-curvature="0"
         id="path59206"
         style="font-family:Arial;-inkscape-font-specification:Arial"
         d="m 70.111328,284.87094 0.714844,-0.0625 q 0.05078,0.42969 0.234375,0.70703 0.1875,0.27344 0.578125,0.44531 0.390625,0.16797 0.878906,0.16797 0.433594,0 0.765625,-0.1289 0.332031,-0.12891 0.492188,-0.35157 0.164062,-0.22656 0.164062,-0.49218 0,-0.26953 -0.15625,-0.46875 -0.15625,-0.20313 -0.515625,-0.33985 -0.230469,-0.0898 -1.019531,-0.27734 -0.789063,-0.19141 -1.105469,-0.35938 -0.410156,-0.21484 -0.613281,-0.53125 -0.199219,-0.32031 -0.199219,-0.71484 0,-0.43359 0.246094,-0.80859 0.246094,-0.37891 0.71875,-0.57422 0.472656,-0.19531 1.050781,-0.19531 0.636719,0 1.121094,0.20703 0.488281,0.20312 0.75,0.60156 0.261719,0.39844 0.28125,0.90234 l -0.726563,0.0547 q -0.05859,-0.54297 -0.398437,-0.82031 -0.335938,-0.27735 -0.996094,-0.27735 -0.6875,0 -1.003906,0.25391 -0.3125,0.25 -0.3125,0.60547 0,0.30859 0.222656,0.50781 0.21875,0.19922 1.140625,0.41016 0.925781,0.20703 1.269531,0.36328 0.5,0.23047 0.738282,0.58594 0.238281,0.35156 0.238281,0.8125 0,0.45703 -0.261719,0.86328 -0.261719,0.40234 -0.753906,0.6289 -0.488281,0.22266 -1.101563,0.22266 -0.777343,0 -1.304687,-0.22656 -0.523438,-0.22656 -0.824219,-0.67969 -0.296875,-0.45703 -0.3125,-1.03125 z" />
      <path
         inkscape:connector-curvature="0"
         id="path59208"
         style="font-family:Arial;-inkscape-font-specification:Arial"
         d="M 77.162109,286.71078 V 281.66 h -1.886718 v -0.67578 h 4.539062 V 281.66 h -1.894531 v 5.05078 z" />
      <path
         inkscape:connector-curvature="0"
         id="path59210"
         style="font-family:Arial;-inkscape-font-specification:Arial"
         d="m 82.955078,286.71078 h -0.703125 v -4.48046 q -0.253906,0.24218 -0.667969,0.48437 -0.410156,0.24219 -0.738281,0.36328 v -0.67969 q 0.589844,-0.27734 1.03125,-0.67187 0.441406,-0.39453 0.625,-0.76563 h 0.453125 z" />
    </g>
    <rect
       transform="rotate(-90)"
       y="97"
       x="-229.33302"
       height="1"
       width="9.0991726"
       id="rect58277-7-9"
       style="fill:#3d3d3d;fill-opacity:1;fill-rule:nonzero;stroke:none;stroke-width:0.370987;stroke-opacity:1" />
    <rect
       transform="rotate(-90)"
       y="97"
       x="-279.37115"
       height="1"
       width="15.137308"
       id="rect58277-7-9-7"
       style="fill:#3d3d3d;fill-opacity:1;fill-rule:nonzero;stroke:none;stroke-width:0.47850001;stroke-opacity:1" />
    <rect
       transform="rotate(-90)"
       y="97"
       x="-320.23874"
       height="1"
       width="10.004893"
       id="rect58277-7-9-7-9"
       style="fill:#3d3d3d;fill-opacity:1;fill-rule:nonzero;stroke:none;stroke-width:0.38901287;stroke-opacity:1" />
  </g>
  <g
     id="g1033"
     transform="translate(23.125)">
    <g
       transform="translate(-21.492187)"
       id="g1005">
      <rect
         style="fill:#d0d0d0;fill-opacity:0.75294119"
         id="rect25890-0-8-4-8"
         width="36"
         height="40"
         x="100.99219"
         y="320.16788"
         rx="8" />
      <g
         aria-label="OUT 2"
         id="text14110-5-6-8-4-3-0"
         style="font-size:8px;line-height:1.25;fill:#000000;fill-opacity:1">
        <path
           d="m 108.58203,325.92172 q 0,-1.42578 0.76563,-2.23047 0.76562,-0.80859 1.97656,-0.80859 0.79297,0 1.42969,0.37891 0.63672,0.3789 0.96875,1.05859 0.33593,0.67578 0.33593,1.53516 0,0.87109 -0.35156,1.55859 -0.35156,0.6875 -0.99609,1.04297 -0.64453,0.35156 -1.39063,0.35156 -0.80859,0 -1.44531,-0.39062 -0.63672,-0.39063 -0.96484,-1.06641 -0.32813,-0.67578 -0.32813,-1.42969 z m 0.78125,0.0117 q 0,1.03516 0.55469,1.63281 0.55859,0.59375 1.39844,0.59375 0.85547,0 1.40625,-0.60156 0.55468,-0.60156 0.55468,-1.70703 0,-0.69922 -0.23828,-1.21875 -0.23437,-0.52344 -0.6914,-0.80859 -0.45313,-0.28907 -1.01953,-0.28907 -0.80469,0 -1.38672,0.55469 -0.57813,0.55078 -0.57813,1.84375 z"
           style="font-family:Arial;-inkscape-font-specification:Arial;fill:#000000;fill-opacity:1"
           id="path59229"
           inkscape:connector-curvature="0" />
        <path
           d="m 118.79297,322.98422 h 0.75781 v 3.3086 q 0,0.86328 -0.19531,1.37109 -0.19531,0.50781 -0.70703,0.82812 -0.50781,0.31641 -1.33594,0.31641 -0.80469,0 -1.31641,-0.27734 -0.51171,-0.27735 -0.73046,-0.80078 -0.21875,-0.52735 -0.21875,-1.4375 v -3.3086 h 0.75781 v 3.30469 q 0,0.74609 0.13672,1.10156 0.14062,0.35156 0.47656,0.54297 0.33984,0.19141 0.82812,0.19141 0.83594,0 1.19141,-0.37891 0.35547,-0.37891 0.35547,-1.45703 z"
           style="font-family:Arial;-inkscape-font-specification:Arial;fill:#000000;fill-opacity:1"
           id="path59231"
           inkscape:connector-curvature="0" />
        <path
           d="M 122.26953,328.71078 V 323.66 h -1.88672 v -0.67578 h 4.53907 V 323.66 h -1.89454 v 5.05078 z"
           style="font-family:Arial;-inkscape-font-specification:Arial;fill:#000000;fill-opacity:1"
           id="path59233"
           inkscape:connector-curvature="0" />
        <path
           d="m 131.1875,328.035 v 0.67578 h -3.78516 q -0.008,-0.2539 0.082,-0.48828 0.14453,-0.38672 0.46093,-0.76172 0.32031,-0.375 0.92188,-0.86718 0.93359,-0.76563 1.26172,-1.21094 0.32812,-0.44922 0.32812,-0.84766 0,-0.41797 -0.30078,-0.70312 -0.29688,-0.28906 -0.77734,-0.28906 -0.50782,0 -0.8125,0.30468 -0.30469,0.30469 -0.3086,0.84375 l -0.72265,-0.0742 q 0.0742,-0.80859 0.55859,-1.23046 0.48437,-0.42579 1.30078,-0.42579 0.82422,0 1.30469,0.45704 0.48047,0.45703 0.48047,1.13281 0,0.34375 -0.14063,0.67578 -0.14062,0.33203 -0.46875,0.69922 -0.32422,0.36719 -1.08203,1.00781 -0.63281,0.53125 -0.8125,0.72266 -0.17969,0.1875 -0.29687,0.3789 z"
           style="font-family:Arial;-inkscape-font-specification:Arial;fill:#000000;fill-opacity:1"
           id="path59235"
           inkscape:connector-curvature="0" />
      </g>
    </g>
    <g
       transform="translate(-22.015625)"
       style="font-size:8px;line-height:1.25;fill:#929090"
       id="text14110-5-6-8-3-5-8"
       aria-label="IN2">
      <path
         inkscape:connector-curvature="0"
         id="path59128"
         style="font-family:Arial;-inkscape-font-specification:Arial"
         d="m 113.875,196.71078 v -5.72656 h 0.75781 v 5.72656 z" />
      <path
         inkscape:connector-curvature="0"
         id="path59130"
         style="font-family:Arial;-inkscape-font-specification:Arial"
         d="m 115.96094,196.71078 v -5.72656 h 0.77734 l 3.00781,4.4961 v -4.4961 h 0.72657 v 5.72656 h -0.77735 l -3.00781,-4.5 v 4.5 z" />
      <path
         inkscape:connector-curvature="0"
         id="path59132"
         style="font-family:Arial;-inkscape-font-specification:Arial"
         d="m 125.15625,196.035 v 0.67578 h -3.78516 q -0.008,-0.2539 0.082,-0.48828 0.14453,-0.38672 0.46093,-0.76172 0.32032,-0.375 0.92188,-0.86718 0.93359,-0.76563 1.26172,-1.21094 0.32812,-0.44922 0.32812,-0.84766 0,-0.41797 -0.30078,-0.70312 -0.29687,-0.28906 -0.77734,-0.28906 -0.50782,0 -0.8125,0.30468 -0.30469,0.30469 -0.3086,0.84375 l -0.72265,-0.0742 q 0.0742,-0.80859 0.55859,-1.23046 0.48438,-0.42579 1.30078,-0.42579 0.82422,0 1.30469,0.45704 0.48047,0.45703 0.48047,1.13281 0,0.34375 -0.14063,0.67578 -0.14062,0.33203 -0.46875,0.69922 -0.32422,0.36719 -1.08203,1.00781 -0.63281,0.53125 -0.8125,0.72266 -0.17969,0.1875 -0.29687,0.3789 z" />
    </g>
    <g
       transform="translate(-22.01563)"
       style="font-size:8px;line-height:1.25;fill:#929090"
       id="text14110-5-6-8-3-5-7-0"
       aria-label="GAIN2">
      <path
         inkscape:connector-curvature="0"
         id="path59162"
         style="font-family:Arial;-inkscape-font-specification:Arial"
         d="m 110.80665,234.46469 v -0.67187 l 2.42578,-0.004 v 2.125 q -0.55859,0.44531 -1.15234,0.67187 -0.59375,0.22266 -1.21875,0.22266 -0.84375,0 -1.53516,-0.35937 -0.6875,-0.36329 -1.03906,-1.04688 -0.35157,-0.68359 -0.35157,-1.52734 0,-0.83594 0.34766,-1.5586 0.35156,-0.72656 1.00781,-1.07812 0.65625,-0.35156 1.51172,-0.35156 0.6211,0 1.1211,0.20312 0.5039,0.19922 0.78906,0.55859 0.28515,0.35938 0.43359,0.9375 l -0.68359,0.1875 q -0.12891,-0.4375 -0.32031,-0.6875 -0.19141,-0.25 -0.54688,-0.39843 -0.35547,-0.15235 -0.78906,-0.15235 -0.51953,0 -0.89844,0.16016 -0.37891,0.15625 -0.61328,0.41406 -0.23047,0.25781 -0.35938,0.56641 -0.21875,0.53125 -0.21875,1.15234 0,0.76563 0.26172,1.28125 0.26563,0.51563 0.76953,0.76563 0.50391,0.25 1.07032,0.25 0.49218,0 0.96093,-0.1875 0.46875,-0.19141 0.71094,-0.40625 v -1.06641 z" />
      <path
         inkscape:connector-curvature="0"
         id="path59164"
         style="font-family:Arial;-inkscape-font-specification:Arial"
         d="m 113.72071,236.71078 2.19922,-5.72656 h 0.81641 l 2.34375,5.72656 h -0.86329 l -0.66796,-1.73437 h -2.39454 l -0.6289,1.73437 z m 1.65234,-2.35156 h 1.94141 l -0.59766,-1.58594 q -0.27343,-0.72265 -0.40625,-1.1875 -0.10937,0.55079 -0.30859,1.09375 z" />
      <path
         inkscape:connector-curvature="0"
         id="path59166"
         style="font-family:Arial;-inkscape-font-specification:Arial"
         d="m 119.81446,236.71078 v -5.72656 h 0.75781 v 5.72656 z" />
      <path
         inkscape:connector-curvature="0"
         id="path59168"
         style="font-family:Arial;-inkscape-font-specification:Arial"
         d="m 121.9004,236.71078 v -5.72656 h 0.77734 l 3.00781,4.4961 v -4.4961 h 0.72657 v 5.72656 h -0.77735 l -3.00781,-4.5 v 4.5 z" />
      <path
         inkscape:connector-curvature="0"
         id="path59170"
         style="font-family:Arial;-inkscape-font-specification:Arial"
         d="m 131.09571,236.035 v 0.67578 h -3.78516 q -0.008,-0.2539 0.082,-0.48828 0.14453,-0.38672 0.46093,-0.76172 0.32032,-0.375 0.92188,-0.86718 0.93359,-0.76563 1.26172,-1.21094 0.32812,-0.44922 0.32812,-0.84766 0,-0.41797 -0.30078,-0.70312 -0.29687,-0.28906 -0.77734,-0.28906 -0.50782,0 -0.8125,0.30468 -0.30469,0.30469 -0.3086,0.84375 l -0.72265,-0.0742 q 0.0742,-0.80859 0.55859,-1.23046 0.48438,-0.42579 1.30078,-0.42579 0.82422,0 1.30469,0.45704 0.48047,0.45703 0.48047,1.13281 0,0.34375 -0.14063,0.67578 -0.14062,0.33203 -0.46875,0.69922 -0.32422,0.36719 -1.08203,1.00781 -0.63281,0.53125 -0.8125,0.72266 -0.17969,0.1875 -0.29687,0.3789 z" />
    </g>
    <g
       transform="translate(-22.015625)"
       style="font-size:8px;line-height:1.25;fill:#929090"
       id="text14110-5-6-8-3-5-7-3-0"
       aria-label="OFST2">
      <path
         inkscape:connector-curvature="0"
         id="path59191"
         style="font-family:Arial;-inkscape-font-specification:Arial"
         d="m 107.0293,283.92172 q 0,-1.42578 0.76562,-2.23047 0.76563,-0.80859 1.97656,-0.80859 0.79297,0 1.42969,0.37891 0.63672,0.3789 0.96875,1.05859 0.33594,0.67578 0.33594,1.53516 0,0.87109 -0.35156,1.55859 -0.35157,0.6875 -0.9961,1.04297 -0.64453,0.35156 -1.39062,0.35156 -0.8086,0 -1.44531,-0.39062 -0.63672,-0.39063 -0.96485,-1.06641 -0.32812,-0.67578 -0.32812,-1.42969 z m 0.78125,0.0117 q 0,1.03516 0.55468,1.63281 0.5586,0.59375 1.39844,0.59375 0.85547,0 1.40625,-0.60156 0.55469,-0.60156 0.55469,-1.70703 0,-0.69922 -0.23828,-1.21875 -0.23438,-0.52344 -0.69141,-0.80859 -0.45312,-0.28907 -1.01953,-0.28907 -0.80469,0 -1.38672,0.55469 -0.57812,0.55078 -0.57812,1.84375 z" />
      <path
         inkscape:connector-curvature="0"
         id="path59193"
         style="font-family:Arial;-inkscape-font-specification:Arial"
         d="m 113.52148,286.71078 v -5.72656 h 3.86329 V 281.66 h -3.10547 v 1.77344 h 2.6875 v 0.67578 h -2.6875 v 2.60156 z" />
      <path
         inkscape:connector-curvature="0"
         id="path59195"
         style="font-family:Arial;-inkscape-font-specification:Arial"
         d="m 118.11133,284.87094 0.71484,-0.0625 q 0.0508,0.42969 0.23438,0.70703 0.1875,0.27344 0.57812,0.44531 0.39063,0.16797 0.87891,0.16797 0.43359,0 0.76562,-0.1289 0.33203,-0.12891 0.49219,-0.35157 0.16406,-0.22656 0.16406,-0.49218 0,-0.26953 -0.15625,-0.46875 -0.15625,-0.20313 -0.51562,-0.33985 -0.23047,-0.0898 -1.01953,-0.27734 -0.78907,-0.19141 -1.10547,-0.35938 -0.41016,-0.21484 -0.61328,-0.53125 -0.19922,-0.32031 -0.19922,-0.71484 0,-0.43359 0.24609,-0.80859 0.2461,-0.37891 0.71875,-0.57422 0.47266,-0.19531 1.05078,-0.19531 0.63672,0 1.1211,0.20703 0.48828,0.20312 0.75,0.60156 0.26172,0.39844 0.28125,0.90234 l -0.72657,0.0547 q -0.0586,-0.54297 -0.39843,-0.82031 -0.33594,-0.27735 -0.9961,-0.27735 -0.6875,0 -1.0039,0.25391 -0.3125,0.25 -0.3125,0.60547 0,0.30859 0.22265,0.50781 0.21875,0.19922 1.14063,0.41016 0.92578,0.20703 1.26953,0.36328 0.5,0.23047 0.73828,0.58594 0.23828,0.35156 0.23828,0.8125 0,0.45703 -0.26172,0.86328 -0.26172,0.40234 -0.7539,0.6289 -0.48828,0.22266 -1.10157,0.22266 -0.77734,0 -1.30468,-0.22656 -0.52344,-0.22656 -0.82422,-0.67969 -0.29688,-0.45703 -0.3125,-1.03125 z" />
      <path
         inkscape:connector-curvature="0"
         id="path59197"
         style="font-family:Arial;-inkscape-font-specification:Arial"
         d="M 125.16211,286.71078 V 281.66 h -1.88672 v -0.67578 h 4.53906 V 281.66 h -1.89453 v 5.05078 z" />
      <path
         inkscape:connector-curvature="0"
         id="path59199"
         style="font-family:Arial;-inkscape-font-specification:Arial"
         d="m 132.00195,286.035 v 0.67578 h -3.78515 q -0.008,-0.2539 0.082,-0.48828 0.14453,-0.38672 0.46094,-0.76172 0.32031,-0.375 0.92187,-0.86718 0.93359,-0.76563 1.26172,-1.21094 0.32812,-0.44922 0.32812,-0.84766 0,-0.41797 -0.30078,-0.70312 -0.29687,-0.28906 -0.77734,-0.28906 -0.50781,0 -0.8125,0.30468 -0.30469,0.30469 -0.30859,0.84375 l -0.72266,-0.0742 q 0.0742,-0.80859 0.55859,-1.23046 0.48438,-0.42579 1.30078,-0.42579 0.82422,0 1.30469,0.45704 0.48047,0.45703 0.48047,1.13281 0,0.34375 -0.14062,0.67578 -0.14063,0.33203 -0.46875,0.69922 -0.32422,0.36719 -1.08204,1.00781 -0.63281,0.53125 -0.8125,0.72266 -0.17968,0.1875 -0.29687,0.3789 z" />
    </g>
    <rect
       transform="rotate(-90)"
       y="97"
       x="-229.33302"
       height="1"
       width="9.0991726"
       id="rect58277-7-9-6"
       style="fill:#3d3d3d;fill-opacity:1;fill-rule:nonzero;stroke:none;stroke-width:0.370987;stroke-opacity:1" />
    <rect
       transform="rotate(-90)"
       y="97"
       x="-279.37115"
       height="1"
       width="15.137308"
       id="rect58277-7-9-7-5"
       style="fill:#3d3d3d;fill-opacity:1;fill-rule:nonzero;stroke:none;stroke-width:0.47850001;stroke-opacity:1" />
    <rect
       transform="rotate(-90)"
       y="97"
       x="-320.18842"
       height="1"
       width="9.9545755"
       id="rect58277-7-9-7-9-4"
       style="fill:#3d3d3d;fill-opacity:1;fill-rule:nonzero;stroke:none;stroke-width:0.38803339;stroke-opacity:1" />
  </g>
  <g
     id="g1053"
     transform="translate(69.373045)">
    <g
       transform="translate(-68.884765)"
       style="font-size:8px;line-height:1.25;fill:#929090"
       id="text14110-5-6-8-3-5-8-5"
       aria-label="EXT TRG">
      <path
         inkscape:connector-curvature="0"
         id="path59115"
         style="font-family:Arial;-inkscape-font-specification:Arial"
         d="m 149.76172,196.71078 v -5.72656 h 4.14062 V 191.66 h -3.38281 v 1.75391 h 3.16797 v 0.67187 h -3.16797 v 1.94922 h 3.51563 v 0.67578 z" />
      <path
         inkscape:connector-curvature="0"
         id="path59117"
         style="font-family:Arial;-inkscape-font-specification:Arial"
         d="m 154.5,196.71078 2.21484,-2.98437 -1.95312,-2.74219 h 0.90234 l 1.03906,1.46875 q 0.32422,0.45703 0.46094,0.70313 0.19141,-0.3125 0.45313,-0.65235 l 1.15234,-1.51953 h 0.82422 l -2.01172,2.69922 2.16797,3.02734 h -0.9375 l -1.44141,-2.04296 q -0.12109,-0.17579 -0.25,-0.38282 -0.1914,0.3125 -0.27343,0.42969 l -1.4375,1.99609 z" />
      <path
         inkscape:connector-curvature="0"
         id="path59119"
         style="font-family:Arial;-inkscape-font-specification:Arial"
         d="M 161.875,196.71078 V 191.66 h -1.88672 v -0.67578 h 4.53906 V 191.66 h -1.89453 v 5.05078 z" />
      <path
         inkscape:connector-curvature="0"
         id="path59121"
         style="font-family:Arial;-inkscape-font-specification:Arial"
         d="M 168.69531,196.71078 V 191.66 h -1.88672 v -0.67578 h 4.53907 V 191.66 h -1.89454 v 5.05078 z" />
      <path
         inkscape:connector-curvature="0"
         id="path59123"
         style="font-family:Arial;-inkscape-font-specification:Arial"
         d="m 172.13672,196.71078 v -5.72656 h 2.53906 q 0.76563,0 1.16406,0.15625 0.39844,0.15235 0.63672,0.54297 0.23828,0.39063 0.23828,0.86328 0,0.60938 -0.39453,1.02735 -0.39453,0.41796 -1.21875,0.53125 0.30078,0.14453 0.45703,0.28515 0.33203,0.30469 0.62891,0.76172 l 0.99609,1.55859 h -0.95312 l -0.75781,-1.1914 q -0.33204,-0.51563 -0.54688,-0.78906 -0.21484,-0.27344 -0.38672,-0.38282 -0.16797,-0.10937 -0.34375,-0.15234 -0.1289,-0.0273 -0.42187,-0.0273 h -0.87891 v 2.54296 z m 0.75781,-3.19921 h 1.62891 q 0.51953,0 0.8125,-0.10547 0.29297,-0.10938 0.44531,-0.34375 0.15234,-0.23828 0.15234,-0.51563 0,-0.40625 -0.29687,-0.66797 -0.29297,-0.26172 -0.92969,-0.26172 h -1.8125 z" />
      <path
         inkscape:connector-curvature="0"
         id="path59125"
         style="font-family:Arial;-inkscape-font-specification:Arial"
         d="m 180.58203,194.46469 v -0.67187 l 2.42578,-0.004 v 2.125 q -0.55859,0.44531 -1.15234,0.67187 -0.59375,0.22266 -1.21875,0.22266 -0.84375,0 -1.53516,-0.35937 -0.6875,-0.36329 -1.03906,-1.04688 -0.35156,-0.68359 -0.35156,-1.52734 0,-0.83594 0.34765,-1.5586 0.35157,-0.72656 1.00782,-1.07812 0.65625,-0.35156 1.51171,-0.35156 0.6211,0 1.1211,0.20312 0.5039,0.19922 0.78906,0.55859 0.28516,0.35938 0.43359,0.9375 l -0.68359,0.1875 q -0.12891,-0.4375 -0.32031,-0.6875 -0.19141,-0.25 -0.54688,-0.39843 -0.35547,-0.15235 -0.78906,-0.15235 -0.51953,0 -0.89844,0.16016 -0.3789,0.15625 -0.61328,0.41406 -0.23047,0.25781 -0.35937,0.56641 -0.21875,0.53125 -0.21875,1.15234 0,0.76563 0.26172,1.28125 0.26562,0.51563 0.76953,0.76563 0.5039,0.25 1.07031,0.25 0.49219,0 0.96094,-0.1875 0.46875,-0.19141 0.71093,-0.40625 v -1.06641 z" />
    </g>
    <g
       transform="translate(-69.492185)"
       style="font-size:8px;line-height:1.25;fill:#929090"
       id="text14110-5-6-8-3-5-8-5-9"
       aria-label="THRES">
      <path
         inkscape:connector-curvature="0"
         id="path59173"
         style="font-family:Arial;-inkscape-font-specification:Arial"
         d="M 155.625,236.71078 V 231.66 h -1.88672 v -0.67578 h 4.53906 V 231.66 h -1.89453 v 5.05078 z" />
      <path
         inkscape:connector-curvature="0"
         id="path59175"
         style="font-family:Arial;-inkscape-font-specification:Arial"
         d="m 159.07812,236.71078 v -5.72656 h 0.75782 v 2.35156 h 2.97656 v -2.35156 h 0.75781 v 5.72656 h -0.75781 v -2.69921 h -2.97656 v 2.69921 z" />
      <path
         inkscape:connector-curvature="0"
         id="path59177"
         style="font-family:Arial;-inkscape-font-specification:Arial"
         d="m 164.84375,236.71078 v -5.72656 h 2.53906 q 0.76563,0 1.16406,0.15625 0.39844,0.15235 0.63672,0.54297 0.23828,0.39063 0.23828,0.86328 0,0.60938 -0.39453,1.02735 -0.39453,0.41796 -1.21875,0.53125 0.30078,0.14453 0.45703,0.28515 0.33204,0.30469 0.62891,0.76172 l 0.99609,1.55859 h -0.95312 l -0.75781,-1.1914 q -0.33203,-0.51563 -0.54688,-0.78906 -0.21484,-0.27344 -0.38672,-0.38282 -0.16797,-0.10937 -0.34375,-0.15234 -0.1289,-0.0273 -0.42187,-0.0273 h -0.87891 v 2.54296 z m 0.75781,-3.19921 h 1.62891 q 0.51953,0 0.8125,-0.10547 0.29297,-0.10938 0.44531,-0.34375 0.15234,-0.23828 0.15234,-0.51563 0,-0.40625 -0.29687,-0.66797 -0.29297,-0.26172 -0.92969,-0.26172 h -1.8125 z" />
      <path
         inkscape:connector-curvature="0"
         id="path59179"
         style="font-family:Arial;-inkscape-font-specification:Arial"
         d="m 170.625,236.71078 v -5.72656 h 4.14062 V 231.66 h -3.38281 v 1.75391 h 3.16797 v 0.67187 h -3.16797 v 1.94922 h 3.51563 v 0.67578 z" />
      <path
         inkscape:connector-curvature="0"
         id="path59181"
         style="font-family:Arial;-inkscape-font-specification:Arial"
         d="m 175.6875,234.87094 0.71484,-0.0625 q 0.0508,0.42969 0.23438,0.70703 0.1875,0.27344 0.57812,0.44531 0.39063,0.16797 0.87891,0.16797 0.43359,0 0.76562,-0.1289 0.33204,-0.12891 0.49219,-0.35157 0.16406,-0.22656 0.16406,-0.49218 0,-0.26953 -0.15625,-0.46875 -0.15625,-0.20313 -0.51562,-0.33985 -0.23047,-0.0898 -1.01953,-0.27734 -0.78906,-0.19141 -1.10547,-0.35938 -0.41016,-0.21484 -0.61328,-0.53125 -0.19922,-0.32031 -0.19922,-0.71484 0,-0.43359 0.24609,-0.80859 0.2461,-0.37891 0.71875,-0.57422 0.47266,-0.19531 1.05078,-0.19531 0.63672,0 1.1211,0.20703 0.48828,0.20312 0.75,0.60156 0.26172,0.39844 0.28125,0.90234 l -0.72656,0.0547 q -0.0586,-0.54297 -0.39844,-0.82031 -0.33594,-0.27735 -0.9961,-0.27735 -0.6875,0 -1.0039,0.25391 -0.3125,0.25 -0.3125,0.60547 0,0.30859 0.22265,0.50781 0.21875,0.19922 1.14063,0.41016 0.92578,0.20703 1.26953,0.36328 0.5,0.23047 0.73828,0.58594 0.23828,0.35156 0.23828,0.8125 0,0.45703 -0.26172,0.86328 -0.26171,0.40234 -0.7539,0.6289 -0.48828,0.22266 -1.10156,0.22266 -0.77735,0 -1.30469,-0.22656 -0.52344,-0.22656 -0.82422,-0.67969 -0.29688,-0.45703 -0.3125,-1.03125 z" />
    </g>
    <g
       transform="translate(-69.916015)"
       style="font-size:8px;line-height:1.25;fill:#929090"
       id="text14110-5-6-8-3-5-8-5-7"
       aria-label="TRG">
      <path
         inkscape:connector-curvature="0"
         id="path59184"
         style="font-family:Arial;-inkscape-font-specification:Arial"
         d="M 161.20312,284.71078 V 279.66 h -1.88671 v -0.67578 h 4.53906 V 279.66 h -1.89453 v 5.05078 z" />
      <path
         inkscape:connector-curvature="0"
         id="path59186"
         style="font-family:Arial;-inkscape-font-specification:Arial"
         d="m 164.64453,284.71078 v -5.72656 h 2.53906 q 0.76563,0 1.16407,0.15625 0.39843,0.15235 0.63671,0.54297 0.23829,0.39063 0.23829,0.86328 0,0.60938 -0.39454,1.02735 -0.39453,0.41796 -1.21875,0.53125 0.30079,0.14453 0.45704,0.28515 0.33203,0.30469 0.6289,0.76172 l 0.9961,1.55859 h -0.95313 l -0.75781,-1.1914 q -0.33203,-0.51563 -0.54688,-0.78906 -0.21484,-0.27344 -0.38672,-0.38282 -0.16796,-0.10937 -0.34375,-0.15234 -0.1289,-0.0273 -0.42187,-0.0273 h -0.87891 v 2.54296 z m 0.75781,-3.19921 h 1.62891 q 0.51953,0 0.8125,-0.10547 0.29297,-0.10938 0.44531,-0.34375 0.15235,-0.23828 0.15235,-0.51563 0,-0.40625 -0.29688,-0.66797 -0.29297,-0.26172 -0.92969,-0.26172 h -1.8125 z" />
      <path
         inkscape:connector-curvature="0"
         id="path59188"
         style="font-family:Arial;-inkscape-font-specification:Arial"
         d="m 173.08984,282.46469 v -0.67187 l 2.42578,-0.004 v 2.125 q -0.55859,0.44531 -1.15234,0.67187 -0.59375,0.22266 -1.21875,0.22266 -0.84375,0 -1.53516,-0.35937 -0.6875,-0.36329 -1.03906,-1.04688 -0.35156,-0.68359 -0.35156,-1.52734 0,-0.83594 0.34766,-1.5586 0.35156,-0.72656 1.00781,-1.07812 0.65625,-0.35156 1.51172,-0.35156 0.62109,0 1.12109,0.20312 0.50391,0.19922 0.78906,0.55859 0.28516,0.35938 0.4336,0.9375 l -0.6836,0.1875 q -0.1289,-0.4375 -0.32031,-0.6875 -0.19141,-0.25 -0.54687,-0.39843 -0.35547,-0.15235 -0.78907,-0.15235 -0.51953,0 -0.89843,0.16016 -0.37891,0.15625 -0.61329,0.41406 -0.23046,0.25781 -0.35937,0.56641 Q 171,281.20688 171,281.82797 q 0,0.76563 0.26172,1.28125 0.26562,0.51563 0.76953,0.76563 0.50391,0.25 1.07031,0.25 0.49219,0 0.96094,-0.1875 0.46875,-0.19141 0.71094,-0.40625 v -1.06641 z" />
    </g>
    <rect
       transform="rotate(-90)"
       y="97"
       x="-229.33302"
       height="1"
       width="9.0991726"
       id="rect58277-7-9-6-1"
       style="fill:#3d3d3d;fill-opacity:1;fill-rule:nonzero;stroke:none;stroke-width:0.370987;stroke-opacity:1" />
  </g>
  <g
     id="g961"
     transform="translate(-69.378906)">
    <g
       transform="translate(70.937496)"
       style="font-size:8px;line-height:1.25;fill:#929090"
       id="text14110-5-6-8-3-5-8-5-0"
       aria-label="TIME">
      <path
         inkscape:connector-curvature="0"
         id="path59142"
         style="font-family:Arial;-inkscape-font-specification:Arial"
         d="M 19.203129,234.71078 V 229.66 H 17.31641 v -0.67578 h 4.539063 V 229.66 h -1.894532 v 5.05078 z" />
      <path
         inkscape:connector-curvature="0"
         id="path59144"
         style="font-family:Arial;-inkscape-font-specification:Arial"
         d="m 22.761723,234.71078 v -5.72656 h 0.757812 v 5.72656 z" />
      <path
         inkscape:connector-curvature="0"
         id="path59146"
         style="font-family:Arial;-inkscape-font-specification:Arial"
         d="m 24.832035,234.71078 v -5.72656 h 1.140625 l 1.355469,4.05469 q 0.1875,0.56641 0.273437,0.84766 0.09766,-0.3125 0.304688,-0.91797 l 1.371094,-3.98438 h 1.019531 v 5.72656 H 29.56641 v -4.79296 l -1.664062,4.79296 h -0.683594 l -1.65625,-4.875 v 4.875 z" />
      <path
         inkscape:connector-curvature="0"
         id="path59148"
         style="font-family:Arial;-inkscape-font-specification:Arial"
         d="m 31.53516,234.71078 v -5.72656 h 4.140625 V 229.66 h -3.382812 v 1.75391 h 3.167968 v 0.67187 h -3.167968 v 1.94922 h 3.515625 v 0.67578 z" />
    </g>
    <g
       transform="translate(69.171871)"
       style="font-size:8px;line-height:1.25;fill:#929090"
       id="text14110-5-6-8-3-5-8-5-0-3"
       aria-label="LX2">
      <path
         inkscape:connector-curvature="0"
         id="path59213"
         style="font-family:Arial;-inkscape-font-specification:Arial"
         d="m 21.714848,284.71078 v -5.72656 h 0.757812 v 5.05078 h 2.820313 v 0.67578 z" />
      <path
         inkscape:connector-curvature="0"
         id="path59215"
         style="font-family:Arial;-inkscape-font-specification:Arial"
         d="m 25.613285,284.71078 2.214844,-2.98437 -1.953125,-2.74219 h 0.902344 l 1.039062,1.46875 q 0.324219,0.45703 0.460938,0.70313 0.191406,-0.3125 0.453125,-0.65235 l 1.152343,-1.51953 h 0.824219 l -2.011719,2.69922 2.167969,3.02734 h -0.9375 l -1.441406,-2.04296 q -0.121094,-0.17579 -0.25,-0.38282 -0.191406,0.3125 -0.273438,0.42969 l -1.4375,1.99609 z" />
      <path
         inkscape:connector-curvature="0"
         id="path59217"
         style="font-family:Arial;-inkscape-font-specification:Arial"
         d="m 34.94141,284.035 v 0.67578 h -3.785156 q -0.0078,-0.2539 0.08203,-0.48828 0.144531,-0.38672 0.460938,-0.76172 0.320312,-0.375 0.921875,-0.86718 0.933593,-0.76563 1.261718,-1.21094 0.328125,-0.44922 0.328125,-0.84766 0,-0.41797 -0.300781,-0.70312 -0.296875,-0.28906 -0.777344,-0.28906 -0.507812,0 -0.8125,0.30468 -0.304687,0.30469 -0.308593,0.84375 l -0.722657,-0.0742 q 0.07422,-0.80859 0.558594,-1.23046 0.484375,-0.42579 1.300781,-0.42579 0.824219,0 1.304688,0.45704 0.480469,0.45703 0.480469,1.13281 0,0.34375 -0.140625,0.67578 -0.140625,0.33203 -0.46875,0.69922 -0.324219,0.36719 -1.082032,1.00781 -0.632812,0.53125 -0.8125,0.72266 -0.179687,0.1875 -0.296875,0.3789 z" />
    </g>
  </g>
</svg>
