<?xml version="1.0" encoding="UTF-8" standalone="no"?>
<svg
   xmlns:dc="http://purl.org/dc/elements/1.1/"
   xmlns:cc="http://creativecommons.org/ns#"
   xmlns:rdf="http://www.w3.org/1999/02/22-rdf-syntax-ns#"
   xmlns:svg="http://www.w3.org/2000/svg"
   xmlns="http://www.w3.org/2000/svg"
   xmlns:xlink="http://www.w3.org/1999/xlink"
   xmlns:sodipodi="http://sodipodi.sourceforge.net/DTD/sodipodi-0.dtd"
   xmlns:inkscape="http://www.inkscape.org/namespaces/inkscape"
   width="105"
   height="380"
   viewBox="0 0 105 380"
   version="1.1"
   id="svg183"
   sodipodi:docname="VCF.svg"
   inkscape:version="0.92.5 (2060ec1f9f, 2020-04-08)">
  <metadata
     id="metadata187">
    <rdf:RDF>
      <cc:Work
         rdf:about="">
        <dc:format>image/svg+xml</dc:format>
        <dc:type
           rdf:resource="http://purl.org/dc/dcmitype/StillImage" />
      </cc:Work>
    </rdf:RDF>
  </metadata>
  <sodipodi:namedview
     pagecolor="#ffffff"
     bordercolor="#666666"
     borderopacity="1"
     objecttolerance="10"
     gridtolerance="10"
     guidetolerance="10"
     inkscape:pageopacity="0"
     inkscape:pageshadow="2"
     inkscape:window-width="1920"
     inkscape:window-height="1026"
     id="namedview185"
     showgrid="false"
     inkscape:zoom="2.4842105"
     inkscape:cx="-62.203408"
     inkscape:cy="133.42561"
     inkscape:window-x="1920"
     inkscape:window-y="0"
     inkscape:window-maximized="1"
     inkscape:current-layer="g993"
     inkscape:pagecheckerboard="0" />
  <defs
     id="defs7">
    <linearGradient
       inkscape:collect="always"
       id="linearGradient22215-5">
      <stop
         style="stop-color:#000000;stop-opacity:1"
         offset="0"
         id="stop22211" />
      <stop
         style="stop-color:#191928;stop-opacity:1"
         offset="1"
         id="stop22213" />
    </linearGradient>
    <linearGradient
       id="b0234e08-fdca-44f0-b5b7-019b02f0775b"
       x1="52.5"
       x2="52.5"
       y2="380"
       gradientUnits="userSpaceOnUse">
      <stop
         offset="0"
         stop-color="#ebebeb"
         id="stop2" />
      <stop
         offset="1"
         stop-color="#e1e1e1"
         id="stop4" />
    </linearGradient>
    <filter
       style="color-interpolation-filters:sRGB;"
       inkscape:label="Blur"
       id="filter11719"
       x="-0.99368436"
       y="-0.2676257"
       width="2.9873687"
       height="1.5352514">
      <feGaussianBlur
         stdDeviation="1 1"
         result="fbSourceGraphic"
         id="feGaussianBlur11717" />
      <feColorMatrix
         result="fbSourceGraphicAlpha"
         in="fbSourceGraphic"
         values="0 0 0 -1 0 0 0 0 -1 0 0 0 0 -1 0 0 0 0 1 0"
         id="feColorMatrix11739" />
      <feGaussianBlur
         id="feGaussianBlur11741"
         stdDeviation="1 1"
         result="blur"
         in="fbSourceGraphic" />
    </filter>
    <linearGradient
       inkscape:collect="always"
       xlink:href="#linearGradient22215-5"
       id="linearGradient22217"
       x1="105"
       y1="380"
       x2="105"
       y2="0"
       gradientUnits="userSpaceOnUse" />
    <filter
       style="color-interpolation-filters:sRGB"
       inkscape:label="Blur"
       id="filter11719-1"
       x="-0.99368436"
       y="-0.2676257"
       width="2.9873687"
       height="1.5352514">
      <feGaussianBlur
         stdDeviation="1 1"
         result="fbSourceGraphic"
         id="feGaussianBlur11717-7" />
      <feColorMatrix
         result="fbSourceGraphicAlpha"
         in="fbSourceGraphic"
         values="0 0 0 -1 0 0 0 0 -1 0 0 0 0 -1 0 0 0 0 1 0"
         id="feColorMatrix11739-1" />
      <feGaussianBlur
         id="feGaussianBlur11741-1"
         stdDeviation="1 1"
         result="blur"
         in="fbSourceGraphic" />
    </filter>
    <linearGradient
       id="SVGID_1_"
       gradientUnits="userSpaceOnUse"
       x1="518.99988"
       y1="-5410.3999"
       x2="531.99988"
       y2="-5410.3999"
       gradientTransform="rotate(90,-2442.45,-2960.45)">
      <stop
         offset="0.00559"
         style="stop-color:#303030"
         id="stop45369" />
      <stop
         offset="1"
         style="stop-color:#222222"
         id="stop45371" />
    </linearGradient>
    <linearGradient
       id="SVGID_2_"
       gradientUnits="userSpaceOnUse"
       x1="519.68744"
       y1="-5410.3999"
       x2="531.31134"
       y2="-5410.3999"
       gradientTransform="rotate(90,-2442.45,-2960.45)">
      <stop
         offset="0.01118"
         style="stop-color:#636363"
         id="stop45376" />
      <stop
         offset="1"
         style="stop-color:#2B2B2B"
         id="stop45378" />
    </linearGradient>
    <linearGradient
       id="SVGID_3_"
       gradientUnits="userSpaceOnUse"
       x1="520.13452"
       y1="-5410.3999"
       x2="530.86426"
       y2="-5410.3999"
       gradientTransform="rotate(90,-2442.45,-2960.45)">
      <stop
         offset="0.01118"
         style="stop-color:#4C4C4C"
         id="stop45383" />
      <stop
         offset="1"
         style="stop-color:#3B3B3B"
         id="stop45385" />
    </linearGradient>
    <filter
       style="color-interpolation-filters:sRGB"
       inkscape:label="Blur"
       id="filter11719-8"
       x="-0.99368436"
       y="-0.2676257"
       width="2.9873687"
       height="1.5352514">
      <feGaussianBlur
         stdDeviation="1 1"
         result="fbSourceGraphic"
         id="feGaussianBlur11717-0" />
      <feColorMatrix
         result="fbSourceGraphicAlpha"
         in="fbSourceGraphic"
         values="0 0 0 -1 0 0 0 0 -1 0 0 0 0 -1 0 0 0 0 1 0"
         id="feColorMatrix11739-4" />
      <feGaussianBlur
         id="feGaussianBlur11741-2"
         stdDeviation="1 1"
         result="blur"
         in="fbSourceGraphic" />
    </filter>
    <filter
       style="color-interpolation-filters:sRGB"
       inkscape:label="Blur"
       id="filter11719-0"
       x="-0.99368436"
       y="-0.2676257"
       width="2.9873687"
       height="1.5352514">
      <feGaussianBlur
         stdDeviation="1 1"
         result="fbSourceGraphic"
         id="feGaussianBlur11717-3" />
      <feColorMatrix
         result="fbSourceGraphicAlpha"
         in="fbSourceGraphic"
         values="0 0 0 -1 0 0 0 0 -1 0 0 0 0 -1 0 0 0 0 1 0"
         id="feColorMatrix11739-49" />
      <feGaussianBlur
         id="feGaussianBlur11741-8"
         stdDeviation="1 1"
         result="blur"
         in="fbSourceGraphic" />
    </filter>
    <filter
       style="color-interpolation-filters:sRGB"
       inkscape:label="Blur"
       id="filter11719-5"
       x="-0.99368436"
       y="-0.2676257"
       width="2.9873687"
       height="1.5352514">
      <feGaussianBlur
         stdDeviation="1 1"
         result="fbSourceGraphic"
         id="feGaussianBlur11717-2" />
      <feColorMatrix
         result="fbSourceGraphicAlpha"
         in="fbSourceGraphic"
         values="0 0 0 -1 0 0 0 0 -1 0 0 0 0 -1 0 0 0 0 1 0"
         id="feColorMatrix11739-0" />
      <feGaussianBlur
         id="feGaussianBlur11741-5"
         stdDeviation="1 1"
         result="blur"
         in="fbSourceGraphic" />
    </filter>
    <filter
       style="color-interpolation-filters:sRGB"
       inkscape:label="Blur"
       id="filter11719-5-2"
       x="-0.99368436"
       y="-0.2676257"
       width="2.9873687"
       height="1.5352514">
      <feGaussianBlur
         stdDeviation="1 1"
         result="fbSourceGraphic"
         id="feGaussianBlur11717-2-4" />
      <feColorMatrix
         result="fbSourceGraphicAlpha"
         in="fbSourceGraphic"
         values="0 0 0 -1 0 0 0 0 -1 0 0 0 0 -1 0 0 0 0 1 0"
         id="feColorMatrix11739-0-1" />
      <feGaussianBlur
         id="feGaussianBlur11741-5-0"
         stdDeviation="1 1"
         result="blur"
         in="fbSourceGraphic" />
    </filter>
    <filter
       style="color-interpolation-filters:sRGB"
       inkscape:label="Blur"
       id="filter11719-2"
       x="-0.99368436"
       y="-0.2676257"
       width="2.9873687"
       height="1.5352514">
      <feGaussianBlur
         stdDeviation="1 1"
         result="fbSourceGraphic"
         id="feGaussianBlur11717-5" />
      <feColorMatrix
         result="fbSourceGraphicAlpha"
         in="fbSourceGraphic"
         values="0 0 0 -1 0 0 0 0 -1 0 0 0 0 -1 0 0 0 0 1 0"
         id="feColorMatrix11739-492" />
      <feGaussianBlur
         id="feGaussianBlur11741-28"
         stdDeviation="1 1"
         result="blur"
         in="fbSourceGraphic" />
    </filter>
    <filter
       style="color-interpolation-filters:sRGB"
       inkscape:label="Blur"
       id="filter11719-5-2-4"
       x="-0.99368436"
       y="-0.2676257"
       width="2.9873687"
       height="1.5352514">
      <feGaussianBlur
         stdDeviation="1 1"
         result="fbSourceGraphic"
         id="feGaussianBlur11717-2-4-0" />
      <feColorMatrix
         result="fbSourceGraphicAlpha"
         in="fbSourceGraphic"
         values="0 0 0 -1 0 0 0 0 -1 0 0 0 0 -1 0 0 0 0 1 0"
         id="feColorMatrix11739-0-1-9" />
      <feGaussianBlur
         id="feGaussianBlur11741-5-0-5"
         stdDeviation="1 1"
         result="blur"
         in="fbSourceGraphic" />
    </filter>
    <filter
       style="color-interpolation-filters:sRGB"
       inkscape:label="Blur"
       id="filter11719-8-2"
       x="-0.99368436"
       y="-0.2676257"
       width="2.9873687"
       height="1.5352514">
      <feGaussianBlur
         stdDeviation="1 1"
         result="fbSourceGraphic"
         id="feGaussianBlur11717-0-6" />
      <feColorMatrix
         result="fbSourceGraphicAlpha"
         in="fbSourceGraphic"
         values="0 0 0 -1 0 0 0 0 -1 0 0 0 0 -1 0 0 0 0 1 0"
         id="feColorMatrix11739-4-9" />
      <feGaussianBlur
         id="feGaussianBlur11741-2-7"
         stdDeviation="1 1"
         result="blur"
         in="fbSourceGraphic" />
    </filter>
    <filter
       style="color-interpolation-filters:sRGB"
       inkscape:label="Blur"
       id="filter11719-07"
       x="-0.99368436"
       y="-0.2676257"
       width="2.9873687"
       height="1.5352514">
      <feGaussianBlur
         stdDeviation="1 1"
         result="fbSourceGraphic"
         id="feGaussianBlur11717-4" />
      <feColorMatrix
         result="fbSourceGraphicAlpha"
         in="fbSourceGraphic"
         values="0 0 0 -1 0 0 0 0 -1 0 0 0 0 -1 0 0 0 0 1 0"
         id="feColorMatrix11739-47" />
      <feGaussianBlur
         id="feGaussianBlur11741-52"
         stdDeviation="1 1"
         result="blur"
         in="fbSourceGraphic" />
    </filter>
    <filter
       style="color-interpolation-filters:sRGB"
       inkscape:label="Blur"
       id="filter11719-5-2-9"
       x="-0.99368436"
       y="-0.2676257"
       width="2.9873687"
       height="1.5352514">
      <feGaussianBlur
         stdDeviation="1 1"
         result="fbSourceGraphic"
         id="feGaussianBlur11717-2-4-8" />
      <feColorMatrix
         result="fbSourceGraphicAlpha"
         in="fbSourceGraphic"
         values="0 0 0 -1 0 0 0 0 -1 0 0 0 0 -1 0 0 0 0 1 0"
         id="feColorMatrix11739-0-1-1" />
      <feGaussianBlur
         id="feGaussianBlur11741-5-0-4"
         stdDeviation="1 1"
         result="blur"
         in="fbSourceGraphic" />
    </filter>
    <filter
       style="color-interpolation-filters:sRGB"
       inkscape:label="Blur"
       id="filter11719-8-28"
       x="-0.99368436"
       y="-0.2676257"
       width="2.9873687"
       height="1.5352514">
      <feGaussianBlur
         stdDeviation="1 1"
         result="fbSourceGraphic"
         id="feGaussianBlur11717-0-9" />
      <feColorMatrix
         result="fbSourceGraphicAlpha"
         in="fbSourceGraphic"
         values="0 0 0 -1 0 0 0 0 -1 0 0 0 0 -1 0 0 0 0 1 0"
         id="feColorMatrix11739-4-8" />
      <feGaussianBlur
         id="feGaussianBlur11741-2-5"
         stdDeviation="1 1"
         result="blur"
         in="fbSourceGraphic" />
    </filter>
    <filter
       style="color-interpolation-filters:sRGB"
       inkscape:label="Blur"
       id="filter11719-4"
       x="-0.99368436"
       y="-0.2676257"
       width="2.9873687"
       height="1.5352514">
      <feGaussianBlur
         stdDeviation="1 1"
         result="fbSourceGraphic"
         id="feGaussianBlur11717-6" />
      <feColorMatrix
         result="fbSourceGraphicAlpha"
         in="fbSourceGraphic"
         values="0 0 0 -1 0 0 0 0 -1 0 0 0 0 -1 0 0 0 0 1 0"
         id="feColorMatrix11739-14" />
      <feGaussianBlur
         id="feGaussianBlur11741-3"
         stdDeviation="1 1"
         result="blur"
         in="fbSourceGraphic" />
    </filter>
    <linearGradient
       inkscape:collect="always"
       xlink:href="#linearGradient22215-5"
       id="linearGradient78721"
       gradientUnits="userSpaceOnUse"
       x1="105"
       y1="380"
       x2="105"
       y2="0" />
    <linearGradient
       inkscape:collect="always"
       xlink:href="#linearGradient22215-5"
       id="linearGradient33353"
       gradientUnits="userSpaceOnUse"
       x1="105"
       y1="380"
       x2="105"
       y2="0" />
  </defs>
  <g
     id="b3947816-d40f-41db-852f-d14f402c3ab2"
     data-name="FND BG"
     style="fill:url(#linearGradient22217);fill-opacity:1">
    <rect
       width="105"
       height="380"
       id="rect9"
       style="fill:url(#linearGradient78721);fill-opacity:1"
       x="0"
       y="0" />
  </g>
  <g
     id="b3947816-d40f-41db-852f-d14f402c3ab2-0"
     data-name="FND BG"
     style="fill:url(#linearGradient33353);fill-opacity:1"
     transform="translate(0,-1.4006569)">
    <path
       id="rect9-1"
       style="opacity:0.02;fill:#ffffff;fill-opacity:1"
       d="M 105,27.470703 0,139.6543 v 21.63281 L 105,49.103516 Z" />
  </g>
  <path
     id="rect18523-8"
     style="opacity:0.04;fill:#ffffff;stroke-width:0.527778"
     d="M 60.787109,0 0,64.945312 V 86.578125 L 81.035156,0 Z" />
  <path
     id="rect18523-8-8"
     style="opacity:0.07;fill:#ffffff;stroke-width:0.527778"
     d="M 15.60352,0 0,16.671875 V 38.304688 L 35.851562,0 Z" />
  <rect
     style="fill:#44444a;fill-opacity:1;stroke-width:0.0687547"
     id="rect8523"
     width="93.931335"
     height="1"
     x="5.5343323"
     y="33.58757" />
  <rect
     style="fill:#44444a;fill-opacity:1;stroke-width:0.0687547"
     id="rect8523-2"
     width="93.931335"
     height="1"
     x="5.5343323"
     y="312.07581" />
  <g
     aria-label="VCF"
     id="text14110"
     style="font-size:16px;line-height:1.25;fill:#929090">
    <path
       d="m 41.339844,26.449009 -4.4375,-11.453125 h 1.640625 l 2.976562,8.320312 q 0.359375,1 0.601563,1.875 0.265625,-0.9375 0.617187,-1.875 l 3.09375,-8.320312 h 1.546875 l -4.484375,11.453125 z"
       style="font-family:Arial;-inkscape-font-specification:Arial"
       id="path2033" />
    <path
       d="m 56.910156,22.433384 1.515625,0.382812 q -0.476562,1.867188 -1.71875,2.851563 -1.234375,0.976562 -3.023437,0.976562 -1.851563,0 -3.015625,-0.75 -1.15625,-0.757812 -1.765625,-2.1875 -0.601563,-1.429687 -0.601563,-3.070312 0,-1.789063 0.679688,-3.117188 0.6875,-1.335937 1.945312,-2.023437 1.265625,-0.695313 2.78125,-0.695313 1.71875,0 2.890625,0.875 1.171875,0.875 1.632813,2.460938 l -1.492188,0.351562 q -0.398437,-1.25 -1.15625,-1.820312 -0.757812,-0.570313 -1.90625,-0.570313 -1.320312,0 -2.210937,0.632813 -0.882813,0.632812 -1.242188,1.703125 -0.359375,1.0625 -0.359375,2.195312 0,1.460938 0.421875,2.554688 0.429688,1.085937 1.328125,1.625 0.898438,0.539062 1.945313,0.539062 1.273437,0 2.15625,-0.734375 0.882812,-0.734375 1.195312,-2.179687 z"
       style="font-family:Arial;-inkscape-font-specification:Arial"
       id="path2035" />
    <path
       d="M 60.371094,26.449009 V 14.995884 h 7.726562 v 1.351562 h -6.210937 v 3.546875 h 5.375 v 1.351563 h -5.375 v 5.203125 z"
       style="font-family:Arial;-inkscape-font-specification:Arial"
       id="path2037" />
  </g>
  <g
     aria-label="IN"
     id="text14110-5-6-7"
     style="font-size:8px;line-height:1.25;fill:#929090"
     transform="translate(-0.010628,4)">
    <path
       d="m 49.2118,43.113319 v -5.726562 h 0.757812 v 5.726562 z"
       style="font-family:Arial;-inkscape-font-specification:Arial"
       id="path2010"
       inkscape:connector-curvature="0" />
    <path
       d="m 51.297737,43.113319 v -5.726562 h 0.777344 l 3.007812,4.496094 v -4.496094 h 0.726563 v 5.726562 h -0.777344 l -3.007812,-4.5 v 4.5 z"
       style="font-family:Arial;-inkscape-font-specification:Arial"
       id="path2012"
       inkscape:connector-curvature="0" />
  </g>
  <g
     aria-label="CUTOFF"
     id="text14110-5-6-7-7"
     style="font-size:8px;line-height:1.25;fill:#929090">
    <path
       d="m 15.354649,85.08419 0.757812,0.191407 q -0.238281,0.933593 -0.859375,1.425781 -0.617187,0.488281 -1.511719,0.488281 -0.925781,0 -1.507812,-0.375 -0.578125,-0.378906 -0.882813,-1.09375 -0.300781,-0.714844 -0.300781,-1.535156 0,-0.894531 0.339844,-1.558594 0.34375,-0.667969 0.972656,-1.011719 0.632813,-0.347656 1.390625,-0.347656 0.859375,0 1.445313,0.4375 0.585937,0.4375 0.816406,1.230469 l -0.746094,0.175781 q -0.199219,-0.625 -0.578125,-0.910156 -0.378906,-0.285156 -0.953125,-0.285156 -0.660156,0 -1.105469,0.316406 -0.441406,0.316406 -0.621093,0.851562 -0.179688,0.53125 -0.179688,1.097657 0,0.730468 0.210938,1.277343 0.214843,0.542969 0.664062,0.8125 0.449219,0.269532 0.972656,0.269532 0.636719,0 1.078125,-0.367188 0.441407,-0.367187 0.597657,-1.089844 z"
       style="font-family:Arial;-inkscape-font-specification:Arial"
       id="path2058" />
    <path
       d="m 20.803867,81.36544 h 0.757813 v 3.308594 q 0,0.863281 -0.195313,1.371094 -0.195312,0.507812 -0.707031,0.828125 -0.507812,0.316406 -1.335937,0.316406 -0.804688,0 -1.316407,-0.277344 -0.511718,-0.277343 -0.730468,-0.800781 -0.21875,-0.527344 -0.21875,-1.4375 V 81.36544 h 0.757812 v 3.304688 q 0,0.746094 0.136719,1.101562 0.140625,0.351563 0.476562,0.542969 0.339844,0.191406 0.828125,0.191406 0.835938,0 1.191407,-0.378906 0.355468,-0.378906 0.355468,-1.457031 z"
       style="font-family:Arial;-inkscape-font-specification:Arial"
       id="path2060" />
    <path
       d="M 24.28043,87.092003 V 82.041222 H 22.393711 V 81.36544 h 4.539063 v 0.675782 h -1.894532 v 5.050781 z"
       style="font-family:Arial;-inkscape-font-specification:Arial"
       id="path2062" />
    <path
       d="m 27.335117,84.30294 q 0,-1.425781 0.765625,-2.230468 0.765625,-0.808594 1.976563,-0.808594 0.792969,0 1.429687,0.378906 0.636719,0.378906 0.96875,1.058594 0.335938,0.675781 0.335938,1.535156 0,0.871094 -0.351563,1.558594 -0.351562,0.6875 -0.996093,1.042969 -0.644532,0.351562 -1.390625,0.351562 -0.808594,0 -1.445313,-0.390625 -0.636719,-0.390625 -0.964844,-1.066406 -0.328125,-0.675781 -0.328125,-1.429688 z m 0.78125,0.01172 q 0,1.035156 0.554688,1.632813 0.558594,0.59375 1.398437,0.59375 0.855469,0 1.40625,-0.601563 0.554688,-0.601562 0.554688,-1.707031 0,-0.699219 -0.238281,-1.21875 -0.234375,-0.523438 -0.691407,-0.808594 -0.453125,-0.289062 -1.019531,-0.289062 -0.804687,0 -1.386719,0.554687 -0.578125,0.550781 -0.578125,1.84375 z"
       style="font-family:Arial;-inkscape-font-specification:Arial"
       id="path2064" />
    <path
       d="M 33.827305,87.092003 V 81.36544 h 3.863281 v 0.675782 h -3.105469 v 1.773437 h 2.6875 v 0.675781 h -2.6875 v 2.601563 z"
       style="font-family:Arial;-inkscape-font-specification:Arial"
       id="path2066" />
    <path
       d="M 38.714024,87.092003 V 81.36544 h 3.863281 v 0.675782 h -3.105469 v 1.773437 h 2.6875 v 0.675781 h -2.6875 v 2.601563 z"
       style="font-family:Arial;-inkscape-font-specification:Arial"
       id="path2068" />
  </g>
  <g
     aria-label="+"
     id="text14110-5-6-7-7-9"
     style="font-size:8px;line-height:1.25;fill:#929090">
    <path
       d="m 38.65543,154.16623 v -1.57031 h -1.558594 v -0.65625 h 1.558594 v -1.5586 h 0.664062 v 1.5586 h 1.558594 v 0.65625 h -1.558594 v 1.57031 z"
       style="font-family:Arial;-inkscape-font-specification:Arial"
       id="path2084" />
  </g>
  <g
     aria-label="-"
     id="text14110-5-6-7-7-9-1"
     style="font-size:8px;line-height:1.25;fill:#929090">
    <path
       d="m 10.869411,152.56818 v -0.70703 h 2.160157 v 0.70703 z"
       style="font-family:Arial;-inkscape-font-specification:Arial"
       id="path2081" />
  </g>
  <g
     aria-label="+"
     id="text14110-5-6-7-7-9-3"
     style="font-size:8px;line-height:1.25;fill:#929090">
    <path
       d="m 92.655426,154.16623 v -1.57031 h -1.558594 v -0.65625 h 1.558594 v -1.5586 h 0.664063 v 1.5586 h 1.558593 v 0.65625 h -1.558593 v 1.57031 z"
       style="font-family:Arial;-inkscape-font-specification:Arial"
       id="path2078" />
  </g>
  <g
     aria-label="-"
     id="text14110-5-6-7-7-9-1-1"
     style="font-size:8px;line-height:1.25;fill:#929090">
    <path
       d="m 64.869415,152.56818 v -0.70703 h 2.160157 v 0.70703 z"
       style="font-family:Arial;-inkscape-font-specification:Arial"
       id="path2087" />
  </g>
  <g
     id="g993">
    <g
       id="g963"
       transform="translate(0,1.2280273e-4)">
      <rect
         style="fill:#d0d0d0;fill-opacity:0.75294118"
         id="rect25890"
         width="36"
         height="40"
         x="12.5"
         y="320.16788"
         rx="8" />
      <g
         aria-label="LPF"
         id="text14110-5-6"
         style="font-size:8px;line-height:1.25;fill:#000000;fill-opacity:1">
        <path
           d="m 23.640625,328.71078 v -5.72656 h 0.757812 v 5.05078 h 2.820313 v 0.67578 z"
           style="font-family:Arial;-inkscape-font-specification:Arial;fill:#000000;fill-opacity:1"
           id="path2143"
           inkscape:connector-curvature="0" />
        <path
           d="m 28.121094,328.71078 v -5.72656 h 2.160156 q 0.570312,0 0.871094,0.0547 0.421875,0.0703 0.707031,0.26953 0.285156,0.19531 0.457031,0.55078 0.175781,0.35547 0.175781,0.78125 0,0.73047 -0.464843,1.23828 -0.464844,0.50391 -1.679688,0.50391 h -1.46875 v 2.32812 z m 0.757812,-3.0039 h 1.480469 q 0.734375,0 1.042969,-0.27344 0.308593,-0.27344 0.308593,-0.76953 0,-0.35938 -0.183593,-0.61328 -0.179688,-0.25781 -0.476563,-0.33985 Q 30.859375,323.66 30.34375,323.66 h -1.464844 z"
           style="font-family:Arial;-inkscape-font-specification:Arial;fill:#000000;fill-opacity:1"
           id="path2145"
           inkscape:connector-curvature="0" />
        <path
           d="m 33.496094,328.71078 v -5.72656 h 3.863281 V 323.66 h -3.105469 v 1.77344 h 2.6875 v 0.67578 h -2.6875 v 2.60156 z"
           style="font-family:Arial;-inkscape-font-specification:Arial;fill:#000000;fill-opacity:1"
           id="path2147"
           inkscape:connector-curvature="0" />
      </g>
    </g>
    <g
       id="g979"
       transform="translate(0,1.2280273e-4)">
      <rect
         style="fill:#d0d0d0;fill-opacity:0.75294118"
         id="rect25890-5"
         width="36"
         height="40"
         x="56.5"
         y="320.16788"
         rx="8" />
      <g
         aria-label="HPF"
         id="text14110-5-6-4"
         style="font-size:8px;line-height:1.25;fill:#000000;fill-opacity:1">
        <path
           d="m 67.003906,328.71078 v -5.72656 h 0.757813 v 2.35156 h 2.976562 v -2.35156 h 0.757813 v 5.72656 h -0.757813 v -2.69921 h -2.976562 v 2.69921 z"
           style="font-family:Arial;-inkscape-font-specification:Arial;fill:#000000;fill-opacity:1"
           id="path2150"
           inkscape:connector-curvature="0" />
        <path
           d="m 72.757812,328.71078 v -5.72656 h 2.160157 q 0.570312,0 0.871093,0.0547 0.421875,0.0703 0.707032,0.26953 0.285156,0.19531 0.457031,0.55078 0.175781,0.35547 0.175781,0.78125 0,0.73047 -0.464844,1.23828 -0.464843,0.50391 -1.679687,0.50391 h -1.46875 v 2.32812 z m 0.757813,-3.0039 h 1.480469 q 0.734375,0 1.042968,-0.27344 0.308594,-0.27344 0.308594,-0.76953 0,-0.35938 -0.183594,-0.61328 -0.179687,-0.25781 -0.476562,-0.33985 -0.191406,-0.0508 -0.707031,-0.0508 h -1.464844 z"
           style="font-family:Arial;-inkscape-font-specification:Arial;fill:#000000;fill-opacity:1"
           id="path2152"
           inkscape:connector-curvature="0" />
        <path
           d="m 78.132812,328.71078 v -5.72656 h 3.863282 V 323.66 h -3.105469 v 1.77344 h 2.6875 v 0.67578 h -2.6875 v 2.60156 z"
           style="font-family:Arial;-inkscape-font-specification:Arial;fill:#000000;fill-opacity:1"
           id="path2154"
           inkscape:connector-curvature="0" />
      </g>
    </g>
  </g>
  <rect
     style="opacity:1;fill:#3d3d3d;fill-opacity:1;fill-rule:nonzero;stroke:none;stroke-width:0.79704487;stroke-opacity:1"
     id="rect58277"
     width="42"
     height="1"
     x="-171.47826"
     y="25"
     transform="rotate(-90)" />
  <g
     aria-label="DRIVE"
     id="text14110-5-6-7-7-1"
     style="font-size:8px;line-height:1.25;fill:#929090"
     transform="translate(0.7236405)">
    <path
       d="m 40.075188,203.24034 v -5.72656 h 1.972656 q 0.667969,0 1.019531,0.082 0.492188,0.11328 0.839844,0.41016 0.453125,0.38281 0.675781,0.98046 0.226563,0.59375 0.226563,1.35938 0,0.65234 -0.152344,1.15625 -0.152344,0.50391 -0.390625,0.83594 -0.238281,0.32812 -0.523438,0.51953 -0.28125,0.1875 -0.683593,0.28515 -0.398438,0.0977 -0.917969,0.0977 z M 40.833,202.56456 h 1.222656 q 0.566407,0 0.886719,-0.10547 0.324219,-0.10547 0.515625,-0.29687 0.269531,-0.26954 0.417969,-0.72266 0.152344,-0.45703 0.152344,-1.10547 0,-0.89844 -0.296875,-1.37891 -0.292969,-0.48437 -0.714844,-0.64843 -0.304688,-0.11719 -0.980469,-0.11719 H 40.833 Z"
       style="font-family:Arial;-inkscape-font-specification:Arial"
       id="path2108"
       inkscape:connector-curvature="0" />
    <path
       d="m 45.86425,203.24034 v -5.72656 h 2.539063 q 0.765625,0 1.164062,0.15625 0.398438,0.15234 0.636719,0.54297 0.238281,0.39062 0.238281,0.86328 0,0.60937 -0.394531,1.02734 -0.394531,0.41797 -1.21875,0.53125 0.300781,0.14453 0.457031,0.28516 0.332031,0.30469 0.628906,0.76172 l 0.996094,1.55859 H 49.958 l -0.757812,-1.19141 q -0.332032,-0.51562 -0.546875,-0.78906 -0.214844,-0.27344 -0.386719,-0.38281 -0.167969,-0.10938 -0.34375,-0.15234 -0.128906,-0.0273 -0.421875,-0.0273 h -0.878906 v 2.54297 z m 0.757813,-3.19922 h 1.628906 q 0.519531,0 0.8125,-0.10547 0.292969,-0.10937 0.445312,-0.34375 0.152344,-0.23828 0.152344,-0.51562 0,-0.40625 -0.296875,-0.66797 -0.292969,-0.26172 -0.929687,-0.26172 h -1.8125 z"
       style="font-family:Arial;-inkscape-font-specification:Arial"
       id="path2110"
       inkscape:connector-curvature="0" />
    <path
       d="m 51.758781,203.24034 v -5.72656 h 0.757813 v 5.72656 z"
       style="font-family:Arial;-inkscape-font-specification:Arial"
       id="path2112"
       inkscape:connector-curvature="0" />
    <path
       d="m 55.48925,203.24034 -2.21875,-5.72656 h 0.820313 l 1.488281,4.16015 q 0.179687,0.5 0.300781,0.9375 0.132813,-0.46875 0.308594,-0.9375 l 1.546875,-4.16015 h 0.773437 l -2.242187,5.72656 z"
       style="font-family:Arial;-inkscape-font-specification:Arial"
       id="path2114"
       inkscape:connector-curvature="0" />
    <path
       d="m 59.204094,203.24034 v -5.72656 h 4.140625 v 0.67578 h -3.382813 v 1.75391 h 3.167969 v 0.67187 h -3.167969 v 1.94922 h 3.515625 v 0.67578 z"
       style="font-family:Arial;-inkscape-font-specification:Arial"
       id="path2116"
       inkscape:connector-curvature="0" />
  </g>
  <rect
     style="fill:#000000;fill-opacity:1;fill-rule:nonzero;stroke:none;stroke-width:0.224758;stroke-opacity:1;filter:url(#filter11719-5-2-9)"
     id="rect822-1-0-3-2"
     width="4.8305078"
     height="17.935497"
     x="52.317799"
     y="63.288597"
     rx="1.7777776"
     transform="matrix(0.74825361,0,0,-0.74825361,10.822156,328.98251)" />
  <g
     aria-label="RES"
     id="text14110-5-6-7-7-5"
     style="font-size:8px;line-height:1.25;fill:#929090">
    <path
       d="M 73.280426,87.092003 V 81.36544 h 2.539063 q 0.765625,0 1.164062,0.15625 0.398438,0.152344 0.636719,0.542969 0.238281,0.390625 0.238281,0.863281 0,0.609375 -0.394531,1.027344 -0.394531,0.417969 -1.21875,0.53125 0.300781,0.144531 0.457031,0.285156 0.332031,0.304688 0.628906,0.761719 l 0.996094,1.558594 h -0.953125 l -0.757812,-1.191406 q -0.332032,-0.515625 -0.546875,-0.789063 -0.214844,-0.273437 -0.386719,-0.382812 -0.167969,-0.109375 -0.34375,-0.152344 -0.128906,-0.02734 -0.421875,-0.02734 h -0.878906 v 2.542969 z m 0.757813,-3.199219 h 1.628906 q 0.519531,0 0.8125,-0.105469 0.292969,-0.109375 0.445312,-0.34375 0.152344,-0.238281 0.152344,-0.515625 0,-0.40625 -0.296875,-0.667968 -0.292969,-0.261719 -0.929687,-0.261719 h -1.8125 z"
       style="font-family:Arial;-inkscape-font-specification:Arial"
       id="path2071" />
    <path
       d="M 79.061676,87.092003 V 81.36544 h 4.140625 v 0.675782 h -3.382812 v 1.753906 h 3.167968 v 0.671875 h -3.167968 v 1.949219 h 3.515625 v 0.675781 z"
       style="font-family:Arial;-inkscape-font-specification:Arial"
       id="path2073" />
    <path
       d="m 84.124176,85.252159 0.714844,-0.0625 q 0.05078,0.429688 0.234375,0.707031 0.1875,0.273438 0.578125,0.445313 0.390625,0.167969 0.878906,0.167969 0.433594,0 0.765625,-0.128907 0.332031,-0.128906 0.492188,-0.351562 0.164062,-0.226563 0.164062,-0.492188 0,-0.269531 -0.15625,-0.46875 -0.15625,-0.203125 -0.515625,-0.339843 -0.230469,-0.08984 -1.019531,-0.277344 -0.789063,-0.191406 -1.105469,-0.359375 -0.410156,-0.214844 -0.613281,-0.53125 -0.199219,-0.320313 -0.199219,-0.714844 0,-0.433594 0.246094,-0.808594 0.246094,-0.378906 0.71875,-0.574218 0.472656,-0.195313 1.050781,-0.195313 0.636719,0 1.121094,0.207031 0.488281,0.203125 0.75,0.601563 0.261719,0.398437 0.28125,0.902344 l -0.726563,0.05469 q -0.05859,-0.542969 -0.398437,-0.820312 -0.335938,-0.277344 -0.996094,-0.277344 -0.6875,0 -1.003906,0.253906 -0.3125,0.25 -0.3125,0.605469 0,0.308594 0.222656,0.507812 0.21875,0.199219 1.140625,0.410157 0.925781,0.207031 1.269531,0.363281 0.5,0.230469 0.738282,0.585937 0.238281,0.351563 0.238281,0.8125 0,0.457032 -0.261719,0.863282 -0.261719,0.402343 -0.753906,0.628906 -0.488281,0.222656 -1.101563,0.222656 -0.777343,0 -1.304687,-0.226562 -0.523438,-0.226563 -0.824219,-0.679688 -0.296875,-0.457031 -0.3125,-1.03125 z"
       style="font-family:Arial;-inkscape-font-specification:Arial"
       id="path2075" />
  </g>
  <rect
     style="fill:#3d3d3d;fill-opacity:1;fill-rule:nonzero;stroke:none;stroke-width:0.79704523;stroke-opacity:1"
     id="rect58277-3"
     width="42"
     height="1"
     x="-171.47826"
     y="78"
     transform="rotate(-90)" />
  <g
     aria-label="+"
     id="text14110-5-6-7-7-9-12"
     style="font-size:8px;line-height:1.25;fill:#929090" />
  <g
     id="g946"
     transform="translate(0.4830515)">
    <g
       id="g952"
       transform="translate(0.63421931)">
      <rect
         style="fill:#3d3d3d;fill-opacity:1;fill-rule:nonzero;stroke:none;stroke-width:0.76520199;stroke-opacity:1"
         id="rect58277-9"
         width="38.711102"
         height="1"
         x="-283.62659"
         y="50.92244"
         transform="rotate(-90)" />
      <path
         d="m 65.150855,265.668 v -1.57031 h -1.558594 v -0.65625 h 1.558594 v -1.5586 h 0.664062 v 1.5586 h 1.558594 v 0.65625 h -1.558594 v 1.57031 z"
         style="font-size:8px;line-height:1.25;font-family:Arial;-inkscape-font-specification:Arial;fill:#929090"
         id="path2119"
         inkscape:connector-curvature="0" />
      <g
         transform="matrix(1.7503357,0,0,1,-29.392547,0)"
         aria-label="-"
         id="text14110-5-6-7-7-9-1-9"
         style="font-size:8px;line-height:1.25;fill:#929090">
        <path
           d="m 37.012611,264.06992 v -0.70704 h 2.160157 v 0.70704 z"
           style="font-family:Arial;-inkscape-font-specification:Arial"
           id="path2122"
           inkscape:connector-curvature="0" />
      </g>
    </g>
  </g>
</svg>
