<?xml version="1.0" encoding="UTF-8" standalone="no"?>
<!-- Created with Inkscape (http://www.inkscape.org/) -->

<svg
   xmlns:dc="http://purl.org/dc/elements/1.1/"
   xmlns:cc="http://creativecommons.org/ns#"
   xmlns:rdf="http://www.w3.org/1999/02/22-rdf-syntax-ns#"
   xmlns:svg="http://www.w3.org/2000/svg"
   xmlns="http://www.w3.org/2000/svg"
   xmlns:sodipodi="http://sodipodi.sourceforge.net/DTD/sodipodi-0.dtd"
   xmlns:inkscape="http://www.inkscape.org/namespaces/inkscape"
   width="135"
   height="380.00003"
   viewBox="0 0 35.71875 100.54167"
   version="1.1"
   id="svg8033"
   inkscape:version="0.92.2 (5c3e80d, 2017-08-06)"
   sodipodi:docname="ADSR-Dark.svg">
  <defs
     id="defs8027" />
  <sodipodi:namedview
     id="base"
     pagecolor="#ffffff"
     bordercolor="#666666"
     borderopacity="1.0"
     inkscape:pageopacity="0.0"
     inkscape:pageshadow="2"
     inkscape:zoom="5.6"
     inkscape:cx="60.778345"
     inkscape:cy="163.55573"
     inkscape:document-units="mm"
     inkscape:current-layer="layer1"
     showgrid="false"
     fit-margin-top="0"
     fit-margin-left="0"
     fit-margin-right="0"
     fit-margin-bottom="0"
     inkscape:window-width="1920"
     inkscape:window-height="1028"
     inkscape:window-x="-8"
     inkscape:window-y="-8"
     inkscape:window-maximized="1"
     units="px"
     inkscape:measure-start="0,0"
     inkscape:measure-end="0,0" />
  <metadata
     id="metadata8030">
    <rdf:RDF>
      <cc:Work
         rdf:about="">
        <dc:format>image/svg+xml</dc:format>
        <dc:type
           rdf:resource="http://purl.org/dc/dcmitype/StillImage" />
        <dc:title />
      </cc:Work>
    </rdf:RDF>
  </metadata>
  <g
     inkscape:label="Layer 1"
     inkscape:groupmode="layer"
     id="layer1"
     transform="translate(-84.642804,-25.235117)">
    <path
       inkscape:connector-curvature="0"
       id="path33441"
       d="M 84.716122,25.308436 H 120.43487 V 125.70454 H 84.716122 Z m 0,0"
       style="fill:#333333;stroke-width:0.29322451" />
    <g
       inkscape:transform-center-y="119.65244"
       inkscape:transform-center-x="-44.974764"
       id="g1358"
       transform="matrix(1.4311608,-1.4311608,1.4311608,1.4311608,-136.51079,-465.11073)"
       style="fill:none;fill-opacity:0.6;stroke:#000000;stroke-width:0.04940792">
      <g
         id="g1356">
        <g
           id="g1324"
           transform="translate(185.73646,-9.5250064)">
          <g
             transform="translate(-137.10274)"
             id="g1308">
            <path
               inkscape:connector-curvature="0"
               style="stroke-width:0.1867386;stroke-linecap:round;paint-order:markers stroke fill"
               d="m -718.94922,154.57227 c -14.32932,0.45458 -33.60356,20.71937 -31.29883,34.27148 -2.45838,14.45558 19.63622,36.55017 34.0918,34.0918 h 134.0918 v -9.0918 h -100.00196 v -25 c 2.45839,-14.4556 -19.63425,-36.54823 -34.08984,-34.08984 -0.90347,-0.15365 -1.83768,-0.21195 -2.79297,-0.18164 z m 1.00586,8.95898 c 0.63005,0.0232 1.22828,0.12471 1.78711,0.3125 8.94127,-3.00469 28.00471,16.05874 25,25 v 25 h -25 c -8.94126,3.00469 -28.00469,-16.05873 -25,-25 -2.8169,-8.38244 13.76214,-25.66117 23.21289,-25.3125 z m 26.78711,150.3125 v 9.0918 h 9.08984 v -9.0918 z"
               transform="matrix(0.26458333,0,0,0.26458333,0,196.45832)"
               id="path1296" />
            <path
               inkscape:connector-curvature="0"
               style="stroke-width:0.1867386;stroke-linecap:round;paint-order:markers stroke fill"
               d="m -718.55273,136.5293 c -24.81903,0.43381 -51.20004,27.62664 -49.87696,52.31445 -1.36576,25.48418 26.78925,53.63919 52.27344,52.27344 h 134.0918 v -9.0918 h -134.0918 c -19.96987,1.91207 -45.09371,-23.21177 -43.18164,-43.18164 -1.91207,-19.96987 23.21177,-45.0937 43.18164,-43.18164 19.96988,-1.91208 45.09374,23.21176 43.18164,43.18164 v 25 h 9.0918 v -25 c 1.36576,-25.4842 -26.78924,-53.63725 -52.27344,-52.27148 -0.79638,-0.0427 -1.59587,-0.057 -2.39648,-0.043 z m 45.57812,177.31445 v 9.0918 h 9.0918 v -9.0918 z"
               transform="matrix(0.26458333,0,0,0.26458333,0,196.45832)"
               id="path1298" />
            <path
               inkscape:connector-curvature="0"
               style="stroke-width:0.1867386;stroke-linecap:round;paint-order:markers stroke fill"
               d="m -716.15625,118.38867 c -36.51277,-0.27315 -70.72823,33.94231 -70.45508,70.45508 -0.27315,36.51277 33.94231,70.72822 70.45508,70.45508 h 134.0918 v -9.0918 h -134.0918 c -30.99848,0.81946 -62.18274,-30.3648 -61.36328,-61.36328 -0.81946,-30.99848 30.3648,-62.18273 61.36328,-61.36328 30.9985,-0.81946 62.18277,30.36478 61.36328,61.36328 v 25 h 9.0918 v -25 c 0.27315,-36.51278 -33.94229,-70.72823 -70.45508,-70.45508 z m 61.36328,195.45508 v 9.0918 h 9.0918 v -9.0918 z"
               transform="matrix(0.26458333,0,0,0.26458333,0,196.45832)"
               id="path1300" />
            <path
               inkscape:connector-curvature="0"
               style="stroke-width:0.1867386;stroke-linecap:round;paint-order:markers stroke fill"
               d="m -716.15625,100.20703 c -47.54138,0.81946 -87.81726,41.09534 -88.63672,88.63672 0.81946,47.54137 41.09535,87.81724 88.63672,88.63672 h 134.0918 v -9.0918 h -134.0918 v 0.002 c -42.02709,-0.27313 -79.27177,-37.51979 -79.54492,-79.54687 0.27315,-42.02708 37.51784,-79.27175 79.54492,-79.54492 42.02711,0.27315 79.2718,37.51781 79.54492,79.54492 v 25 h 9.0918 v -25 c -0.81947,-47.54138 -41.09532,-87.81726 -88.63672,-88.63672 z m 79.54492,213.63672 v 9.0918 h 9.0918 v -9.0918 z"
               transform="matrix(0.26458333,0,0,0.26458333,0,196.45832)"
               id="path1302" />
            <path
               inkscape:connector-curvature="0"
               style="stroke-width:0.1867386;stroke-linecap:round;paint-order:markers stroke fill"
               d="m -716.15625,82.025391 c -58.56997,1.912073 -104.90628,48.248379 -106.81836,106.818359 1.91207,58.56996 48.2484,104.90626 106.81836,106.81836 h 134.0918 v -9.08984 h -134.0918 c -53.05565,-1.36577 -96.3608,-44.67288 -97.72656,-97.72852 1.36576,-53.05564 44.67093,-96.360781 97.72656,-97.726562 53.05567,1.365765 96.36083,44.670882 97.72656,97.726562 v 25 h 9.0918 v -25 C -611.24997,130.27379 -657.58625,83.937471 -716.15625,82.025391 Z m 97.72656,231.818359 v 9.0918 h 9.0918 v -9.0918 z"
               transform="matrix(0.26458333,0,0,0.26458333,0,196.45832)"
               id="path1304" />
            <path
               inkscape:connector-curvature="0"
               style="stroke-width:0.1867386;stroke-linecap:round;paint-order:markers stroke fill"
               d="m -716.15625,63.84375 c -69.59855,3.004689 -121.99531,55.40145 -125,125 3.00469,69.59853 55.40147,121.99529 125,125 h 115.9082 v 9.0918 h 9.0918 v -9.0918 h 9.0918 v -9.08984 h -134.0918 c -64.08426,-2.45838 -113.45177,-51.82592 -115.91016,-115.91016 2.45839,-64.08424 51.82592,-113.449802 115.91016,-115.908203 64.08428,2.458384 113.44986,51.823903 115.9082,115.908203 v 25 h 9.0918 v -25 c -3.0047,-69.59854 -55.40142,-121.99531 -125,-125 z"
               transform="matrix(0.26458333,0,0,0.26458333,0,196.45832)"
               id="path1306" />
          </g>
          <g
             transform="rotate(90,-222.55592,213.35031)"
             id="g1322">
            <path
               inkscape:connector-curvature="0"
               id="path1310"
               transform="matrix(0.26458333,0,0,0.26458333,0,196.45832)"
               d="m -718.94922,154.57227 c -14.32932,0.45458 -33.60356,20.71937 -31.29883,34.27148 -2.45838,14.45558 19.63622,36.55017 34.0918,34.0918 h 134.0918 v -9.0918 h -100.00196 v -25 c 2.45839,-14.4556 -19.63425,-36.54823 -34.08984,-34.08984 -0.90347,-0.15365 -1.83768,-0.21195 -2.79297,-0.18164 z m 1.00586,8.95898 c 0.63005,0.0232 1.22828,0.12471 1.78711,0.3125 8.94127,-3.00469 28.00471,16.05874 25,25 v 25 h -25 c -8.94126,3.00469 -28.00469,-16.05873 -25,-25 -2.8169,-8.38244 13.76214,-25.66117 23.21289,-25.3125 z m 26.78711,150.3125 v 9.0918 h 9.08984 v -9.0918 z"
               style="stroke-width:0.1867386;stroke-linecap:round;paint-order:markers stroke fill" />
            <path
               inkscape:connector-curvature="0"
               id="path1312"
               transform="matrix(0.26458333,0,0,0.26458333,0,196.45832)"
               d="m -718.55273,136.5293 c -24.81903,0.43381 -51.20004,27.62664 -49.87696,52.31445 -1.36576,25.48418 26.78925,53.63919 52.27344,52.27344 h 134.0918 v -9.0918 h -134.0918 c -19.96987,1.91207 -45.09371,-23.21177 -43.18164,-43.18164 -1.91207,-19.96987 23.21177,-45.0937 43.18164,-43.18164 19.96988,-1.91208 45.09374,23.21176 43.18164,43.18164 v 25 h 9.0918 v -25 c 1.36576,-25.4842 -26.78924,-53.63725 -52.27344,-52.27148 -0.79638,-0.0427 -1.59587,-0.057 -2.39648,-0.043 z m 45.57812,177.31445 v 9.0918 h 9.0918 v -9.0918 z"
               style="stroke-width:0.1867386;stroke-linecap:round;paint-order:markers stroke fill" />
            <path
               inkscape:connector-curvature="0"
               id="path1314"
               transform="matrix(0.26458333,0,0,0.26458333,0,196.45832)"
               d="m -716.15625,118.38867 c -36.51277,-0.27315 -70.72823,33.94231 -70.45508,70.45508 -0.27315,36.51277 33.94231,70.72822 70.45508,70.45508 h 134.0918 v -9.0918 h -134.0918 c -30.99848,0.81946 -62.18274,-30.3648 -61.36328,-61.36328 -0.81946,-30.99848 30.3648,-62.18273 61.36328,-61.36328 30.9985,-0.81946 62.18277,30.36478 61.36328,61.36328 v 25 h 9.0918 v -25 c 0.27315,-36.51278 -33.94229,-70.72823 -70.45508,-70.45508 z m 61.36328,195.45508 v 9.0918 h 9.0918 v -9.0918 z"
               style="stroke-width:0.1867386;stroke-linecap:round;paint-order:markers stroke fill" />
            <path
               inkscape:connector-curvature="0"
               id="path1316"
               transform="matrix(0.26458333,0,0,0.26458333,0,196.45832)"
               d="m -716.15625,100.20703 c -47.54138,0.81946 -87.81726,41.09534 -88.63672,88.63672 0.81946,47.54137 41.09535,87.81724 88.63672,88.63672 h 134.0918 v -9.0918 h -134.0918 v 0.002 c -42.02709,-0.27313 -79.27177,-37.51979 -79.54492,-79.54687 0.27315,-42.02708 37.51784,-79.27175 79.54492,-79.54492 42.02711,0.27315 79.2718,37.51781 79.54492,79.54492 v 25 h 9.0918 v -25 c -0.81947,-47.54138 -41.09532,-87.81726 -88.63672,-88.63672 z m 79.54492,213.63672 v 9.0918 h 9.0918 v -9.0918 z"
               style="stroke-width:0.1867386;stroke-linecap:round;paint-order:markers stroke fill" />
            <path
               inkscape:connector-curvature="0"
               id="path1318"
               transform="matrix(0.26458333,0,0,0.26458333,0,196.45832)"
               d="m -716.15625,82.025391 c -58.56997,1.912073 -104.90628,48.248379 -106.81836,106.818359 1.91207,58.56996 48.2484,104.90626 106.81836,106.81836 h 134.0918 v -9.08984 h -134.0918 c -53.05565,-1.36577 -96.3608,-44.67288 -97.72656,-97.72852 1.36576,-53.05564 44.67093,-96.360781 97.72656,-97.726562 53.05567,1.365765 96.36083,44.670882 97.72656,97.726562 v 25 h 9.0918 v -25 C -611.24997,130.27379 -657.58625,83.937471 -716.15625,82.025391 Z m 97.72656,231.818359 v 9.0918 h 9.0918 v -9.0918 z"
               style="stroke-width:0.1867386;stroke-linecap:round;paint-order:markers stroke fill" />
            <path
               inkscape:connector-curvature="0"
               id="path1320"
               transform="matrix(0.26458333,0,0,0.26458333,0,196.45832)"
               d="m -716.15625,63.84375 c -69.59855,3.004689 -121.99531,55.40145 -125,125 3.00469,69.59853 55.40147,121.99529 125,125 h 115.9082 v 9.0918 h 9.0918 v -9.0918 h 9.0918 v -9.08984 h -134.0918 c -64.08426,-2.45838 -113.45177,-51.82592 -115.91016,-115.91016 2.45839,-64.08424 51.82592,-113.449802 115.91016,-115.908203 64.08428,2.458384 113.44986,51.823903 115.9082,115.908203 v 25 h 9.0918 v -25 c -3.0047,-69.59854 -55.40142,-121.99531 -125,-125 z"
               style="stroke-width:0.1867386;stroke-linecap:round;paint-order:markers stroke fill" />
          </g>
        </g>
        <g
           transform="rotate(-180,-198.23854,277.13918)"
           id="g1354">
          <g
             id="g1338"
             transform="translate(-137.10274)">
            <path
               id="path1326"
               transform="matrix(0.26458333,0,0,0.26458333,0,196.45832)"
               d="m -718.94922,154.57227 c -14.32932,0.45458 -33.60356,20.71937 -31.29883,34.27148 -2.45838,14.45558 19.63622,36.55017 34.0918,34.0918 h 134.0918 v -9.0918 h -100.00196 v -25 c 2.45839,-14.4556 -19.63425,-36.54823 -34.08984,-34.08984 -0.90347,-0.15365 -1.83768,-0.21195 -2.79297,-0.18164 z m 1.00586,8.95898 c 0.63005,0.0232 1.22828,0.12471 1.78711,0.3125 8.94127,-3.00469 28.00471,16.05874 25,25 v 25 h -25 c -8.94126,3.00469 -28.00469,-16.05873 -25,-25 -2.8169,-8.38244 13.76214,-25.66117 23.21289,-25.3125 z m 26.78711,150.3125 v 9.0918 h 9.08984 v -9.0918 z"
               style="stroke-width:0.1867386;stroke-linecap:round;paint-order:markers stroke fill"
               inkscape:connector-curvature="0" />
            <path
               id="path1328"
               transform="matrix(0.26458333,0,0,0.26458333,0,196.45832)"
               d="m -718.55273,136.5293 c -24.81903,0.43381 -51.20004,27.62664 -49.87696,52.31445 -1.36576,25.48418 26.78925,53.63919 52.27344,52.27344 h 134.0918 v -9.0918 h -134.0918 c -19.96987,1.91207 -45.09371,-23.21177 -43.18164,-43.18164 -1.91207,-19.96987 23.21177,-45.0937 43.18164,-43.18164 19.96988,-1.91208 45.09374,23.21176 43.18164,43.18164 v 25 h 9.0918 v -25 c 1.36576,-25.4842 -26.78924,-53.63725 -52.27344,-52.27148 -0.79638,-0.0427 -1.59587,-0.057 -2.39648,-0.043 z m 45.57812,177.31445 v 9.0918 h 9.0918 v -9.0918 z"
               style="stroke-width:0.1867386;stroke-linecap:round;paint-order:markers stroke fill"
               inkscape:connector-curvature="0" />
            <path
               id="path1330"
               transform="matrix(0.26458333,0,0,0.26458333,0,196.45832)"
               d="m -716.15625,118.38867 c -36.51277,-0.27315 -70.72823,33.94231 -70.45508,70.45508 -0.27315,36.51277 33.94231,70.72822 70.45508,70.45508 h 134.0918 v -9.0918 h -134.0918 c -30.99848,0.81946 -62.18274,-30.3648 -61.36328,-61.36328 -0.81946,-30.99848 30.3648,-62.18273 61.36328,-61.36328 30.9985,-0.81946 62.18277,30.36478 61.36328,61.36328 v 25 h 9.0918 v -25 c 0.27315,-36.51278 -33.94229,-70.72823 -70.45508,-70.45508 z m 61.36328,195.45508 v 9.0918 h 9.0918 v -9.0918 z"
               style="stroke-width:0.1867386;stroke-linecap:round;paint-order:markers stroke fill"
               inkscape:connector-curvature="0" />
            <path
               id="path1332"
               transform="matrix(0.26458333,0,0,0.26458333,0,196.45832)"
               d="m -716.15625,100.20703 c -47.54138,0.81946 -87.81726,41.09534 -88.63672,88.63672 0.81946,47.54137 41.09535,87.81724 88.63672,88.63672 h 134.0918 v -9.0918 h -134.0918 v 0.002 c -42.02709,-0.27313 -79.27177,-37.51979 -79.54492,-79.54687 0.27315,-42.02708 37.51784,-79.27175 79.54492,-79.54492 42.02711,0.27315 79.2718,37.51781 79.54492,79.54492 v 25 h 9.0918 v -25 c -0.81947,-47.54138 -41.09532,-87.81726 -88.63672,-88.63672 z m 79.54492,213.63672 v 9.0918 h 9.0918 v -9.0918 z"
               style="stroke-width:0.1867386;stroke-linecap:round;paint-order:markers stroke fill"
               inkscape:connector-curvature="0" />
            <path
               id="path1334"
               transform="matrix(0.26458333,0,0,0.26458333,0,196.45832)"
               d="m -716.15625,82.025391 c -58.56997,1.912073 -104.90628,48.248379 -106.81836,106.818359 1.91207,58.56996 48.2484,104.90626 106.81836,106.81836 h 134.0918 v -9.08984 h -134.0918 c -53.05565,-1.36577 -96.3608,-44.67288 -97.72656,-97.72852 1.36576,-53.05564 44.67093,-96.360781 97.72656,-97.726562 53.05567,1.365765 96.36083,44.670882 97.72656,97.726562 v 25 h 9.0918 v -25 C -611.24997,130.27379 -657.58625,83.937471 -716.15625,82.025391 Z m 97.72656,231.818359 v 9.0918 h 9.0918 v -9.0918 z"
               style="stroke-width:0.1867386;stroke-linecap:round;paint-order:markers stroke fill"
               inkscape:connector-curvature="0" />
            <path
               id="path1336"
               transform="matrix(0.26458333,0,0,0.26458333,0,196.45832)"
               d="m -716.15625,63.84375 c -69.59855,3.004689 -121.99531,55.40145 -125,125 3.00469,69.59853 55.40147,121.99529 125,125 h 115.9082 v 9.0918 h 9.0918 v -9.0918 h 9.0918 v -9.08984 h -134.0918 c -64.08426,-2.45838 -113.45177,-51.82592 -115.91016,-115.91016 2.45839,-64.08424 51.82592,-113.449802 115.91016,-115.908203 64.08428,2.458384 113.44986,51.823903 115.9082,115.908203 v 25 h 9.0918 v -25 c -3.0047,-69.59854 -55.40142,-121.99531 -125,-125 z"
               style="stroke-width:0.1867386;stroke-linecap:round;paint-order:markers stroke fill"
               inkscape:connector-curvature="0" />
          </g>
          <g
             id="g1352"
             transform="rotate(90,-222.55592,213.35031)">
            <path
               style="stroke-width:0.1867386;stroke-linecap:round;paint-order:markers stroke fill"
               d="m -718.94922,154.57227 c -14.32932,0.45458 -33.60356,20.71937 -31.29883,34.27148 -2.45838,14.45558 19.63622,36.55017 34.0918,34.0918 h 134.0918 v -9.0918 h -100.00196 v -25 c 2.45839,-14.4556 -19.63425,-36.54823 -34.08984,-34.08984 -0.90347,-0.15365 -1.83768,-0.21195 -2.79297,-0.18164 z m 1.00586,8.95898 c 0.63005,0.0232 1.22828,0.12471 1.78711,0.3125 8.94127,-3.00469 28.00471,16.05874 25,25 v 25 h -25 c -8.94126,3.00469 -28.00469,-16.05873 -25,-25 -2.8169,-8.38244 13.76214,-25.66117 23.21289,-25.3125 z m 26.78711,150.3125 v 9.0918 h 9.08984 v -9.0918 z"
               transform="matrix(0.26458333,0,0,0.26458333,0,196.45832)"
               id="path1340"
               inkscape:connector-curvature="0" />
            <path
               style="stroke-width:0.1867386;stroke-linecap:round;paint-order:markers stroke fill"
               d="m -718.55273,136.5293 c -24.81903,0.43381 -51.20004,27.62664 -49.87696,52.31445 -1.36576,25.48418 26.78925,53.63919 52.27344,52.27344 h 134.0918 v -9.0918 h -134.0918 c -19.96987,1.91207 -45.09371,-23.21177 -43.18164,-43.18164 -1.91207,-19.96987 23.21177,-45.0937 43.18164,-43.18164 19.96988,-1.91208 45.09374,23.21176 43.18164,43.18164 v 25 h 9.0918 v -25 c 1.36576,-25.4842 -26.78924,-53.63725 -52.27344,-52.27148 -0.79638,-0.0427 -1.59587,-0.057 -2.39648,-0.043 z m 45.57812,177.31445 v 9.0918 h 9.0918 v -9.0918 z"
               transform="matrix(0.26458333,0,0,0.26458333,0,196.45832)"
               id="path1342"
               inkscape:connector-curvature="0" />
            <path
               style="stroke-width:0.1867386;stroke-linecap:round;paint-order:markers stroke fill"
               d="m -716.15625,118.38867 c -36.51277,-0.27315 -70.72823,33.94231 -70.45508,70.45508 -0.27315,36.51277 33.94231,70.72822 70.45508,70.45508 h 134.0918 v -9.0918 h -134.0918 c -30.99848,0.81946 -62.18274,-30.3648 -61.36328,-61.36328 -0.81946,-30.99848 30.3648,-62.18273 61.36328,-61.36328 30.9985,-0.81946 62.18277,30.36478 61.36328,61.36328 v 25 h 9.0918 v -25 c 0.27315,-36.51278 -33.94229,-70.72823 -70.45508,-70.45508 z m 61.36328,195.45508 v 9.0918 h 9.0918 v -9.0918 z"
               transform="matrix(0.26458333,0,0,0.26458333,0,196.45832)"
               id="path1344"
               inkscape:connector-curvature="0" />
            <path
               style="stroke-width:0.1867386;stroke-linecap:round;paint-order:markers stroke fill"
               d="m -716.15625,100.20703 c -47.54138,0.81946 -87.81726,41.09534 -88.63672,88.63672 0.81946,47.54137 41.09535,87.81724 88.63672,88.63672 h 134.0918 v -9.0918 h -134.0918 v 0.002 c -42.02709,-0.27313 -79.27177,-37.51979 -79.54492,-79.54687 0.27315,-42.02708 37.51784,-79.27175 79.54492,-79.54492 42.02711,0.27315 79.2718,37.51781 79.54492,79.54492 v 25 h 9.0918 v -25 c -0.81947,-47.54138 -41.09532,-87.81726 -88.63672,-88.63672 z m 79.54492,213.63672 v 9.0918 h 9.0918 v -9.0918 z"
               transform="matrix(0.26458333,0,0,0.26458333,0,196.45832)"
               id="path1346"
               inkscape:connector-curvature="0" />
            <path
               style="stroke-width:0.1867386;stroke-linecap:round;paint-order:markers stroke fill"
               d="m -716.15625,82.025391 c -58.56997,1.912073 -104.90628,48.248379 -106.81836,106.818359 1.91207,58.56996 48.2484,104.90626 106.81836,106.81836 h 134.0918 v -9.08984 h -134.0918 c -53.05565,-1.36577 -96.3608,-44.67288 -97.72656,-97.72852 1.36576,-53.05564 44.67093,-96.360781 97.72656,-97.726562 53.05567,1.365765 96.36083,44.670882 97.72656,97.726562 v 25 h 9.0918 v -25 C -611.24997,130.27379 -657.58625,83.937471 -716.15625,82.025391 Z m 97.72656,231.818359 v 9.0918 h 9.0918 v -9.0918 z"
               transform="matrix(0.26458333,0,0,0.26458333,0,196.45832)"
               id="path1348"
               inkscape:connector-curvature="0" />
            <path
               style="stroke-width:0.1867386;stroke-linecap:round;paint-order:markers stroke fill"
               d="m -716.15625,63.84375 c -69.59855,3.004689 -121.99531,55.40145 -125,125 3.00469,69.59853 55.40147,121.99529 125,125 h 115.9082 v 9.0918 h 9.0918 v -9.0918 h 9.0918 v -9.08984 h -134.0918 c -64.08426,-2.45838 -113.45177,-51.82592 -115.91016,-115.91016 2.45839,-64.08424 51.82592,-113.449802 115.91016,-115.908203 64.08428,2.458384 113.44986,51.823903 115.9082,115.908203 v 25 h 9.0918 v -25 c -3.0047,-69.59854 -55.40142,-121.99531 -125,-125 z"
               transform="matrix(0.26458333,0,0,0.26458333,0,196.45832)"
               id="path1350"
               inkscape:connector-curvature="0" />
          </g>
        </g>
      </g>
    </g>
    <g
       aria-label="GATE"
       style="font-size:2.46944451px;font-family:'DejaVu Sans Mono';-inkscape-font-specification:'DejaVu Sans Mono';letter-spacing:0px;word-spacing:0px;fill:#f0f0f0;stroke-width:0.26458332"
       id="text1088"
       transform="translate(0,12.510992)">
      <path
         d="m 88.589325,108.69149 q -0.09767,0.0904 -0.220658,0.13746 -0.121784,0.0458 -0.264066,0.0458 -0.342443,0 -0.532957,-0.24478 -0.190514,-0.24598 -0.190514,-0.6885 0,-0.44132 0.192926,-0.6873 0.192925,-0.24718 0.536573,-0.24718 0.113344,0 0.217041,0.0326 0.103698,0.0314 0.200161,0.0965 v 0.24959 q -0.09767,-0.0928 -0.200161,-0.13625 -0.102491,-0.0446 -0.217041,-0.0446 -0.237539,0 -0.356911,0.18448 -0.118167,0.18328 -0.118167,0.55225 0,0.375 0.114549,0.55587 0.115755,0.17966 0.354501,0.17966 0.08079,0 0.141076,-0.0181 0.06149,-0.0193 0.110932,-0.0591 v -0.48352 h -0.261655 v -0.20016 h 0.494371 z"
         id="path1183"
         inkscape:connector-curvature="0" />
      <path
         d="m 89.486428,107.25419 -0.256831,0.92122 h 0.513663 z m -0.147105,-0.21463 h 0.295417 l 0.551043,1.80024 h -0.252009 l -0.132636,-0.46905 h -0.630625 l -0.130224,0.46905 H 88.78828 Z"
         id="path1185"
         inkscape:connector-curvature="0" />
      <path
         d="m 90.285863,107.03956 h 1.373387 v 0.20499 h -0.563101 v 1.59525 h -0.244774 v -1.59525 h -0.565512 z"
         id="path1187"
         inkscape:connector-curvature="0" />
      <path
         d="m 91.952256,107.03956 h 1.068324 v 0.20499 h -0.824756 v 0.53295 h 0.788582 v 0.20499 h -0.788582 v 0.65232 h 0.847666 v 0.20499 h -1.091234 z"
         id="path1189"
         inkscape:connector-curvature="0" />
    </g>
    <g
       aria-label="OUT"
       style="font-size:2.46944451px;font-family:'DejaVu Sans Mono';-inkscape-font-specification:'DejaVu Sans Mono';letter-spacing:0px;word-spacing:0px;fill:#f0f0f0;stroke-width:0.26458332"
       id="text868"
       transform="translate(1.7439755,12.510994)">
      <path
         d="m 112.05129,107.94149 q 0,-0.3967 -0.082,-0.56672 -0.0808,-0.17001 -0.26648,-0.17001 -0.18448,0 -0.26648,0.17001 -0.0808,0.17002 -0.0808,0.56672 0,0.3955 0.0808,0.56551 0.082,0.17002 0.26648,0.17002 0.18569,0 0.26648,-0.16881 0.082,-0.17002 0.082,-0.56672 z m 0.25442,0 q 0,0.47025 -0.14951,0.70177 -0.14831,0.23151 -0.45338,0.23151 -0.30506,0 -0.45337,-0.23031 -0.14831,-0.2303 -0.14831,-0.70297 0,-0.47146 0.14831,-0.70297 0.14952,-0.23151 0.45337,-0.23151 0.30507,0 0.45338,0.23151 0.14951,0.23151 0.14951,0.70297 z"
         id="path942"
         inkscape:connector-curvature="0" />
      <path
         d="m 112.62284,108.14888 v -1.10932 h 0.24477 v 1.22026 q 0,0.13143 0.007,0.1881 0.007,0.0555 0.0253,0.0856 0.0386,0.0711 0.11093,0.10731 0.0735,0.0362 0.17725,0.0362 0.1049,0 0.17725,-0.0362 0.0724,-0.0362 0.11214,-0.10731 0.0181,-0.0301 0.0253,-0.0856 0.007,-0.0555 0.007,-0.18569 v -1.22267 h 0.24357 v 1.10932 q 0,0.27613 -0.035,0.39309 -0.0338,0.11575 -0.11816,0.19172 -0.0796,0.0711 -0.18208,0.10611 -0.10249,0.035 -0.2303,0.035 -0.12661,0 -0.2291,-0.035 -0.10249,-0.035 -0.18328,-0.10611 -0.0832,-0.0748 -0.11817,-0.19293 -0.035,-0.11937 -0.035,-0.39188 z"
         id="path944"
         inkscape:connector-curvature="0" />
      <path
         d="m 113.98778,107.03956 h 1.37339 v 0.20499 h -0.5631 v 1.59525 h -0.24478 v -1.59525 h -0.56551 z"
         id="path946"
         inkscape:connector-curvature="0" />
    </g>
    <g
       aria-label="EOA"
       style="font-size:2.46944451px;font-family:'DejaVu Sans Mono';-inkscape-font-specification:'DejaVu Sans Mono';letter-spacing:0px;word-spacing:0px;fill:#f0f0f0;stroke-width:0.26458332"
       id="text974"
       transform="translate(30.069611,57.18198)">
      <path
         d="m 58.287027,52.081056 h 1.068325 v 0.204983 h -0.824756 v 0.532956 h 0.788582 v 0.204983 h -0.788582 v 0.652329 h 0.847665 v 0.204983 h -1.091234 z"
         id="path1079"
         inkscape:connector-curvature="0" />
      <path
         d="m 60.626247,52.982982 q 0,-0.396703 -0.08199,-0.566718 -0.08079,-0.170016 -0.266478,-0.170016 -0.184485,0 -0.266478,0.170016 -0.08079,0.170015 -0.08079,0.566718 0,0.395497 0.08079,0.565512 0.08199,0.170016 0.266478,0.170016 0.185691,0 0.266478,-0.16881 0.08199,-0.170015 0.08199,-0.566718 z m 0.254421,0 q 0,0.470255 -0.149517,0.701766 -0.148312,0.23151 -0.453375,0.23151 -0.305063,0 -0.453375,-0.230304 -0.148311,-0.230305 -0.148311,-0.702972 0,-0.471462 0.148311,-0.702972 0.149517,-0.23151 0.453375,-0.23151 0.305063,0 0.453375,0.23151 0.149517,0.23151 0.149517,0.702972 z"
         id="path1081"
         inkscape:connector-curvature="0" />
      <path
         d="m 61.763301,52.295685 -0.256832,0.921219 h 0.513664 z m -0.147105,-0.214629 h 0.295417 l 0.551043,1.800234 h -0.252009 l -0.132636,-0.469049 h -0.630625 l -0.130225,0.469049 h -0.252008 z"
         id="path1083"
         inkscape:connector-curvature="0" />
    </g>
    <g
       aria-label="EOD"
       style="font-size:2.46944451px;font-family:'DejaVu Sans Mono';-inkscape-font-specification:'DejaVu Sans Mono';letter-spacing:0px;word-spacing:0px;fill:#f0f0f0;stroke-width:0.26458332"
       id="text978"
       transform="translate(38.155882,46.598648)">
      <path
         d="m 58.287027,62.664388 h 1.068325 v 0.204983 h -0.824756 v 0.532956 h 0.788582 v 0.204983 h -0.788582 v 0.652329 h 0.847665 v 0.204983 h -1.091234 z"
         id="path1072"
         inkscape:connector-curvature="0" />
      <path
         d="m 60.626247,63.566314 q 0,-0.396703 -0.08199,-0.566718 -0.08079,-0.170016 -0.266478,-0.170016 -0.184485,0 -0.266478,0.170016 -0.08079,0.170015 -0.08079,0.566718 0,0.395497 0.08079,0.565512 0.08199,0.170016 0.266478,0.170016 0.185691,0 0.266478,-0.16881 0.08199,-0.170015 0.08199,-0.566718 z m 0.254421,0 q 0,0.470255 -0.149517,0.701766 -0.148312,0.23151 -0.453375,0.23151 -0.305063,0 -0.453375,-0.230304 -0.148311,-0.230305 -0.148311,-0.702972 0,-0.471462 0.148311,-0.702972 0.149517,-0.23151 0.453375,-0.23151 0.305063,0 0.453375,0.23151 0.149517,0.23151 0.149517,0.702972 z"
         id="path1074"
         inkscape:connector-curvature="0" />
      <path
         d="m 61.54626,64.264462 q 0.307475,0 0.429259,-0.150722 0.121784,-0.151929 0.121784,-0.547426 0,-0.399114 -0.121784,-0.549837 -0.120578,-0.151929 -0.429259,-0.151929 h -0.115755 v 1.399914 z m 0.0048,-1.600074 q 0.412378,0 0.607715,0.219452 0.195337,0.219453 0.195337,0.682474 0,0.460609 -0.195337,0.680062 -0.195337,0.218246 -0.607715,0.218246 h -0.365352 v -1.800234 z"
         id="path1076"
         inkscape:connector-curvature="0" />
    </g>
    <g
       aria-label="EOS"
       style="font-size:2.46944451px;font-family:'DejaVu Sans Mono';-inkscape-font-specification:'DejaVu Sans Mono';letter-spacing:0px;word-spacing:0px;fill:#f0f0f0;stroke-width:0.26458332"
       id="text982"
       transform="translate(46.873045,36.015311)">
      <path
         d="m 58.287027,73.247716 h 1.068325 v 0.204983 h -0.824756 v 0.532957 h 0.788582 v 0.204983 h -0.788582 v 0.652329 h 0.847665 v 0.204983 h -1.091234 z"
         id="path1065"
         inkscape:connector-curvature="0" />
      <path
         d="m 60.626247,74.149642 q 0,-0.396703 -0.08199,-0.566718 -0.08079,-0.170016 -0.266478,-0.170016 -0.184485,0 -0.266478,0.170016 -0.08079,0.170015 -0.08079,0.566718 0,0.395497 0.08079,0.565513 0.08199,0.170015 0.266478,0.170015 0.185691,0 0.266478,-0.16881 0.08199,-0.170015 0.08199,-0.566718 z m 0.254421,0 q 0,0.470256 -0.149517,0.701766 -0.148312,0.23151 -0.453375,0.23151 -0.305063,0 -0.453375,-0.230304 -0.148311,-0.230305 -0.148311,-0.702972 0,-0.471461 0.148311,-0.702972 0.149517,-0.23151 0.453375,-0.23151 0.305063,0 0.453375,0.23151 0.149517,0.231511 0.149517,0.702972 z"
         id="path1067"
         inkscape:connector-curvature="0" />
      <path
         d="m 62.240791,73.309211 v 0.247186 q -0.110932,-0.07114 -0.22307,-0.107315 -0.110932,-0.03617 -0.224275,-0.03617 -0.172427,0 -0.272507,0.08079 -0.10008,0.07958 -0.10008,0.215835 0,0.119373 0.06511,0.182073 0.06632,0.0627 0.24598,0.104904 l 0.127813,0.02894 q 0.253214,0.05908 0.36897,0.185691 0.115755,0.126607 0.115755,0.344854 0,0.256832 -0.159164,0.39188 -0.159163,0.135047 -0.46302,0.135047 -0.126608,0 -0.254421,-0.02773 -0.127813,-0.02653 -0.256832,-0.08079 v -0.259243 q 0.138665,0.08802 0.261655,0.129018 0.124196,0.041 0.249598,0.041 0.184484,0 0.286976,-0.08199 0.102492,-0.0832 0.102492,-0.231511 0,-0.135047 -0.07114,-0.206189 -0.06994,-0.07114 -0.244774,-0.109726 l -0.130224,-0.03015 q -0.250803,-0.05667 -0.364147,-0.171221 -0.113344,-0.114549 -0.113344,-0.307475 0,-0.241156 0.161575,-0.38585 0.162781,-0.1459 0.431671,-0.1459 0.103697,0 0.218247,0.02412 0.114549,0.02291 0.241156,0.06994 z"
         id="path1069"
         inkscape:connector-curvature="0" />
    </g>
    <g
       aria-label="EOR"
       style="font-size:2.46944451px;font-family:'DejaVu Sans Mono';-inkscape-font-specification:'DejaVu Sans Mono';letter-spacing:0px;word-spacing:0px;fill:#f0f0f0;stroke-width:0.26458332"
       id="text986"
       transform="translate(54.577982,25.431992)">
      <path
         d="m 58.287027,83.831044 h 1.068325 v 0.204983 h -0.824756 v 0.532957 h 0.788582 v 0.204983 h -0.788582 v 0.652329 h 0.847665 v 0.204983 h -1.091234 z"
         id="path1058"
         inkscape:connector-curvature="0" />
      <path
         d="m 60.626247,84.73297 q 0,-0.396702 -0.08199,-0.566718 -0.08079,-0.170015 -0.266478,-0.170015 -0.184485,0 -0.266478,0.170015 -0.08079,0.170016 -0.08079,0.566718 0,0.395497 0.08079,0.565513 0.08199,0.170015 0.266478,0.170015 0.185691,0 0.266478,-0.168809 0.08199,-0.170016 0.08199,-0.566719 z m 0.254421,0 q 0,0.470256 -0.149517,0.701766 -0.148312,0.231511 -0.453375,0.231511 -0.305063,0 -0.453375,-0.230305 -0.148311,-0.230305 -0.148311,-0.702972 0,-0.471461 0.148311,-0.702971 0.149517,-0.231511 0.453375,-0.231511 0.305063,0 0.453375,0.231511 0.149517,0.23151 0.149517,0.702971 z"
         id="path1060"
         inkscape:connector-curvature="0" />
      <path
         d="m 61.936934,84.781202 q 0.09405,0.02412 0.160369,0.09164 0.06632,0.06632 0.165193,0.266478 l 0.244774,0.49196 h -0.261655 l -0.21463,-0.45458 q -0.09285,-0.194132 -0.167604,-0.249598 -0.07355,-0.05667 -0.192925,-0.05667 H 61.43774 v 0.760849 h -0.244774 v -1.800235 h 0.501606 q 0.296622,0 0.45458,0.133842 0.157958,0.133842 0.157958,0.387057 0,0.178456 -0.09767,0.291799 -0.09646,0.112138 -0.272507,0.13746 z M 61.43774,84.031204 v 0.639066 h 0.266478 q 0.174838,0 0.260449,-0.07838 0.08561,-0.07838 0.08561,-0.239951 0,-0.155546 -0.09164,-0.23754 -0.09043,-0.0832 -0.264066,-0.0832 z"
         id="path1062"
         inkscape:connector-curvature="0" />
    </g>
    <g
       aria-label="INV"
       style="font-size:2.46944451px;font-family:'DejaVu Sans Mono';-inkscape-font-specification:'DejaVu Sans Mono';letter-spacing:0px;word-spacing:0px;fill:#f0f0f0;stroke-width:0.26458332"
       id="text1130"
       transform="translate(85.431183,35.168233)">
      <path
         d="m 19.684274,84.38355 h 0.999595 v 0.204983 h -0.377411 v 1.390268 h 0.377411 v 0.204983 h -0.999595 v -0.204983 h 0.37741 v -1.390268 h -0.37741 z"
         id="path1132"
         inkscape:connector-curvature="0" />
      <path
         d="m 21.095041,84.38355 h 0.30868 l 0.607715,1.481908 V 84.38355 h 0.235128 v 1.800234 h -0.308681 l -0.607714,-1.481907 v 1.481907 h -0.235128 z"
         id="path1134"
         inkscape:connector-curvature="0" />
      <path
         d="m 23.155725,85.978801 0.42323,-1.595251 h 0.252009 l -0.526928,1.800234 H 23.008619 L 22.481692,84.38355 h 0.252009 z"
         id="path1136"
         inkscape:connector-curvature="0" />
    </g>
    <g
       transform="matrix(0.37311526,0,0,0.37311526,103.56535,59.448752)"
       id="g11631"
       inkscape:transform-center-x="-1.5074946"
       inkscape:transform-center-y="12.252513"
       style="fill:#f0f0f0">
      <g
         aria-label="MS"
         style="font-size:10.58333302px;font-family:sans-serif;letter-spacing:0px;word-spacing:0px;stroke-width:0.26458332"
         id="text11625">
        <path
           d="m -13.102167,168.46541 q 0.148166,-0.23284 0.370416,-0.32809 0.22225,-0.10583 0.455084,-0.10583 0.275166,0 0.4445,0.20108 0.169333,0.1905 0.169333,0.51859 v 5.02708 l 3.5348333,-5.31283 q 0.1481667,-0.23284 0.3598333,-0.32809 0.22225,-0.10583 0.4656667,-0.10583 0.2751666,0 0.4445,0.20108 0.1693333,0.1905 0.1693333,0.51859 v 7.59883 h -1.4393333 v -5.57742 l -3.2173333,5.08 q -0.179917,0.28575 -0.391583,0.39159 -0.211667,0.10583 -0.433917,0.10583 -0.1905,0 -0.359833,-0.0635 -0.169334,-0.0741 -0.296334,-0.20108 -0.127,-0.127 -0.201083,-0.29634 -0.07408,-0.16933 -0.07408,-0.381 v -4.6355 l -3.534833,5.57742 h -1.7145 z"
           style="-inkscape-font-specification:Strasua"
           id="path958"
           inkscape:connector-curvature="0" />
        <path
           d="m -5.7073936,176.34999 v -1.43933 h 2.8892499 q 0.66675,0 1.1006666,-0.3175 0.4339167,-0.3175 0.4339167,-0.8255 0,-0.254 -0.1164167,-0.46567 -0.1164167,-0.21167 -0.3175,-0.35983 -0.2010833,-0.15875 -0.4868333,-0.24342 -0.28575,-0.0847 -0.6138333,-0.0847 h -0.6561667 q -0.5079999,0 -0.9419166,-0.15875 -0.4339167,-0.16933 -0.7514166,-0.46566 -0.3175,-0.30692 -0.4974167,-0.70909 -0.1799167,-0.41275 -0.1799167,-0.91016 0,-0.48684 0.1799167,-0.89959 0.1905,-0.41275 0.5291667,-0.71966 0.3386666,-0.30692 0.8149166,-0.47625 0.47625,-0.17992 1.04775,-0.17992 h 2.74108322 v 1.43933 H -3.3473104 q -0.4550833,0 -0.7196666,0.254 -0.2645833,0.24342 -0.2645833,0.59267 0,0.381 0.2645833,0.635 0.2751666,0.254 0.7196666,0.254 h 0.8149167 q 0.5503333,0 1.0159999,0.1905 0.4656667,0.17992 0.80433336,0.51858 0.33866665,0.33867 0.52916665,0.80434 0.19049999,0.46566 0.19049999,1.016 0,0.56091 -0.20108333,1.02658 -0.20108332,0.46567 -0.58208331,0.80433 -0.37041666,0.33867 -0.88899996,0.52917 -0.5185833,0.1905 -1.1535833,0.1905 z"
           style="-inkscape-font-specification:Strasua"
           id="path960-5"
           inkscape:connector-curvature="0" />
      </g>
      <g
         aria-label="M"
         transform="scale(-1,1)"
         style="font-size:10.58333302px;font-family:sans-serif;letter-spacing:0px;word-spacing:0px;stroke-width:0.26458332"
         id="text11629">
        <path
           d="m -7.4032889,168.46365 q 0.1481666,-0.23283 0.3704166,-0.32808 0.22225,-0.10583 0.4550834,-0.10583 0.2751666,0 0.4444999,0.20108 0.1693334,0.1905 0.1693334,0.51858 v 5.02709 l 3.5348332,-5.31284 q 0.1481667,-0.23283 0.3598333,-0.32808 0.22225,-0.10583 0.4656667,-0.10583 0.2751666,0 0.4445,0.20108 0.16933329,0.1905 0.16933329,0.51858 v 7.59884 H -2.4291224 v -5.57742 l -3.2173332,5.08 q -0.1799167,0.28575 -0.3915834,0.39158 -0.2116666,0.10584 -0.4339166,0.10584 -0.1905,0 -0.3598333,-0.0635 -0.1693334,-0.0741 -0.2963334,-0.20109 -0.127,-0.127 -0.2010833,-0.29633 -0.074083,-0.16933 -0.074083,-0.381 v -4.6355 l -3.5348334,5.57742 h -1.7145 z"
           style="-inkscape-font-specification:Strasua"
           id="path963"
           inkscape:connector-curvature="0" />
      </g>
    </g>
    <g
       aria-label="TRIG"
       style="font-size:2.46944451px;font-family:'DejaVu Sans Mono';-inkscape-font-specification:'DejaVu Sans Mono';letter-spacing:0px;word-spacing:0px;fill:#f0f0f0;stroke-width:0.26458332"
       id="text1194"
       transform="translate(-0.494784,12.511012)">
      <path
         d="m 96.105691,107.03955 h 1.373387 v 0.20498 h -0.563101 v 1.59525 h -0.244774 v -1.59525 h -0.565512 z"
         id="path1196"
         inkscape:connector-curvature="0" />
      <path
         d="m 98.45094,107.98971 q 0.09405,0.0241 0.160369,0.0916 0.06632,0.0663 0.165192,0.26648 l 0.244774,0.49196 H 98.75962 l -0.214629,-0.45458 q -0.09285,-0.19413 -0.167604,-0.24959 -0.07355,-0.0567 -0.192926,-0.0567 h -0.232716 v 0.76085 h -0.244774 v -1.80023 h 0.501606 q 0.296623,0 0.45458,0.13384 0.157958,0.13384 0.157958,0.38706 0,0.17845 -0.09767,0.2918 -0.09646,0.11213 -0.272507,0.13746 z m -0.499195,-0.75 v 0.63906 h 0.266478 q 0.174839,0 0.26045,-0.0784 0.08561,-0.0784 0.08561,-0.23995 0,-0.15555 -0.09164,-0.23754 -0.09043,-0.0832 -0.264067,-0.0832 z"
         id="path1198"
         inkscape:connector-curvature="0" />
      <path
         d="m 99.262432,107.03955 h 0.999598 v 0.20498 h -0.377414 v 1.39027 h 0.377414 v 0.20498 h -0.999598 v -0.20498 h 0.37741 v -1.39027 h -0.37741 z"
         id="path1200"
         inkscape:connector-curvature="0" />
      <path
         d="m 101.83678,108.69147 q -0.0977,0.0904 -0.22066,0.13746 -0.12178,0.0458 -0.26407,0.0458 -0.34244,0 -0.53295,-0.24477 -0.19052,-0.24598 -0.19052,-0.68851 0,-0.44131 0.19293,-0.68729 0.19293,-0.24719 0.53657,-0.24719 0.11335,0 0.21704,0.0326 0.1037,0.0313 0.20016,0.0965 v 0.2496 q -0.0977,-0.0928 -0.20016,-0.13626 -0.10249,-0.0446 -0.21704,-0.0446 -0.23754,0 -0.35691,0.18449 -0.11817,0.18327 -0.11817,0.55224 0,0.375 0.11455,0.55587 0.11576,0.17966 0.3545,0.17966 0.0808,0 0.14108,-0.0181 0.0615,-0.0193 0.11093,-0.0591 v -0.48352 h -0.26165 v -0.20016 h 0.49437 z"
         id="path1202"
         inkscape:connector-curvature="0" />
    </g>
    <g
       aria-label="CV A"
       style="font-size:2.46944451px;font-family:'DejaVu Sans Mono';-inkscape-font-specification:'DejaVu Sans Mono';letter-spacing:0px;word-spacing:0px;fill:#f0f0f0;stroke-width:0.26458332"
       id="text941"
       transform="translate(57.953024,60.093213)">
      <path
         d="m 30.752086,41.04622 q -0.09284,0.04944 -0.190514,0.07355 -0.09767,0.02532 -0.207394,0.02532 -0.34606,0 -0.53778,-0.244774 -0.190514,-0.244774 -0.190514,-0.688502 0,-0.441317 0.19172,-0.687297 0.192925,-0.247185 0.536574,-0.247185 0.109726,0 0.207394,0.02532 0.09767,0.02412 0.190514,0.07355 v 0.249597 q -0.08923,-0.07355 -0.191719,-0.112138 -0.102492,-0.03858 -0.206189,-0.03858 -0.23754,0 -0.355706,0.183279 -0.118167,0.183279 -0.118167,0.553455 0,0.36897 0.118167,0.552249 0.118166,0.183279 0.355706,0.183279 0.106109,0 0.207394,-0.03859 0.102492,-0.03858 0.190514,-0.112138 z"
         id="path965"
         inkscape:connector-curvature="0" />
      <path
         d="m 31.686568,40.905143 0.42323,-1.595251 h 0.252009 l -0.526927,1.800234 h -0.295417 l -0.526928,-1.800234 h 0.252009 z"
         id="path967"
         inkscape:connector-curvature="0" />
      <path
         d="m 34.657619,39.524521 -0.256832,0.921219 h 0.513664 z m -0.147106,-0.214629 h 0.295417 l 0.551043,1.800234 h -0.252008 l -0.132636,-0.469049 h -0.630625 l -0.130225,0.469049 H 33.95947 Z"
         id="path969"
         inkscape:connector-curvature="0" />
    </g>
    <g
       aria-label="CV D"
       style="font-size:2.46944451px;font-family:'DejaVu Sans Mono';-inkscape-font-specification:'DejaVu Sans Mono';letter-spacing:0px;word-spacing:0px;fill:#f0f0f0;stroke-width:0.26458332"
       id="text945"
       transform="translate(66.039295,54.801545)">
      <path
         d="m 30.752086,46.337888 q -0.09284,0.04944 -0.190514,0.07355 -0.09767,0.02532 -0.207394,0.02532 -0.34606,0 -0.53778,-0.244774 -0.190514,-0.244774 -0.190514,-0.688502 0,-0.441317 0.19172,-0.687297 0.192925,-0.247185 0.536574,-0.247185 0.109726,0 0.207394,0.02532 0.09767,0.02412 0.190514,0.07355 v 0.249597 q -0.08923,-0.07355 -0.191719,-0.112138 -0.102492,-0.03859 -0.206189,-0.03859 -0.23754,0 -0.355706,0.183279 -0.118167,0.183279 -0.118167,0.553455 0,0.368969 0.118167,0.552249 0.118166,0.183279 0.355706,0.183279 0.106109,0 0.207394,-0.03858 0.102492,-0.03858 0.190514,-0.112138 z"
         id="path972"
         inkscape:connector-curvature="0" />
      <path
         d="m 31.686568,46.196811 0.42323,-1.595251 h 0.252009 L 31.83488,46.401794 H 31.539463 L 31.012535,44.60156 h 0.252009 z"
         id="path974"
         inkscape:connector-curvature="0" />
      <path
         d="m 34.440578,46.201634 q 0.307475,0 0.429259,-0.150723 0.121784,-0.151928 0.121784,-0.547425 0,-0.399115 -0.121784,-0.549837 -0.120578,-0.151929 -0.429259,-0.151929 h -0.115755 v 1.399914 z m 0.0048,-1.600074 q 0.412378,0 0.607715,0.219452 0.195337,0.219453 0.195337,0.682474 0,0.460609 -0.195337,0.680062 -0.195337,0.218246 -0.607715,0.218246 H 34.080049 V 44.60156 Z"
         id="path976"
         inkscape:connector-curvature="0" />
    </g>
    <g
       aria-label="CV S"
       style="font-size:2.46944451px;font-family:'DejaVu Sans Mono';-inkscape-font-specification:'DejaVu Sans Mono';letter-spacing:0px;word-spacing:0px;fill:#f0f0f0;stroke-width:0.26458332"
       id="text959"
       transform="translate(74.756458,49.509877)">
      <path
         d="m 30.752086,51.629556 q -0.09284,0.04944 -0.190514,0.07355 -0.09767,0.02532 -0.207394,0.02532 -0.34606,0 -0.53778,-0.244774 -0.190514,-0.244774 -0.190514,-0.688502 0,-0.441317 0.19172,-0.687297 0.192925,-0.247185 0.536574,-0.247185 0.109726,0 0.207394,0.02532 0.09767,0.02412 0.190514,0.07355 v 0.249597 q -0.08923,-0.07355 -0.191719,-0.112138 -0.102492,-0.03859 -0.206189,-0.03859 -0.23754,0 -0.355706,0.183279 -0.118167,0.183279 -0.118167,0.553455 0,0.368969 0.118167,0.552249 0.118166,0.183279 0.355706,0.183279 0.106109,0 0.207394,-0.03858 0.102492,-0.03859 0.190514,-0.112138 z"
         id="path979"
         inkscape:connector-curvature="0" />
      <path
         d="m 31.686568,51.488479 0.42323,-1.595251 h 0.252009 l -0.526927,1.800234 h -0.295417 l -0.526928,-1.800234 h 0.252009 z"
         id="path981"
         inkscape:connector-curvature="0" />
      <path
         d="m 35.135109,49.954723 v 0.247185 q -0.110932,-0.07114 -0.22307,-0.107314 -0.110932,-0.03617 -0.224275,-0.03617 -0.172427,0 -0.272507,0.08079 -0.10008,0.07958 -0.10008,0.215836 0,0.119372 0.06511,0.182073 0.06632,0.0627 0.24598,0.104903 l 0.127813,0.02894 q 0.253214,0.05908 0.368969,0.185691 0.115756,0.126607 0.115756,0.344854 0,0.256832 -0.159164,0.391879 -0.159163,0.135048 -0.463021,0.135048 -0.126607,0 -0.25442,-0.02773 -0.127813,-0.02653 -0.256832,-0.08079 v -0.259244 q 0.138665,0.08802 0.261655,0.129019 0.124196,0.041 0.249597,0.041 0.184485,0 0.286977,-0.08199 0.102491,-0.0832 0.102491,-0.23151 0,-0.135048 -0.07114,-0.206189 -0.06994,-0.07114 -0.244774,-0.109726 l -0.130224,-0.03014 q -0.250803,-0.05667 -0.364147,-0.171221 -0.113344,-0.11455 -0.113344,-0.307475 0,-0.241157 0.161575,-0.385851 0.162781,-0.145899 0.431671,-0.145899 0.103697,0 0.218247,0.02412 0.114549,0.02291 0.241156,0.06994 z"
         id="path983"
         inkscape:connector-curvature="0" />
    </g>
    <g
       aria-label="CV R"
       style="font-size:2.46944451px;font-family:'DejaVu Sans Mono';-inkscape-font-specification:'DejaVu Sans Mono';letter-spacing:0px;word-spacing:0px;fill:#f0f0f0;stroke-width:0.26458332"
       id="text963"
       transform="translate(82.461395,44.21821)">
      <path
         d="m 30.752086,56.921224 q -0.09284,0.04944 -0.190514,0.07355 -0.09767,0.02532 -0.207394,0.02532 -0.34606,0 -0.53778,-0.244774 -0.190514,-0.244774 -0.190514,-0.688502 0,-0.441317 0.19172,-0.687297 0.192925,-0.247186 0.536574,-0.247186 0.109726,0 0.207394,0.02532 0.09767,0.02412 0.190514,0.07355 v 0.249597 q -0.08923,-0.07355 -0.191719,-0.112138 -0.102492,-0.03858 -0.206189,-0.03858 -0.23754,0 -0.355706,0.183279 -0.118167,0.183279 -0.118167,0.553455 0,0.368969 0.118167,0.552248 0.118166,0.18328 0.355706,0.18328 0.106109,0 0.207394,-0.03859 0.102492,-0.03858 0.190514,-0.112137 z"
         id="path986"
         inkscape:connector-curvature="0" />
      <path
         d="m 31.686568,56.780147 0.42323,-1.595251 h 0.252009 L 31.83488,56.98513 h -0.295417 l -0.526928,-1.800234 h 0.252009 z"
         id="path988"
         inkscape:connector-curvature="0" />
      <path
         d="m 34.831252,56.135053 q 0.09405,0.02412 0.160369,0.09164 0.06632,0.06632 0.165192,0.266478 l 0.244774,0.491959 h -0.261655 l -0.214629,-0.45458 q -0.09284,-0.194131 -0.167604,-0.249597 -0.07355,-0.05667 -0.192925,-0.05667 h -0.232716 v 0.760849 h -0.244775 v -1.800234 h 0.501606 q 0.296623,0 0.454581,0.133842 0.157957,0.133842 0.157957,0.387056 0,0.178456 -0.09767,0.2918 -0.09646,0.112138 -0.272507,0.137459 z m -0.499194,-0.749997 v 0.639065 h 0.266478 q 0.174838,0 0.260449,-0.07838 0.08561,-0.07838 0.08561,-0.239951 0,-0.155546 -0.09164,-0.237539 -0.09043,-0.0832 -0.264067,-0.0832 z"
         id="path990"
         inkscape:connector-curvature="0" />
    </g>
    <g
       aria-label="ADSR"
       style="font-size:4.23333311px;font-family:'DejaVu Sans Mono';-inkscape-font-specification:'DejaVu Sans Mono';letter-spacing:0px;word-spacing:0px;fill:#f0f0f0;stroke-width:0.26458332"
       id="text995"
       transform="translate(-0.661463)">
      <path
         d="m 99.308578,29.578534 -0.287321,1.262971 h 0.576709 z m -0.37207,-0.558106 h 0.746207 l 0.833025,3.086116 H 99.905957 L 99.715788,31.3438 h -0.816487 l -0.186036,0.762744 h -0.609781 z"
         style="-inkscape-font-specification:'DejaVu Sans Mono Bold'"
         id="path935"
         inkscape:connector-curvature="0" />
      <path
         d="m 101.47485,29.570265 v 1.986442 h 0.16537 q 0.35967,0 0.51263,-0.225309 0.15296,-0.227376 0.15296,-0.771012 0,-0.539502 -0.15296,-0.764811 -0.15296,-0.22531 -0.51263,-0.22531 z m -0.60978,-0.549837 h 0.65319 q 0.75654,0 1.08934,0.361735 0.3328,0.359668 0.3328,1.178223 0,0.820621 -0.3328,1.184423 -0.3328,0.361735 -1.08934,0.361735 h -0.65319 z"
         style="-inkscape-font-specification:'DejaVu Sans Mono Bold'"
         id="path937"
         inkscape:connector-curvature="0" />
      <path
         d="m 104.1827,30.752622 q -0.46096,-0.1757 -0.62425,-0.367936 -0.1633,-0.194304 -0.1633,-0.520899 0,-0.419612 0.26872,-0.659391 0.26871,-0.239778 0.73794,-0.239778 0.2129,0 0.42581,0.04961 0.21291,0.04754 0.42168,0.142627 v 0.595312 q -0.19637,-0.138492 -0.39894,-0.210839 -0.20257,-0.07235 -0.40101,-0.07235 -0.22118,0 -0.339,0.08888 -0.11782,0.08888 -0.11782,0.254248 0,0.128158 0.0847,0.212907 0.0868,0.08268 0.35967,0.183968 l 0.26251,0.09922 q 0.37207,0.136426 0.54777,0.361735 0.1757,0.225309 0.1757,0.56844 0,0.467155 -0.27698,0.698666 -0.27492,0.229443 -0.83303,0.229443 -0.22944,0 -0.46095,-0.05581 -0.22944,-0.05374 -0.44442,-0.161231 v -0.630452 q 0.24391,0.173633 0.47129,0.258382 0.22944,0.08475 0.45269,0.08475 0.22531,0 0.34933,-0.101286 0.12402,-0.103352 0.12402,-0.287321 0,-0.138492 -0.0827,-0.241845 -0.0827,-0.10542 -0.23978,-0.165365 z"
         style="-inkscape-font-specification:'DejaVu Sans Mono Bold'"
         id="path939"
         inkscape:connector-curvature="0" />
      <path
         d="m 107.34323,30.649269 q 0.0909,0.0186 0.1571,0.08682 0.0682,0.06614 0.16536,0.260449 l 0.55811,1.110009 h -0.66973 l -0.37207,-0.77928 q -0.0165,-0.03307 -0.0434,-0.09095 -0.1633,-0.349332 -0.38447,-0.349332 h -0.19431 v 1.219563 h -0.60978 v -3.086116 h 0.88057 q 0.59531,0 0.85369,0.21084 0.26045,0.21084 0.26045,0.686263 0,0.318327 -0.15503,0.506429 -0.15503,0.188102 -0.44648,0.225309 z m -0.78342,-1.116211 v 0.841293 h 0.28733 q 0.25011,0 0.3576,-0.09715 0.10955,-0.09922 0.10955,-0.324528 0,-0.225309 -0.10749,-0.322461 -0.10748,-0.09715 -0.35966,-0.09715 z"
         style="-inkscape-font-specification:'DejaVu Sans Mono Bold'"
         id="path941"
         inkscape:connector-curvature="0" />
    </g>
    <g
       aria-label="A"
       style="font-size:2.46944451px;font-family:'DejaVu Sans Mono';-inkscape-font-specification:'DejaVu Sans Mono';letter-spacing:0px;word-spacing:0px;fill:#f0f0f0;stroke-width:0.26458332"
       id="text1025"
       transform="translate(38.174434,26.458344)">
      <path
         d="m 52.269416,42.939644 -0.256832,0.921219 h 0.513664 z M 52.12231,42.725015 h 0.295417 l 0.551043,1.800234 H 52.716762 L 52.584125,44.0562 h -0.630624 l -0.130225,0.469049 h -0.252009 z"
         id="path1039"
         inkscape:connector-curvature="0" />
    </g>
    <g
       aria-label="D"
       style="font-size:2.46944451px;font-family:'DejaVu Sans Mono';-inkscape-font-specification:'DejaVu Sans Mono';letter-spacing:0px;word-spacing:0px;fill:#f0f0f0;stroke-width:0.26458332"
       id="text1029"
       transform="translate(40.908759,26.458344)">
      <path
         d="m 57.344043,44.325089 q 0.307475,0 0.429259,-0.150723 0.121784,-0.151928 0.121784,-0.547425 0,-0.399115 -0.121784,-0.549837 -0.120579,-0.151929 -0.429259,-0.151929 h -0.115755 v 1.399914 z m 0.0048,-1.600074 q 0.412378,0 0.607715,0.219452 0.195337,0.219453 0.195337,0.682474 0,0.460609 -0.195337,0.680062 -0.195337,0.218246 -0.607715,0.218246 h -0.365352 v -1.800234 z"
         id="path1042"
         inkscape:connector-curvature="0" />
    </g>
    <g
       aria-label="R"
       style="font-size:2.46944451px;font-family:'DejaVu Sans Mono';-inkscape-font-specification:'DejaVu Sans Mono';letter-spacing:0px;word-spacing:0px;fill:#f0f0f0;stroke-width:0.26458332"
       id="text1033"
       transform="translate(46.743894,26.458344)">
      <path
         d="m 68.318053,43.675172 q 0.09405,0.02412 0.160369,0.09164 0.06632,0.06632 0.165192,0.266478 l 0.244774,0.491959 h -0.261655 l -0.214629,-0.45458 Q 68.319258,43.876538 68.2445,43.821072 68.170947,43.7644 68.051574,43.7644 h -0.232716 v 0.760849 h -0.244774 v -1.800234 h 0.501606 q 0.296623,0 0.45458,0.133842 0.157958,0.133842 0.157958,0.387056 0,0.178456 -0.09767,0.2918 -0.09646,0.112138 -0.272507,0.137459 z m -0.499195,-0.749997 v 0.639065 h 0.266478 q 0.174839,0 0.26045,-0.07838 0.08561,-0.07838 0.08561,-0.239951 0,-0.155546 -0.09164,-0.237539 -0.09043,-0.0832 -0.264067,-0.0832 z"
         id="path1050"
         inkscape:connector-curvature="0" />
    </g>
    <g
       aria-label="S"
       style="font-size:2.46944451px;font-family:'DejaVu Sans Mono';-inkscape-font-specification:'DejaVu Sans Mono';letter-spacing:0px;word-spacing:0px;fill:#f0f0f0;stroke-width:0.26458332"
       id="text1037"
       transform="translate(44.333039,26.458344)">
      <path
         d="m 63.330242,42.78651 v 0.247185 q -0.110932,-0.07114 -0.22307,-0.107314 -0.110932,-0.03617 -0.224276,-0.03617 -0.172427,0 -0.272507,0.08079 -0.10008,0.07958 -0.10008,0.215835 0,0.119372 0.06511,0.182073 0.06632,0.0627 0.245979,0.104903 l 0.127813,0.02894 q 0.253215,0.05908 0.36897,0.185691 0.115755,0.126607 0.115755,0.344854 0,0.256832 -0.159163,0.391879 -0.159163,0.135048 -0.463021,0.135048 -0.126607,0 -0.25442,-0.02773 -0.127813,-0.02653 -0.256832,-0.08079 V 44.19246 q 0.138665,0.08802 0.261655,0.129019 0.124196,0.041 0.249597,0.041 0.184485,0 0.286977,-0.08199 0.102491,-0.0832 0.102491,-0.23151 0,-0.135048 -0.07114,-0.206189 -0.06994,-0.07114 -0.244774,-0.109726 l -0.130225,-0.03014 q -0.250803,-0.05667 -0.364146,-0.171221 -0.113344,-0.11455 -0.113344,-0.307475 0,-0.241157 0.161575,-0.385851 0.162781,-0.145899 0.431671,-0.145899 0.103697,0 0.218246,0.02412 0.11455,0.02291 0.241157,0.06994 z"
         id="path1046"
         inkscape:connector-curvature="0" />
    </g>
    <path
       style="fill:#cccccc;fill-opacity:0.2;stroke-width:0.3589991;stroke-linecap:round;paint-order:markers stroke fill"
       d="m 82.293582,77.454724 h 41.740108 c 1.69627,0 3.06186,0.953618 3.06186,2.138156 v 6.128015 c 0,1.184538 -1.36559,2.138156 -3.06186,2.138156 H 82.293582 c -1.696263,0 -3.061846,-0.953618 -3.061846,-2.138156 V 79.59288 c 0,-1.184538 1.365583,-2.138156 3.061846,-2.138156 z"
       id="rect918"
       inkscape:connector-curvature="0" />
    <g
       aria-label="SHAPE"
       style="font-size:2.46944451px;font-family:'DejaVu Sans Mono';-inkscape-font-specification:'DejaVu Sans Mono';letter-spacing:0px;word-spacing:0px;fill:#f0f0f0;stroke-width:0.26458332"
       id="text922"
       transform="translate(-0.6614755,-5.6733546)">
      <path
         d="m 100.66465,80.339477 v 0.247185 q -0.11093,-0.07114 -0.22307,-0.107314 -0.11093,-0.03617 -0.22428,-0.03617 -0.17242,0 -0.272503,0.08079 -0.10008,0.07958 -0.10008,0.215835 0,0.119372 0.06511,0.182073 0.06632,0.0627 0.245983,0.104903 l 0.12781,0.02894 q 0.25322,0.05908 0.36897,0.185691 0.11576,0.126607 0.11576,0.344854 0,0.256832 -0.15917,0.39188 -0.15916,0.135047 -0.46302,0.135047 -0.1266,0 -0.254419,-0.02773 -0.127813,-0.02653 -0.256832,-0.08079 V 81.74542 q 0.138665,0.08802 0.261655,0.129019 0.124196,0.041 0.249596,0.041 0.18449,0 0.28698,-0.08199 0.10249,-0.0832 0.10249,-0.231511 0,-0.135048 -0.0711,-0.206189 -0.0699,-0.07114 -0.24477,-0.109726 l -0.13023,-0.03015 q -0.250804,-0.05667 -0.364147,-0.171221 -0.113344,-0.114549 -0.113344,-0.307475 0,-0.241156 0.161575,-0.38585 0.162781,-0.1459 0.431676,-0.1459 0.10369,0 0.21824,0.02412 0.11455,0.02291 0.24116,0.06994 z"
         id="path938"
         inkscape:connector-curvature="0" />
      <path
         d="m 101.09511,80.277982 h 0.24478 v 0.737939 h 0.6668 v -0.737939 h 0.24477 v 1.800235 h -0.24477 v -0.857312 h -0.6668 v 0.857312 h -0.24478 z"
         id="path940"
         inkscape:connector-curvature="0" />
      <path
         d="m 103.15821,80.492611 -0.25683,0.921219 h 0.51366 z m -0.14711,-0.214629 h 0.29542 l 0.55104,1.800235 h -0.252 l -0.13264,-0.46905 h -0.63063 l -0.13022,0.46905 h -0.25201 z"
         id="path943"
         inkscape:connector-curvature="0" />
      <path
         d="m 104.38208,80.478142 v 0.676444 h 0.28215 q 0.16881,0 0.26286,-0.08923 0.0953,-0.08923 0.0953,-0.249597 0,-0.160369 -0.0941,-0.248391 -0.094,-0.08923 -0.26407,-0.08923 z m -0.24357,-0.20016 h 0.52572 q 0.30145,0 0.457,0.137459 0.15554,0.136254 0.15554,0.40032 0,0.266478 -0.15554,0.402732 -0.15434,0.136253 -0.457,0.136253 h -0.28215 v 0.723471 h -0.24357 z"
         id="path945"
         inkscape:connector-curvature="0" />
      <path
         d="m 105.62404,80.277982 h 1.06832 v 0.204983 h -0.82475 v 0.532956 h 0.78858 v 0.204984 h -0.78858 v 0.652328 h 0.84766 v 0.204984 h -1.09123 z"
         id="path947"
         inkscape:connector-curvature="0" />
    </g>
    <rect
       style="fill:#ffffff;fill-opacity:0.30000001;stroke-width:0.1;stroke-linecap:round;paint-order:markers stroke fill"
       id="rect926"
       width="21.934511"
       height="2.3630869"
       x="106.88074"
       y="74.324409"
       rx="0"
       ry="0" />
    <rect
       ry="0"
       rx="0"
       y="74.324409"
       x="76.189095"
       height="2.3630869"
       width="21.934511"
       id="rect928"
       style="fill:#ffffff;fill-opacity:0.30000001;stroke-width:0.1;stroke-linecap:round;paint-order:markers stroke fill" />
    <rect
       style="fill:#f0f0f0;stroke-width:0.05046688;stroke-linecap:round;paint-order:markers stroke fill"
       id="rect927"
       width="6.2065926"
       height="0.29019755"
       x="99.39888"
       y="82.511787"
       rx="0"
       ry="0" />
  </g>
</svg>
