<?xml version="1.0" encoding="UTF-8" standalone="no"?>
<!-- Created with Inkscape (http://www.inkscape.org/) -->

<svg
   xmlns:dc="http://purl.org/dc/elements/1.1/"
   xmlns:cc="http://creativecommons.org/ns#"
   xmlns:rdf="http://www.w3.org/1999/02/22-rdf-syntax-ns#"
   xmlns:svg="http://www.w3.org/2000/svg"
   xmlns="http://www.w3.org/2000/svg"
   xmlns:sodipodi="http://sodipodi.sourceforge.net/DTD/sodipodi-0.dtd"
   xmlns:inkscape="http://www.inkscape.org/namespaces/inkscape"
   width="120"
   height="380"
   viewBox="0 0 31.749999 100.54167"
   version="1.1"
   id="svg8"
   inkscape:version="0.92.2 (5c3e80d, 2017-08-06)"
   sodipodi:docname="Fade-Dark.svg">
  <defs
     id="defs2" />
  <sodipodi:namedview
     id="base"
     pagecolor="#ffffff"
     bordercolor="#666666"
     borderopacity="1.0"
     inkscape:pageopacity="0.0"
     inkscape:pageshadow="2"
     inkscape:zoom="1.979899"
     inkscape:cx="24.787619"
     inkscape:cy="184.14242"
     inkscape:document-units="mm"
     inkscape:current-layer="layer1"
     showgrid="false"
     units="px"
     inkscape:window-width="1920"
     inkscape:window-height="1033"
     inkscape:window-x="-4"
     inkscape:window-y="-4"
     inkscape:window-maximized="1"
     showguides="true"
     inkscape:guide-bbox="true"
     inkscape:snap-global="true" />
  <metadata
     id="metadata5">
    <rdf:RDF>
      <cc:Work
         rdf:about="">
        <dc:format>image/svg+xml</dc:format>
        <dc:type
           rdf:resource="http://purl.org/dc/dcmitype/StillImage" />
        <dc:title />
      </cc:Work>
    </rdf:RDF>
  </metadata>
  <g
     inkscape:label="Ebene 1"
     inkscape:groupmode="layer"
     id="layer1"
     transform="translate(0,-196.45832)">
    <rect
       style="opacity:1;fill:#333333;fill-opacity:1;fill-rule:nonzero;stroke:none;stroke-width:0.85299999;stroke-linecap:square;stroke-linejoin:miter;stroke-miterlimit:4;stroke-dasharray:none;stroke-dashoffset:0;stroke-opacity:0.50196078;paint-order:markers stroke fill"
       id="rect815"
       width="31.75"
       height="100.54166"
       x="2.023228e-006"
       y="196.45863" />
    <g
       inkscape:transform-center-y="119.65244"
       inkscape:transform-center-x="-44.974764"
       id="g1358"
       transform="matrix(1.4311608,-1.4311608,1.4311608,1.4311608,-212.47927,-272.10806)"
       style="opacity:1;fill:none;fill-opacity:0.80000001;stroke:#000000;stroke-opacity:1;stroke-width:0.04940792;stroke-miterlimit:4;stroke-dasharray:none">
      <g
         id="g1356"
         style="fill:none;fill-opacity:0.80000001;stroke:#000000;stroke-opacity:1;stroke-width:0.04940792;stroke-miterlimit:4;stroke-dasharray:none">
        <g
           id="g1324"
           transform="translate(185.73646,-9.5250064)"
           style="fill:none;fill-opacity:0.80000001;stroke:#000000;stroke-opacity:1;stroke-width:0.04940792;stroke-miterlimit:4;stroke-dasharray:none">
          <g
             transform="translate(-137.10274)"
             id="g1308"
             style="fill:none;fill-opacity:0.80000001;stroke:#000000;stroke-opacity:1;stroke-width:0.04940792;stroke-miterlimit:4;stroke-dasharray:none">
            <path
               inkscape:connector-curvature="0"
               style="opacity:1;fill:none;fill-opacity:0.80000001;fill-rule:nonzero;stroke:#000000;stroke-width:0.1867386;stroke-linecap:round;stroke-linejoin:miter;stroke-miterlimit:4;stroke-dasharray:none;stroke-dashoffset:0;stroke-opacity:1;paint-order:markers stroke fill"
               d="m -718.94922,154.57227 c -14.32932,0.45458 -33.60356,20.71937 -31.29883,34.27148 -2.45838,14.45558 19.63622,36.55017 34.0918,34.0918 h 134.0918 v -9.0918 h -100.00196 v -25 c 2.45839,-14.4556 -19.63425,-36.54823 -34.08984,-34.08984 -0.90347,-0.15365 -1.83768,-0.21195 -2.79297,-0.18164 z m 1.00586,8.95898 c 0.63005,0.0232 1.22828,0.12471 1.78711,0.3125 8.94127,-3.00469 28.00471,16.05874 25,25 v 25 h -25 c -8.94126,3.00469 -28.00469,-16.05873 -25,-25 -2.8169,-8.38244 13.76214,-25.66117 23.21289,-25.3125 z m 26.78711,150.3125 v 9.0918 h 9.08984 v -9.0918 z"
               transform="matrix(0.26458333,0,0,0.26458333,0,196.45832)"
               id="path1296" />
            <path
               inkscape:connector-curvature="0"
               style="opacity:1;fill:none;fill-opacity:0.80000001;fill-rule:nonzero;stroke:#000000;stroke-width:0.1867386;stroke-linecap:round;stroke-linejoin:miter;stroke-miterlimit:4;stroke-dasharray:none;stroke-dashoffset:0;stroke-opacity:1;paint-order:markers stroke fill"
               d="m -718.55273,136.5293 c -24.81903,0.43381 -51.20004,27.62664 -49.87696,52.31445 -1.36576,25.48418 26.78925,53.63919 52.27344,52.27344 h 134.0918 v -9.0918 h -134.0918 c -19.96987,1.91207 -45.09371,-23.21177 -43.18164,-43.18164 -1.91207,-19.96987 23.21177,-45.0937 43.18164,-43.18164 19.96988,-1.91208 45.09374,23.21176 43.18164,43.18164 v 25 h 9.0918 v -25 c 1.36576,-25.4842 -26.78924,-53.63725 -52.27344,-52.27148 -0.79638,-0.0427 -1.59587,-0.057 -2.39648,-0.043 z m 45.57812,177.31445 v 9.0918 h 9.0918 v -9.0918 z"
               transform="matrix(0.26458333,0,0,0.26458333,0,196.45832)"
               id="path1298" />
            <path
               inkscape:connector-curvature="0"
               style="opacity:1;fill:none;fill-opacity:0.80000001;fill-rule:nonzero;stroke:#000000;stroke-width:0.1867386;stroke-linecap:round;stroke-linejoin:miter;stroke-miterlimit:4;stroke-dasharray:none;stroke-dashoffset:0;stroke-opacity:1;paint-order:markers stroke fill"
               d="m -716.15625,118.38867 c -36.51277,-0.27315 -70.72823,33.94231 -70.45508,70.45508 -0.27315,36.51277 33.94231,70.72822 70.45508,70.45508 h 134.0918 v -9.0918 h -134.0918 c -30.99848,0.81946 -62.18274,-30.3648 -61.36328,-61.36328 -0.81946,-30.99848 30.3648,-62.18273 61.36328,-61.36328 30.9985,-0.81946 62.18277,30.36478 61.36328,61.36328 v 25 h 9.0918 v -25 c 0.27315,-36.51278 -33.94229,-70.72823 -70.45508,-70.45508 z m 61.36328,195.45508 v 9.0918 h 9.0918 v -9.0918 z"
               transform="matrix(0.26458333,0,0,0.26458333,0,196.45832)"
               id="path1300" />
            <path
               inkscape:connector-curvature="0"
               style="opacity:1;fill:none;fill-opacity:0.80000001;fill-rule:nonzero;stroke:#000000;stroke-width:0.1867386;stroke-linecap:round;stroke-linejoin:miter;stroke-miterlimit:4;stroke-dasharray:none;stroke-dashoffset:0;stroke-opacity:1;paint-order:markers stroke fill"
               d="m -716.15625,100.20703 c -47.54138,0.81946 -87.81726,41.09534 -88.63672,88.63672 0.81946,47.54137 41.09535,87.81724 88.63672,88.63672 h 134.0918 v -9.0918 h -134.0918 v 0.002 c -42.02709,-0.27313 -79.27177,-37.51979 -79.54492,-79.54687 0.27315,-42.02708 37.51784,-79.27175 79.54492,-79.54492 42.02711,0.27315 79.2718,37.51781 79.54492,79.54492 v 25 h 9.0918 v -25 c -0.81947,-47.54138 -41.09532,-87.81726 -88.63672,-88.63672 z m 79.54492,213.63672 v 9.0918 h 9.0918 v -9.0918 z"
               transform="matrix(0.26458333,0,0,0.26458333,0,196.45832)"
               id="path1302" />
            <path
               inkscape:connector-curvature="0"
               style="opacity:1;fill:none;fill-opacity:0.80000001;fill-rule:nonzero;stroke:#000000;stroke-width:0.1867386;stroke-linecap:round;stroke-linejoin:miter;stroke-miterlimit:4;stroke-dasharray:none;stroke-dashoffset:0;stroke-opacity:1;paint-order:markers stroke fill"
               d="m -716.15625,82.025391 c -58.56997,1.912073 -104.90628,48.248379 -106.81836,106.818359 1.91207,58.56996 48.2484,104.90626 106.81836,106.81836 h 134.0918 v -9.08984 h -134.0918 c -53.05565,-1.36577 -96.3608,-44.67288 -97.72656,-97.72852 1.36576,-53.05564 44.67093,-96.360781 97.72656,-97.726562 53.05567,1.365765 96.36083,44.670882 97.72656,97.726562 v 25 h 9.0918 v -25 C -611.24997,130.27379 -657.58625,83.937471 -716.15625,82.025391 Z m 97.72656,231.818359 v 9.0918 h 9.0918 v -9.0918 z"
               transform="matrix(0.26458333,0,0,0.26458333,0,196.45832)"
               id="path1304" />
            <path
               inkscape:connector-curvature="0"
               style="opacity:1;fill:none;fill-opacity:0.80000001;fill-rule:nonzero;stroke:#000000;stroke-width:0.1867386;stroke-linecap:round;stroke-linejoin:miter;stroke-miterlimit:4;stroke-dasharray:none;stroke-dashoffset:0;stroke-opacity:1;paint-order:markers stroke fill"
               d="m -716.15625,63.84375 c -69.59855,3.004689 -121.99531,55.40145 -125,125 3.00469,69.59853 55.40147,121.99529 125,125 h 115.9082 v 9.0918 h 9.0918 v -9.0918 h 9.0918 v -9.08984 h -134.0918 c -64.08426,-2.45838 -113.45177,-51.82592 -115.91016,-115.91016 2.45839,-64.08424 51.82592,-113.449802 115.91016,-115.908203 64.08428,2.458384 113.44986,51.823903 115.9082,115.908203 v 25 h 9.0918 v -25 c -3.0047,-69.59854 -55.40142,-121.99531 -125,-125 z"
               transform="matrix(0.26458333,0,0,0.26458333,0,196.45832)"
               id="path1306" />
          </g>
          <g
             transform="rotate(90,-222.55592,213.35031)"
             id="g1322"
             style="fill:none;fill-opacity:0.80000001;stroke:#000000;stroke-opacity:1;stroke-width:0.04940792;stroke-miterlimit:4;stroke-dasharray:none">
            <path
               inkscape:connector-curvature="0"
               id="path1310"
               transform="matrix(0.26458333,0,0,0.26458333,0,196.45832)"
               d="m -718.94922,154.57227 c -14.32932,0.45458 -33.60356,20.71937 -31.29883,34.27148 -2.45838,14.45558 19.63622,36.55017 34.0918,34.0918 h 134.0918 v -9.0918 h -100.00196 v -25 c 2.45839,-14.4556 -19.63425,-36.54823 -34.08984,-34.08984 -0.90347,-0.15365 -1.83768,-0.21195 -2.79297,-0.18164 z m 1.00586,8.95898 c 0.63005,0.0232 1.22828,0.12471 1.78711,0.3125 8.94127,-3.00469 28.00471,16.05874 25,25 v 25 h -25 c -8.94126,3.00469 -28.00469,-16.05873 -25,-25 -2.8169,-8.38244 13.76214,-25.66117 23.21289,-25.3125 z m 26.78711,150.3125 v 9.0918 h 9.08984 v -9.0918 z"
               style="opacity:1;fill:none;fill-opacity:0.80000001;fill-rule:nonzero;stroke:#000000;stroke-width:0.1867386;stroke-linecap:round;stroke-linejoin:miter;stroke-miterlimit:4;stroke-dasharray:none;stroke-dashoffset:0;stroke-opacity:1;paint-order:markers stroke fill" />
            <path
               inkscape:connector-curvature="0"
               id="path1312"
               transform="matrix(0.26458333,0,0,0.26458333,0,196.45832)"
               d="m -718.55273,136.5293 c -24.81903,0.43381 -51.20004,27.62664 -49.87696,52.31445 -1.36576,25.48418 26.78925,53.63919 52.27344,52.27344 h 134.0918 v -9.0918 h -134.0918 c -19.96987,1.91207 -45.09371,-23.21177 -43.18164,-43.18164 -1.91207,-19.96987 23.21177,-45.0937 43.18164,-43.18164 19.96988,-1.91208 45.09374,23.21176 43.18164,43.18164 v 25 h 9.0918 v -25 c 1.36576,-25.4842 -26.78924,-53.63725 -52.27344,-52.27148 -0.79638,-0.0427 -1.59587,-0.057 -2.39648,-0.043 z m 45.57812,177.31445 v 9.0918 h 9.0918 v -9.0918 z"
               style="opacity:1;fill:none;fill-opacity:0.80000001;fill-rule:nonzero;stroke:#000000;stroke-width:0.1867386;stroke-linecap:round;stroke-linejoin:miter;stroke-miterlimit:4;stroke-dasharray:none;stroke-dashoffset:0;stroke-opacity:1;paint-order:markers stroke fill" />
            <path
               inkscape:connector-curvature="0"
               id="path1314"
               transform="matrix(0.26458333,0,0,0.26458333,0,196.45832)"
               d="m -716.15625,118.38867 c -36.51277,-0.27315 -70.72823,33.94231 -70.45508,70.45508 -0.27315,36.51277 33.94231,70.72822 70.45508,70.45508 h 134.0918 v -9.0918 h -134.0918 c -30.99848,0.81946 -62.18274,-30.3648 -61.36328,-61.36328 -0.81946,-30.99848 30.3648,-62.18273 61.36328,-61.36328 30.9985,-0.81946 62.18277,30.36478 61.36328,61.36328 v 25 h 9.0918 v -25 c 0.27315,-36.51278 -33.94229,-70.72823 -70.45508,-70.45508 z m 61.36328,195.45508 v 9.0918 h 9.0918 v -9.0918 z"
               style="opacity:1;fill:none;fill-opacity:0.80000001;fill-rule:nonzero;stroke:#000000;stroke-width:0.1867386;stroke-linecap:round;stroke-linejoin:miter;stroke-miterlimit:4;stroke-dasharray:none;stroke-dashoffset:0;stroke-opacity:1;paint-order:markers stroke fill" />
            <path
               inkscape:connector-curvature="0"
               id="path1316"
               transform="matrix(0.26458333,0,0,0.26458333,0,196.45832)"
               d="m -716.15625,100.20703 c -47.54138,0.81946 -87.81726,41.09534 -88.63672,88.63672 0.81946,47.54137 41.09535,87.81724 88.63672,88.63672 h 134.0918 v -9.0918 h -134.0918 v 0.002 c -42.02709,-0.27313 -79.27177,-37.51979 -79.54492,-79.54687 0.27315,-42.02708 37.51784,-79.27175 79.54492,-79.54492 42.02711,0.27315 79.2718,37.51781 79.54492,79.54492 v 25 h 9.0918 v -25 c -0.81947,-47.54138 -41.09532,-87.81726 -88.63672,-88.63672 z m 79.54492,213.63672 v 9.0918 h 9.0918 v -9.0918 z"
               style="opacity:1;fill:none;fill-opacity:0.80000001;fill-rule:nonzero;stroke:#000000;stroke-width:0.1867386;stroke-linecap:round;stroke-linejoin:miter;stroke-miterlimit:4;stroke-dasharray:none;stroke-dashoffset:0;stroke-opacity:1;paint-order:markers stroke fill" />
            <path
               inkscape:connector-curvature="0"
               id="path1318"
               transform="matrix(0.26458333,0,0,0.26458333,0,196.45832)"
               d="m -716.15625,82.025391 c -58.56997,1.912073 -104.90628,48.248379 -106.81836,106.818359 1.91207,58.56996 48.2484,104.90626 106.81836,106.81836 h 134.0918 v -9.08984 h -134.0918 c -53.05565,-1.36577 -96.3608,-44.67288 -97.72656,-97.72852 1.36576,-53.05564 44.67093,-96.360781 97.72656,-97.726562 53.05567,1.365765 96.36083,44.670882 97.72656,97.726562 v 25 h 9.0918 v -25 C -611.24997,130.27379 -657.58625,83.937471 -716.15625,82.025391 Z m 97.72656,231.818359 v 9.0918 h 9.0918 v -9.0918 z"
               style="opacity:1;fill:none;fill-opacity:0.80000001;fill-rule:nonzero;stroke:#000000;stroke-width:0.1867386;stroke-linecap:round;stroke-linejoin:miter;stroke-miterlimit:4;stroke-dasharray:none;stroke-dashoffset:0;stroke-opacity:1;paint-order:markers stroke fill" />
            <path
               inkscape:connector-curvature="0"
               id="path1320"
               transform="matrix(0.26458333,0,0,0.26458333,0,196.45832)"
               d="m -716.15625,63.84375 c -69.59855,3.004689 -121.99531,55.40145 -125,125 3.00469,69.59853 55.40147,121.99529 125,125 h 115.9082 v 9.0918 h 9.0918 v -9.0918 h 9.0918 v -9.08984 h -134.0918 c -64.08426,-2.45838 -113.45177,-51.82592 -115.91016,-115.91016 2.45839,-64.08424 51.82592,-113.449802 115.91016,-115.908203 64.08428,2.458384 113.44986,51.823903 115.9082,115.908203 v 25 h 9.0918 v -25 c -3.0047,-69.59854 -55.40142,-121.99531 -125,-125 z"
               style="opacity:1;fill:none;fill-opacity:0.80000001;fill-rule:nonzero;stroke:#000000;stroke-width:0.1867386;stroke-linecap:round;stroke-linejoin:miter;stroke-miterlimit:4;stroke-dasharray:none;stroke-dashoffset:0;stroke-opacity:1;paint-order:markers stroke fill" />
          </g>
        </g>
        <g
           transform="rotate(-180,-198.23854,277.13918)"
           id="g1354"
           style="fill:none;fill-opacity:0.80000001;stroke:#000000;stroke-opacity:1;stroke-width:0.04940792;stroke-miterlimit:4;stroke-dasharray:none">
          <g
             id="g1338"
             transform="translate(-137.10274)"
             style="fill:none;fill-opacity:0.80000001;stroke:#000000;stroke-opacity:1;stroke-width:0.04940792;stroke-miterlimit:4;stroke-dasharray:none">
            <path
               id="path1326"
               transform="matrix(0.26458333,0,0,0.26458333,0,196.45832)"
               d="m -718.94922,154.57227 c -14.32932,0.45458 -33.60356,20.71937 -31.29883,34.27148 -2.45838,14.45558 19.63622,36.55017 34.0918,34.0918 h 134.0918 v -9.0918 h -100.00196 v -25 c 2.45839,-14.4556 -19.63425,-36.54823 -34.08984,-34.08984 -0.90347,-0.15365 -1.83768,-0.21195 -2.79297,-0.18164 z m 1.00586,8.95898 c 0.63005,0.0232 1.22828,0.12471 1.78711,0.3125 8.94127,-3.00469 28.00471,16.05874 25,25 v 25 h -25 c -8.94126,3.00469 -28.00469,-16.05873 -25,-25 -2.8169,-8.38244 13.76214,-25.66117 23.21289,-25.3125 z m 26.78711,150.3125 v 9.0918 h 9.08984 v -9.0918 z"
               style="opacity:1;fill:none;fill-opacity:0.80000001;fill-rule:nonzero;stroke:#000000;stroke-width:0.1867386;stroke-linecap:round;stroke-linejoin:miter;stroke-miterlimit:4;stroke-dasharray:none;stroke-dashoffset:0;stroke-opacity:1;paint-order:markers stroke fill"
               inkscape:connector-curvature="0" />
            <path
               id="path1328"
               transform="matrix(0.26458333,0,0,0.26458333,0,196.45832)"
               d="m -718.55273,136.5293 c -24.81903,0.43381 -51.20004,27.62664 -49.87696,52.31445 -1.36576,25.48418 26.78925,53.63919 52.27344,52.27344 h 134.0918 v -9.0918 h -134.0918 c -19.96987,1.91207 -45.09371,-23.21177 -43.18164,-43.18164 -1.91207,-19.96987 23.21177,-45.0937 43.18164,-43.18164 19.96988,-1.91208 45.09374,23.21176 43.18164,43.18164 v 25 h 9.0918 v -25 c 1.36576,-25.4842 -26.78924,-53.63725 -52.27344,-52.27148 -0.79638,-0.0427 -1.59587,-0.057 -2.39648,-0.043 z m 45.57812,177.31445 v 9.0918 h 9.0918 v -9.0918 z"
               style="opacity:1;fill:none;fill-opacity:0.80000001;fill-rule:nonzero;stroke:#000000;stroke-width:0.1867386;stroke-linecap:round;stroke-linejoin:miter;stroke-miterlimit:4;stroke-dasharray:none;stroke-dashoffset:0;stroke-opacity:1;paint-order:markers stroke fill"
               inkscape:connector-curvature="0" />
            <path
               id="path1330"
               transform="matrix(0.26458333,0,0,0.26458333,0,196.45832)"
               d="m -716.15625,118.38867 c -36.51277,-0.27315 -70.72823,33.94231 -70.45508,70.45508 -0.27315,36.51277 33.94231,70.72822 70.45508,70.45508 h 134.0918 v -9.0918 h -134.0918 c -30.99848,0.81946 -62.18274,-30.3648 -61.36328,-61.36328 -0.81946,-30.99848 30.3648,-62.18273 61.36328,-61.36328 30.9985,-0.81946 62.18277,30.36478 61.36328,61.36328 v 25 h 9.0918 v -25 c 0.27315,-36.51278 -33.94229,-70.72823 -70.45508,-70.45508 z m 61.36328,195.45508 v 9.0918 h 9.0918 v -9.0918 z"
               style="opacity:1;fill:none;fill-opacity:0.80000001;fill-rule:nonzero;stroke:#000000;stroke-width:0.1867386;stroke-linecap:round;stroke-linejoin:miter;stroke-miterlimit:4;stroke-dasharray:none;stroke-dashoffset:0;stroke-opacity:1;paint-order:markers stroke fill"
               inkscape:connector-curvature="0" />
            <path
               id="path1332"
               transform="matrix(0.26458333,0,0,0.26458333,0,196.45832)"
               d="m -716.15625,100.20703 c -47.54138,0.81946 -87.81726,41.09534 -88.63672,88.63672 0.81946,47.54137 41.09535,87.81724 88.63672,88.63672 h 134.0918 v -9.0918 h -134.0918 v 0.002 c -42.02709,-0.27313 -79.27177,-37.51979 -79.54492,-79.54687 0.27315,-42.02708 37.51784,-79.27175 79.54492,-79.54492 42.02711,0.27315 79.2718,37.51781 79.54492,79.54492 v 25 h 9.0918 v -25 c -0.81947,-47.54138 -41.09532,-87.81726 -88.63672,-88.63672 z m 79.54492,213.63672 v 9.0918 h 9.0918 v -9.0918 z"
               style="opacity:1;fill:none;fill-opacity:0.80000001;fill-rule:nonzero;stroke:#000000;stroke-width:0.1867386;stroke-linecap:round;stroke-linejoin:miter;stroke-miterlimit:4;stroke-dasharray:none;stroke-dashoffset:0;stroke-opacity:1;paint-order:markers stroke fill"
               inkscape:connector-curvature="0" />
            <path
               id="path1334"
               transform="matrix(0.26458333,0,0,0.26458333,0,196.45832)"
               d="m -716.15625,82.025391 c -58.56997,1.912073 -104.90628,48.248379 -106.81836,106.818359 1.91207,58.56996 48.2484,104.90626 106.81836,106.81836 h 134.0918 v -9.08984 h -134.0918 c -53.05565,-1.36577 -96.3608,-44.67288 -97.72656,-97.72852 1.36576,-53.05564 44.67093,-96.360781 97.72656,-97.726562 53.05567,1.365765 96.36083,44.670882 97.72656,97.726562 v 25 h 9.0918 v -25 C -611.24997,130.27379 -657.58625,83.937471 -716.15625,82.025391 Z m 97.72656,231.818359 v 9.0918 h 9.0918 v -9.0918 z"
               style="opacity:1;fill:none;fill-opacity:0.80000001;fill-rule:nonzero;stroke:#000000;stroke-width:0.1867386;stroke-linecap:round;stroke-linejoin:miter;stroke-miterlimit:4;stroke-dasharray:none;stroke-dashoffset:0;stroke-opacity:1;paint-order:markers stroke fill"
               inkscape:connector-curvature="0" />
            <path
               id="path1336"
               transform="matrix(0.26458333,0,0,0.26458333,0,196.45832)"
               d="m -716.15625,63.84375 c -69.59855,3.004689 -121.99531,55.40145 -125,125 3.00469,69.59853 55.40147,121.99529 125,125 h 115.9082 v 9.0918 h 9.0918 v -9.0918 h 9.0918 v -9.08984 h -134.0918 c -64.08426,-2.45838 -113.45177,-51.82592 -115.91016,-115.91016 2.45839,-64.08424 51.82592,-113.449802 115.91016,-115.908203 64.08428,2.458384 113.44986,51.823903 115.9082,115.908203 v 25 h 9.0918 v -25 c -3.0047,-69.59854 -55.40142,-121.99531 -125,-125 z"
               style="opacity:1;fill:none;fill-opacity:0.80000001;fill-rule:nonzero;stroke:#000000;stroke-width:0.1867386;stroke-linecap:round;stroke-linejoin:miter;stroke-miterlimit:4;stroke-dasharray:none;stroke-dashoffset:0;stroke-opacity:1;paint-order:markers stroke fill"
               inkscape:connector-curvature="0" />
          </g>
          <g
             id="g1352"
             transform="rotate(90,-222.55592,213.35031)"
             style="fill:none;fill-opacity:0.80000001;stroke:#000000;stroke-opacity:1;stroke-width:0.04940792;stroke-miterlimit:4;stroke-dasharray:none">
            <path
               style="opacity:1;fill:none;fill-opacity:0.80000001;fill-rule:nonzero;stroke:#000000;stroke-width:0.1867386;stroke-linecap:round;stroke-linejoin:miter;stroke-miterlimit:4;stroke-dasharray:none;stroke-dashoffset:0;stroke-opacity:1;paint-order:markers stroke fill"
               d="m -718.94922,154.57227 c -14.32932,0.45458 -33.60356,20.71937 -31.29883,34.27148 -2.45838,14.45558 19.63622,36.55017 34.0918,34.0918 h 134.0918 v -9.0918 h -100.00196 v -25 c 2.45839,-14.4556 -19.63425,-36.54823 -34.08984,-34.08984 -0.90347,-0.15365 -1.83768,-0.21195 -2.79297,-0.18164 z m 1.00586,8.95898 c 0.63005,0.0232 1.22828,0.12471 1.78711,0.3125 8.94127,-3.00469 28.00471,16.05874 25,25 v 25 h -25 c -8.94126,3.00469 -28.00469,-16.05873 -25,-25 -2.8169,-8.38244 13.76214,-25.66117 23.21289,-25.3125 z m 26.78711,150.3125 v 9.0918 h 9.08984 v -9.0918 z"
               transform="matrix(0.26458333,0,0,0.26458333,0,196.45832)"
               id="path1340"
               inkscape:connector-curvature="0" />
            <path
               style="opacity:1;fill:none;fill-opacity:0.80000001;fill-rule:nonzero;stroke:#000000;stroke-width:0.1867386;stroke-linecap:round;stroke-linejoin:miter;stroke-miterlimit:4;stroke-dasharray:none;stroke-dashoffset:0;stroke-opacity:1;paint-order:markers stroke fill"
               d="m -718.55273,136.5293 c -24.81903,0.43381 -51.20004,27.62664 -49.87696,52.31445 -1.36576,25.48418 26.78925,53.63919 52.27344,52.27344 h 134.0918 v -9.0918 h -134.0918 c -19.96987,1.91207 -45.09371,-23.21177 -43.18164,-43.18164 -1.91207,-19.96987 23.21177,-45.0937 43.18164,-43.18164 19.96988,-1.91208 45.09374,23.21176 43.18164,43.18164 v 25 h 9.0918 v -25 c 1.36576,-25.4842 -26.78924,-53.63725 -52.27344,-52.27148 -0.79638,-0.0427 -1.59587,-0.057 -2.39648,-0.043 z m 45.57812,177.31445 v 9.0918 h 9.0918 v -9.0918 z"
               transform="matrix(0.26458333,0,0,0.26458333,0,196.45832)"
               id="path1342"
               inkscape:connector-curvature="0" />
            <path
               style="opacity:1;fill:none;fill-opacity:0.80000001;fill-rule:nonzero;stroke:#000000;stroke-width:0.1867386;stroke-linecap:round;stroke-linejoin:miter;stroke-miterlimit:4;stroke-dasharray:none;stroke-dashoffset:0;stroke-opacity:1;paint-order:markers stroke fill"
               d="m -716.15625,118.38867 c -36.51277,-0.27315 -70.72823,33.94231 -70.45508,70.45508 -0.27315,36.51277 33.94231,70.72822 70.45508,70.45508 h 134.0918 v -9.0918 h -134.0918 c -30.99848,0.81946 -62.18274,-30.3648 -61.36328,-61.36328 -0.81946,-30.99848 30.3648,-62.18273 61.36328,-61.36328 30.9985,-0.81946 62.18277,30.36478 61.36328,61.36328 v 25 h 9.0918 v -25 c 0.27315,-36.51278 -33.94229,-70.72823 -70.45508,-70.45508 z m 61.36328,195.45508 v 9.0918 h 9.0918 v -9.0918 z"
               transform="matrix(0.26458333,0,0,0.26458333,0,196.45832)"
               id="path1344"
               inkscape:connector-curvature="0" />
            <path
               style="opacity:1;fill:none;fill-opacity:0.80000001;fill-rule:nonzero;stroke:#000000;stroke-width:0.1867386;stroke-linecap:round;stroke-linejoin:miter;stroke-miterlimit:4;stroke-dasharray:none;stroke-dashoffset:0;stroke-opacity:1;paint-order:markers stroke fill"
               d="m -716.15625,100.20703 c -47.54138,0.81946 -87.81726,41.09534 -88.63672,88.63672 0.81946,47.54137 41.09535,87.81724 88.63672,88.63672 h 134.0918 v -9.0918 h -134.0918 v 0.002 c -42.02709,-0.27313 -79.27177,-37.51979 -79.54492,-79.54687 0.27315,-42.02708 37.51784,-79.27175 79.54492,-79.54492 42.02711,0.27315 79.2718,37.51781 79.54492,79.54492 v 25 h 9.0918 v -25 c -0.81947,-47.54138 -41.09532,-87.81726 -88.63672,-88.63672 z m 79.54492,213.63672 v 9.0918 h 9.0918 v -9.0918 z"
               transform="matrix(0.26458333,0,0,0.26458333,0,196.45832)"
               id="path1346"
               inkscape:connector-curvature="0" />
            <path
               style="opacity:1;fill:none;fill-opacity:0.80000001;fill-rule:nonzero;stroke:#000000;stroke-width:0.1867386;stroke-linecap:round;stroke-linejoin:miter;stroke-miterlimit:4;stroke-dasharray:none;stroke-dashoffset:0;stroke-opacity:1;paint-order:markers stroke fill"
               d="m -716.15625,82.025391 c -58.56997,1.912073 -104.90628,48.248379 -106.81836,106.818359 1.91207,58.56996 48.2484,104.90626 106.81836,106.81836 h 134.0918 v -9.08984 h -134.0918 c -53.05565,-1.36577 -96.3608,-44.67288 -97.72656,-97.72852 1.36576,-53.05564 44.67093,-96.360781 97.72656,-97.726562 53.05567,1.365765 96.36083,44.670882 97.72656,97.726562 v 25 h 9.0918 v -25 C -611.24997,130.27379 -657.58625,83.937471 -716.15625,82.025391 Z m 97.72656,231.818359 v 9.0918 h 9.0918 v -9.0918 z"
               transform="matrix(0.26458333,0,0,0.26458333,0,196.45832)"
               id="path1348"
               inkscape:connector-curvature="0" />
            <path
               style="opacity:1;fill:none;fill-opacity:0.80000001;fill-rule:nonzero;stroke:#000000;stroke-width:0.1867386;stroke-linecap:round;stroke-linejoin:miter;stroke-miterlimit:4;stroke-dasharray:none;stroke-dashoffset:0;stroke-opacity:1;paint-order:markers stroke fill"
               d="m -716.15625,63.84375 c -69.59855,3.004689 -121.99531,55.40145 -125,125 3.00469,69.59853 55.40147,121.99529 125,125 h 115.9082 v 9.0918 h 9.0918 v -9.0918 h 9.0918 v -9.08984 h -134.0918 c -64.08426,-2.45838 -113.45177,-51.82592 -115.91016,-115.91016 2.45839,-64.08424 51.82592,-113.449802 115.91016,-115.908203 64.08428,2.458384 113.44986,51.823903 115.9082,115.908203 v 25 h 9.0918 v -25 c -3.0047,-69.59854 -55.40142,-121.99531 -125,-125 z"
               transform="matrix(0.26458333,0,0,0.26458333,0,196.45832)"
               id="path1350"
               inkscape:connector-curvature="0" />
          </g>
        </g>
      </g>
    </g>
    <path
       style="opacity:1;fill:#f0f0f0;fill-opacity:0.80000012;fill-rule:nonzero;stroke:#000000;stroke-width:0.10655684;stroke-linecap:round;stroke-linejoin:miter;stroke-miterlimit:4;stroke-dasharray:none;stroke-dashoffset:0;stroke-opacity:1;paint-order:markers stroke fill"
       id="path940"
       sodipodi:type="arc"
       sodipodi:cx="15.874995"
       sodipodi:cy="208.78745"
       sodipodi:rx="4.8331137"
       sodipodi:ry="4.8331137"
       sodipodi:start="0"
       sodipodi:end="6.2782635"
       sodipodi:open="true"
       d="m 20.708109,208.78745 a 4.8331137,4.8331137 0 0 1 -4.827167,4.83311 4.8331137,4.8331137 0 0 1 -4.839046,-4.82122 4.8331137,4.8331137 0 0 1 4.815259,-4.84498 4.8331137,4.8331137 0 0 1 4.850895,4.8093" />
    <g
       transform="matrix(0.04017394,-0.04017394,0.04017394,0.04017394,9.1656937,193.61186)"
       id="g11621">
      <g
         id="g11619">
        <g
           transform="translate(185.73646,-9.5250064)"
           id="g11587">
          <g
             id="g11571"
             transform="translate(-137.10274)">
            <path
               id="path11559"
               transform="matrix(0.26458333,0,0,0.26458333,0,196.45832)"
               d="m -718.94922,154.57227 c -14.32932,0.45458 -33.60356,20.71937 -31.29883,34.27148 -2.45838,14.45558 19.63622,36.55017 34.0918,34.0918 h 134.0918 v -9.0918 h -100.00196 v -25 c 2.45839,-14.4556 -19.63425,-36.54823 -34.08984,-34.08984 -0.90347,-0.15365 -1.83768,-0.21195 -2.79297,-0.18164 z m 1.00586,8.95898 c 0.63005,0.0232 1.22828,0.12471 1.78711,0.3125 8.94127,-3.00469 28.00471,16.05874 25,25 v 25 h -25 c -8.94126,3.00469 -28.00469,-16.05873 -25,-25 -2.8169,-8.38244 13.76214,-25.66117 23.21289,-25.3125 z m 26.78711,150.3125 v 9.0918 h 9.08984 v -9.0918 z"
               style="opacity:1;fill:#5320a5;fill-opacity:1;fill-rule:nonzero;stroke:none;stroke-width:6.9784193;stroke-linecap:round;stroke-linejoin:miter;stroke-miterlimit:4;stroke-dasharray:none;stroke-dashoffset:0;stroke-opacity:1;paint-order:markers stroke fill"
               inkscape:connector-curvature="0" />
            <path
               id="path11561"
               transform="matrix(0.26458333,0,0,0.26458333,0,196.45832)"
               d="m -718.55273,136.5293 c -24.81903,0.43381 -51.20004,27.62664 -49.87696,52.31445 -1.36576,25.48418 26.78925,53.63919 52.27344,52.27344 h 134.0918 v -9.0918 h -134.0918 c -19.96987,1.91207 -45.09371,-23.21177 -43.18164,-43.18164 -1.91207,-19.96987 23.21177,-45.0937 43.18164,-43.18164 19.96988,-1.91208 45.09374,23.21176 43.18164,43.18164 v 25 h 9.0918 v -25 c 1.36576,-25.4842 -26.78924,-53.63725 -52.27344,-52.27148 -0.79638,-0.0427 -1.59587,-0.057 -2.39648,-0.043 z m 45.57812,177.31445 v 9.0918 h 9.0918 v -9.0918 z"
               style="opacity:1;fill:#4545b5;fill-opacity:1;fill-rule:nonzero;stroke:none;stroke-width:6.9784193;stroke-linecap:round;stroke-linejoin:miter;stroke-miterlimit:4;stroke-dasharray:none;stroke-dashoffset:0;stroke-opacity:1;paint-order:markers stroke fill"
               inkscape:connector-curvature="0" />
            <path
               id="path11563"
               transform="matrix(0.26458333,0,0,0.26458333,0,196.45832)"
               d="m -716.15625,118.38867 c -36.51277,-0.27315 -70.72823,33.94231 -70.45508,70.45508 -0.27315,36.51277 33.94231,70.72822 70.45508,70.45508 h 134.0918 v -9.0918 h -134.0918 c -30.99848,0.81946 -62.18274,-30.3648 -61.36328,-61.36328 -0.81946,-30.99848 30.3648,-62.18273 61.36328,-61.36328 30.9985,-0.81946 62.18277,30.36478 61.36328,61.36328 v 25 h 9.0918 v -25 c 0.27315,-36.51278 -33.94229,-70.72823 -70.45508,-70.45508 z m 61.36328,195.45508 v 9.0918 h 9.0918 v -9.0918 z"
               style="opacity:1;fill:#6c8ada;fill-opacity:1;fill-rule:nonzero;stroke:none;stroke-width:6.9784193;stroke-linecap:round;stroke-linejoin:miter;stroke-miterlimit:4;stroke-dasharray:none;stroke-dashoffset:0;stroke-opacity:1;paint-order:markers stroke fill"
               inkscape:connector-curvature="0" />
            <path
               id="path11565"
               transform="matrix(0.26458333,0,0,0.26458333,0,196.45832)"
               d="m -716.15625,100.20703 c -47.54138,0.81946 -87.81726,41.09534 -88.63672,88.63672 0.81946,47.54137 41.09535,87.81724 88.63672,88.63672 h 134.0918 v -9.0918 h -134.0918 v 0.002 c -42.02709,-0.27313 -79.27177,-37.51979 -79.54492,-79.54687 0.27315,-42.02708 37.51784,-79.27175 79.54492,-79.54492 42.02711,0.27315 79.2718,37.51781 79.54492,79.54492 v 25 h 9.0918 v -25 c -0.81947,-47.54138 -41.09532,-87.81726 -88.63672,-88.63672 z m 79.54492,213.63672 v 9.0918 h 9.0918 v -9.0918 z"
               style="opacity:1;fill:#38d8d8;fill-opacity:1;fill-rule:nonzero;stroke:none;stroke-width:6.9784193;stroke-linecap:round;stroke-linejoin:miter;stroke-miterlimit:4;stroke-dasharray:none;stroke-dashoffset:0;stroke-opacity:1;paint-order:markers stroke fill"
               inkscape:connector-curvature="0" />
            <path
               id="path11567"
               transform="matrix(0.26458333,0,0,0.26458333,0,196.45832)"
               d="m -716.15625,82.025391 c -58.56997,1.912073 -104.90628,48.248379 -106.81836,106.818359 1.91207,58.56996 48.2484,104.90626 106.81836,106.81836 h 134.0918 v -9.08984 h -134.0918 c -53.05565,-1.36577 -96.3608,-44.67288 -97.72656,-97.72852 1.36576,-53.05564 44.67093,-96.360781 97.72656,-97.726562 53.05567,1.365765 96.36083,44.670882 97.72656,97.726562 v 25 h 9.0918 v -25 C -611.24997,130.27379 -657.58625,83.937471 -716.15625,82.025391 Z m 97.72656,231.818359 v 9.0918 h 9.0918 v -9.0918 z"
               style="opacity:1;fill:#3545d3;fill-opacity:1;fill-rule:nonzero;stroke:none;stroke-width:6.9784193;stroke-linecap:round;stroke-linejoin:miter;stroke-miterlimit:4;stroke-dasharray:none;stroke-dashoffset:0;stroke-opacity:1;paint-order:markers stroke fill"
               inkscape:connector-curvature="0" />
            <path
               id="path11569"
               transform="matrix(0.26458333,0,0,0.26458333,0,196.45832)"
               d="m -716.15625,63.84375 c -69.59855,3.004689 -121.99531,55.40145 -125,125 3.00469,69.59853 55.40147,121.99529 125,125 h 115.9082 v 9.0918 h 9.0918 v -9.0918 h 9.0918 v -9.08984 h -134.0918 c -64.08426,-2.45838 -113.45177,-51.82592 -115.91016,-115.91016 2.45839,-64.08424 51.82592,-113.449802 115.91016,-115.908203 64.08428,2.458384 113.44986,51.823903 115.9082,115.908203 v 25 h 9.0918 v -25 c -3.0047,-69.59854 -55.40142,-121.99531 -125,-125 z"
               style="opacity:1;fill:#5320a5;fill-opacity:1;fill-rule:nonzero;stroke:none;stroke-width:6.9784193;stroke-linecap:round;stroke-linejoin:miter;stroke-miterlimit:4;stroke-dasharray:none;stroke-dashoffset:0;stroke-opacity:1;paint-order:markers stroke fill"
               inkscape:connector-curvature="0" />
          </g>
          <g
             id="g11585"
             transform="rotate(90,-222.55592,213.35031)">
            <path
               style="opacity:1;fill:#5320a5;fill-opacity:1;fill-rule:nonzero;stroke:none;stroke-width:6.9784193;stroke-linecap:round;stroke-linejoin:miter;stroke-miterlimit:4;stroke-dasharray:none;stroke-dashoffset:0;stroke-opacity:1;paint-order:markers stroke fill"
               d="m -718.94922,154.57227 c -14.32932,0.45458 -33.60356,20.71937 -31.29883,34.27148 -2.45838,14.45558 19.63622,36.55017 34.0918,34.0918 h 134.0918 v -9.0918 h -100.00196 v -25 c 2.45839,-14.4556 -19.63425,-36.54823 -34.08984,-34.08984 -0.90347,-0.15365 -1.83768,-0.21195 -2.79297,-0.18164 z m 1.00586,8.95898 c 0.63005,0.0232 1.22828,0.12471 1.78711,0.3125 8.94127,-3.00469 28.00471,16.05874 25,25 v 25 h -25 c -8.94126,3.00469 -28.00469,-16.05873 -25,-25 -2.8169,-8.38244 13.76214,-25.66117 23.21289,-25.3125 z m 26.78711,150.3125 v 9.0918 h 9.08984 v -9.0918 z"
               transform="matrix(0.26458333,0,0,0.26458333,0,196.45832)"
               id="path11573"
               inkscape:connector-curvature="0" />
            <path
               style="opacity:1;fill:#4545b5;fill-opacity:1;fill-rule:nonzero;stroke:none;stroke-width:6.9784193;stroke-linecap:round;stroke-linejoin:miter;stroke-miterlimit:4;stroke-dasharray:none;stroke-dashoffset:0;stroke-opacity:1;paint-order:markers stroke fill"
               d="m -718.55273,136.5293 c -24.81903,0.43381 -51.20004,27.62664 -49.87696,52.31445 -1.36576,25.48418 26.78925,53.63919 52.27344,52.27344 h 134.0918 v -9.0918 h -134.0918 c -19.96987,1.91207 -45.09371,-23.21177 -43.18164,-43.18164 -1.91207,-19.96987 23.21177,-45.0937 43.18164,-43.18164 19.96988,-1.91208 45.09374,23.21176 43.18164,43.18164 v 25 h 9.0918 v -25 c 1.36576,-25.4842 -26.78924,-53.63725 -52.27344,-52.27148 -0.79638,-0.0427 -1.59587,-0.057 -2.39648,-0.043 z m 45.57812,177.31445 v 9.0918 h 9.0918 v -9.0918 z"
               transform="matrix(0.26458333,0,0,0.26458333,0,196.45832)"
               id="path11575"
               inkscape:connector-curvature="0" />
            <path
               style="opacity:1;fill:#6c8ada;fill-opacity:1;fill-rule:nonzero;stroke:none;stroke-width:6.9784193;stroke-linecap:round;stroke-linejoin:miter;stroke-miterlimit:4;stroke-dasharray:none;stroke-dashoffset:0;stroke-opacity:1;paint-order:markers stroke fill"
               d="m -716.15625,118.38867 c -36.51277,-0.27315 -70.72823,33.94231 -70.45508,70.45508 -0.27315,36.51277 33.94231,70.72822 70.45508,70.45508 h 134.0918 v -9.0918 h -134.0918 c -30.99848,0.81946 -62.18274,-30.3648 -61.36328,-61.36328 -0.81946,-30.99848 30.3648,-62.18273 61.36328,-61.36328 30.9985,-0.81946 62.18277,30.36478 61.36328,61.36328 v 25 h 9.0918 v -25 c 0.27315,-36.51278 -33.94229,-70.72823 -70.45508,-70.45508 z m 61.36328,195.45508 v 9.0918 h 9.0918 v -9.0918 z"
               transform="matrix(0.26458333,0,0,0.26458333,0,196.45832)"
               id="path11577"
               inkscape:connector-curvature="0" />
            <path
               style="opacity:1;fill:#38d8d8;fill-opacity:1;fill-rule:nonzero;stroke:none;stroke-width:6.9784193;stroke-linecap:round;stroke-linejoin:miter;stroke-miterlimit:4;stroke-dasharray:none;stroke-dashoffset:0;stroke-opacity:1;paint-order:markers stroke fill"
               d="m -716.15625,100.20703 c -47.54138,0.81946 -87.81726,41.09534 -88.63672,88.63672 0.81946,47.54137 41.09535,87.81724 88.63672,88.63672 h 134.0918 v -9.0918 h -134.0918 v 0.002 c -42.02709,-0.27313 -79.27177,-37.51979 -79.54492,-79.54687 0.27315,-42.02708 37.51784,-79.27175 79.54492,-79.54492 42.02711,0.27315 79.2718,37.51781 79.54492,79.54492 v 25 h 9.0918 v -25 c -0.81947,-47.54138 -41.09532,-87.81726 -88.63672,-88.63672 z m 79.54492,213.63672 v 9.0918 h 9.0918 v -9.0918 z"
               transform="matrix(0.26458333,0,0,0.26458333,0,196.45832)"
               id="path11579"
               inkscape:connector-curvature="0" />
            <path
               style="opacity:1;fill:#3545d3;fill-opacity:1;fill-rule:nonzero;stroke:none;stroke-width:6.9784193;stroke-linecap:round;stroke-linejoin:miter;stroke-miterlimit:4;stroke-dasharray:none;stroke-dashoffset:0;stroke-opacity:1;paint-order:markers stroke fill"
               d="m -716.15625,82.025391 c -58.56997,1.912073 -104.90628,48.248379 -106.81836,106.818359 1.91207,58.56996 48.2484,104.90626 106.81836,106.81836 h 134.0918 v -9.08984 h -134.0918 c -53.05565,-1.36577 -96.3608,-44.67288 -97.72656,-97.72852 1.36576,-53.05564 44.67093,-96.360781 97.72656,-97.726562 53.05567,1.365765 96.36083,44.670882 97.72656,97.726562 v 25 h 9.0918 v -25 C -611.24997,130.27379 -657.58625,83.937471 -716.15625,82.025391 Z m 97.72656,231.818359 v 9.0918 h 9.0918 v -9.0918 z"
               transform="matrix(0.26458333,0,0,0.26458333,0,196.45832)"
               id="path11581"
               inkscape:connector-curvature="0" />
            <path
               style="opacity:1;fill:#5320a5;fill-opacity:1;fill-rule:nonzero;stroke:none;stroke-width:6.9784193;stroke-linecap:round;stroke-linejoin:miter;stroke-miterlimit:4;stroke-dasharray:none;stroke-dashoffset:0;stroke-opacity:1;paint-order:markers stroke fill"
               d="m -716.15625,63.84375 c -69.59855,3.004689 -121.99531,55.40145 -125,125 3.00469,69.59853 55.40147,121.99529 125,125 h 115.9082 v 9.0918 h 9.0918 v -9.0918 h 9.0918 v -9.08984 h -134.0918 c -64.08426,-2.45838 -113.45177,-51.82592 -115.91016,-115.91016 2.45839,-64.08424 51.82592,-113.449802 115.91016,-115.908203 64.08428,2.458384 113.44986,51.823903 115.9082,115.908203 v 25 h 9.0918 v -25 c -3.0047,-69.59854 -55.40142,-121.99531 -125,-125 z"
               transform="matrix(0.26458333,0,0,0.26458333,0,196.45832)"
               id="path11583"
               inkscape:connector-curvature="0" />
          </g>
        </g>
        <g
           id="g11617"
           transform="rotate(-180,-198.23854,277.13918)">
          <g
             transform="translate(-137.10274)"
             id="g11601">
            <path
               inkscape:connector-curvature="0"
               style="opacity:1;fill:#5320a5;fill-opacity:1;fill-rule:nonzero;stroke:none;stroke-width:6.9784193;stroke-linecap:round;stroke-linejoin:miter;stroke-miterlimit:4;stroke-dasharray:none;stroke-dashoffset:0;stroke-opacity:1;paint-order:markers stroke fill"
               d="m -718.94922,154.57227 c -14.32932,0.45458 -33.60356,20.71937 -31.29883,34.27148 -2.45838,14.45558 19.63622,36.55017 34.0918,34.0918 h 134.0918 v -9.0918 h -100.00196 v -25 c 2.45839,-14.4556 -19.63425,-36.54823 -34.08984,-34.08984 -0.90347,-0.15365 -1.83768,-0.21195 -2.79297,-0.18164 z m 1.00586,8.95898 c 0.63005,0.0232 1.22828,0.12471 1.78711,0.3125 8.94127,-3.00469 28.00471,16.05874 25,25 v 25 h -25 c -8.94126,3.00469 -28.00469,-16.05873 -25,-25 -2.8169,-8.38244 13.76214,-25.66117 23.21289,-25.3125 z m 26.78711,150.3125 v 9.0918 h 9.08984 v -9.0918 z"
               transform="matrix(0.26458333,0,0,0.26458333,0,196.45832)"
               id="path11589" />
            <path
               inkscape:connector-curvature="0"
               style="opacity:1;fill:#4545b5;fill-opacity:1;fill-rule:nonzero;stroke:none;stroke-width:6.9784193;stroke-linecap:round;stroke-linejoin:miter;stroke-miterlimit:4;stroke-dasharray:none;stroke-dashoffset:0;stroke-opacity:1;paint-order:markers stroke fill"
               d="m -718.55273,136.5293 c -24.81903,0.43381 -51.20004,27.62664 -49.87696,52.31445 -1.36576,25.48418 26.78925,53.63919 52.27344,52.27344 h 134.0918 v -9.0918 h -134.0918 c -19.96987,1.91207 -45.09371,-23.21177 -43.18164,-43.18164 -1.91207,-19.96987 23.21177,-45.0937 43.18164,-43.18164 19.96988,-1.91208 45.09374,23.21176 43.18164,43.18164 v 25 h 9.0918 v -25 c 1.36576,-25.4842 -26.78924,-53.63725 -52.27344,-52.27148 -0.79638,-0.0427 -1.59587,-0.057 -2.39648,-0.043 z m 45.57812,177.31445 v 9.0918 h 9.0918 v -9.0918 z"
               transform="matrix(0.26458333,0,0,0.26458333,0,196.45832)"
               id="path11591" />
            <path
               inkscape:connector-curvature="0"
               style="opacity:1;fill:#6c8ada;fill-opacity:1;fill-rule:nonzero;stroke:none;stroke-width:6.9784193;stroke-linecap:round;stroke-linejoin:miter;stroke-miterlimit:4;stroke-dasharray:none;stroke-dashoffset:0;stroke-opacity:1;paint-order:markers stroke fill"
               d="m -716.15625,118.38867 c -36.51277,-0.27315 -70.72823,33.94231 -70.45508,70.45508 -0.27315,36.51277 33.94231,70.72822 70.45508,70.45508 h 134.0918 v -9.0918 h -134.0918 c -30.99848,0.81946 -62.18274,-30.3648 -61.36328,-61.36328 -0.81946,-30.99848 30.3648,-62.18273 61.36328,-61.36328 30.9985,-0.81946 62.18277,30.36478 61.36328,61.36328 v 25 h 9.0918 v -25 c 0.27315,-36.51278 -33.94229,-70.72823 -70.45508,-70.45508 z m 61.36328,195.45508 v 9.0918 h 9.0918 v -9.0918 z"
               transform="matrix(0.26458333,0,0,0.26458333,0,196.45832)"
               id="path11593" />
            <path
               inkscape:connector-curvature="0"
               style="opacity:1;fill:#38d8d8;fill-opacity:1;fill-rule:nonzero;stroke:none;stroke-width:6.9784193;stroke-linecap:round;stroke-linejoin:miter;stroke-miterlimit:4;stroke-dasharray:none;stroke-dashoffset:0;stroke-opacity:1;paint-order:markers stroke fill"
               d="m -716.15625,100.20703 c -47.54138,0.81946 -87.81726,41.09534 -88.63672,88.63672 0.81946,47.54137 41.09535,87.81724 88.63672,88.63672 h 134.0918 v -9.0918 h -134.0918 v 0.002 c -42.02709,-0.27313 -79.27177,-37.51979 -79.54492,-79.54687 0.27315,-42.02708 37.51784,-79.27175 79.54492,-79.54492 42.02711,0.27315 79.2718,37.51781 79.54492,79.54492 v 25 h 9.0918 v -25 c -0.81947,-47.54138 -41.09532,-87.81726 -88.63672,-88.63672 z m 79.54492,213.63672 v 9.0918 h 9.0918 v -9.0918 z"
               transform="matrix(0.26458333,0,0,0.26458333,0,196.45832)"
               id="path11595" />
            <path
               inkscape:connector-curvature="0"
               style="opacity:1;fill:#3545d3;fill-opacity:1;fill-rule:nonzero;stroke:none;stroke-width:6.9784193;stroke-linecap:round;stroke-linejoin:miter;stroke-miterlimit:4;stroke-dasharray:none;stroke-dashoffset:0;stroke-opacity:1;paint-order:markers stroke fill"
               d="m -716.15625,82.025391 c -58.56997,1.912073 -104.90628,48.248379 -106.81836,106.818359 1.91207,58.56996 48.2484,104.90626 106.81836,106.81836 h 134.0918 v -9.08984 h -134.0918 c -53.05565,-1.36577 -96.3608,-44.67288 -97.72656,-97.72852 1.36576,-53.05564 44.67093,-96.360781 97.72656,-97.726562 53.05567,1.365765 96.36083,44.670882 97.72656,97.726562 v 25 h 9.0918 v -25 C -611.24997,130.27379 -657.58625,83.937471 -716.15625,82.025391 Z m 97.72656,231.818359 v 9.0918 h 9.0918 v -9.0918 z"
               transform="matrix(0.26458333,0,0,0.26458333,0,196.45832)"
               id="path11597" />
            <path
               inkscape:connector-curvature="0"
               style="opacity:1;fill:#5320a5;fill-opacity:1;fill-rule:nonzero;stroke:none;stroke-width:6.9784193;stroke-linecap:round;stroke-linejoin:miter;stroke-miterlimit:4;stroke-dasharray:none;stroke-dashoffset:0;stroke-opacity:1;paint-order:markers stroke fill"
               d="m -716.15625,63.84375 c -69.59855,3.004689 -121.99531,55.40145 -125,125 3.00469,69.59853 55.40147,121.99529 125,125 h 115.9082 v 9.0918 h 9.0918 v -9.0918 h 9.0918 v -9.08984 h -134.0918 c -64.08426,-2.45838 -113.45177,-51.82592 -115.91016,-115.91016 2.45839,-64.08424 51.82592,-113.449802 115.91016,-115.908203 64.08428,2.458384 113.44986,51.823903 115.9082,115.908203 v 25 h 9.0918 v -25 c -3.0047,-69.59854 -55.40142,-121.99531 -125,-125 z"
               transform="matrix(0.26458333,0,0,0.26458333,0,196.45832)"
               id="path11599" />
          </g>
          <g
             transform="rotate(90,-222.55592,213.35031)"
             id="g11615">
            <path
               inkscape:connector-curvature="0"
               id="path11603"
               transform="matrix(0.26458333,0,0,0.26458333,0,196.45832)"
               d="m -718.94922,154.57227 c -14.32932,0.45458 -33.60356,20.71937 -31.29883,34.27148 -2.45838,14.45558 19.63622,36.55017 34.0918,34.0918 h 134.0918 v -9.0918 h -100.00196 v -25 c 2.45839,-14.4556 -19.63425,-36.54823 -34.08984,-34.08984 -0.90347,-0.15365 -1.83768,-0.21195 -2.79297,-0.18164 z m 1.00586,8.95898 c 0.63005,0.0232 1.22828,0.12471 1.78711,0.3125 8.94127,-3.00469 28.00471,16.05874 25,25 v 25 h -25 c -8.94126,3.00469 -28.00469,-16.05873 -25,-25 -2.8169,-8.38244 13.76214,-25.66117 23.21289,-25.3125 z m 26.78711,150.3125 v 9.0918 h 9.08984 v -9.0918 z"
               style="opacity:1;fill:#5320a5;fill-opacity:1;fill-rule:nonzero;stroke:none;stroke-width:6.9784193;stroke-linecap:round;stroke-linejoin:miter;stroke-miterlimit:4;stroke-dasharray:none;stroke-dashoffset:0;stroke-opacity:1;paint-order:markers stroke fill" />
            <path
               inkscape:connector-curvature="0"
               id="path11605"
               transform="matrix(0.26458333,0,0,0.26458333,0,196.45832)"
               d="m -718.55273,136.5293 c -24.81903,0.43381 -51.20004,27.62664 -49.87696,52.31445 -1.36576,25.48418 26.78925,53.63919 52.27344,52.27344 h 134.0918 v -9.0918 h -134.0918 c -19.96987,1.91207 -45.09371,-23.21177 -43.18164,-43.18164 -1.91207,-19.96987 23.21177,-45.0937 43.18164,-43.18164 19.96988,-1.91208 45.09374,23.21176 43.18164,43.18164 v 25 h 9.0918 v -25 c 1.36576,-25.4842 -26.78924,-53.63725 -52.27344,-52.27148 -0.79638,-0.0427 -1.59587,-0.057 -2.39648,-0.043 z m 45.57812,177.31445 v 9.0918 h 9.0918 v -9.0918 z"
               style="opacity:1;fill:#4545b5;fill-opacity:1;fill-rule:nonzero;stroke:none;stroke-width:6.9784193;stroke-linecap:round;stroke-linejoin:miter;stroke-miterlimit:4;stroke-dasharray:none;stroke-dashoffset:0;stroke-opacity:1;paint-order:markers stroke fill" />
            <path
               inkscape:connector-curvature="0"
               id="path11607"
               transform="matrix(0.26458333,0,0,0.26458333,0,196.45832)"
               d="m -716.15625,118.38867 c -36.51277,-0.27315 -70.72823,33.94231 -70.45508,70.45508 -0.27315,36.51277 33.94231,70.72822 70.45508,70.45508 h 134.0918 v -9.0918 h -134.0918 c -30.99848,0.81946 -62.18274,-30.3648 -61.36328,-61.36328 -0.81946,-30.99848 30.3648,-62.18273 61.36328,-61.36328 30.9985,-0.81946 62.18277,30.36478 61.36328,61.36328 v 25 h 9.0918 v -25 c 0.27315,-36.51278 -33.94229,-70.72823 -70.45508,-70.45508 z m 61.36328,195.45508 v 9.0918 h 9.0918 v -9.0918 z"
               style="opacity:1;fill:#6c8ada;fill-opacity:1;fill-rule:nonzero;stroke:none;stroke-width:6.9784193;stroke-linecap:round;stroke-linejoin:miter;stroke-miterlimit:4;stroke-dasharray:none;stroke-dashoffset:0;stroke-opacity:1;paint-order:markers stroke fill" />
            <path
               inkscape:connector-curvature="0"
               id="path11609"
               transform="matrix(0.26458333,0,0,0.26458333,0,196.45832)"
               d="m -716.15625,100.20703 c -47.54138,0.81946 -87.81726,41.09534 -88.63672,88.63672 0.81946,47.54137 41.09535,87.81724 88.63672,88.63672 h 134.0918 v -9.0918 h -134.0918 v 0.002 c -42.02709,-0.27313 -79.27177,-37.51979 -79.54492,-79.54687 0.27315,-42.02708 37.51784,-79.27175 79.54492,-79.54492 42.02711,0.27315 79.2718,37.51781 79.54492,79.54492 v 25 h 9.0918 v -25 c -0.81947,-47.54138 -41.09532,-87.81726 -88.63672,-88.63672 z m 79.54492,213.63672 v 9.0918 h 9.0918 v -9.0918 z"
               style="opacity:1;fill:#38d8d8;fill-opacity:1;fill-rule:nonzero;stroke:none;stroke-width:6.9784193;stroke-linecap:round;stroke-linejoin:miter;stroke-miterlimit:4;stroke-dasharray:none;stroke-dashoffset:0;stroke-opacity:1;paint-order:markers stroke fill" />
            <path
               inkscape:connector-curvature="0"
               id="path11611"
               transform="matrix(0.26458333,0,0,0.26458333,0,196.45832)"
               d="m -716.15625,82.025391 c -58.56997,1.912073 -104.90628,48.248379 -106.81836,106.818359 1.91207,58.56996 48.2484,104.90626 106.81836,106.81836 h 134.0918 v -9.08984 h -134.0918 c -53.05565,-1.36577 -96.3608,-44.67288 -97.72656,-97.72852 1.36576,-53.05564 44.67093,-96.360781 97.72656,-97.726562 53.05567,1.365765 96.36083,44.670882 97.72656,97.726562 v 25 h 9.0918 v -25 C -611.24997,130.27379 -657.58625,83.937471 -716.15625,82.025391 Z m 97.72656,231.818359 v 9.0918 h 9.0918 v -9.0918 z"
               style="opacity:1;fill:#3545d3;fill-opacity:1;fill-rule:nonzero;stroke:none;stroke-width:6.9784193;stroke-linecap:round;stroke-linejoin:miter;stroke-miterlimit:4;stroke-dasharray:none;stroke-dashoffset:0;stroke-opacity:1;paint-order:markers stroke fill" />
            <path
               inkscape:connector-curvature="0"
               id="path11613"
               transform="matrix(0.26458333,0,0,0.26458333,0,196.45832)"
               d="m -716.15625,63.84375 c -69.59855,3.004689 -121.99531,55.40145 -125,125 3.00469,69.59853 55.40147,121.99529 125,125 h 115.9082 v 9.0918 h 9.0918 v -9.0918 h 9.0918 v -9.08984 h -134.0918 c -64.08426,-2.45838 -113.45177,-51.82592 -115.91016,-115.91016 2.45839,-64.08424 51.82592,-113.449802 115.91016,-115.908203 64.08428,2.458384 113.44986,51.823903 115.9082,115.908203 v 25 h 9.0918 v -25 c -3.0047,-69.59854 -55.40142,-121.99531 -125,-125 z"
               style="opacity:1;fill:#5320a5;fill-opacity:1;fill-rule:nonzero;stroke:none;stroke-width:6.9784193;stroke-linecap:round;stroke-linejoin:miter;stroke-miterlimit:4;stroke-dasharray:none;stroke-dashoffset:0;stroke-opacity:1;paint-order:markers stroke fill" />
          </g>
        </g>
      </g>
    </g>
    <g
       transform="matrix(0.3124733,0,0,0.3124733,16.765374,240.30781)"
       id="g11631"
       style="fill:#f0f0f0;fill-opacity:0.80000013">
      <g
         aria-label="MS"
         style="font-style:normal;font-weight:normal;font-size:10.58333302px;line-height:1.25;font-family:sans-serif;letter-spacing:0px;word-spacing:0px;fill:#f0f0f0;fill-opacity:0.80000013;stroke:none;stroke-width:0.26458332"
         id="text11625">
        <path
           d="m -13.102167,168.46541 q 0.148166,-0.23284 0.370416,-0.32809 0.22225,-0.10583 0.455084,-0.10583 0.275166,0 0.4445,0.20108 0.169333,0.1905 0.169333,0.51859 v 5.02708 l 3.5348333,-5.31283 q 0.1481667,-0.23284 0.3598333,-0.32809 0.22225,-0.10583 0.4656667,-0.10583 0.2751666,0 0.4445,0.20108 0.1693333,0.1905 0.1693333,0.51859 v 7.59883 h -1.4393333 v -5.57742 l -3.2173333,5.08 q -0.179917,0.28575 -0.391583,0.39159 -0.211667,0.10583 -0.433917,0.10583 -0.1905,0 -0.359833,-0.0635 -0.169334,-0.0741 -0.296334,-0.20108 -0.127,-0.127 -0.201083,-0.29634 -0.07408,-0.16933 -0.07408,-0.381 v -4.6355 l -3.534833,5.57742 h -1.7145 z"
           style="font-style:normal;font-variant:normal;font-weight:normal;font-stretch:normal;font-family:Strasua;-inkscape-font-specification:Strasua;stroke-width:0.26458332;fill:#f0f0f0;fill-opacity:0.80000013"
           id="path908"
           inkscape:connector-curvature="0" />
        <path
           d="m -5.7073936,176.34999 v -1.43933 h 2.8892499 q 0.66675,0 1.1006666,-0.3175 0.4339167,-0.3175 0.4339167,-0.8255 0,-0.254 -0.1164167,-0.46567 -0.1164167,-0.21167 -0.3175,-0.35983 -0.2010833,-0.15875 -0.4868333,-0.24342 -0.28575,-0.0847 -0.6138333,-0.0847 h -0.6561667 q -0.5079999,0 -0.9419166,-0.15875 -0.4339167,-0.16933 -0.7514166,-0.46566 -0.3175,-0.30692 -0.4974167,-0.70909 -0.1799167,-0.41275 -0.1799167,-0.91016 0,-0.48684 0.1799167,-0.89959 0.1905,-0.41275 0.5291667,-0.71966 0.3386666,-0.30692 0.8149166,-0.47625 0.47625,-0.17992 1.04775,-0.17992 h 2.74108322 v 1.43933 H -3.3473104 q -0.4550833,0 -0.7196666,0.254 -0.2645833,0.24342 -0.2645833,0.59267 0,0.381 0.2645833,0.635 0.2751666,0.254 0.7196666,0.254 h 0.8149167 q 0.5503333,0 1.0159999,0.1905 0.4656667,0.17992 0.80433336,0.51858 0.33866665,0.33867 0.52916665,0.80434 0.19049999,0.46566 0.19049999,1.016 0,0.56091 -0.20108333,1.02658 -0.20108332,0.46567 -0.58208331,0.80433 -0.37041666,0.33867 -0.88899996,0.52917 -0.5185833,0.1905 -1.1535833,0.1905 z"
           style="font-style:normal;font-variant:normal;font-weight:normal;font-stretch:normal;font-family:Strasua;-inkscape-font-specification:Strasua;stroke-width:0.26458332;fill:#f0f0f0;fill-opacity:0.80000013"
           id="path910"
           inkscape:connector-curvature="0" />
      </g>
      <g
         aria-label="M"
         transform="scale(-1,1)"
         style="font-style:normal;font-weight:normal;font-size:10.58333302px;line-height:1.25;font-family:sans-serif;letter-spacing:0px;word-spacing:0px;fill:#f0f0f0;fill-opacity:0.80000013;stroke:none;stroke-width:0.26458332"
         id="text11629">
        <path
           d="m -7.4032889,168.46365 q 0.1481666,-0.23283 0.3704166,-0.32808 0.22225,-0.10583 0.4550834,-0.10583 0.2751666,0 0.4444999,0.20108 0.1693334,0.1905 0.1693334,0.51858 v 5.02709 l 3.5348332,-5.31284 q 0.1481667,-0.23283 0.3598333,-0.32808 0.22225,-0.10583 0.4656667,-0.10583 0.2751666,0 0.4445,0.20108 0.16933329,0.1905 0.16933329,0.51858 v 7.59884 H -2.4291224 v -5.57742 l -3.2173332,5.08 q -0.1799167,0.28575 -0.3915834,0.39158 -0.2116666,0.10584 -0.4339166,0.10584 -0.1905,0 -0.3598333,-0.0635 -0.1693334,-0.0741 -0.2963334,-0.20109 -0.127,-0.127 -0.2010833,-0.29633 -0.074083,-0.16933 -0.074083,-0.381 v -4.6355 l -3.5348334,5.57742 h -1.7145 z"
           style="font-style:normal;font-variant:normal;font-weight:normal;font-stretch:normal;font-family:Strasua;-inkscape-font-specification:Strasua;stroke-width:0.26458332;fill:#f0f0f0;fill-opacity:0.80000013"
           id="path913"
           inkscape:connector-curvature="0" />
      </g>
    </g>
    <g
       aria-label="FADE"
       style="font-style:normal;font-weight:normal;font-size:10.58333302px;line-height:1.25;font-family:sans-serif;letter-spacing:0px;word-spacing:0px;fill:#f0f0f0;fill-opacity:0.80000013;stroke:none;stroke-width:0.26458332"
       id="text897">
      <path
         d="m 12.556683,198.76107 h -1.531345 v 0.77652 h 1.393886 v 0.62701 h -1.393886 v 1.56993 h -0.711412 v -3.60047 h 2.242757 z"
         style="font-style:normal;font-variant:normal;font-weight:bold;font-stretch:normal;font-size:4.93888903px;font-family:'DejaVu Sans Mono';-inkscape-font-specification:'DejaVu Sans Mono Bold';stroke-width:0.26458332;fill:#f0f0f0;fill-opacity:0.80000013"
         id="path899" />
      <path
         d="m 14.331597,198.78518 -0.335208,1.47347 h 0.672827 z m -0.434082,-0.65112 h 0.870575 l 0.971862,3.60047 H 15.02854 l -0.221865,-0.88987 h -0.952569 l -0.217041,0.88987 h -0.711412 z"
         style="font-style:normal;font-variant:normal;font-weight:bold;font-stretch:normal;font-size:4.93888903px;font-family:'DejaVu Sans Mono';-inkscape-font-specification:'DejaVu Sans Mono Bold';stroke-width:0.26458332;fill:#f0f0f0;fill-opacity:0.80000013"
         id="path901" />
      <path
         d="m 16.858919,198.77553 v 2.31752 h 0.192925 q 0.419613,0 0.598069,-0.26286 0.178456,-0.26527 0.178456,-0.89951 0,-0.62942 -0.178456,-0.89228 -0.178456,-0.26287 -0.598069,-0.26287 z m -0.711412,-0.64147 h 0.762055 q 0.882633,0 1.270896,0.42202 0.388262,0.41962 0.388262,1.3746 0,0.95739 -0.388262,1.38182 -0.388263,0.42203 -1.270896,0.42203 h -0.762055 z"
         style="font-style:normal;font-variant:normal;font-weight:bold;font-stretch:normal;font-size:4.93888903px;font-family:'DejaVu Sans Mono';-inkscape-font-specification:'DejaVu Sans Mono Bold';stroke-width:0.26458332;fill:#f0f0f0;fill-opacity:0.80000013"
         id="path903" />
      <path
         d="m 21.436073,201.73453 h -2.242757 v -3.60047 h 2.242757 v 0.62701 h -1.531345 v 0.77652 h 1.386651 v 0.62701 h -1.386651 v 0.94292 h 1.531345 z"
         style="font-style:normal;font-variant:normal;font-weight:bold;font-stretch:normal;font-size:4.93888903px;font-family:'DejaVu Sans Mono';-inkscape-font-specification:'DejaVu Sans Mono Bold';stroke-width:0.26458332;fill:#f0f0f0;fill-opacity:0.80000013"
         id="path905" />
    </g>
    <g
       aria-label="A"
       style="font-style:normal;font-weight:normal;font-size:10.58333302px;line-height:1.25;font-family:sans-serif;letter-spacing:0px;word-spacing:0px;fill:#f0f0f0;fill-opacity:0.80000013;stroke:none;stroke-width:0.26458332"
       id="text1074"
       transform="translate(8.1264881,-26.390513)">
      <path
         d="m -4.9632999,238.01177 -0.2873209,1.26297 h 0.576709 z m -0.3720702,-0.55811 h 0.7462076 l 0.833024,3.08612 h -0.6097818 l -0.1901693,-0.76274 h -0.8164876 l -0.1860351,0.76274 h -0.6097819 z"
         style="font-style:normal;font-variant:normal;font-weight:bold;font-stretch:normal;font-size:4.23333311px;font-family:'DejaVu Sans Mono';-inkscape-font-specification:'DejaVu Sans Mono Bold';stroke-width:0.26458332;fill:#f0f0f0;fill-opacity:0.80000013"
         id="path1100"
         inkscape:connector-curvature="0" />
    </g>
    <g
       aria-label="B"
       style="font-style:normal;font-weight:normal;font-size:10.58333302px;line-height:1.25;font-family:sans-serif;letter-spacing:0px;word-spacing:0px;fill:#f0f0f0;fill-opacity:0.80000013;stroke:none;stroke-width:0.26458332"
       id="text1086"
       transform="translate(33.450893,-30.733716)">
      <path
         d="m -5.4836075,243.48504 v 0.91364 h 0.4051432 q 0.2914551,0 0.4072103,-0.0992 0.1178222,-0.0992 0.1178222,-0.3452 0,-0.25011 -0.1219563,-0.35967 -0.1219564,-0.10955 -0.4030762,-0.10955 z m 0,-1.20303 v 0.71727 h 0.4051432 q 0.2315104,0 0.3286621,-0.0827 0.099219,-0.0827 0.099219,-0.27285 0,-0.19017 -0.1012858,-0.27492 -0.099219,-0.0868 -0.326595,-0.0868 z m -0.5891113,-0.48576 h 0.9942545 q 0.5146973,0 0.7730794,0.19638 0.2604492,0.1943 0.2604492,0.58291 0,0.29765 -0.1529622,0.46508 -0.1529623,0.16743 -0.4485514,0.19431 0.3534667,0.0351 0.5312337,0.23771 0.1798339,0.20257 0.1798339,0.56637 0,0.44649 -0.2687174,0.64699 -0.2687174,0.20051 -0.8743652,0.20051 h -0.9942545 z"
         style="font-style:normal;font-variant:normal;font-weight:bold;font-stretch:normal;font-size:4.23333311px;font-family:'DejaVu Sans Mono';-inkscape-font-specification:'DejaVu Sans Mono Bold';stroke-width:0.26458332;fill:#f0f0f0;fill-opacity:0.80000013"
         id="path1097"
         inkscape:connector-curvature="0" />
    </g>
    <g
       aria-label="AB"
       style="font-style:normal;font-weight:normal;font-size:10.58333302px;line-height:1.25;font-family:sans-serif;letter-spacing:0px;word-spacing:0px;fill:#f0f0f0;fill-opacity:0.80000013;stroke:none;stroke-width:0.26458332"
       id="text1090"
       transform="translate(19.606334,-7.5634579)">
      <path
         d="m -4.9632999,247.17769 -0.2873209,1.26297 h 0.576709 z m -0.3720702,-0.5581 h 0.7462076 l 0.833024,3.08611 h -0.6097818 l -0.1901693,-0.76274 h -0.8164876 l -0.1860351,0.76274 h -0.6097819 z"
         style="font-style:normal;font-variant:normal;font-weight:bold;font-stretch:normal;font-size:4.23333311px;font-family:'DejaVu Sans Mono';-inkscape-font-specification:'DejaVu Sans Mono Bold';stroke-width:0.26458332;fill:#f0f0f0;fill-opacity:0.80000013"
         id="path1092"
         inkscape:connector-curvature="0" />
      <path
         d="m -2.8424992,248.30424 v 0.91364 h 0.4051432 q 0.291455,0 0.4072103,-0.0992 0.1178222,-0.0992 0.1178222,-0.3452 0,-0.25011 -0.1219564,-0.35967 -0.1219563,-0.10955 -0.4030761,-0.10955 z m 0,-1.20303 v 0.71727 h 0.4051432 q 0.2315104,0 0.3286621,-0.0827 0.099219,-0.0827 0.099219,-0.27285 0,-0.19017 -0.1012858,-0.27492 -0.099219,-0.0868 -0.326595,-0.0868 z m -0.5891113,-0.48576 h 0.9942545 q 0.5146972,0 0.7730794,0.19637 0.2604492,0.19431 0.2604492,0.58291 0,0.29766 -0.1529623,0.46509 -0.1529622,0.16743 -0.4485514,0.19431 0.3534668,0.0351 0.5312337,0.23771 0.179834,0.20257 0.179834,0.56637 0,0.44648 -0.2687174,0.64699 -0.2687175,0.2005 -0.8743652,0.2005 h -0.9942545 z"
         style="font-style:normal;font-variant:normal;font-weight:bold;font-stretch:normal;font-size:4.23333311px;font-family:'DejaVu Sans Mono';-inkscape-font-specification:'DejaVu Sans Mono Bold';stroke-width:0.26458332;fill:#f0f0f0;fill-opacity:0.80000013"
         id="path1094"
         inkscape:connector-curvature="0" />
    </g>
    <g
       aria-label="OUT A"
       style="font-style:normal;font-variant:normal;font-weight:normal;font-stretch:normal;font-size:2.46944451px;line-height:1.25;font-family:'DejaVu Sans Mono';-inkscape-font-specification:'DejaVu Sans Mono';letter-spacing:0px;word-spacing:0px;fill:#f0f0f0;fill-opacity:0.80000013;stroke:none;stroke-width:0.26458332"
       id="text945"
       transform="translate(27.648719,-2.535935)">
      <path
         d="m -3.7864348,271.04514 q 0,-0.3967 -0.081993,-0.56672 -0.080788,-0.17001 -0.2664782,-0.17001 -0.1844848,0 -0.2664781,0.17001 -0.080787,0.17002 -0.080787,0.56672 0,0.3955 0.080787,0.56551 0.081993,0.17002 0.2664781,0.17002 0.1856907,0 0.2664782,-0.16881 0.081993,-0.17001 0.081993,-0.56672 z m 0.2544203,0 q 0,0.47026 -0.1495172,0.70177 -0.1483113,0.23151 -0.4533746,0.23151 -0.3050632,0 -0.4533745,-0.23031 -0.1483114,-0.2303 -0.1483114,-0.70297 0,-0.47146 0.1483114,-0.70297 0.1495171,-0.23151 0.4533745,-0.23151 0.3050633,0 0.4533746,0.23151 0.1495172,0.23151 0.1495172,0.70297 z"
         style="stroke-width:0.26458332;fill:#f0f0f0;fill-opacity:0.80000013"
         id="path1044"
         inkscape:connector-curvature="0" />
      <path
         d="m -3.2148934,271.25254 v -1.10932 h 0.244774 v 1.22025 q 0,0.13143 0.00723,0.1881 0.00723,0.0555 0.025322,0.0856 0.038585,0.0711 0.110932,0.10732 0.073553,0.0362 0.1772502,0.0362 0.1049032,0 0.1772502,-0.0362 0.072347,-0.0362 0.1121378,-0.10732 0.018087,-0.0301 0.025322,-0.0856 0.00723,-0.0555 0.00723,-0.18569 v -1.22266 h 0.2435682 v 1.10932 q 0,0.27612 -0.034968,0.39308 -0.033762,0.11576 -0.1181668,0.19172 -0.079582,0.0711 -0.1820733,0.10611 -0.1024916,0.035 -0.2303046,0.035 -0.1266073,0 -0.2290989,-0.035 -0.1024915,-0.035 -0.183279,-0.10611 -0.083199,-0.0748 -0.1181668,-0.19292 -0.034968,-0.11938 -0.034968,-0.39188 z"
         style="stroke-width:0.26458332;fill:#f0f0f0;fill-opacity:0.80000013"
         id="path1046"
         inkscape:connector-curvature="0" />
      <path
         d="m -1.8499465,270.14322 h 1.37338732 v 0.20498 H -1.0396601 v 1.59525 h -0.244774 v -1.59525 h -0.5655124 z"
         style="stroke-width:0.26458332;fill:#f0f0f0;fill-opacity:0.80000013"
         id="path1048"
         inkscape:connector-curvature="0" />
      <path
         d="m 1.8071948,270.35785 -0.2568319,0.92121 h 0.5136637 z m -0.1471056,-0.21463 h 0.2954169 l 0.5510431,1.80023 H 2.2545404 L 2.1219042,271.4744 H 1.4912795 l -0.1302246,0.46905 H 1.1090461 Z"
         style="stroke-width:0.26458332;fill:#f0f0f0;fill-opacity:0.80000013"
         id="path1050"
         inkscape:connector-curvature="0" />
    </g>
    <g
       aria-label="OUT B"
       style="font-style:normal;font-variant:normal;font-weight:normal;font-stretch:normal;font-size:2.46944451px;line-height:1.25;font-family:'DejaVu Sans Mono';-inkscape-font-specification:'DejaVu Sans Mono';letter-spacing:0px;word-spacing:0px;fill:#f0f0f0;fill-opacity:0.80000013;stroke:none;stroke-width:0.26458332"
       id="text949"
       transform="translate(27.545596,5.153095)">
      <path
         d="m -3.7864348,273.69102 q 0,-0.39671 -0.081993,-0.56672 -0.080788,-0.17002 -0.2664782,-0.17002 -0.1844848,0 -0.2664781,0.17002 -0.080787,0.17001 -0.080787,0.56672 0,0.39549 0.080787,0.56551 0.081993,0.17001 0.2664781,0.17001 0.1856907,0 0.2664782,-0.16881 0.081993,-0.17001 0.081993,-0.56671 z m 0.2544203,0 q 0,0.47025 -0.1495172,0.70176 -0.1483113,0.23151 -0.4533746,0.23151 -0.3050632,0 -0.4533745,-0.2303 -0.1483114,-0.23031 -0.1483114,-0.70297 0,-0.47147 0.1483114,-0.70298 0.1495171,-0.23151 0.4533745,-0.23151 0.3050633,0 0.4533746,0.23151 0.1495172,0.23151 0.1495172,0.70298 z"
         style="stroke-width:0.26458332;fill:#f0f0f0;fill-opacity:0.80000013"
         id="path1035"
         inkscape:connector-curvature="0" />
      <path
         d="m -3.2148934,273.89841 v -1.10932 h 0.244774 v 1.22025 q 0,0.13143 0.00723,0.18811 0.00723,0.0555 0.025322,0.0856 0.038585,0.0711 0.110932,0.10731 0.073553,0.0362 0.1772502,0.0362 0.1049032,0 0.1772502,-0.0362 0.072347,-0.0362 0.1121378,-0.10731 0.018087,-0.0301 0.025322,-0.0856 0.00723,-0.0555 0.00723,-0.1857 v -1.22266 h 0.2435682 v 1.10932 q 0,0.27613 -0.034968,0.39309 -0.033762,0.11575 -0.1181668,0.19172 -0.079582,0.0711 -0.1820733,0.1061 -0.1024916,0.035 -0.2303046,0.035 -0.1266073,0 -0.2290989,-0.035 -0.1024915,-0.035 -0.183279,-0.1061 -0.083199,-0.0748 -0.1181668,-0.19293 -0.034968,-0.11937 -0.034968,-0.39188 z"
         style="stroke-width:0.26458332;fill:#f0f0f0;fill-opacity:0.80000013"
         id="path1037"
         inkscape:connector-curvature="0" />
      <path
         d="m -1.8499465,272.78909 h 1.37338732 v 0.20498 H -1.0396601 v 1.59525 h -0.244774 v -1.59525 h -0.5655124 z"
         style="stroke-width:0.26458332;fill:#f0f0f0;fill-opacity:0.80000013"
         id="path1039"
         inkscape:connector-curvature="0" />
      <path
         d="m 1.5093662,273.7296 v 0.65956 h 0.2881823 q 0.2122179,0 0.3026516,-0.0736 0.090434,-0.0748 0.090434,-0.24477 0,-0.17605 -0.095257,-0.25804 -0.095257,-0.0832 -0.2978285,-0.0832 z m 0,-0.74035 v 0.5426 h 0.2833592 q 0.1760443,0 0.2544203,-0.0675 0.079582,-0.0675 0.079582,-0.21825 0,-0.13625 -0.078376,-0.19654 -0.07717,-0.0603 -0.255626,-0.0603 z m -0.244774,-0.20016 h 0.5329563 q 0.2761244,0 0.4256415,0.11937 0.1495172,0.11938 0.1495172,0.33762 0,0.16519 -0.079582,0.26045 -0.078376,0.0953 -0.2363336,0.11937 0.1772502,0.0265 0.2773302,0.15193 0.1012858,0.1242 0.1012858,0.31712 0,0.24478 -0.1603692,0.37018 -0.1603692,0.12419 -0.4774902,0.12419 h -0.532956 z"
         style="stroke-width:0.26458332;fill:#f0f0f0;fill-opacity:0.80000013"
         id="path1041"
         inkscape:connector-curvature="0" />
    </g>
    <g
       aria-label="OUT AB"
       style="font-style:normal;font-variant:normal;font-weight:normal;font-stretch:normal;font-size:2.46944451px;line-height:1.25;font-family:'DejaVu Sans Mono';-inkscape-font-specification:'DejaVu Sans Mono';letter-spacing:0px;word-spacing:0px;fill:#f0f0f0;fill-opacity:0.80000013;stroke:none;stroke-width:0.26458332"
       id="text953"
       transform="translate(26.697919,13.616001)">
      <path
         d="m -3.7864348,275.80772 q 0,-0.39671 -0.081993,-0.56672 -0.080788,-0.17002 -0.2664782,-0.17002 -0.1844848,0 -0.2664781,0.17002 -0.080787,0.17001 -0.080787,0.56672 0,0.39549 0.080787,0.56551 0.081993,0.17001 0.2664781,0.17001 0.1856907,0 0.2664782,-0.16881 0.081993,-0.17001 0.081993,-0.56671 z m 0.2544203,0 q 0,0.47025 -0.1495172,0.70176 -0.1483113,0.23151 -0.4533746,0.23151 -0.3050632,0 -0.4533745,-0.2303 -0.1483114,-0.23031 -0.1483114,-0.70297 0,-0.47147 0.1483114,-0.70298 0.1495171,-0.23151 0.4533745,-0.23151 0.3050633,0 0.4533746,0.23151 0.1495172,0.23151 0.1495172,0.70298 z"
         style="stroke-width:0.26458332;fill:#f0f0f0;fill-opacity:0.80000013"
         id="path1023"
         inkscape:connector-curvature="0" />
      <path
         d="m -3.2148934,276.01511 v -1.10932 h 0.244774 v 1.22025 q 0,0.13143 0.00723,0.1881 0.00723,0.0555 0.025322,0.0856 0.038585,0.0711 0.110932,0.10731 0.073553,0.0362 0.1772502,0.0362 0.1049032,0 0.1772502,-0.0362 0.072347,-0.0362 0.1121378,-0.10731 0.018087,-0.0301 0.025322,-0.0856 0.00723,-0.0555 0.00723,-0.18569 v -1.22266 h 0.2435682 v 1.10932 q 0,0.27612 -0.034968,0.39309 -0.033762,0.11575 -0.1181668,0.19172 -0.079582,0.0711 -0.1820733,0.1061 -0.1024916,0.035 -0.2303046,0.035 -0.1266073,0 -0.2290989,-0.035 -0.1024915,-0.035 -0.183279,-0.1061 -0.083199,-0.0748 -0.1181668,-0.19293 -0.034968,-0.11937 -0.034968,-0.39188 z"
         style="stroke-width:0.26458332;fill:#f0f0f0;fill-opacity:0.80000013"
         id="path1025"
         inkscape:connector-curvature="0" />
      <path
         d="m -1.8499465,274.90579 h 1.37338732 v 0.20498 H -1.0396601 v 1.59525 h -0.244774 v -1.59525 h -0.5655124 z"
         style="stroke-width:0.26458332;fill:#f0f0f0;fill-opacity:0.80000013"
         id="path1027"
         inkscape:connector-curvature="0" />
      <path
         d="m 1.8071948,275.12042 -0.2568319,0.92122 h 0.5136637 z m -0.1471056,-0.21463 h 0.2954169 l 0.5510431,1.80023 H 2.2545404 L 2.1219042,276.23697 H 1.4912795 l -0.1302246,0.46905 H 1.1090461 Z"
         style="stroke-width:0.26458332;fill:#f0f0f0;fill-opacity:0.80000013"
         id="path1029"
         inkscape:connector-curvature="0" />
      <path
         d="m 2.9948914,275.8463 v 0.65956 h 0.2881822 q 0.2122179,0 0.3026517,-0.0736 0.090434,-0.0748 0.090434,-0.24477 0,-0.17605 -0.095257,-0.25804 -0.095257,-0.0832 -0.2978285,-0.0832 z m 0,-0.74035 v 0.5426 h 0.2833591 q 0.1760444,0 0.2544203,-0.0675 0.079582,-0.0675 0.079582,-0.21825 0,-0.13625 -0.078376,-0.19654 -0.07717,-0.0603 -0.2556261,-0.0603 z m -0.2447741,-0.20016 h 0.5329563 q 0.2761244,0 0.4256416,0.11937 0.1495171,0.11937 0.1495171,0.33762 0,0.16519 -0.079582,0.26045 -0.078376,0.0953 -0.2363335,0.11937 0.1772501,0.0265 0.2773302,0.15193 0.1012858,0.1242 0.1012858,0.31712 0,0.24478 -0.1603692,0.37018 -0.1603692,0.12419 -0.4774903,0.12419 h -0.532956 z"
         style="stroke-width:0.26458332;fill:#f0f0f0;fill-opacity:0.80000013"
         id="path1031"
         inkscape:connector-curvature="0" />
    </g>
    <g
       aria-label="IN 1"
       style="font-style:normal;font-variant:normal;font-weight:normal;font-stretch:normal;font-size:2.46944451px;line-height:1.25;font-family:'DejaVu Sans Mono';-inkscape-font-specification:'DejaVu Sans Mono';letter-spacing:0px;word-spacing:0px;fill:#f0f0f0;fill-opacity:0.80000013;stroke:none;stroke-width:0.26458332"
       id="text957"
       transform="translate(7.6703919,-10.470468)">
      <path
         d="m -4.6353064,278.08084 h 0.9995945 v 0.20498 h -0.3774102 v 1.39027 h 0.3774102 v 0.20498 h -0.9995945 v -0.20498 h 0.3774102 v -1.39027 h -0.3774102 z"
         style="stroke-width:0.26458332;fill:#f0f0f0;fill-opacity:0.80000013"
         id="path1016"
         inkscape:connector-curvature="0" />
      <path
         d="m -3.2245397,278.08084 h 0.3086806 l 0.6077148,1.48191 v -1.48191 h 0.2351278 v 1.80023 h -0.3086806 l -0.6077148,-1.4819 v 1.4819 h -0.2351278 z"
         style="stroke-width:0.26458332;fill:#f0f0f0;fill-opacity:0.80000013"
         id="path1018"
         inkscape:connector-curvature="0" />
      <path
         d="m -0.09553145,279.67609 h 0.378616 v -1.3758 l -0.40755481,0.0916 v -0.22186 l 0.40514324,-0.0892 h 0.24356826 v 1.59525 h 0.37379287 v 0.20498 h -0.99356556 z"
         style="stroke-width:0.26458332;fill:#f0f0f0;fill-opacity:0.80000013"
         id="path1020"
         inkscape:connector-curvature="0" />
    </g>
    <g
       aria-label="IN 2"
       style="font-style:normal;font-variant:normal;font-weight:normal;font-stretch:normal;font-size:2.46944451px;line-height:1.25;font-family:'DejaVu Sans Mono';-inkscape-font-specification:'DejaVu Sans Mono';letter-spacing:0px;word-spacing:0px;fill:#f0f0f0;fill-opacity:0.80000013;stroke:none;stroke-width:0.26458332"
       id="text961"
       transform="translate(18.036898,-13.080658)">
      <path
         d="m -4.6353064,280.72671 h 0.9995945 v 0.20499 h -0.3774102 v 1.39026 h 0.3774102 v 0.20499 h -0.9995945 v -0.20499 h 0.3774102 v -1.39026 h -0.3774102 z"
         style="stroke-width:0.26458332;fill:#f0f0f0;fill-opacity:0.80000013"
         id="path1009"
         inkscape:connector-curvature="0" />
      <path
         d="m -3.2245397,280.72671 h 0.3086806 l 0.6077148,1.48191 v -1.48191 h 0.2351278 v 1.80024 h -0.3086806 l -0.6077148,-1.48191 v 1.48191 h -0.2351278 z"
         style="stroke-width:0.26458332;fill:#f0f0f0;fill-opacity:0.80000013"
         id="path1011"
         inkscape:connector-curvature="0" />
      <path
         d="m 0.02866424,282.32196 h 0.82716745 v 0.20499 H -0.2378139 v -0.20499 q 0.2254815,-0.23754 0.39429119,-0.41961 0.16880968,-0.18207 0.2327162,-0.25683 0.12057835,-0.14711 0.16278077,-0.23754 0.0422024,-0.0916 0.0422024,-0.1869 0,-0.15072 -0.089228,-0.23633 -0.0880222,-0.0856 -0.24236248,-0.0856 -0.10972629,0 -0.23030464,0.0398 -0.12057834,0.0398 -0.25562609,0.12058 v -0.24598 q 0.1241957,-0.0591 0.24356826,-0.0892 0.12057834,-0.0301 0.23753934,-0.0301 0.26406657,0 0.42443577,0.14107 0.16157499,0.13987 0.16157499,0.36777 0,0.11575 -0.0542603,0.23151 -0.0530545,0.11575 -0.17363282,0.25562 -0.0675239,0.0784 -0.1965427,0.21704 -0.12781305,0.13867 -0.39067384,0.41479 z"
         style="stroke-width:0.26458332;fill:#f0f0f0;fill-opacity:0.80000013"
         id="path1013"
         inkscape:connector-curvature="0" />
    </g>
    <g
       aria-label="IN 3"
       style="font-style:normal;font-variant:normal;font-weight:normal;font-stretch:normal;font-size:2.46944451px;line-height:1.25;font-family:'DejaVu Sans Mono';-inkscape-font-specification:'DejaVu Sans Mono';letter-spacing:0px;word-spacing:0px;fill:#f0f0f0;fill-opacity:0.80000013;stroke:none;stroke-width:0.26458332"
       id="text965"
       transform="translate(7.6654934,-5.443088)">
      <path
         d="m -4.6353064,283.37259 h 0.9995945 v 0.20498 h -0.3774102 v 1.39027 h 0.3774102 v 0.20498 h -0.9995945 v -0.20498 h 0.3774102 v -1.39027 h -0.3774102 z"
         style="stroke-width:0.26458332;fill:#f0f0f0;fill-opacity:0.80000013"
         id="path1002"
         inkscape:connector-curvature="0" />
      <path
         d="m -3.2245397,283.37259 h 0.3086806 l 0.6077148,1.4819 v -1.4819 h 0.2351278 v 1.80023 h -0.3086806 l -0.6077148,-1.48191 v 1.48191 h -0.2351278 z"
         style="stroke-width:0.26458332;fill:#f0f0f0;fill-opacity:0.80000013"
         id="path1004"
         inkscape:connector-curvature="0" />
      <path
         d="m 0.51459497,284.2094 q 0.17725017,0.047 0.27130128,0.1676 0.0940511,0.11938 0.0940511,0.29904 0,0.24839 -0.1676039,0.39067 -0.16639812,0.14108 -0.46181506,0.14108 -0.1241957,0 -0.25321453,-0.0229 -0.12901883,-0.0229 -0.25321452,-0.0663 v -0.24236 q 0.12298991,0.0639 0.24236247,0.0953 0.11937256,0.0314 0.23753934,0.0314 0.20016005,0 0.30747478,-0.0904 0.10731473,-0.0904 0.10731473,-0.26045 0,-0.15675 -0.10731473,-0.24839 -0.10731473,-0.0928 -0.29059381,-0.0928 H 0.05519148 v -0.20016 h 0.18569065 q 0.1676039,0 0.26165501,-0.0736 0.0940511,-0.0736 0.0940511,-0.20498 0,-0.13867 -0.0880222,-0.21222 -0.0868164,-0.0748 -0.2483914,-0.0748 -0.10731472,0 -0.22186415,0.0241 -0.11454943,0.0241 -0.23995091,0.0724 v -0.22428 q 0.1458998,-0.0386 0.25924344,-0.0579 0.11454943,-0.0193 0.20257162,-0.0193 0.2628608,0 0.41961265,0.13264 0.15795763,0.13143 0.15795763,0.34967 0,0.14831 -0.0831991,0.24719 -0.0819933,0.0989 -0.23995091,0.13987 z"
         style="stroke-width:0.26458332;fill:#f0f0f0;fill-opacity:0.80000013"
         id="path1006"
         inkscape:connector-curvature="0" />
    </g>
    <g
       aria-label="IN 4"
       style="font-style:normal;font-variant:normal;font-weight:normal;font-stretch:normal;font-size:2.46944451px;line-height:1.25;font-family:'DejaVu Sans Mono';-inkscape-font-specification:'DejaVu Sans Mono';letter-spacing:0px;word-spacing:0px;fill:#f0f0f0;fill-opacity:0.80000013;stroke:none;stroke-width:0.26458332"
       id="text969"
       transform="translate(17.67915,-8.095823)">
      <path
         d="m -4.6353064,286.01846 h 0.9995945 v 0.20498 h -0.3774102 v 1.39027 h 0.3774102 v 0.20499 h -0.9995945 v -0.20499 h 0.3774102 v -1.39027 h -0.3774102 z"
         style="stroke-width:0.26458332;fill:#f0f0f0;fill-opacity:0.80000013"
         id="path994"
         inkscape:connector-curvature="0" />
      <path
         d="m -3.2245397,286.01846 h 0.3086806 l 0.6077148,1.48191 v -1.48191 h 0.2351278 v 1.80024 h -0.3086806 l -0.6077148,-1.48191 v 1.48191 h -0.2351278 z"
         style="stroke-width:0.26458332;fill:#f0f0f0;fill-opacity:0.80000013"
         id="path997"
         inkscape:connector-curvature="0" />
      <path
         d="m 0.46515785,286.24032 -0.56792401,0.95137 H 0.46515785 Z M 0.425367,286.01846 h 0.28215333 v 1.17323 h 0.2399509 v 0.19775 h -0.2399509 v 0.42926 H 0.46515785 v -0.42926 h -0.76326092 v -0.23031 z"
         style="stroke-width:0.26458332;fill:#f0f0f0;fill-opacity:0.80000013"
         id="path999"
         inkscape:connector-curvature="0" />
    </g>
    <g
       aria-label="CV A"
       style="font-style:normal;font-variant:normal;font-weight:normal;font-stretch:normal;font-size:2.46944451px;line-height:1.25;font-family:'DejaVu Sans Mono';-inkscape-font-specification:'DejaVu Sans Mono';letter-spacing:0px;word-spacing:0px;fill:#f0f0f0;fill-opacity:0.80000013;stroke:none;stroke-width:0.26458332"
       id="text973"
       transform="translate(7.7880969,-0.67721311)">
      <path
         d="m -3.5838632,290.92984 q -0.092845,0.0494 -0.1905138,0.0736 -0.097669,0.0253 -0.2073948,0.0253 -0.3460598,0 -0.5377794,-0.24477 -0.1905138,-0.24478 -0.1905138,-0.6885 0,-0.44132 0.1917196,-0.6873 0.1929254,-0.24719 0.5365736,-0.24719 0.1097263,0 0.2073948,0.0253 0.097668,0.0241 0.1905138,0.0736 v 0.24959 q -0.089228,-0.0735 -0.1917196,-0.11213 -0.1024916,-0.0386 -0.206189,-0.0386 -0.2375393,0 -0.3557061,0.18328 -0.1181667,0.18328 -0.1181667,0.55346 0,0.36896 0.1181667,0.55224 0.1181668,0.18328 0.3557061,0.18328 0.106109,0 0.2073948,-0.0386 0.1024916,-0.0386 0.1905138,-0.11214 z"
         style="stroke-width:0.26458332;fill:#f0f0f0;fill-opacity:0.80000013"
         id="path987"
         inkscape:connector-curvature="0" />
      <path
         d="m -2.649381,290.78876 0.42323,-1.59525 h 0.2520087 l -0.5269273,1.80023 h -0.295417 l -0.5269274,-1.80023 h 0.2520088 z"
         style="stroke-width:0.26458332;fill:#f0f0f0;fill-opacity:0.80000013"
         id="path989"
         inkscape:connector-curvature="0" />
      <path
         d="m 0.32166962,289.40814 -0.25683188,0.92122 H 0.5785015 Z M 0.17456404,289.19351 H 0.46998099 L 1.021024,290.99374 H 0.76901528 L 0.6363791,290.52469 H 0.00575436 l -0.13022462,0.46905 H -0.376479 Z"
         style="stroke-width:0.26458332;fill:#f0f0f0;fill-opacity:0.80000013"
         id="path991"
         inkscape:connector-curvature="0" />
    </g>
    <g
       aria-label="CV B"
       style="font-style:normal;font-variant:normal;font-weight:normal;font-stretch:normal;font-size:2.46944451px;line-height:1.25;font-family:'DejaVu Sans Mono';-inkscape-font-specification:'DejaVu Sans Mono';letter-spacing:0px;word-spacing:0px;fill:#f0f0f0;fill-opacity:0.80000013;stroke:none;stroke-width:0.26458332"
       id="text977"
       transform="translate(18.146797,-3.3277531)">
      <path
         d="m -3.5838632,293.57571 q -0.092845,0.0494 -0.1905138,0.0736 -0.097669,0.0253 -0.2073948,0.0253 -0.3460598,0 -0.5377794,-0.24478 -0.1905138,-0.24477 -0.1905138,-0.6885 0,-0.44132 0.1917196,-0.6873 0.1929254,-0.24718 0.5365736,-0.24718 0.1097263,0 0.2073948,0.0253 0.097668,0.0241 0.1905138,0.0736 v 0.2496 q -0.089228,-0.0736 -0.1917196,-0.11214 -0.1024916,-0.0386 -0.206189,-0.0386 -0.2375393,0 -0.3557061,0.18327 -0.1181667,0.18328 -0.1181667,0.55346 0,0.36897 0.1181667,0.55225 0.1181668,0.18328 0.3557061,0.18328 0.106109,0 0.2073948,-0.0386 0.1024916,-0.0386 0.1905138,-0.11214 z"
         style="stroke-width:0.26458332;fill:#f0f0f0;fill-opacity:0.80000013"
         id="path980"
         inkscape:connector-curvature="0" />
      <path
         d="m -2.649381,293.43463 0.42323,-1.59525 h 0.2520087 l -0.5269273,1.80024 h -0.295417 l -0.5269274,-1.80024 h 0.2520088 z"
         style="stroke-width:0.26458332;fill:#f0f0f0;fill-opacity:0.80000013"
         id="path982"
         inkscape:connector-curvature="0" />
      <path
         d="m 0.02384111,292.77989 v 0.65957 h 0.28818224 q 0.21221789,0 0.30265165,-0.0736 0.0904338,-0.0748 0.0904338,-0.24478 0,-0.17604 -0.0952569,-0.25804 -0.0952569,-0.0832 -0.29782852,-0.0832 z m 0,-0.74035 v 0.54261 h 0.28335911 q 0.17604438,0 0.25442031,-0.0675 0.0795817,-0.0675 0.0795817,-0.21824 0,-0.13626 -0.0783759,-0.19655 -0.0771701,-0.0603 -0.25562609,-0.0603 z m -0.24477404,-0.20016 h 0.53295628 q 0.27612441,0 0.42564156,0.11938 0.14951715,0.11937 0.14951715,0.33762 0,0.16519 -0.0795817,0.26044 -0.0783759,0.0953 -0.23633355,0.11938 0.17725016,0.0265 0.27733019,0.15193 0.10128581,0.12419 0.10128581,0.31712 0,0.24477 -0.1603692,0.37017 -0.1603692,0.1242 -0.47749025,0.1242 h -0.53295628 z"
         style="stroke-width:0.26458332;fill:#f0f0f0;fill-opacity:0.80000013"
         id="path984"
         inkscape:connector-curvature="0" />
    </g>
    <g
       aria-label="CV AB"
       style="font-style:normal;font-variant:normal;font-weight:normal;font-stretch:normal;font-size:2.46944451px;line-height:1.25;font-family:'DejaVu Sans Mono';-inkscape-font-specification:'DejaVu Sans Mono';letter-spacing:0px;word-spacing:0px;fill:#f0f0f0;fill-opacity:0.80000013;stroke:none;stroke-width:0.26458332"
       id="text1055"
       transform="translate(32.403632,-9.0121003)">
      <path
         d="m -18.738932,267.54846 q -0.09285,0.0494 -0.190514,0.0736 -0.09767,0.0253 -0.207395,0.0253 -0.346059,0 -0.537779,-0.24477 -0.190514,-0.24477 -0.190514,-0.6885 0,-0.44132 0.19172,-0.6873 0.192925,-0.24719 0.536573,-0.24719 0.109727,0 0.207395,0.0253 0.09767,0.0241 0.190514,0.0736 v 0.2496 q -0.08923,-0.0736 -0.19172,-0.11214 -0.102491,-0.0386 -0.206189,-0.0386 -0.237539,0 -0.355706,0.18328 -0.118167,0.18328 -0.118167,0.55346 0,0.36897 0.118167,0.55225 0.118167,0.18327 0.355706,0.18327 0.106109,0 0.207395,-0.0386 0.102492,-0.0386 0.190514,-0.11214 z"
         style="stroke-width:0.26458332;fill:#f0f0f0;fill-opacity:0.80000013"
         id="path1057"
         inkscape:connector-curvature="0" />
      <path
         d="m -17.80445,267.40738 0.42323,-1.59525 h 0.252009 l -0.526928,1.80024 h -0.295416 l -0.526928,-1.80024 h 0.252009 z"
         style="stroke-width:0.26458332;fill:#f0f0f0;fill-opacity:0.80000013"
         id="path1059"
         inkscape:connector-curvature="0" />
      <path
         d="m -14.833399,266.02676 -0.256832,0.92122 h 0.513664 z m -0.147106,-0.21463 h 0.295417 l 0.551043,1.80024 h -0.252009 l -0.132636,-0.46905 h -0.630625 l -0.130224,0.46905 h -0.252009 z"
         style="stroke-width:0.26458332;fill:#f0f0f0;fill-opacity:0.80000013"
         id="path1061"
         inkscape:connector-curvature="0" />
      <path
         d="m -13.645703,266.75264 v 0.65957 h 0.288183 q 0.212217,0 0.302651,-0.0736 0.09043,-0.0748 0.09043,-0.24477 0,-0.17605 -0.09526,-0.25804 -0.09526,-0.0832 -0.297828,-0.0832 z m 0,-0.74035 v 0.5426 h 0.283359 q 0.176045,0 0.254421,-0.0675 0.07958,-0.0675 0.07958,-0.21825 0,-0.13625 -0.07837,-0.19654 -0.07717,-0.0603 -0.255627,-0.0603 z m -0.244774,-0.20016 h 0.532957 q 0.276124,0 0.425641,0.11937 0.149517,0.11938 0.149517,0.33762 0,0.1652 -0.07958,0.26045 -0.07838,0.0953 -0.236334,0.11937 0.17725,0.0265 0.27733,0.15193 0.101286,0.1242 0.101286,0.31712 0,0.24478 -0.160369,0.37018 -0.160369,0.1242 -0.47749,0.1242 h -0.532957 z"
         style="stroke-width:0.26458332;fill:#f0f0f0;fill-opacity:0.80000013"
         id="path1064"
         inkscape:connector-curvature="0" />
    </g>
  </g>
</svg>
