<?xml version="1.0" encoding="UTF-8" standalone="no"?>
<svg
   xmlns:dc="http://purl.org/dc/elements/1.1/"
   xmlns:cc="http://creativecommons.org/ns#"
   xmlns:rdf="http://www.w3.org/1999/02/22-rdf-syntax-ns#"
   xmlns:svg="http://www.w3.org/2000/svg"
   xmlns="http://www.w3.org/2000/svg"
   xmlns:xlink="http://www.w3.org/1999/xlink"
   xmlns:sodipodi="http://sodipodi.sourceforge.net/DTD/sodipodi-0.dtd"
   xmlns:inkscape="http://www.inkscape.org/namespaces/inkscape"
   width="210"
   height="380"
   viewBox="0 0 55.562 100.542"
   version="1.1"
   id="svg603"
   sodipodi:docname="MSVCO-Omri-Front.svg"
   inkscape:version="0.92.2 (5c3e80d, 2017-08-06)">
  <metadata
     id="metadata607">
    <rdf:RDF>
      <cc:Work
         rdf:about="">
        <dc:format>image/svg+xml</dc:format>
        <dc:type
           rdf:resource="http://purl.org/dc/dcmitype/StillImage" />
        <dc:title></dc:title>
      </cc:Work>
    </rdf:RDF>
  </metadata>
  <sodipodi:namedview
     pagecolor="#ffffff"
     bordercolor="#666666"
     borderopacity="1"
     objecttolerance="10"
     gridtolerance="10"
     guidetolerance="10"
     inkscape:pageopacity="0"
     inkscape:pageshadow="2"
     inkscape:window-width="1920"
     inkscape:window-height="1028"
     id="namedview605"
     showgrid="false"
     inkscape:zoom="2.4842105"
     inkscape:cx="149.3885"
     inkscape:cy="271.97575"
     inkscape:window-x="-8"
     inkscape:window-y="-8"
     inkscape:window-maximized="1"
     inkscape:current-layer="svg603"
     inkscape:pagecheckerboard="true" />
  <defs
     id="defs9">
    <linearGradient
       id="c"
       x1="28.464"
       x2="28.464"
       y1="300.049"
       y2="203.832"
       gradientUnits="userSpaceOnUse"
       xlink:href="#a" />
    <linearGradient
       id="a">
      <stop
         offset="0"
         stop-color="#2b0d6b"
         id="stop3" />
      <stop
         offset="1"
         stop-color="#2b0d6b"
         stop-opacity="0"
         id="stop5" />
    </linearGradient>
    <linearGradient
       id="b"
       x1="28.464"
       x2="28.464"
       y1="300.049"
       y2="203.832"
       gradientUnits="userSpaceOnUse"
       xlink:href="#a" />
  </defs>
  <g
     transform="translate(-5e-4,0.05835066)"
     id="g601">
    <path
       style="fill:#ffffff;stroke-width:0.26499999"
       inkscape:connector-curvature="0"
       d="m 2.78,96.07 h 0.379 v -1.377 l -0.408,0.092 v -0.222 l 0.405,-0.09 H 3.4 v 1.596 h 0.373 v 0.205 H 2.78 Z m 1.903,0 0.423,-1.596 h 0.252 l -0.527,1.8 H 4.536 l -0.527,-1.8 h 0.252 z m 1.814,-1.596 h 0.23 l -0.948,2.03 h -0.23 z m 1.505,0.902 q 0,-0.397 -0.082,-0.567 -0.08,-0.17 -0.266,-0.17 -0.185,0 -0.267,0.17 -0.08,0.17 -0.08,0.567 0,0.395 0.08,0.565 0.082,0.17 0.267,0.17 0.185,0 0.266,-0.168 0.082,-0.17 0.082,-0.567 z m 0.255,0 q 0,0.47 -0.15,0.702 -0.148,0.231 -0.453,0.231 -0.305,0 -0.454,-0.23 -0.148,-0.23 -0.148,-0.703 0,-0.472 0.148,-0.703 0.15,-0.232 0.454,-0.232 0.305,0 0.453,0.232 0.15,0.231 0.15,0.703 z m 1.419,0.83 q -0.09,0.051 -0.185,0.077 -0.094,0.026 -0.193,0.026 -0.313,0 -0.49,-0.188 -0.176,-0.188 -0.176,-0.52 0,-0.334 0.176,-0.522 0.177,-0.188 0.49,-0.188 0.098,0 0.19,0.025 0.094,0.026 0.188,0.08 v 0.232 q -0.088,-0.079 -0.177,-0.114 -0.09,-0.035 -0.2,-0.035 -0.21,0 -0.321,0.135 -0.113,0.135 -0.113,0.386 0,0.25 0.113,0.386 0.113,0.135 0.32,0.135 0.116,0 0.208,-0.035 0.09,-0.036 0.17,-0.11 z m 0.946,-1.666 v 0.384 h 0.504 v 0.172 h -0.504 v 0.733 q 0,0.15 0.057,0.21 0.057,0.058 0.198,0.058 h 0.25 v 0.177 h -0.272 q -0.25,0 -0.352,-0.1 Q 10.4,96.074 10.4,95.829 V 95.096 H 10.04 V 94.924 H 10.4 V 94.54 Z"
       aria-label="1V/Oct"
       id="path525" />
    <path
       style="fill:#ffffff;stroke-width:0.26499999"
       inkscape:connector-curvature="0"
       d="m 15.235,94.571 h 0.326 l 0.31,0.916 0.315,-0.916 h 0.326 v 1.8 h -0.225 v -1.59 l -0.32,0.95 h -0.185 l -0.322,-0.95 v 1.59 h -0.225 z m 2.473,0.902 q 0,-0.397 -0.082,-0.567 -0.08,-0.17 -0.266,-0.17 -0.184,0 -0.266,0.17 -0.081,0.17 -0.081,0.567 0,0.395 0.08,0.565 0.083,0.17 0.267,0.17 0.186,0 0.266,-0.168 0.082,-0.17 0.082,-0.567 z m 0.255,0 q 0,0.47 -0.15,0.702 -0.148,0.231 -0.453,0.231 -0.305,0 -0.453,-0.23 -0.15,-0.23 -0.15,-0.703 0,-0.472 0.15,-0.703 0.15,-0.232 0.453,-0.232 0.305,0 0.453,0.232 0.15,0.231 0.15,0.703 z m 0.665,0.698 q 0.308,0 0.43,-0.15 0.122,-0.153 0.122,-0.548 0,-0.4 -0.122,-0.55 -0.12,-0.152 -0.43,-0.152 h -0.115 v 1.4 z m 0.005,-1.6 q 0.413,0 0.608,0.22 0.195,0.22 0.195,0.682 0,0.46 -0.195,0.68 -0.195,0.218 -0.608,0.218 h -0.365 v -1.8 z m 2.767,1.595 h 0.378 V 94.79 L 21.37,94.882 V 94.66 l 0.406,-0.089 h 0.243 v 1.595 h 0.374 v 0.205 h -0.994 z"
       aria-label="MOD 1"
       id="path527" />
    <path
       style="fill:#ffffff;stroke-width:0.26499999"
       inkscape:connector-curvature="0"
       d="m 24.53,94.571 h 0.326 l 0.312,0.916 0.313,-0.916 h 0.327 v 1.8 h -0.226 v -1.59 l -0.32,0.95 h -0.185 l -0.322,-0.95 v 1.59 h -0.224 z m 2.474,0.902 q 0,-0.397 -0.082,-0.567 -0.08,-0.17 -0.266,-0.17 -0.185,0 -0.267,0.17 -0.08,0.17 -0.08,0.567 0,0.395 0.08,0.565 0.082,0.17 0.267,0.17 0.185,0 0.266,-0.168 0.082,-0.17 0.082,-0.567 z m 0.254,0 q 0,0.47 -0.15,0.702 -0.147,0.231 -0.452,0.231 -0.306,0 -0.454,-0.23 -0.148,-0.23 -0.148,-0.703 0,-0.472 0.148,-0.703 0.15,-0.232 0.454,-0.232 0.305,0 0.453,0.232 0.15,0.231 0.15,0.703 z m 0.666,0.698 q 0.307,0 0.43,-0.15 0.12,-0.153 0.12,-0.548 0,-0.4 -0.121,-0.55 -0.12,-0.152 -0.43,-0.152 h -0.115 v 1.4 z m 0.005,-1.6 q 0.412,0 0.608,0.22 0.195,0.22 0.195,0.682 0,0.46 -0.195,0.68 -0.196,0.218 -0.608,0.218 h -0.366 v -1.8 z m 2.89,1.595 h 0.827 v 0.205 h -1.093 v -0.205 q 0.225,-0.237 0.394,-0.42 0.169,-0.18 0.233,-0.256 0.12,-0.147 0.162,-0.238 0.043,-0.09 0.043,-0.187 0,-0.15 -0.09,-0.236 -0.088,-0.086 -0.242,-0.086 -0.11,0 -0.23,0.04 -0.12,0.04 -0.256,0.12 v -0.245 q 0.124,-0.06 0.244,-0.09 0.12,-0.03 0.237,-0.03 0.264,0 0.425,0.142 0.16,0.14 0.16,0.367 0,0.116 -0.053,0.232 -0.053,0.116 -0.174,0.255 -0.067,0.08 -0.196,0.218 -0.128,0.138 -0.39,0.414 z"
       aria-label="MOD 2"
       id="path529" />
    <path
       style="fill:#ffffff;stroke-width:0.26499999"
       inkscape:connector-curvature="0"
       d="m 48.092,95.473 q 0,-0.397 -0.082,-0.567 -0.08,-0.17 -0.266,-0.17 -0.185,0 -0.267,0.17 -0.08,0.17 -0.08,0.567 0,0.395 0.08,0.565 0.082,0.17 0.267,0.17 0.185,0 0.266,-0.168 0.082,-0.17 0.082,-0.567 z m 0.255,0 q 0,0.47 -0.15,0.702 -0.148,0.231 -0.453,0.231 -0.305,0 -0.454,-0.23 -0.148,-0.23 -0.148,-0.703 0,-0.472 0.148,-0.703 0.15,-0.232 0.454,-0.232 0.305,0 0.453,0.232 0.15,0.231 0.15,0.703 z m 0.317,0.207 v -1.109 h 0.244 v 1.22 q 0,0.132 0.008,0.188 0.007,0.056 0.025,0.086 0.039,0.071 0.11,0.107 0.074,0.036 0.178,0.036 0.105,0 0.177,-0.036 0.073,-0.036 0.113,-0.107 0.018,-0.03 0.025,-0.086 0.007,-0.055 0.007,-0.185 v -1.223 h 0.244 v 1.11 q 0,0.275 -0.035,0.392 -0.034,0.116 -0.12,0.192 -0.08,0.071 -0.181,0.106 -0.102,0.035 -0.23,0.035 -0.127,0 -0.23,-0.035 -0.101,-0.035 -0.182,-0.106 -0.083,-0.075 -0.118,-0.193 -0.035,-0.12 -0.035,-0.392 z m 1.365,-1.109 h 1.373 v 0.205 h -0.563 v 1.595 h -0.245 v -1.595 h -0.565 z"
       aria-label="OUT"
       id="path531" />
    <path
       style="fill:#ffffff;stroke-width:0.26499999"
       inkscape:connector-curvature="0"
       d="m 8.64,36.11 h 0.326 l 0.31,0.917 0.315,-0.917 h 0.326 v 1.8 H 9.692 v -1.59 l -0.32,0.949 H 9.187 l -0.322,-0.95 v 1.59 H 8.64 Z m 2.473,0.902 q 0,-0.397 -0.082,-0.567 -0.08,-0.17 -0.266,-0.17 -0.184,0 -0.266,0.17 -0.081,0.17 -0.081,0.567 0,0.396 0.08,0.566 0.083,0.17 0.267,0.17 0.186,0 0.266,-0.17 0.082,-0.17 0.082,-0.566 z m 0.255,0 q 0,0.47 -0.15,0.702 -0.148,0.23 -0.453,0.23 -0.305,0 -0.453,-0.23 -0.15,-0.23 -0.15,-0.702 0,-0.471 0.15,-0.703 0.15,-0.231 0.453,-0.231 0.305,0 0.453,0.23 0.15,0.233 0.15,0.704 z m 0.665,0.698 q 0.308,0 0.43,-0.15 0.122,-0.152 0.122,-0.548 0,-0.4 -0.122,-0.55 -0.12,-0.152 -0.43,-0.152 h -0.115 v 1.4 z m 0.005,-1.6 q 0.413,0 0.608,0.22 0.195,0.219 0.195,0.682 0,0.46 -0.195,0.68 -0.195,0.218 -0.608,0.218 h -0.365 v -1.8 z m 2.766,1.595 h 0.379 V 36.33 l -0.408,0.09 V 36.2 l 0.406,-0.09 h 0.243 v 1.596 h 0.374 v 0.205 h -0.994 z"
       aria-label="MOD 1"
       id="path533" />
    <path
       style="fill:#ffffff;stroke-width:0.26499999"
       inkscape:connector-curvature="0"
       d="m 24.603,36.11 h 0.325 l 0.31,0.917 0.315,-0.917 h 0.327 v 1.8 h -0.226 v -1.59 l -0.32,0.949 h -0.185 l -0.322,-0.95 v 1.59 h -0.224 z m 2.473,0.902 q 0,-0.397 -0.082,-0.567 -0.081,-0.17 -0.267,-0.17 -0.184,0 -0.266,0.17 -0.081,0.17 -0.081,0.567 0,0.396 0.08,0.566 0.083,0.17 0.267,0.17 0.186,0 0.267,-0.17 0.082,-0.17 0.082,-0.566 z m 0.254,0 q 0,0.47 -0.15,0.702 -0.148,0.23 -0.453,0.23 -0.305,0 -0.453,-0.23 -0.148,-0.23 -0.148,-0.702 0,-0.471 0.148,-0.703 0.15,-0.231 0.453,-0.231 0.305,0 0.454,0.23 0.15,0.233 0.15,0.704 z m 0.666,0.698 q 0.307,0 0.429,-0.15 0.122,-0.152 0.122,-0.548 0,-0.4 -0.122,-0.55 -0.12,-0.152 -0.43,-0.152 H 27.88 v 1.4 z m 0.005,-1.6 q 0.412,0 0.607,0.22 0.196,0.219 0.196,0.682 0,0.46 -0.196,0.68 -0.195,0.218 -0.607,0.218 h -0.366 v -1.8 z m 2.889,1.595 h 0.828 v 0.205 h -1.094 v -0.205 q 0.226,-0.237 0.395,-0.42 0.168,-0.181 0.232,-0.256 0.12,-0.147 0.163,-0.238 0.042,-0.091 0.042,-0.187 0,-0.15 -0.09,-0.236 -0.087,-0.085 -0.241,-0.085 -0.11,0 -0.23,0.04 -0.121,0.04 -0.256,0.12 v -0.246 q 0.124,-0.06 0.243,-0.09 0.12,-0.03 0.238,-0.03 0.264,0 0.424,0.142 0.162,0.14 0.162,0.367 0,0.116 -0.054,0.232 -0.053,0.116 -0.174,0.256 -0.067,0.078 -0.197,0.217 -0.127,0.138 -0.39,0.414 z"
       aria-label="MOD 2"
       id="path535" />
    <path
       style="fill:#ffffff;stroke-width:0.26499999"
       inkscape:connector-curvature="0"
       d="m 25.296,70.594 h 1.373 v 0.205 h -0.563 v 1.595 H 25.861 V 70.8 h -0.565 z m 1.474,0 h 0.259 l 0.439,0.795 0.437,-0.795 h 0.262 l -0.578,0.993 v 0.807 h -0.244 v -0.807 z m 1.92,0.2 v 0.677 h 0.284 q 0.168,0 0.262,-0.09 0.096,-0.09 0.096,-0.25 0,-0.16 -0.094,-0.247 -0.094,-0.09 -0.264,-0.09 z m -0.242,-0.2 h 0.526 q 0.3,0 0.457,0.138 0.155,0.136 0.155,0.4 0,0.267 -0.155,0.403 -0.155,0.136 -0.457,0.136 h -0.283 v 0.723 h -0.243 z m 1.485,0 h 1.069 v 0.205 h -0.825 v 0.533 h 0.789 v 0.205 h -0.79 v 0.653 h 0.849 v 0.204 h -1.092 z"
       aria-label="TYPE"
       id="path537" />
    <path
       style="fill:#ffffff;stroke-width:0.26499999"
       inkscape:connector-curvature="0"
       d="m 10.463,70.655 v 0.247 q -0.111,-0.071 -0.223,-0.108 -0.111,-0.036 -0.224,-0.036 -0.173,0 -0.273,0.08 -0.1,0.08 -0.1,0.217 0,0.12 0.065,0.182 0.066,0.063 0.246,0.105 l 0.128,0.029 q 0.253,0.059 0.369,0.185 0.116,0.127 0.116,0.345 0,0.257 -0.16,0.391 -0.16,0.135 -0.463,0.135 -0.126,0 -0.254,-0.027 -0.128,-0.027 -0.257,-0.08 v -0.26 q 0.139,0.088 0.262,0.13 0.124,0.04 0.25,0.04 0.184,0 0.286,-0.081 0.103,-0.084 0.103,-0.232 0,-0.135 -0.071,-0.206 -0.07,-0.071 -0.245,-0.11 l -0.13,-0.03 Q 9.637,71.514 9.524,71.4 9.41,71.285 9.41,71.092 q 0,-0.24 0.162,-0.386 0.163,-0.145 0.432,-0.145 0.103,0 0.218,0.024 0.114,0.023 0.24,0.07 z m 0.507,-0.062 h 1 v 0.205 h -0.377 v 1.39 h 0.377 v 0.204 h -1 v -0.204 h 0.378 v -1.39 h -0.377 z m 1.458,0 h 1.169 v 0.186 l -0.94,1.41 h 0.966 v 0.203 h -1.221 v -0.184 l 0.915,-1.41 h -0.89 z m 1.509,0 h 1.068 v 0.205 H 14.18 v 0.533 h 0.789 v 0.205 h -0.79 v 0.652 h 0.849 v 0.204 h -1.091 z"
       aria-label="SIZE"
       id="path539" />
    <path
       style="fill:#ffffff;stroke-width:0.26499999"
       inkscape:connector-curvature="0"
       d="m 40.422,36.11 h 0.325 l 0.31,0.917 0.315,-0.917 h 0.327 v 1.8 h -0.226 v -1.59 l -0.32,0.949 h -0.185 l -0.322,-0.95 v 1.59 h -0.224 z m 2.473,0.902 q 0,-0.397 -0.082,-0.567 -0.081,-0.17 -0.267,-0.17 -0.184,0 -0.266,0.17 -0.081,0.17 -0.081,0.567 0,0.396 0.08,0.566 0.083,0.17 0.267,0.17 0.186,0 0.267,-0.17 0.082,-0.17 0.082,-0.566 z m 0.254,0 q 0,0.47 -0.15,0.702 -0.148,0.23 -0.453,0.23 -0.305,0 -0.453,-0.23 -0.148,-0.23 -0.148,-0.702 0,-0.471 0.148,-0.703 0.15,-0.231 0.453,-0.231 0.305,0 0.454,0.23 0.15,0.233 0.15,0.704 z m 0.666,0.698 q 0.307,0 0.429,-0.15 0.122,-0.152 0.122,-0.548 0,-0.4 -0.122,-0.55 -0.12,-0.152 -0.43,-0.152 H 43.7 v 1.4 z m 0.005,-1.6 q 0.412,0 0.607,0.22 0.196,0.219 0.196,0.682 0,0.46 -0.196,0.68 -0.195,0.218 -0.607,0.218 h -0.366 v -1.8 z m 3.376,0.837 q 0.177,0.047 0.27,0.168 0.095,0.119 0.095,0.299 0,0.248 -0.167,0.39 -0.167,0.14 -0.462,0.14 -0.124,0 -0.253,-0.022 -0.13,-0.022 -0.254,-0.066 v -0.242 q 0.123,0.064 0.243,0.095 0.119,0.03 0.237,0.03 0.2,0 0.308,-0.09 0.107,-0.09 0.107,-0.26 0,-0.156 -0.107,-0.248 -0.108,-0.093 -0.29,-0.093 h -0.187 v -0.2 h 0.186 q 0.168,0 0.262,-0.073 0.094,-0.074 0.094,-0.205 0,-0.14 -0.088,-0.212 -0.087,-0.075 -0.25,-0.075 -0.106,0 -0.22,0.024 -0.115,0.024 -0.24,0.072 v -0.224 q 0.145,-0.04 0.259,-0.058 0.114,-0.02 0.202,-0.02 0.263,0 0.42,0.134 0.158,0.13 0.158,0.35 0,0.148 -0.083,0.246 -0.082,0.1 -0.24,0.14 z"
       aria-label="MOD 3"
       id="path541" />
    <path
       style="fill:#ffffff;stroke-width:0.26499999"
       inkscape:connector-curvature="0"
       d="m 24.803,21.744 q 0,-0.397 -0.082,-0.567 -0.081,-0.17 -0.267,-0.17 -0.184,0 -0.266,0.17 -0.08,0.17 -0.08,0.567 0,0.396 0.08,0.566 0.082,0.17 0.266,0.17 0.186,0 0.267,-0.17 0.082,-0.17 0.082,-0.566 z m 0.254,0 q 0,0.47 -0.15,0.702 -0.148,0.23 -0.453,0.23 -0.305,0 -0.453,-0.23 -0.148,-0.23 -0.148,-0.702 0,-0.471 0.148,-0.703 0.15,-0.231 0.453,-0.231 0.305,0 0.454,0.23 0.15,0.233 0.15,0.704 z m 1.433,0.834 q -0.092,0.05 -0.19,0.074 -0.097,0.025 -0.207,0.025 -0.346,0 -0.538,-0.244 -0.19,-0.245 -0.19,-0.69 0,-0.44 0.19,-0.686 0.194,-0.247 0.538,-0.247 0.11,0 0.207,0.025 0.098,0.024 0.19,0.074 v 0.25 q -0.088,-0.074 -0.19,-0.113 -0.103,-0.04 -0.207,-0.04 -0.238,0 -0.356,0.185 -0.118,0.183 -0.118,0.553 0,0.37 0.118,0.552 0.118,0.184 0.356,0.184 0.106,0 0.207,-0.04 0.103,-0.038 0.19,-0.111 z m 0.25,-1.736 h 1.373 v 0.205 H 27.55 v 1.595 h -0.245 v -1.595 h -0.566 z m 2.17,0.215 -0.256,0.92 h 0.514 z m -0.146,-0.215 h 0.295 l 0.55,1.8 h -0.251 l -0.132,-0.47 h -0.631 l -0.13,0.47 h -0.252 z m 1.632,1.595 0.424,-1.595 h 0.252 l -0.527,1.8 h -0.296 l -0.527,-1.8 h 0.252 z m 0.98,-1.595 h 1.069 v 0.205 H 31.62 v 0.533 h 0.789 v 0.205 h -0.79 v 0.652 h 0.849 v 0.205 h -1.091 z"
       aria-label="OCTAVE"
       id="path543" />
    <path
       style="fill:#ffffff;stroke-width:0.26499999"
       inkscape:connector-curvature="0"
       d="m 41.24,18.916 h 1.06 v 0.205 h -0.816 v 0.53 h 0.74 v 0.205 h -0.74 v 0.86 h -0.245 z m 1.446,0 h 1 v 0.205 h -0.378 v 1.39 h 0.378 v 0.205 h -1 v -0.205 h 0.378 v -1.39 h -0.378 z m 1.41,0 h 0.31 l 0.607,1.482 v -1.482 h 0.235 v 1.8 H 44.94 l -0.608,-1.482 v 1.482 h -0.235 z m 1.556,0 h 1.069 v 0.205 h -0.825 v 0.533 h 0.789 v 0.205 h -0.79 v 0.652 h 0.849 v 0.205 h -1.092 z"
       aria-label="FINE"
       id="path545" />
    <path
       style="fill:#ffffff;stroke-width:0.26499999"
       inkscape:connector-curvature="0"
       d="m 9.433,18.914 h 0.308 l 0.608,1.482 v -1.482 h 0.235 v 1.8 h -0.31 L 9.668,19.233 v 1.482 H 9.433 Z m 2.409,0.902 q 0,-0.396 -0.082,-0.566 -0.081,-0.17 -0.267,-0.17 -0.184,0 -0.266,0.17 -0.081,0.17 -0.081,0.566 0,0.396 0.08,0.566 0.083,0.17 0.267,0.17 0.186,0 0.267,-0.17 0.082,-0.17 0.082,-0.566 z m 0.254,0 q 0,0.47 -0.15,0.702 -0.148,0.232 -0.453,0.232 -0.305,0 -0.453,-0.23 -0.148,-0.23 -0.148,-0.704 0,-0.471 0.148,-0.703 0.15,-0.231 0.453,-0.231 0.305,0 0.454,0.23 0.15,0.233 0.15,0.704 z m 0.197,-0.902 h 1.373 v 0.205 h -0.563 v 1.596 h -0.245 v -1.596 h -0.565 z m 1.667,0 h 1.067 v 0.205 h -0.824 v 0.533 h 0.788 v 0.205 h -0.788 v 0.653 h 0.847 v 0.205 h -1.09 z"
       aria-label="NOTE"
       id="path547" />
    <path
       style="fill:#ffffff;stroke-width:0.26499999"
       inkscape:connector-curvature="0"
       d="m 33.784,94.571 h 0.326 l 0.31,0.916 0.314,-0.916 h 0.327 v 1.8 h -0.226 v -1.59 l -0.32,0.95 H 34.33 l -0.322,-0.95 v 1.59 h -0.224 z m 2.473,0.902 q 0,-0.397 -0.082,-0.567 -0.08,-0.17 -0.266,-0.17 -0.185,0 -0.267,0.17 -0.08,0.17 -0.08,0.567 0,0.395 0.08,0.565 0.082,0.17 0.267,0.17 0.185,0 0.266,-0.168 0.082,-0.17 0.082,-0.567 z m 0.255,0 q 0,0.47 -0.15,0.702 -0.148,0.231 -0.453,0.231 -0.305,0 -0.454,-0.23 -0.148,-0.23 -0.148,-0.703 0,-0.472 0.148,-0.703 0.15,-0.232 0.454,-0.232 0.305,0 0.453,0.232 0.15,0.231 0.15,0.703 z m 0.665,0.698 q 0.308,0 0.43,-0.15 0.12,-0.153 0.12,-0.548 0,-0.4 -0.121,-0.55 -0.12,-0.152 -0.43,-0.152 h -0.115 v 1.4 z m 0.005,-1.6 q 0.412,0 0.608,0.22 0.195,0.22 0.195,0.682 0,0.46 -0.195,0.68 -0.196,0.218 -0.608,0.218 h -0.365 v -1.8 z m 3.376,0.837 q 0.177,0.047 0.27,0.167 0.095,0.12 0.095,0.3 0,0.248 -0.167,0.39 -0.167,0.141 -0.462,0.141 -0.124,0 -0.253,-0.023 -0.13,-0.023 -0.253,-0.066 v -0.242 q 0.123,0.064 0.242,0.095 0.12,0.031 0.238,0.031 0.2,0 0.307,-0.09 0.107,-0.09 0.107,-0.26 0,-0.157 -0.107,-0.249 -0.107,-0.093 -0.29,-0.093 h -0.186 v -0.2 h 0.185 q 0.168,0 0.262,-0.074 0.094,-0.073 0.094,-0.205 0,-0.138 -0.088,-0.212 -0.087,-0.074 -0.248,-0.074 -0.108,0 -0.222,0.024 -0.115,0.024 -0.24,0.072 v -0.224 q 0.146,-0.039 0.26,-0.058 0.114,-0.02 0.202,-0.02 0.263,0 0.42,0.133 0.157,0.131 0.157,0.35 0,0.148 -0.083,0.247 -0.082,0.1 -0.24,0.14 z"
       aria-label="MOD 3"
       id="path549" />
    <path
       style="fill:#ffffff;stroke-width:0.26499999"
       inkscape:connector-curvature="0"
       d="M 6.363,53.392 H 6.688 L 7,54.31 7.314,53.393 h 0.327 v 1.8 H 7.415 v -1.59 l -0.32,0.95 H 6.91 l -0.322,-0.95 v 1.59 H 6.364 Z m 2.473,0.902 q 0,-0.396 -0.082,-0.566 -0.081,-0.17 -0.267,-0.17 -0.184,0 -0.266,0.17 -0.081,0.17 -0.081,0.566 0,0.396 0.08,0.566 0.083,0.17 0.267,0.17 0.186,0 0.267,-0.17 0.082,-0.17 0.082,-0.566 z m 0.254,0 q 0,0.47 -0.15,0.702 -0.148,0.232 -0.453,0.232 -0.305,0 -0.453,-0.23 -0.148,-0.231 -0.148,-0.704 0,-0.471 0.148,-0.703 0.15,-0.231 0.453,-0.231 0.305,0 0.454,0.23 0.15,0.233 0.15,0.704 z m 0.666,0.699 q 0.307,0 0.429,-0.151 0.122,-0.152 0.122,-0.548 0,-0.4 -0.122,-0.55 -0.12,-0.151 -0.43,-0.151 H 9.64 v 1.4 z m 0.005,-1.6 q 0.412,0 0.607,0.219 0.196,0.22 0.196,0.682 0,0.46 -0.196,0.68 -0.195,0.219 -0.607,0.219 H 9.395 v -1.8 z m 2.766,1.595 h 0.378 v -1.376 l -0.407,0.092 v -0.222 l 0.405,-0.09 h 0.243 v 1.596 h 0.374 v 0.205 h -0.993 z m 3.939,0.14 q -0.093,0.05 -0.19,0.074 -0.098,0.026 -0.208,0.026 -0.346,0 -0.538,-0.245 -0.19,-0.245 -0.19,-0.69 0,-0.44 0.19,-0.686 0.194,-0.247 0.538,-0.247 0.11,0 0.207,0.025 0.098,0.024 0.19,0.074 v 0.25 q -0.09,-0.074 -0.191,-0.113 -0.102,-0.038 -0.206,-0.038 -0.237,0 -0.356,0.183 -0.118,0.183 -0.118,0.553 0,0.37 0.118,0.553 0.119,0.183 0.356,0.183 0.106,0 0.207,-0.04 0.103,-0.037 0.19,-0.111 z m 0.934,-0.14 0.424,-1.596 h 0.252 l -0.527,1.8 h -0.296 l -0.527,-1.8 h 0.252 z"
       aria-label="MOD 1 CV"
       id="path551" />
    <path
       style="fill:#ffffff;stroke-width:0.26499999"
       inkscape:connector-curvature="0"
       d="m 22.304,53.392 h 0.325 l 0.31,0.917 0.315,-0.917 h 0.327 v 1.8 h -0.226 v -1.59 l -0.32,0.95 H 22.85 l -0.322,-0.95 v 1.59 h -0.224 z m 2.473,0.902 q 0,-0.396 -0.082,-0.566 -0.08,-0.17 -0.267,-0.17 -0.184,0 -0.266,0.17 -0.08,0.17 -0.08,0.566 0,0.396 0.08,0.566 0.082,0.17 0.266,0.17 0.186,0 0.267,-0.17 0.082,-0.17 0.082,-0.566 z m 0.254,0 q 0,0.47 -0.15,0.702 -0.148,0.232 -0.453,0.232 -0.305,0 -0.453,-0.23 -0.148,-0.231 -0.148,-0.704 0,-0.471 0.148,-0.703 0.15,-0.231 0.453,-0.231 0.305,0 0.454,0.23 0.15,0.233 0.15,0.704 z m 0.666,0.699 q 0.307,0 0.43,-0.151 0.12,-0.152 0.12,-0.548 0,-0.4 -0.12,-0.55 -0.121,-0.151 -0.43,-0.151 h -0.116 v 1.4 z m 0.005,-1.6 q 0.412,0 0.607,0.219 0.196,0.22 0.196,0.682 0,0.46 -0.196,0.68 -0.195,0.219 -0.607,0.219 h -0.366 v -1.8 z m 2.89,1.595 h 0.827 v 0.205 h -1.093 v -0.205 q 0.225,-0.238 0.394,-0.42 0.169,-0.182 0.233,-0.257 0.12,-0.147 0.162,-0.237 0.043,-0.092 0.043,-0.187 0,-0.15 -0.09,-0.237 -0.088,-0.085 -0.242,-0.085 -0.11,0 -0.23,0.04 -0.121,0.04 -0.256,0.12 v -0.246 q 0.124,-0.06 0.244,-0.09 0.12,-0.03 0.237,-0.03 0.264,0 0.425,0.142 0.16,0.14 0.16,0.368 0,0.116 -0.053,0.23 -0.053,0.117 -0.174,0.257 -0.067,0.078 -0.196,0.217 -0.128,0.139 -0.391,0.415 z m 3.815,0.14 q -0.093,0.05 -0.19,0.074 -0.098,0.026 -0.208,0.026 -0.346,0 -0.538,-0.245 -0.19,-0.245 -0.19,-0.69 0,-0.44 0.192,-0.686 0.193,-0.247 0.536,-0.247 0.11,0 0.208,0.025 0.097,0.024 0.19,0.074 v 0.25 q -0.09,-0.074 -0.192,-0.113 -0.102,-0.038 -0.206,-0.038 -0.237,0 -0.356,0.183 -0.118,0.183 -0.118,0.553 0,0.37 0.118,0.553 0.119,0.183 0.356,0.183 0.106,0 0.208,-0.04 0.102,-0.037 0.19,-0.111 z m 0.935,-0.14 0.423,-1.596 h 0.252 l -0.527,1.8 h -0.296 l -0.526,-1.8 h 0.252 z"
       aria-label="MOD 2 CV"
       id="path553" />
    <path
       style="fill:#ffffff;stroke-width:0.26499999"
       inkscape:connector-curvature="0"
       d="m 38.135,53.392 h 0.325 l 0.312,0.917 0.313,-0.917 h 0.327 v 1.8 h -0.226 v -1.59 l -0.32,0.95 h -0.185 l -0.322,-0.95 v 1.59 h -0.224 z m 2.473,0.902 q 0,-0.396 -0.082,-0.566 -0.08,-0.17 -0.266,-0.17 -0.185,0 -0.267,0.17 -0.08,0.17 -0.08,0.566 0,0.396 0.08,0.566 0.082,0.17 0.267,0.17 0.185,0 0.266,-0.17 0.082,-0.17 0.082,-0.566 z m 0.254,0 q 0,0.47 -0.15,0.702 -0.147,0.232 -0.452,0.232 -0.306,0 -0.454,-0.23 -0.148,-0.231 -0.148,-0.704 0,-0.471 0.148,-0.703 0.15,-0.231 0.454,-0.231 0.305,0 0.453,0.23 0.15,0.233 0.15,0.704 z m 0.666,0.699 q 0.307,0 0.43,-0.151 0.12,-0.152 0.12,-0.548 0,-0.4 -0.121,-0.55 -0.12,-0.151 -0.43,-0.151 h -0.115 v 1.4 z m 0.005,-1.6 q 0.412,0 0.608,0.219 0.195,0.22 0.195,0.682 0,0.46 -0.195,0.68 -0.196,0.219 -0.608,0.219 h -0.366 v -1.8 z m 3.376,0.837 q 0.177,0.046 0.27,0.167 0.095,0.12 0.095,0.299 0,0.248 -0.167,0.39 -0.167,0.142 -0.462,0.142 -0.124,0 -0.253,-0.023 -0.13,-0.023 -0.253,-0.067 v -0.242 q 0.123,0.064 0.242,0.095 0.12,0.032 0.237,0.032 0.2,0 0.308,-0.09 0.107,-0.091 0.107,-0.261 0,-0.157 -0.107,-0.25 -0.107,-0.091 -0.29,-0.091 H 44.45 v -0.2 h 0.185 q 0.168,0 0.262,-0.074 0.094,-0.074 0.094,-0.205 0,-0.14 -0.088,-0.212 -0.087,-0.075 -0.248,-0.075 -0.108,0 -0.222,0.024 -0.115,0.024 -0.24,0.072 v -0.224 q 0.146,-0.038 0.259,-0.058 0.115,-0.02 0.203,-0.02 0.262,0 0.42,0.134 0.157,0.13 0.157,0.35 0,0.148 -0.083,0.246 -0.082,0.1 -0.24,0.14 z m 3.329,0.899 q -0.093,0.05 -0.19,0.073 -0.098,0.026 -0.208,0.026 -0.346,0 -0.537,-0.245 -0.191,-0.245 -0.191,-0.69 0,-0.44 0.192,-0.686 0.193,-0.247 0.536,-0.247 0.11,0 0.208,0.025 0.097,0.024 0.19,0.074 v 0.25 q -0.09,-0.074 -0.192,-0.113 -0.102,-0.038 -0.206,-0.038 -0.237,0 -0.355,0.183 -0.12,0.183 -0.12,0.553 0,0.37 0.12,0.553 0.118,0.183 0.355,0.183 0.106,0 0.208,-0.04 0.102,-0.037 0.19,-0.111 z m 0.935,-0.141 0.423,-1.596 h 0.252 l -0.527,1.8 h -0.295 l -0.527,-1.8 h 0.252 z"
       aria-label="MOD 3 CV"
       id="path555" />
    <path
       style="fill:#ffffff;stroke-width:0.26499999"
       inkscape:connector-curvature="0"
       d="m 40.452,70.593 h 1.06 v 0.205 h -0.815 v 0.53 h 0.739 v 0.206 h -0.74 v 0.86 h -0.244 z m 1.308,0 h 0.326 l 0.31,0.916 0.314,-0.916 h 0.327 v 1.8 h -0.225 v -1.59 l -0.321,0.949 h -0.185 l -0.322,-0.95 v 1.59 H 41.76 Z m 4.16,1.736 q -0.092,0.05 -0.19,0.073 -0.097,0.025 -0.207,0.025 -0.346,0 -0.537,-0.243 -0.19,-0.245 -0.19,-0.69 0,-0.44 0.19,-0.686 0.194,-0.247 0.537,-0.247 0.11,0 0.208,0.025 0.097,0.024 0.19,0.073 v 0.25 q -0.09,-0.074 -0.191,-0.112 -0.103,-0.04 -0.207,-0.04 -0.237,0 -0.355,0.185 -0.12,0.183 -0.12,0.553 0,0.369 0.12,0.552 0.118,0.184 0.355,0.184 0.106,0 0.208,-0.04 0.102,-0.038 0.19,-0.111 z m 0.936,-0.141 0.423,-1.595 h 0.252 l -0.527,1.8 h -0.295 l -0.527,-1.8 h 0.252 z M 45.732,83.95 h 1.06 v 0.204 h -0.815 v 0.53 h 0.74 v 0.205 h -0.74 v 0.86 h -0.245 z m 1.308,0 h 0.326 l 0.31,0.915 0.315,-0.916 h 0.327 v 1.8 h -0.226 v -1.59 l -0.32,0.948 h -0.185 l -0.322,-0.949 v 1.59 h -0.224 z m 4.162,1.735 q -0.093,0.05 -0.19,0.074 -0.098,0.025 -0.208,0.025 -0.346,0 -0.538,-0.245 -0.19,-0.245 -0.19,-0.688 0,-0.442 0.19,-0.688 0.194,-0.247 0.538,-0.247 0.11,0 0.207,0.025 0.098,0.024 0.19,0.074 v 0.25 q -0.088,-0.074 -0.19,-0.113 -0.103,-0.038 -0.207,-0.038 -0.238,0 -0.356,0.183 -0.118,0.183 -0.118,0.554 0,0.37 0.118,0.552 0.118,0.183 0.356,0.183 0.106,0 0.207,-0.038 0.103,-0.04 0.19,-0.113 z m 0.934,-0.14 0.424,-1.596 h 0.252 l -0.527,1.8 h -0.296 l -0.527,-1.8 h 0.252 z"
       aria-label="FM CV"
       id="path557" />
    <path
       style="fill:#ffffff;stroke-width:0.26499999"
       inkscape:connector-curvature="0"
       d="m 26.784,76.45 0.363,-1.368 h 0.216 l -0.452,1.543 h -0.253 l -0.452,-1.543 h 0.216 z m 1.746,0.12 q -0.08,0.042 -0.164,0.063 -0.084,0.022 -0.178,0.022 -0.296,0 -0.46,-0.21 -0.164,-0.21 -0.164,-0.59 0,-0.379 0.165,-0.59 0.165,-0.21 0.46,-0.21 0.093,0 0.177,0.02 0.084,0.021 0.164,0.063 v 0.214 q -0.077,-0.063 -0.165,-0.096 -0.088,-0.033 -0.177,-0.033 -0.203,0 -0.304,0.157 -0.102,0.157 -0.102,0.475 0,0.316 0.102,0.473 0.1,0.157 0.304,0.157 0.09,0 0.178,-0.033 0.088,-0.033 0.164,-0.096 z m 1.1,-0.715 q 0,-0.34 -0.071,-0.486 -0.07,-0.146 -0.23,-0.146 -0.157,0 -0.227,0.146 -0.07,0.146 -0.07,0.486 0,0.34 0.07,0.484 0.07,0.146 0.228,0.146 0.16,0 0.229,-0.145 0.07,-0.145 0.07,-0.485 z m 0.217,0 q 0,0.403 -0.128,0.601 -0.127,0.2 -0.39,0.2 -0.26,0 -0.387,-0.199 -0.127,-0.197 -0.127,-0.602 0,-0.404 0.127,-0.603 0.128,-0.198 0.388,-0.198 0.262,0 0.39,0.198 0.127,0.2 0.127,0.603 z"
       aria-label="VCO"
       id="path559" />
    <path
       style="fill:#ffffff;stroke-width:0.26499999"
       inkscape:connector-curvature="0"
       d="m 26.288,83.91 h 0.21 v 1.367 h 0.745 v 0.176 h -0.955 z m 1.292,0 h 0.908 v 0.176 h -0.7 v 0.454 h 0.635 v 0.176 h -0.634 v 0.737 h -0.21 z m 1.968,0.773 q 0,-0.34 -0.07,-0.486 -0.07,-0.145 -0.23,-0.145 -0.157,0 -0.228,0.145 -0.07,0.146 -0.07,0.486 0,0.34 0.07,0.485 0.07,0.146 0.229,0.146 0.159,0 0.228,-0.145 0.07,-0.146 0.07,-0.486 z m 0.218,0 q 0,0.403 -0.13,0.602 -0.126,0.198 -0.387,0.198 -0.262,0 -0.39,-0.197 -0.126,-0.198 -0.126,-0.603 0,-0.404 0.127,-0.602 0.128,-0.199 0.389,-0.199 0.26,0 0.388,0.2 0.129,0.197 0.129,0.601 z"
       aria-label="LFO"
       id="path561" />
    <g
       style="font-weight:400;font-size:10.58300018px;letter-spacing:0;word-spacing:0;fill:#ffffff;stroke-width:0.26499999"
       font-size="10.583"
       font-weight="400"
       letter-spacing="0"
       word-spacing="0"
       id="g571">
      <g
         id="g565">
        <path
           inkscape:connector-curvature="0"
           d="m 24.268,97.332 q 0.055,-0.087 0.138,-0.123 0.083,-0.04 0.17,-0.04 0.103,0 0.166,0.076 0.063,0.07 0.063,0.193 v 1.876 l 1.319,-1.982 q 0.055,-0.087 0.134,-0.123 0.083,-0.04 0.174,-0.04 0.103,0 0.166,0.076 0.063,0.07 0.063,0.193 v 2.835 h -0.537 v -2.08 l -1.2,1.895 q -0.068,0.106 -0.147,0.146 -0.08,0.04 -0.161,0.04 -0.072,0 -0.135,-0.024 -0.063,-0.028 -0.11,-0.075 -0.048,-0.048 -0.075,-0.11 -0.028,-0.064 -0.028,-0.143 v -1.73 l -1.32,2.081 h -0.64 z m 2.759,2.941 v -0.537 h 1.078 q 0.249,0 0.41,-0.118 0.163,-0.119 0.163,-0.308 0,-0.095 -0.044,-0.174 -0.043,-0.079 -0.118,-0.134 -0.075,-0.06 -0.182,-0.09 -0.106,-0.033 -0.23,-0.033 H 27.86 q -0.19,0 -0.351,-0.059 -0.162,-0.063 -0.28,-0.174 -0.12,-0.114 -0.186,-0.264 -0.067,-0.154 -0.067,-0.34 0,-0.18 0.067,-0.335 0.07,-0.154 0.197,-0.269 0.127,-0.114 0.304,-0.178 0.178,-0.067 0.39,-0.067 h 1.024 v 0.537 h -1.05 q -0.17,0 -0.27,0.095 -0.098,0.091 -0.098,0.221 0,0.142 0.1,0.237 0.102,0.095 0.268,0.095 h 0.304 q 0.205,0 0.379,0.071 0.174,0.067 0.3,0.194 0.126,0.126 0.197,0.3 0.072,0.173 0.072,0.38 0,0.208 -0.076,0.382 -0.075,0.174 -0.217,0.3 -0.138,0.126 -0.331,0.197 -0.194,0.071 -0.43,0.071 z"
           aria-label="MS"
           style="-inkscape-font-specification:Strasua"
           id="path563" />
      </g>
      <g
         id="g569">
        <path
           inkscape:connector-curvature="0"
           d="m 31.919,97.331 q -0.055,-0.087 -0.138,-0.123 -0.083,-0.039 -0.17,-0.039 -0.103,0 -0.166,0.075 -0.063,0.071 -0.063,0.194 v 1.875 l -1.32,-1.982 q -0.054,-0.087 -0.133,-0.123 -0.083,-0.039 -0.174,-0.039 -0.103,0 -0.166,0.075 -0.063,0.071 -0.063,0.194 v 2.835 h 0.537 v -2.08 l 1.2,1.894 q 0.068,0.107 0.147,0.146 0.079,0.04 0.16,0.04 0.073,0 0.136,-0.024 0.063,-0.028 0.11,-0.075 0.048,-0.047 0.075,-0.11 0.028,-0.064 0.028,-0.143 v -1.73 l 1.319,2.082 h 0.64 z"
           aria-label="M"
           style="-inkscape-font-specification:Strasua"
           id="path567" />
      </g>
    </g>
    <path
       style="fill:#ffffff;stroke-width:0.26499999"
       inkscape:connector-curvature="0"
       d="m 5.182,84.01 v 0.247 q -0.11,-0.07 -0.223,-0.107 -0.11,-0.036 -0.224,-0.036 -0.172,0 -0.272,0.08 -0.1,0.08 -0.1,0.216 0,0.12 0.065,0.183 0.066,0.062 0.246,0.104 l 0.127,0.03 q 0.254,0.058 0.37,0.185 0.115,0.127 0.115,0.345 0,0.257 -0.16,0.392 -0.158,0.135 -0.462,0.135 -0.127,0 -0.254,-0.028 -0.128,-0.026 -0.257,-0.08 v -0.26 q 0.138,0.088 0.26,0.13 0.126,0.04 0.25,0.04 0.185,0 0.288,-0.082 0.102,-0.083 0.102,-0.23 0,-0.136 -0.07,-0.208 -0.07,-0.07 -0.246,-0.11 l -0.13,-0.03 Q 4.357,84.87 4.243,84.756 4.13,84.641 4.13,84.448 q 0,-0.24 0.16,-0.386 0.164,-0.146 0.433,-0.146 0.104,0 0.218,0.024 0.115,0.023 0.24,0.07 z M 5.69,83.95 h 1 v 0.204 H 6.312 v 1.39 H 6.69 v 0.205 h -1 v -0.205 h 0.377 v -1.39 H 5.69 Z m 1.458,0 h 1.168 v 0.184 l -0.94,1.41 h 0.967 v 0.205 H 7.12 v -0.186 l 0.916,-1.41 h -0.89 z m 1.508,0 h 1.069 v 0.204 H 8.9 v 0.533 h 0.788 v 0.205 H 8.9 v 0.652 h 0.848 v 0.205 H 8.656 Z"
       aria-label="SIZE"
       id="path573" />
    <path
       style="stroke:#000000;stroke-width:0.25;stroke-linecap:round;paint-order:markers stroke fill"
       inkscape:connector-curvature="0"
       d="m 28.108,5.853 h 0.064 v 1.596 h -0.064 z m -5.364,2.512 0.042,-0.05 1.205,1.049 -0.042,0.048 z M 33.52,8.253 33.563,8.301 32.358,9.348 32.316,9.3 Z m 1.765,5.452 -0.007,0.064 -1.586,-0.176 0.007,-0.064 z m -14.292,0 0.007,0.063 1.586,-0.175 -0.007,-0.064 z m 2.622,5.226 -0.05,-0.04 1.003,-1.241 0.05,0.04 z m 8.945,-0.067 0.05,-0.041 -1.023,-1.226 -0.05,0.04 z"
       id="path575" />
    <g
       style="font-weight:400;font-size:2.4690001px;font-family:'DejaVu Sans Mono';letter-spacing:0;word-spacing:0;fill:#fdfefd;stroke-width:0.089"
       font-size="2.469"
       font-weight="400"
       letter-spacing="0"
       word-spacing="0"
       id="g591">
      <path
         inkscape:connector-curvature="0"
         d="m 28.222,3.835 -0.511,0.857 h 0.51 z m -0.035,-0.2 h 0.254 v 1.057 h 0.216 V 4.87 h -0.216 v 0.387 h -0.22 V 4.87 H 27.535 V 4.663 Z"
         aria-label="4"
         id="path577" />
      <path
         inkscape:connector-curvature="0"
         d="m 22.032,7.198 q 0.16,0.042 0.244,0.15 0.085,0.108 0.085,0.27 0,0.224 -0.15,0.352 -0.15,0.127 -0.417,0.127 -0.112,0 -0.228,-0.02 -0.116,-0.021 -0.228,-0.06 v -0.22 q 0.11,0.059 0.218,0.087 0.108,0.029 0.214,0.029 0.18,0 0.277,-0.082 0.097,-0.081 0.097,-0.235 0,-0.14 -0.097,-0.223 -0.096,-0.084 -0.262,-0.084 h -0.167 v -0.18 h 0.167 q 0.15,0 0.236,-0.066 0.085,-0.067 0.085,-0.185 0,-0.125 -0.08,-0.191 -0.078,-0.068 -0.223,-0.068 -0.097,0 -0.2,0.022 Q 21.5,6.643 21.387,6.686 V 6.484 q 0.13,-0.035 0.233,-0.052 0.104,-0.017 0.183,-0.017 0.237,0 0.378,0.12 0.142,0.118 0.142,0.314 0,0.134 -0.075,0.223 -0.074,0.089 -0.216,0.126 z"
         aria-label="3"
         id="path579" />
      <path
         inkscape:connector-curvature="0"
         d="m 19.53,14.584 h 0.745 v 0.185 H 19.29 v -0.185 q 0.203,-0.214 0.355,-0.378 0.152,-0.164 0.21,-0.231 0.109,-0.133 0.147,-0.214 0.038,-0.083 0.038,-0.17 0,-0.134 -0.08,-0.211 -0.08,-0.078 -0.22,-0.078 -0.098,0 -0.207,0.036 -0.108,0.036 -0.23,0.109 v -0.222 q 0.112,-0.053 0.22,-0.08 0.108,-0.027 0.214,-0.027 0.237,0 0.382,0.127 0.145,0.126 0.145,0.33 0,0.105 -0.048,0.21 -0.048,0.104 -0.157,0.23 -0.06,0.07 -0.177,0.195 -0.115,0.125 -0.352,0.374 z"
         aria-label="2"
         id="path581" />
      <path
         inkscape:connector-curvature="0"
         d="m 22.334,20.564 h 0.34 v -1.24 l -0.366,0.083 v -0.2 l 0.365,-0.08 h 0.219 v 1.437 h 0.337 v 0.184 h -0.895 z"
         aria-label="1"
         id="path583" />
      <path
         inkscape:connector-curvature="0"
         d="m 34.224,6.444 h 0.822 v 0.185 h -0.622 v 0.399 q 0.047,-0.018 0.094,-0.025 0.047,-0.01 0.095,-0.01 0.252,0 0.4,0.15 0.148,0.148 0.148,0.402 0,0.257 -0.156,0.404 -0.154,0.148 -0.422,0.148 -0.13,0 -0.237,-0.017 Q 34.24,8.062 34.155,8.028 V 7.805 q 0.1,0.054 0.2,0.08 0.102,0.027 0.207,0.027 0.182,0 0.28,-0.095 0.098,-0.096 0.098,-0.272 0,-0.174 -0.102,-0.27 -0.1,-0.097 -0.282,-0.097 -0.088,0 -0.172,0.02 -0.084,0.02 -0.16,0.06 z"
         aria-label="5"
         id="path585" />
      <path
         inkscape:connector-curvature="0"
         d="m 37.012,13.15 v 0.203 q -0.068,-0.04 -0.145,-0.06 -0.077,-0.022 -0.16,-0.022 -0.21,0 -0.317,0.157 -0.107,0.157 -0.107,0.462 0.052,-0.11 0.144,-0.166 0.092,-0.06 0.212,-0.06 0.234,0 0.363,0.146 0.129,0.143 0.129,0.407 0,0.263 -0.133,0.407 -0.132,0.145 -0.372,0.145 -0.283,0 -0.414,-0.202 -0.131,-0.203 -0.131,-0.64 0,-0.41 0.157,-0.625 0.159,-0.216 0.458,-0.216 0.08,0 0.16,0.018 0.08,0.016 0.156,0.047 z m -0.39,0.687 q -0.14,0 -0.221,0.1 -0.08,0.102 -0.08,0.28 0,0.178 0.08,0.279 0.08,0.1 0.22,0.1 0.146,0 0.22,-0.095 0.074,-0.096 0.074,-0.284 0,-0.19 -0.074,-0.285 -0.074,-0.095 -0.22,-0.095 z"
         aria-label="6"
         id="path587" />
      <path
         inkscape:connector-curvature="0"
         d="m 33.108,19.127 h 1.02 v 0.093 l -0.58,1.528 H 33.32 l 0.564,-1.437 h -0.776 z"
         aria-label="7"
         id="path589" />
    </g>
    <path
       style="fill:#ffffff;stroke-width:0.26499999"
       inkscape:connector-curvature="0"
       d="m 15.95,83.95 h 1.373 v 0.205 H 16.76 V 85.75 H 16.515 V 84.155 H 15.95 Z m 1.473,0 h 0.26 l 0.438,0.794 0.438,-0.794 h 0.262 l -0.578,0.992 v 0.808 h -0.245 v -0.808 z m 1.922,0.2 v 0.676 h 0.282 q 0.17,0 0.263,-0.089 0.096,-0.089 0.096,-0.25 0,-0.16 -0.094,-0.248 -0.095,-0.089 -0.265,-0.089 z m -0.243,-0.2 h 0.525 q 0.302,0 0.457,0.137 0.156,0.137 0.156,0.4 0,0.267 -0.156,0.403 -0.154,0.137 -0.457,0.137 h -0.282 v 0.723 h -0.243 z m 1.485,0 h 1.069 v 0.205 h -0.825 v 0.533 h 0.788 v 0.205 h -0.788 v 0.652 h 0.848 v 0.205 h -1.092 z"
       aria-label="TYPE"
       id="path593" />
    <path
       style="fill:#ffffff;stroke-width:0.26499999"
       inkscape:connector-curvature="0"
       d="m 35.983,84.9 q 0.094,0.023 0.16,0.09 0.067,0.067 0.166,0.267 l 0.245,0.492 H 36.292 L 36.077,85.294 Q 35.985,85.1 35.91,85.044 35.836,84.988 35.717,84.988 h -0.233 v 0.76 h -0.245 v -1.8 h 0.502 q 0.297,0 0.455,0.134 0.158,0.134 0.158,0.388 0,0.178 -0.098,0.291 -0.097,0.112 -0.273,0.138 z m -0.5,-0.75 v 0.638 h 0.268 q 0.174,0 0.26,-0.079 0.086,-0.078 0.086,-0.24 0,-0.155 -0.092,-0.237 -0.09,-0.083 -0.264,-0.083 z m 2.29,-0.14 v 0.247 q -0.111,-0.07 -0.223,-0.107 -0.111,-0.036 -0.225,-0.036 -0.172,0 -0.272,0.08 -0.1,0.08 -0.1,0.216 0,0.12 0.065,0.183 0.066,0.062 0.246,0.104 l 0.128,0.03 q 0.253,0.058 0.369,0.185 0.115,0.127 0.115,0.345 0,0.257 -0.16,0.392 -0.158,0.135 -0.462,0.135 -0.126,0 -0.254,-0.028 -0.128,-0.026 -0.257,-0.08 v -0.26 q 0.139,0.088 0.262,0.13 0.124,0.04 0.25,0.04 0.184,0 0.286,-0.082 0.103,-0.083 0.103,-0.23 0,-0.136 -0.071,-0.208 -0.07,-0.07 -0.245,-0.11 l -0.13,-0.03 q -0.251,-0.056 -0.365,-0.17 -0.113,-0.115 -0.113,-0.308 0,-0.24 0.162,-0.386 0.162,-0.146 0.43,-0.146 0.105,0 0.22,0.024 0.114,0.023 0.24,0.07 z m 0.322,-0.06 h 1.373 v 0.204 h -0.563 v 1.595 H 38.66 v -1.595 h -0.565 z"
       aria-label="RST"
       id="path595" />
    <g
       style="-inkscape-font-specification:'DejaVu Sans Mono'"
       id="g599">
      <path
         inkscape:connector-curvature="0"
         d="m 16.07,1.066 a 0.172,0.172 0 0 0 -0.17,0.17 c 0,0.09 0.078,0.169 0.17,0.169 h 1.157 a 0.891,0.891 0 0 0 -0.113,0.43 v 0.6 c 0,0.092 0.078,0.17 0.17,0.17 a 0.172,0.172 0 0 0 0.169,-0.17 v -0.6 c 0,-0.162 0.063,-0.416 0.35,-0.43 h 0.708 a 0.172,0.172 0 0 0 0.156,-0.17 0.172,0.172 0 0 0 -0.17,-0.17 z m 5.71,1.369 A 0.158,0.158 0 0 0 21.745,2.34 C 21.403,1.839 20.909,1.666 20.08,1.666 H 19.36 V 1.483 C 19.368,1.44 19.41,1.405 19.47,1.405 h 1.849 c 0.067,0.007 0.123,0.06 0.123,0.13 0,0.092 0.078,0.17 0.17,0.17 a 0.172,0.172 0 0 0 0.169,-0.17 0.482,0.482 0 0 0 -0.487,-0.47 h -1.842 a 0.451,0.451 0 0 0 -0.43,0.463 v 0.907 c 0,0.092 0.078,0.17 0.17,0.17 a 0.174,0.174 0 0 0 0.169,-0.17 v -0.43 h 0.72 c 0.578,0 0.994,0.035 1.382,0.515 0.01,0.014 0.02,0.024 0.032,0.035 0.032,0.028 0.07,0.05 0.116,0.05 0.092,0 0.17,-0.078 0.17,-0.17 z m 3.027,-1.03 c 0.092,0 0.17,-0.078 0.17,-0.17 a 0.172,0.172 0 0 0 -0.17,-0.17 h -2.022 c -0.405,0 -0.65,0.414 -0.65,0.77 0,0.35 0.23,0.769 0.615,0.769 h 2.41 a 0.17,0.17 0 0 0 0.13,-0.063 l 0.83,-1.1 c 0.027,-0.036 0.08,-0.096 0.133,-0.096 0.053,0 0.106,0.056 0.138,0.095 l 0.822,1.097 a 0.167,0.167 0 0 0 0.134,0.067 c 0.092,0 0.17,-0.077 0.17,-0.17 a 0.184,0.184 0 0 0 -0.05,-0.12 L 26.61,1.17 A 0.443,0.443 0 0 0 26.253,0.997 0.464,0.464 0 0 0 25.883,1.18 l -0.808,1.087 h -2.212 c -0.324,0 -0.395,-0.261 -0.395,-0.43 0,-0.17 0.07,-0.431 0.395,-0.431 z m -0.148,0.26 h -1.757 a 0.172,0.172 0 0 0 -0.17,0.17 c 0,0.092 0.078,0.17 0.17,0.17 h 1.757 c 0.09,0 0.17,-0.078 0.17,-0.17 a 0.172,0.172 0 0 0 -0.17,-0.17 z m 1.376,0.558 c 0,0.12 0.098,0.22 0.218,0.22 a 0.22,0.22 0 0 0 0.219,-0.22 0.22,0.22 0 0 0 -0.22,-0.218 0.22,0.22 0 0 0 -0.217,0.218 z m 2.303,-0.218 h 1.958 c 0.07,0 0.13,0.06 0.13,0.134 a 0.13,0.13 0 0 1 -0.13,0.127 h -2.152 a 0.172,0.172 0 0 0 -0.17,0.169 c 0,0.092 0.078,0.17 0.17,0.17 h 2.138 A 0.467,0.467 0 0 0 30.755,2.139 0.473,0.473 0 0 0 30.282,1.666 h -1.95 a 0.136,0.136 0 0 1 -0.135,-0.13 c 0,-0.075 0.064,-0.131 0.134,-0.131 h 2.149 a 0.172,0.172 0 0 0 0.169,-0.17 0.172,0.172 0 0 0 -0.17,-0.17 h -2.14 a 0.467,0.467 0 0 0 -0.47,0.47 c 0,0.26 0.208,0.47 0.47,0.47 z m 3.108,-0.17 v -0.6 a 0.172,0.172 0 0 0 -0.17,-0.17 0.172,0.172 0 0 0 -0.17,0.17 v 0.6 c 0,0.35 0.23,0.748 0.615,0.769 h 1.609 c 0.406,0 0.649,-0.412 0.649,-0.77 v -0.6 a 0.172,0.172 0 0 0 -0.17,-0.168 0.172,0.172 0 0 0 -0.17,0.17 v 0.6 c 0,0.169 -0.07,0.43 -0.394,0.43 H 31.84 c -0.324,0 -0.395,-0.261 -0.395,-0.43 z m 5.644,0.6 A 0.158,0.158 0 0 0 37.055,2.34 C 36.713,1.839 36.219,1.666 35.39,1.666 H 34.67 V 1.483 C 34.678,1.44 34.72,1.405 34.78,1.405 h 1.849 c 0.067,0.007 0.123,0.06 0.123,0.13 0,0.092 0.078,0.17 0.17,0.17 a 0.172,0.172 0 0 0 0.169,-0.17 0.482,0.482 0 0 0 -0.487,-0.47 h -1.842 a 0.451,0.451 0 0 0 -0.43,0.463 v 0.907 c 0,0.092 0.078,0.17 0.17,0.17 a 0.174,0.174 0 0 0 0.169,-0.17 v -0.43 h 0.72 c 0.578,0 0.994,0.035 1.382,0.515 0.01,0.014 0.02,0.024 0.032,0.035 0.032,0.028 0.07,0.05 0.116,0.05 0.092,0 0.17,-0.078 0.17,-0.17 z m 3.027,-1.03 c 0.092,0 0.17,-0.078 0.17,-0.17 a 0.172,0.172 0 0 0 -0.17,-0.17 h -2.022 c -0.405,0 -0.65,0.414 -0.65,0.77 0,0.35 0.23,0.769 0.615,0.769 h 2.057 c 0.092,0 0.17,-0.077 0.17,-0.17 a 0.172,0.172 0 0 0 -0.17,-0.17 h -1.944 c -0.324,0 -0.395,-0.26 -0.395,-0.43 0,-0.168 0.07,-0.43 0.395,-0.43 z m -0.148,0.26 h -1.757 a 0.172,0.172 0 0 0 -0.17,0.17 c 0,0.092 0.078,0.17 0.17,0.17 h 1.757 c 0.09,0 0.17,-0.078 0.17,-0.17 a 0.172,0.172 0 0 0 -0.17,-0.17 z"
         aria-label="TREASURE"
         style="-inkscape-font-specification:'Space Age';fill:#f0f0f0;stroke:#333333;stroke-width:0.05;stroke-opacity:0.7"
         id="path597" />
    </g>
  </g>
</svg>
