<?xml version="1.0" encoding="UTF-8" standalone="no"?>
<svg
   xmlns:dc="http://purl.org/dc/elements/1.1/"
   xmlns:cc="http://creativecommons.org/ns#"
   xmlns:rdf="http://www.w3.org/1999/02/22-rdf-syntax-ns#"
   xmlns:svg="http://www.w3.org/2000/svg"
   xmlns="http://www.w3.org/2000/svg"
   id="svg8230"
   version="1.1"
   viewBox="0 0 55.562 100.542"
   height="380"
   width="210">
  <metadata
     id="metadata8234">
    <rdf:RDF>
      <cc:Work
         rdf:about="">
        <dc:format>image/svg+xml</dc:format>
        <dc:type
           rdf:resource="http://purl.org/dc/dcmitype/StillImage" />
        <dc:title></dc:title>
      </cc:Work>
    </rdf:RDF>
  </metadata>
  <defs
     id="defs14" />
  <g
     id="g8106"
     word-spacing="0"
     letter-spacing="0"
     font-weight="400"
     font-size="2.469"
     font-family="DejaVu Sans Mono"
     aria-label="1V/Oct"
     style="-inkscape-font-specification:'DejaVu Sans Mono'"
     stroke-width=".265"
     fill="#f5f5f5">
    <path
       id="path8104"
       d="M2.468 96.056h.378V94.68l-.407.091v-.221l.405-.09h.243v1.596h.374v.205h-.993zM4.37 96.056l.424-1.596h.252l-.527 1.8h-.296l-.527-1.8h.252zM6.185 94.46h.23l-.949 2.03h-.23zM7.69 95.362q0-.396-.082-.566-.08-.17-.267-.17-.184 0-.266.17-.08.17-.08.566 0 .396.08.566.082.17.266.17.186 0 .267-.169.082-.17.082-.567zm.254 0q0 .47-.15.702-.148.232-.453.232-.305 0-.453-.23-.148-.231-.148-.704 0-.471.148-.703.15-.231.453-.231.305 0 .454.231.15.232.15.703zM9.364 96.192q-.09.052-.185.077-.094.027-.193.027-.313 0-.49-.188-.177-.189-.177-.521 0-.333.176-.521.178-.188.491-.188.098 0 .19.025.093.025.188.078v.233q-.089-.078-.178-.113-.088-.035-.2-.035-.208 0-.32.135-.113.135-.113.386 0 .25.112.385.114.135.321.135.116 0 .207-.035.092-.036.17-.11zM10.31 94.527v.383h.504v.173h-.504v.733q0 .15.057.208.056.06.197.06h.25v.177h-.271q-.25 0-.352-.1-.103-.1-.103-.345v-.733h-.36v-.173h.36v-.383z" />
  </g>
  <g
     id="g8110"
     word-spacing="0"
     letter-spacing="0"
     font-weight="400"
     font-size="2.469"
     font-family="DejaVu Sans Mono"
     aria-label="MOD 1"
     style="-inkscape-font-specification:'DejaVu Sans Mono'"
     stroke-width=".265"
     fill="#f5f5f5">
    <path
       id="path8108"
       d="M14.923 94.557h.326l.31.917.314-.917h.327v1.8h-.225v-1.59l-.321.95h-.185l-.322-.95v1.59h-.224zM17.396 95.46q0-.397-.082-.567-.08-.17-.266-.17-.185 0-.267.17-.08.17-.08.566 0 .396.08.566.082.17.267.17t.266-.169q.082-.17.082-.567zm.255 0q0 .47-.15.701-.148.232-.453.232-.305 0-.454-.23-.148-.23-.148-.704 0-.471.148-.703.15-.231.454-.231.305 0 .453.231.15.232.15.703zM18.316 96.158q.308 0 .43-.151.121-.152.121-.548 0-.399-.122-.55-.12-.151-.429-.151H18.2v1.4zm.005-1.6q.412 0 .608.219.195.22.195.682 0 .461-.195.68-.196.219-.608.219h-.365v-1.8zM21.087 96.153h.379v-1.376l-.408.092v-.222l.405-.09h.244v1.596h.374v.205h-.994z" />
  </g>
  <g
     id="g8114"
     word-spacing="0"
     letter-spacing="0"
     font-weight="400"
     font-size="2.469"
     font-family="DejaVu Sans Mono"
     aria-label="OUT"
     style="-inkscape-font-specification:'DejaVu Sans Mono'"
     stroke-width=".265"
     fill="#f5f5f5">
    <path
       id="path8112"
       d="M47.78 95.46q0-.397-.082-.567-.08-.17-.267-.17-.184 0-.266.17-.08.17-.08.566 0 .396.08.566.082.17.266.17.186 0 .267-.169.082-.17.082-.567zm.254 0q0 .47-.15.701-.148.232-.453.232-.305 0-.453-.23-.148-.23-.148-.704 0-.471.148-.703.15-.231.453-.231.305 0 .454.231.15.232.15.703zM48.351 95.667v-1.11h.245v1.22q0 .132.007.189.008.055.026.085.038.072.11.108.074.036.178.036.105 0 .177-.036t.112-.108q.018-.03.026-.085.007-.056.007-.186v-1.223h.243v1.11q0 .276-.035.393-.033.116-.118.192-.08.07-.182.106-.102.035-.23.035-.127 0-.23-.035-.102-.035-.183-.106-.083-.075-.118-.193-.035-.12-.035-.392zM49.716 94.557h1.374v.205h-.563v1.596h-.245v-1.596h-.566z" />
  </g>
  <g
     id="g8118"
     style="-inkscape-font-specification:'DejaVu Sans Mono'"
     word-spacing="0"
     letter-spacing="0"
     font-weight="400"
     font-size="2.469"
     font-family="DejaVu Sans Mono"
     aria-label="MOD 1"
     stroke-width=".265"
     fill="#f5f5f5">
    <path
       id="path8116"
       d="M8.328 36.096h.326l.31.916.314-.916h.327v1.8H9.38v-1.59l-.321.948h-.185l-.322-.949v1.59h-.224zM10.801 36.998q0-.397-.082-.567-.08-.17-.266-.17-.185 0-.267.17-.08.17-.08.567 0 .395.08.565.082.17.267.17t.266-.169q.082-.17.082-.566zm.255 0q0 .47-.15.701-.148.232-.453.232-.305 0-.454-.23-.148-.23-.148-.703 0-.472.148-.703.15-.232.454-.232.305 0 .453.232.15.231.15.703zM11.721 37.696q.308 0 .43-.151.121-.152.121-.547 0-.4-.121-.55-.121-.152-.43-.152h-.116v1.4zm.005-1.6q.412 0 .608.22.195.219.195.682 0 .46-.195.68-.196.218-.608.218h-.365v-1.8zM14.492 37.69h.379v-1.375l-.408.092v-.222l.405-.09h.244v1.596h.374v.205h-.994z" />
  </g>
  <g
     id="g8122"
     style="-inkscape-font-specification:'DejaVu Sans Mono'"
     word-spacing="0"
     letter-spacing="0"
     font-weight="400"
     font-size="2.469"
     font-family="DejaVu Sans Mono"
     aria-label="MOD 2"
     stroke-width=".265"
     fill="#f5f5f5">
    <path
       id="path8120"
       d="M24.29 36.096h.326l.311.916.314-.916h.326v1.8h-.225v-1.59l-.32.948h-.185l-.322-.949v1.59h-.225zM26.763 36.998q0-.397-.082-.567-.08-.17-.266-.17-.184 0-.266.17-.081.17-.081.567 0 .395.08.565.083.17.267.17.186 0 .266-.169.082-.17.082-.566zm.255 0q0 .47-.15.701-.148.232-.453.232-.305 0-.453-.23-.149-.23-.149-.703 0-.472.149-.703.15-.232.453-.232.305 0 .453.232.15.231.15.703zM27.683 37.696q.308 0 .43-.151.122-.152.122-.547 0-.4-.122-.55-.12-.152-.43-.152h-.115v1.4zm.005-1.6q.413 0 .608.22.195.219.195.682 0 .46-.195.68-.195.218-.608.218h-.365v-1.8zM30.579 37.69h.827v.206h-1.094v-.205q.226-.238.394-.42.17-.182.233-.257.12-.147.163-.237.042-.092.042-.187 0-.15-.09-.236-.087-.086-.242-.086-.11 0-.23.04-.12.04-.255.12v-.246q.124-.059.243-.089.12-.03.238-.03.264 0 .424.141.162.14.162.368 0 .116-.055.232-.053.115-.173.255-.068.079-.197.217-.128.139-.39.415z" />
  </g>
  <g
     id="g8126"
     word-spacing="0"
     letter-spacing="0"
     font-weight="400"
     font-size="2.469"
     font-family="DejaVu Sans Mono"
     aria-label="MOD 3"
     style="-inkscape-font-specification:'DejaVu Sans Mono'"
     stroke-width=".265"
     fill="#f5f5f5">
    <path
       id="path8124"
       d="M40.11 36.096h.325l.311.916.314-.916h.326v1.8h-.225v-1.59l-.32.948h-.185l-.322-.949v1.59h-.225zM42.583 36.998q0-.397-.082-.567-.081-.17-.267-.17-.184 0-.266.17-.081.17-.081.567 0 .395.08.565.083.17.267.17.186 0 .267-.169.082-.17.082-.566zm.254 0q0 .47-.15.701-.148.232-.453.232-.305 0-.453-.23-.149-.23-.149-.703 0-.472.149-.703.15-.232.453-.232.305 0 .453.232.15.231.15.703zM43.503 37.696q.307 0 .429-.151.122-.152.122-.547 0-.4-.122-.55-.12-.152-.43-.152h-.115v1.4zm.004-1.6q.413 0 .608.22.195.219.195.682 0 .46-.195.68-.195.218-.608.218h-.365v-1.8zM46.884 36.932q.177.047.27.168.095.12.095.3 0 .247-.168.39-.166.14-.462.14-.124 0-.253-.022-.129-.023-.253-.066v-.243q.123.064.242.096.12.031.238.031.2 0 .307-.09.108-.09.108-.26 0-.158-.108-.25-.107-.092-.29-.092h-.186v-.2h.186q.167 0 .261-.074.095-.073.095-.205 0-.138-.088-.212-.087-.075-.249-.075-.107 0-.222.024-.114.025-.24.073v-.224q.146-.039.26-.058.114-.02.202-.02.263 0 .42.133.158.131.158.35 0 .148-.084.247-.082.099-.24.14z" />
  </g>
  <g
     id="g8130"
     word-spacing="0"
     letter-spacing="0"
     font-weight="400"
     font-size="2.469"
     font-family="DejaVu Sans Mono"
     aria-label="OCTAVE"
     style="-inkscape-font-specification:'DejaVu Sans Mono'"
     stroke-width=".265"
     fill="#fff">
    <path
       id="path8128"
       d="M24.49 21.73q0-.397-.081-.567-.081-.17-.267-.17-.184 0-.266.17-.081.17-.081.567 0 .395.08.565.083.17.267.17.186 0 .267-.169.082-.17.082-.566zm.255 0q0 .47-.15.701-.148.232-.453.232-.305 0-.453-.23-.149-.23-.149-.703 0-.472.149-.703.15-.232.453-.232.305 0 .453.232.15.231.15.703zM26.179 22.564q-.093.05-.19.074-.099.025-.208.025-.346 0-.538-.245-.19-.245-.19-.688 0-.442.191-.688.193-.247.537-.247.11 0 .207.025.098.025.19.074v.25q-.089-.074-.191-.113-.103-.038-.206-.038-.238 0-.356.183t-.118.554q0 .369.118.552.118.183.356.183.106 0 .207-.038.103-.039.19-.113zM26.427 20.828H27.8v.205h-.563v1.595h-.244v-1.595h-.566zM28.599 21.042l-.257.922h.514zm-.147-.214h.295l.551 1.8h-.252l-.133-.47h-.63l-.13.47H27.9zM30.084 22.423l.423-1.595h.252l-.526 1.8h-.296l-.527-1.8h.252zM31.064 20.828h1.069v.205h-.825v.533h.789v.205h-.789v.652h.848v.205h-1.092z" />
  </g>
  <g
     id="g8134"
     word-spacing="0"
     letter-spacing="0"
     font-weight="400"
     font-size="2.469"
     font-family="DejaVu Sans Mono"
     aria-label="FINE"
     style="-inkscape-font-specification:'DejaVu Sans Mono'"
     stroke-width=".265"
     fill="#f5f5f5">
    <path
       id="path8132"
       d="M40.927 18.901h1.06v.205h-.815v.53h.739v.206h-.74v.86h-.244zM42.374 18.901h1v.205h-.378v1.39h.378v.205h-1v-.205h.377v-1.39h-.377zM43.785 18.901h.308l.608 1.482v-1.482h.235v1.8h-.308l-.608-1.481V20.7h-.235zM45.34 18.901h1.068v.205h-.824v.533h.788v.205h-.788v.652h.847v.205h-1.09z" />
  </g>
  <g
     id="g8138"
     word-spacing="0"
     letter-spacing="0"
     font-weight="400"
     font-size="2.469"
     font-family="DejaVu Sans Mono"
     aria-label="NOTE"
     style="-inkscape-font-specification:'DejaVu Sans Mono'"
     stroke-width=".265"
     fill="#f5f5f5">
    <path
       id="path8136"
       d="M9.12 18.9h.309l.608 1.482V18.9h.235v1.8h-.309l-.608-1.482V20.7H9.12zM11.53 19.802q0-.397-.083-.567-.08-.17-.266-.17-.185 0-.266.17-.081.17-.081.567 0 .395.08.565.082.17.267.17.186 0 .266-.168.082-.17.082-.567zm.254 0q0 .47-.15.702-.148.231-.453.231-.305 0-.453-.23-.149-.23-.149-.703 0-.472.149-.703.15-.232.453-.232.305 0 .453.232.15.231.15.703zM11.98 18.9h1.374v.205h-.563V20.7h-.245v-1.595h-.566zM13.647 18.9h1.068v.205h-.825v.533h.789v.205h-.789v.652h.848v.205h-1.091z" />
  </g>
  <g
     id="g8142"
     word-spacing="0"
     letter-spacing="0"
     font-weight="400"
     font-size="2.469"
     font-family="DejaVu Sans Mono"
     aria-label="MOD 1 CV"
     style="-inkscape-font-specification:'DejaVu Sans Mono'"
     stroke-width=".265"
     fill="#f5f5f5">
    <path
       id="path8140"
       d="M6.05 53.378h.326l.311.916.314-.916h.326v1.8h-.225v-1.59l-.32.949h-.185l-.322-.95v1.591H6.05zM8.524 54.28q0-.397-.082-.567-.081-.17-.267-.17-.184 0-.266.17-.081.17-.081.567 0 .395.08.565.083.17.267.17.186 0 .267-.168.082-.17.082-.567zm.254 0q0 .47-.15.702-.148.231-.453.231-.305 0-.453-.23-.149-.23-.149-.703 0-.472.149-.703.15-.232.453-.232.305 0 .453.232.15.231.15.703zM9.444 54.978q.307 0 .429-.15.122-.153.122-.548 0-.4-.122-.55-.12-.152-.43-.152h-.115v1.4zm.004-1.6q.413 0 .608.22.195.219.195.682 0 .46-.195.68-.195.218-.608.218h-.365v-1.8zM12.214 54.973h.379v-1.376l-.408.092v-.222l.406-.089h.243v1.595h.374v.205h-.994zM16.154 55.114q-.093.05-.19.074-.098.025-.208.025-.346 0-.538-.245-.19-.244-.19-.688 0-.441.191-.687.193-.248.537-.248.11 0 .207.026.098.024.19.073v.25q-.089-.074-.191-.112-.103-.039-.206-.039-.238 0-.356.183-.118.184-.118.554 0 .369.118.552.118.183.356.183.106 0 .207-.038.103-.039.19-.112zM17.088 54.973l.423-1.595h.252l-.527 1.8h-.295l-.527-1.8h.252z" />
  </g>
  <g
     id="g8146"
     word-spacing="0"
     letter-spacing="0"
     font-weight="400"
     font-size="2.469"
     font-family="DejaVu Sans Mono"
     aria-label="MOD 2 CV"
     style="-inkscape-font-specification:'DejaVu Sans Mono'"
     stroke-width=".265"
     fill="#f5f5f5">
    <path
       id="path8144"
       d="M21.992 53.378h.325l.311.916.314-.916h.327v1.8h-.226v-1.59l-.32.949h-.185l-.322-.95v1.591h-.224zM24.465 54.28q0-.397-.082-.567-.081-.17-.267-.17-.184 0-.266.17-.081.17-.081.567 0 .395.08.565.083.17.267.17.186 0 .267-.168.082-.17.082-.567zm.254 0q0 .47-.15.702-.148.231-.453.231-.305 0-.453-.23-.149-.23-.149-.703 0-.472.149-.703.15-.232.453-.232.305 0 .454.232.15.231.15.703zM25.385 54.978q.307 0 .429-.15.122-.153.122-.548 0-.4-.122-.55-.12-.152-.43-.152h-.115v1.4zm.004-1.6q.413 0 .608.22.196.219.196.682 0 .46-.196.68-.195.218-.608.218h-.365v-1.8zM28.28 54.973h.827v.205h-1.094v-.205q.226-.237.395-.42.168-.181.232-.256.12-.147.163-.238.042-.091.042-.187 0-.15-.089-.236-.088-.086-.242-.086-.11 0-.23.04-.121.04-.256.12v-.245q.124-.06.243-.09.12-.03.238-.03.264 0 .424.142.162.14.162.367 0 .116-.054.232-.053.116-.174.255-.068.079-.197.218-.127.138-.39.414zM32.095 55.114q-.093.05-.19.074-.098.025-.208.025-.346 0-.538-.245-.19-.244-.19-.688 0-.441.191-.687.193-.248.537-.248.11 0 .207.026.098.024.19.073v.25q-.088-.074-.19-.112-.103-.039-.207-.039-.238 0-.356.183-.118.184-.118.554 0 .369.118.552.118.183.356.183.106 0 .207-.038.103-.039.19-.112zM33.03 54.973l.423-1.595h.252l-.527 1.8h-.296l-.527-1.8h.252z" />
  </g>
  <g
     id="g8150"
     word-spacing="0"
     letter-spacing="0"
     font-weight="400"
     font-size="2.469"
     font-family="DejaVu Sans Mono"
     aria-label="MOD 3 CV"
     style="-inkscape-font-specification:'DejaVu Sans Mono'"
     stroke-width=".265"
     fill="#f5f5f5">
    <path
       id="path8148"
       d="M37.823 53.378h.325l.311.916.314-.916h.327v1.8h-.226v-1.59l-.32.949h-.185l-.322-.95v1.591h-.224zM40.296 54.28q0-.397-.082-.567-.081-.17-.267-.17-.184 0-.266.17-.081.17-.081.567 0 .395.08.565.083.17.267.17.186 0 .267-.168.082-.17.082-.567zm.254 0q0 .47-.15.702-.148.231-.453.231-.305 0-.453-.23-.148-.23-.148-.703 0-.472.148-.703.15-.232.453-.232.305 0 .454.232.15.231.15.703zM41.216 54.978q.307 0 .429-.15.122-.153.122-.548 0-.4-.122-.55-.12-.152-.43-.152H41.1v1.4zm.005-1.6q.412 0 .607.22.196.219.196.682 0 .46-.196.68-.195.218-.607.218h-.366v-1.8zM44.597 54.215q.177.047.271.167.094.12.094.3 0 .248-.167.39-.167.141-.462.141-.124 0-.254-.023-.129-.023-.253-.066v-.242q.123.064.243.095.119.031.237.031.2 0 .308-.09.107-.09.107-.26 0-.157-.107-.249-.108-.093-.29-.093h-.187v-.2h.186q.168 0 .262-.074.094-.073.094-.205 0-.138-.088-.212-.087-.075-.249-.075-.107 0-.222.025-.114.024-.24.072v-.224q.146-.039.26-.058.114-.02.202-.02.263 0 .42.133.158.131.158.35 0 .148-.083.247-.082.099-.24.14zM47.926 55.114q-.093.05-.19.074-.098.025-.208.025-.346 0-.538-.245-.19-.244-.19-.688 0-.441.191-.687.193-.248.537-.248.11 0 .207.026.098.024.19.073v.25q-.088-.074-.19-.112-.103-.039-.207-.039-.238 0-.356.183-.118.184-.118.554 0 .369.118.552.118.183.356.183.106 0 .207-.038.103-.039.19-.112zM48.86 54.973l.424-1.595h.252l-.527 1.8h-.296l-.527-1.8h.252z" />
  </g>
  <g
     id="g8154"
     word-spacing="0"
     letter-spacing="0"
     font-weight="400"
     font-size="2.469"
     font-family="DejaVu Sans Mono"
     aria-label="FM CV"
     style="-inkscape-font-specification:'DejaVu Sans Mono'"
     stroke-width=".265"
     fill="#f5f5f5">
    <path
       id="path8152"
       d="M40.14 70.579h1.06v.205h-.816v.53h.74v.205h-.74v.86h-.244zM41.448 70.579h.325l.312.916.313-.916h.327v1.8h-.226v-1.59l-.32.948h-.185l-.322-.949v1.59h-.224zM45.609 72.315q-.093.05-.19.074-.098.025-.208.025-.346 0-.538-.245-.19-.245-.19-.688 0-.442.192-.688.192-.247.536-.247.11 0 .208.025.097.024.19.074v.25q-.09-.074-.192-.113-.102-.038-.206-.038-.237 0-.356.183-.118.183-.118.554 0 .369.118.552.119.183.356.183.106 0 .208-.039.102-.038.19-.112zM46.544 72.174l.423-1.595h.252l-.527 1.8h-.296l-.527-1.8h.252z" />
  </g>
  <g
     id="g8158"
     word-spacing="0"
     letter-spacing="0"
     font-weight="400"
     font-size="2.469"
     font-family="DejaVu Sans Mono"
     aria-label="FM CV"
     style="-inkscape-font-specification:'DejaVu Sans Mono'"
     stroke-width=".265"
     fill="#f5f5f5">
    <path
       id="path8156"
       d="M45.42 83.935h1.06v.205h-.815v.53h.74v.206h-.74v.86h-.245zM46.728 83.935h.326l.311.917.314-.917h.326v1.8h-.225v-1.59l-.32.949h-.185l-.322-.95v1.591h-.225zM50.89 85.671q-.093.05-.19.074-.099.025-.208.025-.346 0-.538-.244-.19-.245-.19-.689 0-.441.191-.687.193-.247.537-.247.11 0 .207.025.098.024.19.073v.25q-.089-.074-.191-.112-.103-.039-.206-.039-.238 0-.356.184-.118.183-.118.553 0 .37.118.552.118.184.356.184.106 0 .207-.039.103-.039.19-.112zM51.824 85.53l.423-1.595h.252l-.527 1.8h-.295l-.527-1.8h.252z" />
  </g>
  <g
     id="g8168"
     word-spacing="0"
     letter-spacing="0"
     font-weight="400"
     font-size="10.583"
     stroke-width=".265"
     fill="#f5f5f5">
    <g
       id="g8162"
       font-family="Strasua"
       aria-label="MS">
      <path
         id="path8160"
         d="M23.956 97.318q.055-.087.138-.122.083-.04.17-.04.102 0 .166.075.063.071.063.194V99.3l1.319-1.982q.055-.087.134-.122.083-.04.174-.04.102 0 .166.075.063.071.063.194v2.835h-.537v-2.081l-1.2 1.895q-.068.107-.147.146-.079.04-.162.04-.07 0-.134-.024-.063-.027-.11-.075-.048-.047-.076-.11-.027-.064-.027-.143v-1.73l-1.32 2.082h-.639zM26.715 100.26v-.537h1.078q.249 0 .41-.119.163-.118.163-.308 0-.094-.044-.173-.043-.08-.118-.135-.075-.059-.182-.09-.107-.032-.23-.032h-.244q-.19 0-.351-.06-.162-.062-.28-.173-.12-.115-.186-.265-.067-.154-.067-.34 0-.18.067-.335.07-.154.197-.268.127-.115.304-.178.178-.067.391-.067h1.023v.537h-1.05q-.17 0-.269.095-.099.09-.099.22 0 .143.099.238.103.094.268.094h.305q.205 0 .379.072.173.067.3.193.126.126.197.3.071.174.071.38 0 .209-.075.382-.075.174-.217.3-.138.127-.332.198-.193.07-.43.07z"
         style="-inkscape-font-specification:Strasua" />
    </g>
    <g
       id="g8166">
      <path
         id="path8164"
         aria-label="M"
         d="M31.607 97.317q-.056-.086-.139-.122-.082-.04-.17-.04-.102 0-.165.076-.063.07-.063.193V99.3l-1.32-1.983q-.055-.086-.133-.122-.083-.04-.174-.04-.103 0-.166.076-.063.07-.063.193v2.835h.537v-2.08l1.2 1.895q.067.106.146.146.08.04.162.04.071 0 .134-.024.064-.028.111-.075.047-.048.075-.111.028-.063.028-.142v-1.73l1.319 2.081h.64z"
         style="-inkscape-font-specification:Strasua" />
    </g>
  </g>
  <g
     id="g8172"
     stroke-width=".25"
     stroke-linecap="round"
     stroke="#000">
    <path
       id="path8170"
       paint-order="markers stroke fill"
       d="M27.795 5.838h.064v1.596h-.064zM22.432 8.35l.042-.048 1.205 1.047-.042.048zM33.208 8.238l.042.048-1.204 1.047-.042-.048zM34.973 13.69l-.007.064-1.586-.176.007-.063zM20.68 13.69l.008.064 1.586-.176-.007-.063zM23.302 18.917l-.05-.04 1.004-1.242.05.04zM32.248 18.85l.05-.042-1.023-1.226-.049.041z" />
  </g>
  <g
     id="g8188"
     word-spacing="0"
     letter-spacing="0"
     font-weight="400"
     font-size="2.469"
     font-family="DejaVu Sans Mono"
     stroke-width=".089"
     fill="#f5f5f5">
    <path
       id="path8174"
       aria-label="4"
       d="M27.91 3.82l-.511.857h.511zm-.036-.2h.255v1.057h.216v.178h-.216v.387h-.219v-.387h-.687v-.207z" />
    <path
       id="path8176"
       aria-label="3"
       d="M21.72 7.183q.16.043.244.151.085.108.085.27 0 .223-.151.352-.15.127-.416.127-.112 0-.228-.021-.116-.02-.228-.06v-.218q.11.057.218.086.108.028.214.028.18 0 .277-.081.097-.082.097-.235 0-.141-.097-.224-.097-.083-.262-.083h-.167v-.18h.167q.151 0 .236-.067.085-.066.085-.185 0-.124-.08-.19-.078-.068-.223-.068-.097 0-.2.022-.103.021-.216.065V6.47q.131-.035.233-.052.103-.018.183-.018.236 0 .378.12.142.118.142.315 0 .133-.075.222-.074.09-.216.126z" />
    <path
       id="path8178"
       aria-label="2"
       d="M19.218 14.57h.745v.184h-.985v-.184q.203-.214.355-.378.152-.164.21-.232.108-.132.146-.214.038-.082.038-.168 0-.136-.08-.213-.08-.077-.218-.077-.1 0-.208.036-.108.036-.23.108v-.221q.112-.053.22-.08.108-.028.213-.028.238 0 .383.127.145.126.145.332 0 .104-.049.208-.047.104-.156.23-.06.071-.177.196-.115.125-.352.374z" />
    <path
       id="path8180"
       aria-label="1"
       d="M22.021 20.55h.341v-1.24l-.367.082v-.2l.365-.08h.22v1.437h.336v.185h-.895z" />
    <path
       id="path8182"
       aria-label="5"
       d="M33.912 6.43h.821v.184h-.621v.399q.047-.017.093-.025.048-.009.096-.009.252 0 .4.149.147.149.147.403 0 .256-.155.404-.154.148-.422.148-.13 0-.237-.018-.107-.017-.191-.052V7.79q.1.055.2.082.102.026.207.026.181 0 .28-.096.098-.095.098-.271 0-.174-.102-.27-.101-.097-.283-.097-.088 0-.171.02-.084.02-.16.06z" />
    <path
       id="path8184"
       aria-label="6"
       d="M36.7 13.137v.202q-.068-.04-.145-.06-.077-.023-.161-.023-.209 0-.316.158-.108.156-.108.462.052-.11.145-.167.092-.058.212-.058.234 0 .362.144.13.144.13.407t-.133.408q-.132.144-.372.144-.283 0-.414-.202-.132-.203-.132-.638 0-.411.158-.626.158-.216.458-.216.08 0 .16.017.081.016.156.048zm-.39.685q-.14 0-.221.101-.08.101-.08.28 0 .178.08.279.08.1.22.1.146 0 .22-.095.073-.097.073-.285 0-.189-.073-.284-.074-.096-.22-.096z" />
    <path
       id="path8186"
       aria-label="7"
       d="M32.796 19.112h1.02v.094l-.58 1.528h-.229l.565-1.437h-.776z" />
  </g>
  <g
     id="g8192"
     word-spacing="0"
     letter-spacing="0"
     font-weight="400"
     font-size="2.469"
     font-family="DejaVu Sans Mono"
     aria-label="TYPE"
     style="-inkscape-font-specification:'DejaVu Sans Mono'"
     stroke-width=".265"
     fill="#f5f5f5">
    <path
       id="path8190"
       d="M15.638 83.936h1.373v.205h-.563v1.596h-.245V84.14h-.565zM17.111 83.936h.26l.438.795.438-.795h.262l-.578.993v.808h-.245v-.808zM19.033 84.136v.677h.282q.169 0 .263-.09.095-.088.095-.249 0-.16-.094-.248-.094-.09-.264-.09zm-.244-.2h.526q.302 0 .457.138.156.136.156.4 0 .267-.156.403-.154.136-.457.136h-.282v.724h-.244zM20.275 83.936h1.068v.205h-.824v.533h.788v.205h-.788v.653h.847v.205h-1.091z" />
  </g>
  <g
     id="g8196"
     word-spacing="0"
     letter-spacing="0"
     font-weight="400"
     font-size="2.469"
     font-family="DejaVu Sans Mono"
     aria-label="SIZE"
     style="-inkscape-font-specification:'DejaVu Sans Mono'"
     stroke-width=".265"
     fill="#f5f5f5">
    <path
       id="path8194"
       d="M4.87 83.997v.247q-.11-.071-.223-.107-.11-.037-.224-.037-.173 0-.273.081-.1.08-.1.216 0 .12.065.182.067.063.246.105l.128.029q.253.059.37.186.115.126.115.344 0 .257-.16.392-.158.135-.462.135-.127 0-.255-.027t-.257-.081v-.26q.14.089.262.13.124.04.25.04.184 0 .287-.081.102-.084.102-.232 0-.135-.071-.206-.07-.071-.245-.11l-.13-.03q-.25-.057-.364-.171-.113-.115-.113-.308 0-.24.161-.386.163-.145.432-.145.103 0 .218.024.115.023.241.07zM5.378 83.935h1v.205H6v1.39h.377v.205h-1v-.205h.378v-1.39h-.377zM6.836 83.935h1.168v.186l-.94 1.41h.967v.204H6.809v-.185l.915-1.41h-.888zM8.344 83.935h1.068v.205h-.824v.533h.788v.205h-.788v.652h.847v.205H8.344z" />
  </g>
  <g
     id="g8200"
     word-spacing="0"
     letter-spacing="0"
     font-weight="400"
     font-size="2.117"
     font-family="DejaVu Sans Mono"
     aria-label="VCO"
     style="-inkscape-font-specification:'DejaVu Sans Mono'"
     stroke-width=".265"
     fill="#f5f5f5">
    <path
       id="path8198"
       d="M26.472 76.435l.362-1.367h.216l-.451 1.543h-.253l-.452-1.543h.216zM28.217 76.556q-.08.043-.163.063-.084.022-.178.022-.296 0-.46-.21-.164-.21-.164-.59 0-.378.164-.589.166-.212.46-.212.094 0 .178.022.084.02.163.063v.214q-.076-.063-.164-.096-.088-.033-.177-.033-.203 0-.305.157-.101.157-.101.474 0 .316.101.473.102.158.305.158.091 0 .178-.034.088-.033.163-.096zM29.317 75.841q0-.34-.07-.486-.07-.145-.229-.145-.158 0-.228.145-.07.146-.07.486 0 .34.07.485.07.146.228.146.16 0 .229-.145.07-.146.07-.486zm.218 0q0 .403-.128.602-.127.198-.389.198-.261 0-.388-.197-.127-.198-.127-.603 0-.404.127-.602.128-.199.388-.199.262 0 .389.199.128.198.128.602z" />
  </g>
  <g
     id="g8204"
     word-spacing="0"
     letter-spacing="0"
     font-weight="400"
     font-size="2.469"
     font-family="DejaVu Sans Mono"
     aria-label="RST"
     style="-inkscape-font-specification:'DejaVu Sans Mono'"
     stroke-width=".265"
     fill="#f5f5f5">
    <path
       id="path8202"
       d="M35.671 84.885q.094.024.16.092.067.066.166.266l.244.492h-.261l-.215-.454q-.093-.194-.167-.25-.074-.056-.193-.056h-.233v.76h-.245v-1.8h.502q.296 0 .454.134.158.134.158.387 0 .178-.097.292-.097.112-.273.137zm-.5-.75v.64h.267q.175 0 .26-.079.086-.078.086-.24 0-.155-.091-.237-.09-.084-.264-.084zM37.46 83.997v.247q-.11-.071-.223-.107-.11-.037-.224-.037-.172 0-.272.081-.1.08-.1.216 0 .12.065.182.066.063.246.105l.127.029q.254.059.37.186.115.126.115.344 0 .257-.159.392-.16.135-.463.135-.127 0-.254-.027-.128-.027-.257-.081v-.26q.138.089.261.13.125.04.25.04.184 0 .287-.081.102-.084.102-.232 0-.135-.07-.206-.07-.071-.245-.11l-.13-.03q-.251-.057-.365-.171-.113-.115-.113-.308 0-.24.161-.385.163-.146.432-.146.104 0 .218.024.115.023.241.07zM37.782 83.935h1.374v.205h-.563v1.595h-.245V84.14h-.566z" />
  </g>
  <g
     id="g8208"
     style="-inkscape-font-specification:'DejaVu Sans Mono'"
     word-spacing="0"
     letter-spacing="0"
     font-weight="400"
     font-size="3.528"
     font-family="Space Age"
     aria-label="TREASURE"
     stroke-width=".05"
     stroke-opacity=".7"
     stroke="#333"
     fill="#f5f5f5">
    <path
       id="path8206"
       d="M15.758 1.045a.172.172 0 0 0-.17.17c0 .091.078.169.17.169h1.157a.891.891 0 0 0-.113.43v.6c0 .092.078.17.17.17.091 0 .169-.078.169-.17v-.6c0-.162.063-.416.349-.43h.71a.172.172 0 0 0 .154-.17.172.172 0 0 0-.17-.169zM21.468 2.414a.158.158 0 0 0-.035-.095c-.342-.501-.836-.674-1.665-.674h-.72V1.46c.008-.042.05-.077.11-.077h1.848c.067.007.124.06.124.13 0 .092.077.17.17.17.09 0 .168-.078.168-.17a.482.482 0 0 0-.486-.469H19.14a.451.451 0 0 0-.43.462v.907c0 .092.077.17.17.17.087 0 .168-.078.168-.17v-.43h.72c.579 0 .995.035 1.383.515.01.014.021.024.032.035.031.028.07.05.116.05.092 0 .17-.078.17-.17zM24.495 1.384c.091 0 .169-.078.169-.17a.172.172 0 0 0-.17-.169h-2.02c-.406 0-.65.413-.65.77 0 .348.23.768.614.768h2.41c.049 0 .098-.024.13-.063l.829-1.1c.028-.036.081-.096.134-.096.053 0 .106.056.138.095l.822 1.097a.167.167 0 0 0 .134.067c.091 0 .169-.077.169-.17a.184.184 0 0 0-.05-.12l-.857-1.146a.443.443 0 0 0-.356-.172.464.464 0 0 0-.37.183l-.808 1.087H22.55c-.325 0-.395-.262-.395-.43 0-.17.07-.431.395-.431zm-.149.26H22.59a.172.172 0 0 0-.17.17c0 .092.078.17.17.17h1.756c.092 0 .17-.078.17-.17a.172.172 0 0 0-.17-.17zm1.376.558c0 .12.1.219.219.219a.22.22 0 0 0 .219-.219.22.22 0 0 0-.219-.218.22.22 0 0 0-.219.218zM28.026 1.984h1.958c.07 0 .13.06.13.134a.13.13 0 0 1-.13.127h-2.152a.172.172 0 0 0-.17.169c0 .092.078.17.17.17h2.138a.467.467 0 0 0 .472-.466.473.473 0 0 0-.472-.473h-1.951a.136.136 0 0 1-.134-.13c0-.075.063-.131.134-.131h2.148c.092 0 .17-.078.17-.17a.172.172 0 0 0-.17-.169h-2.141a.467.467 0 0 0-.47.47c0 .26.209.469.47.469zM31.134 1.814v-.6a.172.172 0 0 0-.17-.169.172.172 0 0 0-.169.17v.6c0 .348.23.747.614.768h1.609c.405 0 .649-.413.649-.769v-.6a.172.172 0 0 0-.17-.169.172.172 0 0 0-.169.17v.6c0 .169-.07.43-.395.43h-1.404c-.325 0-.395-.261-.395-.43zM36.778 2.414a.158.158 0 0 0-.035-.095c-.342-.501-.836-.674-1.665-.674h-.72V1.46c.008-.042.05-.077.11-.077h1.848c.067.007.124.06.124.13 0 .092.077.17.17.17.09 0 .168-.078.168-.17a.482.482 0 0 0-.486-.469H34.45a.451.451 0 0 0-.43.462v.907c0 .092.077.17.17.17.087 0 .168-.078.168-.17v-.43h.72c.579 0 .995.035 1.383.515.01.014.021.024.032.035.031.028.07.05.116.05.092 0 .17-.078.17-.17zM39.805 1.384c.091 0 .169-.078.169-.17a.172.172 0 0 0-.17-.169h-2.02c-.406 0-.65.413-.65.77 0 .348.23.768.614.768h2.057c.091 0 .169-.077.169-.17a.172.172 0 0 0-.17-.168h-1.943c-.325 0-.395-.261-.395-.43 0-.17.07-.431.395-.431zm-.149.26H37.9a.172.172 0 0 0-.17.17c0 .092.078.17.17.17h1.756c.092 0 .17-.078.17-.17a.172.172 0 0 0-.17-.17z"
       style="-inkscape-font-specification:'Space Age'" />
  </g>
  <g
     id="g8212"
     word-spacing="0"
     letter-spacing="0"
     font-weight="400"
     font-size="2.469"
     font-family="DejaVu Sans Mono"
     aria-label="MOD 3"
     style="-inkscape-font-specification:'DejaVu Sans Mono'"
     stroke-width=".265"
     fill="#f5f5f5">
    <path
       id="path8210"
       d="M33.472 94.557h.325l.311.917.314-.917h.327v1.8h-.226v-1.59l-.32.95h-.185l-.322-.95v1.59h-.224zM35.945 95.46q0-.397-.082-.567-.081-.17-.267-.17-.184 0-.266.17-.08.17-.08.566 0 .396.08.566.082.17.266.17.186 0 .267-.169.082-.17.082-.567zm.254 0q0 .47-.15.701-.148.232-.453.232-.305 0-.453-.23-.148-.23-.148-.704 0-.471.148-.703.15-.231.453-.231.305 0 .454.231.15.232.15.703zM36.865 96.158q.307 0 .43-.151.12-.152.12-.548 0-.399-.12-.55-.121-.151-.43-.151h-.116v1.4zm.005-1.6q.412 0 .607.219.196.22.196.682 0 .461-.196.68-.195.219-.607.219h-.366v-1.8zM40.246 95.394q.177.047.271.168.094.12.094.299 0 .248-.167.39-.167.142-.462.142-.124 0-.253-.023-.13-.023-.254-.067v-.242q.123.064.243.095.12.032.237.032.2 0 .308-.09.107-.091.107-.261 0-.157-.107-.249-.108-.092-.29-.092h-.187v-.2h.186q.168 0 .262-.074t.094-.205q0-.139-.088-.212-.087-.075-.249-.075-.107 0-.221.024-.115.024-.24.072v-.224q.146-.038.259-.058.114-.02.202-.02.263 0 .42.134.158.131.158.35 0 .148-.083.246-.082.1-.24.14z" />
  </g>
  <g
     id="g8216"
     word-spacing="0"
     letter-spacing="0"
     font-weight="400"
     font-size="2.469"
     font-family="DejaVu Sans Mono"
     aria-label="MOD 2"
     style="-inkscape-font-specification:'DejaVu Sans Mono'"
     stroke-width=".265"
     fill="#f5f5f5">
    <path
       id="path8214"
       d="M24.219 94.557h.325l.311.917.314-.917h.327v1.8h-.226v-1.59l-.32.95h-.185l-.322-.95v1.59h-.224zM26.692 95.46q0-.397-.082-.567-.081-.17-.267-.17-.184 0-.266.17-.081.17-.081.566 0 .396.08.566.083.17.267.17.186 0 .267-.169.082-.17.082-.567zm.254 0q0 .47-.15.701-.148.232-.453.232-.305 0-.453-.23-.148-.23-.148-.704 0-.471.148-.703.15-.231.453-.231.305 0 .454.231.15.232.15.703zM27.612 96.158q.307 0 .429-.151.122-.152.122-.548 0-.399-.122-.55-.12-.151-.43-.151h-.115v1.4zm.005-1.6q.412 0 .607.219.196.22.196.682 0 .461-.196.68-.195.219-.607.219h-.366v-1.8zM30.507 96.153h.827v.205H30.24v-.205q.226-.238.395-.42.168-.182.232-.257.121-.147.163-.237.042-.092.042-.187 0-.15-.089-.236-.088-.086-.242-.086-.11 0-.23.04-.121.04-.256.12v-.246q.124-.059.243-.089.121-.03.238-.03.264 0 .424.141.162.14.162.368 0 .116-.054.231-.053.116-.174.256-.067.078-.196.217-.128.139-.391.415z" />
  </g>
  <g
     id="g8220"
     word-spacing="0"
     letter-spacing="0"
     font-weight="400"
     font-size="2.117"
     font-family="DejaVu Sans Mono"
     aria-label="LFO"
     style="-inkscape-font-specification:'DejaVu Sans Mono'"
     stroke-width=".265"
     fill="#f5f5f5">
    <path
       id="path8218"
       d="M25.976 83.897h.21v1.367h.745v.176h-.955zM27.267 83.897h.909v.175h-.699v.455h.634v.176h-.634v.737h-.21zM29.235 84.67q0-.34-.07-.486-.07-.146-.228-.146-.159 0-.229.146t-.07.486q0 .339.07.484.07.146.229.146t.228-.145q.07-.145.07-.485zm.218 0q0 .403-.128.601-.127.199-.388.199-.262 0-.389-.198-.127-.197-.127-.602 0-.405.127-.603.128-.198.389-.198t.388.198q.128.198.128.603z" />
  </g>
  <g
     id="g8224"
     word-spacing="0"
     letter-spacing="0"
     font-weight="400"
     font-size="2.469"
     font-family="DejaVu Sans Mono"
     aria-label="SIZE"
     style="-inkscape-font-specification:'DejaVu Sans Mono'"
     stroke-width=".265"
     fill="#f5f5f5">
    <path
       id="path8222"
       d="M10.15 70.64v.247q-.11-.07-.222-.107-.111-.036-.225-.036-.172 0-.272.08-.1.08-.1.216 0 .12.065.182.066.063.246.105l.128.03q.253.058.369.185.115.127.115.345 0 .257-.159.392t-.463.135q-.126 0-.254-.028-.128-.026-.257-.08v-.26q.139.088.262.129.124.041.25.041.184 0 .286-.082.103-.083.103-.231 0-.136-.071-.207-.07-.07-.245-.11l-.13-.03q-.251-.056-.365-.17-.113-.115-.113-.308 0-.241.162-.386.162-.146.431-.146.104 0 .219.024.114.023.24.07zM10.658 70.579h1v.205h-.377v1.39h.377v.205h-1v-.205h.378v-1.39h-.378zM12.116 70.579h1.169v.185l-.941 1.41h.967v.205H12.09v-.186l.915-1.41h-.889zM13.625 70.579h1.068v.205h-.825v.533h.789v.205h-.789v.652h.848v.205h-1.091z" />
  </g>
  <g
     id="g8228"
     word-spacing="0"
     letter-spacing="0"
     font-weight="400"
     font-size="2.469"
     font-family="DejaVu Sans Mono"
     aria-label="TYPE"
     style="-inkscape-font-specification:'DejaVu Sans Mono'"
     stroke-width=".265"
     fill="#f5f5f5">
    <path
       id="path8226"
       d="M24.984 70.58h1.373v.205h-.563v1.595h-.245v-1.595h-.565zM26.457 70.58h.26l.438.794.438-.794h.262l-.578.992v.808h-.245v-.808zM28.38 70.78v.676h.281q.17 0 .263-.089.095-.089.095-.25 0-.16-.094-.248-.094-.089-.264-.089zm-.244-.2h.525q.302 0 .457.137.156.136.156.4 0 .267-.156.403-.154.137-.457.137h-.282v.723h-.243zM29.621 70.58h1.068v.205h-.824v.533h.788v.205h-.788v.652h.847v.205h-1.09z" />
  </g>
</svg>
