<?xml version="1.0" encoding="UTF-8" standalone="no"?>
<!-- Created with Inkscape (http://www.inkscape.org/) -->

<svg
   xmlns:dc="http://purl.org/dc/elements/1.1/"
   xmlns:cc="http://creativecommons.org/ns#"
   xmlns:rdf="http://www.w3.org/1999/02/22-rdf-syntax-ns#"
   xmlns:svg="http://www.w3.org/2000/svg"
   xmlns="http://www.w3.org/2000/svg"
   xmlns:sodipodi="http://sodipodi.sourceforge.net/DTD/sodipodi-0.dtd"
   xmlns:inkscape="http://www.inkscape.org/namespaces/inkscape"
   width="135"
   height="380"
   viewBox="0 0 35.718749 100.54167"
   version="1.1"
   id="svg8"
   sodipodi:docname="Mult.svg"
   inkscape:version="0.92.2 (5c3e80d, 2017-08-06)">
  <defs
     id="defs2" />
  <sodipodi:namedview
     id="base"
     pagecolor="#ffffff"
     bordercolor="#666666"
     borderopacity="1.0"
     inkscape:pageopacity="0.0"
     inkscape:pageshadow="2"
     inkscape:zoom="2"
     inkscape:cx="1.605098"
     inkscape:cy="181.01028"
     inkscape:document-units="mm"
     inkscape:current-layer="layer1"
     showgrid="false"
     units="px"
     inkscape:window-width="1920"
     inkscape:window-height="1033"
     inkscape:window-x="-4"
     inkscape:window-y="-4"
     inkscape:window-maximized="1"
     inkscape:lockguides="true"
     showguides="true"
     inkscape:guide-bbox="true"
     inkscape:snap-to-guides="false"
     inkscape:snap-grids="true">
    <sodipodi:guide
       position="-0.85989582,67.005731"
       orientation="0,1"
       id="guide899"
       inkscape:locked="true" />
    <sodipodi:guide
       position="18.68548,69.87762"
       orientation="0,1"
       id="guide901"
       inkscape:locked="true" />
    <sodipodi:guide
       position="3.4065103,72.586786"
       orientation="1,0"
       id="guide933"
       inkscape:locked="true" />
    <sodipodi:guide
       position="32.21302,73.124221"
       orientation="1,0"
       id="guide935"
       inkscape:locked="true" />
    <sodipodi:guide
       position="3.7372395,85.609247"
       orientation="0,1"
       id="guide988"
       inkscape:locked="true" />
    <sodipodi:guide
       position="7.0610676,85.311591"
       orientation="0,1"
       id="guide992"
       inkscape:locked="true" />
    <sodipodi:guide
       position="0.60803816,72.122684"
       orientation="0,1"
       id="guide902"
       inkscape:locked="true" />
  </sodipodi:namedview>
  <metadata
     id="metadata5">
    <rdf:RDF>
      <cc:Work
         rdf:about="">
        <dc:format>image/svg+xml</dc:format>
        <dc:type
           rdf:resource="http://purl.org/dc/dcmitype/StillImage" />
        <dc:title />
      </cc:Work>
    </rdf:RDF>
  </metadata>
  <g
     inkscape:label="Ebene 1"
     inkscape:groupmode="layer"
     id="layer1"
     transform="translate(0,-196.45832)">
    <path
       style="fill:#fefefe;fill-opacity:1;fill-rule:evenodd;stroke:none;stroke-width:0.09590294;stroke-miterlimit:4;stroke-dasharray:none;stroke-opacity:1"
       d="M 0.00729239,196.45106 H 37.048959 V 296.99273 H 0.00729239 Z"
       id="rect817-9-5"
       inkscape:connector-curvature="0" />
    <path
       style="fill:#f0f0f0;fill-opacity:1;fill-rule:evenodd;stroke:none;stroke-width:0.09590294;stroke-miterlimit:4;stroke-dasharray:none;stroke-opacity:1"
       d="M 0.00729161,196.45106 H 37.048959 V 296.99273 H 0.00729161 Z"
       id="rect817-9"
       inkscape:connector-curvature="0" />
    <g
       inkscape:transform-center-y="119.65244"
       inkscape:transform-center-x="-44.974764"
       id="g1358"
       transform="matrix(1.4311608,-1.4311608,1.4311608,1.4311608,-220.49213,-293.88753)"
       style="opacity:1;fill:#d6d6d6;fill-opacity:0.8">
      <g
         id="g1356"
         style="fill:#d6d6d6;fill-opacity:0.8">
        <g
           id="g1324"
           transform="translate(185.73646,-9.5250064)"
           style="fill:#d6d6d6;fill-opacity:0.8">
          <g
             transform="translate(-137.10274)"
             id="g1308"
             style="fill:#d6d6d6;fill-opacity:0.8">
            <path
               inkscape:connector-curvature="0"
               style="opacity:1;fill:#d6d6d6;fill-opacity:0.8;fill-rule:nonzero;stroke:none;stroke-width:6.9784193;stroke-linecap:round;stroke-linejoin:miter;stroke-miterlimit:4;stroke-dasharray:none;stroke-dashoffset:0;stroke-opacity:1;paint-order:markers stroke fill"
               d="m -718.94922,154.57227 c -14.32932,0.45458 -33.60356,20.71937 -31.29883,34.27148 -2.45838,14.45558 19.63622,36.55017 34.0918,34.0918 h 134.0918 v -9.0918 h -100.00196 v -25 c 2.45839,-14.4556 -19.63425,-36.54823 -34.08984,-34.08984 -0.90347,-0.15365 -1.83768,-0.21195 -2.79297,-0.18164 z m 1.00586,8.95898 c 0.63005,0.0232 1.22828,0.12471 1.78711,0.3125 8.94127,-3.00469 28.00471,16.05874 25,25 v 25 h -25 c -8.94126,3.00469 -28.00469,-16.05873 -25,-25 -2.8169,-8.38244 13.76214,-25.66117 23.21289,-25.3125 z m 26.78711,150.3125 v 9.0918 h 9.08984 v -9.0918 z"
               transform="matrix(0.26458333,0,0,0.26458333,0,196.45832)"
               id="path1296" />
            <path
               inkscape:connector-curvature="0"
               style="opacity:1;fill:#d6d6d6;fill-opacity:0.8;fill-rule:nonzero;stroke:none;stroke-width:6.9784193;stroke-linecap:round;stroke-linejoin:miter;stroke-miterlimit:4;stroke-dasharray:none;stroke-dashoffset:0;stroke-opacity:1;paint-order:markers stroke fill"
               d="m -718.55273,136.5293 c -24.81903,0.43381 -51.20004,27.62664 -49.87696,52.31445 -1.36576,25.48418 26.78925,53.63919 52.27344,52.27344 h 134.0918 v -9.0918 h -134.0918 c -19.96987,1.91207 -45.09371,-23.21177 -43.18164,-43.18164 -1.91207,-19.96987 23.21177,-45.0937 43.18164,-43.18164 19.96988,-1.91208 45.09374,23.21176 43.18164,43.18164 v 25 h 9.0918 v -25 c 1.36576,-25.4842 -26.78924,-53.63725 -52.27344,-52.27148 -0.79638,-0.0427 -1.59587,-0.057 -2.39648,-0.043 z m 45.57812,177.31445 v 9.0918 h 9.0918 v -9.0918 z"
               transform="matrix(0.26458333,0,0,0.26458333,0,196.45832)"
               id="path1298" />
            <path
               inkscape:connector-curvature="0"
               style="opacity:1;fill:#d6d6d6;fill-opacity:0.8;fill-rule:nonzero;stroke:none;stroke-width:6.9784193;stroke-linecap:round;stroke-linejoin:miter;stroke-miterlimit:4;stroke-dasharray:none;stroke-dashoffset:0;stroke-opacity:1;paint-order:markers stroke fill"
               d="m -716.15625,118.38867 c -36.51277,-0.27315 -70.72823,33.94231 -70.45508,70.45508 -0.27315,36.51277 33.94231,70.72822 70.45508,70.45508 h 134.0918 v -9.0918 h -134.0918 c -30.99848,0.81946 -62.18274,-30.3648 -61.36328,-61.36328 -0.81946,-30.99848 30.3648,-62.18273 61.36328,-61.36328 30.9985,-0.81946 62.18277,30.36478 61.36328,61.36328 v 25 h 9.0918 v -25 c 0.27315,-36.51278 -33.94229,-70.72823 -70.45508,-70.45508 z m 61.36328,195.45508 v 9.0918 h 9.0918 v -9.0918 z"
               transform="matrix(0.26458333,0,0,0.26458333,0,196.45832)"
               id="path1300" />
            <path
               inkscape:connector-curvature="0"
               style="opacity:1;fill:#d6d6d6;fill-opacity:0.8;fill-rule:nonzero;stroke:none;stroke-width:6.9784193;stroke-linecap:round;stroke-linejoin:miter;stroke-miterlimit:4;stroke-dasharray:none;stroke-dashoffset:0;stroke-opacity:1;paint-order:markers stroke fill"
               d="m -716.15625,100.20703 c -47.54138,0.81946 -87.81726,41.09534 -88.63672,88.63672 0.81946,47.54137 41.09535,87.81724 88.63672,88.63672 h 134.0918 v -9.0918 h -134.0918 v 0.002 c -42.02709,-0.27313 -79.27177,-37.51979 -79.54492,-79.54687 0.27315,-42.02708 37.51784,-79.27175 79.54492,-79.54492 42.02711,0.27315 79.2718,37.51781 79.54492,79.54492 v 25 h 9.0918 v -25 c -0.81947,-47.54138 -41.09532,-87.81726 -88.63672,-88.63672 z m 79.54492,213.63672 v 9.0918 h 9.0918 v -9.0918 z"
               transform="matrix(0.26458333,0,0,0.26458333,0,196.45832)"
               id="path1302" />
            <path
               inkscape:connector-curvature="0"
               style="opacity:1;fill:#d6d6d6;fill-opacity:0.8;fill-rule:nonzero;stroke:none;stroke-width:6.9784193;stroke-linecap:round;stroke-linejoin:miter;stroke-miterlimit:4;stroke-dasharray:none;stroke-dashoffset:0;stroke-opacity:1;paint-order:markers stroke fill"
               d="m -716.15625,82.025391 c -58.56997,1.912073 -104.90628,48.248379 -106.81836,106.818359 1.91207,58.56996 48.2484,104.90626 106.81836,106.81836 h 134.0918 v -9.08984 h -134.0918 c -53.05565,-1.36577 -96.3608,-44.67288 -97.72656,-97.72852 1.36576,-53.05564 44.67093,-96.360781 97.72656,-97.726562 53.05567,1.365765 96.36083,44.670882 97.72656,97.726562 v 25 h 9.0918 v -25 C -611.24997,130.27379 -657.58625,83.937471 -716.15625,82.025391 Z m 97.72656,231.818359 v 9.0918 h 9.0918 v -9.0918 z"
               transform="matrix(0.26458333,0,0,0.26458333,0,196.45832)"
               id="path1304" />
            <path
               inkscape:connector-curvature="0"
               style="opacity:1;fill:#d6d6d6;fill-opacity:0.8;fill-rule:nonzero;stroke:none;stroke-width:6.9784193;stroke-linecap:round;stroke-linejoin:miter;stroke-miterlimit:4;stroke-dasharray:none;stroke-dashoffset:0;stroke-opacity:1;paint-order:markers stroke fill"
               d="m -716.15625,63.84375 c -69.59855,3.004689 -121.99531,55.40145 -125,125 3.00469,69.59853 55.40147,121.99529 125,125 h 115.9082 v 9.0918 h 9.0918 v -9.0918 h 9.0918 v -9.08984 h -134.0918 c -64.08426,-2.45838 -113.45177,-51.82592 -115.91016,-115.91016 2.45839,-64.08424 51.82592,-113.449802 115.91016,-115.908203 64.08428,2.458384 113.44986,51.823903 115.9082,115.908203 v 25 h 9.0918 v -25 c -3.0047,-69.59854 -55.40142,-121.99531 -125,-125 z"
               transform="matrix(0.26458333,0,0,0.26458333,0,196.45832)"
               id="path1306" />
          </g>
          <g
             transform="rotate(90,-222.55592,213.35031)"
             id="g1322"
             style="fill:#d6d6d6;fill-opacity:0.8">
            <path
               inkscape:connector-curvature="0"
               id="path1310"
               transform="matrix(0.26458333,0,0,0.26458333,0,196.45832)"
               d="m -718.94922,154.57227 c -14.32932,0.45458 -33.60356,20.71937 -31.29883,34.27148 -2.45838,14.45558 19.63622,36.55017 34.0918,34.0918 h 134.0918 v -9.0918 h -100.00196 v -25 c 2.45839,-14.4556 -19.63425,-36.54823 -34.08984,-34.08984 -0.90347,-0.15365 -1.83768,-0.21195 -2.79297,-0.18164 z m 1.00586,8.95898 c 0.63005,0.0232 1.22828,0.12471 1.78711,0.3125 8.94127,-3.00469 28.00471,16.05874 25,25 v 25 h -25 c -8.94126,3.00469 -28.00469,-16.05873 -25,-25 -2.8169,-8.38244 13.76214,-25.66117 23.21289,-25.3125 z m 26.78711,150.3125 v 9.0918 h 9.08984 v -9.0918 z"
               style="opacity:1;fill:#d6d6d6;fill-opacity:0.8;fill-rule:nonzero;stroke:none;stroke-width:6.9784193;stroke-linecap:round;stroke-linejoin:miter;stroke-miterlimit:4;stroke-dasharray:none;stroke-dashoffset:0;stroke-opacity:1;paint-order:markers stroke fill" />
            <path
               inkscape:connector-curvature="0"
               id="path1312"
               transform="matrix(0.26458333,0,0,0.26458333,0,196.45832)"
               d="m -718.55273,136.5293 c -24.81903,0.43381 -51.20004,27.62664 -49.87696,52.31445 -1.36576,25.48418 26.78925,53.63919 52.27344,52.27344 h 134.0918 v -9.0918 h -134.0918 c -19.96987,1.91207 -45.09371,-23.21177 -43.18164,-43.18164 -1.91207,-19.96987 23.21177,-45.0937 43.18164,-43.18164 19.96988,-1.91208 45.09374,23.21176 43.18164,43.18164 v 25 h 9.0918 v -25 c 1.36576,-25.4842 -26.78924,-53.63725 -52.27344,-52.27148 -0.79638,-0.0427 -1.59587,-0.057 -2.39648,-0.043 z m 45.57812,177.31445 v 9.0918 h 9.0918 v -9.0918 z"
               style="opacity:1;fill:#d6d6d6;fill-opacity:0.8;fill-rule:nonzero;stroke:none;stroke-width:6.9784193;stroke-linecap:round;stroke-linejoin:miter;stroke-miterlimit:4;stroke-dasharray:none;stroke-dashoffset:0;stroke-opacity:1;paint-order:markers stroke fill" />
            <path
               inkscape:connector-curvature="0"
               id="path1314"
               transform="matrix(0.26458333,0,0,0.26458333,0,196.45832)"
               d="m -716.15625,118.38867 c -36.51277,-0.27315 -70.72823,33.94231 -70.45508,70.45508 -0.27315,36.51277 33.94231,70.72822 70.45508,70.45508 h 134.0918 v -9.0918 h -134.0918 c -30.99848,0.81946 -62.18274,-30.3648 -61.36328,-61.36328 -0.81946,-30.99848 30.3648,-62.18273 61.36328,-61.36328 30.9985,-0.81946 62.18277,30.36478 61.36328,61.36328 v 25 h 9.0918 v -25 c 0.27315,-36.51278 -33.94229,-70.72823 -70.45508,-70.45508 z m 61.36328,195.45508 v 9.0918 h 9.0918 v -9.0918 z"
               style="opacity:1;fill:#d6d6d6;fill-opacity:0.8;fill-rule:nonzero;stroke:none;stroke-width:6.9784193;stroke-linecap:round;stroke-linejoin:miter;stroke-miterlimit:4;stroke-dasharray:none;stroke-dashoffset:0;stroke-opacity:1;paint-order:markers stroke fill" />
            <path
               inkscape:connector-curvature="0"
               id="path1316"
               transform="matrix(0.26458333,0,0,0.26458333,0,196.45832)"
               d="m -716.15625,100.20703 c -47.54138,0.81946 -87.81726,41.09534 -88.63672,88.63672 0.81946,47.54137 41.09535,87.81724 88.63672,88.63672 h 134.0918 v -9.0918 h -134.0918 v 0.002 c -42.02709,-0.27313 -79.27177,-37.51979 -79.54492,-79.54687 0.27315,-42.02708 37.51784,-79.27175 79.54492,-79.54492 42.02711,0.27315 79.2718,37.51781 79.54492,79.54492 v 25 h 9.0918 v -25 c -0.81947,-47.54138 -41.09532,-87.81726 -88.63672,-88.63672 z m 79.54492,213.63672 v 9.0918 h 9.0918 v -9.0918 z"
               style="opacity:1;fill:#d6d6d6;fill-opacity:0.8;fill-rule:nonzero;stroke:none;stroke-width:6.9784193;stroke-linecap:round;stroke-linejoin:miter;stroke-miterlimit:4;stroke-dasharray:none;stroke-dashoffset:0;stroke-opacity:1;paint-order:markers stroke fill" />
            <path
               inkscape:connector-curvature="0"
               id="path1318"
               transform="matrix(0.26458333,0,0,0.26458333,0,196.45832)"
               d="m -716.15625,82.025391 c -58.56997,1.912073 -104.90628,48.248379 -106.81836,106.818359 1.91207,58.56996 48.2484,104.90626 106.81836,106.81836 h 134.0918 v -9.08984 h -134.0918 c -53.05565,-1.36577 -96.3608,-44.67288 -97.72656,-97.72852 1.36576,-53.05564 44.67093,-96.360781 97.72656,-97.726562 53.05567,1.365765 96.36083,44.670882 97.72656,97.726562 v 25 h 9.0918 v -25 C -611.24997,130.27379 -657.58625,83.937471 -716.15625,82.025391 Z m 97.72656,231.818359 v 9.0918 h 9.0918 v -9.0918 z"
               style="opacity:1;fill:#d6d6d6;fill-opacity:0.8;fill-rule:nonzero;stroke:none;stroke-width:6.9784193;stroke-linecap:round;stroke-linejoin:miter;stroke-miterlimit:4;stroke-dasharray:none;stroke-dashoffset:0;stroke-opacity:1;paint-order:markers stroke fill" />
            <path
               inkscape:connector-curvature="0"
               id="path1320"
               transform="matrix(0.26458333,0,0,0.26458333,0,196.45832)"
               d="m -716.15625,63.84375 c -69.59855,3.004689 -121.99531,55.40145 -125,125 3.00469,69.59853 55.40147,121.99529 125,125 h 115.9082 v 9.0918 h 9.0918 v -9.0918 h 9.0918 v -9.08984 h -134.0918 c -64.08426,-2.45838 -113.45177,-51.82592 -115.91016,-115.91016 2.45839,-64.08424 51.82592,-113.449802 115.91016,-115.908203 64.08428,2.458384 113.44986,51.823903 115.9082,115.908203 v 25 h 9.0918 v -25 c -3.0047,-69.59854 -55.40142,-121.99531 -125,-125 z"
               style="opacity:1;fill:#d6d6d6;fill-opacity:0.8;fill-rule:nonzero;stroke:none;stroke-width:6.9784193;stroke-linecap:round;stroke-linejoin:miter;stroke-miterlimit:4;stroke-dasharray:none;stroke-dashoffset:0;stroke-opacity:1;paint-order:markers stroke fill" />
          </g>
        </g>
        <g
           transform="rotate(-180,-198.23854,277.13918)"
           id="g1354"
           style="fill:#d6d6d6;fill-opacity:0.8">
          <g
             id="g1338"
             transform="translate(-137.10274)"
             style="fill:#d6d6d6;fill-opacity:0.8">
            <path
               id="path1326"
               transform="matrix(0.26458333,0,0,0.26458333,0,196.45832)"
               d="m -718.94922,154.57227 c -14.32932,0.45458 -33.60356,20.71937 -31.29883,34.27148 -2.45838,14.45558 19.63622,36.55017 34.0918,34.0918 h 134.0918 v -9.0918 h -100.00196 v -25 c 2.45839,-14.4556 -19.63425,-36.54823 -34.08984,-34.08984 -0.90347,-0.15365 -1.83768,-0.21195 -2.79297,-0.18164 z m 1.00586,8.95898 c 0.63005,0.0232 1.22828,0.12471 1.78711,0.3125 8.94127,-3.00469 28.00471,16.05874 25,25 v 25 h -25 c -8.94126,3.00469 -28.00469,-16.05873 -25,-25 -2.8169,-8.38244 13.76214,-25.66117 23.21289,-25.3125 z m 26.78711,150.3125 v 9.0918 h 9.08984 v -9.0918 z"
               style="opacity:1;fill:#d6d6d6;fill-opacity:0.8;fill-rule:nonzero;stroke:none;stroke-width:6.9784193;stroke-linecap:round;stroke-linejoin:miter;stroke-miterlimit:4;stroke-dasharray:none;stroke-dashoffset:0;stroke-opacity:1;paint-order:markers stroke fill"
               inkscape:connector-curvature="0" />
            <path
               id="path1328"
               transform="matrix(0.26458333,0,0,0.26458333,0,196.45832)"
               d="m -718.55273,136.5293 c -24.81903,0.43381 -51.20004,27.62664 -49.87696,52.31445 -1.36576,25.48418 26.78925,53.63919 52.27344,52.27344 h 134.0918 v -9.0918 h -134.0918 c -19.96987,1.91207 -45.09371,-23.21177 -43.18164,-43.18164 -1.91207,-19.96987 23.21177,-45.0937 43.18164,-43.18164 19.96988,-1.91208 45.09374,23.21176 43.18164,43.18164 v 25 h 9.0918 v -25 c 1.36576,-25.4842 -26.78924,-53.63725 -52.27344,-52.27148 -0.79638,-0.0427 -1.59587,-0.057 -2.39648,-0.043 z m 45.57812,177.31445 v 9.0918 h 9.0918 v -9.0918 z"
               style="opacity:1;fill:#d6d6d6;fill-opacity:0.8;fill-rule:nonzero;stroke:none;stroke-width:6.9784193;stroke-linecap:round;stroke-linejoin:miter;stroke-miterlimit:4;stroke-dasharray:none;stroke-dashoffset:0;stroke-opacity:1;paint-order:markers stroke fill"
               inkscape:connector-curvature="0" />
            <path
               id="path1330"
               transform="matrix(0.26458333,0,0,0.26458333,0,196.45832)"
               d="m -716.15625,118.38867 c -36.51277,-0.27315 -70.72823,33.94231 -70.45508,70.45508 -0.27315,36.51277 33.94231,70.72822 70.45508,70.45508 h 134.0918 v -9.0918 h -134.0918 c -30.99848,0.81946 -62.18274,-30.3648 -61.36328,-61.36328 -0.81946,-30.99848 30.3648,-62.18273 61.36328,-61.36328 30.9985,-0.81946 62.18277,30.36478 61.36328,61.36328 v 25 h 9.0918 v -25 c 0.27315,-36.51278 -33.94229,-70.72823 -70.45508,-70.45508 z m 61.36328,195.45508 v 9.0918 h 9.0918 v -9.0918 z"
               style="opacity:1;fill:#d6d6d6;fill-opacity:0.8;fill-rule:nonzero;stroke:none;stroke-width:6.9784193;stroke-linecap:round;stroke-linejoin:miter;stroke-miterlimit:4;stroke-dasharray:none;stroke-dashoffset:0;stroke-opacity:1;paint-order:markers stroke fill"
               inkscape:connector-curvature="0" />
            <path
               id="path1332"
               transform="matrix(0.26458333,0,0,0.26458333,0,196.45832)"
               d="m -716.15625,100.20703 c -47.54138,0.81946 -87.81726,41.09534 -88.63672,88.63672 0.81946,47.54137 41.09535,87.81724 88.63672,88.63672 h 134.0918 v -9.0918 h -134.0918 v 0.002 c -42.02709,-0.27313 -79.27177,-37.51979 -79.54492,-79.54687 0.27315,-42.02708 37.51784,-79.27175 79.54492,-79.54492 42.02711,0.27315 79.2718,37.51781 79.54492,79.54492 v 25 h 9.0918 v -25 c -0.81947,-47.54138 -41.09532,-87.81726 -88.63672,-88.63672 z m 79.54492,213.63672 v 9.0918 h 9.0918 v -9.0918 z"
               style="opacity:1;fill:#d6d6d6;fill-opacity:0.8;fill-rule:nonzero;stroke:none;stroke-width:6.9784193;stroke-linecap:round;stroke-linejoin:miter;stroke-miterlimit:4;stroke-dasharray:none;stroke-dashoffset:0;stroke-opacity:1;paint-order:markers stroke fill"
               inkscape:connector-curvature="0" />
            <path
               id="path1334"
               transform="matrix(0.26458333,0,0,0.26458333,0,196.45832)"
               d="m -716.15625,82.025391 c -58.56997,1.912073 -104.90628,48.248379 -106.81836,106.818359 1.91207,58.56996 48.2484,104.90626 106.81836,106.81836 h 134.0918 v -9.08984 h -134.0918 c -53.05565,-1.36577 -96.3608,-44.67288 -97.72656,-97.72852 1.36576,-53.05564 44.67093,-96.360781 97.72656,-97.726562 53.05567,1.365765 96.36083,44.670882 97.72656,97.726562 v 25 h 9.0918 v -25 C -611.24997,130.27379 -657.58625,83.937471 -716.15625,82.025391 Z m 97.72656,231.818359 v 9.0918 h 9.0918 v -9.0918 z"
               style="opacity:1;fill:#d6d6d6;fill-opacity:0.8;fill-rule:nonzero;stroke:none;stroke-width:6.9784193;stroke-linecap:round;stroke-linejoin:miter;stroke-miterlimit:4;stroke-dasharray:none;stroke-dashoffset:0;stroke-opacity:1;paint-order:markers stroke fill"
               inkscape:connector-curvature="0" />
            <path
               id="path1336"
               transform="matrix(0.26458333,0,0,0.26458333,0,196.45832)"
               d="m -716.15625,63.84375 c -69.59855,3.004689 -121.99531,55.40145 -125,125 3.00469,69.59853 55.40147,121.99529 125,125 h 115.9082 v 9.0918 h 9.0918 v -9.0918 h 9.0918 v -9.08984 h -134.0918 c -64.08426,-2.45838 -113.45177,-51.82592 -115.91016,-115.91016 2.45839,-64.08424 51.82592,-113.449802 115.91016,-115.908203 64.08428,2.458384 113.44986,51.823903 115.9082,115.908203 v 25 h 9.0918 v -25 c -3.0047,-69.59854 -55.40142,-121.99531 -125,-125 z"
               style="opacity:1;fill:#d6d6d6;fill-opacity:0.8;fill-rule:nonzero;stroke:none;stroke-width:6.9784193;stroke-linecap:round;stroke-linejoin:miter;stroke-miterlimit:4;stroke-dasharray:none;stroke-dashoffset:0;stroke-opacity:1;paint-order:markers stroke fill"
               inkscape:connector-curvature="0" />
          </g>
          <g
             id="g1352"
             transform="rotate(90,-222.55592,213.35031)"
             style="fill:#d6d6d6;fill-opacity:0.8">
            <path
               style="opacity:1;fill:#d6d6d6;fill-opacity:0.8;fill-rule:nonzero;stroke:none;stroke-width:6.9784193;stroke-linecap:round;stroke-linejoin:miter;stroke-miterlimit:4;stroke-dasharray:none;stroke-dashoffset:0;stroke-opacity:1;paint-order:markers stroke fill"
               d="m -718.94922,154.57227 c -14.32932,0.45458 -33.60356,20.71937 -31.29883,34.27148 -2.45838,14.45558 19.63622,36.55017 34.0918,34.0918 h 134.0918 v -9.0918 h -100.00196 v -25 c 2.45839,-14.4556 -19.63425,-36.54823 -34.08984,-34.08984 -0.90347,-0.15365 -1.83768,-0.21195 -2.79297,-0.18164 z m 1.00586,8.95898 c 0.63005,0.0232 1.22828,0.12471 1.78711,0.3125 8.94127,-3.00469 28.00471,16.05874 25,25 v 25 h -25 c -8.94126,3.00469 -28.00469,-16.05873 -25,-25 -2.8169,-8.38244 13.76214,-25.66117 23.21289,-25.3125 z m 26.78711,150.3125 v 9.0918 h 9.08984 v -9.0918 z"
               transform="matrix(0.26458333,0,0,0.26458333,0,196.45832)"
               id="path1340"
               inkscape:connector-curvature="0" />
            <path
               style="opacity:1;fill:#d6d6d6;fill-opacity:0.8;fill-rule:nonzero;stroke:none;stroke-width:6.9784193;stroke-linecap:round;stroke-linejoin:miter;stroke-miterlimit:4;stroke-dasharray:none;stroke-dashoffset:0;stroke-opacity:1;paint-order:markers stroke fill"
               d="m -718.55273,136.5293 c -24.81903,0.43381 -51.20004,27.62664 -49.87696,52.31445 -1.36576,25.48418 26.78925,53.63919 52.27344,52.27344 h 134.0918 v -9.0918 h -134.0918 c -19.96987,1.91207 -45.09371,-23.21177 -43.18164,-43.18164 -1.91207,-19.96987 23.21177,-45.0937 43.18164,-43.18164 19.96988,-1.91208 45.09374,23.21176 43.18164,43.18164 v 25 h 9.0918 v -25 c 1.36576,-25.4842 -26.78924,-53.63725 -52.27344,-52.27148 -0.79638,-0.0427 -1.59587,-0.057 -2.39648,-0.043 z m 45.57812,177.31445 v 9.0918 h 9.0918 v -9.0918 z"
               transform="matrix(0.26458333,0,0,0.26458333,0,196.45832)"
               id="path1342"
               inkscape:connector-curvature="0" />
            <path
               style="opacity:1;fill:#d6d6d6;fill-opacity:0.8;fill-rule:nonzero;stroke:none;stroke-width:6.9784193;stroke-linecap:round;stroke-linejoin:miter;stroke-miterlimit:4;stroke-dasharray:none;stroke-dashoffset:0;stroke-opacity:1;paint-order:markers stroke fill"
               d="m -716.15625,118.38867 c -36.51277,-0.27315 -70.72823,33.94231 -70.45508,70.45508 -0.27315,36.51277 33.94231,70.72822 70.45508,70.45508 h 134.0918 v -9.0918 h -134.0918 c -30.99848,0.81946 -62.18274,-30.3648 -61.36328,-61.36328 -0.81946,-30.99848 30.3648,-62.18273 61.36328,-61.36328 30.9985,-0.81946 62.18277,30.36478 61.36328,61.36328 v 25 h 9.0918 v -25 c 0.27315,-36.51278 -33.94229,-70.72823 -70.45508,-70.45508 z m 61.36328,195.45508 v 9.0918 h 9.0918 v -9.0918 z"
               transform="matrix(0.26458333,0,0,0.26458333,0,196.45832)"
               id="path1344"
               inkscape:connector-curvature="0" />
            <path
               style="opacity:1;fill:#d6d6d6;fill-opacity:0.8;fill-rule:nonzero;stroke:none;stroke-width:6.9784193;stroke-linecap:round;stroke-linejoin:miter;stroke-miterlimit:4;stroke-dasharray:none;stroke-dashoffset:0;stroke-opacity:1;paint-order:markers stroke fill"
               d="m -716.15625,100.20703 c -47.54138,0.81946 -87.81726,41.09534 -88.63672,88.63672 0.81946,47.54137 41.09535,87.81724 88.63672,88.63672 h 134.0918 v -9.0918 h -134.0918 v 0.002 c -42.02709,-0.27313 -79.27177,-37.51979 -79.54492,-79.54687 0.27315,-42.02708 37.51784,-79.27175 79.54492,-79.54492 42.02711,0.27315 79.2718,37.51781 79.54492,79.54492 v 25 h 9.0918 v -25 c -0.81947,-47.54138 -41.09532,-87.81726 -88.63672,-88.63672 z m 79.54492,213.63672 v 9.0918 h 9.0918 v -9.0918 z"
               transform="matrix(0.26458333,0,0,0.26458333,0,196.45832)"
               id="path1346"
               inkscape:connector-curvature="0" />
            <path
               style="opacity:1;fill:#d6d6d6;fill-opacity:0.8;fill-rule:nonzero;stroke:none;stroke-width:6.9784193;stroke-linecap:round;stroke-linejoin:miter;stroke-miterlimit:4;stroke-dasharray:none;stroke-dashoffset:0;stroke-opacity:1;paint-order:markers stroke fill"
               d="m -716.15625,82.025391 c -58.56997,1.912073 -104.90628,48.248379 -106.81836,106.818359 1.91207,58.56996 48.2484,104.90626 106.81836,106.81836 h 134.0918 v -9.08984 h -134.0918 c -53.05565,-1.36577 -96.3608,-44.67288 -97.72656,-97.72852 1.36576,-53.05564 44.67093,-96.360781 97.72656,-97.726562 53.05567,1.365765 96.36083,44.670882 97.72656,97.726562 v 25 h 9.0918 v -25 C -611.24997,130.27379 -657.58625,83.937471 -716.15625,82.025391 Z m 97.72656,231.818359 v 9.0918 h 9.0918 v -9.0918 z"
               transform="matrix(0.26458333,0,0,0.26458333,0,196.45832)"
               id="path1348"
               inkscape:connector-curvature="0" />
            <path
               style="opacity:1;fill:#d6d6d6;fill-opacity:0.8;fill-rule:nonzero;stroke:none;stroke-width:6.9784193;stroke-linecap:round;stroke-linejoin:miter;stroke-miterlimit:4;stroke-dasharray:none;stroke-dashoffset:0;stroke-opacity:1;paint-order:markers stroke fill"
               d="m -716.15625,63.84375 c -69.59855,3.004689 -121.99531,55.40145 -125,125 3.00469,69.59853 55.40147,121.99529 125,125 h 115.9082 v 9.0918 h 9.0918 v -9.0918 h 9.0918 v -9.08984 h -134.0918 c -64.08426,-2.45838 -113.45177,-51.82592 -115.91016,-115.91016 2.45839,-64.08424 51.82592,-113.449802 115.91016,-115.908203 64.08428,2.458384 113.44986,51.823903 115.9082,115.908203 v 25 h 9.0918 v -25 c -3.0047,-69.59854 -55.40142,-121.99531 -125,-125 z"
               transform="matrix(0.26458333,0,0,0.26458333,0,196.45832)"
               id="path1350"
               inkscape:connector-curvature="0" />
          </g>
        </g>
      </g>
    </g>
    <path
       style="opacity:0;fill:#41a8ff;fill-opacity:1;fill-rule:evenodd;stroke:none;stroke-width:0.31157902;stroke-miterlimit:4;stroke-dasharray:none;stroke-opacity:1"
       d="m 3.4110228,227.11692 h 7.6643102 v 61.35026 H 3.4110228 Z"
       id="rect860-8-4"
       inkscape:connector-curvature="0" />
    <path
       style="opacity:0;fill:#0198ad;fill-opacity:1;fill-rule:evenodd;stroke:none;stroke-width:0.31157911;stroke-miterlimit:4;stroke-dasharray:none;stroke-opacity:1"
       d="m 13.961283,227.11692 h 7.664311 v 61.35026 h -7.664311 z"
       id="rect860-8"
       inkscape:connector-curvature="0" />
    <path
       style="opacity:0;fill:#4c12bf;fill-opacity:1;fill-rule:evenodd;stroke:none;stroke-width:0.31157908;stroke-miterlimit:4;stroke-dasharray:none;stroke-opacity:1"
       d="m 24.553517,227.12237 h 7.664311 v 61.35026 h -7.664311 z"
       id="rect860"
       inkscape:connector-curvature="0" />
    <g
       aria-label="MULT"
       style="font-style:normal;font-weight:normal;font-size:10.58333302px;line-height:1.25;font-family:sans-serif;letter-spacing:0px;word-spacing:0px;fill:#010101;fill-opacity:1;stroke:none;stroke-width:0.26458332"
       id="text905"
       transform="matrix(1.7271198,0,0,1.7271198,-14.748352,-145.05518)">
      <path
         d="m 15.987906,198.44415 h 0.485069 l 0.245291,0.90261 0.243913,-0.90261 h 0.487825 v 2.05741 h -0.350022 v -1.64814 l -0.21773,0.89986 h -0.323839 l -0.220486,-0.89986 v 1.64814 h -0.350021 z"
         style="font-style:normal;font-variant:normal;font-weight:bold;font-stretch:normal;font-size:2.82222223px;font-family:'DejaVu Sans Mono';-inkscape-font-specification:'DejaVu Sans Mono Bold';fill:#010101;fill-opacity:1;stroke-width:0.26458332"
         id="path907"
         inkscape:connector-curvature="0" />
      <path
         d="m 17.713209,199.74226 v -1.29811 h 0.406522 v 1.40008 q 0,0.15434 0.07855,0.24254 0.07855,0.0868 0.21773,0.0868 0.139182,0 0.21773,-0.0868 0.07855,-0.0882 0.07855,-0.24254 v -1.40008 h 0.406521 v 1.29811 q 0,0.41892 -0.166742,0.60909 -0.166743,0.19017 -0.536057,0.19017 -0.367936,0 -0.536057,-0.19017 -0.166743,-0.19017 -0.166743,-0.60909 z"
         style="font-style:normal;font-variant:normal;font-weight:bold;font-stretch:normal;font-size:2.82222223px;font-family:'DejaVu Sans Mono';-inkscape-font-specification:'DejaVu Sans Mono Bold';fill:#010101;fill-opacity:1;stroke-width:0.26458332"
         id="path909"
         inkscape:connector-curvature="0" />
      <path
         d="m 19.574939,200.50156 v -2.05741 h 0.406521 v 1.69912 h 0.869542 v 0.35829 z"
         style="font-style:normal;font-variant:normal;font-weight:bold;font-stretch:normal;font-size:2.82222223px;font-family:'DejaVu Sans Mono';-inkscape-font-specification:'DejaVu Sans Mono Bold';fill:#010101;fill-opacity:1;stroke-width:0.26458332"
         id="path911"
         inkscape:connector-curvature="0" />
      <path
         d="m 22.015445,200.50156 h -0.406521 v -1.70188 h -0.522277 v -0.35553 h 1.451074 v 0.35553 h -0.522276 z"
         style="font-style:normal;font-variant:normal;font-weight:bold;font-stretch:normal;font-size:2.82222223px;font-family:'DejaVu Sans Mono';-inkscape-font-specification:'DejaVu Sans Mono Bold';fill:#010101;fill-opacity:1;stroke-width:0.26458332"
         id="path913"
         inkscape:connector-curvature="0" />
    </g>
    <path
       style="opacity:0;fill:#7c98b7;fill-opacity:1;fill-rule:evenodd;stroke:none;stroke-width:0.33343506;stroke-miterlimit:4;stroke-dasharray:none;stroke-opacity:1"
       d="M 3.4074385,201.96635 H 32.212712 v 18.69404 H 3.4074385 Z"
       id="rect860-8-2"
       inkscape:connector-curvature="0" />
    <g
       aria-label="+"
       style="font-style:normal;font-weight:normal;font-size:10.58333302px;line-height:1.25;font-family:sans-serif;letter-spacing:0px;word-spacing:0px;fill:#000000;fill-opacity:1;stroke:none;stroke-width:0.26458332"
       id="text846">
      <path
         d="m 4.3322786,222.4216 v 0.59256 H 4.924835 v 0.32797 H 4.3322786 v 0.59531 H 4.0056835 v -0.59531 H 3.410371 v -0.32797 h 0.5953125 v -0.59256 z"
         style="font-style:normal;font-variant:normal;font-weight:bold;font-stretch:normal;font-size:2.82222223px;line-height:0;font-family:'DejaVu Sans Mono';-inkscape-font-specification:'DejaVu Sans Mono Bold';text-align:center;letter-spacing:0px;text-anchor:middle;stroke-width:0.26458332"
         id="path943"
         inkscape:connector-curvature="0" />
    </g>
    <g
       aria-label="-"
       transform="scale(1.5120872,0.66133753)"
       style="font-style:normal;font-weight:normal;font-size:12.26988316px;line-height:1.25;font-family:sans-serif;letter-spacing:0px;word-spacing:0px;fill:#000000;fill-opacity:1;stroke:none;stroke-width:0.30674705"
       id="text846-4">
      <path
         d="m 2.2470108,339.5696 h 1.0081115 v 0.46491 H 2.2470108 Z"
         style="font-style:normal;font-variant:normal;font-weight:bold;font-stretch:normal;font-size:3.27196884px;line-height:0;font-family:'DejaVu Sans Mono';-inkscape-font-specification:'DejaVu Sans Mono Bold';text-align:center;letter-spacing:0px;text-anchor:middle;stroke-width:0.30674705"
         id="path940"
         inkscape:connector-curvature="0" />
    </g>
    <g
       aria-label="+"
       style="font-style:normal;font-weight:normal;font-size:10.58333302px;line-height:1.25;font-family:sans-serif;letter-spacing:0px;word-spacing:0px;fill:#000000;fill-opacity:1;stroke:none;stroke-width:0.26458332"
       id="text846-3">
      <path
         d="m 14.908389,222.42226 v 0.59256 h 0.592557 v 0.32797 h -0.592557 v 0.59531 h -0.326595 v -0.59531 h -0.595312 v -0.32797 h 0.595312 v -0.59256 z"
         style="font-style:normal;font-variant:normal;font-weight:bold;font-stretch:normal;font-size:2.82222223px;line-height:0;font-family:'DejaVu Sans Mono';-inkscape-font-specification:'DejaVu Sans Mono Bold';text-align:center;letter-spacing:0px;text-anchor:middle;stroke-width:0.26458332"
         id="path937"
         inkscape:connector-curvature="0" />
    </g>
    <g
       aria-label="-"
       transform="scale(1.5120872,0.66133753)"
       style="font-style:normal;font-weight:normal;font-size:12.26988316px;line-height:1.25;font-family:sans-serif;letter-spacing:0px;word-spacing:0px;fill:#000000;fill-opacity:1;stroke:none;stroke-width:0.30674708"
       id="text846-4-4">
      <path
         d="m 9.2413901,339.57058 h 1.0081119 v 0.46491 H 9.2413901 Z"
         style="font-style:normal;font-variant:normal;font-weight:bold;font-stretch:normal;font-size:3.27196884px;line-height:0;font-family:'DejaVu Sans Mono';-inkscape-font-specification:'DejaVu Sans Mono Bold';text-align:center;letter-spacing:0px;text-anchor:middle;stroke-width:0.30674708"
         id="path934"
         inkscape:connector-curvature="0" />
    </g>
    <g
       aria-label="+"
       style="font-style:normal;font-weight:normal;font-size:10.58333302px;line-height:1.25;font-family:sans-serif;letter-spacing:0px;word-spacing:0px;fill:#000000;fill-opacity:1;stroke:none;stroke-width:0.26458332"
       id="text846-5">
      <path
         d="m 25.474728,222.4216 v 0.59256 h 0.592556 v 0.32797 h -0.592556 v 0.59531 h -0.326595 v -0.59531 H 24.55282 v -0.32797 h 0.595313 v -0.59256 z"
         style="font-style:normal;font-variant:normal;font-weight:bold;font-stretch:normal;font-size:2.82222223px;line-height:0;font-family:'DejaVu Sans Mono';-inkscape-font-specification:'DejaVu Sans Mono Bold';text-align:center;letter-spacing:0px;text-anchor:middle;stroke-width:0.26458332"
         id="path931"
         inkscape:connector-curvature="0" />
    </g>
    <g
       aria-label="-"
       transform="scale(1.5120872,0.66133753)"
       style="font-style:normal;font-weight:normal;font-size:12.26988316px;line-height:1.25;font-family:sans-serif;letter-spacing:0px;word-spacing:0px;fill:#000000;fill-opacity:1;stroke:none;stroke-width:0.30674708"
       id="text846-4-9">
      <path
         d="m 16.229306,339.5696 h 1.008112 v 0.46491 h -1.008112 z"
         style="font-style:normal;font-variant:normal;font-weight:bold;font-stretch:normal;font-size:3.27196884px;line-height:0;font-family:'DejaVu Sans Mono';-inkscape-font-specification:'DejaVu Sans Mono Bold';text-align:center;letter-spacing:0px;text-anchor:middle;stroke-width:0.30674708"
         id="path928"
         inkscape:connector-curvature="0" />
    </g>
    <g
       transform="translate(3.88316,42.158783)"
       id="g11422">
      <g
         id="g11299"
         transform="matrix(0.09780609,-0.09780609,0.09780609,0.09780609,-77.785739,173.75917)">
        <g
           id="g11297">
          <g
             id="g11265"
             transform="translate(185.73646,-9.5250064)">
            <g
               transform="translate(-137.10274)"
               id="g11249">
              <path
                 inkscape:connector-curvature="0"
                 style="opacity:1;fill:#5320a5;fill-opacity:1;fill-rule:nonzero;stroke:none;stroke-width:6.9784193;stroke-linecap:round;stroke-linejoin:miter;stroke-miterlimit:4;stroke-dasharray:none;stroke-dashoffset:0;stroke-opacity:1;paint-order:markers stroke fill"
                 d="m -718.94922,154.57227 c -14.32932,0.45458 -33.60356,20.71937 -31.29883,34.27148 -2.45838,14.45558 19.63622,36.55017 34.0918,34.0918 h 134.0918 v -9.0918 h -100.00196 v -25 c 2.45839,-14.4556 -19.63425,-36.54823 -34.08984,-34.08984 -0.90347,-0.15365 -1.83768,-0.21195 -2.79297,-0.18164 z m 1.00586,8.95898 c 0.63005,0.0232 1.22828,0.12471 1.78711,0.3125 8.94127,-3.00469 28.00471,16.05874 25,25 v 25 h -25 c -8.94126,3.00469 -28.00469,-16.05873 -25,-25 -2.8169,-8.38244 13.76214,-25.66117 23.21289,-25.3125 z m 26.78711,150.3125 v 9.0918 h 9.08984 v -9.0918 z"
                 transform="matrix(0.26458333,0,0,0.26458333,0,196.45832)"
                 id="path11237" />
              <path
                 inkscape:connector-curvature="0"
                 style="opacity:1;fill:#4545b5;fill-opacity:1;fill-rule:nonzero;stroke:none;stroke-width:6.9784193;stroke-linecap:round;stroke-linejoin:miter;stroke-miterlimit:4;stroke-dasharray:none;stroke-dashoffset:0;stroke-opacity:1;paint-order:markers stroke fill"
                 d="m -718.55273,136.5293 c -24.81903,0.43381 -51.20004,27.62664 -49.87696,52.31445 -1.36576,25.48418 26.78925,53.63919 52.27344,52.27344 h 134.0918 v -9.0918 h -134.0918 c -19.96987,1.91207 -45.09371,-23.21177 -43.18164,-43.18164 -1.91207,-19.96987 23.21177,-45.0937 43.18164,-43.18164 19.96988,-1.91208 45.09374,23.21176 43.18164,43.18164 v 25 h 9.0918 v -25 c 1.36576,-25.4842 -26.78924,-53.63725 -52.27344,-52.27148 -0.79638,-0.0427 -1.59587,-0.057 -2.39648,-0.043 z m 45.57812,177.31445 v 9.0918 h 9.0918 v -9.0918 z"
                 transform="matrix(0.26458333,0,0,0.26458333,0,196.45832)"
                 id="path11239" />
              <path
                 inkscape:connector-curvature="0"
                 style="opacity:1;fill:#6c8ada;fill-opacity:1;fill-rule:nonzero;stroke:none;stroke-width:6.9784193;stroke-linecap:round;stroke-linejoin:miter;stroke-miterlimit:4;stroke-dasharray:none;stroke-dashoffset:0;stroke-opacity:1;paint-order:markers stroke fill"
                 d="m -716.15625,118.38867 c -36.51277,-0.27315 -70.72823,33.94231 -70.45508,70.45508 -0.27315,36.51277 33.94231,70.72822 70.45508,70.45508 h 134.0918 v -9.0918 h -134.0918 c -30.99848,0.81946 -62.18274,-30.3648 -61.36328,-61.36328 -0.81946,-30.99848 30.3648,-62.18273 61.36328,-61.36328 30.9985,-0.81946 62.18277,30.36478 61.36328,61.36328 v 25 h 9.0918 v -25 c 0.27315,-36.51278 -33.94229,-70.72823 -70.45508,-70.45508 z m 61.36328,195.45508 v 9.0918 h 9.0918 v -9.0918 z"
                 transform="matrix(0.26458333,0,0,0.26458333,0,196.45832)"
                 id="path11241" />
              <path
                 inkscape:connector-curvature="0"
                 style="opacity:1;fill:#38d8d8;fill-opacity:1;fill-rule:nonzero;stroke:none;stroke-width:6.9784193;stroke-linecap:round;stroke-linejoin:miter;stroke-miterlimit:4;stroke-dasharray:none;stroke-dashoffset:0;stroke-opacity:1;paint-order:markers stroke fill"
                 d="m -716.15625,100.20703 c -47.54138,0.81946 -87.81726,41.09534 -88.63672,88.63672 0.81946,47.54137 41.09535,87.81724 88.63672,88.63672 h 134.0918 v -9.0918 h -134.0918 v 0.002 c -42.02709,-0.27313 -79.27177,-37.51979 -79.54492,-79.54687 0.27315,-42.02708 37.51784,-79.27175 79.54492,-79.54492 42.02711,0.27315 79.2718,37.51781 79.54492,79.54492 v 25 h 9.0918 v -25 c -0.81947,-47.54138 -41.09532,-87.81726 -88.63672,-88.63672 z m 79.54492,213.63672 v 9.0918 h 9.0918 v -9.0918 z"
                 transform="matrix(0.26458333,0,0,0.26458333,0,196.45832)"
                 id="path11243" />
              <path
                 inkscape:connector-curvature="0"
                 style="opacity:1;fill:#3545d3;fill-opacity:1;fill-rule:nonzero;stroke:none;stroke-width:6.9784193;stroke-linecap:round;stroke-linejoin:miter;stroke-miterlimit:4;stroke-dasharray:none;stroke-dashoffset:0;stroke-opacity:1;paint-order:markers stroke fill"
                 d="m -716.15625,82.025391 c -58.56997,1.912073 -104.90628,48.248379 -106.81836,106.818359 1.91207,58.56996 48.2484,104.90626 106.81836,106.81836 h 134.0918 v -9.08984 h -134.0918 c -53.05565,-1.36577 -96.3608,-44.67288 -97.72656,-97.72852 1.36576,-53.05564 44.67093,-96.360781 97.72656,-97.726562 53.05567,1.365765 96.36083,44.670882 97.72656,97.726562 v 25 h 9.0918 v -25 C -611.24997,130.27379 -657.58625,83.937471 -716.15625,82.025391 Z m 97.72656,231.818359 v 9.0918 h 9.0918 v -9.0918 z"
                 transform="matrix(0.26458333,0,0,0.26458333,0,196.45832)"
                 id="path11245" />
              <path
                 inkscape:connector-curvature="0"
                 style="opacity:1;fill:#5320a5;fill-opacity:1;fill-rule:nonzero;stroke:none;stroke-width:6.9784193;stroke-linecap:round;stroke-linejoin:miter;stroke-miterlimit:4;stroke-dasharray:none;stroke-dashoffset:0;stroke-opacity:1;paint-order:markers stroke fill"
                 d="m -716.15625,63.84375 c -69.59855,3.004689 -121.99531,55.40145 -125,125 3.00469,69.59853 55.40147,121.99529 125,125 h 115.9082 v 9.0918 h 9.0918 v -9.0918 h 9.0918 v -9.08984 h -134.0918 c -64.08426,-2.45838 -113.45177,-51.82592 -115.91016,-115.91016 2.45839,-64.08424 51.82592,-113.449802 115.91016,-115.908203 64.08428,2.458384 113.44986,51.823903 115.9082,115.908203 v 25 h 9.0918 v -25 c -3.0047,-69.59854 -55.40142,-121.99531 -125,-125 z"
                 transform="matrix(0.26458333,0,0,0.26458333,0,196.45832)"
                 id="path11247" />
            </g>
            <g
               transform="rotate(90,-222.55592,213.35031)"
               id="g11263">
              <path
                 inkscape:connector-curvature="0"
                 id="path11251"
                 transform="matrix(0.26458333,0,0,0.26458333,0,196.45832)"
                 d="m -718.94922,154.57227 c -14.32932,0.45458 -33.60356,20.71937 -31.29883,34.27148 -2.45838,14.45558 19.63622,36.55017 34.0918,34.0918 h 134.0918 v -9.0918 h -100.00196 v -25 c 2.45839,-14.4556 -19.63425,-36.54823 -34.08984,-34.08984 -0.90347,-0.15365 -1.83768,-0.21195 -2.79297,-0.18164 z m 1.00586,8.95898 c 0.63005,0.0232 1.22828,0.12471 1.78711,0.3125 8.94127,-3.00469 28.00471,16.05874 25,25 v 25 h -25 c -8.94126,3.00469 -28.00469,-16.05873 -25,-25 -2.8169,-8.38244 13.76214,-25.66117 23.21289,-25.3125 z m 26.78711,150.3125 v 9.0918 h 9.08984 v -9.0918 z"
                 style="opacity:1;fill:#5320a5;fill-opacity:1;fill-rule:nonzero;stroke:none;stroke-width:6.9784193;stroke-linecap:round;stroke-linejoin:miter;stroke-miterlimit:4;stroke-dasharray:none;stroke-dashoffset:0;stroke-opacity:1;paint-order:markers stroke fill" />
              <path
                 inkscape:connector-curvature="0"
                 id="path11253"
                 transform="matrix(0.26458333,0,0,0.26458333,0,196.45832)"
                 d="m -718.55273,136.5293 c -24.81903,0.43381 -51.20004,27.62664 -49.87696,52.31445 -1.36576,25.48418 26.78925,53.63919 52.27344,52.27344 h 134.0918 v -9.0918 h -134.0918 c -19.96987,1.91207 -45.09371,-23.21177 -43.18164,-43.18164 -1.91207,-19.96987 23.21177,-45.0937 43.18164,-43.18164 19.96988,-1.91208 45.09374,23.21176 43.18164,43.18164 v 25 h 9.0918 v -25 c 1.36576,-25.4842 -26.78924,-53.63725 -52.27344,-52.27148 -0.79638,-0.0427 -1.59587,-0.057 -2.39648,-0.043 z m 45.57812,177.31445 v 9.0918 h 9.0918 v -9.0918 z"
                 style="opacity:1;fill:#4545b5;fill-opacity:1;fill-rule:nonzero;stroke:none;stroke-width:6.9784193;stroke-linecap:round;stroke-linejoin:miter;stroke-miterlimit:4;stroke-dasharray:none;stroke-dashoffset:0;stroke-opacity:1;paint-order:markers stroke fill" />
              <path
                 inkscape:connector-curvature="0"
                 id="path11255"
                 transform="matrix(0.26458333,0,0,0.26458333,0,196.45832)"
                 d="m -716.15625,118.38867 c -36.51277,-0.27315 -70.72823,33.94231 -70.45508,70.45508 -0.27315,36.51277 33.94231,70.72822 70.45508,70.45508 h 134.0918 v -9.0918 h -134.0918 c -30.99848,0.81946 -62.18274,-30.3648 -61.36328,-61.36328 -0.81946,-30.99848 30.3648,-62.18273 61.36328,-61.36328 30.9985,-0.81946 62.18277,30.36478 61.36328,61.36328 v 25 h 9.0918 v -25 c 0.27315,-36.51278 -33.94229,-70.72823 -70.45508,-70.45508 z m 61.36328,195.45508 v 9.0918 h 9.0918 v -9.0918 z"
                 style="opacity:1;fill:#6c8ada;fill-opacity:1;fill-rule:nonzero;stroke:none;stroke-width:6.9784193;stroke-linecap:round;stroke-linejoin:miter;stroke-miterlimit:4;stroke-dasharray:none;stroke-dashoffset:0;stroke-opacity:1;paint-order:markers stroke fill" />
              <path
                 inkscape:connector-curvature="0"
                 id="path11257"
                 transform="matrix(0.26458333,0,0,0.26458333,0,196.45832)"
                 d="m -716.15625,100.20703 c -47.54138,0.81946 -87.81726,41.09534 -88.63672,88.63672 0.81946,47.54137 41.09535,87.81724 88.63672,88.63672 h 134.0918 v -9.0918 h -134.0918 v 0.002 c -42.02709,-0.27313 -79.27177,-37.51979 -79.54492,-79.54687 0.27315,-42.02708 37.51784,-79.27175 79.54492,-79.54492 42.02711,0.27315 79.2718,37.51781 79.54492,79.54492 v 25 h 9.0918 v -25 c -0.81947,-47.54138 -41.09532,-87.81726 -88.63672,-88.63672 z m 79.54492,213.63672 v 9.0918 h 9.0918 v -9.0918 z"
                 style="opacity:1;fill:#38d8d8;fill-opacity:1;fill-rule:nonzero;stroke:none;stroke-width:6.9784193;stroke-linecap:round;stroke-linejoin:miter;stroke-miterlimit:4;stroke-dasharray:none;stroke-dashoffset:0;stroke-opacity:1;paint-order:markers stroke fill" />
              <path
                 inkscape:connector-curvature="0"
                 id="path11259"
                 transform="matrix(0.26458333,0,0,0.26458333,0,196.45832)"
                 d="m -716.15625,82.025391 c -58.56997,1.912073 -104.90628,48.248379 -106.81836,106.818359 1.91207,58.56996 48.2484,104.90626 106.81836,106.81836 h 134.0918 v -9.08984 h -134.0918 c -53.05565,-1.36577 -96.3608,-44.67288 -97.72656,-97.72852 1.36576,-53.05564 44.67093,-96.360781 97.72656,-97.726562 53.05567,1.365765 96.36083,44.670882 97.72656,97.726562 v 25 h 9.0918 v -25 C -611.24997,130.27379 -657.58625,83.937471 -716.15625,82.025391 Z m 97.72656,231.818359 v 9.0918 h 9.0918 v -9.0918 z"
                 style="opacity:1;fill:#3545d3;fill-opacity:1;fill-rule:nonzero;stroke:none;stroke-width:6.9784193;stroke-linecap:round;stroke-linejoin:miter;stroke-miterlimit:4;stroke-dasharray:none;stroke-dashoffset:0;stroke-opacity:1;paint-order:markers stroke fill" />
              <path
                 inkscape:connector-curvature="0"
                 id="path11261"
                 transform="matrix(0.26458333,0,0,0.26458333,0,196.45832)"
                 d="m -716.15625,63.84375 c -69.59855,3.004689 -121.99531,55.40145 -125,125 3.00469,69.59853 55.40147,121.99529 125,125 h 115.9082 v 9.0918 h 9.0918 v -9.0918 h 9.0918 v -9.08984 h -134.0918 c -64.08426,-2.45838 -113.45177,-51.82592 -115.91016,-115.91016 2.45839,-64.08424 51.82592,-113.449802 115.91016,-115.908203 64.08428,2.458384 113.44986,51.823903 115.9082,115.908203 v 25 h 9.0918 v -25 c -3.0047,-69.59854 -55.40142,-121.99531 -125,-125 z"
                 style="opacity:1;fill:#5320a5;fill-opacity:1;fill-rule:nonzero;stroke:none;stroke-width:6.9784193;stroke-linecap:round;stroke-linejoin:miter;stroke-miterlimit:4;stroke-dasharray:none;stroke-dashoffset:0;stroke-opacity:1;paint-order:markers stroke fill" />
            </g>
          </g>
          <g
             transform="rotate(-180,-198.23854,277.13918)"
             id="g11295">
            <g
               id="g11279"
               transform="translate(-137.10274)">
              <path
                 id="path11267"
                 transform="matrix(0.26458333,0,0,0.26458333,0,196.45832)"
                 d="m -718.94922,154.57227 c -14.32932,0.45458 -33.60356,20.71937 -31.29883,34.27148 -2.45838,14.45558 19.63622,36.55017 34.0918,34.0918 h 134.0918 v -9.0918 h -100.00196 v -25 c 2.45839,-14.4556 -19.63425,-36.54823 -34.08984,-34.08984 -0.90347,-0.15365 -1.83768,-0.21195 -2.79297,-0.18164 z m 1.00586,8.95898 c 0.63005,0.0232 1.22828,0.12471 1.78711,0.3125 8.94127,-3.00469 28.00471,16.05874 25,25 v 25 h -25 c -8.94126,3.00469 -28.00469,-16.05873 -25,-25 -2.8169,-8.38244 13.76214,-25.66117 23.21289,-25.3125 z m 26.78711,150.3125 v 9.0918 h 9.08984 v -9.0918 z"
                 style="opacity:1;fill:#5320a5;fill-opacity:1;fill-rule:nonzero;stroke:none;stroke-width:6.9784193;stroke-linecap:round;stroke-linejoin:miter;stroke-miterlimit:4;stroke-dasharray:none;stroke-dashoffset:0;stroke-opacity:1;paint-order:markers stroke fill"
                 inkscape:connector-curvature="0" />
              <path
                 id="path11269"
                 transform="matrix(0.26458333,0,0,0.26458333,0,196.45832)"
                 d="m -718.55273,136.5293 c -24.81903,0.43381 -51.20004,27.62664 -49.87696,52.31445 -1.36576,25.48418 26.78925,53.63919 52.27344,52.27344 h 134.0918 v -9.0918 h -134.0918 c -19.96987,1.91207 -45.09371,-23.21177 -43.18164,-43.18164 -1.91207,-19.96987 23.21177,-45.0937 43.18164,-43.18164 19.96988,-1.91208 45.09374,23.21176 43.18164,43.18164 v 25 h 9.0918 v -25 c 1.36576,-25.4842 -26.78924,-53.63725 -52.27344,-52.27148 -0.79638,-0.0427 -1.59587,-0.057 -2.39648,-0.043 z m 45.57812,177.31445 v 9.0918 h 9.0918 v -9.0918 z"
                 style="opacity:1;fill:#4545b5;fill-opacity:1;fill-rule:nonzero;stroke:none;stroke-width:6.9784193;stroke-linecap:round;stroke-linejoin:miter;stroke-miterlimit:4;stroke-dasharray:none;stroke-dashoffset:0;stroke-opacity:1;paint-order:markers stroke fill"
                 inkscape:connector-curvature="0" />
              <path
                 id="path11271"
                 transform="matrix(0.26458333,0,0,0.26458333,0,196.45832)"
                 d="m -716.15625,118.38867 c -36.51277,-0.27315 -70.72823,33.94231 -70.45508,70.45508 -0.27315,36.51277 33.94231,70.72822 70.45508,70.45508 h 134.0918 v -9.0918 h -134.0918 c -30.99848,0.81946 -62.18274,-30.3648 -61.36328,-61.36328 -0.81946,-30.99848 30.3648,-62.18273 61.36328,-61.36328 30.9985,-0.81946 62.18277,30.36478 61.36328,61.36328 v 25 h 9.0918 v -25 c 0.27315,-36.51278 -33.94229,-70.72823 -70.45508,-70.45508 z m 61.36328,195.45508 v 9.0918 h 9.0918 v -9.0918 z"
                 style="opacity:1;fill:#6c8ada;fill-opacity:1;fill-rule:nonzero;stroke:none;stroke-width:6.9784193;stroke-linecap:round;stroke-linejoin:miter;stroke-miterlimit:4;stroke-dasharray:none;stroke-dashoffset:0;stroke-opacity:1;paint-order:markers stroke fill"
                 inkscape:connector-curvature="0" />
              <path
                 id="path11273"
                 transform="matrix(0.26458333,0,0,0.26458333,0,196.45832)"
                 d="m -716.15625,100.20703 c -47.54138,0.81946 -87.81726,41.09534 -88.63672,88.63672 0.81946,47.54137 41.09535,87.81724 88.63672,88.63672 h 134.0918 v -9.0918 h -134.0918 v 0.002 c -42.02709,-0.27313 -79.27177,-37.51979 -79.54492,-79.54687 0.27315,-42.02708 37.51784,-79.27175 79.54492,-79.54492 42.02711,0.27315 79.2718,37.51781 79.54492,79.54492 v 25 h 9.0918 v -25 c -0.81947,-47.54138 -41.09532,-87.81726 -88.63672,-88.63672 z m 79.54492,213.63672 v 9.0918 h 9.0918 v -9.0918 z"
                 style="opacity:1;fill:#38d8d8;fill-opacity:1;fill-rule:nonzero;stroke:none;stroke-width:6.9784193;stroke-linecap:round;stroke-linejoin:miter;stroke-miterlimit:4;stroke-dasharray:none;stroke-dashoffset:0;stroke-opacity:1;paint-order:markers stroke fill"
                 inkscape:connector-curvature="0" />
              <path
                 id="path11275"
                 transform="matrix(0.26458333,0,0,0.26458333,0,196.45832)"
                 d="m -716.15625,82.025391 c -58.56997,1.912073 -104.90628,48.248379 -106.81836,106.818359 1.91207,58.56996 48.2484,104.90626 106.81836,106.81836 h 134.0918 v -9.08984 h -134.0918 c -53.05565,-1.36577 -96.3608,-44.67288 -97.72656,-97.72852 1.36576,-53.05564 44.67093,-96.360781 97.72656,-97.726562 53.05567,1.365765 96.36083,44.670882 97.72656,97.726562 v 25 h 9.0918 v -25 C -611.24997,130.27379 -657.58625,83.937471 -716.15625,82.025391 Z m 97.72656,231.818359 v 9.0918 h 9.0918 v -9.0918 z"
                 style="opacity:1;fill:#3545d3;fill-opacity:1;fill-rule:nonzero;stroke:none;stroke-width:6.9784193;stroke-linecap:round;stroke-linejoin:miter;stroke-miterlimit:4;stroke-dasharray:none;stroke-dashoffset:0;stroke-opacity:1;paint-order:markers stroke fill"
                 inkscape:connector-curvature="0" />
              <path
                 id="path11277"
                 transform="matrix(0.26458333,0,0,0.26458333,0,196.45832)"
                 d="m -716.15625,63.84375 c -69.59855,3.004689 -121.99531,55.40145 -125,125 3.00469,69.59853 55.40147,121.99529 125,125 h 115.9082 v 9.0918 h 9.0918 v -9.0918 h 9.0918 v -9.08984 h -134.0918 c -64.08426,-2.45838 -113.45177,-51.82592 -115.91016,-115.91016 2.45839,-64.08424 51.82592,-113.449802 115.91016,-115.908203 64.08428,2.458384 113.44986,51.823903 115.9082,115.908203 v 25 h 9.0918 v -25 c -3.0047,-69.59854 -55.40142,-121.99531 -125,-125 z"
                 style="opacity:1;fill:#5320a5;fill-opacity:1;fill-rule:nonzero;stroke:none;stroke-width:6.9784193;stroke-linecap:round;stroke-linejoin:miter;stroke-miterlimit:4;stroke-dasharray:none;stroke-dashoffset:0;stroke-opacity:1;paint-order:markers stroke fill"
                 inkscape:connector-curvature="0" />
            </g>
            <g
               id="g11293"
               transform="rotate(90,-222.55592,213.35031)">
              <path
                 style="opacity:1;fill:#5320a5;fill-opacity:1;fill-rule:nonzero;stroke:none;stroke-width:6.9784193;stroke-linecap:round;stroke-linejoin:miter;stroke-miterlimit:4;stroke-dasharray:none;stroke-dashoffset:0;stroke-opacity:1;paint-order:markers stroke fill"
                 d="m -718.94922,154.57227 c -14.32932,0.45458 -33.60356,20.71937 -31.29883,34.27148 -2.45838,14.45558 19.63622,36.55017 34.0918,34.0918 h 134.0918 v -9.0918 h -100.00196 v -25 c 2.45839,-14.4556 -19.63425,-36.54823 -34.08984,-34.08984 -0.90347,-0.15365 -1.83768,-0.21195 -2.79297,-0.18164 z m 1.00586,8.95898 c 0.63005,0.0232 1.22828,0.12471 1.78711,0.3125 8.94127,-3.00469 28.00471,16.05874 25,25 v 25 h -25 c -8.94126,3.00469 -28.00469,-16.05873 -25,-25 -2.8169,-8.38244 13.76214,-25.66117 23.21289,-25.3125 z m 26.78711,150.3125 v 9.0918 h 9.08984 v -9.0918 z"
                 transform="matrix(0.26458333,0,0,0.26458333,0,196.45832)"
                 id="path11281"
                 inkscape:connector-curvature="0" />
              <path
                 style="opacity:1;fill:#4545b5;fill-opacity:1;fill-rule:nonzero;stroke:none;stroke-width:6.9784193;stroke-linecap:round;stroke-linejoin:miter;stroke-miterlimit:4;stroke-dasharray:none;stroke-dashoffset:0;stroke-opacity:1;paint-order:markers stroke fill"
                 d="m -718.55273,136.5293 c -24.81903,0.43381 -51.20004,27.62664 -49.87696,52.31445 -1.36576,25.48418 26.78925,53.63919 52.27344,52.27344 h 134.0918 v -9.0918 h -134.0918 c -19.96987,1.91207 -45.09371,-23.21177 -43.18164,-43.18164 -1.91207,-19.96987 23.21177,-45.0937 43.18164,-43.18164 19.96988,-1.91208 45.09374,23.21176 43.18164,43.18164 v 25 h 9.0918 v -25 c 1.36576,-25.4842 -26.78924,-53.63725 -52.27344,-52.27148 -0.79638,-0.0427 -1.59587,-0.057 -2.39648,-0.043 z m 45.57812,177.31445 v 9.0918 h 9.0918 v -9.0918 z"
                 transform="matrix(0.26458333,0,0,0.26458333,0,196.45832)"
                 id="path11283"
                 inkscape:connector-curvature="0" />
              <path
                 style="opacity:1;fill:#6c8ada;fill-opacity:1;fill-rule:nonzero;stroke:none;stroke-width:6.9784193;stroke-linecap:round;stroke-linejoin:miter;stroke-miterlimit:4;stroke-dasharray:none;stroke-dashoffset:0;stroke-opacity:1;paint-order:markers stroke fill"
                 d="m -716.15625,118.38867 c -36.51277,-0.27315 -70.72823,33.94231 -70.45508,70.45508 -0.27315,36.51277 33.94231,70.72822 70.45508,70.45508 h 134.0918 v -9.0918 h -134.0918 c -30.99848,0.81946 -62.18274,-30.3648 -61.36328,-61.36328 -0.81946,-30.99848 30.3648,-62.18273 61.36328,-61.36328 30.9985,-0.81946 62.18277,30.36478 61.36328,61.36328 v 25 h 9.0918 v -25 c 0.27315,-36.51278 -33.94229,-70.72823 -70.45508,-70.45508 z m 61.36328,195.45508 v 9.0918 h 9.0918 v -9.0918 z"
                 transform="matrix(0.26458333,0,0,0.26458333,0,196.45832)"
                 id="path11285"
                 inkscape:connector-curvature="0" />
              <path
                 style="opacity:1;fill:#38d8d8;fill-opacity:1;fill-rule:nonzero;stroke:none;stroke-width:6.9784193;stroke-linecap:round;stroke-linejoin:miter;stroke-miterlimit:4;stroke-dasharray:none;stroke-dashoffset:0;stroke-opacity:1;paint-order:markers stroke fill"
                 d="m -716.15625,100.20703 c -47.54138,0.81946 -87.81726,41.09534 -88.63672,88.63672 0.81946,47.54137 41.09535,87.81724 88.63672,88.63672 h 134.0918 v -9.0918 h -134.0918 v 0.002 c -42.02709,-0.27313 -79.27177,-37.51979 -79.54492,-79.54687 0.27315,-42.02708 37.51784,-79.27175 79.54492,-79.54492 42.02711,0.27315 79.2718,37.51781 79.54492,79.54492 v 25 h 9.0918 v -25 c -0.81947,-47.54138 -41.09532,-87.81726 -88.63672,-88.63672 z m 79.54492,213.63672 v 9.0918 h 9.0918 v -9.0918 z"
                 transform="matrix(0.26458333,0,0,0.26458333,0,196.45832)"
                 id="path11287"
                 inkscape:connector-curvature="0" />
              <path
                 style="opacity:1;fill:#3545d3;fill-opacity:1;fill-rule:nonzero;stroke:none;stroke-width:6.9784193;stroke-linecap:round;stroke-linejoin:miter;stroke-miterlimit:4;stroke-dasharray:none;stroke-dashoffset:0;stroke-opacity:1;paint-order:markers stroke fill"
                 d="m -716.15625,82.025391 c -58.56997,1.912073 -104.90628,48.248379 -106.81836,106.818359 1.91207,58.56996 48.2484,104.90626 106.81836,106.81836 h 134.0918 v -9.08984 h -134.0918 c -53.05565,-1.36577 -96.3608,-44.67288 -97.72656,-97.72852 1.36576,-53.05564 44.67093,-96.360781 97.72656,-97.726562 53.05567,1.365765 96.36083,44.670882 97.72656,97.726562 v 25 h 9.0918 v -25 C -611.24997,130.27379 -657.58625,83.937471 -716.15625,82.025391 Z m 97.72656,231.818359 v 9.0918 h 9.0918 v -9.0918 z"
                 transform="matrix(0.26458333,0,0,0.26458333,0,196.45832)"
                 id="path11289"
                 inkscape:connector-curvature="0" />
              <path
                 style="opacity:1;fill:#5320a5;fill-opacity:1;fill-rule:nonzero;stroke:none;stroke-width:6.9784193;stroke-linecap:round;stroke-linejoin:miter;stroke-miterlimit:4;stroke-dasharray:none;stroke-dashoffset:0;stroke-opacity:1;paint-order:markers stroke fill"
                 d="m -716.15625,63.84375 c -69.59855,3.004689 -121.99531,55.40145 -125,125 3.00469,69.59853 55.40147,121.99529 125,125 h 115.9082 v 9.0918 h 9.0918 v -9.0918 h 9.0918 v -9.08984 h -134.0918 c -64.08426,-2.45838 -113.45177,-51.82592 -115.91016,-115.91016 2.45839,-64.08424 51.82592,-113.449802 115.91016,-115.908203 64.08428,2.458384 113.44986,51.823903 115.9082,115.908203 v 25 h 9.0918 v -25 c -3.0047,-69.59854 -55.40142,-121.99531 -125,-125 z"
                 transform="matrix(0.26458333,0,0,0.26458333,0,196.45832)"
                 id="path11291"
                 inkscape:connector-curvature="0" />
            </g>
          </g>
        </g>
      </g>
      <g
         id="g11309"
         transform="matrix(0.76073678,0,0,0.76073678,-59.283826,96.518245)">
        <text
           id="text11303"
           y="176.34999"
           x="-18.25625"
           style="font-style:normal;font-weight:normal;font-size:10.58333302px;line-height:1.25;font-family:sans-serif;letter-spacing:0px;word-spacing:0px;fill:#000000;fill-opacity:1;stroke:none;stroke-width:0.26458332"
           xml:space="preserve"><tspan
             style="font-style:normal;font-variant:normal;font-weight:normal;font-stretch:normal;font-family:Strasua;-inkscape-font-specification:Strasua;stroke-width:0.26458332"
             y="176.34999"
             x="-18.25625"
             id="tspan11301"
             sodipodi:role="line">MS</tspan></text>
        <text
           transform="scale(-1,1)"
           xml:space="preserve"
           style="font-style:normal;font-weight:normal;font-size:10.58333302px;line-height:1.25;font-family:sans-serif;letter-spacing:0px;word-spacing:0px;fill:#000000;fill-opacity:1;stroke:none;stroke-width:0.26458332"
           x="-12.557372"
           y="176.34824"
           id="text11307"><tspan
             sodipodi:role="line"
             id="tspan11305"
             x="-12.557372"
             y="176.34824"
             style="font-style:normal;font-variant:normal;font-weight:normal;font-stretch:normal;font-family:Strasua;-inkscape-font-specification:Strasua;stroke-width:0.26458332">M</tspan></text>
      </g>
    </g>
    <g
       id="g11383"
       transform="matrix(0.30621269,0,0,0.30621269,19.439738,241.56654)">
      <g
         id="text11377"
         style="font-style:normal;font-weight:normal;font-size:10.58333302px;line-height:1.25;font-family:sans-serif;letter-spacing:0px;word-spacing:0px;fill:#000000;fill-opacity:1;stroke:none;stroke-width:0.26458332"
         aria-label="MS">
        <path
           inkscape:connector-curvature="0"
           id="path1141"
           style="font-style:normal;font-variant:normal;font-weight:normal;font-stretch:normal;font-family:Strasua;-inkscape-font-specification:Strasua;stroke-width:0.26458332"
           d="m -13.102167,168.46541 q 0.148166,-0.23284 0.370416,-0.32809 0.22225,-0.10583 0.455084,-0.10583 0.275166,0 0.4445,0.20108 0.169333,0.1905 0.169333,0.51859 v 5.02708 l 3.5348333,-5.31283 q 0.1481667,-0.23284 0.3598333,-0.32809 0.22225,-0.10583 0.4656667,-0.10583 0.2751666,0 0.4445,0.20108 0.1693333,0.1905 0.1693333,0.51859 v 7.59883 h -1.4393333 v -5.57742 l -3.2173333,5.08 q -0.179917,0.28575 -0.391583,0.39159 -0.211667,0.10583 -0.433917,0.10583 -0.1905,0 -0.359833,-0.0635 -0.169334,-0.0741 -0.296334,-0.20108 -0.127,-0.127 -0.201083,-0.29634 -0.07408,-0.16933 -0.07408,-0.381 v -4.6355 l -3.534833,5.57742 h -1.7145 z" />
        <path
           inkscape:connector-curvature="0"
           id="path1143"
           style="font-style:normal;font-variant:normal;font-weight:normal;font-stretch:normal;font-family:Strasua;-inkscape-font-specification:Strasua;stroke-width:0.26458332"
           d="m -5.7073936,176.34999 v -1.43933 h 2.8892499 q 0.66675,0 1.1006666,-0.3175 0.4339167,-0.3175 0.4339167,-0.8255 0,-0.254 -0.1164167,-0.46567 -0.1164167,-0.21167 -0.3175,-0.35983 -0.2010833,-0.15875 -0.4868333,-0.24342 -0.28575,-0.0847 -0.6138333,-0.0847 h -0.6561667 q -0.5079999,0 -0.9419166,-0.15875 -0.4339167,-0.16933 -0.7514166,-0.46566 -0.3175,-0.30692 -0.4974167,-0.70909 -0.1799167,-0.41275 -0.1799167,-0.91016 0,-0.48684 0.1799167,-0.89959 0.1905,-0.41275 0.5291667,-0.71966 0.3386666,-0.30692 0.8149166,-0.47625 0.47625,-0.17992 1.04775,-0.17992 h 2.74108322 v 1.43933 H -3.3473104 q -0.4550833,0 -0.7196666,0.254 -0.2645833,0.24342 -0.2645833,0.59267 0,0.381 0.2645833,0.635 0.2751666,0.254 0.7196666,0.254 h 0.8149167 q 0.5503333,0 1.0159999,0.1905 0.4656667,0.17992 0.80433336,0.51858 0.33866665,0.33867 0.52916665,0.80434 0.19049999,0.46566 0.19049999,1.016 0,0.56091 -0.20108333,1.02658 -0.20108332,0.46567 -0.58208331,0.80433 -0.37041666,0.33867 -0.88899996,0.52917 -0.5185833,0.1905 -1.1535833,0.1905 z" />
      </g>
      <g
         id="text11381"
         style="font-style:normal;font-weight:normal;font-size:10.58333302px;line-height:1.25;font-family:sans-serif;letter-spacing:0px;word-spacing:0px;fill:#000000;fill-opacity:1;stroke:none;stroke-width:0.26458332"
         transform="scale(-1,1)"
         aria-label="M">
        <path
           inkscape:connector-curvature="0"
           id="path1146"
           style="font-style:normal;font-variant:normal;font-weight:normal;font-stretch:normal;font-family:Strasua;-inkscape-font-specification:Strasua;stroke-width:0.26458332"
           d="m -7.4032889,168.46365 q 0.1481666,-0.23283 0.3704166,-0.32808 0.22225,-0.10583 0.4550834,-0.10583 0.2751666,0 0.4444999,0.20108 0.1693334,0.1905 0.1693334,0.51858 v 5.02709 l 3.5348332,-5.31284 q 0.1481667,-0.23283 0.3598333,-0.32808 0.22225,-0.10583 0.4656667,-0.10583 0.2751666,0 0.4445,0.20108 0.16933329,0.1905 0.16933329,0.51858 v 7.59884 H -2.4291224 v -5.57742 l -3.2173332,5.08 q -0.1799167,0.28575 -0.3915834,0.39158 -0.2116666,0.10584 -0.4339166,0.10584 -0.1905,0 -0.3598333,-0.0635 -0.1693334,-0.0741 -0.2963334,-0.20109 -0.127,-0.127 -0.2010833,-0.29633 -0.074083,-0.16933 -0.074083,-0.381 v -4.6355 l -3.5348334,5.57742 h -1.7145 z" />
      </g>
    </g>
    <g
       transform="matrix(0.09780609,-0.09780609,0.09780609,0.09780609,-116.96557,221.34218)"
       id="g11621">
      <g
         id="g11619">
        <g
           transform="translate(185.73646,-9.5250064)"
           id="g11587">
          <g
             id="g11571"
             transform="translate(-137.10274)">
            <path
               id="path11559"
               transform="matrix(0.26458333,0,0,0.26458333,0,196.45832)"
               d="m -718.94922,154.57227 c -14.32932,0.45458 -33.60356,20.71937 -31.29883,34.27148 -2.45838,14.45558 19.63622,36.55017 34.0918,34.0918 h 134.0918 v -9.0918 h -100.00196 v -25 c 2.45839,-14.4556 -19.63425,-36.54823 -34.08984,-34.08984 -0.90347,-0.15365 -1.83768,-0.21195 -2.79297,-0.18164 z m 1.00586,8.95898 c 0.63005,0.0232 1.22828,0.12471 1.78711,0.3125 8.94127,-3.00469 28.00471,16.05874 25,25 v 25 h -25 c -8.94126,3.00469 -28.00469,-16.05873 -25,-25 -2.8169,-8.38244 13.76214,-25.66117 23.21289,-25.3125 z m 26.78711,150.3125 v 9.0918 h 9.08984 v -9.0918 z"
               style="opacity:1;fill:#5320a5;fill-opacity:1;fill-rule:nonzero;stroke:none;stroke-width:6.9784193;stroke-linecap:round;stroke-linejoin:miter;stroke-miterlimit:4;stroke-dasharray:none;stroke-dashoffset:0;stroke-opacity:1;paint-order:markers stroke fill"
               inkscape:connector-curvature="0" />
            <path
               id="path11561"
               transform="matrix(0.26458333,0,0,0.26458333,0,196.45832)"
               d="m -718.55273,136.5293 c -24.81903,0.43381 -51.20004,27.62664 -49.87696,52.31445 -1.36576,25.48418 26.78925,53.63919 52.27344,52.27344 h 134.0918 v -9.0918 h -134.0918 c -19.96987,1.91207 -45.09371,-23.21177 -43.18164,-43.18164 -1.91207,-19.96987 23.21177,-45.0937 43.18164,-43.18164 19.96988,-1.91208 45.09374,23.21176 43.18164,43.18164 v 25 h 9.0918 v -25 c 1.36576,-25.4842 -26.78924,-53.63725 -52.27344,-52.27148 -0.79638,-0.0427 -1.59587,-0.057 -2.39648,-0.043 z m 45.57812,177.31445 v 9.0918 h 9.0918 v -9.0918 z"
               style="opacity:1;fill:#4545b5;fill-opacity:1;fill-rule:nonzero;stroke:none;stroke-width:6.9784193;stroke-linecap:round;stroke-linejoin:miter;stroke-miterlimit:4;stroke-dasharray:none;stroke-dashoffset:0;stroke-opacity:1;paint-order:markers stroke fill"
               inkscape:connector-curvature="0" />
            <path
               id="path11563"
               transform="matrix(0.26458333,0,0,0.26458333,0,196.45832)"
               d="m -716.15625,118.38867 c -36.51277,-0.27315 -70.72823,33.94231 -70.45508,70.45508 -0.27315,36.51277 33.94231,70.72822 70.45508,70.45508 h 134.0918 v -9.0918 h -134.0918 c -30.99848,0.81946 -62.18274,-30.3648 -61.36328,-61.36328 -0.81946,-30.99848 30.3648,-62.18273 61.36328,-61.36328 30.9985,-0.81946 62.18277,30.36478 61.36328,61.36328 v 25 h 9.0918 v -25 c 0.27315,-36.51278 -33.94229,-70.72823 -70.45508,-70.45508 z m 61.36328,195.45508 v 9.0918 h 9.0918 v -9.0918 z"
               style="opacity:1;fill:#6c8ada;fill-opacity:1;fill-rule:nonzero;stroke:none;stroke-width:6.9784193;stroke-linecap:round;stroke-linejoin:miter;stroke-miterlimit:4;stroke-dasharray:none;stroke-dashoffset:0;stroke-opacity:1;paint-order:markers stroke fill"
               inkscape:connector-curvature="0" />
            <path
               id="path11565"
               transform="matrix(0.26458333,0,0,0.26458333,0,196.45832)"
               d="m -716.15625,100.20703 c -47.54138,0.81946 -87.81726,41.09534 -88.63672,88.63672 0.81946,47.54137 41.09535,87.81724 88.63672,88.63672 h 134.0918 v -9.0918 h -134.0918 v 0.002 c -42.02709,-0.27313 -79.27177,-37.51979 -79.54492,-79.54687 0.27315,-42.02708 37.51784,-79.27175 79.54492,-79.54492 42.02711,0.27315 79.2718,37.51781 79.54492,79.54492 v 25 h 9.0918 v -25 c -0.81947,-47.54138 -41.09532,-87.81726 -88.63672,-88.63672 z m 79.54492,213.63672 v 9.0918 h 9.0918 v -9.0918 z"
               style="opacity:1;fill:#38d8d8;fill-opacity:1;fill-rule:nonzero;stroke:none;stroke-width:6.9784193;stroke-linecap:round;stroke-linejoin:miter;stroke-miterlimit:4;stroke-dasharray:none;stroke-dashoffset:0;stroke-opacity:1;paint-order:markers stroke fill"
               inkscape:connector-curvature="0" />
            <path
               id="path11567"
               transform="matrix(0.26458333,0,0,0.26458333,0,196.45832)"
               d="m -716.15625,82.025391 c -58.56997,1.912073 -104.90628,48.248379 -106.81836,106.818359 1.91207,58.56996 48.2484,104.90626 106.81836,106.81836 h 134.0918 v -9.08984 h -134.0918 c -53.05565,-1.36577 -96.3608,-44.67288 -97.72656,-97.72852 1.36576,-53.05564 44.67093,-96.360781 97.72656,-97.726562 53.05567,1.365765 96.36083,44.670882 97.72656,97.726562 v 25 h 9.0918 v -25 C -611.24997,130.27379 -657.58625,83.937471 -716.15625,82.025391 Z m 97.72656,231.818359 v 9.0918 h 9.0918 v -9.0918 z"
               style="opacity:1;fill:#3545d3;fill-opacity:1;fill-rule:nonzero;stroke:none;stroke-width:6.9784193;stroke-linecap:round;stroke-linejoin:miter;stroke-miterlimit:4;stroke-dasharray:none;stroke-dashoffset:0;stroke-opacity:1;paint-order:markers stroke fill"
               inkscape:connector-curvature="0" />
            <path
               id="path11569"
               transform="matrix(0.26458333,0,0,0.26458333,0,196.45832)"
               d="m -716.15625,63.84375 c -69.59855,3.004689 -121.99531,55.40145 -125,125 3.00469,69.59853 55.40147,121.99529 125,125 h 115.9082 v 9.0918 h 9.0918 v -9.0918 h 9.0918 v -9.08984 h -134.0918 c -64.08426,-2.45838 -113.45177,-51.82592 -115.91016,-115.91016 2.45839,-64.08424 51.82592,-113.449802 115.91016,-115.908203 64.08428,2.458384 113.44986,51.823903 115.9082,115.908203 v 25 h 9.0918 v -25 c -3.0047,-69.59854 -55.40142,-121.99531 -125,-125 z"
               style="opacity:1;fill:#5320a5;fill-opacity:1;fill-rule:nonzero;stroke:none;stroke-width:6.9784193;stroke-linecap:round;stroke-linejoin:miter;stroke-miterlimit:4;stroke-dasharray:none;stroke-dashoffset:0;stroke-opacity:1;paint-order:markers stroke fill"
               inkscape:connector-curvature="0" />
          </g>
          <g
             id="g11585"
             transform="rotate(90,-222.55592,213.35031)">
            <path
               style="opacity:1;fill:#5320a5;fill-opacity:1;fill-rule:nonzero;stroke:none;stroke-width:6.9784193;stroke-linecap:round;stroke-linejoin:miter;stroke-miterlimit:4;stroke-dasharray:none;stroke-dashoffset:0;stroke-opacity:1;paint-order:markers stroke fill"
               d="m -718.94922,154.57227 c -14.32932,0.45458 -33.60356,20.71937 -31.29883,34.27148 -2.45838,14.45558 19.63622,36.55017 34.0918,34.0918 h 134.0918 v -9.0918 h -100.00196 v -25 c 2.45839,-14.4556 -19.63425,-36.54823 -34.08984,-34.08984 -0.90347,-0.15365 -1.83768,-0.21195 -2.79297,-0.18164 z m 1.00586,8.95898 c 0.63005,0.0232 1.22828,0.12471 1.78711,0.3125 8.94127,-3.00469 28.00471,16.05874 25,25 v 25 h -25 c -8.94126,3.00469 -28.00469,-16.05873 -25,-25 -2.8169,-8.38244 13.76214,-25.66117 23.21289,-25.3125 z m 26.78711,150.3125 v 9.0918 h 9.08984 v -9.0918 z"
               transform="matrix(0.26458333,0,0,0.26458333,0,196.45832)"
               id="path11573"
               inkscape:connector-curvature="0" />
            <path
               style="opacity:1;fill:#4545b5;fill-opacity:1;fill-rule:nonzero;stroke:none;stroke-width:6.9784193;stroke-linecap:round;stroke-linejoin:miter;stroke-miterlimit:4;stroke-dasharray:none;stroke-dashoffset:0;stroke-opacity:1;paint-order:markers stroke fill"
               d="m -718.55273,136.5293 c -24.81903,0.43381 -51.20004,27.62664 -49.87696,52.31445 -1.36576,25.48418 26.78925,53.63919 52.27344,52.27344 h 134.0918 v -9.0918 h -134.0918 c -19.96987,1.91207 -45.09371,-23.21177 -43.18164,-43.18164 -1.91207,-19.96987 23.21177,-45.0937 43.18164,-43.18164 19.96988,-1.91208 45.09374,23.21176 43.18164,43.18164 v 25 h 9.0918 v -25 c 1.36576,-25.4842 -26.78924,-53.63725 -52.27344,-52.27148 -0.79638,-0.0427 -1.59587,-0.057 -2.39648,-0.043 z m 45.57812,177.31445 v 9.0918 h 9.0918 v -9.0918 z"
               transform="matrix(0.26458333,0,0,0.26458333,0,196.45832)"
               id="path11575"
               inkscape:connector-curvature="0" />
            <path
               style="opacity:1;fill:#6c8ada;fill-opacity:1;fill-rule:nonzero;stroke:none;stroke-width:6.9784193;stroke-linecap:round;stroke-linejoin:miter;stroke-miterlimit:4;stroke-dasharray:none;stroke-dashoffset:0;stroke-opacity:1;paint-order:markers stroke fill"
               d="m -716.15625,118.38867 c -36.51277,-0.27315 -70.72823,33.94231 -70.45508,70.45508 -0.27315,36.51277 33.94231,70.72822 70.45508,70.45508 h 134.0918 v -9.0918 h -134.0918 c -30.99848,0.81946 -62.18274,-30.3648 -61.36328,-61.36328 -0.81946,-30.99848 30.3648,-62.18273 61.36328,-61.36328 30.9985,-0.81946 62.18277,30.36478 61.36328,61.36328 v 25 h 9.0918 v -25 c 0.27315,-36.51278 -33.94229,-70.72823 -70.45508,-70.45508 z m 61.36328,195.45508 v 9.0918 h 9.0918 v -9.0918 z"
               transform="matrix(0.26458333,0,0,0.26458333,0,196.45832)"
               id="path11577"
               inkscape:connector-curvature="0" />
            <path
               style="opacity:1;fill:#38d8d8;fill-opacity:1;fill-rule:nonzero;stroke:none;stroke-width:6.9784193;stroke-linecap:round;stroke-linejoin:miter;stroke-miterlimit:4;stroke-dasharray:none;stroke-dashoffset:0;stroke-opacity:1;paint-order:markers stroke fill"
               d="m -716.15625,100.20703 c -47.54138,0.81946 -87.81726,41.09534 -88.63672,88.63672 0.81946,47.54137 41.09535,87.81724 88.63672,88.63672 h 134.0918 v -9.0918 h -134.0918 v 0.002 c -42.02709,-0.27313 -79.27177,-37.51979 -79.54492,-79.54687 0.27315,-42.02708 37.51784,-79.27175 79.54492,-79.54492 42.02711,0.27315 79.2718,37.51781 79.54492,79.54492 v 25 h 9.0918 v -25 c -0.81947,-47.54138 -41.09532,-87.81726 -88.63672,-88.63672 z m 79.54492,213.63672 v 9.0918 h 9.0918 v -9.0918 z"
               transform="matrix(0.26458333,0,0,0.26458333,0,196.45832)"
               id="path11579"
               inkscape:connector-curvature="0" />
            <path
               style="opacity:1;fill:#3545d3;fill-opacity:1;fill-rule:nonzero;stroke:none;stroke-width:6.9784193;stroke-linecap:round;stroke-linejoin:miter;stroke-miterlimit:4;stroke-dasharray:none;stroke-dashoffset:0;stroke-opacity:1;paint-order:markers stroke fill"
               d="m -716.15625,82.025391 c -58.56997,1.912073 -104.90628,48.248379 -106.81836,106.818359 1.91207,58.56996 48.2484,104.90626 106.81836,106.81836 h 134.0918 v -9.08984 h -134.0918 c -53.05565,-1.36577 -96.3608,-44.67288 -97.72656,-97.72852 1.36576,-53.05564 44.67093,-96.360781 97.72656,-97.726562 53.05567,1.365765 96.36083,44.670882 97.72656,97.726562 v 25 h 9.0918 v -25 C -611.24997,130.27379 -657.58625,83.937471 -716.15625,82.025391 Z m 97.72656,231.818359 v 9.0918 h 9.0918 v -9.0918 z"
               transform="matrix(0.26458333,0,0,0.26458333,0,196.45832)"
               id="path11581"
               inkscape:connector-curvature="0" />
            <path
               style="opacity:1;fill:#5320a5;fill-opacity:1;fill-rule:nonzero;stroke:none;stroke-width:6.9784193;stroke-linecap:round;stroke-linejoin:miter;stroke-miterlimit:4;stroke-dasharray:none;stroke-dashoffset:0;stroke-opacity:1;paint-order:markers stroke fill"
               d="m -716.15625,63.84375 c -69.59855,3.004689 -121.99531,55.40145 -125,125 3.00469,69.59853 55.40147,121.99529 125,125 h 115.9082 v 9.0918 h 9.0918 v -9.0918 h 9.0918 v -9.08984 h -134.0918 c -64.08426,-2.45838 -113.45177,-51.82592 -115.91016,-115.91016 2.45839,-64.08424 51.82592,-113.449802 115.91016,-115.908203 64.08428,2.458384 113.44986,51.823903 115.9082,115.908203 v 25 h 9.0918 v -25 c -3.0047,-69.59854 -55.40142,-121.99531 -125,-125 z"
               transform="matrix(0.26458333,0,0,0.26458333,0,196.45832)"
               id="path11583"
               inkscape:connector-curvature="0" />
          </g>
        </g>
        <g
           id="g11617"
           transform="rotate(-180,-198.23854,277.13918)">
          <g
             transform="translate(-137.10274)"
             id="g11601">
            <path
               inkscape:connector-curvature="0"
               style="opacity:1;fill:#5320a5;fill-opacity:1;fill-rule:nonzero;stroke:none;stroke-width:6.9784193;stroke-linecap:round;stroke-linejoin:miter;stroke-miterlimit:4;stroke-dasharray:none;stroke-dashoffset:0;stroke-opacity:1;paint-order:markers stroke fill"
               d="m -718.94922,154.57227 c -14.32932,0.45458 -33.60356,20.71937 -31.29883,34.27148 -2.45838,14.45558 19.63622,36.55017 34.0918,34.0918 h 134.0918 v -9.0918 h -100.00196 v -25 c 2.45839,-14.4556 -19.63425,-36.54823 -34.08984,-34.08984 -0.90347,-0.15365 -1.83768,-0.21195 -2.79297,-0.18164 z m 1.00586,8.95898 c 0.63005,0.0232 1.22828,0.12471 1.78711,0.3125 8.94127,-3.00469 28.00471,16.05874 25,25 v 25 h -25 c -8.94126,3.00469 -28.00469,-16.05873 -25,-25 -2.8169,-8.38244 13.76214,-25.66117 23.21289,-25.3125 z m 26.78711,150.3125 v 9.0918 h 9.08984 v -9.0918 z"
               transform="matrix(0.26458333,0,0,0.26458333,0,196.45832)"
               id="path11589" />
            <path
               inkscape:connector-curvature="0"
               style="opacity:1;fill:#4545b5;fill-opacity:1;fill-rule:nonzero;stroke:none;stroke-width:6.9784193;stroke-linecap:round;stroke-linejoin:miter;stroke-miterlimit:4;stroke-dasharray:none;stroke-dashoffset:0;stroke-opacity:1;paint-order:markers stroke fill"
               d="m -718.55273,136.5293 c -24.81903,0.43381 -51.20004,27.62664 -49.87696,52.31445 -1.36576,25.48418 26.78925,53.63919 52.27344,52.27344 h 134.0918 v -9.0918 h -134.0918 c -19.96987,1.91207 -45.09371,-23.21177 -43.18164,-43.18164 -1.91207,-19.96987 23.21177,-45.0937 43.18164,-43.18164 19.96988,-1.91208 45.09374,23.21176 43.18164,43.18164 v 25 h 9.0918 v -25 c 1.36576,-25.4842 -26.78924,-53.63725 -52.27344,-52.27148 -0.79638,-0.0427 -1.59587,-0.057 -2.39648,-0.043 z m 45.57812,177.31445 v 9.0918 h 9.0918 v -9.0918 z"
               transform="matrix(0.26458333,0,0,0.26458333,0,196.45832)"
               id="path11591" />
            <path
               inkscape:connector-curvature="0"
               style="opacity:1;fill:#6c8ada;fill-opacity:1;fill-rule:nonzero;stroke:none;stroke-width:6.9784193;stroke-linecap:round;stroke-linejoin:miter;stroke-miterlimit:4;stroke-dasharray:none;stroke-dashoffset:0;stroke-opacity:1;paint-order:markers stroke fill"
               d="m -716.15625,118.38867 c -36.51277,-0.27315 -70.72823,33.94231 -70.45508,70.45508 -0.27315,36.51277 33.94231,70.72822 70.45508,70.45508 h 134.0918 v -9.0918 h -134.0918 c -30.99848,0.81946 -62.18274,-30.3648 -61.36328,-61.36328 -0.81946,-30.99848 30.3648,-62.18273 61.36328,-61.36328 30.9985,-0.81946 62.18277,30.36478 61.36328,61.36328 v 25 h 9.0918 v -25 c 0.27315,-36.51278 -33.94229,-70.72823 -70.45508,-70.45508 z m 61.36328,195.45508 v 9.0918 h 9.0918 v -9.0918 z"
               transform="matrix(0.26458333,0,0,0.26458333,0,196.45832)"
               id="path11593" />
            <path
               inkscape:connector-curvature="0"
               style="opacity:1;fill:#38d8d8;fill-opacity:1;fill-rule:nonzero;stroke:none;stroke-width:6.9784193;stroke-linecap:round;stroke-linejoin:miter;stroke-miterlimit:4;stroke-dasharray:none;stroke-dashoffset:0;stroke-opacity:1;paint-order:markers stroke fill"
               d="m -716.15625,100.20703 c -47.54138,0.81946 -87.81726,41.09534 -88.63672,88.63672 0.81946,47.54137 41.09535,87.81724 88.63672,88.63672 h 134.0918 v -9.0918 h -134.0918 v 0.002 c -42.02709,-0.27313 -79.27177,-37.51979 -79.54492,-79.54687 0.27315,-42.02708 37.51784,-79.27175 79.54492,-79.54492 42.02711,0.27315 79.2718,37.51781 79.54492,79.54492 v 25 h 9.0918 v -25 c -0.81947,-47.54138 -41.09532,-87.81726 -88.63672,-88.63672 z m 79.54492,213.63672 v 9.0918 h 9.0918 v -9.0918 z"
               transform="matrix(0.26458333,0,0,0.26458333,0,196.45832)"
               id="path11595" />
            <path
               inkscape:connector-curvature="0"
               style="opacity:1;fill:#3545d3;fill-opacity:1;fill-rule:nonzero;stroke:none;stroke-width:6.9784193;stroke-linecap:round;stroke-linejoin:miter;stroke-miterlimit:4;stroke-dasharray:none;stroke-dashoffset:0;stroke-opacity:1;paint-order:markers stroke fill"
               d="m -716.15625,82.025391 c -58.56997,1.912073 -104.90628,48.248379 -106.81836,106.818359 1.91207,58.56996 48.2484,104.90626 106.81836,106.81836 h 134.0918 v -9.08984 h -134.0918 c -53.05565,-1.36577 -96.3608,-44.67288 -97.72656,-97.72852 1.36576,-53.05564 44.67093,-96.360781 97.72656,-97.726562 53.05567,1.365765 96.36083,44.670882 97.72656,97.726562 v 25 h 9.0918 v -25 C -611.24997,130.27379 -657.58625,83.937471 -716.15625,82.025391 Z m 97.72656,231.818359 v 9.0918 h 9.0918 v -9.0918 z"
               transform="matrix(0.26458333,0,0,0.26458333,0,196.45832)"
               id="path11597" />
            <path
               inkscape:connector-curvature="0"
               style="opacity:1;fill:#5320a5;fill-opacity:1;fill-rule:nonzero;stroke:none;stroke-width:6.9784193;stroke-linecap:round;stroke-linejoin:miter;stroke-miterlimit:4;stroke-dasharray:none;stroke-dashoffset:0;stroke-opacity:1;paint-order:markers stroke fill"
               d="m -716.15625,63.84375 c -69.59855,3.004689 -121.99531,55.40145 -125,125 3.00469,69.59853 55.40147,121.99529 125,125 h 115.9082 v 9.0918 h 9.0918 v -9.0918 h 9.0918 v -9.08984 h -134.0918 c -64.08426,-2.45838 -113.45177,-51.82592 -115.91016,-115.91016 2.45839,-64.08424 51.82592,-113.449802 115.91016,-115.908203 64.08428,2.458384 113.44986,51.823903 115.9082,115.908203 v 25 h 9.0918 v -25 c -3.0047,-69.59854 -55.40142,-121.99531 -125,-125 z"
               transform="matrix(0.26458333,0,0,0.26458333,0,196.45832)"
               id="path11599" />
          </g>
          <g
             transform="rotate(90,-222.55592,213.35031)"
             id="g11615">
            <path
               inkscape:connector-curvature="0"
               id="path11603"
               transform="matrix(0.26458333,0,0,0.26458333,0,196.45832)"
               d="m -718.94922,154.57227 c -14.32932,0.45458 -33.60356,20.71937 -31.29883,34.27148 -2.45838,14.45558 19.63622,36.55017 34.0918,34.0918 h 134.0918 v -9.0918 h -100.00196 v -25 c 2.45839,-14.4556 -19.63425,-36.54823 -34.08984,-34.08984 -0.90347,-0.15365 -1.83768,-0.21195 -2.79297,-0.18164 z m 1.00586,8.95898 c 0.63005,0.0232 1.22828,0.12471 1.78711,0.3125 8.94127,-3.00469 28.00471,16.05874 25,25 v 25 h -25 c -8.94126,3.00469 -28.00469,-16.05873 -25,-25 -2.8169,-8.38244 13.76214,-25.66117 23.21289,-25.3125 z m 26.78711,150.3125 v 9.0918 h 9.08984 v -9.0918 z"
               style="opacity:1;fill:#5320a5;fill-opacity:1;fill-rule:nonzero;stroke:none;stroke-width:6.9784193;stroke-linecap:round;stroke-linejoin:miter;stroke-miterlimit:4;stroke-dasharray:none;stroke-dashoffset:0;stroke-opacity:1;paint-order:markers stroke fill" />
            <path
               inkscape:connector-curvature="0"
               id="path11605"
               transform="matrix(0.26458333,0,0,0.26458333,0,196.45832)"
               d="m -718.55273,136.5293 c -24.81903,0.43381 -51.20004,27.62664 -49.87696,52.31445 -1.36576,25.48418 26.78925,53.63919 52.27344,52.27344 h 134.0918 v -9.0918 h -134.0918 c -19.96987,1.91207 -45.09371,-23.21177 -43.18164,-43.18164 -1.91207,-19.96987 23.21177,-45.0937 43.18164,-43.18164 19.96988,-1.91208 45.09374,23.21176 43.18164,43.18164 v 25 h 9.0918 v -25 c 1.36576,-25.4842 -26.78924,-53.63725 -52.27344,-52.27148 -0.79638,-0.0427 -1.59587,-0.057 -2.39648,-0.043 z m 45.57812,177.31445 v 9.0918 h 9.0918 v -9.0918 z"
               style="opacity:1;fill:#4545b5;fill-opacity:1;fill-rule:nonzero;stroke:none;stroke-width:6.9784193;stroke-linecap:round;stroke-linejoin:miter;stroke-miterlimit:4;stroke-dasharray:none;stroke-dashoffset:0;stroke-opacity:1;paint-order:markers stroke fill" />
            <path
               inkscape:connector-curvature="0"
               id="path11607"
               transform="matrix(0.26458333,0,0,0.26458333,0,196.45832)"
               d="m -716.15625,118.38867 c -36.51277,-0.27315 -70.72823,33.94231 -70.45508,70.45508 -0.27315,36.51277 33.94231,70.72822 70.45508,70.45508 h 134.0918 v -9.0918 h -134.0918 c -30.99848,0.81946 -62.18274,-30.3648 -61.36328,-61.36328 -0.81946,-30.99848 30.3648,-62.18273 61.36328,-61.36328 30.9985,-0.81946 62.18277,30.36478 61.36328,61.36328 v 25 h 9.0918 v -25 c 0.27315,-36.51278 -33.94229,-70.72823 -70.45508,-70.45508 z m 61.36328,195.45508 v 9.0918 h 9.0918 v -9.0918 z"
               style="opacity:1;fill:#6c8ada;fill-opacity:1;fill-rule:nonzero;stroke:none;stroke-width:6.9784193;stroke-linecap:round;stroke-linejoin:miter;stroke-miterlimit:4;stroke-dasharray:none;stroke-dashoffset:0;stroke-opacity:1;paint-order:markers stroke fill" />
            <path
               inkscape:connector-curvature="0"
               id="path11609"
               transform="matrix(0.26458333,0,0,0.26458333,0,196.45832)"
               d="m -716.15625,100.20703 c -47.54138,0.81946 -87.81726,41.09534 -88.63672,88.63672 0.81946,47.54137 41.09535,87.81724 88.63672,88.63672 h 134.0918 v -9.0918 h -134.0918 v 0.002 c -42.02709,-0.27313 -79.27177,-37.51979 -79.54492,-79.54687 0.27315,-42.02708 37.51784,-79.27175 79.54492,-79.54492 42.02711,0.27315 79.2718,37.51781 79.54492,79.54492 v 25 h 9.0918 v -25 c -0.81947,-47.54138 -41.09532,-87.81726 -88.63672,-88.63672 z m 79.54492,213.63672 v 9.0918 h 9.0918 v -9.0918 z"
               style="opacity:1;fill:#38d8d8;fill-opacity:1;fill-rule:nonzero;stroke:none;stroke-width:6.9784193;stroke-linecap:round;stroke-linejoin:miter;stroke-miterlimit:4;stroke-dasharray:none;stroke-dashoffset:0;stroke-opacity:1;paint-order:markers stroke fill" />
            <path
               inkscape:connector-curvature="0"
               id="path11611"
               transform="matrix(0.26458333,0,0,0.26458333,0,196.45832)"
               d="m -716.15625,82.025391 c -58.56997,1.912073 -104.90628,48.248379 -106.81836,106.818359 1.91207,58.56996 48.2484,104.90626 106.81836,106.81836 h 134.0918 v -9.08984 h -134.0918 c -53.05565,-1.36577 -96.3608,-44.67288 -97.72656,-97.72852 1.36576,-53.05564 44.67093,-96.360781 97.72656,-97.726562 53.05567,1.365765 96.36083,44.670882 97.72656,97.726562 v 25 h 9.0918 v -25 C -611.24997,130.27379 -657.58625,83.937471 -716.15625,82.025391 Z m 97.72656,231.818359 v 9.0918 h 9.0918 v -9.0918 z"
               style="opacity:1;fill:#3545d3;fill-opacity:1;fill-rule:nonzero;stroke:none;stroke-width:6.9784193;stroke-linecap:round;stroke-linejoin:miter;stroke-miterlimit:4;stroke-dasharray:none;stroke-dashoffset:0;stroke-opacity:1;paint-order:markers stroke fill" />
            <path
               inkscape:connector-curvature="0"
               id="path11613"
               transform="matrix(0.26458333,0,0,0.26458333,0,196.45832)"
               d="m -716.15625,63.84375 c -69.59855,3.004689 -121.99531,55.40145 -125,125 3.00469,69.59853 55.40147,121.99529 125,125 h 115.9082 v 9.0918 h 9.0918 v -9.0918 h 9.0918 v -9.08984 h -134.0918 c -64.08426,-2.45838 -113.45177,-51.82592 -115.91016,-115.91016 2.45839,-64.08424 51.82592,-113.449802 115.91016,-115.908203 64.08428,2.458384 113.44986,51.823903 115.9082,115.908203 v 25 h 9.0918 v -25 c -3.0047,-69.59854 -55.40142,-121.99531 -125,-125 z"
               style="opacity:1;fill:#5320a5;fill-opacity:1;fill-rule:nonzero;stroke:none;stroke-width:6.9784193;stroke-linecap:round;stroke-linejoin:miter;stroke-miterlimit:4;stroke-dasharray:none;stroke-dashoffset:0;stroke-opacity:1;paint-order:markers stroke fill" />
          </g>
        </g>
      </g>
    </g>
    <g
       transform="matrix(0.76073677,0,0,0.76073677,-98.463655,144.10126)"
       id="g11631">
      <text
         xml:space="preserve"
         style="font-style:normal;font-weight:normal;font-size:10.58333302px;line-height:1.25;font-family:sans-serif;letter-spacing:0px;word-spacing:0px;fill:#000000;fill-opacity:1;stroke:none;stroke-width:0.26458332"
         x="-18.25625"
         y="176.34999"
         id="text11625"><tspan
           sodipodi:role="line"
           id="tspan11623"
           x="-18.25625"
           y="176.34999"
           style="font-style:normal;font-variant:normal;font-weight:normal;font-stretch:normal;font-family:Strasua;-inkscape-font-specification:Strasua;stroke-width:0.26458332">MS</tspan></text>
      <text
         id="text11629"
         y="176.34824"
         x="-12.557372"
         style="font-style:normal;font-weight:normal;font-size:10.58333302px;line-height:1.25;font-family:sans-serif;letter-spacing:0px;word-spacing:0px;fill:#000000;fill-opacity:1;stroke:none;stroke-width:0.26458332"
         xml:space="preserve"
         transform="scale(-1,1)"><tspan
           style="font-style:normal;font-variant:normal;font-weight:normal;font-stretch:normal;font-family:Strasua;-inkscape-font-specification:Strasua;stroke-width:0.26458332"
           y="176.34824"
           x="-12.557372"
           id="tspan11627"
           sodipodi:role="line">M</tspan></text>
    </g>
    <text
       xml:space="preserve"
       style="font-style:normal;font-weight:normal;font-size:10.58333302px;line-height:1.25;font-family:sans-serif;letter-spacing:0px;word-spacing:0px;fill:#000000;fill-opacity:1;stroke:none;stroke-width:0.26458332"
       x="-41.804165"
       y="202.14687"
       id="text994"><tspan
         sodipodi:role="line"
         id="tspan992"
         x="-41.804165"
         y="211.51064"
         style="font-style:normal;font-variant:normal;font-weight:normal;font-stretch:normal;font-family:'Funky Rundkopf NF';-inkscape-font-specification:'Funky Rundkopf NF';stroke-width:0.26458332" /></text>
    <path
       style="fill:none;stroke:#000000;stroke-width:0.26200572px;stroke-linecap:butt;stroke-linejoin:miter;stroke-opacity:1"
       d="M 7.1439592,205.42108 V 284.0354"
       id="path1022"
       inkscape:connector-curvature="0" />
    <path
       inkscape:connector-curvature="0"
       id="path1024"
       d="M 17.727292,204.72655 V 284.0354"
       style="fill:none;stroke:#000000;stroke-width:0.2631605px;stroke-linecap:butt;stroke-linejoin:miter;stroke-opacity:1" />
    <path
       style="fill:none;stroke:#000000;stroke-width:0.26321536px;stroke-linecap:butt;stroke-linejoin:miter;stroke-opacity:1"
       d="M 28.319526,204.69348 V 284.0354"
       id="path1026"
       inkscape:connector-curvature="0" />
  </g>
</svg>
