<?xml version="1.0" encoding="UTF-8"?>
<svg width="90" height="380" version="1.1" viewBox="0 0 23.812 100.54" xmlns="http://www.w3.org/2000/svg">
 <g transform="translate(0,-196.46)">
  <path d="M 0,196.46 H 23.812 V 297 H 0 Z" fill="#f0f0f0" style="paint-order:markers stroke fill"/>
  <g transform="matrix(1.4312,-1.4312,1.4312,1.4312,-227.11,-293.89)" fill="#d6d6d6">
   <g fill="#d6d6d6">
    <g transform="translate(185.74,-9.525)">
     <g transform="translate(-137.1)">
      <path transform="matrix(.26458 0 0 .26458 0 196.46)" d="m-718.95 154.57c-14.329 0.45458-33.604 20.719-31.299 34.271-2.4584 14.456 19.636 36.55 34.092 34.092h134.09v-9.0918h-100v-25c2.4584-14.456-19.634-36.548-34.09-34.09-0.90347-0.15365-1.8377-0.21195-2.793-0.18164zm1.0059 8.959c0.63005 0.0232 1.2283 0.12471 1.7871 0.3125 8.9413-3.0047 28.005 16.059 25 25v25h-25c-8.9413 3.0047-28.005-16.059-25-25-2.8169-8.3824 13.762-25.661 23.213-25.312zm26.787 150.31v9.0918h9.0898v-9.0918z" style="paint-order:markers stroke fill"/>
      <path transform="matrix(.26458 0 0 .26458 0 196.46)" d="m-718.55 136.53c-24.819 0.43381-51.2 27.627-49.877 52.314-1.3658 25.484 26.789 53.639 52.273 52.273h134.09v-9.0918h-134.09c-19.97 1.9121-45.094-23.212-43.182-43.182-1.9121-19.97 23.212-45.094 43.182-43.182 19.97-1.9121 45.094 23.212 43.182 43.182v25h9.0918v-25c1.3658-25.484-26.789-53.637-52.273-52.271-0.79638-0.0427-1.5959-0.057-2.3965-0.043zm45.578 177.31v9.0918h9.0918v-9.0918z" style="paint-order:markers stroke fill"/>
      <path transform="matrix(.26458 0 0 .26458 0 196.46)" d="m-716.16 118.39c-36.513-0.27315-70.728 33.942-70.455 70.455-0.27315 36.513 33.942 70.728 70.455 70.455h134.09v-9.0918h-134.09c-30.998 0.81946-62.183-30.365-61.363-61.363-0.81946-30.998 30.365-62.183 61.363-61.363 30.998-0.81946 62.183 30.365 61.363 61.363v25h9.0918v-25c0.27315-36.513-33.942-70.728-70.455-70.455zm61.363 195.46v9.0918h9.0918v-9.0918z" style="paint-order:markers stroke fill"/>
      <path transform="matrix(.26458 0 0 .26458 0 196.46)" d="m-716.16 100.21c-47.541 0.81946-87.817 41.095-88.637 88.637 0.81946 47.541 41.095 87.817 88.637 88.637h134.09v-9.0918h-134.09v2e-3c-42.027-0.27313-79.272-37.52-79.545-79.547 0.27315-42.027 37.518-79.272 79.545-79.545 42.027 0.27315 79.272 37.518 79.545 79.545v25h9.0918v-25c-0.81947-47.541-41.095-87.817-88.637-88.637zm79.545 213.64v9.0918h9.0918v-9.0918z" style="paint-order:markers stroke fill"/>
      <path transform="matrix(.26458 0 0 .26458 0 196.46)" d="m-716.16 82.025c-58.57 1.9121-104.91 48.248-106.82 106.82 1.9121 58.57 48.248 104.91 106.82 106.82h134.09v-9.0898h-134.09c-53.056-1.3658-96.361-44.673-97.727-97.729 1.3658-53.056 44.671-96.361 97.727-97.727 53.056 1.3658 96.361 44.671 97.727 97.727v25h9.0918v-25c-1.9121-58.57-48.248-104.91-106.82-106.82zm97.727 231.82v9.0918h9.0918v-9.0918z" style="paint-order:markers stroke fill"/>
      <path transform="matrix(.26458 0 0 .26458 0 196.46)" d="m-716.16 63.844c-69.599 3.0047-122 55.401-125 125 3.0047 69.599 55.401 122 125 125h115.91v9.0918h9.0918v-9.0918h9.0918v-9.0898h-134.09c-64.084-2.4584-113.45-51.826-115.91-115.91 2.4584-64.084 51.826-113.45 115.91-115.91 64.084 2.4584 113.45 51.824 115.91 115.91v25h9.0918v-25c-3.0047-69.599-55.401-122-125-125z" style="paint-order:markers stroke fill"/>
     </g>
     <g transform="rotate(90,-222.56,213.35)">
      <path transform="matrix(.26458 0 0 .26458 0 196.46)" d="m-718.95 154.57c-14.329 0.45458-33.604 20.719-31.299 34.271-2.4584 14.456 19.636 36.55 34.092 34.092h134.09v-9.0918h-100v-25c2.4584-14.456-19.634-36.548-34.09-34.09-0.90347-0.15365-1.8377-0.21195-2.793-0.18164zm1.0059 8.959c0.63005 0.0232 1.2283 0.12471 1.7871 0.3125 8.9413-3.0047 28.005 16.059 25 25v25h-25c-8.9413 3.0047-28.005-16.059-25-25-2.8169-8.3824 13.762-25.661 23.213-25.312zm26.787 150.31v9.0918h9.0898v-9.0918z" style="paint-order:markers stroke fill"/>
      <path transform="matrix(.26458 0 0 .26458 0 196.46)" d="m-718.55 136.53c-24.819 0.43381-51.2 27.627-49.877 52.314-1.3658 25.484 26.789 53.639 52.273 52.273h134.09v-9.0918h-134.09c-19.97 1.9121-45.094-23.212-43.182-43.182-1.9121-19.97 23.212-45.094 43.182-43.182 19.97-1.9121 45.094 23.212 43.182 43.182v25h9.0918v-25c1.3658-25.484-26.789-53.637-52.273-52.271-0.79638-0.0427-1.5959-0.057-2.3965-0.043zm45.578 177.31v9.0918h9.0918v-9.0918z" style="paint-order:markers stroke fill"/>
      <path transform="matrix(.26458 0 0 .26458 0 196.46)" d="m-716.16 118.39c-36.513-0.27315-70.728 33.942-70.455 70.455-0.27315 36.513 33.942 70.728 70.455 70.455h134.09v-9.0918h-134.09c-30.998 0.81946-62.183-30.365-61.363-61.363-0.81946-30.998 30.365-62.183 61.363-61.363 30.998-0.81946 62.183 30.365 61.363 61.363v25h9.0918v-25c0.27315-36.513-33.942-70.728-70.455-70.455zm61.363 195.46v9.0918h9.0918v-9.0918z" style="paint-order:markers stroke fill"/>
      <path transform="matrix(.26458 0 0 .26458 0 196.46)" d="m-716.16 100.21c-47.541 0.81946-87.817 41.095-88.637 88.637 0.81946 47.541 41.095 87.817 88.637 88.637h134.09v-9.0918h-134.09v2e-3c-42.027-0.27313-79.272-37.52-79.545-79.547 0.27315-42.027 37.518-79.272 79.545-79.545 42.027 0.27315 79.272 37.518 79.545 79.545v25h9.0918v-25c-0.81947-47.541-41.095-87.817-88.637-88.637zm79.545 213.64v9.0918h9.0918v-9.0918z" style="paint-order:markers stroke fill"/>
      <path transform="matrix(.26458 0 0 .26458 0 196.46)" d="m-716.16 82.025c-58.57 1.9121-104.91 48.248-106.82 106.82 1.9121 58.57 48.248 104.91 106.82 106.82h134.09v-9.0898h-134.09c-53.056-1.3658-96.361-44.673-97.727-97.729 1.3658-53.056 44.671-96.361 97.727-97.727 53.056 1.3658 96.361 44.671 97.727 97.727v25h9.0918v-25c-1.9121-58.57-48.248-104.91-106.82-106.82zm97.727 231.82v9.0918h9.0918v-9.0918z" style="paint-order:markers stroke fill"/>
      <path transform="matrix(.26458 0 0 .26458 0 196.46)" d="m-716.16 63.844c-69.599 3.0047-122 55.401-125 125 3.0047 69.599 55.401 122 125 125h115.91v9.0918h9.0918v-9.0918h9.0918v-9.0898h-134.09c-64.084-2.4584-113.45-51.826-115.91-115.91 2.4584-64.084 51.826-113.45 115.91-115.91 64.084 2.4584 113.45 51.824 115.91 115.91v25h9.0918v-25c-3.0047-69.599-55.401-122-125-125z" style="paint-order:markers stroke fill"/>
     </g>
    </g>
    <g transform="rotate(180,-198.24,277.14)">
     <g transform="translate(-137.1)">
      <path transform="matrix(.26458 0 0 .26458 0 196.46)" d="m-718.95 154.57c-14.329 0.45458-33.604 20.719-31.299 34.271-2.4584 14.456 19.636 36.55 34.092 34.092h134.09v-9.0918h-100v-25c2.4584-14.456-19.634-36.548-34.09-34.09-0.90347-0.15365-1.8377-0.21195-2.793-0.18164zm1.0059 8.959c0.63005 0.0232 1.2283 0.12471 1.7871 0.3125 8.9413-3.0047 28.005 16.059 25 25v25h-25c-8.9413 3.0047-28.005-16.059-25-25-2.8169-8.3824 13.762-25.661 23.213-25.312zm26.787 150.31v9.0918h9.0898v-9.0918z" style="paint-order:markers stroke fill"/>
      <path transform="matrix(.26458 0 0 .26458 0 196.46)" d="m-718.55 136.53c-24.819 0.43381-51.2 27.627-49.877 52.314-1.3658 25.484 26.789 53.639 52.273 52.273h134.09v-9.0918h-134.09c-19.97 1.9121-45.094-23.212-43.182-43.182-1.9121-19.97 23.212-45.094 43.182-43.182 19.97-1.9121 45.094 23.212 43.182 43.182v25h9.0918v-25c1.3658-25.484-26.789-53.637-52.273-52.271-0.79638-0.0427-1.5959-0.057-2.3965-0.043zm45.578 177.31v9.0918h9.0918v-9.0918z" style="paint-order:markers stroke fill"/>
      <path transform="matrix(.26458 0 0 .26458 0 196.46)" d="m-716.16 118.39c-36.513-0.27315-70.728 33.942-70.455 70.455-0.27315 36.513 33.942 70.728 70.455 70.455h134.09v-9.0918h-134.09c-30.998 0.81946-62.183-30.365-61.363-61.363-0.81946-30.998 30.365-62.183 61.363-61.363 30.998-0.81946 62.183 30.365 61.363 61.363v25h9.0918v-25c0.27315-36.513-33.942-70.728-70.455-70.455zm61.363 195.46v9.0918h9.0918v-9.0918z" style="paint-order:markers stroke fill"/>
      <path transform="matrix(.26458 0 0 .26458 0 196.46)" d="m-716.16 100.21c-47.541 0.81946-87.817 41.095-88.637 88.637 0.81946 47.541 41.095 87.817 88.637 88.637h134.09v-9.0918h-134.09v2e-3c-42.027-0.27313-79.272-37.52-79.545-79.547 0.27315-42.027 37.518-79.272 79.545-79.545 42.027 0.27315 79.272 37.518 79.545 79.545v25h9.0918v-25c-0.81947-47.541-41.095-87.817-88.637-88.637zm79.545 213.64v9.0918h9.0918v-9.0918z" style="paint-order:markers stroke fill"/>
      <path transform="matrix(.26458 0 0 .26458 0 196.46)" d="m-716.16 82.025c-58.57 1.9121-104.91 48.248-106.82 106.82 1.9121 58.57 48.248 104.91 106.82 106.82h134.09v-9.0898h-134.09c-53.056-1.3658-96.361-44.673-97.727-97.729 1.3658-53.056 44.671-96.361 97.727-97.727 53.056 1.3658 96.361 44.671 97.727 97.727v25h9.0918v-25c-1.9121-58.57-48.248-104.91-106.82-106.82zm97.727 231.82v9.0918h9.0918v-9.0918z" style="paint-order:markers stroke fill"/>
      <path transform="matrix(.26458 0 0 .26458 0 196.46)" d="m-716.16 63.844c-69.599 3.0047-122 55.401-125 125 3.0047 69.599 55.401 122 125 125h115.91v9.0918h9.0918v-9.0918h9.0918v-9.0898h-134.09c-64.084-2.4584-113.45-51.826-115.91-115.91 2.4584-64.084 51.826-113.45 115.91-115.91 64.084 2.4584 113.45 51.824 115.91 115.91v25h9.0918v-25c-3.0047-69.599-55.401-122-125-125z" style="paint-order:markers stroke fill"/>
     </g>
     <g transform="rotate(90,-222.56,213.35)">
      <path transform="matrix(.26458 0 0 .26458 0 196.46)" d="m-718.95 154.57c-14.329 0.45458-33.604 20.719-31.299 34.271-2.4584 14.456 19.636 36.55 34.092 34.092h134.09v-9.0918h-100v-25c2.4584-14.456-19.634-36.548-34.09-34.09-0.90347-0.15365-1.8377-0.21195-2.793-0.18164zm1.0059 8.959c0.63005 0.0232 1.2283 0.12471 1.7871 0.3125 8.9413-3.0047 28.005 16.059 25 25v25h-25c-8.9413 3.0047-28.005-16.059-25-25-2.8169-8.3824 13.762-25.661 23.213-25.312zm26.787 150.31v9.0918h9.0898v-9.0918z" style="paint-order:markers stroke fill"/>
      <path transform="matrix(.26458 0 0 .26458 0 196.46)" d="m-718.55 136.53c-24.819 0.43381-51.2 27.627-49.877 52.314-1.3658 25.484 26.789 53.639 52.273 52.273h134.09v-9.0918h-134.09c-19.97 1.9121-45.094-23.212-43.182-43.182-1.9121-19.97 23.212-45.094 43.182-43.182 19.97-1.9121 45.094 23.212 43.182 43.182v25h9.0918v-25c1.3658-25.484-26.789-53.637-52.273-52.271-0.79638-0.0427-1.5959-0.057-2.3965-0.043zm45.578 177.31v9.0918h9.0918v-9.0918z" style="paint-order:markers stroke fill"/>
      <path transform="matrix(.26458 0 0 .26458 0 196.46)" d="m-716.16 118.39c-36.513-0.27315-70.728 33.942-70.455 70.455-0.27315 36.513 33.942 70.728 70.455 70.455h134.09v-9.0918h-134.09c-30.998 0.81946-62.183-30.365-61.363-61.363-0.81946-30.998 30.365-62.183 61.363-61.363 30.998-0.81946 62.183 30.365 61.363 61.363v25h9.0918v-25c0.27315-36.513-33.942-70.728-70.455-70.455zm61.363 195.46v9.0918h9.0918v-9.0918z" style="paint-order:markers stroke fill"/>
      <path transform="matrix(.26458 0 0 .26458 0 196.46)" d="m-716.16 100.21c-47.541 0.81946-87.817 41.095-88.637 88.637 0.81946 47.541 41.095 87.817 88.637 88.637h134.09v-9.0918h-134.09v2e-3c-42.027-0.27313-79.272-37.52-79.545-79.547 0.27315-42.027 37.518-79.272 79.545-79.545 42.027 0.27315 79.272 37.518 79.545 79.545v25h9.0918v-25c-0.81947-47.541-41.095-87.817-88.637-88.637zm79.545 213.64v9.0918h9.0918v-9.0918z" style="paint-order:markers stroke fill"/>
      <path transform="matrix(.26458 0 0 .26458 0 196.46)" d="m-716.16 82.025c-58.57 1.9121-104.91 48.248-106.82 106.82 1.9121 58.57 48.248 104.91 106.82 106.82h134.09v-9.0898h-134.09c-53.056-1.3658-96.361-44.673-97.727-97.729 1.3658-53.056 44.671-96.361 97.727-97.727 53.056 1.3658 96.361 44.671 97.727 97.727v25h9.0918v-25c-1.9121-58.57-48.248-104.91-106.82-106.82zm97.727 231.82v9.0918h9.0918v-9.0918z" style="paint-order:markers stroke fill"/>
      <path transform="matrix(.26458 0 0 .26458 0 196.46)" d="m-716.16 63.844c-69.599 3.0047-122 55.401-125 125 3.0047 69.599 55.401 122 125 125h115.91v9.0918h9.0918v-9.0918h9.0918v-9.0898h-134.09c-64.084-2.4584-113.45-51.826-115.91-115.91 2.4584-64.084 51.826-113.45 115.91-115.91 64.084 2.4584 113.45 51.824 115.91 115.91v25h9.0918v-25c-3.0047-69.599-55.401-122-125-125z" style="paint-order:markers stroke fill"/>
     </g>
    </g>
   </g>
  </g>
  <text x="-16.437077" y="279.15976" fill="#000000" font-family="'DejaVu Sans Mono'" font-size="10.583px" letter-spacing="0px" stroke-width=".26458" word-spacing="0px" style="line-height:1.25" xml:space="preserve"><tspan x="-16.437077" y="288.52353" stroke-width=".26458"/></text>
  <g transform="matrix(.37526 0 0 .37526 12.976 229.98)">
   <g stroke-width=".26458" aria-label="MS">
    <path d="m-13.102 168.47q0.14817-0.23284 0.37042-0.32809 0.22225-0.10583 0.45508-0.10583 0.27517 0 0.4445 0.20108 0.16933 0.1905 0.16933 0.51859v5.0271l3.5348-5.3128q0.14817-0.23284 0.35983-0.32809 0.22225-0.10583 0.46567-0.10583 0.27517 0 0.4445 0.20108 0.16933 0.1905 0.16933 0.51859v7.5988h-1.4393v-5.5774l-3.2173 5.08q-0.17992 0.28575-0.39158 0.39159-0.21167 0.10583-0.43392 0.10583-0.1905 0-0.35983-0.0635-0.16933-0.0741-0.29633-0.20108-0.127-0.127-0.20108-0.29634-0.07408-0.16933-0.07408-0.381v-4.6355l-3.5348 5.5774h-1.7145z"/>
    <path d="m-5.7074 176.35v-1.4393h2.8892q0.66675 0 1.1007-0.3175 0.43392-0.3175 0.43392-0.8255 0-0.254-0.11642-0.46567t-0.3175-0.35983q-0.20108-0.15875-0.48683-0.24342-0.28575-0.0847-0.61383-0.0847h-0.65617q-0.508 0-0.94192-0.15875-0.43392-0.16933-0.75142-0.46566-0.3175-0.30692-0.49742-0.70909-0.17992-0.41275-0.17992-0.91016 0-0.48684 0.17992-0.89959 0.1905-0.41275 0.52917-0.71966 0.33867-0.30692 0.81492-0.47625 0.47625-0.17992 1.0478-0.17992h2.7411v1.4393h-2.8152q-0.45508 0-0.71967 0.254-0.26458 0.24342-0.26458 0.59267 0 0.381 0.26458 0.635 0.27517 0.254 0.71967 0.254h0.81492q0.55033 0 1.016 0.1905 0.46567 0.17992 0.80433 0.51858 0.33867 0.33867 0.52917 0.80434 0.1905 0.46566 0.1905 1.016 0 0.56091-0.20108 1.0266-0.20108 0.46567-0.58208 0.80433-0.37042 0.33867-0.889 0.52917t-1.1536 0.1905z"/>
   </g>
   <g transform="scale(-1,1)" aria-label="M">
    <path d="m-7.4033 168.46q0.14817-0.23283 0.37042-0.32808 0.22225-0.10583 0.45508-0.10583 0.27517 0 0.4445 0.20108 0.16933 0.1905 0.16933 0.51858v5.0271l3.5348-5.3128q0.14817-0.23283 0.35983-0.32808 0.22225-0.10583 0.46567-0.10583 0.27517 0 0.4445 0.20108 0.16933 0.1905 0.16933 0.51858v7.5988h-1.4393v-5.5774l-3.2173 5.08q-0.17992 0.28575-0.39158 0.39158-0.21167 0.10584-0.43392 0.10584-0.1905 0-0.35983-0.0635-0.16933-0.0741-0.29633-0.20109-0.127-0.127-0.20108-0.29633-0.074083-0.16933-0.074083-0.381v-4.6355l-3.5348 5.5774h-1.7145z" stroke-width=".26458"/>
   </g>
  </g>
  <g stroke-width=".26458">
   <g transform="matrix(1.2789,0,0,1.2789,1.7546,-55.663)" aria-label="PHASER">
    <path d="m2.2178 200.58v0.75447h0.20843q0.24977 0 0.34968-0.0844 0.10163-0.0844 0.10163-0.29283t-0.10163-0.29284q-0.099908-0.0844-0.34968-0.0844zm-0.50815-0.42719h0.69763q0.53227 0 0.76481 0.18948 0.23427 0.18948 0.23427 0.61495 0 0.42546-0.23427 0.61494-0.23254 0.18949-0.76481 0.18949h-0.18948v0.9629h-0.50815z"/>
    <path d="m3.7887 200.16h0.50815v0.98013h0.63562v-0.98013h0.50815v2.5718h-0.50815v-1.1438h-0.63562v1.1438h-0.50815z"/>
    <path d="m6.736 200.62-0.23943 1.0525h0.48059zm-0.31006-0.46508h0.62184l0.69419 2.5718h-0.50815l-0.15847-0.63562h-0.68041l-0.15503 0.63562h-0.50815z"/>
    <path d="m8.6756 201.6q-0.38413-0.14642-0.52021-0.30661-0.13608-0.16192-0.13608-0.43408 0-0.34968 0.22393-0.5495 0.22393-0.19981 0.61495-0.19981 0.17742 0 0.35484 0.0413 0.17742 0.0396 0.3514 0.11885v0.4961q-0.16364-0.11541-0.33245-0.1757-0.16881-0.0603-0.33417-0.0603-0.18431 0-0.2825 0.0741-0.098185 0.0741-0.098185 0.21187 0 0.1068 0.070624 0.17742 0.072347 0.0689 0.29972 0.15331l0.21876 0.0827q0.31006 0.11369 0.45648 0.30145t0.14642 0.4737q0 0.38929-0.23082 0.58222-0.2291 0.1912-0.69419 0.1912-0.1912 0-0.38413-0.0465-0.1912-0.0448-0.37035-0.13435v-0.52538q0.20326 0.14469 0.39274 0.21532 0.1912 0.0706 0.37724 0.0706 0.18776 0 0.29111-0.0844 0.10335-0.0861 0.10335-0.23944 0-0.11541-0.068902-0.20154-0.068902-0.0879-0.19982-0.1378z"/>
    <path d="m11.811 202.73h-1.602v-2.5718h1.602v0.44786h-1.0938v0.55466h0.99046v0.44786h-0.99046v0.67352h1.0938z"/>
    <path d="m13.432 201.51q0.07579 0.0155 0.13091 0.0724 0.05684 0.0551 0.1378 0.21704l0.46509 0.92501h-0.5581l-0.31006-0.6494q-0.01378-0.0276-0.03617-0.0758-0.13608-0.29111-0.32039-0.29111h-0.16192v1.0163h-0.50815v-2.5718h0.7338q0.49609 0 0.71141 0.1757 0.21704 0.1757 0.21704 0.57188 0 0.26527-0.12919 0.42203-0.12919 0.15675-0.37207 0.18775zm-0.65285-0.93017v0.70107h0.23944q0.20843 0 0.298-0.081 0.0913-0.0827 0.0913-0.27044 0-0.18775-0.08957-0.26871-0.08957-0.081-0.29972-0.081z"/>
   </g>
   <g transform="translate(-1.1313,15.875)" aria-label="DEPTH">
    <path d="m4.7488 246.91q0.30747 0 0.42926-0.15072 0.12178-0.15193 0.12178-0.54743 0-0.39911-0.12178-0.54983-0.12058-0.15193-0.42926-0.15193h-0.11576v1.3999zm0.00482-1.6001q0.41238 0 0.60771 0.21945 0.19534 0.21945 0.19534 0.68247 0 0.46061-0.19534 0.68007-0.19534 0.21824-0.60771 0.21824h-0.36535v-1.8002z"/>
    <path d="m5.9461 245.31h1.0683v0.20498h-0.82476v0.53296h0.78858v0.20498h-0.78858v0.65233h0.84767v0.20498h-1.0912z"/>
    <path d="m7.6752 245.51v0.67644h0.28215q0.16881 0 0.26286-0.0892 0.095257-0.0892 0.095257-0.24959 0-0.16037-0.094051-0.24839-0.094051-0.0892-0.26407-0.0892zm-0.24357-0.20016h0.52572q0.30145 0 0.45699 0.13746 0.15555 0.13625 0.15555 0.40032 0 0.26648-0.15555 0.40273-0.15434 0.13625-0.45699 0.13625h-0.28215v0.72347h-0.24357z"/>
    <path d="m8.7363 245.31h1.3734v0.20498h-0.5631v1.5952h-0.24477v-1.5952h-0.56551z"/>
    <path d="m10.33 245.31h0.24477v0.73794h0.6668v-0.73794h0.24477v1.8002h-0.24477v-0.85731h-0.6668v0.85731h-0.24477z"/>
   </g>
   <g transform="translate(-3.2676,-19.108)" aria-label="RATE">
    <path d="m7.9917 252.14q0.094051 0.0241 0.16037 0.0916 0.066318 0.0663 0.16519 0.26647l0.24477 0.49196h-0.26166l-0.21463-0.45458q-0.092845-0.19413-0.1676-0.24959-0.073553-0.0567-0.19293-0.0567h-0.23272v0.76085h-0.24477v-1.8002h0.50161q0.29662 0 0.45458 0.13384t0.15796 0.38706q0 0.17845-0.097668 0.2918-0.096463 0.11213-0.27251 0.13746zm-0.49919-0.75v0.63906h0.26648q0.17484 0 0.26045-0.0784 0.085611-0.0784 0.085611-0.23995 0-0.15555-0.091639-0.23754-0.090434-0.0832-0.26407-0.0832z"/>
    <path d="m9.3036 251.4-0.25683 0.92122h0.51366zm-0.14711-0.21463h0.29542l0.55104 1.8002h-0.25201l-0.13264-0.46905h-0.63062l-0.13022 0.46905h-0.25201z"/>
    <path d="m10.103 251.19h1.3734v0.20498h-0.5631v1.5952h-0.24477v-1.5952h-0.56551z"/>
    <path d="m11.769 251.19h1.0683v0.20498h-0.82476v0.53296h0.78858v0.20498h-0.78858v0.65233h0.84766v0.20498h-1.0912z"/>
   </g>
   <g transform="translate(-3.2676,-11.699)" aria-label="STAGE">
    <path d="m7.5552 257.07v0.24719q-0.11093-0.0711-0.22307-0.10732-0.11093-0.0362-0.22428-0.0362-0.17243 0-0.27251 0.0808-0.10008 0.0796-0.10008 0.21583 0 0.11937 0.065112 0.18207 0.066318 0.0627 0.24598 0.10491l0.12781 0.0289q0.25321 0.0591 0.36897 0.18569 0.11576 0.1266 0.11576 0.34485 0 0.25683-0.15916 0.39188t-0.46302 0.13505q-0.12661 0-0.25442-0.0277-0.12781-0.0265-0.25683-0.0808v-0.25925q0.13867 0.088 0.26166 0.12902 0.1242 0.041 0.2496 0.041 0.18448 0 0.28698-0.082 0.10249-0.0832 0.10249-0.23151 0-0.13505-0.071141-0.20619-0.069935-0.0711-0.24477-0.10973l-0.13022-0.0301q-0.2508-0.0567-0.36415-0.17122-0.11334-0.11455-0.11334-0.30748 0-0.24116 0.16158-0.38585 0.16278-0.1459 0.43167-0.1459 0.1037 0 0.21825 0.0241 0.11455 0.0229 0.24116 0.0699z"/>
    <path d="m7.8771 257.01h1.3734v0.20498h-0.5631v1.5952h-0.24477v-1.5952h-0.56551z"/>
    <path d="m10.049 257.22-0.25683 0.92121h0.51366zm-0.14711-0.21463h0.29542l0.55104 1.8002h-0.25201l-0.13264-0.46905h-0.63062l-0.13022 0.46905h-0.25201z"/>
    <path d="m12.123 258.66q-0.09767 0.0904-0.22066 0.13746-0.12178 0.0458-0.26407 0.0458-0.34244 0-0.53296-0.24478-0.19051-0.24598-0.19051-0.6885 0-0.44131 0.19293-0.68729 0.19292-0.24719 0.53657-0.24719 0.11334 0 0.21704 0.0326 0.1037 0.0313 0.20016 0.0965v0.2496q-0.09767-0.0928-0.20016-0.13626-0.10249-0.0446-0.21704-0.0446-0.23754 0-0.35691 0.18448-0.11817 0.18328-0.11817 0.55225 0 0.375 0.11455 0.55587 0.11576 0.17966 0.3545 0.17966 0.08079 0 0.14108-0.0181 0.0615-0.0193 0.11093-0.0591v-0.48352h-0.26166v-0.20016h0.49437z"/>
    <path d="m12.515 257.01h1.0683v0.20498h-0.82476v0.53296h0.78858v0.20498h-0.78858v0.65233h0.84767v0.20498h-1.0912z"/>
   </g>
   <g transform="translate(.9247)" aria-label="LOW">
    <path d="m3.7626 218.85h0.24477v1.5952h0.86937v0.20498h-1.1141z"/>
    <path d="m6.0801 219.75q0-0.3967-0.081993-0.56671-0.080788-0.17002-0.26648-0.17002-0.18448 0-0.26648 0.17002-0.080787 0.17001-0.080787 0.56671 0 0.3955 0.080787 0.56552 0.081993 0.17001 0.26648 0.17001 0.18569 0 0.26648-0.16881 0.081993-0.17001 0.081993-0.56672zm0.25442 0q0 0.47026-0.14952 0.70177-0.14831 0.23151-0.45337 0.23151t-0.45337-0.2303q-0.14831-0.23031-0.14831-0.70298 0-0.47146 0.14831-0.70297 0.14952-0.23151 0.45337-0.23151 0.30506 0 0.45337 0.23151 0.14952 0.23151 0.14952 0.70297z"/>
    <path d="m6.4744 218.85h0.23754l0.17243 1.4614 0.20498-0.96704h0.25442l0.20739 0.96945 0.17243-1.4638h0.23754l-0.26889 1.8002h-0.2303l-0.24477-1.0695-0.24357 1.0695h-0.2303z"/>
   </g>
   <g transform="translate(-.39553)" aria-label="HIGH">
    <path d="m14.973 218.85h0.24477v0.73794h0.6668v-0.73794h0.24477v1.8002h-0.24477v-0.85731h-0.6668v0.85731h-0.24477z"/>
    <path d="m16.536 218.85h0.9996v0.20498h-0.37741v1.3903h0.37741v0.20498h-0.9996v-0.20498h0.37741v-1.3903h-0.37741z"/>
    <path d="m19.11 220.5q-0.09767 0.0904-0.22066 0.13746-0.12178 0.0458-0.26407 0.0458-0.34244 0-0.53296-0.24477-0.19051-0.24598-0.19051-0.68851 0-0.44131 0.19292-0.68729 0.19293-0.24719 0.53657-0.24719 0.11334 0 0.21704 0.0326 0.1037 0.0314 0.20016 0.0965v0.2496q-0.09767-0.0928-0.20016-0.13626-0.10249-0.0446-0.21704-0.0446-0.23754 0-0.35691 0.18449-0.11817 0.18327-0.11817 0.55224 0 0.375 0.11455 0.55587 0.11576 0.17966 0.3545 0.17966 0.08079 0 0.14108-0.0181 0.0615-0.0193 0.11093-0.0591v-0.48352h-0.26166v-0.20016h0.49437z"/>
    <path d="m19.43 218.85h0.24477v0.73794h0.6668v-0.73794h0.24477v1.8002h-0.24477v-0.85731h-0.6668v0.85731h-0.24477z"/>
   </g>
   <g aria-label="FBK">
    <path d="m15.3 232.08h1.0599v0.20498h-0.81511v0.53054h0.73914v0.20499h-0.73914v0.85972h-0.24478z"/>
    <path d="m16.95 233.02v0.65956h0.28818q0.21222 0 0.30265-0.0735 0.09043-0.0748 0.09043-0.24478 0-0.17604-0.09526-0.25803-0.09526-0.0832-0.29783-0.0832zm0-0.74035v0.5426h0.28336q0.17604 0 0.25442-0.0675 0.07958-0.0675 0.07958-0.21824 0-0.13626-0.07838-0.19655-0.07717-0.0603-0.25563-0.0603zm-0.24477-0.20016h0.53296q0.27612 0 0.42564 0.11937t0.14952 0.33762q0 0.16519-0.07958 0.26045-0.07838 0.0952-0.23633 0.11937 0.17725 0.0265 0.27733 0.15193 0.10129 0.12419 0.10129 0.31712 0 0.24477-0.16037 0.37017-0.16037 0.1242-0.47749 0.1242h-0.53296z"/>
    <path d="m18.156 232.08h0.24477v0.80064l0.76085-0.80064h0.28577l-0.70056 0.73552 0.72106 1.0647h-0.29421l-0.58722-0.90193-0.18569 0.19775v0.70418h-0.24477z"/>
   </g>
   <g aria-label="IN">
    <path d="m3.1237 290.47h0.99959v0.20498h-0.37741v1.3903h0.37741v0.20498h-0.99959v-0.20498h0.37741v-1.3903h-0.37741z"/>
    <path d="m4.5345 290.47h0.30868l0.60771 1.4819v-1.4819h0.23513v1.8002h-0.30868l-0.60771-1.4819v1.4819h-0.23513z"/>
   </g>
   <g aria-label="OUT">
    <path d="m18.26 291.37q0-0.3967-0.08199-0.56671-0.08079-0.17002-0.26648-0.17002-0.18448 0-0.26648 0.17002-0.08079 0.17001-0.08079 0.56671 0 0.3955 0.08079 0.56552 0.08199 0.17001 0.26648 0.17001 0.18569 0 0.26648-0.16881 0.08199-0.17001 0.08199-0.56672zm0.25442 0q0 0.47026-0.14952 0.70177-0.14831 0.23151-0.45337 0.23151t-0.45338-0.2303q-0.14831-0.23031-0.14831-0.70298 0-0.47146 0.14831-0.70297 0.14952-0.23151 0.45338-0.23151 0.30506 0 0.45337 0.23151 0.14952 0.23151 0.14952 0.70297z"/>
    <path d="m18.832 291.58v-1.1093h0.24477v1.2202q0 0.13143 0.0072 0.1881 0.0072 0.0555 0.02532 0.0856 0.03859 0.0712 0.11093 0.10732 0.07355 0.0362 0.17725 0.0362 0.1049 0 0.17725-0.0362t0.11214-0.10732q0.01809-0.0301 0.02532-0.0856 0.0072-0.0555 0.0072-0.18569v-1.2227h0.24357v1.1093q0 0.27612-0.03497 0.39309-0.03376 0.11575-0.11817 0.19171-0.07958 0.0711-0.18207 0.10611-0.10249 0.035-0.2303 0.035-0.12661 0-0.2291-0.035t-0.18328-0.10611q-0.0832-0.0747-0.11817-0.19292-0.03497-0.11937-0.03497-0.39188z"/>
    <path d="m20.197 290.47h1.3734v0.20498h-0.5631v1.5952h-0.24477v-1.5952h-0.56551z"/>
   </g>
   <g transform="translate(66.949,-2.612)" aria-label="LFO DEPTH">
    <path d="m-51.534 247.95h0.24477v1.5952h0.86937v0.20498h-1.1141z"/>
    <path d="m-50.027 247.95h1.0599v0.20498h-0.81511v0.53054h0.73915v0.20499h-0.73915v0.85972h-0.24477z"/>
    <path d="m-47.731 248.85q0-0.3967-0.08199-0.56672-0.08079-0.17001-0.26648-0.17001-0.18448 0-0.26648 0.17001-0.08079 0.17002-0.08079 0.56672 0 0.3955 0.08079 0.56551 0.08199 0.17002 0.26648 0.17002 0.18569 0 0.26648-0.16881 0.08199-0.17002 0.08199-0.56672zm0.25442 0q0 0.47026-0.14952 0.70177-0.14831 0.23151-0.45337 0.23151t-0.45338-0.23031q-0.14831-0.2303-0.14831-0.70297 0-0.47146 0.14831-0.70297 0.14952-0.23151 0.45338-0.23151 0.30506 0 0.45337 0.23151 0.14952 0.23151 0.14952 0.70297z"/>
    <path d="m-52.754 252.64q0.30748 0 0.42926-0.15073 0.12178-0.15193 0.12178-0.54742 0-0.39912-0.12178-0.54984-0.12058-0.15193-0.42926-0.15193h-0.11576v1.3999zm0.0048-1.6001q0.41238 0 0.60772 0.21945 0.19534 0.21946 0.19534 0.68248 0 0.46061-0.19534 0.68006-0.19534 0.21825-0.60772 0.21825h-0.36535v-1.8002z"/>
    <path d="m-51.556 251.04h1.0683v0.20498h-0.82476v0.53296h0.78858v0.20498h-0.78858v0.65233h0.84767v0.20499h-1.0912z"/>
    <path d="m-49.827 251.24v0.67645h0.28215q0.16881 0 0.26286-0.0892 0.09526-0.0892 0.09526-0.2496 0-0.16037-0.09405-0.24839-0.09405-0.0892-0.26407-0.0892zm-0.24357-0.20016h0.52572q0.30145 0 0.45699 0.13746 0.15555 0.13625 0.15555 0.40032 0 0.26648-0.15555 0.40273-0.15434 0.13626-0.45699 0.13626h-0.28215v0.72347h-0.24357z"/>
    <path d="m-48.766 251.04h1.3734v0.20498h-0.5631v1.5953h-0.24477v-1.5953h-0.56551z"/>
    <path d="m-47.172 251.04h0.24477v0.73794h0.6668v-0.73794h0.24477v1.8002h-0.24477v-0.85732h-0.6668v0.85732h-0.24477z"/>
   </g>
   <g transform="translate(0,2.1167)" aria-label="WAVEFORM">
    <path d="m6.0166 268.57h0.23754l0.17243 1.4614 0.20498-0.96704h0.25442l0.20739 0.96945 0.17243-1.4638h0.23754l-0.26889 1.8002h-0.2303l-0.24477-1.0695-0.24357 1.0695h-0.2303z"/>
    <path d="m8.2449 268.78-0.25683 0.92122h0.51366zm-0.14711-0.21463h0.29542l0.55104 1.8002h-0.25201l-0.13264-0.46905h-0.63062l-0.13022 0.46905h-0.25201z"/>
    <path d="m9.7304 270.16 0.42323-1.5952h0.25201l-0.52693 1.8002h-0.29542l-0.52693-1.8002h0.25201z"/>
    <path d="m10.711 268.57h1.0683v0.20498h-0.82476v0.53296h0.78858v0.20498h-0.78858v0.65233h0.84767v0.20498h-1.0912z"/>
    <path d="m12.24 268.57h1.0599v0.20498h-0.81511v0.53055h0.73914v0.20498h-0.73914v0.85972h-0.24477z"/>
    <path d="m14.535 269.47q0-0.39671-0.08199-0.56672-0.08079-0.17002-0.26648-0.17002-0.18448 0-0.26648 0.17002-0.08079 0.17001-0.08079 0.56672 0 0.39549 0.08079 0.56551 0.08199 0.17001 0.26648 0.17001 0.18569 0 0.26648-0.16881 0.08199-0.17001 0.08199-0.56671zm0.25442 0q0 0.47025-0.14952 0.70176-0.14831 0.23151-0.45338 0.23151-0.30506 0-0.45337-0.2303-0.14831-0.23031-0.14831-0.70297 0-0.47147 0.14831-0.70298 0.14952-0.23151 0.45337-0.23151 0.30506 0 0.45338 0.23151 0.14952 0.23151 0.14952 0.70298z"/>
    <path d="m15.846 269.52q0.09405 0.0241 0.16037 0.0916 0.06632 0.0663 0.16519 0.26647l0.24477 0.49196h-0.26166l-0.21463-0.45458q-0.09285-0.19413-0.1676-0.24959-0.07355-0.0567-0.19292-0.0567h-0.23272v0.76084h-0.24477v-1.8002h0.50161q0.29662 0 0.45458 0.13384t0.15796 0.38706q0 0.17845-0.09767 0.2918-0.09646 0.11214-0.27251 0.13746zm-0.4992-0.75v0.63907h0.26648q0.17484 0 0.26045-0.0784t0.08561-0.23995q0-0.15555-0.09164-0.23754-0.09043-0.0832-0.26407-0.0832z"/>
    <path d="m16.519 268.57h0.32556l0.31109 0.9164 0.3135-0.9164h0.32677v1.8002h-0.22548v-1.5904l-0.32074 0.94895h-0.18448l-0.32194-0.94895v1.5904h-0.22428z"/>
   </g>
   <g transform="translate(-1.457,61.712)" aria-label="LOW">
    <path d="m3.7626 218.85h0.24477v1.5952h0.86937v0.20498h-1.1141z"/>
    <path d="m6.0801 219.75q0-0.3967-0.081993-0.56671-0.080788-0.17002-0.26648-0.17002-0.18448 0-0.26648 0.17002-0.080787 0.17001-0.080787 0.56671 0 0.3955 0.080787 0.56552 0.081993 0.17001 0.26648 0.17001 0.18569 0 0.26648-0.16881 0.081993-0.17001 0.081993-0.56672zm0.25442 0q0 0.47026-0.14952 0.70177-0.14831 0.23151-0.45337 0.23151t-0.45337-0.2303q-0.14831-0.23031-0.14831-0.70298 0-0.47146 0.14831-0.70297 0.14952-0.23151 0.45337-0.23151 0.30506 0 0.45337 0.23151 0.14952 0.23151 0.14952 0.70297z"/>
    <path d="m6.4744 218.85h0.23754l0.17243 1.4614 0.20498-0.96704h0.25442l0.20739 0.96945 0.17243-1.4638h0.23754l-0.26889 1.8002h-0.2303l-0.24477-1.0695-0.24357 1.0695h-0.2303z"/>
   </g>
   <g transform="translate(-5.8734,61.712)" aria-label="HIGH">
    <path d="m14.973 218.85h0.24477v0.73794h0.6668v-0.73794h0.24477v1.8002h-0.24477v-0.85731h-0.6668v0.85731h-0.24477z"/>
    <path d="m16.536 218.85h0.9996v0.20498h-0.37741v1.3903h0.37741v0.20498h-0.9996v-0.20498h0.37741v-1.3903h-0.37741z"/>
    <path d="m19.11 220.5q-0.09767 0.0904-0.22066 0.13746-0.12178 0.0458-0.26407 0.0458-0.34244 0-0.53296-0.24477-0.19051-0.24598-0.19051-0.68851 0-0.44131 0.19292-0.68729 0.19293-0.24719 0.53657-0.24719 0.11334 0 0.21704 0.0326 0.1037 0.0314 0.20016 0.0965v0.2496q-0.09767-0.0928-0.20016-0.13626-0.10249-0.0446-0.21704-0.0446-0.23754 0-0.35691 0.18449-0.11817 0.18327-0.11817 0.55224 0 0.375 0.11455 0.55587 0.11576 0.17966 0.3545 0.17966 0.08079 0 0.14108-0.0181 0.0615-0.0193 0.11093-0.0591v-0.48352h-0.26166v-0.20016h0.49437z"/>
    <path d="m19.43 218.85h0.24477v0.73794h0.6668v-0.73794h0.24477v1.8002h-0.24477v-0.85731h-0.6668v0.85731h-0.24477z"/>
   </g>
   <g transform="translate(34.515,7.0085)" aria-label="LFO D">
    <path d="m-18.583 273.55h0.24477v1.5952h0.86937v0.20499h-1.1141z"/>
    <path d="m-17.076 273.55h1.0599v0.20498h-0.81511v0.53055h0.73914v0.20498h-0.73914v0.85973h-0.24477z"/>
    <path d="m-14.78 274.45q0-0.39671-0.08199-0.56672-0.08079-0.17002-0.26648-0.17002-0.18448 0-0.26648 0.17002-0.08079 0.17001-0.08079 0.56672 0 0.39549 0.08079 0.56551 0.08199 0.17002 0.26648 0.17002 0.18569 0 0.26648-0.16881 0.08199-0.17002 0.08199-0.56672zm0.25442 0q0 0.47025-0.14952 0.70176-0.14831 0.23151-0.45338 0.23151-0.30506 0-0.45337-0.2303-0.14831-0.23031-0.14831-0.70297 0-0.47146 0.14831-0.70297 0.14952-0.23152 0.45337-0.23152 0.30506 0 0.45338 0.23152 0.14952 0.23151 0.14952 0.70297z"/>
    <path d="m-12.375 275.15q0.30748 0 0.42926-0.15073 0.12178-0.15193 0.12178-0.54742 0-0.39912-0.12178-0.54984-0.12058-0.15193-0.42926-0.15193h-0.11576v1.3999zm0.0048-1.6001q0.41238 0 0.60772 0.21945 0.19534 0.21946 0.19534 0.68248 0 0.46061-0.19534 0.68006-0.19534 0.21825-0.60772 0.21825h-0.36535v-1.8002z"/>
   </g>
   <g transform="translate(8.682,15.791)" aria-label="DEPTH">
    <path d="m7.9133 245.51v0.67644h0.28215q0.16881 0 0.26286-0.0892 0.095257-0.0892 0.095257-0.24959 0-0.16037-0.094051-0.24839-0.094051-0.0892-0.26407-0.0892zm-0.24357-0.20016h0.52572q0.30145 0 0.45699 0.13746 0.15555 0.13625 0.15555 0.40032 0 0.26648-0.15555 0.40273-0.15434 0.13625-0.45699 0.13625h-0.28215v0.72347h-0.24357z"/>
    <path d="m9.0622 245.31h0.23754l0.17243 1.4614 0.20498-0.96704h0.25442l0.20739 0.96945 0.17243-1.4638h0.23754l-0.26889 1.8002h-0.2303l-0.24477-1.0695-0.24357 1.0695h-0.2303z"/>
   </g>
  </g>
 </g>
</svg>
