<?xml version="1.0" encoding="UTF-8" standalone="no"?>
<!-- Created with Inkscape (http://www.inkscape.org/) -->

<svg
   xmlns:osb="http://www.openswatchbook.org/uri/2009/osb"
   xmlns:dc="http://purl.org/dc/elements/1.1/"
   xmlns:cc="http://creativecommons.org/ns#"
   xmlns:rdf="http://www.w3.org/1999/02/22-rdf-syntax-ns#"
   xmlns:svg="http://www.w3.org/2000/svg"
   xmlns="http://www.w3.org/2000/svg"
   xmlns:sodipodi="http://sodipodi.sourceforge.net/DTD/sodipodi-0.dtd"
   xmlns:inkscape="http://www.inkscape.org/namespaces/inkscape"
   width="120"
   height="380"
   viewBox="0 0 31.75 100.54167"
   version="1.1"
   id="svg8"
   inkscape:version="0.92.2 (5c3e80d, 2017-08-06)"
   sodipodi:docname="RandomSource.svg"
   inkscape:export-filename="C:\msys64\home\Studio\Rack\plugins\MS_modules\res\Random Source.png"
   inkscape:export-xdpi="100"
   inkscape:export-ydpi="100">
  <defs
     id="defs2">
    <linearGradient
       id="linearGradient2331"
       osb:paint="solid">
      <stop
         style="stop-color:#f2f2f2;stop-opacity:1;"
         offset="0"
         id="stop2329" />
    </linearGradient>
  </defs>
  <sodipodi:namedview
     id="base"
     pagecolor="#ffffff"
     bordercolor="#666666"
     borderopacity="1.0"
     inkscape:pageopacity="0.0"
     inkscape:pageshadow="2"
     inkscape:zoom="2.0000001"
     inkscape:cx="-0.58588927"
     inkscape:cy="188.24297"
     inkscape:document-units="mm"
     inkscape:current-layer="layer1"
     showgrid="false"
     inkscape:window-width="1920"
     inkscape:window-height="1033"
     inkscape:window-x="-4"
     inkscape:window-y="-4"
     inkscape:window-maximized="1"
     showguides="true"
     inkscape:guide-bbox="true"
     units="px"
     inkscape:measure-start="0,0"
     inkscape:measure-end="0,0" />
  <metadata
     id="metadata5">
    <rdf:RDF>
      <cc:Work
         rdf:about="">
        <dc:format>image/svg+xml</dc:format>
        <dc:type
           rdf:resource="http://purl.org/dc/dcmitype/StillImage" />
        <dc:title />
      </cc:Work>
    </rdf:RDF>
  </metadata>
  <g
     inkscape:label="Ebene 1"
     inkscape:groupmode="layer"
     id="layer1"
     transform="translate(0,-196.45833)">
    <path
       style="fill:#fafafa;fill-opacity:1;fill-rule:evenodd;stroke:none;stroke-width:0.06303117;stroke-miterlimit:4;stroke-dasharray:none;stroke-opacity:1"
       d="M -2.0290964e-4,196.45427 H 15.999797 v 100.5457 H -2.0290964e-4 Z"
       id="rect817"
       inkscape:connector-curvature="0" />
    <path
       style="fill:#f0f0f0;fill-opacity:1;fill-rule:evenodd;stroke:none;stroke-width:0.08879065;stroke-miterlimit:4;stroke-dasharray:none;stroke-opacity:1"
       d="M -2.0290964e-4,196.45427 H 31.749797 v 100.5457 H -2.0290964e-4 Z"
       id="rect817-9"
       inkscape:connector-curvature="0" />
    <g
       inkscape:transform-center-y="119.65244"
       inkscape:transform-center-x="-44.974764"
       id="g1358"
       transform="matrix(1.4311608,-1.4311608,1.4311608,1.4311608,-223.13797,-293.88752)"
       style="opacity:1;fill:#d6d6d6;fill-opacity:0.8">
      <g
         id="g1356"
         style="fill:#d6d6d6;fill-opacity:0.8">
        <g
           id="g1324"
           transform="translate(185.73646,-9.5250064)"
           style="fill:#d6d6d6;fill-opacity:0.8">
          <g
             transform="translate(-137.10274)"
             id="g1308"
             style="fill:#d6d6d6;fill-opacity:0.8">
            <path
               inkscape:connector-curvature="0"
               style="opacity:1;fill:#d6d6d6;fill-opacity:0.8;fill-rule:nonzero;stroke:none;stroke-width:6.9784193;stroke-linecap:round;stroke-linejoin:miter;stroke-miterlimit:4;stroke-dasharray:none;stroke-dashoffset:0;stroke-opacity:1;paint-order:markers stroke fill"
               d="m -718.94922,154.57227 c -14.32932,0.45458 -33.60356,20.71937 -31.29883,34.27148 -2.45838,14.45558 19.63622,36.55017 34.0918,34.0918 h 134.0918 v -9.0918 h -100.00196 v -25 c 2.45839,-14.4556 -19.63425,-36.54823 -34.08984,-34.08984 -0.90347,-0.15365 -1.83768,-0.21195 -2.79297,-0.18164 z m 1.00586,8.95898 c 0.63005,0.0232 1.22828,0.12471 1.78711,0.3125 8.94127,-3.00469 28.00471,16.05874 25,25 v 25 h -25 c -8.94126,3.00469 -28.00469,-16.05873 -25,-25 -2.8169,-8.38244 13.76214,-25.66117 23.21289,-25.3125 z m 26.78711,150.3125 v 9.0918 h 9.08984 v -9.0918 z"
               transform="matrix(0.26458333,0,0,0.26458333,0,196.45832)"
               id="path1296" />
            <path
               inkscape:connector-curvature="0"
               style="opacity:1;fill:#d6d6d6;fill-opacity:0.8;fill-rule:nonzero;stroke:none;stroke-width:6.9784193;stroke-linecap:round;stroke-linejoin:miter;stroke-miterlimit:4;stroke-dasharray:none;stroke-dashoffset:0;stroke-opacity:1;paint-order:markers stroke fill"
               d="m -718.55273,136.5293 c -24.81903,0.43381 -51.20004,27.62664 -49.87696,52.31445 -1.36576,25.48418 26.78925,53.63919 52.27344,52.27344 h 134.0918 v -9.0918 h -134.0918 c -19.96987,1.91207 -45.09371,-23.21177 -43.18164,-43.18164 -1.91207,-19.96987 23.21177,-45.0937 43.18164,-43.18164 19.96988,-1.91208 45.09374,23.21176 43.18164,43.18164 v 25 h 9.0918 v -25 c 1.36576,-25.4842 -26.78924,-53.63725 -52.27344,-52.27148 -0.79638,-0.0427 -1.59587,-0.057 -2.39648,-0.043 z m 45.57812,177.31445 v 9.0918 h 9.0918 v -9.0918 z"
               transform="matrix(0.26458333,0,0,0.26458333,0,196.45832)"
               id="path1298" />
            <path
               inkscape:connector-curvature="0"
               style="opacity:1;fill:#d6d6d6;fill-opacity:0.8;fill-rule:nonzero;stroke:none;stroke-width:6.9784193;stroke-linecap:round;stroke-linejoin:miter;stroke-miterlimit:4;stroke-dasharray:none;stroke-dashoffset:0;stroke-opacity:1;paint-order:markers stroke fill"
               d="m -716.15625,118.38867 c -36.51277,-0.27315 -70.72823,33.94231 -70.45508,70.45508 -0.27315,36.51277 33.94231,70.72822 70.45508,70.45508 h 134.0918 v -9.0918 h -134.0918 c -30.99848,0.81946 -62.18274,-30.3648 -61.36328,-61.36328 -0.81946,-30.99848 30.3648,-62.18273 61.36328,-61.36328 30.9985,-0.81946 62.18277,30.36478 61.36328,61.36328 v 25 h 9.0918 v -25 c 0.27315,-36.51278 -33.94229,-70.72823 -70.45508,-70.45508 z m 61.36328,195.45508 v 9.0918 h 9.0918 v -9.0918 z"
               transform="matrix(0.26458333,0,0,0.26458333,0,196.45832)"
               id="path1300" />
            <path
               inkscape:connector-curvature="0"
               style="opacity:1;fill:#d6d6d6;fill-opacity:0.8;fill-rule:nonzero;stroke:none;stroke-width:6.9784193;stroke-linecap:round;stroke-linejoin:miter;stroke-miterlimit:4;stroke-dasharray:none;stroke-dashoffset:0;stroke-opacity:1;paint-order:markers stroke fill"
               d="m -716.15625,100.20703 c -47.54138,0.81946 -87.81726,41.09534 -88.63672,88.63672 0.81946,47.54137 41.09535,87.81724 88.63672,88.63672 h 134.0918 v -9.0918 h -134.0918 v 0.002 c -42.02709,-0.27313 -79.27177,-37.51979 -79.54492,-79.54687 0.27315,-42.02708 37.51784,-79.27175 79.54492,-79.54492 42.02711,0.27315 79.2718,37.51781 79.54492,79.54492 v 25 h 9.0918 v -25 c -0.81947,-47.54138 -41.09532,-87.81726 -88.63672,-88.63672 z m 79.54492,213.63672 v 9.0918 h 9.0918 v -9.0918 z"
               transform="matrix(0.26458333,0,0,0.26458333,0,196.45832)"
               id="path1302" />
            <path
               inkscape:connector-curvature="0"
               style="opacity:1;fill:#d6d6d6;fill-opacity:0.8;fill-rule:nonzero;stroke:none;stroke-width:6.9784193;stroke-linecap:round;stroke-linejoin:miter;stroke-miterlimit:4;stroke-dasharray:none;stroke-dashoffset:0;stroke-opacity:1;paint-order:markers stroke fill"
               d="m -716.15625,82.025391 c -58.56997,1.912073 -104.90628,48.248379 -106.81836,106.818359 1.91207,58.56996 48.2484,104.90626 106.81836,106.81836 h 134.0918 v -9.08984 h -134.0918 c -53.05565,-1.36577 -96.3608,-44.67288 -97.72656,-97.72852 1.36576,-53.05564 44.67093,-96.360781 97.72656,-97.726562 53.05567,1.365765 96.36083,44.670882 97.72656,97.726562 v 25 h 9.0918 v -25 C -611.24997,130.27379 -657.58625,83.937471 -716.15625,82.025391 Z m 97.72656,231.818359 v 9.0918 h 9.0918 v -9.0918 z"
               transform="matrix(0.26458333,0,0,0.26458333,0,196.45832)"
               id="path1304" />
            <path
               inkscape:connector-curvature="0"
               style="opacity:1;fill:#d6d6d6;fill-opacity:0.8;fill-rule:nonzero;stroke:none;stroke-width:6.9784193;stroke-linecap:round;stroke-linejoin:miter;stroke-miterlimit:4;stroke-dasharray:none;stroke-dashoffset:0;stroke-opacity:1;paint-order:markers stroke fill"
               d="m -716.15625,63.84375 c -69.59855,3.004689 -121.99531,55.40145 -125,125 3.00469,69.59853 55.40147,121.99529 125,125 h 115.9082 v 9.0918 h 9.0918 v -9.0918 h 9.0918 v -9.08984 h -134.0918 c -64.08426,-2.45838 -113.45177,-51.82592 -115.91016,-115.91016 2.45839,-64.08424 51.82592,-113.449802 115.91016,-115.908203 64.08428,2.458384 113.44986,51.823903 115.9082,115.908203 v 25 h 9.0918 v -25 c -3.0047,-69.59854 -55.40142,-121.99531 -125,-125 z"
               transform="matrix(0.26458333,0,0,0.26458333,0,196.45832)"
               id="path1306" />
          </g>
          <g
             transform="rotate(90,-222.55592,213.35031)"
             id="g1322"
             style="fill:#d6d6d6;fill-opacity:0.8">
            <path
               inkscape:connector-curvature="0"
               id="path1310"
               transform="matrix(0.26458333,0,0,0.26458333,0,196.45832)"
               d="m -718.94922,154.57227 c -14.32932,0.45458 -33.60356,20.71937 -31.29883,34.27148 -2.45838,14.45558 19.63622,36.55017 34.0918,34.0918 h 134.0918 v -9.0918 h -100.00196 v -25 c 2.45839,-14.4556 -19.63425,-36.54823 -34.08984,-34.08984 -0.90347,-0.15365 -1.83768,-0.21195 -2.79297,-0.18164 z m 1.00586,8.95898 c 0.63005,0.0232 1.22828,0.12471 1.78711,0.3125 8.94127,-3.00469 28.00471,16.05874 25,25 v 25 h -25 c -8.94126,3.00469 -28.00469,-16.05873 -25,-25 -2.8169,-8.38244 13.76214,-25.66117 23.21289,-25.3125 z m 26.78711,150.3125 v 9.0918 h 9.08984 v -9.0918 z"
               style="opacity:1;fill:#d6d6d6;fill-opacity:0.8;fill-rule:nonzero;stroke:none;stroke-width:6.9784193;stroke-linecap:round;stroke-linejoin:miter;stroke-miterlimit:4;stroke-dasharray:none;stroke-dashoffset:0;stroke-opacity:1;paint-order:markers stroke fill" />
            <path
               inkscape:connector-curvature="0"
               id="path1312"
               transform="matrix(0.26458333,0,0,0.26458333,0,196.45832)"
               d="m -718.55273,136.5293 c -24.81903,0.43381 -51.20004,27.62664 -49.87696,52.31445 -1.36576,25.48418 26.78925,53.63919 52.27344,52.27344 h 134.0918 v -9.0918 h -134.0918 c -19.96987,1.91207 -45.09371,-23.21177 -43.18164,-43.18164 -1.91207,-19.96987 23.21177,-45.0937 43.18164,-43.18164 19.96988,-1.91208 45.09374,23.21176 43.18164,43.18164 v 25 h 9.0918 v -25 c 1.36576,-25.4842 -26.78924,-53.63725 -52.27344,-52.27148 -0.79638,-0.0427 -1.59587,-0.057 -2.39648,-0.043 z m 45.57812,177.31445 v 9.0918 h 9.0918 v -9.0918 z"
               style="opacity:1;fill:#d6d6d6;fill-opacity:0.8;fill-rule:nonzero;stroke:none;stroke-width:6.9784193;stroke-linecap:round;stroke-linejoin:miter;stroke-miterlimit:4;stroke-dasharray:none;stroke-dashoffset:0;stroke-opacity:1;paint-order:markers stroke fill" />
            <path
               inkscape:connector-curvature="0"
               id="path1314"
               transform="matrix(0.26458333,0,0,0.26458333,0,196.45832)"
               d="m -716.15625,118.38867 c -36.51277,-0.27315 -70.72823,33.94231 -70.45508,70.45508 -0.27315,36.51277 33.94231,70.72822 70.45508,70.45508 h 134.0918 v -9.0918 h -134.0918 c -30.99848,0.81946 -62.18274,-30.3648 -61.36328,-61.36328 -0.81946,-30.99848 30.3648,-62.18273 61.36328,-61.36328 30.9985,-0.81946 62.18277,30.36478 61.36328,61.36328 v 25 h 9.0918 v -25 c 0.27315,-36.51278 -33.94229,-70.72823 -70.45508,-70.45508 z m 61.36328,195.45508 v 9.0918 h 9.0918 v -9.0918 z"
               style="opacity:1;fill:#d6d6d6;fill-opacity:0.8;fill-rule:nonzero;stroke:none;stroke-width:6.9784193;stroke-linecap:round;stroke-linejoin:miter;stroke-miterlimit:4;stroke-dasharray:none;stroke-dashoffset:0;stroke-opacity:1;paint-order:markers stroke fill" />
            <path
               inkscape:connector-curvature="0"
               id="path1316"
               transform="matrix(0.26458333,0,0,0.26458333,0,196.45832)"
               d="m -716.15625,100.20703 c -47.54138,0.81946 -87.81726,41.09534 -88.63672,88.63672 0.81946,47.54137 41.09535,87.81724 88.63672,88.63672 h 134.0918 v -9.0918 h -134.0918 v 0.002 c -42.02709,-0.27313 -79.27177,-37.51979 -79.54492,-79.54687 0.27315,-42.02708 37.51784,-79.27175 79.54492,-79.54492 42.02711,0.27315 79.2718,37.51781 79.54492,79.54492 v 25 h 9.0918 v -25 c -0.81947,-47.54138 -41.09532,-87.81726 -88.63672,-88.63672 z m 79.54492,213.63672 v 9.0918 h 9.0918 v -9.0918 z"
               style="opacity:1;fill:#d6d6d6;fill-opacity:0.8;fill-rule:nonzero;stroke:none;stroke-width:6.9784193;stroke-linecap:round;stroke-linejoin:miter;stroke-miterlimit:4;stroke-dasharray:none;stroke-dashoffset:0;stroke-opacity:1;paint-order:markers stroke fill" />
            <path
               inkscape:connector-curvature="0"
               id="path1318"
               transform="matrix(0.26458333,0,0,0.26458333,0,196.45832)"
               d="m -716.15625,82.025391 c -58.56997,1.912073 -104.90628,48.248379 -106.81836,106.818359 1.91207,58.56996 48.2484,104.90626 106.81836,106.81836 h 134.0918 v -9.08984 h -134.0918 c -53.05565,-1.36577 -96.3608,-44.67288 -97.72656,-97.72852 1.36576,-53.05564 44.67093,-96.360781 97.72656,-97.726562 53.05567,1.365765 96.36083,44.670882 97.72656,97.726562 v 25 h 9.0918 v -25 C -611.24997,130.27379 -657.58625,83.937471 -716.15625,82.025391 Z m 97.72656,231.818359 v 9.0918 h 9.0918 v -9.0918 z"
               style="opacity:1;fill:#d6d6d6;fill-opacity:0.8;fill-rule:nonzero;stroke:none;stroke-width:6.9784193;stroke-linecap:round;stroke-linejoin:miter;stroke-miterlimit:4;stroke-dasharray:none;stroke-dashoffset:0;stroke-opacity:1;paint-order:markers stroke fill" />
            <path
               inkscape:connector-curvature="0"
               id="path1320"
               transform="matrix(0.26458333,0,0,0.26458333,0,196.45832)"
               d="m -716.15625,63.84375 c -69.59855,3.004689 -121.99531,55.40145 -125,125 3.00469,69.59853 55.40147,121.99529 125,125 h 115.9082 v 9.0918 h 9.0918 v -9.0918 h 9.0918 v -9.08984 h -134.0918 c -64.08426,-2.45838 -113.45177,-51.82592 -115.91016,-115.91016 2.45839,-64.08424 51.82592,-113.449802 115.91016,-115.908203 64.08428,2.458384 113.44986,51.823903 115.9082,115.908203 v 25 h 9.0918 v -25 c -3.0047,-69.59854 -55.40142,-121.99531 -125,-125 z"
               style="opacity:1;fill:#d6d6d6;fill-opacity:0.8;fill-rule:nonzero;stroke:none;stroke-width:6.9784193;stroke-linecap:round;stroke-linejoin:miter;stroke-miterlimit:4;stroke-dasharray:none;stroke-dashoffset:0;stroke-opacity:1;paint-order:markers stroke fill" />
          </g>
        </g>
        <g
           transform="rotate(-180,-198.23854,277.13918)"
           id="g1354"
           style="fill:#d6d6d6;fill-opacity:0.8">
          <g
             id="g1338"
             transform="translate(-137.10274)"
             style="fill:#d6d6d6;fill-opacity:0.8">
            <path
               id="path1326"
               transform="matrix(0.26458333,0,0,0.26458333,0,196.45832)"
               d="m -718.94922,154.57227 c -14.32932,0.45458 -33.60356,20.71937 -31.29883,34.27148 -2.45838,14.45558 19.63622,36.55017 34.0918,34.0918 h 134.0918 v -9.0918 h -100.00196 v -25 c 2.45839,-14.4556 -19.63425,-36.54823 -34.08984,-34.08984 -0.90347,-0.15365 -1.83768,-0.21195 -2.79297,-0.18164 z m 1.00586,8.95898 c 0.63005,0.0232 1.22828,0.12471 1.78711,0.3125 8.94127,-3.00469 28.00471,16.05874 25,25 v 25 h -25 c -8.94126,3.00469 -28.00469,-16.05873 -25,-25 -2.8169,-8.38244 13.76214,-25.66117 23.21289,-25.3125 z m 26.78711,150.3125 v 9.0918 h 9.08984 v -9.0918 z"
               style="opacity:1;fill:#d6d6d6;fill-opacity:0.8;fill-rule:nonzero;stroke:none;stroke-width:6.9784193;stroke-linecap:round;stroke-linejoin:miter;stroke-miterlimit:4;stroke-dasharray:none;stroke-dashoffset:0;stroke-opacity:1;paint-order:markers stroke fill"
               inkscape:connector-curvature="0" />
            <path
               id="path1328"
               transform="matrix(0.26458333,0,0,0.26458333,0,196.45832)"
               d="m -718.55273,136.5293 c -24.81903,0.43381 -51.20004,27.62664 -49.87696,52.31445 -1.36576,25.48418 26.78925,53.63919 52.27344,52.27344 h 134.0918 v -9.0918 h -134.0918 c -19.96987,1.91207 -45.09371,-23.21177 -43.18164,-43.18164 -1.91207,-19.96987 23.21177,-45.0937 43.18164,-43.18164 19.96988,-1.91208 45.09374,23.21176 43.18164,43.18164 v 25 h 9.0918 v -25 c 1.36576,-25.4842 -26.78924,-53.63725 -52.27344,-52.27148 -0.79638,-0.0427 -1.59587,-0.057 -2.39648,-0.043 z m 45.57812,177.31445 v 9.0918 h 9.0918 v -9.0918 z"
               style="opacity:1;fill:#d6d6d6;fill-opacity:0.8;fill-rule:nonzero;stroke:none;stroke-width:6.9784193;stroke-linecap:round;stroke-linejoin:miter;stroke-miterlimit:4;stroke-dasharray:none;stroke-dashoffset:0;stroke-opacity:1;paint-order:markers stroke fill"
               inkscape:connector-curvature="0" />
            <path
               id="path1330"
               transform="matrix(0.26458333,0,0,0.26458333,0,196.45832)"
               d="m -716.15625,118.38867 c -36.51277,-0.27315 -70.72823,33.94231 -70.45508,70.45508 -0.27315,36.51277 33.94231,70.72822 70.45508,70.45508 h 134.0918 v -9.0918 h -134.0918 c -30.99848,0.81946 -62.18274,-30.3648 -61.36328,-61.36328 -0.81946,-30.99848 30.3648,-62.18273 61.36328,-61.36328 30.9985,-0.81946 62.18277,30.36478 61.36328,61.36328 v 25 h 9.0918 v -25 c 0.27315,-36.51278 -33.94229,-70.72823 -70.45508,-70.45508 z m 61.36328,195.45508 v 9.0918 h 9.0918 v -9.0918 z"
               style="opacity:1;fill:#d6d6d6;fill-opacity:0.8;fill-rule:nonzero;stroke:none;stroke-width:6.9784193;stroke-linecap:round;stroke-linejoin:miter;stroke-miterlimit:4;stroke-dasharray:none;stroke-dashoffset:0;stroke-opacity:1;paint-order:markers stroke fill"
               inkscape:connector-curvature="0" />
            <path
               id="path1332"
               transform="matrix(0.26458333,0,0,0.26458333,0,196.45832)"
               d="m -716.15625,100.20703 c -47.54138,0.81946 -87.81726,41.09534 -88.63672,88.63672 0.81946,47.54137 41.09535,87.81724 88.63672,88.63672 h 134.0918 v -9.0918 h -134.0918 v 0.002 c -42.02709,-0.27313 -79.27177,-37.51979 -79.54492,-79.54687 0.27315,-42.02708 37.51784,-79.27175 79.54492,-79.54492 42.02711,0.27315 79.2718,37.51781 79.54492,79.54492 v 25 h 9.0918 v -25 c -0.81947,-47.54138 -41.09532,-87.81726 -88.63672,-88.63672 z m 79.54492,213.63672 v 9.0918 h 9.0918 v -9.0918 z"
               style="opacity:1;fill:#d6d6d6;fill-opacity:0.8;fill-rule:nonzero;stroke:none;stroke-width:6.9784193;stroke-linecap:round;stroke-linejoin:miter;stroke-miterlimit:4;stroke-dasharray:none;stroke-dashoffset:0;stroke-opacity:1;paint-order:markers stroke fill"
               inkscape:connector-curvature="0" />
            <path
               id="path1334"
               transform="matrix(0.26458333,0,0,0.26458333,0,196.45832)"
               d="m -716.15625,82.025391 c -58.56997,1.912073 -104.90628,48.248379 -106.81836,106.818359 1.91207,58.56996 48.2484,104.90626 106.81836,106.81836 h 134.0918 v -9.08984 h -134.0918 c -53.05565,-1.36577 -96.3608,-44.67288 -97.72656,-97.72852 1.36576,-53.05564 44.67093,-96.360781 97.72656,-97.726562 53.05567,1.365765 96.36083,44.670882 97.72656,97.726562 v 25 h 9.0918 v -25 C -611.24997,130.27379 -657.58625,83.937471 -716.15625,82.025391 Z m 97.72656,231.818359 v 9.0918 h 9.0918 v -9.0918 z"
               style="opacity:1;fill:#d6d6d6;fill-opacity:0.8;fill-rule:nonzero;stroke:none;stroke-width:6.9784193;stroke-linecap:round;stroke-linejoin:miter;stroke-miterlimit:4;stroke-dasharray:none;stroke-dashoffset:0;stroke-opacity:1;paint-order:markers stroke fill"
               inkscape:connector-curvature="0" />
            <path
               id="path1336"
               transform="matrix(0.26458333,0,0,0.26458333,0,196.45832)"
               d="m -716.15625,63.84375 c -69.59855,3.004689 -121.99531,55.40145 -125,125 3.00469,69.59853 55.40147,121.99529 125,125 h 115.9082 v 9.0918 h 9.0918 v -9.0918 h 9.0918 v -9.08984 h -134.0918 c -64.08426,-2.45838 -113.45177,-51.82592 -115.91016,-115.91016 2.45839,-64.08424 51.82592,-113.449802 115.91016,-115.908203 64.08428,2.458384 113.44986,51.823903 115.9082,115.908203 v 25 h 9.0918 v -25 c -3.0047,-69.59854 -55.40142,-121.99531 -125,-125 z"
               style="opacity:1;fill:#d6d6d6;fill-opacity:0.8;fill-rule:nonzero;stroke:none;stroke-width:6.9784193;stroke-linecap:round;stroke-linejoin:miter;stroke-miterlimit:4;stroke-dasharray:none;stroke-dashoffset:0;stroke-opacity:1;paint-order:markers stroke fill"
               inkscape:connector-curvature="0" />
          </g>
          <g
             id="g1352"
             transform="rotate(90,-222.55592,213.35031)"
             style="fill:#d6d6d6;fill-opacity:0.8">
            <path
               style="opacity:1;fill:#d6d6d6;fill-opacity:0.8;fill-rule:nonzero;stroke:none;stroke-width:6.9784193;stroke-linecap:round;stroke-linejoin:miter;stroke-miterlimit:4;stroke-dasharray:none;stroke-dashoffset:0;stroke-opacity:1;paint-order:markers stroke fill"
               d="m -718.94922,154.57227 c -14.32932,0.45458 -33.60356,20.71937 -31.29883,34.27148 -2.45838,14.45558 19.63622,36.55017 34.0918,34.0918 h 134.0918 v -9.0918 h -100.00196 v -25 c 2.45839,-14.4556 -19.63425,-36.54823 -34.08984,-34.08984 -0.90347,-0.15365 -1.83768,-0.21195 -2.79297,-0.18164 z m 1.00586,8.95898 c 0.63005,0.0232 1.22828,0.12471 1.78711,0.3125 8.94127,-3.00469 28.00471,16.05874 25,25 v 25 h -25 c -8.94126,3.00469 -28.00469,-16.05873 -25,-25 -2.8169,-8.38244 13.76214,-25.66117 23.21289,-25.3125 z m 26.78711,150.3125 v 9.0918 h 9.08984 v -9.0918 z"
               transform="matrix(0.26458333,0,0,0.26458333,0,196.45832)"
               id="path1340"
               inkscape:connector-curvature="0" />
            <path
               style="opacity:1;fill:#d6d6d6;fill-opacity:0.8;fill-rule:nonzero;stroke:none;stroke-width:6.9784193;stroke-linecap:round;stroke-linejoin:miter;stroke-miterlimit:4;stroke-dasharray:none;stroke-dashoffset:0;stroke-opacity:1;paint-order:markers stroke fill"
               d="m -718.55273,136.5293 c -24.81903,0.43381 -51.20004,27.62664 -49.87696,52.31445 -1.36576,25.48418 26.78925,53.63919 52.27344,52.27344 h 134.0918 v -9.0918 h -134.0918 c -19.96987,1.91207 -45.09371,-23.21177 -43.18164,-43.18164 -1.91207,-19.96987 23.21177,-45.0937 43.18164,-43.18164 19.96988,-1.91208 45.09374,23.21176 43.18164,43.18164 v 25 h 9.0918 v -25 c 1.36576,-25.4842 -26.78924,-53.63725 -52.27344,-52.27148 -0.79638,-0.0427 -1.59587,-0.057 -2.39648,-0.043 z m 45.57812,177.31445 v 9.0918 h 9.0918 v -9.0918 z"
               transform="matrix(0.26458333,0,0,0.26458333,0,196.45832)"
               id="path1342"
               inkscape:connector-curvature="0" />
            <path
               style="opacity:1;fill:#d6d6d6;fill-opacity:0.8;fill-rule:nonzero;stroke:none;stroke-width:6.9784193;stroke-linecap:round;stroke-linejoin:miter;stroke-miterlimit:4;stroke-dasharray:none;stroke-dashoffset:0;stroke-opacity:1;paint-order:markers stroke fill"
               d="m -716.15625,118.38867 c -36.51277,-0.27315 -70.72823,33.94231 -70.45508,70.45508 -0.27315,36.51277 33.94231,70.72822 70.45508,70.45508 h 134.0918 v -9.0918 h -134.0918 c -30.99848,0.81946 -62.18274,-30.3648 -61.36328,-61.36328 -0.81946,-30.99848 30.3648,-62.18273 61.36328,-61.36328 30.9985,-0.81946 62.18277,30.36478 61.36328,61.36328 v 25 h 9.0918 v -25 c 0.27315,-36.51278 -33.94229,-70.72823 -70.45508,-70.45508 z m 61.36328,195.45508 v 9.0918 h 9.0918 v -9.0918 z"
               transform="matrix(0.26458333,0,0,0.26458333,0,196.45832)"
               id="path1344"
               inkscape:connector-curvature="0" />
            <path
               style="opacity:1;fill:#d6d6d6;fill-opacity:0.8;fill-rule:nonzero;stroke:none;stroke-width:6.9784193;stroke-linecap:round;stroke-linejoin:miter;stroke-miterlimit:4;stroke-dasharray:none;stroke-dashoffset:0;stroke-opacity:1;paint-order:markers stroke fill"
               d="m -716.15625,100.20703 c -47.54138,0.81946 -87.81726,41.09534 -88.63672,88.63672 0.81946,47.54137 41.09535,87.81724 88.63672,88.63672 h 134.0918 v -9.0918 h -134.0918 v 0.002 c -42.02709,-0.27313 -79.27177,-37.51979 -79.54492,-79.54687 0.27315,-42.02708 37.51784,-79.27175 79.54492,-79.54492 42.02711,0.27315 79.2718,37.51781 79.54492,79.54492 v 25 h 9.0918 v -25 c -0.81947,-47.54138 -41.09532,-87.81726 -88.63672,-88.63672 z m 79.54492,213.63672 v 9.0918 h 9.0918 v -9.0918 z"
               transform="matrix(0.26458333,0,0,0.26458333,0,196.45832)"
               id="path1346"
               inkscape:connector-curvature="0" />
            <path
               style="opacity:1;fill:#d6d6d6;fill-opacity:0.8;fill-rule:nonzero;stroke:none;stroke-width:6.9784193;stroke-linecap:round;stroke-linejoin:miter;stroke-miterlimit:4;stroke-dasharray:none;stroke-dashoffset:0;stroke-opacity:1;paint-order:markers stroke fill"
               d="m -716.15625,82.025391 c -58.56997,1.912073 -104.90628,48.248379 -106.81836,106.818359 1.91207,58.56996 48.2484,104.90626 106.81836,106.81836 h 134.0918 v -9.08984 h -134.0918 c -53.05565,-1.36577 -96.3608,-44.67288 -97.72656,-97.72852 1.36576,-53.05564 44.67093,-96.360781 97.72656,-97.726562 53.05567,1.365765 96.36083,44.670882 97.72656,97.726562 v 25 h 9.0918 v -25 C -611.24997,130.27379 -657.58625,83.937471 -716.15625,82.025391 Z m 97.72656,231.818359 v 9.0918 h 9.0918 v -9.0918 z"
               transform="matrix(0.26458333,0,0,0.26458333,0,196.45832)"
               id="path1348"
               inkscape:connector-curvature="0" />
            <path
               style="opacity:1;fill:#d6d6d6;fill-opacity:0.8;fill-rule:nonzero;stroke:none;stroke-width:6.9784193;stroke-linecap:round;stroke-linejoin:miter;stroke-miterlimit:4;stroke-dasharray:none;stroke-dashoffset:0;stroke-opacity:1;paint-order:markers stroke fill"
               d="m -716.15625,63.84375 c -69.59855,3.004689 -121.99531,55.40145 -125,125 3.00469,69.59853 55.40147,121.99529 125,125 h 115.9082 v 9.0918 h 9.0918 v -9.0918 h 9.0918 v -9.08984 h -134.0918 c -64.08426,-2.45838 -113.45177,-51.82592 -115.91016,-115.91016 2.45839,-64.08424 51.82592,-113.449802 115.91016,-115.908203 64.08428,2.458384 113.44986,51.823903 115.9082,115.908203 v 25 h 9.0918 v -25 c -3.0047,-69.59854 -55.40142,-121.99531 -125,-125 z"
               transform="matrix(0.26458333,0,0,0.26458333,0,196.45832)"
               id="path1350"
               inkscape:connector-curvature="0" />
          </g>
        </g>
      </g>
    </g>
    <flowRoot
       xml:space="preserve"
       id="flowRoot858"
       style="font-style:normal;font-weight:normal;font-size:40px;line-height:1.25;font-family:sans-serif;letter-spacing:0px;word-spacing:0px;fill:#000000;fill-opacity:1;stroke:none"><flowRegion
         id="flowRegion860"><rect
           id="rect862"
           width="29.5"
           height="176.5"
           x="-118.5"
           y="330.45276" /></flowRegion><flowPara
         id="flowPara864" /></flowRoot>    <flowRoot
       xml:space="preserve"
       id="flowRoot833"
       style="font-style:normal;font-weight:normal;font-size:40px;line-height:1.25;font-family:sans-serif;letter-spacing:0px;word-spacing:0px;fill:#000000;fill-opacity:1;stroke:none"><flowRegion
         id="flowRegion835"><rect
           id="rect837"
           width="101.99999"
           height="45.499996"
           x="-29.499998"
           y="71.452774" /></flowRegion><flowPara
         id="flowPara839" /></flowRoot>    <flowRoot
       xml:space="preserve"
       id="flowRoot864"
       style="font-style:normal;font-weight:normal;font-size:40px;line-height:1.25;font-family:sans-serif;letter-spacing:0px;word-spacing:0px;fill:#000000;fill-opacity:1;stroke:none"><flowRegion
         id="flowRegion866"><rect
           id="rect868"
           width="123.533"
           height="47.711498"
           x="55.011463"
           y="27.95311" /></flowRegion><flowPara
         id="flowPara870" /></flowRoot>    <g
       transform="matrix(0.29362738,0,0,0.29362738,16.711673,244.59608)"
       id="g11309">
      <g
         id="text11303"
         style="font-style:normal;font-weight:normal;font-size:10.58333302px;line-height:1.25;font-family:sans-serif;letter-spacing:0px;word-spacing:0px;fill:#000000;fill-opacity:1;stroke:none;stroke-width:0.26458332"
         aria-label="MS">
        <path
           inkscape:connector-curvature="0"
           id="path1043"
           style="font-style:normal;font-variant:normal;font-weight:normal;font-stretch:normal;font-family:Strasua;-inkscape-font-specification:Strasua;stroke-width:0.26458332"
           d="m -13.102167,168.46541 q 0.148166,-0.23284 0.370416,-0.32809 0.22225,-0.10583 0.455084,-0.10583 0.275166,0 0.4445,0.20108 0.169333,0.1905 0.169333,0.51859 v 5.02708 l 3.5348333,-5.31283 q 0.1481667,-0.23284 0.3598333,-0.32809 0.22225,-0.10583 0.4656667,-0.10583 0.2751666,0 0.4445,0.20108 0.1693333,0.1905 0.1693333,0.51859 v 7.59883 h -1.4393333 v -5.57742 l -3.2173333,5.08 q -0.179917,0.28575 -0.391583,0.39159 -0.211667,0.10583 -0.433917,0.10583 -0.1905,0 -0.359833,-0.0635 -0.169334,-0.0741 -0.296334,-0.20108 -0.127,-0.127 -0.201083,-0.29634 -0.07408,-0.16933 -0.07408,-0.381 v -4.6355 l -3.534833,5.57742 h -1.7145 z" />
        <path
           inkscape:connector-curvature="0"
           id="path1045"
           style="font-style:normal;font-variant:normal;font-weight:normal;font-stretch:normal;font-family:Strasua;-inkscape-font-specification:Strasua;stroke-width:0.26458332"
           d="m -5.7073936,176.34999 v -1.43933 h 2.8892499 q 0.66675,0 1.1006666,-0.3175 0.4339167,-0.3175 0.4339167,-0.8255 0,-0.254 -0.1164167,-0.46567 -0.1164167,-0.21167 -0.3175,-0.35983 -0.2010833,-0.15875 -0.4868333,-0.24342 -0.28575,-0.0847 -0.6138333,-0.0847 h -0.6561667 q -0.5079999,0 -0.9419166,-0.15875 -0.4339167,-0.16933 -0.7514166,-0.46566 -0.3175,-0.30692 -0.4974167,-0.70909 -0.1799167,-0.41275 -0.1799167,-0.91016 0,-0.48684 0.1799167,-0.89959 0.1905,-0.41275 0.5291667,-0.71966 0.3386666,-0.30692 0.8149166,-0.47625 0.47625,-0.17992 1.04775,-0.17992 h 2.74108322 v 1.43933 H -3.3473104 q -0.4550833,0 -0.7196666,0.254 -0.2645833,0.24342 -0.2645833,0.59267 0,0.381 0.2645833,0.635 0.2751666,0.254 0.7196666,0.254 h 0.8149167 q 0.5503333,0 1.0159999,0.1905 0.4656667,0.17992 0.80433336,0.51858 0.33866665,0.33867 0.52916665,0.80434 0.19049999,0.46566 0.19049999,1.016 0,0.56091 -0.20108333,1.02658 -0.20108332,0.46567 -0.58208331,0.80433 -0.37041666,0.33867 -0.88899996,0.52917 -0.5185833,0.1905 -1.1535833,0.1905 z" />
      </g>
      <g
         id="text11307"
         style="font-style:normal;font-weight:normal;font-size:10.58333302px;line-height:1.25;font-family:sans-serif;letter-spacing:0px;word-spacing:0px;fill:#000000;fill-opacity:1;stroke:none;stroke-width:0.26458332"
         transform="scale(-1,1)"
         aria-label="M">
        <path
           inkscape:connector-curvature="0"
           id="path1048"
           style="font-style:normal;font-variant:normal;font-weight:normal;font-stretch:normal;font-family:Strasua;-inkscape-font-specification:Strasua;stroke-width:0.26458332"
           d="m -7.4032889,168.46365 q 0.1481666,-0.23283 0.3704166,-0.32808 0.22225,-0.10583 0.4550834,-0.10583 0.2751666,0 0.4444999,0.20108 0.1693334,0.1905 0.1693334,0.51858 v 5.02709 l 3.5348332,-5.31284 q 0.1481667,-0.23283 0.3598333,-0.32808 0.22225,-0.10583 0.4656667,-0.10583 0.2751666,0 0.4445,0.20108 0.16933329,0.1905 0.16933329,0.51858 v 7.59884 H -2.4291224 v -5.57742 l -3.2173332,5.08 q -0.1799167,0.28575 -0.3915834,0.39158 -0.2116666,0.10584 -0.4339166,0.10584 -0.1905,0 -0.3598333,-0.0635 -0.1693334,-0.0741 -0.2963334,-0.20109 -0.127,-0.127 -0.2010833,-0.29633 -0.074083,-0.16933 -0.074083,-0.381 v -4.6355 l -3.5348334,5.57742 h -1.7145 z" />
      </g>
    </g>
    <g
       transform="matrix(0.09780609,-0.09780609,0.09780609,0.09780609,-111.72709,190.65965)"
       id="g11621">
      <g
         id="g11619">
        <g
           transform="translate(185.73646,-9.5250064)"
           id="g11587">
          <g
             id="g11571"
             transform="translate(-137.10274)">
            <path
               id="path11559"
               transform="matrix(0.26458333,0,0,0.26458333,0,196.45832)"
               d="m -718.94922,154.57227 c -14.32932,0.45458 -33.60356,20.71937 -31.29883,34.27148 -2.45838,14.45558 19.63622,36.55017 34.0918,34.0918 h 134.0918 v -9.0918 h -100.00196 v -25 c 2.45839,-14.4556 -19.63425,-36.54823 -34.08984,-34.08984 -0.90347,-0.15365 -1.83768,-0.21195 -2.79297,-0.18164 z m 1.00586,8.95898 c 0.63005,0.0232 1.22828,0.12471 1.78711,0.3125 8.94127,-3.00469 28.00471,16.05874 25,25 v 25 h -25 c -8.94126,3.00469 -28.00469,-16.05873 -25,-25 -2.8169,-8.38244 13.76214,-25.66117 23.21289,-25.3125 z m 26.78711,150.3125 v 9.0918 h 9.08984 v -9.0918 z"
               style="opacity:1;fill:#5320a5;fill-opacity:1;fill-rule:nonzero;stroke:none;stroke-width:6.9784193;stroke-linecap:round;stroke-linejoin:miter;stroke-miterlimit:4;stroke-dasharray:none;stroke-dashoffset:0;stroke-opacity:1;paint-order:markers stroke fill"
               inkscape:connector-curvature="0" />
            <path
               id="path11561"
               transform="matrix(0.26458333,0,0,0.26458333,0,196.45832)"
               d="m -718.55273,136.5293 c -24.81903,0.43381 -51.20004,27.62664 -49.87696,52.31445 -1.36576,25.48418 26.78925,53.63919 52.27344,52.27344 h 134.0918 v -9.0918 h -134.0918 c -19.96987,1.91207 -45.09371,-23.21177 -43.18164,-43.18164 -1.91207,-19.96987 23.21177,-45.0937 43.18164,-43.18164 19.96988,-1.91208 45.09374,23.21176 43.18164,43.18164 v 25 h 9.0918 v -25 c 1.36576,-25.4842 -26.78924,-53.63725 -52.27344,-52.27148 -0.79638,-0.0427 -1.59587,-0.057 -2.39648,-0.043 z m 45.57812,177.31445 v 9.0918 h 9.0918 v -9.0918 z"
               style="opacity:1;fill:#4545b5;fill-opacity:1;fill-rule:nonzero;stroke:none;stroke-width:6.9784193;stroke-linecap:round;stroke-linejoin:miter;stroke-miterlimit:4;stroke-dasharray:none;stroke-dashoffset:0;stroke-opacity:1;paint-order:markers stroke fill"
               inkscape:connector-curvature="0" />
            <path
               id="path11563"
               transform="matrix(0.26458333,0,0,0.26458333,0,196.45832)"
               d="m -716.15625,118.38867 c -36.51277,-0.27315 -70.72823,33.94231 -70.45508,70.45508 -0.27315,36.51277 33.94231,70.72822 70.45508,70.45508 h 134.0918 v -9.0918 h -134.0918 c -30.99848,0.81946 -62.18274,-30.3648 -61.36328,-61.36328 -0.81946,-30.99848 30.3648,-62.18273 61.36328,-61.36328 30.9985,-0.81946 62.18277,30.36478 61.36328,61.36328 v 25 h 9.0918 v -25 c 0.27315,-36.51278 -33.94229,-70.72823 -70.45508,-70.45508 z m 61.36328,195.45508 v 9.0918 h 9.0918 v -9.0918 z"
               style="opacity:1;fill:#6c8ada;fill-opacity:1;fill-rule:nonzero;stroke:none;stroke-width:6.9784193;stroke-linecap:round;stroke-linejoin:miter;stroke-miterlimit:4;stroke-dasharray:none;stroke-dashoffset:0;stroke-opacity:1;paint-order:markers stroke fill"
               inkscape:connector-curvature="0" />
            <path
               id="path11565"
               transform="matrix(0.26458333,0,0,0.26458333,0,196.45832)"
               d="m -716.15625,100.20703 c -47.54138,0.81946 -87.81726,41.09534 -88.63672,88.63672 0.81946,47.54137 41.09535,87.81724 88.63672,88.63672 h 134.0918 v -9.0918 h -134.0918 v 0.002 c -42.02709,-0.27313 -79.27177,-37.51979 -79.54492,-79.54687 0.27315,-42.02708 37.51784,-79.27175 79.54492,-79.54492 42.02711,0.27315 79.2718,37.51781 79.54492,79.54492 v 25 h 9.0918 v -25 c -0.81947,-47.54138 -41.09532,-87.81726 -88.63672,-88.63672 z m 79.54492,213.63672 v 9.0918 h 9.0918 v -9.0918 z"
               style="opacity:1;fill:#38d8d8;fill-opacity:1;fill-rule:nonzero;stroke:none;stroke-width:6.9784193;stroke-linecap:round;stroke-linejoin:miter;stroke-miterlimit:4;stroke-dasharray:none;stroke-dashoffset:0;stroke-opacity:1;paint-order:markers stroke fill"
               inkscape:connector-curvature="0" />
            <path
               id="path11567"
               transform="matrix(0.26458333,0,0,0.26458333,0,196.45832)"
               d="m -716.15625,82.025391 c -58.56997,1.912073 -104.90628,48.248379 -106.81836,106.818359 1.91207,58.56996 48.2484,104.90626 106.81836,106.81836 h 134.0918 v -9.08984 h -134.0918 c -53.05565,-1.36577 -96.3608,-44.67288 -97.72656,-97.72852 1.36576,-53.05564 44.67093,-96.360781 97.72656,-97.726562 53.05567,1.365765 96.36083,44.670882 97.72656,97.726562 v 25 h 9.0918 v -25 C -611.24997,130.27379 -657.58625,83.937471 -716.15625,82.025391 Z m 97.72656,231.818359 v 9.0918 h 9.0918 v -9.0918 z"
               style="opacity:1;fill:#3545d3;fill-opacity:1;fill-rule:nonzero;stroke:none;stroke-width:6.9784193;stroke-linecap:round;stroke-linejoin:miter;stroke-miterlimit:4;stroke-dasharray:none;stroke-dashoffset:0;stroke-opacity:1;paint-order:markers stroke fill"
               inkscape:connector-curvature="0" />
            <path
               id="path11569"
               transform="matrix(0.26458333,0,0,0.26458333,0,196.45832)"
               d="m -716.15625,63.84375 c -69.59855,3.004689 -121.99531,55.40145 -125,125 3.00469,69.59853 55.40147,121.99529 125,125 h 115.9082 v 9.0918 h 9.0918 v -9.0918 h 9.0918 v -9.08984 h -134.0918 c -64.08426,-2.45838 -113.45177,-51.82592 -115.91016,-115.91016 2.45839,-64.08424 51.82592,-113.449802 115.91016,-115.908203 64.08428,2.458384 113.44986,51.823903 115.9082,115.908203 v 25 h 9.0918 v -25 c -3.0047,-69.59854 -55.40142,-121.99531 -125,-125 z"
               style="opacity:1;fill:#5320a5;fill-opacity:1;fill-rule:nonzero;stroke:none;stroke-width:6.9784193;stroke-linecap:round;stroke-linejoin:miter;stroke-miterlimit:4;stroke-dasharray:none;stroke-dashoffset:0;stroke-opacity:1;paint-order:markers stroke fill"
               inkscape:connector-curvature="0" />
          </g>
          <g
             id="g11585"
             transform="rotate(90,-222.55592,213.35031)">
            <path
               style="opacity:1;fill:#5320a5;fill-opacity:1;fill-rule:nonzero;stroke:none;stroke-width:6.9784193;stroke-linecap:round;stroke-linejoin:miter;stroke-miterlimit:4;stroke-dasharray:none;stroke-dashoffset:0;stroke-opacity:1;paint-order:markers stroke fill"
               d="m -718.94922,154.57227 c -14.32932,0.45458 -33.60356,20.71937 -31.29883,34.27148 -2.45838,14.45558 19.63622,36.55017 34.0918,34.0918 h 134.0918 v -9.0918 h -100.00196 v -25 c 2.45839,-14.4556 -19.63425,-36.54823 -34.08984,-34.08984 -0.90347,-0.15365 -1.83768,-0.21195 -2.79297,-0.18164 z m 1.00586,8.95898 c 0.63005,0.0232 1.22828,0.12471 1.78711,0.3125 8.94127,-3.00469 28.00471,16.05874 25,25 v 25 h -25 c -8.94126,3.00469 -28.00469,-16.05873 -25,-25 -2.8169,-8.38244 13.76214,-25.66117 23.21289,-25.3125 z m 26.78711,150.3125 v 9.0918 h 9.08984 v -9.0918 z"
               transform="matrix(0.26458333,0,0,0.26458333,0,196.45832)"
               id="path11573"
               inkscape:connector-curvature="0" />
            <path
               style="opacity:1;fill:#4545b5;fill-opacity:1;fill-rule:nonzero;stroke:none;stroke-width:6.9784193;stroke-linecap:round;stroke-linejoin:miter;stroke-miterlimit:4;stroke-dasharray:none;stroke-dashoffset:0;stroke-opacity:1;paint-order:markers stroke fill"
               d="m -718.55273,136.5293 c -24.81903,0.43381 -51.20004,27.62664 -49.87696,52.31445 -1.36576,25.48418 26.78925,53.63919 52.27344,52.27344 h 134.0918 v -9.0918 h -134.0918 c -19.96987,1.91207 -45.09371,-23.21177 -43.18164,-43.18164 -1.91207,-19.96987 23.21177,-45.0937 43.18164,-43.18164 19.96988,-1.91208 45.09374,23.21176 43.18164,43.18164 v 25 h 9.0918 v -25 c 1.36576,-25.4842 -26.78924,-53.63725 -52.27344,-52.27148 -0.79638,-0.0427 -1.59587,-0.057 -2.39648,-0.043 z m 45.57812,177.31445 v 9.0918 h 9.0918 v -9.0918 z"
               transform="matrix(0.26458333,0,0,0.26458333,0,196.45832)"
               id="path11575"
               inkscape:connector-curvature="0" />
            <path
               style="opacity:1;fill:#6c8ada;fill-opacity:1;fill-rule:nonzero;stroke:none;stroke-width:6.9784193;stroke-linecap:round;stroke-linejoin:miter;stroke-miterlimit:4;stroke-dasharray:none;stroke-dashoffset:0;stroke-opacity:1;paint-order:markers stroke fill"
               d="m -716.15625,118.38867 c -36.51277,-0.27315 -70.72823,33.94231 -70.45508,70.45508 -0.27315,36.51277 33.94231,70.72822 70.45508,70.45508 h 134.0918 v -9.0918 h -134.0918 c -30.99848,0.81946 -62.18274,-30.3648 -61.36328,-61.36328 -0.81946,-30.99848 30.3648,-62.18273 61.36328,-61.36328 30.9985,-0.81946 62.18277,30.36478 61.36328,61.36328 v 25 h 9.0918 v -25 c 0.27315,-36.51278 -33.94229,-70.72823 -70.45508,-70.45508 z m 61.36328,195.45508 v 9.0918 h 9.0918 v -9.0918 z"
               transform="matrix(0.26458333,0,0,0.26458333,0,196.45832)"
               id="path11577"
               inkscape:connector-curvature="0" />
            <path
               style="opacity:1;fill:#38d8d8;fill-opacity:1;fill-rule:nonzero;stroke:none;stroke-width:6.9784193;stroke-linecap:round;stroke-linejoin:miter;stroke-miterlimit:4;stroke-dasharray:none;stroke-dashoffset:0;stroke-opacity:1;paint-order:markers stroke fill"
               d="m -716.15625,100.20703 c -47.54138,0.81946 -87.81726,41.09534 -88.63672,88.63672 0.81946,47.54137 41.09535,87.81724 88.63672,88.63672 h 134.0918 v -9.0918 h -134.0918 v 0.002 c -42.02709,-0.27313 -79.27177,-37.51979 -79.54492,-79.54687 0.27315,-42.02708 37.51784,-79.27175 79.54492,-79.54492 42.02711,0.27315 79.2718,37.51781 79.54492,79.54492 v 25 h 9.0918 v -25 c -0.81947,-47.54138 -41.09532,-87.81726 -88.63672,-88.63672 z m 79.54492,213.63672 v 9.0918 h 9.0918 v -9.0918 z"
               transform="matrix(0.26458333,0,0,0.26458333,0,196.45832)"
               id="path11579"
               inkscape:connector-curvature="0" />
            <path
               style="opacity:1;fill:#3545d3;fill-opacity:1;fill-rule:nonzero;stroke:none;stroke-width:6.9784193;stroke-linecap:round;stroke-linejoin:miter;stroke-miterlimit:4;stroke-dasharray:none;stroke-dashoffset:0;stroke-opacity:1;paint-order:markers stroke fill"
               d="m -716.15625,82.025391 c -58.56997,1.912073 -104.90628,48.248379 -106.81836,106.818359 1.91207,58.56996 48.2484,104.90626 106.81836,106.81836 h 134.0918 v -9.08984 h -134.0918 c -53.05565,-1.36577 -96.3608,-44.67288 -97.72656,-97.72852 1.36576,-53.05564 44.67093,-96.360781 97.72656,-97.726562 53.05567,1.365765 96.36083,44.670882 97.72656,97.726562 v 25 h 9.0918 v -25 C -611.24997,130.27379 -657.58625,83.937471 -716.15625,82.025391 Z m 97.72656,231.818359 v 9.0918 h 9.0918 v -9.0918 z"
               transform="matrix(0.26458333,0,0,0.26458333,0,196.45832)"
               id="path11581"
               inkscape:connector-curvature="0" />
            <path
               style="opacity:1;fill:#5320a5;fill-opacity:1;fill-rule:nonzero;stroke:none;stroke-width:6.9784193;stroke-linecap:round;stroke-linejoin:miter;stroke-miterlimit:4;stroke-dasharray:none;stroke-dashoffset:0;stroke-opacity:1;paint-order:markers stroke fill"
               d="m -716.15625,63.84375 c -69.59855,3.004689 -121.99531,55.40145 -125,125 3.00469,69.59853 55.40147,121.99529 125,125 h 115.9082 v 9.0918 h 9.0918 v -9.0918 h 9.0918 v -9.08984 h -134.0918 c -64.08426,-2.45838 -113.45177,-51.82592 -115.91016,-115.91016 2.45839,-64.08424 51.82592,-113.449802 115.91016,-115.908203 64.08428,2.458384 113.44986,51.823903 115.9082,115.908203 v 25 h 9.0918 v -25 c -3.0047,-69.59854 -55.40142,-121.99531 -125,-125 z"
               transform="matrix(0.26458333,0,0,0.26458333,0,196.45832)"
               id="path11583"
               inkscape:connector-curvature="0" />
          </g>
        </g>
        <g
           id="g11617"
           transform="rotate(-180,-198.23854,277.13918)">
          <g
             transform="translate(-137.10274)"
             id="g11601">
            <path
               inkscape:connector-curvature="0"
               style="opacity:1;fill:#5320a5;fill-opacity:1;fill-rule:nonzero;stroke:none;stroke-width:6.9784193;stroke-linecap:round;stroke-linejoin:miter;stroke-miterlimit:4;stroke-dasharray:none;stroke-dashoffset:0;stroke-opacity:1;paint-order:markers stroke fill"
               d="m -718.94922,154.57227 c -14.32932,0.45458 -33.60356,20.71937 -31.29883,34.27148 -2.45838,14.45558 19.63622,36.55017 34.0918,34.0918 h 134.0918 v -9.0918 h -100.00196 v -25 c 2.45839,-14.4556 -19.63425,-36.54823 -34.08984,-34.08984 -0.90347,-0.15365 -1.83768,-0.21195 -2.79297,-0.18164 z m 1.00586,8.95898 c 0.63005,0.0232 1.22828,0.12471 1.78711,0.3125 8.94127,-3.00469 28.00471,16.05874 25,25 v 25 h -25 c -8.94126,3.00469 -28.00469,-16.05873 -25,-25 -2.8169,-8.38244 13.76214,-25.66117 23.21289,-25.3125 z m 26.78711,150.3125 v 9.0918 h 9.08984 v -9.0918 z"
               transform="matrix(0.26458333,0,0,0.26458333,0,196.45832)"
               id="path11589" />
            <path
               inkscape:connector-curvature="0"
               style="opacity:1;fill:#4545b5;fill-opacity:1;fill-rule:nonzero;stroke:none;stroke-width:6.9784193;stroke-linecap:round;stroke-linejoin:miter;stroke-miterlimit:4;stroke-dasharray:none;stroke-dashoffset:0;stroke-opacity:1;paint-order:markers stroke fill"
               d="m -718.55273,136.5293 c -24.81903,0.43381 -51.20004,27.62664 -49.87696,52.31445 -1.36576,25.48418 26.78925,53.63919 52.27344,52.27344 h 134.0918 v -9.0918 h -134.0918 c -19.96987,1.91207 -45.09371,-23.21177 -43.18164,-43.18164 -1.91207,-19.96987 23.21177,-45.0937 43.18164,-43.18164 19.96988,-1.91208 45.09374,23.21176 43.18164,43.18164 v 25 h 9.0918 v -25 c 1.36576,-25.4842 -26.78924,-53.63725 -52.27344,-52.27148 -0.79638,-0.0427 -1.59587,-0.057 -2.39648,-0.043 z m 45.57812,177.31445 v 9.0918 h 9.0918 v -9.0918 z"
               transform="matrix(0.26458333,0,0,0.26458333,0,196.45832)"
               id="path11591" />
            <path
               inkscape:connector-curvature="0"
               style="opacity:1;fill:#6c8ada;fill-opacity:1;fill-rule:nonzero;stroke:none;stroke-width:6.9784193;stroke-linecap:round;stroke-linejoin:miter;stroke-miterlimit:4;stroke-dasharray:none;stroke-dashoffset:0;stroke-opacity:1;paint-order:markers stroke fill"
               d="m -716.15625,118.38867 c -36.51277,-0.27315 -70.72823,33.94231 -70.45508,70.45508 -0.27315,36.51277 33.94231,70.72822 70.45508,70.45508 h 134.0918 v -9.0918 h -134.0918 c -30.99848,0.81946 -62.18274,-30.3648 -61.36328,-61.36328 -0.81946,-30.99848 30.3648,-62.18273 61.36328,-61.36328 30.9985,-0.81946 62.18277,30.36478 61.36328,61.36328 v 25 h 9.0918 v -25 c 0.27315,-36.51278 -33.94229,-70.72823 -70.45508,-70.45508 z m 61.36328,195.45508 v 9.0918 h 9.0918 v -9.0918 z"
               transform="matrix(0.26458333,0,0,0.26458333,0,196.45832)"
               id="path11593" />
            <path
               inkscape:connector-curvature="0"
               style="opacity:1;fill:#38d8d8;fill-opacity:1;fill-rule:nonzero;stroke:none;stroke-width:6.9784193;stroke-linecap:round;stroke-linejoin:miter;stroke-miterlimit:4;stroke-dasharray:none;stroke-dashoffset:0;stroke-opacity:1;paint-order:markers stroke fill"
               d="m -716.15625,100.20703 c -47.54138,0.81946 -87.81726,41.09534 -88.63672,88.63672 0.81946,47.54137 41.09535,87.81724 88.63672,88.63672 h 134.0918 v -9.0918 h -134.0918 v 0.002 c -42.02709,-0.27313 -79.27177,-37.51979 -79.54492,-79.54687 0.27315,-42.02708 37.51784,-79.27175 79.54492,-79.54492 42.02711,0.27315 79.2718,37.51781 79.54492,79.54492 v 25 h 9.0918 v -25 c -0.81947,-47.54138 -41.09532,-87.81726 -88.63672,-88.63672 z m 79.54492,213.63672 v 9.0918 h 9.0918 v -9.0918 z"
               transform="matrix(0.26458333,0,0,0.26458333,0,196.45832)"
               id="path11595" />
            <path
               inkscape:connector-curvature="0"
               style="opacity:1;fill:#3545d3;fill-opacity:1;fill-rule:nonzero;stroke:none;stroke-width:6.9784193;stroke-linecap:round;stroke-linejoin:miter;stroke-miterlimit:4;stroke-dasharray:none;stroke-dashoffset:0;stroke-opacity:1;paint-order:markers stroke fill"
               d="m -716.15625,82.025391 c -58.56997,1.912073 -104.90628,48.248379 -106.81836,106.818359 1.91207,58.56996 48.2484,104.90626 106.81836,106.81836 h 134.0918 v -9.08984 h -134.0918 c -53.05565,-1.36577 -96.3608,-44.67288 -97.72656,-97.72852 1.36576,-53.05564 44.67093,-96.360781 97.72656,-97.726562 53.05567,1.365765 96.36083,44.670882 97.72656,97.726562 v 25 h 9.0918 v -25 C -611.24997,130.27379 -657.58625,83.937471 -716.15625,82.025391 Z m 97.72656,231.818359 v 9.0918 h 9.0918 v -9.0918 z"
               transform="matrix(0.26458333,0,0,0.26458333,0,196.45832)"
               id="path11597" />
            <path
               inkscape:connector-curvature="0"
               style="opacity:1;fill:#5320a5;fill-opacity:1;fill-rule:nonzero;stroke:none;stroke-width:6.9784193;stroke-linecap:round;stroke-linejoin:miter;stroke-miterlimit:4;stroke-dasharray:none;stroke-dashoffset:0;stroke-opacity:1;paint-order:markers stroke fill"
               d="m -716.15625,63.84375 c -69.59855,3.004689 -121.99531,55.40145 -125,125 3.00469,69.59853 55.40147,121.99529 125,125 h 115.9082 v 9.0918 h 9.0918 v -9.0918 h 9.0918 v -9.08984 h -134.0918 c -64.08426,-2.45838 -113.45177,-51.82592 -115.91016,-115.91016 2.45839,-64.08424 51.82592,-113.449802 115.91016,-115.908203 64.08428,2.458384 113.44986,51.823903 115.9082,115.908203 v 25 h 9.0918 v -25 c -3.0047,-69.59854 -55.40142,-121.99531 -125,-125 z"
               transform="matrix(0.26458333,0,0,0.26458333,0,196.45832)"
               id="path11599" />
          </g>
          <g
             transform="rotate(90,-222.55592,213.35031)"
             id="g11615">
            <path
               inkscape:connector-curvature="0"
               id="path11603"
               transform="matrix(0.26458333,0,0,0.26458333,0,196.45832)"
               d="m -718.94922,154.57227 c -14.32932,0.45458 -33.60356,20.71937 -31.29883,34.27148 -2.45838,14.45558 19.63622,36.55017 34.0918,34.0918 h 134.0918 v -9.0918 h -100.00196 v -25 c 2.45839,-14.4556 -19.63425,-36.54823 -34.08984,-34.08984 -0.90347,-0.15365 -1.83768,-0.21195 -2.79297,-0.18164 z m 1.00586,8.95898 c 0.63005,0.0232 1.22828,0.12471 1.78711,0.3125 8.94127,-3.00469 28.00471,16.05874 25,25 v 25 h -25 c -8.94126,3.00469 -28.00469,-16.05873 -25,-25 -2.8169,-8.38244 13.76214,-25.66117 23.21289,-25.3125 z m 26.78711,150.3125 v 9.0918 h 9.08984 v -9.0918 z"
               style="opacity:1;fill:#5320a5;fill-opacity:1;fill-rule:nonzero;stroke:none;stroke-width:6.9784193;stroke-linecap:round;stroke-linejoin:miter;stroke-miterlimit:4;stroke-dasharray:none;stroke-dashoffset:0;stroke-opacity:1;paint-order:markers stroke fill" />
            <path
               inkscape:connector-curvature="0"
               id="path11605"
               transform="matrix(0.26458333,0,0,0.26458333,0,196.45832)"
               d="m -718.55273,136.5293 c -24.81903,0.43381 -51.20004,27.62664 -49.87696,52.31445 -1.36576,25.48418 26.78925,53.63919 52.27344,52.27344 h 134.0918 v -9.0918 h -134.0918 c -19.96987,1.91207 -45.09371,-23.21177 -43.18164,-43.18164 -1.91207,-19.96987 23.21177,-45.0937 43.18164,-43.18164 19.96988,-1.91208 45.09374,23.21176 43.18164,43.18164 v 25 h 9.0918 v -25 c 1.36576,-25.4842 -26.78924,-53.63725 -52.27344,-52.27148 -0.79638,-0.0427 -1.59587,-0.057 -2.39648,-0.043 z m 45.57812,177.31445 v 9.0918 h 9.0918 v -9.0918 z"
               style="opacity:1;fill:#4545b5;fill-opacity:1;fill-rule:nonzero;stroke:none;stroke-width:6.9784193;stroke-linecap:round;stroke-linejoin:miter;stroke-miterlimit:4;stroke-dasharray:none;stroke-dashoffset:0;stroke-opacity:1;paint-order:markers stroke fill" />
            <path
               inkscape:connector-curvature="0"
               id="path11607"
               transform="matrix(0.26458333,0,0,0.26458333,0,196.45832)"
               d="m -716.15625,118.38867 c -36.51277,-0.27315 -70.72823,33.94231 -70.45508,70.45508 -0.27315,36.51277 33.94231,70.72822 70.45508,70.45508 h 134.0918 v -9.0918 h -134.0918 c -30.99848,0.81946 -62.18274,-30.3648 -61.36328,-61.36328 -0.81946,-30.99848 30.3648,-62.18273 61.36328,-61.36328 30.9985,-0.81946 62.18277,30.36478 61.36328,61.36328 v 25 h 9.0918 v -25 c 0.27315,-36.51278 -33.94229,-70.72823 -70.45508,-70.45508 z m 61.36328,195.45508 v 9.0918 h 9.0918 v -9.0918 z"
               style="opacity:1;fill:#6c8ada;fill-opacity:1;fill-rule:nonzero;stroke:none;stroke-width:6.9784193;stroke-linecap:round;stroke-linejoin:miter;stroke-miterlimit:4;stroke-dasharray:none;stroke-dashoffset:0;stroke-opacity:1;paint-order:markers stroke fill" />
            <path
               inkscape:connector-curvature="0"
               id="path11609"
               transform="matrix(0.26458333,0,0,0.26458333,0,196.45832)"
               d="m -716.15625,100.20703 c -47.54138,0.81946 -87.81726,41.09534 -88.63672,88.63672 0.81946,47.54137 41.09535,87.81724 88.63672,88.63672 h 134.0918 v -9.0918 h -134.0918 v 0.002 c -42.02709,-0.27313 -79.27177,-37.51979 -79.54492,-79.54687 0.27315,-42.02708 37.51784,-79.27175 79.54492,-79.54492 42.02711,0.27315 79.2718,37.51781 79.54492,79.54492 v 25 h 9.0918 v -25 c -0.81947,-47.54138 -41.09532,-87.81726 -88.63672,-88.63672 z m 79.54492,213.63672 v 9.0918 h 9.0918 v -9.0918 z"
               style="opacity:1;fill:#38d8d8;fill-opacity:1;fill-rule:nonzero;stroke:none;stroke-width:6.9784193;stroke-linecap:round;stroke-linejoin:miter;stroke-miterlimit:4;stroke-dasharray:none;stroke-dashoffset:0;stroke-opacity:1;paint-order:markers stroke fill" />
            <path
               inkscape:connector-curvature="0"
               id="path11611"
               transform="matrix(0.26458333,0,0,0.26458333,0,196.45832)"
               d="m -716.15625,82.025391 c -58.56997,1.912073 -104.90628,48.248379 -106.81836,106.818359 1.91207,58.56996 48.2484,104.90626 106.81836,106.81836 h 134.0918 v -9.08984 h -134.0918 c -53.05565,-1.36577 -96.3608,-44.67288 -97.72656,-97.72852 1.36576,-53.05564 44.67093,-96.360781 97.72656,-97.726562 53.05567,1.365765 96.36083,44.670882 97.72656,97.726562 v 25 h 9.0918 v -25 C -611.24997,130.27379 -657.58625,83.937471 -716.15625,82.025391 Z m 97.72656,231.818359 v 9.0918 h 9.0918 v -9.0918 z"
               style="opacity:1;fill:#3545d3;fill-opacity:1;fill-rule:nonzero;stroke:none;stroke-width:6.9784193;stroke-linecap:round;stroke-linejoin:miter;stroke-miterlimit:4;stroke-dasharray:none;stroke-dashoffset:0;stroke-opacity:1;paint-order:markers stroke fill" />
            <path
               inkscape:connector-curvature="0"
               id="path11613"
               transform="matrix(0.26458333,0,0,0.26458333,0,196.45832)"
               d="m -716.15625,63.84375 c -69.59855,3.004689 -121.99531,55.40145 -125,125 3.00469,69.59853 55.40147,121.99529 125,125 h 115.9082 v 9.0918 h 9.0918 v -9.0918 h 9.0918 v -9.08984 h -134.0918 c -64.08426,-2.45838 -113.45177,-51.82592 -115.91016,-115.91016 2.45839,-64.08424 51.82592,-113.449802 115.91016,-115.908203 64.08428,2.458384 113.44986,51.823903 115.9082,115.908203 v 25 h 9.0918 v -25 c -3.0047,-69.59854 -55.40142,-121.99531 -125,-125 z"
               style="opacity:1;fill:#5320a5;fill-opacity:1;fill-rule:nonzero;stroke:none;stroke-width:6.9784193;stroke-linecap:round;stroke-linejoin:miter;stroke-miterlimit:4;stroke-dasharray:none;stroke-dashoffset:0;stroke-opacity:1;paint-order:markers stroke fill" />
          </g>
        </g>
      </g>
    </g>
    <g
       transform="matrix(0.76073677,0,0,0.76073677,-93.225172,113.41873)"
       id="g11631">
      <text
         xml:space="preserve"
         style="font-style:normal;font-weight:normal;font-size:10.58333302px;line-height:1.25;font-family:sans-serif;letter-spacing:0px;word-spacing:0px;fill:#000000;fill-opacity:1;stroke:none;stroke-width:0.26458332"
         x="-18.25625"
         y="176.34999"
         id="text11625"><tspan
           sodipodi:role="line"
           id="tspan11623"
           x="-18.25625"
           y="176.34999"
           style="font-style:normal;font-variant:normal;font-weight:normal;font-stretch:normal;font-family:Strasua;-inkscape-font-specification:Strasua;stroke-width:0.26458332">MS</tspan></text>
      <text
         id="text11629"
         y="176.34824"
         x="-12.557372"
         style="font-style:normal;font-weight:normal;font-size:10.58333302px;line-height:1.25;font-family:sans-serif;letter-spacing:0px;word-spacing:0px;fill:#000000;fill-opacity:1;stroke:none;stroke-width:0.26458332"
         xml:space="preserve"
         transform="scale(-1,1)"><tspan
           style="font-style:normal;font-variant:normal;font-weight:normal;font-stretch:normal;font-family:Strasua;-inkscape-font-specification:Strasua;stroke-width:0.26458332"
           y="176.34824"
           x="-12.557372"
           id="tspan11627"
           sodipodi:role="line">M</tspan></text>
    </g>
    <g
       transform="translate(-6.933558,0.45460346)"
       aria-label="RANDOM SOURCE"
       style="font-style:normal;font-variant:normal;font-weight:normal;font-stretch:normal;font-size:10.58333302px;line-height:0.2;font-family:'OmegaForce Condensed';-inkscape-font-specification:'OmegaForce Condensed, ';letter-spacing:0px;word-spacing:0px;fill:#000000;fill-opacity:1;stroke:none;stroke-width:0.26458332"
       id="text1095">
      <path
         inkscape:connector-curvature="0"
         d="m 17.794221,201.85869 q 0.07579,0.0155 0.130914,0.0724 0.05684,0.0551 0.137804,0.21704 l 0.465088,0.92501 h -0.558106 l -0.310059,-0.6494 q -0.01378,-0.0276 -0.03617,-0.0758 -0.136081,-0.29111 -0.320394,-0.29111 h -0.161919 v 1.0163 h -0.508152 v -2.57176 h 0.733805 q 0.496094,0 0.711413,0.1757 0.217041,0.1757 0.217041,0.57188 0,0.26527 -0.129191,0.42203 -0.129192,0.15675 -0.372071,0.18775 z m -0.652845,-0.93017 v 0.70107 h 0.239434 q 0.208428,0 0.298001,-0.081 0.09129,-0.0827 0.09129,-0.27044 0,-0.18775 -0.08957,-0.26871 -0.08957,-0.081 -0.299723,-0.081 z"
         style="font-style:normal;font-variant:normal;font-weight:bold;font-stretch:normal;font-size:3.52777767px;line-height:0.2;font-family:'DejaVu Sans Mono';-inkscape-font-specification:'DejaVu Sans Mono Bold';stroke-width:0.26458332"
         id="path1166" />
      <path
         inkscape:connector-curvature="0"
         d="m 19.587393,200.96641 -0.239434,1.05248 h 0.480591 z m -0.310058,-0.46508 h 0.62184 l 0.694186,2.57176 H 20.08521 l -0.158475,-0.63562 h -0.680406 l -0.155029,0.63562 h -0.508152 z"
         style="font-style:normal;font-variant:normal;font-weight:bold;font-stretch:normal;font-size:3.52777767px;line-height:0.2;font-family:'DejaVu Sans Mono';-inkscape-font-specification:'DejaVu Sans Mono Bold';stroke-width:0.26458332"
         id="path1168" />
      <path
         inkscape:connector-curvature="0"
         d="m 20.853466,200.50133 h 0.546048 l 0.716579,1.86896 v -1.86896 h 0.447863 v 2.57176 h -0.542603 l -0.720025,-1.86896 v 1.86896 h -0.447862 z"
         style="font-style:normal;font-variant:normal;font-weight:bold;font-stretch:normal;font-size:3.52777767px;line-height:0.2;font-family:'DejaVu Sans Mono';-inkscape-font-specification:'DejaVu Sans Mono Bold';stroke-width:0.26458332"
         id="path1170" />
      <path
         inkscape:connector-curvature="0"
         d="m 23.514802,200.95952 v 1.65537 h 0.137804 q 0.299723,0 0.427192,-0.18776 0.127468,-0.18948 0.127468,-0.64251 0,-0.44958 -0.127468,-0.63734 -0.127469,-0.18776 -0.427192,-0.18776 z m -0.508152,-0.45819 h 0.544325 q 0.630453,0 0.907783,0.30144 0.27733,0.29973 0.27733,0.98185 0,0.68386 -0.27733,0.98702 -0.27733,0.30145 -0.907783,0.30145 H 23.00665 Z"
         style="font-style:normal;font-variant:normal;font-weight:bold;font-stretch:normal;font-size:3.52777767px;line-height:0.2;font-family:'DejaVu Sans Mono';-inkscape-font-specification:'DejaVu Sans Mono Bold';stroke-width:0.26458332"
         id="path1172" />
      <path
         inkscape:connector-curvature="0"
         d="m 25.95393,200.91129 q -0.194648,0 -0.284221,0.20843 -0.08957,0.20671 -0.08957,0.67007 0,0.46164 0.08957,0.67007 0.08957,0.20671 0.284221,0.20671 0.19637,0 0.285943,-0.20671 0.08957,-0.20843 0.08957,-0.67007 0,-0.46336 -0.08957,-0.67007 -0.08957,-0.20843 -0.285943,-0.20843 z m -0.902615,0.8785 q 0,-0.65973 0.227376,-0.99735 0.229099,-0.33762 0.675239,-0.33762 0.447862,0 0.675238,0.33762 0.229099,0.33762 0.229099,0.99735 0,0.65801 -0.229099,0.99563 -0.227376,0.33762 -0.675238,0.33762 -0.44614,0 -0.675239,-0.33762 -0.227376,-0.33762 -0.227376,-0.99563 z"
         style="font-style:normal;font-variant:normal;font-weight:bold;font-stretch:normal;font-size:3.52777767px;line-height:0.2;font-family:'DejaVu Sans Mono';-inkscape-font-specification:'DejaVu Sans Mono Bold';stroke-width:0.26458332"
         id="path1174" />
      <path
         inkscape:connector-curvature="0"
         d="m 27.163159,200.50133 h 0.606336 l 0.306614,1.12826 0.304891,-1.12826 h 0.609782 v 2.57176 h -0.437527 v -2.06017 l -0.272163,1.12483 h -0.404799 l -0.275607,-1.12483 v 2.06017 h -0.437527 z"
         style="font-style:normal;font-variant:normal;font-weight:bold;font-stretch:normal;font-size:3.52777767px;line-height:0.2;font-family:'DejaVu Sans Mono';-inkscape-font-specification:'DejaVu Sans Mono Bold';stroke-width:0.26458332"
         id="path1176" />
      <path
         inkscape:connector-curvature="0"
         d="m 17.282625,205.77559 q -0.384129,-0.14642 -0.52021,-0.30662 -0.136081,-0.16192 -0.136081,-0.43408 0,-0.34968 0.223931,-0.54949 0.223931,-0.19982 0.61495,-0.19982 0.177422,0 0.354844,0.0413 0.177423,0.0396 0.3514,0.11886 v 0.49609 q -0.163642,-0.11541 -0.332452,-0.1757 -0.168809,-0.0603 -0.334174,-0.0603 -0.184312,0 -0.282498,0.0741 -0.09819,0.0741 -0.09819,0.21188 0,0.1068 0.07062,0.17742 0.07235,0.0689 0.299723,0.15331 l 0.218763,0.0827 q 0.310059,0.11369 0.456476,0.30145 0.146416,0.18775 0.146416,0.4737 0,0.38929 -0.230821,0.58222 -0.229099,0.1912 -0.694187,0.1912 -0.191203,0 -0.384128,-0.0465 -0.191203,-0.0448 -0.370348,-0.13436 v -0.52537 q 0.203261,0.14469 0.392741,0.21531 0.191203,0.0706 0.377238,0.0706 0.187758,0 0.291111,-0.0844 0.103352,-0.0861 0.103352,-0.23943 0,-0.11541 -0.0689,-0.20154 -0.0689,-0.0879 -0.199815,-0.1378 z"
         style="font-style:normal;font-variant:normal;font-weight:bold;font-stretch:normal;font-size:3.52777767px;line-height:0.2;font-family:'DejaVu Sans Mono';-inkscape-font-specification:'DejaVu Sans Mono Bold';stroke-width:0.26458332"
         id="path1178" />
      <path
         inkscape:connector-curvature="0"
         d="m 19.587393,204.74206 q -0.194648,0 -0.28422,0.20843 -0.08957,0.2067 -0.08957,0.67007 0,0.46164 0.08957,0.67007 0.08957,0.2067 0.28422,0.2067 0.196371,0 0.285943,-0.2067 0.08957,-0.20843 0.08957,-0.67007 0,-0.46337 -0.08957,-0.67007 -0.08957,-0.20843 -0.285943,-0.20843 z m -0.902615,0.8785 q 0,-0.65974 0.227377,-0.99736 0.229099,-0.33762 0.675238,-0.33762 0.447863,0 0.675239,0.33762 0.229099,0.33762 0.229099,0.99736 0,0.65801 -0.229099,0.99563 -0.227376,0.33762 -0.675239,0.33762 -0.446139,0 -0.675238,-0.33762 -0.227377,-0.33762 -0.227377,-0.99563 z"
         style="font-style:normal;font-variant:normal;font-weight:bold;font-stretch:normal;font-size:3.52777767px;line-height:0.2;font-family:'DejaVu Sans Mono';-inkscape-font-specification:'DejaVu Sans Mono Bold';stroke-width:0.26458332"
         id="path1180" />
      <path
         inkscape:connector-curvature="0"
         d="m 20.831073,205.95473 v -1.62264 h 0.508151 v 1.75011 q 0,0.19293 0.09819,0.30317 0.09819,0.10852 0.272162,0.10852 0.173977,0 0.272163,-0.10852 0.09819,-0.11024 0.09819,-0.30317 v -1.75011 h 0.508151 v 1.62264 q 0,0.52366 -0.208428,0.76137 -0.208428,0.23771 -0.670071,0.23771 -0.45992,0 -0.670071,-0.23771 -0.208428,-0.23771 -0.208428,-0.76137 z"
         style="font-style:normal;font-variant:normal;font-weight:bold;font-stretch:normal;font-size:3.52777767px;line-height:0.2;font-family:'DejaVu Sans Mono';-inkscape-font-specification:'DejaVu Sans Mono Bold';stroke-width:0.26458332"
         id="path1182" />
      <path
         inkscape:connector-curvature="0"
         d="m 24.160757,205.68946 q 0.07579,0.0155 0.130914,0.0724 0.05684,0.0551 0.137804,0.21704 l 0.465088,0.92501 h -0.558106 l -0.310058,-0.6494 q -0.01378,-0.0276 -0.03617,-0.0758 -0.136081,-0.29111 -0.320394,-0.29111 h -0.161919 v 1.01631 H 22.99976 v -2.57177 h 0.733806 q 0.496093,0 0.711412,0.1757 0.217041,0.1757 0.217041,0.57189 0,0.26527 -0.129191,0.42202 -0.129191,0.15675 -0.372071,0.18776 z m -0.652845,-0.93018 v 0.70108 h 0.239434 q 0.208428,0 0.298001,-0.081 0.09129,-0.0827 0.09129,-0.27044 0,-0.18776 -0.08957,-0.26872 -0.08957,-0.081 -0.299723,-0.081 z"
         style="font-style:normal;font-variant:normal;font-weight:bold;font-stretch:normal;font-size:3.52777767px;line-height:0.2;font-family:'DejaVu Sans Mono';-inkscape-font-specification:'DejaVu Sans Mono Bold';stroke-width:0.26458332"
         id="path1184" />
      <path
         inkscape:connector-curvature="0"
         d="m 26.754914,206.82979 q -0.120578,0.062 -0.253214,0.093 -0.132636,0.031 -0.279053,0.031 -0.520209,0 -0.794094,-0.34279 -0.273885,-0.34278 -0.273885,-0.99046 0,-0.6494 0.273885,-0.99219 0.273885,-0.34279 0.794094,-0.34279 0.146417,0 0.280775,0.031 0.134359,0.031 0.251492,0.093 v 0.56499 q -0.130913,-0.12058 -0.254937,-0.1757 -0.122301,-0.0568 -0.253214,-0.0568 -0.279053,0 -0.422024,0.22221 -0.141249,0.22048 -0.141249,0.65629 0,0.43408 0.141249,0.65629 0.142971,0.22048 0.422024,0.22048 0.130913,0 0.253214,-0.0551 0.124024,-0.0568 0.254937,-0.17742 z"
         style="font-style:normal;font-variant:normal;font-weight:bold;font-stretch:normal;font-size:3.52777767px;line-height:0.2;font-family:'DejaVu Sans Mono';-inkscape-font-specification:'DejaVu Sans Mono Bold';stroke-width:0.26458332"
         id="path1186" />
      <path
         inkscape:connector-curvature="0"
         d="m 28.906377,206.90386 h -1.60197 v -2.57177 h 1.60197 v 0.44786 h -1.093818 v 0.55466 h 0.990465 v 0.44787 h -0.990465 v 0.67351 h 1.093818 z"
         style="font-style:normal;font-variant:normal;font-weight:bold;font-stretch:normal;font-size:3.52777767px;line-height:0.2;font-family:'DejaVu Sans Mono';-inkscape-font-specification:'DejaVu Sans Mono Bold';stroke-width:0.26458332"
         id="path1188" />
    </g>
    <g
       aria-label="SAMPLE"
       style="font-style:normal;font-variant:normal;font-weight:normal;font-stretch:normal;font-size:2.46944451px;line-height:1.25;font-family:'DejaVu Sans Mono';-inkscape-font-specification:'DejaVu Sans Mono';letter-spacing:0px;word-spacing:0px;fill:#000000;fill-opacity:1;stroke:none;stroke-width:0.26458332"
       id="text1113"
       transform="translate(24.897151,1.6762312)">
      <path
         d="m -20.201399,228.37706 v 0.24718 q -0.110932,-0.0711 -0.22307,-0.10731 -0.110932,-0.0362 -0.224276,-0.0362 -0.172427,0 -0.272507,0.0808 -0.10008,0.0796 -0.10008,0.21584 0,0.11937 0.06511,0.18207 0.06632,0.0627 0.245979,0.10491 l 0.127813,0.0289 q 0.253215,0.0591 0.36897,0.1857 0.115755,0.1266 0.115755,0.34485 0,0.25683 -0.159163,0.39188 -0.159163,0.13505 -0.463021,0.13505 -0.126607,0 -0.25442,-0.0277 -0.127813,-0.0265 -0.256832,-0.0808 V 229.783 q 0.138665,0.088 0.261655,0.12902 0.124196,0.041 0.249597,0.041 0.184485,0 0.286977,-0.082 0.102491,-0.0832 0.102491,-0.23151 0,-0.13504 -0.07114,-0.20618 -0.06994,-0.0712 -0.244774,-0.10973 l -0.130225,-0.0301 q -0.250803,-0.0567 -0.364146,-0.17122 -0.113344,-0.11455 -0.113344,-0.30747 0,-0.24116 0.161575,-0.38585 0.162781,-0.1459 0.431671,-0.1459 0.103697,0 0.218246,0.0241 0.11455,0.0229 0.241157,0.0699 z"
         style="stroke-width:0.26458332"
         id="path1115"
         inkscape:connector-curvature="0" />
      <path
         d="m -19.193364,228.53019 -0.256832,0.92122 h 0.513664 z m -0.147106,-0.21463 h 0.295417 l 0.551043,1.80024 h -0.252008 l -0.132637,-0.46905 h -0.630624 l -0.130225,0.46905 h -0.252009 z"
         style="stroke-width:0.26458332"
         id="path1117"
         inkscape:connector-curvature="0" />
      <path
         d="m -18.346904,228.31556 h 0.325562 l 0.311092,0.9164 0.313503,-0.9164 h 0.326768 v 1.80024 h -0.225482 v -1.59043 l -0.320738,0.94895 h -0.184485 l -0.321944,-0.94895 v 1.59043 h -0.224276 z"
         style="stroke-width:0.26458332"
         id="path1119"
         inkscape:connector-curvature="0" />
      <path
         d="m -16.483968,228.51572 v 0.67645 h 0.282153 q 0.16881,0 0.262861,-0.0892 0.09526,-0.0892 0.09526,-0.2496 0,-0.16037 -0.09405,-0.24839 -0.09405,-0.0892 -0.264067,-0.0892 z m -0.243569,-0.20016 h 0.525722 q 0.301446,0 0.456992,0.13746 0.155546,0.13626 0.155546,0.40032 0,0.26648 -0.155546,0.40274 -0.15434,0.13625 -0.456992,0.13625 h -0.282153 v 0.72347 h -0.243569 z"
         style="stroke-width:0.26458332"
         id="path1121"
         inkscape:connector-curvature="0" />
      <path
         d="m -15.220307,228.31556 h 0.244774 v 1.59526 h 0.86937 v 0.20498 h -1.114144 z"
         style="stroke-width:0.26458332"
         id="path1123"
         inkscape:connector-curvature="0" />
      <path
         d="m -13.756486,228.31556 h 1.068324 v 0.20499 h -0.824756 v 0.53295 h 0.788582 v 0.20499 h -0.788582 v 0.65233 h 0.847666 v 0.20498 h -1.091234 z"
         style="stroke-width:0.26458332"
         id="path1125"
         inkscape:connector-curvature="0" />
    </g>
    <g
       aria-label="IN"
       style="font-style:normal;font-variant:normal;font-weight:normal;font-stretch:normal;font-size:2.46944451px;line-height:1.25;font-family:'DejaVu Sans Mono';-inkscape-font-specification:'DejaVu Sans Mono';letter-spacing:0px;word-spacing:0px;fill:#000000;fill-opacity:1;stroke:none;stroke-width:0.26458332"
       id="text1045"
       transform="translate(0,12.303126)">
      <path
         d="m 6.6563549,268.12509 h 0.9995945 v 0.20498 H 7.2785391 v 1.39027 h 0.3774103 v 0.20498 H 6.6563549 v -0.20498 h 0.3774102 v -1.39027 H 6.6563549 Z"
         style="stroke-width:0.26458332"
         id="path1073"
         inkscape:connector-curvature="0" />
      <path
         d="M 8.0671216,268.12509 H 8.3758021 L 8.983517,269.607 v -1.48191 h 0.2351278 v 1.80023 H 8.9099642 l -0.6077149,-1.4819 v 1.4819 H 8.0671216 Z"
         style="stroke-width:0.26458332"
         id="path1075"
         inkscape:connector-curvature="0" />
    </g>
    <g
       aria-label="CLK"
       style="font-style:normal;font-variant:normal;font-weight:normal;font-stretch:normal;font-size:2.46944451px;line-height:1.25;font-family:'DejaVu Sans Mono';-inkscape-font-specification:'DejaVu Sans Mono';letter-spacing:0px;word-spacing:0px;fill:#000000;fill-opacity:1;stroke:none;stroke-width:0.26458332"
       id="text1049"
       transform="translate(0,12.170802)">
      <path
         d="m 6.9234362,280.44473 q -0.092845,0.0494 -0.1905138,0.0736 -0.097668,0.0253 -0.2073947,0.0253 -0.3460599,0 -0.5377794,-0.24477 -0.1905138,-0.24477 -0.1905138,-0.6885 0,-0.44132 0.1917195,-0.6873 0.1929254,-0.24718 0.5365737,-0.24718 0.1097263,0 0.2073947,0.0253 0.097669,0.0241 0.1905138,0.0736 v 0.2496 q -0.089228,-0.0736 -0.1917196,-0.11214 -0.1024916,-0.0386 -0.2061889,-0.0386 -0.2375394,0 -0.3557061,0.18328 -0.1181668,0.18328 -0.1181668,0.55346 0,0.36897 0.1181668,0.55225 0.1181667,0.18328 0.3557061,0.18328 0.1061089,0 0.2073947,-0.0386 0.1024916,-0.0386 0.1905138,-0.11214 z"
         style="stroke-width:0.26458332"
         id="path1066"
         inkscape:connector-curvature="0" />
      <path
         d="m 7.3743993,278.7084 h 0.244774 v 1.59525 h 0.8693699 v 0.20499 H 7.3743993 Z"
         style="stroke-width:0.26458332"
         id="path1068"
         inkscape:connector-curvature="0" />
      <path
         d="m 8.7658734,278.7084 h 0.244774 v 0.80064 l 0.7608494,-0.80064 h 0.2857702 l -0.7005597,0.73553 0.7210587,1.06471 H 9.7835546 l -0.5872165,-0.90193 -0.1856907,0.19775 v 0.70418 h -0.244774 z"
         style="stroke-width:0.26458332"
         id="path1070"
         inkscape:connector-curvature="0" />
    </g>
    <g
       aria-label="S&amp;H OUT"
       style="font-style:normal;font-variant:normal;font-weight:normal;font-stretch:normal;font-size:2.46944451px;line-height:1.25;font-family:'DejaVu Sans Mono';-inkscape-font-specification:'DejaVu Sans Mono';letter-spacing:0px;word-spacing:0px;fill:#000000;fill-opacity:1;stroke:none;stroke-width:0.26458332"
       id="text1130"
       transform="translate(79.675837,25.840586)">
      <path
         d="m -59.898491,254.6477 v 0.24719 q -0.110932,-0.0711 -0.22307,-0.10731 -0.110932,-0.0362 -0.224276,-0.0362 -0.172427,0 -0.272507,0.0808 -0.10008,0.0796 -0.10008,0.21583 0,0.11938 0.06511,0.18208 0.06632,0.0627 0.245979,0.1049 l 0.127813,0.0289 q 0.253215,0.0591 0.36897,0.18569 0.115755,0.12661 0.115755,0.34485 0,0.25684 -0.159163,0.39188 -0.159163,0.13505 -0.463021,0.13505 -0.126607,0 -0.25442,-0.0277 -0.127813,-0.0265 -0.256832,-0.0808 v -0.25924 q 0.138665,0.088 0.261655,0.12902 0.124196,0.041 0.249597,0.041 0.184485,0 0.286977,-0.082 0.102491,-0.0832 0.102491,-0.23151 0,-0.13505 -0.07114,-0.20619 -0.06994,-0.0711 -0.244774,-0.10973 l -0.130225,-0.0301 q -0.250803,-0.0567 -0.364146,-0.17122 -0.113344,-0.11455 -0.113344,-0.30748 0,-0.24115 0.161575,-0.38585 0.162781,-0.1459 0.43167,-0.1459 0.103698,0 0.218247,0.0241 0.11455,0.0229 0.241157,0.0699 z"
         style="stroke-width:0.26458332"
         id="path1136"
         inkscape:connector-curvature="0" />
      <path
         d="m -58.973655,255.2928 0.501606,0.67403 q 0.04702,-0.0591 0.06994,-0.14952 0.02291,-0.0904 0.02291,-0.21583 0,-0.0386 -0.0036,-0.12299 l -0.0012,-0.008 h 0.197748 v 0.047 q 0,0.19414 -0.04461,0.34124 -0.04461,0.1459 -0.135048,0.25201 l 0.204983,0.27612 h -0.256832 l -0.09405,-0.13143 q -0.10008,0.0844 -0.212218,0.12541 -0.112138,0.041 -0.239951,0.041 -0.260449,0 -0.430465,-0.16157 -0.170015,-0.16278 -0.170015,-0.40876 0,-0.1652 0.0832,-0.30627 0.0832,-0.14108 0.250803,-0.26166 -0.06029,-0.0868 -0.08923,-0.17001 -0.02894,-0.0832 -0.02894,-0.16881 0,-0.18087 0.119373,-0.28577 0.120578,-0.10491 0.329179,-0.10491 0.07838,0 0.156752,0.0145 0.07958,0.0145 0.163986,0.0422 v 0.22065 q -0.07114,-0.047 -0.147105,-0.0687 -0.07476,-0.0229 -0.157958,-0.0229 -0.116961,0 -0.184485,0.0555 -0.06752,0.0543 -0.06752,0.14711 0,0.0711 0.03497,0.14951 0.03497,0.0772 0.127813,0.20137 z m -0.157958,0.1254 q -0.110932,0.088 -0.166398,0.1869 -0.05426,0.0977 -0.05426,0.2086 0,0.18207 0.120578,0.30265 0.120579,0.11937 0.307475,0.11937 0.05064,0 0.106109,-0.0145 0.05547,-0.0145 0.10852,-0.0422 0.03256,-0.0181 0.05306,-0.0314 0.0217,-0.0145 0.041,-0.0301 z"
         style="stroke-width:0.26458332"
         id="path1138"
         inkscape:connector-curvature="0" />
      <path
         d="m -57.982501,254.58621 h 0.244774 v 0.73794 h 0.666798 v -0.73794 h 0.244774 v 1.80023 h -0.244774 v -0.85731 h -0.666798 v 0.85731 h -0.244774 z"
         style="stroke-width:0.26458332"
         id="path1140"
         inkscape:connector-curvature="0" />
      <path
         d="m -54.085409,255.48814 q 0,-0.39671 -0.08199,-0.56672 -0.08079,-0.17002 -0.266478,-0.17002 -0.184485,0 -0.266478,0.17002 -0.08079,0.17001 -0.08079,0.56672 0,0.39549 0.08079,0.56551 0.08199,0.17001 0.266478,0.17001 0.18569,0 0.266478,-0.16881 0.08199,-0.17001 0.08199,-0.56671 z m 0.25442,0 q 0,0.47025 -0.149517,0.70176 -0.148311,0.23151 -0.453374,0.23151 -0.305064,0 -0.453375,-0.2303 -0.148311,-0.23031 -0.148311,-0.70297 0,-0.47147 0.148311,-0.70298 0.149517,-0.23151 0.453375,-0.23151 0.305063,0 0.453374,0.23151 0.149517,0.23151 0.149517,0.70298 z"
         style="stroke-width:0.26458332"
         id="path1142"
         inkscape:connector-curvature="0" />
      <path
         d="m -53.513868,255.69553 v -1.10932 h 0.244774 v 1.22025 q 0,0.13143 0.0072,0.1881 0.0072,0.0555 0.02532,0.0856 0.03858,0.0711 0.110932,0.10731 0.07355,0.0362 0.17725,0.0362 0.104903,0 0.17725,-0.0362 0.07235,-0.0362 0.112138,-0.10731 0.01809,-0.0301 0.02532,-0.0856 0.0072,-0.0555 0.0072,-0.18569 v -1.22266 h 0.243568 v 1.10932 q 0,0.27612 -0.03497,0.39309 -0.03376,0.11575 -0.118167,0.19172 -0.07958,0.0711 -0.182074,0.1061 -0.102491,0.035 -0.230304,0.035 -0.126607,0 -0.229099,-0.035 -0.102492,-0.035 -0.183279,-0.1061 -0.0832,-0.0748 -0.118167,-0.19293 -0.03497,-0.11937 -0.03497,-0.39188 z"
         style="stroke-width:0.26458332"
         id="path1144"
         inkscape:connector-curvature="0" />
      <path
         d="m -52.14892,254.58621 h 1.373387 v 0.20498 h -0.563101 v 1.59525 h -0.244774 v -1.59525 h -0.565512 z"
         style="stroke-width:0.26458332"
         id="path1146"
         inkscape:connector-curvature="0" />
    </g>
    <g
       aria-label="SLEW"
       style="font-style:normal;font-variant:normal;font-weight:normal;font-stretch:normal;font-size:2.46944451px;line-height:1.25;font-family:'DejaVu Sans Mono';-inkscape-font-specification:'DejaVu Sans Mono';letter-spacing:0px;word-spacing:0px;fill:#000000;fill-opacity:1;stroke:none;stroke-width:0.26458332"
       id="text1085"
       transform="translate(51.024615,4.4979168)">
      <path
         d="m -29.311901,236.12689 v 0.24719 q -0.110932,-0.0711 -0.22307,-0.10732 -0.110932,-0.0362 -0.224276,-0.0362 -0.172427,0 -0.272507,0.0808 -0.10008,0.0796 -0.10008,0.21583 0,0.11937 0.06511,0.18207 0.06632,0.0627 0.24598,0.10491 l 0.127813,0.0289 q 0.253215,0.0591 0.36897,0.18569 0.115755,0.1266 0.115755,0.34485 0,0.25683 -0.159163,0.39188 -0.159164,0.13505 -0.463021,0.13505 -0.126608,0 -0.254421,-0.0277 -0.127813,-0.0265 -0.256831,-0.0808 v -0.25925 q 0.138665,0.088 0.261655,0.12902 0.124195,0.041 0.249597,0.041 0.184485,0 0.286976,-0.082 0.102492,-0.0832 0.102492,-0.23151 0,-0.13505 -0.07114,-0.20619 -0.06994,-0.0711 -0.244774,-0.10973 l -0.130225,-0.0301 q -0.250803,-0.0567 -0.364147,-0.17122 -0.113343,-0.11455 -0.113343,-0.30748 0,-0.24116 0.161575,-0.38585 0.16278,-0.1459 0.43167,-0.1459 0.103697,0 0.218247,0.0241 0.114549,0.0229 0.241157,0.0699 z"
         style="text-align:center;text-anchor:middle;stroke-width:0.26458332"
         id="path1102"
         inkscape:connector-curvature="0" />
      <path
         d="m -28.787386,236.0654 h 0.244774 v 1.59525 h 0.86937 v 0.20498 h -1.114144 z"
         style="text-align:center;text-anchor:middle;stroke-width:0.26458332"
         id="path1104"
         inkscape:connector-curvature="0" />
      <path
         d="m -27.323564,236.0654 h 1.068324 v 0.20498 h -0.824756 v 0.53296 h 0.788582 v 0.20498 h -0.788582 v 0.65233 h 0.847666 v 0.20498 h -1.091234 z"
         style="text-align:center;text-anchor:middle;stroke-width:0.26458332"
         id="path1106"
         inkscape:connector-curvature="0" />
      <path
         d="m -26.075578,236.0654 h 0.237539 l 0.172427,1.46141 0.204983,-0.96704 h 0.25442 l 0.207395,0.96945 0.172427,-1.46382 h 0.23754 l -0.26889,1.80023 h -0.230305 l -0.244774,-1.06953 -0.243568,1.06953 h -0.230305 z"
         style="text-align:center;text-anchor:middle;stroke-width:0.26458332"
         id="path1108"
         inkscape:connector-curvature="0" />
    </g>
    <g
       aria-label="CV SLEW"
       style="font-style:normal;font-variant:normal;font-weight:normal;font-stretch:normal;font-size:2.46944451px;line-height:1.25;font-family:'DejaVu Sans Mono';-inkscape-font-specification:'DejaVu Sans Mono';letter-spacing:0px;word-spacing:0px;fill:#000000;fill-opacity:1;stroke:none;stroke-width:0.26458332"
       id="text1166"
       transform="translate(45.119379,15.301693)">
      <path
         d="m -41.171816,256.85171 q -0.09285,0.0494 -0.190514,0.0736 -0.09767,0.0253 -0.207395,0.0253 -0.34606,0 -0.537779,-0.24478 -0.190514,-0.24477 -0.190514,-0.6885 0,-0.44132 0.19172,-0.6873 0.192925,-0.24718 0.536573,-0.24718 0.109726,0 0.207395,0.0253 0.09767,0.0241 0.190514,0.0736 v 0.2496 q -0.08923,-0.0735 -0.19172,-0.11214 -0.102491,-0.0386 -0.206189,-0.0386 -0.237539,0 -0.355706,0.18328 -0.118167,0.18327 -0.118167,0.55345 0,0.36897 0.118167,0.55225 0.118167,0.18328 0.355706,0.18328 0.106109,0 0.207395,-0.0386 0.102492,-0.0386 0.190514,-0.11213 z"
         style="stroke-width:0.26458332"
         id="path1169"
         inkscape:connector-curvature="0" />
      <path
         d="m -40.237334,256.71064 0.42323,-1.59526 h 0.252009 l -0.526928,1.80024 h -0.295417 l -0.526927,-1.80024 h 0.252009 z"
         style="stroke-width:0.26458332"
         id="path1171"
         inkscape:connector-curvature="0" />
      <path
         d="m -36.788793,255.17688 v 0.24718 q -0.110932,-0.0711 -0.22307,-0.10731 -0.110932,-0.0362 -0.224276,-0.0362 -0.172427,0 -0.272507,0.0808 -0.10008,0.0796 -0.10008,0.21584 0,0.11937 0.06511,0.18207 0.06632,0.0627 0.24598,0.10491 l 0.127813,0.0289 q 0.253215,0.0591 0.36897,0.1857 0.115755,0.1266 0.115755,0.34485 0,0.25683 -0.159163,0.39188 -0.159164,0.13505 -0.463021,0.13505 -0.126607,0 -0.25442,-0.0277 -0.127813,-0.0265 -0.256832,-0.0808 v -0.25925 q 0.138665,0.088 0.261655,0.12902 0.124195,0.041 0.249597,0.041 0.184485,0 0.286976,-0.082 0.102492,-0.0832 0.102492,-0.23151 0,-0.13504 -0.07114,-0.20618 -0.06994,-0.0712 -0.244774,-0.10973 l -0.130225,-0.0301 q -0.250803,-0.0567 -0.364147,-0.17122 -0.113343,-0.11455 -0.113343,-0.30747 0,-0.24116 0.161575,-0.38585 0.162781,-0.1459 0.43167,-0.1459 0.103698,0 0.218247,0.0241 0.11455,0.0229 0.241157,0.0699 z"
         style="stroke-width:0.26458332"
         id="path1173"
         inkscape:connector-curvature="0" />
      <path
         d="m -36.264278,255.11538 h 0.244775 v 1.59526 h 0.869369 v 0.20498 h -1.114144 z"
         style="stroke-width:0.26458332"
         id="path1175"
         inkscape:connector-curvature="0" />
      <path
         d="m -34.800456,255.11538 h 1.068324 v 0.20499 h -0.824756 v 0.53295 h 0.788582 v 0.20499 h -0.788582 v 0.65233 h 0.847666 v 0.20498 h -1.091234 z"
         style="stroke-width:0.26458332"
         id="path1177"
         inkscape:connector-curvature="0" />
      <path
         d="m -33.55247,255.11538 h 0.237539 l 0.172427,1.46141 0.204983,-0.96703 h 0.254421 l 0.207394,0.96945 0.172427,-1.46383 h 0.23754 l -0.26889,1.80024 h -0.230305 l -0.244774,-1.06953 -0.243568,1.06953 h -0.230304 z"
         style="stroke-width:0.26458332"
         id="path1179"
         inkscape:connector-curvature="0" />
    </g>
    <g
       aria-label="SHAPE"
       style="font-style:normal;font-variant:normal;font-weight:normal;font-stretch:normal;font-size:2.46944451px;line-height:1.25;font-family:'DejaVu Sans Mono';-inkscape-font-specification:'DejaVu Sans Mono';letter-spacing:0px;word-spacing:0px;fill:#000000;fill-opacity:1;stroke:none;stroke-width:0.26458332"
       id="text1184"
       transform="translate(38.878674,28.839586)">
      <path
         d="m -33.440159,225.01439 v 0.24718 q -0.110932,-0.0711 -0.22307,-0.10731 -0.110932,-0.0362 -0.224276,-0.0362 -0.172427,0 -0.272507,0.0808 -0.10008,0.0796 -0.10008,0.21584 0,0.11937 0.06511,0.18207 0.06632,0.0627 0.245979,0.1049 l 0.127813,0.0289 q 0.253215,0.0591 0.36897,0.18569 0.115755,0.12661 0.115755,0.34486 0,0.25683 -0.159163,0.39188 -0.159163,0.13505 -0.463021,0.13505 -0.126607,0 -0.25442,-0.0277 -0.127813,-0.0265 -0.256832,-0.0808 v -0.25925 q 0.138665,0.088 0.261655,0.12902 0.124196,0.041 0.249597,0.041 0.184485,0 0.286977,-0.082 0.102491,-0.0832 0.102491,-0.23151 0,-0.13504 -0.07114,-0.20619 -0.06994,-0.0711 -0.244774,-0.10972 l -0.130225,-0.0301 q -0.250803,-0.0567 -0.364146,-0.17122 -0.113344,-0.11455 -0.113344,-0.30747 0,-0.24116 0.161575,-0.38585 0.162781,-0.1459 0.431671,-0.1459 0.103697,0 0.218246,0.0241 0.11455,0.0229 0.241157,0.0699 z"
         style="stroke-width:0.26458332"
         id="path1187"
         inkscape:connector-curvature="0" />
      <path
         d="m -33.009694,224.95289 h 0.244774 v 0.73794 h 0.666798 v -0.73794 h 0.244774 v 1.80024 h -0.244774 v -0.85731 h -0.666798 v 0.85731 h -0.244774 z"
         style="stroke-width:0.26458332"
         id="path1189"
         inkscape:connector-curvature="0" />
      <path
         d="m -30.946599,225.16752 -0.256832,0.92122 h 0.513664 z m -0.147105,-0.21463 h 0.295417 l 0.551043,1.80024 h -0.252009 l -0.132636,-0.46905 h -0.630625 l -0.130225,0.46905 h -0.252008 z"
         style="stroke-width:0.26458332"
         id="path1191"
         inkscape:connector-curvature="0" />
      <path
         d="m -29.722728,225.15305 v 0.67645 h 0.282153 q 0.16881,0 0.262861,-0.0892 0.09526,-0.0892 0.09526,-0.2496 0,-0.16037 -0.09405,-0.24839 -0.09405,-0.0892 -0.264067,-0.0892 z m -0.243569,-0.20016 h 0.525722 q 0.301446,0 0.456992,0.13746 0.155546,0.13626 0.155546,0.40032 0,0.26648 -0.155546,0.40273 -0.15434,0.13626 -0.456992,0.13626 h -0.282153 v 0.72347 h -0.243569 z"
         style="stroke-width:0.26458332"
         id="path1193"
         inkscape:connector-curvature="0" />
      <path
         d="m -28.480771,224.95289 h 1.068324 v 0.20499 h -0.824756 v 0.53295 h 0.788582 v 0.20499 h -0.788582 v 0.65232 h 0.847666 v 0.20499 h -1.091234 z"
         style="stroke-width:0.26458332"
         id="path1195"
         inkscape:connector-curvature="0" />
    </g>
    <g
       transform="translate(78.933075,41.584687)"
       id="g1212"
       style="font-style:normal;font-variant:normal;font-weight:normal;font-stretch:normal;font-size:2.46944451px;line-height:1.25;font-family:'DejaVu Sans Mono';-inkscape-font-specification:'DejaVu Sans Mono';letter-spacing:0px;word-spacing:0px;fill:#000000;fill-opacity:1;stroke:none;stroke-width:0.26458332"
       aria-label="SLEW OUT">
      <path
         inkscape:connector-curvature="0"
         id="path1198"
         style="stroke-width:0.26458332"
         d="m -59.898491,249.35603 v 0.24719 q -0.110932,-0.0711 -0.22307,-0.10732 -0.110932,-0.0362 -0.224276,-0.0362 -0.172427,0 -0.272507,0.0808 -0.10008,0.0796 -0.10008,0.21583 0,0.11938 0.06511,0.18208 0.06632,0.0627 0.245979,0.1049 l 0.127813,0.0289 q 0.253215,0.0591 0.36897,0.18569 0.115755,0.12661 0.115755,0.34485 0,0.25683 -0.159163,0.39188 -0.159163,0.13505 -0.463021,0.13505 -0.126607,0 -0.25442,-0.0277 -0.127813,-0.0265 -0.256832,-0.0808 v -0.25924 q 0.138665,0.088 0.261655,0.12901 0.124196,0.041 0.249597,0.041 0.184485,0 0.286977,-0.082 0.102491,-0.0832 0.102491,-0.23151 0,-0.13505 -0.07114,-0.20619 -0.06994,-0.0711 -0.244774,-0.10973 l -0.130225,-0.0301 q -0.250803,-0.0567 -0.364146,-0.17122 -0.113344,-0.11455 -0.113344,-0.30748 0,-0.24115 0.161575,-0.38585 0.162781,-0.1459 0.43167,-0.1459 0.103698,0 0.218247,0.0241 0.11455,0.0229 0.241157,0.0699 z" />
      <path
         inkscape:connector-curvature="0"
         id="path1200"
         style="stroke-width:0.26458332"
         d="m -59.373975,249.29454 h 0.244774 v 1.59525 h 0.86937 v 0.20498 h -1.114144 z" />
      <path
         inkscape:connector-curvature="0"
         id="path1202"
         style="stroke-width:0.26458332"
         d="m -57.910154,249.29454 h 1.068324 v 0.20498 h -0.824756 v 0.53296 h 0.788583 v 0.20498 h -0.788583 v 0.65233 h 0.847666 v 0.20498 h -1.091234 z" />
      <path
         inkscape:connector-curvature="0"
         id="path1204"
         style="stroke-width:0.26458332"
         d="m -56.662168,249.29454 h 0.237539 l 0.172427,1.46141 0.204984,-0.96704 h 0.25442 l 0.207395,0.96945 0.172427,-1.46382 h 0.237539 l -0.26889,1.80023 h -0.230304 l -0.244774,-1.06953 -0.243569,1.06953 h -0.230304 z" />
      <path
         inkscape:connector-curvature="0"
         id="path1206"
         style="stroke-width:0.26458332"
         d="m -52.599884,250.19646 q 0,-0.3967 -0.08199,-0.56671 -0.08079,-0.17002 -0.266478,-0.17002 -0.184485,0 -0.266478,0.17002 -0.08079,0.17001 -0.08079,0.56671 0,0.3955 0.08079,0.56552 0.08199,0.17001 0.266478,0.17001 0.18569,0 0.266478,-0.16881 0.08199,-0.17001 0.08199,-0.56672 z m 0.254421,0 q 0,0.47026 -0.149518,0.70177 -0.148311,0.23151 -0.453374,0.23151 -0.305063,0 -0.453375,-0.2303 -0.148311,-0.23031 -0.148311,-0.70298 0,-0.47146 0.148311,-0.70297 0.149517,-0.23151 0.453375,-0.23151 0.305063,0 0.453374,0.23151 0.149518,0.23151 0.149518,0.70297 z" />
      <path
         inkscape:connector-curvature="0"
         id="path1208"
         style="stroke-width:0.26458332"
         d="m -52.028342,250.40386 v -1.10932 h 0.244774 v 1.22025 q 0,0.13143 0.0072,0.1881 0.0072,0.0555 0.02532,0.0856 0.03859,0.0711 0.110932,0.10732 0.07355,0.0362 0.17725,0.0362 0.104904,0 0.177251,-0.0362 0.07235,-0.0362 0.112137,-0.10732 0.01809,-0.0301 0.02532,-0.0856 0.0072,-0.0555 0.0072,-0.18569 v -1.22266 h 0.243568 v 1.10932 q 0,0.27612 -0.03497,0.39308 -0.03376,0.11576 -0.118167,0.19172 -0.07958,0.0711 -0.182073,0.10611 -0.102492,0.035 -0.230305,0.035 -0.126607,0 -0.229098,-0.035 -0.102492,-0.035 -0.183279,-0.10611 -0.0832,-0.0748 -0.118167,-0.19292 -0.03497,-0.11937 -0.03497,-0.39188 z" />
      <path
         inkscape:connector-curvature="0"
         id="path1210"
         style="stroke-width:0.26458332"
         d="m -50.663395,249.29454 h 1.373387 v 0.20498 h -0.563101 v 1.59525 h -0.244774 v -1.59525 h -0.565512 z" />
    </g>
    <g
       aria-label="UNI"
       style="font-style:normal;font-variant:normal;font-weight:normal;font-stretch:normal;font-size:2.46944451px;line-height:1.25;font-family:'DejaVu Sans Mono';-inkscape-font-specification:'DejaVu Sans Mono';letter-spacing:0px;word-spacing:0px;fill:#000000;fill-opacity:1;stroke:none;stroke-width:0.26458332"
       id="text965"
       transform="translate(57.468446,-0.52916664)">
      <path
         d="m -35.673786,212.17159 v -1.10932 h 0.244774 v 1.22025 q 0,0.13143 0.0072,0.1881 0.0072,0.0555 0.02532,0.0856 0.03858,0.0711 0.110932,0.10732 0.07355,0.0362 0.177251,0.0362 0.104903,0 0.17725,-0.0362 0.07235,-0.0362 0.112138,-0.10732 0.01809,-0.0301 0.02532,-0.0856 0.0072,-0.0555 0.0072,-0.18569 v -1.22266 h 0.243568 v 1.10932 q 0,0.27612 -0.03497,0.39308 -0.03376,0.11576 -0.118167,0.19172 -0.07958,0.0711 -0.182073,0.10611 -0.102491,0.035 -0.230304,0.035 -0.126608,0 -0.229099,-0.035 -0.102492,-0.035 -0.183279,-0.10611 -0.0832,-0.0748 -0.118167,-0.19292 -0.03497,-0.11937 -0.03497,-0.39188 z"
         style="stroke-width:0.26458332"
         id="path971"
         inkscape:connector-curvature="0" />
      <path
         d="m -34.197907,211.06227 h 0.308681 l 0.607715,1.48191 v -1.48191 h 0.235127 v 1.80023 h -0.30868 l -0.607715,-1.4819 v 1.4819 h -0.235128 z"
         style="stroke-width:0.26458332"
         id="path973"
         inkscape:connector-curvature="0" />
      <path
         d="m -32.637623,211.06227 h 0.999594 v 0.20498 h -0.37741 v 1.39027 h 0.37741 v 0.20498 h -0.999594 v -0.20498 h 0.37741 v -1.39027 h -0.37741 z"
         style="stroke-width:0.26458332"
         id="path975"
         inkscape:connector-curvature="0" />
    </g>
    <g
       aria-label="BI"
       style="font-style:normal;font-variant:normal;font-weight:normal;font-stretch:normal;font-size:2.46944451px;line-height:1.25;font-family:'DejaVu Sans Mono';-inkscape-font-specification:'DejaVu Sans Mono';letter-spacing:0px;word-spacing:0px;fill:#000000;fill-opacity:1;stroke:none;stroke-width:0.26458332"
       id="text969"
       transform="translate(58.199715,-1.0583333)">
      <path
         d="m -35.406102,222.58612 v 0.65957 h 0.288182 q 0.212218,0 0.302652,-0.0736 0.09043,-0.0748 0.09043,-0.24477 0,-0.17604 -0.09526,-0.25804 -0.09526,-0.0832 -0.297829,-0.0832 z m 0,-0.74035 v 0.5426 h 0.283359 q 0.176045,0 0.25442,-0.0675 0.07958,-0.0675 0.07958,-0.21825 0,-0.13625 -0.07838,-0.19654 -0.07717,-0.0603 -0.255626,-0.0603 z m -0.244774,-0.20016 h 0.532956 q 0.276125,0 0.425642,0.11937 0.149517,0.11938 0.149517,0.33762 0,0.1652 -0.07958,0.26045 -0.07838,0.0953 -0.236333,0.11938 0.17725,0.0265 0.27733,0.15192 0.101286,0.1242 0.101286,0.31713 0,0.24477 -0.160369,0.37017 -0.16037,0.1242 -0.477491,0.1242 h -0.532956 z"
         style="stroke-width:0.26458332"
         id="path978"
         inkscape:connector-curvature="0" />
      <path
         d="m -34.123148,221.64561 h 0.999594 v 0.20499 h -0.37741 v 1.39026 h 0.37741 v 0.20499 h -0.999594 v -0.20499 h 0.37741 v -1.39026 h -0.37741 z"
         style="stroke-width:0.26458332"
         id="path980"
         inkscape:connector-curvature="0" />
    </g>
    <g
       aria-label="CV S"
       style="font-style:normal;font-variant:normal;font-weight:normal;font-stretch:normal;font-size:2.46944451px;line-height:1.25;font-family:'DejaVu Sans Mono';-inkscape-font-specification:'DejaVu Sans Mono';letter-spacing:0px;word-spacing:0px;fill:#000000;fill-opacity:1;stroke:none;stroke-width:0.26458332"
       id="text1029"
       transform="translate(65.949889,25.620518)">
      <path
         d="m -43.817648,246.53297 q -0.09285,0.0494 -0.190514,0.0735 -0.09767,0.0253 -0.207395,0.0253 -0.34606,0 -0.537779,-0.24478 -0.190514,-0.24477 -0.190514,-0.6885 0,-0.44132 0.191719,-0.6873 0.192926,-0.24718 0.536574,-0.24718 0.109726,0 0.207395,0.0253 0.09767,0.0241 0.190514,0.0735 v 0.2496 q -0.08923,-0.0736 -0.19172,-0.11214 -0.102492,-0.0386 -0.206189,-0.0386 -0.237539,0 -0.355706,0.18327 -0.118167,0.18328 -0.118167,0.55346 0,0.36897 0.118167,0.55225 0.118167,0.18328 0.355706,0.18328 0.106109,0 0.207395,-0.0386 0.102491,-0.0386 0.190514,-0.11214 z"
         style="stroke-width:0.26458332"
         id="path1031"
         inkscape:connector-curvature="0" />
      <path
         d="m -42.883166,246.39189 0.42323,-1.59525 h 0.252009 l -0.526928,1.80024 h -0.295417 l -0.526927,-1.80024 h 0.252009 z"
         style="stroke-width:0.26458332"
         id="path1033"
         inkscape:connector-curvature="0" />
      <path
         d="m -39.434625,244.85814 v 0.24718 q -0.110932,-0.0711 -0.22307,-0.10731 -0.110932,-0.0362 -0.224276,-0.0362 -0.172427,0 -0.272507,0.0808 -0.10008,0.0796 -0.10008,0.21584 0,0.11937 0.06511,0.18207 0.06632,0.0627 0.24598,0.1049 l 0.127813,0.0289 q 0.253215,0.0591 0.36897,0.18569 0.115755,0.12661 0.115755,0.34486 0,0.25683 -0.159163,0.39188 -0.159164,0.13505 -0.463021,0.13505 -0.126607,0 -0.25442,-0.0277 -0.127814,-0.0265 -0.256832,-0.0808 v -0.25925 q 0.138665,0.088 0.261655,0.12902 0.124195,0.041 0.249597,0.041 0.184485,0 0.286976,-0.082 0.102492,-0.0832 0.102492,-0.23151 0,-0.13504 -0.07114,-0.20619 -0.06994,-0.0711 -0.244774,-0.10972 l -0.130225,-0.0301 q -0.250803,-0.0567 -0.364147,-0.17122 -0.113343,-0.11455 -0.113343,-0.30747 0,-0.24116 0.161575,-0.38585 0.162781,-0.1459 0.43167,-0.1459 0.103698,0 0.218247,0.0241 0.114549,0.0229 0.241157,0.0699 z"
         style="stroke-width:0.26458332"
         id="path1035"
         inkscape:connector-curvature="0" />
    </g>
    <g
       id="g1044"
       style="font-style:normal;font-variant:normal;font-weight:normal;font-stretch:normal;font-size:2.46944451px;line-height:1.25;font-family:'DejaVu Sans Mono';-inkscape-font-specification:'DejaVu Sans Mono';letter-spacing:0px;word-spacing:0px;fill:#000000;fill-opacity:1;stroke:none;stroke-width:0.26458332"
       aria-label="CV S"
       transform="translate(65.420722,10.803851)">
      <path
         id="path1038"
         style="stroke-width:0.26458332"
         d="m -43.817648,246.53297 q -0.09285,0.0494 -0.190514,0.0735 -0.09767,0.0253 -0.207395,0.0253 -0.34606,0 -0.537779,-0.24478 -0.190514,-0.24477 -0.190514,-0.6885 0,-0.44132 0.191719,-0.6873 0.192926,-0.24718 0.536574,-0.24718 0.109726,0 0.207395,0.0253 0.09767,0.0241 0.190514,0.0735 v 0.2496 q -0.08923,-0.0736 -0.19172,-0.11214 -0.102492,-0.0386 -0.206189,-0.0386 -0.237539,0 -0.355706,0.18327 -0.118167,0.18328 -0.118167,0.55346 0,0.36897 0.118167,0.55225 0.118167,0.18328 0.355706,0.18328 0.106109,0 0.207395,-0.0386 0.102491,-0.0386 0.190514,-0.11214 z"
         inkscape:connector-curvature="0" />
      <path
         id="path1040"
         style="stroke-width:0.26458332"
         d="m -42.883166,246.39189 0.42323,-1.59525 h 0.252009 l -0.526928,1.80024 h -0.295417 l -0.526927,-1.80024 h 0.252009 z"
         inkscape:connector-curvature="0" />
      <path
         id="path1042"
         style="stroke-width:0.26458332"
         d="m -39.434625,244.85814 v 0.24718 q -0.110932,-0.0711 -0.22307,-0.10731 -0.110932,-0.0362 -0.224276,-0.0362 -0.172427,0 -0.272507,0.0808 -0.10008,0.0796 -0.10008,0.21584 0,0.11937 0.06511,0.18207 0.06632,0.0627 0.24598,0.1049 l 0.127813,0.0289 q 0.253215,0.0591 0.36897,0.18569 0.115755,0.12661 0.115755,0.34486 0,0.25683 -0.159163,0.39188 -0.159164,0.13505 -0.463021,0.13505 -0.126607,0 -0.25442,-0.0277 -0.127814,-0.0265 -0.256832,-0.0808 v -0.25925 q 0.138665,0.088 0.261655,0.12902 0.124195,0.041 0.249597,0.041 0.184485,0 0.286976,-0.082 0.102492,-0.0832 0.102492,-0.23151 0,-0.13504 -0.07114,-0.20619 -0.06994,-0.0711 -0.244774,-0.10972 l -0.130225,-0.0301 q -0.250803,-0.0567 -0.364147,-0.17122 -0.113343,-0.11455 -0.113343,-0.30747 0,-0.24116 0.161575,-0.38585 0.162781,-0.1459 0.43167,-0.1459 0.103698,0 0.218247,0.0241 0.114549,0.0229 0.241157,0.0699 z"
         inkscape:connector-curvature="0" />
    </g>
  </g>
</svg>
