<?xml version="1.0" encoding="UTF-8" standalone="no"?>
<!-- Created with Inkscape (http://www.inkscape.org/) -->

<svg
   xmlns:dc="http://purl.org/dc/elements/1.1/"
   xmlns:cc="http://creativecommons.org/ns#"
   xmlns:rdf="http://www.w3.org/1999/02/22-rdf-syntax-ns#"
   xmlns:svg="http://www.w3.org/2000/svg"
   xmlns="http://www.w3.org/2000/svg"
   xmlns:sodipodi="http://sodipodi.sourceforge.net/DTD/sodipodi-0.dtd"
   xmlns:inkscape="http://www.inkscape.org/namespaces/inkscape"
   width="75"
   height="380"
   viewBox="0 0 19.84375 100.54167"
   version="1.1"
   id="svg8"
   inkscape:version="0.92.2 (5c3e80d, 2017-08-06)"
   sodipodi:docname="RingMod-Dark.svg">
  <defs
     id="defs2" />
  <sodipodi:namedview
     id="base"
     pagecolor="#ffffff"
     bordercolor="#666666"
     borderopacity="1.0"
     inkscape:pageopacity="0.0"
     inkscape:pageshadow="2"
     inkscape:zoom="1.8241125"
     inkscape:cx="-27.14334"
     inkscape:cy="197.0208"
     inkscape:document-units="mm"
     inkscape:current-layer="layer1"
     showgrid="false"
     units="px"
     inkscape:window-width="1920"
     inkscape:window-height="1033"
     inkscape:window-x="-4"
     inkscape:window-y="-4"
     inkscape:window-maximized="1" />
  <metadata
     id="metadata5">
    <rdf:RDF>
      <cc:Work
         rdf:about="">
        <dc:format>image/svg+xml</dc:format>
        <dc:type
           rdf:resource="http://purl.org/dc/dcmitype/StillImage" />
        <dc:title></dc:title>
      </cc:Work>
    </rdf:RDF>
  </metadata>
  <g
     inkscape:label="Layer 1"
     inkscape:groupmode="layer"
     id="layer1"
     transform="translate(0,-196.45832)">
    <path
       style="opacity:1;fill:#333333;fill-opacity:1;fill-rule:nonzero;stroke:none;stroke-width:0.1118034;stroke-linecap:round;stroke-linejoin:miter;stroke-miterlimit:4;stroke-dasharray:none;stroke-dashoffset:0;stroke-opacity:1;paint-order:markers stroke fill"
       d="M 0,196.45833 H 19.84375 V 296.99998 H 0 Z"
       id="rect815"
       inkscape:connector-curvature="0" />
    <g
       inkscape:transform-center-y="119.65244"
       inkscape:transform-center-x="-44.974764"
       id="g1358"
       transform="matrix(1.4311608,-1.4311608,1.4311608,1.4311608,-229.09109,-293.88753)"
       style="opacity:1;fill:none;fill-opacity:1;stroke:#000000;stroke-width:0.04940792;stroke-miterlimit:4;stroke-dasharray:none;stroke-opacity:1">
      <g
         id="g1356"
         style="fill:none;fill-opacity:1;stroke:#000000;stroke-width:0.04940792;stroke-miterlimit:4;stroke-dasharray:none;stroke-opacity:1">
        <g
           id="g1324"
           transform="translate(185.73646,-9.5250064)"
           style="fill:none;fill-opacity:1;stroke:#000000;stroke-width:0.04940792;stroke-miterlimit:4;stroke-dasharray:none;stroke-opacity:1">
          <g
             transform="translate(-137.10274)"
             id="g1308"
             style="fill:none;fill-opacity:1;stroke:#000000;stroke-width:0.04940792;stroke-miterlimit:4;stroke-dasharray:none;stroke-opacity:1">
            <path
               inkscape:connector-curvature="0"
               style="opacity:1;fill:none;fill-opacity:1;fill-rule:nonzero;stroke:#000000;stroke-width:0.1867386;stroke-linecap:round;stroke-linejoin:miter;stroke-miterlimit:4;stroke-dasharray:none;stroke-dashoffset:0;stroke-opacity:1;paint-order:markers stroke fill"
               d="m -718.94922,154.57227 c -14.32932,0.45458 -33.60356,20.71937 -31.29883,34.27148 -2.45838,14.45558 19.63622,36.55017 34.0918,34.0918 h 134.0918 v -9.0918 h -100.00196 v -25 c 2.45839,-14.4556 -19.63425,-36.54823 -34.08984,-34.08984 -0.90347,-0.15365 -1.83768,-0.21195 -2.79297,-0.18164 z m 1.00586,8.95898 c 0.63005,0.0232 1.22828,0.12471 1.78711,0.3125 8.94127,-3.00469 28.00471,16.05874 25,25 v 25 h -25 c -8.94126,3.00469 -28.00469,-16.05873 -25,-25 -2.8169,-8.38244 13.76214,-25.66117 23.21289,-25.3125 z m 26.78711,150.3125 v 9.0918 h 9.08984 v -9.0918 z"
               transform="matrix(0.26458333,0,0,0.26458333,0,196.45832)"
               id="path1296" />
            <path
               inkscape:connector-curvature="0"
               style="opacity:1;fill:none;fill-opacity:1;fill-rule:nonzero;stroke:#000000;stroke-width:0.1867386;stroke-linecap:round;stroke-linejoin:miter;stroke-miterlimit:4;stroke-dasharray:none;stroke-dashoffset:0;stroke-opacity:1;paint-order:markers stroke fill"
               d="m -718.55273,136.5293 c -24.81903,0.43381 -51.20004,27.62664 -49.87696,52.31445 -1.36576,25.48418 26.78925,53.63919 52.27344,52.27344 h 134.0918 v -9.0918 h -134.0918 c -19.96987,1.91207 -45.09371,-23.21177 -43.18164,-43.18164 -1.91207,-19.96987 23.21177,-45.0937 43.18164,-43.18164 19.96988,-1.91208 45.09374,23.21176 43.18164,43.18164 v 25 h 9.0918 v -25 c 1.36576,-25.4842 -26.78924,-53.63725 -52.27344,-52.27148 -0.79638,-0.0427 -1.59587,-0.057 -2.39648,-0.043 z m 45.57812,177.31445 v 9.0918 h 9.0918 v -9.0918 z"
               transform="matrix(0.26458333,0,0,0.26458333,0,196.45832)"
               id="path1298" />
            <path
               inkscape:connector-curvature="0"
               style="opacity:1;fill:none;fill-opacity:1;fill-rule:nonzero;stroke:#000000;stroke-width:0.1867386;stroke-linecap:round;stroke-linejoin:miter;stroke-miterlimit:4;stroke-dasharray:none;stroke-dashoffset:0;stroke-opacity:1;paint-order:markers stroke fill"
               d="m -716.15625,118.38867 c -36.51277,-0.27315 -70.72823,33.94231 -70.45508,70.45508 -0.27315,36.51277 33.94231,70.72822 70.45508,70.45508 h 134.0918 v -9.0918 h -134.0918 c -30.99848,0.81946 -62.18274,-30.3648 -61.36328,-61.36328 -0.81946,-30.99848 30.3648,-62.18273 61.36328,-61.36328 30.9985,-0.81946 62.18277,30.36478 61.36328,61.36328 v 25 h 9.0918 v -25 c 0.27315,-36.51278 -33.94229,-70.72823 -70.45508,-70.45508 z m 61.36328,195.45508 v 9.0918 h 9.0918 v -9.0918 z"
               transform="matrix(0.26458333,0,0,0.26458333,0,196.45832)"
               id="path1300" />
            <path
               inkscape:connector-curvature="0"
               style="opacity:1;fill:none;fill-opacity:1;fill-rule:nonzero;stroke:#000000;stroke-width:0.1867386;stroke-linecap:round;stroke-linejoin:miter;stroke-miterlimit:4;stroke-dasharray:none;stroke-dashoffset:0;stroke-opacity:1;paint-order:markers stroke fill"
               d="m -716.15625,100.20703 c -47.54138,0.81946 -87.81726,41.09534 -88.63672,88.63672 0.81946,47.54137 41.09535,87.81724 88.63672,88.63672 h 134.0918 v -9.0918 h -134.0918 v 0.002 c -42.02709,-0.27313 -79.27177,-37.51979 -79.54492,-79.54687 0.27315,-42.02708 37.51784,-79.27175 79.54492,-79.54492 42.02711,0.27315 79.2718,37.51781 79.54492,79.54492 v 25 h 9.0918 v -25 c -0.81947,-47.54138 -41.09532,-87.81726 -88.63672,-88.63672 z m 79.54492,213.63672 v 9.0918 h 9.0918 v -9.0918 z"
               transform="matrix(0.26458333,0,0,0.26458333,0,196.45832)"
               id="path1302" />
            <path
               inkscape:connector-curvature="0"
               style="opacity:1;fill:none;fill-opacity:1;fill-rule:nonzero;stroke:#000000;stroke-width:0.1867386;stroke-linecap:round;stroke-linejoin:miter;stroke-miterlimit:4;stroke-dasharray:none;stroke-dashoffset:0;stroke-opacity:1;paint-order:markers stroke fill"
               d="m -716.15625,82.025391 c -58.56997,1.912073 -104.90628,48.248379 -106.81836,106.818359 1.91207,58.56996 48.2484,104.90626 106.81836,106.81836 h 134.0918 v -9.08984 h -134.0918 c -53.05565,-1.36577 -96.3608,-44.67288 -97.72656,-97.72852 1.36576,-53.05564 44.67093,-96.360781 97.72656,-97.726562 53.05567,1.365765 96.36083,44.670882 97.72656,97.726562 v 25 h 9.0918 v -25 C -611.24997,130.27379 -657.58625,83.937471 -716.15625,82.025391 Z m 97.72656,231.818359 v 9.0918 h 9.0918 v -9.0918 z"
               transform="matrix(0.26458333,0,0,0.26458333,0,196.45832)"
               id="path1304" />
            <path
               inkscape:connector-curvature="0"
               style="opacity:1;fill:none;fill-opacity:1;fill-rule:nonzero;stroke:#000000;stroke-width:0.1867386;stroke-linecap:round;stroke-linejoin:miter;stroke-miterlimit:4;stroke-dasharray:none;stroke-dashoffset:0;stroke-opacity:1;paint-order:markers stroke fill"
               d="m -716.15625,63.84375 c -69.59855,3.004689 -121.99531,55.40145 -125,125 3.00469,69.59853 55.40147,121.99529 125,125 h 115.9082 v 9.0918 h 9.0918 v -9.0918 h 9.0918 v -9.08984 h -134.0918 c -64.08426,-2.45838 -113.45177,-51.82592 -115.91016,-115.91016 2.45839,-64.08424 51.82592,-113.449802 115.91016,-115.908203 64.08428,2.458384 113.44986,51.823903 115.9082,115.908203 v 25 h 9.0918 v -25 c -3.0047,-69.59854 -55.40142,-121.99531 -125,-125 z"
               transform="matrix(0.26458333,0,0,0.26458333,0,196.45832)"
               id="path1306" />
          </g>
          <g
             transform="rotate(90,-222.55592,213.35031)"
             id="g1322"
             style="fill:none;fill-opacity:1;stroke:#000000;stroke-width:0.04940792;stroke-miterlimit:4;stroke-dasharray:none;stroke-opacity:1">
            <path
               inkscape:connector-curvature="0"
               id="path1310"
               transform="matrix(0.26458333,0,0,0.26458333,0,196.45832)"
               d="m -718.94922,154.57227 c -14.32932,0.45458 -33.60356,20.71937 -31.29883,34.27148 -2.45838,14.45558 19.63622,36.55017 34.0918,34.0918 h 134.0918 v -9.0918 h -100.00196 v -25 c 2.45839,-14.4556 -19.63425,-36.54823 -34.08984,-34.08984 -0.90347,-0.15365 -1.83768,-0.21195 -2.79297,-0.18164 z m 1.00586,8.95898 c 0.63005,0.0232 1.22828,0.12471 1.78711,0.3125 8.94127,-3.00469 28.00471,16.05874 25,25 v 25 h -25 c -8.94126,3.00469 -28.00469,-16.05873 -25,-25 -2.8169,-8.38244 13.76214,-25.66117 23.21289,-25.3125 z m 26.78711,150.3125 v 9.0918 h 9.08984 v -9.0918 z"
               style="opacity:1;fill:none;fill-opacity:1;fill-rule:nonzero;stroke:#000000;stroke-width:0.1867386;stroke-linecap:round;stroke-linejoin:miter;stroke-miterlimit:4;stroke-dasharray:none;stroke-dashoffset:0;stroke-opacity:1;paint-order:markers stroke fill" />
            <path
               inkscape:connector-curvature="0"
               id="path1312"
               transform="matrix(0.26458333,0,0,0.26458333,0,196.45832)"
               d="m -718.55273,136.5293 c -24.81903,0.43381 -51.20004,27.62664 -49.87696,52.31445 -1.36576,25.48418 26.78925,53.63919 52.27344,52.27344 h 134.0918 v -9.0918 h -134.0918 c -19.96987,1.91207 -45.09371,-23.21177 -43.18164,-43.18164 -1.91207,-19.96987 23.21177,-45.0937 43.18164,-43.18164 19.96988,-1.91208 45.09374,23.21176 43.18164,43.18164 v 25 h 9.0918 v -25 c 1.36576,-25.4842 -26.78924,-53.63725 -52.27344,-52.27148 -0.79638,-0.0427 -1.59587,-0.057 -2.39648,-0.043 z m 45.57812,177.31445 v 9.0918 h 9.0918 v -9.0918 z"
               style="opacity:1;fill:none;fill-opacity:1;fill-rule:nonzero;stroke:#000000;stroke-width:0.1867386;stroke-linecap:round;stroke-linejoin:miter;stroke-miterlimit:4;stroke-dasharray:none;stroke-dashoffset:0;stroke-opacity:1;paint-order:markers stroke fill" />
            <path
               inkscape:connector-curvature="0"
               id="path1314"
               transform="matrix(0.26458333,0,0,0.26458333,0,196.45832)"
               d="m -716.15625,118.38867 c -36.51277,-0.27315 -70.72823,33.94231 -70.45508,70.45508 -0.27315,36.51277 33.94231,70.72822 70.45508,70.45508 h 134.0918 v -9.0918 h -134.0918 c -30.99848,0.81946 -62.18274,-30.3648 -61.36328,-61.36328 -0.81946,-30.99848 30.3648,-62.18273 61.36328,-61.36328 30.9985,-0.81946 62.18277,30.36478 61.36328,61.36328 v 25 h 9.0918 v -25 c 0.27315,-36.51278 -33.94229,-70.72823 -70.45508,-70.45508 z m 61.36328,195.45508 v 9.0918 h 9.0918 v -9.0918 z"
               style="opacity:1;fill:none;fill-opacity:1;fill-rule:nonzero;stroke:#000000;stroke-width:0.1867386;stroke-linecap:round;stroke-linejoin:miter;stroke-miterlimit:4;stroke-dasharray:none;stroke-dashoffset:0;stroke-opacity:1;paint-order:markers stroke fill" />
            <path
               inkscape:connector-curvature="0"
               id="path1316"
               transform="matrix(0.26458333,0,0,0.26458333,0,196.45832)"
               d="m -716.15625,100.20703 c -47.54138,0.81946 -87.81726,41.09534 -88.63672,88.63672 0.81946,47.54137 41.09535,87.81724 88.63672,88.63672 h 134.0918 v -9.0918 h -134.0918 v 0.002 c -42.02709,-0.27313 -79.27177,-37.51979 -79.54492,-79.54687 0.27315,-42.02708 37.51784,-79.27175 79.54492,-79.54492 42.02711,0.27315 79.2718,37.51781 79.54492,79.54492 v 25 h 9.0918 v -25 c -0.81947,-47.54138 -41.09532,-87.81726 -88.63672,-88.63672 z m 79.54492,213.63672 v 9.0918 h 9.0918 v -9.0918 z"
               style="opacity:1;fill:none;fill-opacity:1;fill-rule:nonzero;stroke:#000000;stroke-width:0.1867386;stroke-linecap:round;stroke-linejoin:miter;stroke-miterlimit:4;stroke-dasharray:none;stroke-dashoffset:0;stroke-opacity:1;paint-order:markers stroke fill" />
            <path
               inkscape:connector-curvature="0"
               id="path1318"
               transform="matrix(0.26458333,0,0,0.26458333,0,196.45832)"
               d="m -716.15625,82.025391 c -58.56997,1.912073 -104.90628,48.248379 -106.81836,106.818359 1.91207,58.56996 48.2484,104.90626 106.81836,106.81836 h 134.0918 v -9.08984 h -134.0918 c -53.05565,-1.36577 -96.3608,-44.67288 -97.72656,-97.72852 1.36576,-53.05564 44.67093,-96.360781 97.72656,-97.726562 53.05567,1.365765 96.36083,44.670882 97.72656,97.726562 v 25 h 9.0918 v -25 C -611.24997,130.27379 -657.58625,83.937471 -716.15625,82.025391 Z m 97.72656,231.818359 v 9.0918 h 9.0918 v -9.0918 z"
               style="opacity:1;fill:none;fill-opacity:1;fill-rule:nonzero;stroke:#000000;stroke-width:0.1867386;stroke-linecap:round;stroke-linejoin:miter;stroke-miterlimit:4;stroke-dasharray:none;stroke-dashoffset:0;stroke-opacity:1;paint-order:markers stroke fill" />
            <path
               inkscape:connector-curvature="0"
               id="path1320"
               transform="matrix(0.26458333,0,0,0.26458333,0,196.45832)"
               d="m -716.15625,63.84375 c -69.59855,3.004689 -121.99531,55.40145 -125,125 3.00469,69.59853 55.40147,121.99529 125,125 h 115.9082 v 9.0918 h 9.0918 v -9.0918 h 9.0918 v -9.08984 h -134.0918 c -64.08426,-2.45838 -113.45177,-51.82592 -115.91016,-115.91016 2.45839,-64.08424 51.82592,-113.449802 115.91016,-115.908203 64.08428,2.458384 113.44986,51.823903 115.9082,115.908203 v 25 h 9.0918 v -25 c -3.0047,-69.59854 -55.40142,-121.99531 -125,-125 z"
               style="opacity:1;fill:none;fill-opacity:1;fill-rule:nonzero;stroke:#000000;stroke-width:0.1867386;stroke-linecap:round;stroke-linejoin:miter;stroke-miterlimit:4;stroke-dasharray:none;stroke-dashoffset:0;stroke-opacity:1;paint-order:markers stroke fill" />
          </g>
        </g>
        <g
           transform="rotate(-180,-198.23854,277.13918)"
           id="g1354"
           style="fill:none;fill-opacity:1;stroke:#000000;stroke-width:0.04940792;stroke-miterlimit:4;stroke-dasharray:none;stroke-opacity:1">
          <g
             id="g1338"
             transform="translate(-137.10274)"
             style="fill:none;fill-opacity:1;stroke:#000000;stroke-width:0.04940792;stroke-miterlimit:4;stroke-dasharray:none;stroke-opacity:1">
            <path
               id="path1326"
               transform="matrix(0.26458333,0,0,0.26458333,0,196.45832)"
               d="m -718.94922,154.57227 c -14.32932,0.45458 -33.60356,20.71937 -31.29883,34.27148 -2.45838,14.45558 19.63622,36.55017 34.0918,34.0918 h 134.0918 v -9.0918 h -100.00196 v -25 c 2.45839,-14.4556 -19.63425,-36.54823 -34.08984,-34.08984 -0.90347,-0.15365 -1.83768,-0.21195 -2.79297,-0.18164 z m 1.00586,8.95898 c 0.63005,0.0232 1.22828,0.12471 1.78711,0.3125 8.94127,-3.00469 28.00471,16.05874 25,25 v 25 h -25 c -8.94126,3.00469 -28.00469,-16.05873 -25,-25 -2.8169,-8.38244 13.76214,-25.66117 23.21289,-25.3125 z m 26.78711,150.3125 v 9.0918 h 9.08984 v -9.0918 z"
               style="opacity:1;fill:none;fill-opacity:1;fill-rule:nonzero;stroke:#000000;stroke-width:0.1867386;stroke-linecap:round;stroke-linejoin:miter;stroke-miterlimit:4;stroke-dasharray:none;stroke-dashoffset:0;stroke-opacity:1;paint-order:markers stroke fill"
               inkscape:connector-curvature="0" />
            <path
               id="path1328"
               transform="matrix(0.26458333,0,0,0.26458333,0,196.45832)"
               d="m -718.55273,136.5293 c -24.81903,0.43381 -51.20004,27.62664 -49.87696,52.31445 -1.36576,25.48418 26.78925,53.63919 52.27344,52.27344 h 134.0918 v -9.0918 h -134.0918 c -19.96987,1.91207 -45.09371,-23.21177 -43.18164,-43.18164 -1.91207,-19.96987 23.21177,-45.0937 43.18164,-43.18164 19.96988,-1.91208 45.09374,23.21176 43.18164,43.18164 v 25 h 9.0918 v -25 c 1.36576,-25.4842 -26.78924,-53.63725 -52.27344,-52.27148 -0.79638,-0.0427 -1.59587,-0.057 -2.39648,-0.043 z m 45.57812,177.31445 v 9.0918 h 9.0918 v -9.0918 z"
               style="opacity:1;fill:none;fill-opacity:1;fill-rule:nonzero;stroke:#000000;stroke-width:0.1867386;stroke-linecap:round;stroke-linejoin:miter;stroke-miterlimit:4;stroke-dasharray:none;stroke-dashoffset:0;stroke-opacity:1;paint-order:markers stroke fill"
               inkscape:connector-curvature="0" />
            <path
               id="path1330"
               transform="matrix(0.26458333,0,0,0.26458333,0,196.45832)"
               d="m -716.15625,118.38867 c -36.51277,-0.27315 -70.72823,33.94231 -70.45508,70.45508 -0.27315,36.51277 33.94231,70.72822 70.45508,70.45508 h 134.0918 v -9.0918 h -134.0918 c -30.99848,0.81946 -62.18274,-30.3648 -61.36328,-61.36328 -0.81946,-30.99848 30.3648,-62.18273 61.36328,-61.36328 30.9985,-0.81946 62.18277,30.36478 61.36328,61.36328 v 25 h 9.0918 v -25 c 0.27315,-36.51278 -33.94229,-70.72823 -70.45508,-70.45508 z m 61.36328,195.45508 v 9.0918 h 9.0918 v -9.0918 z"
               style="opacity:1;fill:none;fill-opacity:1;fill-rule:nonzero;stroke:#000000;stroke-width:0.1867386;stroke-linecap:round;stroke-linejoin:miter;stroke-miterlimit:4;stroke-dasharray:none;stroke-dashoffset:0;stroke-opacity:1;paint-order:markers stroke fill"
               inkscape:connector-curvature="0" />
            <path
               id="path1332"
               transform="matrix(0.26458333,0,0,0.26458333,0,196.45832)"
               d="m -716.15625,100.20703 c -47.54138,0.81946 -87.81726,41.09534 -88.63672,88.63672 0.81946,47.54137 41.09535,87.81724 88.63672,88.63672 h 134.0918 v -9.0918 h -134.0918 v 0.002 c -42.02709,-0.27313 -79.27177,-37.51979 -79.54492,-79.54687 0.27315,-42.02708 37.51784,-79.27175 79.54492,-79.54492 42.02711,0.27315 79.2718,37.51781 79.54492,79.54492 v 25 h 9.0918 v -25 c -0.81947,-47.54138 -41.09532,-87.81726 -88.63672,-88.63672 z m 79.54492,213.63672 v 9.0918 h 9.0918 v -9.0918 z"
               style="opacity:1;fill:none;fill-opacity:1;fill-rule:nonzero;stroke:#000000;stroke-width:0.1867386;stroke-linecap:round;stroke-linejoin:miter;stroke-miterlimit:4;stroke-dasharray:none;stroke-dashoffset:0;stroke-opacity:1;paint-order:markers stroke fill"
               inkscape:connector-curvature="0" />
            <path
               id="path1334"
               transform="matrix(0.26458333,0,0,0.26458333,0,196.45832)"
               d="m -716.15625,82.025391 c -58.56997,1.912073 -104.90628,48.248379 -106.81836,106.818359 1.91207,58.56996 48.2484,104.90626 106.81836,106.81836 h 134.0918 v -9.08984 h -134.0918 c -53.05565,-1.36577 -96.3608,-44.67288 -97.72656,-97.72852 1.36576,-53.05564 44.67093,-96.360781 97.72656,-97.726562 53.05567,1.365765 96.36083,44.670882 97.72656,97.726562 v 25 h 9.0918 v -25 C -611.24997,130.27379 -657.58625,83.937471 -716.15625,82.025391 Z m 97.72656,231.818359 v 9.0918 h 9.0918 v -9.0918 z"
               style="opacity:1;fill:none;fill-opacity:1;fill-rule:nonzero;stroke:#000000;stroke-width:0.1867386;stroke-linecap:round;stroke-linejoin:miter;stroke-miterlimit:4;stroke-dasharray:none;stroke-dashoffset:0;stroke-opacity:1;paint-order:markers stroke fill"
               inkscape:connector-curvature="0" />
            <path
               id="path1336"
               transform="matrix(0.26458333,0,0,0.26458333,0,196.45832)"
               d="m -716.15625,63.84375 c -69.59855,3.004689 -121.99531,55.40145 -125,125 3.00469,69.59853 55.40147,121.99529 125,125 h 115.9082 v 9.0918 h 9.0918 v -9.0918 h 9.0918 v -9.08984 h -134.0918 c -64.08426,-2.45838 -113.45177,-51.82592 -115.91016,-115.91016 2.45839,-64.08424 51.82592,-113.449802 115.91016,-115.908203 64.08428,2.458384 113.44986,51.823903 115.9082,115.908203 v 25 h 9.0918 v -25 c -3.0047,-69.59854 -55.40142,-121.99531 -125,-125 z"
               style="opacity:1;fill:none;fill-opacity:1;fill-rule:nonzero;stroke:#000000;stroke-width:0.1867386;stroke-linecap:round;stroke-linejoin:miter;stroke-miterlimit:4;stroke-dasharray:none;stroke-dashoffset:0;stroke-opacity:1;paint-order:markers stroke fill"
               inkscape:connector-curvature="0" />
          </g>
          <g
             id="g1352"
             transform="rotate(90,-222.55592,213.35031)"
             style="fill:none;fill-opacity:1;stroke:#000000;stroke-width:0.04940792;stroke-miterlimit:4;stroke-dasharray:none;stroke-opacity:1">
            <path
               style="opacity:1;fill:none;fill-opacity:1;fill-rule:nonzero;stroke:#000000;stroke-width:0.1867386;stroke-linecap:round;stroke-linejoin:miter;stroke-miterlimit:4;stroke-dasharray:none;stroke-dashoffset:0;stroke-opacity:1;paint-order:markers stroke fill"
               d="m -718.94922,154.57227 c -14.32932,0.45458 -33.60356,20.71937 -31.29883,34.27148 -2.45838,14.45558 19.63622,36.55017 34.0918,34.0918 h 134.0918 v -9.0918 h -100.00196 v -25 c 2.45839,-14.4556 -19.63425,-36.54823 -34.08984,-34.08984 -0.90347,-0.15365 -1.83768,-0.21195 -2.79297,-0.18164 z m 1.00586,8.95898 c 0.63005,0.0232 1.22828,0.12471 1.78711,0.3125 8.94127,-3.00469 28.00471,16.05874 25,25 v 25 h -25 c -8.94126,3.00469 -28.00469,-16.05873 -25,-25 -2.8169,-8.38244 13.76214,-25.66117 23.21289,-25.3125 z m 26.78711,150.3125 v 9.0918 h 9.08984 v -9.0918 z"
               transform="matrix(0.26458333,0,0,0.26458333,0,196.45832)"
               id="path1340"
               inkscape:connector-curvature="0" />
            <path
               style="opacity:1;fill:none;fill-opacity:1;fill-rule:nonzero;stroke:#000000;stroke-width:0.1867386;stroke-linecap:round;stroke-linejoin:miter;stroke-miterlimit:4;stroke-dasharray:none;stroke-dashoffset:0;stroke-opacity:1;paint-order:markers stroke fill"
               d="m -718.55273,136.5293 c -24.81903,0.43381 -51.20004,27.62664 -49.87696,52.31445 -1.36576,25.48418 26.78925,53.63919 52.27344,52.27344 h 134.0918 v -9.0918 h -134.0918 c -19.96987,1.91207 -45.09371,-23.21177 -43.18164,-43.18164 -1.91207,-19.96987 23.21177,-45.0937 43.18164,-43.18164 19.96988,-1.91208 45.09374,23.21176 43.18164,43.18164 v 25 h 9.0918 v -25 c 1.36576,-25.4842 -26.78924,-53.63725 -52.27344,-52.27148 -0.79638,-0.0427 -1.59587,-0.057 -2.39648,-0.043 z m 45.57812,177.31445 v 9.0918 h 9.0918 v -9.0918 z"
               transform="matrix(0.26458333,0,0,0.26458333,0,196.45832)"
               id="path1342"
               inkscape:connector-curvature="0" />
            <path
               style="opacity:1;fill:none;fill-opacity:1;fill-rule:nonzero;stroke:#000000;stroke-width:0.1867386;stroke-linecap:round;stroke-linejoin:miter;stroke-miterlimit:4;stroke-dasharray:none;stroke-dashoffset:0;stroke-opacity:1;paint-order:markers stroke fill"
               d="m -716.15625,118.38867 c -36.51277,-0.27315 -70.72823,33.94231 -70.45508,70.45508 -0.27315,36.51277 33.94231,70.72822 70.45508,70.45508 h 134.0918 v -9.0918 h -134.0918 c -30.99848,0.81946 -62.18274,-30.3648 -61.36328,-61.36328 -0.81946,-30.99848 30.3648,-62.18273 61.36328,-61.36328 30.9985,-0.81946 62.18277,30.36478 61.36328,61.36328 v 25 h 9.0918 v -25 c 0.27315,-36.51278 -33.94229,-70.72823 -70.45508,-70.45508 z m 61.36328,195.45508 v 9.0918 h 9.0918 v -9.0918 z"
               transform="matrix(0.26458333,0,0,0.26458333,0,196.45832)"
               id="path1344"
               inkscape:connector-curvature="0" />
            <path
               style="opacity:1;fill:none;fill-opacity:1;fill-rule:nonzero;stroke:#000000;stroke-width:0.1867386;stroke-linecap:round;stroke-linejoin:miter;stroke-miterlimit:4;stroke-dasharray:none;stroke-dashoffset:0;stroke-opacity:1;paint-order:markers stroke fill"
               d="m -716.15625,100.20703 c -47.54138,0.81946 -87.81726,41.09534 -88.63672,88.63672 0.81946,47.54137 41.09535,87.81724 88.63672,88.63672 h 134.0918 v -9.0918 h -134.0918 v 0.002 c -42.02709,-0.27313 -79.27177,-37.51979 -79.54492,-79.54687 0.27315,-42.02708 37.51784,-79.27175 79.54492,-79.54492 42.02711,0.27315 79.2718,37.51781 79.54492,79.54492 v 25 h 9.0918 v -25 c -0.81947,-47.54138 -41.09532,-87.81726 -88.63672,-88.63672 z m 79.54492,213.63672 v 9.0918 h 9.0918 v -9.0918 z"
               transform="matrix(0.26458333,0,0,0.26458333,0,196.45832)"
               id="path1346"
               inkscape:connector-curvature="0" />
            <path
               style="opacity:1;fill:none;fill-opacity:1;fill-rule:nonzero;stroke:#000000;stroke-width:0.1867386;stroke-linecap:round;stroke-linejoin:miter;stroke-miterlimit:4;stroke-dasharray:none;stroke-dashoffset:0;stroke-opacity:1;paint-order:markers stroke fill"
               d="m -716.15625,82.025391 c -58.56997,1.912073 -104.90628,48.248379 -106.81836,106.818359 1.91207,58.56996 48.2484,104.90626 106.81836,106.81836 h 134.0918 v -9.08984 h -134.0918 c -53.05565,-1.36577 -96.3608,-44.67288 -97.72656,-97.72852 1.36576,-53.05564 44.67093,-96.360781 97.72656,-97.726562 53.05567,1.365765 96.36083,44.670882 97.72656,97.726562 v 25 h 9.0918 v -25 C -611.24997,130.27379 -657.58625,83.937471 -716.15625,82.025391 Z m 97.72656,231.818359 v 9.0918 h 9.0918 v -9.0918 z"
               transform="matrix(0.26458333,0,0,0.26458333,0,196.45832)"
               id="path1348"
               inkscape:connector-curvature="0" />
            <path
               style="opacity:1;fill:none;fill-opacity:1;fill-rule:nonzero;stroke:#000000;stroke-width:0.1867386;stroke-linecap:round;stroke-linejoin:miter;stroke-miterlimit:4;stroke-dasharray:none;stroke-dashoffset:0;stroke-opacity:1;paint-order:markers stroke fill"
               d="m -716.15625,63.84375 c -69.59855,3.004689 -121.99531,55.40145 -125,125 3.00469,69.59853 55.40147,121.99529 125,125 h 115.9082 v 9.0918 h 9.0918 v -9.0918 h 9.0918 v -9.08984 h -134.0918 c -64.08426,-2.45838 -113.45177,-51.82592 -115.91016,-115.91016 2.45839,-64.08424 51.82592,-113.449802 115.91016,-115.908203 64.08428,2.458384 113.44986,51.823903 115.9082,115.908203 v 25 h 9.0918 v -25 c -3.0047,-69.59854 -55.40142,-121.99531 -125,-125 z"
               transform="matrix(0.26458333,0,0,0.26458333,0,196.45832)"
               id="path1350"
               inkscape:connector-curvature="0" />
          </g>
        </g>
      </g>
    </g>
    <text
       xml:space="preserve"
       style="font-style:normal;font-variant:normal;font-weight:normal;font-stretch:normal;font-size:10.58333302px;line-height:1.25;font-family:'DejaVu Sans Mono';-inkscape-font-specification:'DejaVu Sans Mono';letter-spacing:0px;word-spacing:0px;fill:#000000;fill-opacity:1;stroke:none;stroke-width:0.26458332"
       x="-16.437077"
       y="279.15976"
       id="text1000"><tspan
         sodipodi:role="line"
         id="tspan998"
         x="-16.437077"
         y="288.52353"
         style="stroke-width:0.26458332" /></text>
    <g
       id="g11235"
       transform="matrix(0.37526346,0,0,0.37526346,10.991165,229.98414)"
       style="fill:#f0f0f0;fill-opacity:1">
      <g
         id="text11223"
         style="font-style:normal;font-weight:normal;font-size:10.58333302px;line-height:1.25;font-family:sans-serif;letter-spacing:0px;word-spacing:0px;fill:#f0f0f0;fill-opacity:1;stroke:none;stroke-width:0.26458332"
         aria-label="MS">
        <path
           inkscape:connector-curvature="0"
           id="path11672"
           style="font-style:normal;font-variant:normal;font-weight:normal;font-stretch:normal;font-family:Strasua;-inkscape-font-specification:Strasua;fill:#f0f0f0;fill-opacity:1;stroke-width:0.26458332"
           d="m -13.102167,168.46541 q 0.148166,-0.23284 0.370416,-0.32809 0.22225,-0.10583 0.455084,-0.10583 0.275166,0 0.4445,0.20108 0.169333,0.1905 0.169333,0.51859 v 5.02708 l 3.5348333,-5.31283 q 0.1481667,-0.23284 0.3598333,-0.32809 0.22225,-0.10583 0.4656667,-0.10583 0.2751666,0 0.4445,0.20108 0.1693333,0.1905 0.1693333,0.51859 v 7.59883 h -1.4393333 v -5.57742 l -3.2173333,5.08 q -0.179917,0.28575 -0.391583,0.39159 -0.211667,0.10583 -0.433917,0.10583 -0.1905,0 -0.359833,-0.0635 -0.169334,-0.0741 -0.296334,-0.20108 -0.127,-0.127 -0.201083,-0.29634 -0.07408,-0.16933 -0.07408,-0.381 v -4.6355 l -3.534833,5.57742 h -1.7145 z" />
        <path
           inkscape:connector-curvature="0"
           id="path11674"
           style="font-style:normal;font-variant:normal;font-weight:normal;font-stretch:normal;font-family:Strasua;-inkscape-font-specification:Strasua;fill:#f0f0f0;fill-opacity:1;stroke-width:0.26458332"
           d="m -5.7073936,176.34999 v -1.43933 h 2.8892499 q 0.66675,0 1.1006666,-0.3175 0.4339167,-0.3175 0.4339167,-0.8255 0,-0.254 -0.1164167,-0.46567 -0.1164167,-0.21167 -0.3175,-0.35983 -0.2010833,-0.15875 -0.4868333,-0.24342 -0.28575,-0.0847 -0.6138333,-0.0847 h -0.6561667 q -0.5079999,0 -0.9419166,-0.15875 -0.4339167,-0.16933 -0.7514166,-0.46566 -0.3175,-0.30692 -0.4974167,-0.70909 -0.1799167,-0.41275 -0.1799167,-0.91016 0,-0.48684 0.1799167,-0.89959 0.1905,-0.41275 0.5291667,-0.71966 0.3386666,-0.30692 0.8149166,-0.47625 0.47625,-0.17992 1.04775,-0.17992 h 2.74108322 v 1.43933 H -3.3473104 q -0.4550833,0 -0.7196666,0.254 -0.2645833,0.24342 -0.2645833,0.59267 0,0.381 0.2645833,0.635 0.2751666,0.254 0.7196666,0.254 h 0.8149167 q 0.5503333,0 1.0159999,0.1905 0.4656667,0.17992 0.80433336,0.51858 0.33866665,0.33867 0.52916665,0.80434 0.19049999,0.46566 0.19049999,1.016 0,0.56091 -0.20108333,1.02658 -0.20108332,0.46567 -0.58208331,0.80433 -0.37041666,0.33867 -0.88899996,0.52917 -0.5185833,0.1905 -1.1535833,0.1905 z" />
      </g>
      <g
         id="text11227"
         style="font-style:normal;font-weight:normal;font-size:10.58333302px;line-height:1.25;font-family:sans-serif;letter-spacing:0px;word-spacing:0px;fill:#f0f0f0;fill-opacity:1;stroke:none;stroke-width:0.26458332"
         transform="scale(-1,1)"
         aria-label="M">
        <path
           inkscape:connector-curvature="0"
           id="path11677"
           style="font-style:normal;font-variant:normal;font-weight:normal;font-stretch:normal;font-family:Strasua;-inkscape-font-specification:Strasua;fill:#f0f0f0;fill-opacity:1;stroke-width:0.26458332"
           d="m -7.4032889,168.46365 q 0.1481666,-0.23283 0.3704166,-0.32808 0.22225,-0.10583 0.4550834,-0.10583 0.2751666,0 0.4444999,0.20108 0.1693334,0.1905 0.1693334,0.51858 v 5.02709 l 3.5348332,-5.31284 q 0.1481667,-0.23283 0.3598333,-0.32808 0.22225,-0.10583 0.4656667,-0.10583 0.2751666,0 0.4445,0.20108 0.16933329,0.1905 0.16933329,0.51858 v 7.59884 H -2.4291224 v -5.57742 l -3.2173332,5.08 q -0.1799167,0.28575 -0.3915834,0.39158 -0.2116666,0.10584 -0.4339166,0.10584 -0.1905,0 -0.3598333,-0.0635 -0.1693334,-0.0741 -0.2963334,-0.20109 -0.127,-0.127 -0.2010833,-0.29633 -0.074083,-0.16933 -0.074083,-0.381 v -4.6355 l -3.5348334,5.57742 h -1.7145 z" />
      </g>
    </g>
    <g
       aria-label="MIX"
       style="font-style:normal;font-variant:normal;font-weight:normal;font-stretch:normal;font-size:2.46944451px;line-height:1.25;font-family:'DejaVu Sans Mono';-inkscape-font-specification:'DejaVu Sans Mono';letter-spacing:0px;word-spacing:0px;fill:#000000;fill-opacity:1;stroke:none;stroke-width:0.26458332"
       id="text943">
      <path
         d="m -82.883493,244.28491 h 0.325562 l 0.311092,0.91639 0.313503,-0.91639 h 0.326768 v 1.80023 h -0.225482 v -1.59042 l -0.320738,0.94895 h -0.184485 l -0.321944,-0.94895 v 1.59042 h -0.224276 z"
         style="stroke-width:0.26458332"
         id="path977"
         inkscape:connector-curvature="0" />
      <path
         d="m -81.259303,244.28491 h 0.999595 v 0.20498 h -0.37741 v 1.39027 h 0.37741 v 0.20498 h -0.999595 v -0.20498 h 0.377411 v -1.39027 h -0.377411 z"
         style="stroke-width:0.26458332"
         id="path979"
         inkscape:connector-curvature="0" />
      <path
         d="m -79.912442,244.28491 h 0.261655 l 0.395497,0.67886 0.402731,-0.67886 h 0.261655 l -0.538985,0.84646 0.57757,0.95377 h -0.261655 l -0.441316,-0.77531 -0.476285,0.77531 h -0.262861 l 0.602892,-0.95377 z"
         style="stroke-width:0.26458332"
         id="path981"
         inkscape:connector-curvature="0" />
    </g>
    <g
       aria-label="MIX CV"
       style="font-style:normal;font-variant:normal;font-weight:normal;font-stretch:normal;font-size:2.46944451px;line-height:1.25;font-family:'DejaVu Sans Mono';-inkscape-font-specification:'DejaVu Sans Mono';letter-spacing:0px;word-spacing:0px;fill:#000000;fill-opacity:1;stroke:none;stroke-width:0.26458332"
       id="text947">
      <path
         d="m -85.088869,249.57658 h 0.325562 l 0.311092,0.9164 0.313504,-0.9164 h 0.326767 v 1.80024 h -0.225481 v -1.59043 l -0.320739,0.94895 h -0.184485 l -0.321944,-0.94895 v 1.59043 h -0.224276 z"
         style="stroke-width:0.26458332"
         id="path966"
         inkscape:connector-curvature="0" />
      <path
         d="m -83.464678,249.57658 h 0.999594 v 0.20498 h -0.37741 v 1.39027 h 0.37741 v 0.20499 h -0.999594 v -0.20499 h 0.37741 v -1.39027 h -0.37741 z"
         style="stroke-width:0.26458332"
         id="path968"
         inkscape:connector-curvature="0" />
      <path
         d="m -82.117818,249.57658 h 0.261655 l 0.395497,0.67886 0.402732,-0.67886 h 0.261655 l -0.538986,0.84646 0.577571,0.95378 h -0.261655 l -0.441317,-0.77532 -0.476285,0.77532 h -0.26286 l 0.602891,-0.95378 z"
         style="stroke-width:0.26458332"
         id="path970"
         inkscape:connector-curvature="0" />
      <path
         d="m -77.956659,251.31291 q -0.09285,0.0494 -0.190514,0.0736 -0.09767,0.0253 -0.207395,0.0253 -0.34606,0 -0.537779,-0.24477 -0.190514,-0.24477 -0.190514,-0.6885 0,-0.44132 0.19172,-0.6873 0.192925,-0.24719 0.536573,-0.24719 0.109726,0 0.207395,0.0253 0.09767,0.0241 0.190514,0.0736 v 0.2496 q -0.08923,-0.0736 -0.19172,-0.11214 -0.102491,-0.0386 -0.206189,-0.0386 -0.237539,0 -0.355706,0.18328 -0.118167,0.18328 -0.118167,0.55346 0,0.36897 0.118167,0.55225 0.118167,0.18328 0.355706,0.18328 0.106109,0 0.207395,-0.0386 0.102492,-0.0386 0.190514,-0.11214 z"
         style="stroke-width:0.26458332"
         id="path972"
         inkscape:connector-curvature="0" />
      <path
         d="m -77.022177,251.17183 0.42323,-1.59525 h 0.252009 l -0.526928,1.80024 h -0.295417 l -0.526927,-1.80024 h 0.252009 z"
         style="stroke-width:0.26458332"
         id="path974"
         inkscape:connector-curvature="0" />
    </g>
    <g
       aria-label="OUT"
       style="font-style:normal;font-variant:normal;font-weight:normal;font-stretch:normal;font-size:2.46944451px;line-height:1.25;font-family:'DejaVu Sans Mono';-inkscape-font-specification:'DejaVu Sans Mono';letter-spacing:0px;word-spacing:0px;fill:#000000;fill-opacity:1;stroke:none;stroke-width:0.26458332"
       id="text957">
      <path
         d="m -75.481482,230.21975 q 0,-0.3967 -0.08199,-0.56672 -0.08079,-0.17002 -0.266478,-0.17002 -0.184485,0 -0.266478,0.17002 -0.08079,0.17002 -0.08079,0.56672 0,0.3955 0.08079,0.56551 0.08199,0.17002 0.266478,0.17002 0.185691,0 0.266478,-0.16881 0.08199,-0.17002 0.08199,-0.56672 z m 0.254421,0 q 0,0.47025 -0.149518,0.70176 -0.148311,0.23151 -0.453374,0.23151 -0.305063,0 -0.453375,-0.2303 -0.148311,-0.2303 -0.148311,-0.70297 0,-0.47146 0.148311,-0.70297 0.149517,-0.23151 0.453375,-0.23151 0.305063,0 0.453374,0.23151 0.149518,0.23151 0.149518,0.70297 z"
         style="stroke-width:0.26458332"
         id="path959"
         inkscape:connector-curvature="0" />
      <path
         d="m -74.90994,230.42714 v -1.10932 h 0.244774 v 1.22026 q 0,0.13143 0.0072,0.1881 0.0072,0.0555 0.02532,0.0856 0.03858,0.0711 0.110932,0.10731 0.07355,0.0362 0.17725,0.0362 0.104903,0 0.17725,-0.0362 0.07235,-0.0362 0.112138,-0.10731 0.01809,-0.0301 0.02532,-0.0856 0.0072,-0.0555 0.0072,-0.18569 v -1.22267 h 0.243569 v 1.10932 q 0,0.27613 -0.03497,0.39309 -0.03376,0.11575 -0.118167,0.19172 -0.07958,0.0711 -0.182073,0.10611 -0.102492,0.035 -0.230305,0.035 -0.126607,0 -0.229099,-0.035 -0.102491,-0.035 -0.183279,-0.10611 -0.0832,-0.0748 -0.118167,-0.19293 -0.03497,-0.11937 -0.03497,-0.39188 z"
         style="stroke-width:0.26458332"
         id="path961"
         inkscape:connector-curvature="0" />
      <path
         d="m -73.544993,229.31782 h 1.373387 v 0.20499 h -0.563101 v 1.59525 h -0.244774 v -1.59525 h -0.565512 z"
         style="stroke-width:0.26458332"
         id="path963"
         inkscape:connector-curvature="0" />
    </g>
    <g
       aria-label="RING"
       style="font-style:normal;font-variant:normal;font-weight:normal;font-stretch:normal;font-size:4.23333311px;line-height:1.25;font-family:'DejaVu Sans Mono';-inkscape-font-specification:'DejaVu Sans Mono';letter-spacing:0px;word-spacing:0px;fill:#f0f0f0;fill-opacity:1;stroke:none;stroke-width:0.26458332"
       id="text1023"
       transform="translate(1.9843753)">
      <path
         d="m 4.4803469,201.07431 q 0.09095,0.0186 0.1570964,0.0868 0.068213,0.0661 0.1653645,0.26045 l 0.5581055,1.11001 H 4.6911868 l -0.3720703,-0.77928 q -0.016536,-0.0331 -0.043408,-0.091 -0.1632976,-0.34933 -0.3844727,-0.34933 H 3.6969323 v 1.21957 H 3.0871504 v -3.08612 h 0.8805663 q 0.5953125,0 0.8536947,0.21084 0.2604492,0.21084 0.2604492,0.68626 0,0.31833 -0.1550293,0.50643 -0.1550293,0.1881 -0.4464844,0.22531 z M 3.6969323,199.9581 v 0.84129 h 0.2873209 q 0.2501139,0 0.3576009,-0.0971 0.109554,-0.0992 0.109554,-0.32453 0,-0.22531 -0.1074869,-0.32246 -0.107487,-0.0971 -0.359668,-0.0971 z"
         style="font-style:normal;font-variant:normal;font-weight:bold;font-stretch:normal;font-family:'DejaVu Sans Mono';-inkscape-font-specification:'DejaVu Sans Mono Bold';stroke-width:0.26458332;fill:#f0f0f0;fill-opacity:1"
         id="path1029"
         inkscape:connector-curvature="0" />
      <path
         d="m 5.71438,199.9829 v -0.53743 h 1.8376139 v 0.53743 h -0.613916 v 2.01125 h 0.613916 v 0.53744 H 5.71438 v -0.53744 h 0.613916 v -2.01125 z"
         style="font-style:normal;font-variant:normal;font-weight:bold;font-stretch:normal;font-family:'DejaVu Sans Mono';-inkscape-font-specification:'DejaVu Sans Mono Bold';stroke-width:0.26458332;fill:#f0f0f0;fill-opacity:1"
         id="path1031"
         inkscape:connector-curvature="0" />
      <path
         d="m 8.1514404,199.44547 h 0.6552571 l 0.8598958,2.24276 v -2.24276 h 0.5374347 v 3.08612 H 9.5529052 l -0.8640299,-2.24276 v 2.24276 H 8.1514404 Z"
         style="font-style:normal;font-variant:normal;font-weight:bold;font-stretch:normal;font-family:'DejaVu Sans Mono';-inkscape-font-specification:'DejaVu Sans Mono Bold';stroke-width:0.26458332;fill:#f0f0f0;fill-opacity:1"
         id="path1033"
         inkscape:connector-curvature="0" />
      <path
         d="m 12.254549,201.97348 v -0.58911 h -0.417546 v -0.51263 h 0.950846 v 1.41387 q -0.175699,0.15089 -0.388606,0.22944 -0.21084,0.0765 -0.452686,0.0765 -0.599446,0 -0.926042,-0.41548 -0.326595,-0.41754 -0.326595,-1.18442 0,-0.77928 0.328663,-1.19063 0.330729,-0.41134 0.952913,-0.41134 0.186035,0 0.365869,0.0537 0.179834,0.0517 0.33693,0.1509 v 0.67593 q -0.128157,-0.16537 -0.295589,-0.24805 -0.165364,-0.0847 -0.363802,-0.0847 -0.347265,0 -0.518831,0.26252 -0.171566,0.26044 -0.171566,0.79168 0,0.5147 0.165365,0.78341 0.165364,0.26872 0.481624,0.26872 0.09509,0 0.165364,-0.0165 0.07028,-0.0186 0.113689,-0.0537 z"
         style="font-style:normal;font-variant:normal;font-weight:bold;font-stretch:normal;font-family:'DejaVu Sans Mono';-inkscape-font-specification:'DejaVu Sans Mono Bold';stroke-width:0.26458332;fill:#f0f0f0;fill-opacity:1"
         id="path1035"
         inkscape:connector-curvature="0" />
    </g>
    <g
       id="g1178"
       style="fill:#f0f0f0;fill-opacity:1">
      <g
         transform="translate(0.31234886,-17.991671)"
         aria-label="CAR"
         style="font-style:normal;font-variant:normal;font-weight:normal;font-stretch:normal;font-size:2.46944451px;line-height:1.25;font-family:'DejaVu Sans Mono';-inkscape-font-specification:'DejaVu Sans Mono';letter-spacing:0px;word-spacing:0px;fill:#f0f0f0;fill-opacity:1;stroke:none;stroke-width:0.26458332"
         id="text935">
        <path
           d="m 3.2989722,231.16157 q -0.092845,0.0494 -0.1905138,0.0736 -0.097669,0.0253 -0.2073948,0.0253 -0.3460598,0 -0.5377794,-0.24478 -0.1905138,-0.24477 -0.1905138,-0.6885 0,-0.44132 0.1917196,-0.6873 0.1929254,-0.24718 0.5365736,-0.24718 0.1097263,0 0.2073948,0.0253 0.097669,0.0241 0.1905138,0.0735 v 0.2496 q -0.089228,-0.0736 -0.1917196,-0.11214 -0.1024916,-0.0386 -0.206189,-0.0386 -0.2375393,0 -0.3557061,0.18328 -0.1181668,0.18327 -0.1181668,0.55345 0,0.36897 0.1181668,0.55225 0.1181668,0.18328 0.3557061,0.18328 0.106109,0 0.2073948,-0.0386 0.1024916,-0.0386 0.1905138,-0.11213 z"
           style="stroke-width:0.26458332;fill:#f0f0f0;fill-opacity:1"
           id="path984"
           inkscape:connector-curvature="0" />
        <path
           d="m 4.2334544,229.63987 -0.2568319,0.92122 h 0.5136638 z m -0.1471056,-0.21463 h 0.295417 l 0.551043,1.80024 H 4.6808 L 4.5481639,230.75643 H 3.9175391 l -0.1302246,0.46905 H 3.5353058 Z"
           style="stroke-width:0.26458332;fill:#f0f0f0;fill-opacity:1"
           id="path986"
           inkscape:connector-curvature="0" />
        <path
           d="m 5.8926125,230.3754 q 0.094051,0.0241 0.1603692,0.0916 0.066318,0.0663 0.1651923,0.26648 l 0.244774,0.49196 H 6.201293 L 5.9866636,230.7709 q -0.092845,-0.19413 -0.1676039,-0.2496 -0.073553,-0.0567 -0.1929254,-0.0567 H 5.3934181 v 0.76085 h -0.244774 v -1.80024 H 5.65025 q 0.2966227,0 0.4545803,0.13385 0.1579577,0.13384 0.1579577,0.38705 0,0.17846 -0.097668,0.2918 -0.096463,0.11214 -0.272507,0.13746 z m -0.4991944,-0.75 v 0.63907 h 0.2664781 q 0.1748387,0 0.2604493,-0.0784 0.085611,-0.0784 0.085611,-0.23995 0,-0.15554 -0.091639,-0.23754 -0.090434,-0.0832 -0.2640666,-0.0832 z"
           style="stroke-width:0.26458332;fill:#f0f0f0;fill-opacity:1"
           id="path988"
           inkscape:connector-curvature="0" />
      </g>
      <g
         transform="translate(-2.4300782,-17.991671)"
         aria-label="MOD"
         style="font-style:normal;font-variant:normal;font-weight:normal;font-stretch:normal;font-size:2.46944451px;line-height:1.25;font-family:'DejaVu Sans Mono';-inkscape-font-specification:'DejaVu Sans Mono';letter-spacing:0px;word-spacing:0px;fill:#f0f0f0;fill-opacity:1;stroke:none;stroke-width:0.26458332"
         id="text939">
        <path
           d="m 15.867196,229.42524 h 0.325561 l 0.311092,0.9164 0.313504,-0.9164 h 0.326767 v 1.80024 h -0.225481 v -1.59043 L 16.5979,230.584 h -0.184484 l -0.321945,-0.94895 v 1.59043 h -0.224275 z"
           style="stroke-width:0.26458332;fill:#f0f0f0;fill-opacity:1"
           id="path991"
           inkscape:connector-curvature="0" />
        <path
           d="m 18.340258,230.32717 q 0,-0.3967 -0.08199,-0.56672 -0.08079,-0.17001 -0.266478,-0.17001 -0.184485,0 -0.266478,0.17001 -0.08079,0.17002 -0.08079,0.56672 0,0.3955 0.08079,0.56551 0.08199,0.17002 0.266478,0.17002 0.185691,0 0.266478,-0.16881 0.08199,-0.17002 0.08199,-0.56672 z m 0.25442,0 q 0,0.47026 -0.149517,0.70177 -0.148312,0.23151 -0.453375,0.23151 -0.305063,0 -0.453374,-0.23031 -0.148312,-0.2303 -0.148312,-0.70297 0,-0.47146 0.148312,-0.70297 0.149517,-0.23151 0.453374,-0.23151 0.305063,0 0.453375,0.23151 0.149517,0.23151 0.149517,0.70297 z"
           style="stroke-width:0.26458332;fill:#f0f0f0;fill-opacity:1"
           id="path993"
           inkscape:connector-curvature="0" />
        <path
           d="m 19.26027,231.02532 q 0.307475,0 0.429259,-0.15072 0.121784,-0.15193 0.121784,-0.54743 0,-0.39911 -0.121784,-0.54984 -0.120578,-0.15193 -0.429259,-0.15193 h -0.115755 v 1.39992 z m 0.0048,-1.60008 q 0.412377,0 0.607714,0.21946 0.195337,0.21945 0.195337,0.68247 0,0.46061 -0.195337,0.68006 -0.195337,0.21825 -0.607714,0.21825 h -0.365353 v -1.80024 z"
           style="stroke-width:0.26458332;fill:#f0f0f0;fill-opacity:1"
           id="path995"
           inkscape:connector-curvature="0" />
      </g>
      <g
         transform="translate(48.575709,8.9958336)"
         id="text1040"
         style="font-style:normal;font-variant:normal;font-weight:normal;font-stretch:normal;font-size:2.46944451px;line-height:1.25;font-family:'DejaVu Sans Mono';-inkscape-font-specification:'DejaVu Sans Mono';letter-spacing:0px;word-spacing:0px;fill:#f0f0f0;fill-opacity:1;stroke:none;stroke-width:0.26458332"
         aria-label="MIX">
        <path
           inkscape:connector-curvature="0"
           id="path1042"
           style="stroke-width:0.26458332;fill:#f0f0f0;fill-opacity:1"
           d="m -40.819421,222.99455 h 0.325561 l 0.311092,0.9164 0.313504,-0.9164 h 0.326767 v 1.80023 h -0.225481 v -1.59042 l -0.320738,0.94895 h -0.184485 l -0.321944,-0.94895 v 1.59042 h -0.224276 z" />
        <path
           inkscape:connector-curvature="0"
           id="path1044"
           style="stroke-width:0.26458332;fill:#f0f0f0;fill-opacity:1"
           d="m -39.195231,222.99455 h 0.999595 v 0.20498 h -0.377411 v 1.39027 h 0.377411 v 0.20498 h -0.999595 v -0.20498 h 0.37741 v -1.39027 h -0.37741 z" />
        <path
           inkscape:connector-curvature="0"
           id="path1046"
           style="stroke-width:0.26458332;fill:#f0f0f0;fill-opacity:1"
           d="m -37.848371,222.99455 h 0.261655 l 0.395497,0.67886 0.402732,-0.67886 h 0.261655 l -0.538985,0.84646 0.57757,0.95377 h -0.261655 l -0.441317,-0.77531 -0.476284,0.77531 h -0.262861 l 0.602892,-0.95377 z" />
      </g>
      <g
         transform="translate(0,-1.0583333)"
         id="text1065"
         style="font-style:normal;font-variant:normal;font-weight:normal;font-stretch:normal;font-size:2.46944451px;line-height:1.25;font-family:'DejaVu Sans Mono';-inkscape-font-specification:'DejaVu Sans Mono';letter-spacing:0px;word-spacing:0px;fill:#f0f0f0;fill-opacity:1;stroke:none;stroke-width:0.26458332"
         aria-label="OUT">
        <path
           inkscape:connector-curvature="0"
           id="path1067"
           style="stroke-width:0.26458332;fill:#f0f0f0;fill-opacity:1"
           d="m 14.357721,244.35123 q 0,-0.3967 -0.08199,-0.56671 -0.08079,-0.17002 -0.266478,-0.17002 -0.184485,0 -0.266478,0.17002 -0.08079,0.17001 -0.08079,0.56671 0,0.3955 0.08079,0.56552 0.08199,0.17001 0.266478,0.17001 0.18569,0 0.266478,-0.16881 0.08199,-0.17001 0.08199,-0.56672 z m 0.25442,0 q 0,0.47026 -0.149517,0.70177 -0.148311,0.23151 -0.453374,0.23151 -0.305063,0 -0.453375,-0.2303 -0.148311,-0.23031 -0.148311,-0.70298 0,-0.47146 0.148311,-0.70297 0.149517,-0.23151 0.453375,-0.23151 0.305063,0 0.453374,0.23151 0.149517,0.23151 0.149517,0.70297 z" />
        <path
           inkscape:connector-curvature="0"
           id="path1069"
           style="stroke-width:0.26458332;fill:#f0f0f0;fill-opacity:1"
           d="m 14.929263,244.55863 v -1.10932 h 0.244774 v 1.22025 q 0,0.13143 0.0072,0.1881 0.0072,0.0555 0.02532,0.0856 0.03858,0.0711 0.110932,0.10732 0.07355,0.0362 0.17725,0.0362 0.104903,0 0.17725,-0.0362 0.07235,-0.0362 0.112138,-0.10732 0.01809,-0.0301 0.02532,-0.0856 0.0072,-0.0555 0.0072,-0.18569 v -1.22266 h 0.243568 v 1.10932 q 0,0.27612 -0.03497,0.39308 -0.03376,0.11576 -0.118167,0.19172 -0.07958,0.0711 -0.182073,0.10611 -0.102492,0.035 -0.230305,0.035 -0.126607,0 -0.229099,-0.035 -0.102491,-0.035 -0.183279,-0.10611 -0.0832,-0.0748 -0.118167,-0.19292 -0.03497,-0.11937 -0.03497,-0.39188 z" />
        <path
           inkscape:connector-curvature="0"
           id="path1071"
           style="stroke-width:0.26458332;fill:#f0f0f0;fill-opacity:1"
           d="m 16.294209,243.44931 h 1.373388 v 0.20498 h -0.563101 v 1.59525 h -0.244774 v -1.59525 h -0.565513 z" />
      </g>
      <g
         transform="translate(30.974433,3.7041866)"
         id="text1087"
         style="font-style:normal;font-variant:normal;font-weight:normal;font-stretch:normal;font-size:2.46944451px;line-height:1.25;font-family:'DejaVu Sans Mono';-inkscape-font-specification:'DejaVu Sans Mono';letter-spacing:0px;word-spacing:0px;fill:#f0f0f0;fill-opacity:1;stroke:none;stroke-width:0.26458332"
         aria-label="M CV">
        <path
           inkscape:connector-curvature="0"
           id="path1089"
           style="stroke-width:0.26458332;fill:#f0f0f0;fill-opacity:1"
           d="m -29.229665,238.68687 h 0.325561 l 0.311092,0.9164 0.313504,-0.9164 h 0.326767 v 1.80024 h -0.225481 v -1.59043 l -0.320738,0.94895 h -0.184485 l -0.321944,-0.94895 v 1.59043 h -0.224276 z" />
        <path
           inkscape:connector-curvature="0"
           id="path1091"
           style="stroke-width:0.26458332;fill:#f0f0f0;fill-opacity:1"
           d="m -25.068506,240.4232 q -0.09285,0.0494 -0.190514,0.0735 -0.09767,0.0253 -0.207395,0.0253 -0.34606,0 -0.537779,-0.24477 -0.190514,-0.24477 -0.190514,-0.6885 0,-0.44132 0.191719,-0.6873 0.192926,-0.24718 0.536574,-0.24718 0.109726,0 0.207395,0.0253 0.09767,0.0241 0.190514,0.0735 v 0.2496 q -0.08923,-0.0736 -0.19172,-0.11214 -0.102492,-0.0386 -0.206189,-0.0386 -0.237539,0 -0.355706,0.18328 -0.118167,0.18328 -0.118167,0.55346 0,0.36897 0.118167,0.55225 0.118167,0.18328 0.355706,0.18328 0.106109,0 0.207395,-0.0386 0.102491,-0.0386 0.190514,-0.11214 z" />
        <path
           inkscape:connector-curvature="0"
           id="path1093"
           style="stroke-width:0.26458332;fill:#f0f0f0;fill-opacity:1"
           d="m -24.134024,240.28212 0.42323,-1.59525 h 0.252009 l -0.526928,1.80024 h -0.295417 l -0.526927,-1.80024 h 0.252009 z" />
      </g>
    </g>
    <g
       id="g1156"
       transform="translate(0,1.0583333)"
       style="fill:#f0f0f0;fill-opacity:1">
      <g
         id="g1102"
         style="font-style:normal;font-variant:normal;font-weight:normal;font-stretch:normal;font-size:2.46944451px;line-height:1.25;font-family:'DejaVu Sans Mono';-inkscape-font-specification:'DejaVu Sans Mono';letter-spacing:0px;word-spacing:0px;fill:#f0f0f0;fill-opacity:1;stroke:none;stroke-width:0.26458332"
         aria-label="CAR"
         transform="translate(0.31234886,19.049996)">
        <path
           inkscape:connector-curvature="0"
           id="path1096"
           style="stroke-width:0.26458332;fill:#f0f0f0;fill-opacity:1"
           d="m 3.2989722,231.16157 q -0.092845,0.0494 -0.1905138,0.0736 -0.097669,0.0253 -0.2073948,0.0253 -0.3460598,0 -0.5377794,-0.24478 -0.1905138,-0.24477 -0.1905138,-0.6885 0,-0.44132 0.1917196,-0.6873 0.1929254,-0.24718 0.5365736,-0.24718 0.1097263,0 0.2073948,0.0253 0.097669,0.0241 0.1905138,0.0735 v 0.2496 q -0.089228,-0.0736 -0.1917196,-0.11214 -0.1024916,-0.0386 -0.206189,-0.0386 -0.2375393,0 -0.3557061,0.18328 -0.1181668,0.18327 -0.1181668,0.55345 0,0.36897 0.1181668,0.55225 0.1181668,0.18328 0.3557061,0.18328 0.106109,0 0.2073948,-0.0386 0.1024916,-0.0386 0.1905138,-0.11213 z" />
        <path
           inkscape:connector-curvature="0"
           id="path1098"
           style="stroke-width:0.26458332;fill:#f0f0f0;fill-opacity:1"
           d="m 4.2334544,229.63987 -0.2568319,0.92122 h 0.5136638 z m -0.1471056,-0.21463 h 0.295417 l 0.551043,1.80024 H 4.6808 L 4.5481639,230.75643 H 3.9175391 l -0.1302246,0.46905 H 3.5353058 Z" />
        <path
           inkscape:connector-curvature="0"
           id="path1100"
           style="stroke-width:0.26458332;fill:#f0f0f0;fill-opacity:1"
           d="m 5.8926125,230.3754 q 0.094051,0.0241 0.1603692,0.0916 0.066318,0.0663 0.1651923,0.26648 l 0.244774,0.49196 H 6.201293 L 5.9866636,230.7709 q -0.092845,-0.19413 -0.1676039,-0.2496 -0.073553,-0.0567 -0.1929254,-0.0567 H 5.3934181 v 0.76085 h -0.244774 v -1.80024 H 5.65025 q 0.2966227,0 0.4545803,0.13385 0.1579577,0.13384 0.1579577,0.38705 0,0.17846 -0.097668,0.2918 -0.096463,0.11214 -0.272507,0.13746 z m -0.4991944,-0.75 v 0.63907 h 0.2664781 q 0.1748387,0 0.2604493,-0.0784 0.085611,-0.0784 0.085611,-0.23995 0,-0.15554 -0.091639,-0.23754 -0.090434,-0.0832 -0.2640666,-0.0832 z" />
      </g>
      <g
         id="g1110"
         style="font-style:normal;font-variant:normal;font-weight:normal;font-stretch:normal;font-size:2.46944451px;line-height:1.25;font-family:'DejaVu Sans Mono';-inkscape-font-specification:'DejaVu Sans Mono';letter-spacing:0px;word-spacing:0px;fill:#f0f0f0;fill-opacity:1;stroke:none;stroke-width:0.26458332"
         aria-label="MOD"
         transform="translate(-2.4300782,19.049996)">
        <path
           inkscape:connector-curvature="0"
           id="path1104"
           style="stroke-width:0.26458332;fill:#f0f0f0;fill-opacity:1"
           d="m 15.867196,229.42524 h 0.325561 l 0.311092,0.9164 0.313504,-0.9164 h 0.326767 v 1.80024 h -0.225481 v -1.59043 L 16.5979,230.584 h -0.184484 l -0.321945,-0.94895 v 1.59043 h -0.224275 z" />
        <path
           inkscape:connector-curvature="0"
           id="path1106"
           style="stroke-width:0.26458332;fill:#f0f0f0;fill-opacity:1"
           d="m 18.340258,230.32717 q 0,-0.3967 -0.08199,-0.56672 -0.08079,-0.17001 -0.266478,-0.17001 -0.184485,0 -0.266478,0.17001 -0.08079,0.17002 -0.08079,0.56672 0,0.3955 0.08079,0.56551 0.08199,0.17002 0.266478,0.17002 0.185691,0 0.266478,-0.16881 0.08199,-0.17002 0.08199,-0.56672 z m 0.25442,0 q 0,0.47026 -0.149517,0.70177 -0.148312,0.23151 -0.453375,0.23151 -0.305063,0 -0.453374,-0.23031 -0.148312,-0.2303 -0.148312,-0.70297 0,-0.47146 0.148312,-0.70297 0.149517,-0.23151 0.453374,-0.23151 0.305063,0 0.453375,0.23151 0.149517,0.23151 0.149517,0.70297 z" />
        <path
           inkscape:connector-curvature="0"
           id="path1108"
           style="stroke-width:0.26458332;fill:#f0f0f0;fill-opacity:1"
           d="m 19.26027,231.02532 q 0.307475,0 0.429259,-0.15072 0.121784,-0.15193 0.121784,-0.54743 0,-0.39911 -0.121784,-0.54984 -0.120578,-0.15193 -0.429259,-0.15193 h -0.115755 v 1.39992 z m 0.0048,-1.60008 q 0.412377,0 0.607714,0.21946 0.195337,0.21945 0.195337,0.68247 0,0.46061 -0.195337,0.68006 -0.195337,0.21825 -0.607714,0.21825 h -0.365353 v -1.80024 z" />
      </g>
      <g
         aria-label="MIX"
         style="font-style:normal;font-variant:normal;font-weight:normal;font-stretch:normal;font-size:2.46944451px;line-height:1.25;font-family:'DejaVu Sans Mono';-inkscape-font-specification:'DejaVu Sans Mono';letter-spacing:0px;word-spacing:0px;fill:#f0f0f0;fill-opacity:1;stroke:none;stroke-width:0.26458332"
         id="g1118"
         transform="translate(48.575709,46.037502)">
        <path
           d="m -40.819421,222.99455 h 0.325561 l 0.311092,0.9164 0.313504,-0.9164 h 0.326767 v 1.80023 h -0.225481 v -1.59042 l -0.320738,0.94895 h -0.184485 l -0.321944,-0.94895 v 1.59042 h -0.224276 z"
           style="stroke-width:0.26458332;fill:#f0f0f0;fill-opacity:1"
           id="path1112"
           inkscape:connector-curvature="0" />
        <path
           d="m -39.195231,222.99455 h 0.999595 v 0.20498 h -0.377411 v 1.39027 h 0.377411 v 0.20498 h -0.999595 v -0.20498 h 0.37741 v -1.39027 h -0.37741 z"
           style="stroke-width:0.26458332;fill:#f0f0f0;fill-opacity:1"
           id="path1114"
           inkscape:connector-curvature="0" />
        <path
           d="m -37.848371,222.99455 h 0.261655 l 0.395497,0.67886 0.402732,-0.67886 h 0.261655 l -0.538985,0.84646 0.57757,0.95377 h -0.261655 l -0.441317,-0.77531 -0.476284,0.77531 h -0.262861 l 0.602892,-0.95377 z"
           style="stroke-width:0.26458332;fill:#f0f0f0;fill-opacity:1"
           id="path1116"
           inkscape:connector-curvature="0" />
      </g>
      <g
         aria-label="OUT"
         style="font-style:normal;font-variant:normal;font-weight:normal;font-stretch:normal;font-size:2.46944451px;line-height:1.25;font-family:'DejaVu Sans Mono';-inkscape-font-specification:'DejaVu Sans Mono';letter-spacing:0px;word-spacing:0px;fill:#f0f0f0;fill-opacity:1;stroke:none;stroke-width:0.26458332"
         id="g1126"
         transform="translate(0,35.983335)">
        <path
           d="m 14.357721,244.35123 q 0,-0.3967 -0.08199,-0.56671 -0.08079,-0.17002 -0.266478,-0.17002 -0.184485,0 -0.266478,0.17002 -0.08079,0.17001 -0.08079,0.56671 0,0.3955 0.08079,0.56552 0.08199,0.17001 0.266478,0.17001 0.18569,0 0.266478,-0.16881 0.08199,-0.17001 0.08199,-0.56672 z m 0.25442,0 q 0,0.47026 -0.149517,0.70177 -0.148311,0.23151 -0.453374,0.23151 -0.305063,0 -0.453375,-0.2303 -0.148311,-0.23031 -0.148311,-0.70298 0,-0.47146 0.148311,-0.70297 0.149517,-0.23151 0.453375,-0.23151 0.305063,0 0.453374,0.23151 0.149517,0.23151 0.149517,0.70297 z"
           style="stroke-width:0.26458332;fill:#f0f0f0;fill-opacity:1"
           id="path1120"
           inkscape:connector-curvature="0" />
        <path
           d="m 14.929263,244.55863 v -1.10932 h 0.244774 v 1.22025 q 0,0.13143 0.0072,0.1881 0.0072,0.0555 0.02532,0.0856 0.03858,0.0711 0.110932,0.10732 0.07355,0.0362 0.17725,0.0362 0.104903,0 0.17725,-0.0362 0.07235,-0.0362 0.112138,-0.10732 0.01809,-0.0301 0.02532,-0.0856 0.0072,-0.0555 0.0072,-0.18569 v -1.22266 h 0.243568 v 1.10932 q 0,0.27612 -0.03497,0.39308 -0.03376,0.11576 -0.118167,0.19172 -0.07958,0.0711 -0.182073,0.10611 -0.102492,0.035 -0.230305,0.035 -0.126607,0 -0.229099,-0.035 -0.102491,-0.035 -0.183279,-0.10611 -0.0832,-0.0748 -0.118167,-0.19292 -0.03497,-0.11937 -0.03497,-0.39188 z"
           style="stroke-width:0.26458332;fill:#f0f0f0;fill-opacity:1"
           id="path1122"
           inkscape:connector-curvature="0" />
        <path
           d="m 16.294209,243.44931 h 1.373388 v 0.20498 h -0.563101 v 1.59525 h -0.244774 v -1.59525 h -0.565513 z"
           style="stroke-width:0.26458332;fill:#f0f0f0;fill-opacity:1"
           id="path1124"
           inkscape:connector-curvature="0" />
      </g>
      <g
         aria-label="M CV"
         style="font-style:normal;font-variant:normal;font-weight:normal;font-stretch:normal;font-size:2.46944451px;line-height:1.25;font-family:'DejaVu Sans Mono';-inkscape-font-specification:'DejaVu Sans Mono';letter-spacing:0px;word-spacing:0px;fill:#f0f0f0;fill-opacity:1;stroke:none;stroke-width:0.26458332"
         id="g1134"
         transform="translate(30.974433,40.745855)">
        <path
           d="m -29.229665,238.68687 h 0.325561 l 0.311092,0.9164 0.313504,-0.9164 h 0.326767 v 1.80024 h -0.225481 v -1.59043 l -0.320738,0.94895 h -0.184485 l -0.321944,-0.94895 v 1.59043 h -0.224276 z"
           style="stroke-width:0.26458332;fill:#f0f0f0;fill-opacity:1"
           id="path1128"
           inkscape:connector-curvature="0" />
        <path
           d="m -25.068506,240.4232 q -0.09285,0.0494 -0.190514,0.0735 -0.09767,0.0253 -0.207395,0.0253 -0.34606,0 -0.537779,-0.24477 -0.190514,-0.24477 -0.190514,-0.6885 0,-0.44132 0.191719,-0.6873 0.192926,-0.24718 0.536574,-0.24718 0.109726,0 0.207395,0.0253 0.09767,0.0241 0.190514,0.0735 v 0.2496 q -0.08923,-0.0736 -0.19172,-0.11214 -0.102492,-0.0386 -0.206189,-0.0386 -0.237539,0 -0.355706,0.18328 -0.118167,0.18328 -0.118167,0.55346 0,0.36897 0.118167,0.55225 0.118167,0.18328 0.355706,0.18328 0.106109,0 0.207395,-0.0386 0.102491,-0.0386 0.190514,-0.11214 z"
           style="stroke-width:0.26458332;fill:#f0f0f0;fill-opacity:1"
           id="path1130"
           inkscape:connector-curvature="0" />
        <path
           d="m -24.134024,240.28212 0.42323,-1.59525 h 0.252009 l -0.526928,1.80024 h -0.295417 l -0.526927,-1.80024 h 0.252009 z"
           style="stroke-width:0.26458332;fill:#f0f0f0;fill-opacity:1"
           id="path1132"
           inkscape:connector-curvature="0" />
      </g>
    </g>
    <path
       style="fill:#f0f0f0;stroke:#f0f0f0;stroke-width:0.26458332px;stroke-linecap:butt;stroke-linejoin:miter;stroke-opacity:1;fill-opacity:1"
       d="M 1.0500705,246.72915 H 18.79368"
       id="path1180"
       inkscape:connector-curvature="0" />
  </g>
</svg>
