<?xml version="1.0" encoding="UTF-8" standalone="no"?>
<!-- Created with Inkscape (http://www.inkscape.org/) -->

<svg
   xmlns:dc="http://purl.org/dc/elements/1.1/"
   xmlns:cc="http://creativecommons.org/ns#"
   xmlns:rdf="http://www.w3.org/1999/02/22-rdf-syntax-ns#"
   xmlns:svg="http://www.w3.org/2000/svg"
   xmlns="http://www.w3.org/2000/svg"
   xmlns:sodipodi="http://sodipodi.sourceforge.net/DTD/sodipodi-0.dtd"
   xmlns:inkscape="http://www.inkscape.org/namespaces/inkscape"
   width="90"
   height="380"
   viewBox="0 0 23.8125 100.54167"
   version="1.1"
   id="svg8"
   inkscape:version="0.92.2 (5c3e80d, 2017-08-06)"
   sodipodi:docname="TriVCO.svg">
  <defs
     id="defs2">
    <style
       id="style1446"
       type="text/css">
    .str3 {stroke:#373435;stroke-width:5.27277;stroke-linecap:round;stroke-linejoin:round}
    .str1 {stroke:#373435;stroke-width:10.5455;stroke-linecap:round;stroke-linejoin:round}
    .str2 {stroke:#373435;stroke-width:21.0911;stroke-linecap:round;stroke-linejoin:round}
    .str5 {stroke:#96989A;stroke-width:31.6336;stroke-linecap:round;stroke-linejoin:round}
    .str4 {stroke:#373435;stroke-width:42.1792;stroke-linecap:round;stroke-linejoin:round}
    .str0 {stroke:#FEFEFE;stroke-width:42.1792;stroke-linecap:round;stroke-linejoin:round}
    .fil2 {fill:none}
    .fil3 {fill:#373435}
    .fil1 {fill:#96989A}
    .fil0 {fill:whitesmoke}
  </style>
    <clipPath
       id="e">
      <path
         id="path3969"
         d="m 0,-27.638 h 3840 v 1080 H 0 Z"
         inkscape:connector-curvature="0" />
    </clipPath>
    <filter
       height="2.1517"
       width="1.0633"
       y="-0.57585001"
       x="-0.031649999"
       id="a">
      <feGaussianBlur
         id="feGaussianBlur3972"
         stdDeviation="21.0506" />
    </filter>
    <linearGradient
       gradientUnits="userSpaceOnUse"
       gradientTransform="matrix(1.9777,0,0,1,-6.2998,-21.224)"
       y2="-21.528999"
       y1="1107.2"
       x2="995.60999"
       x1="986.53003"
       id="d">
      <stop
         id="stop3975"
         offset="0"
         stop-color="#f09e14" />
      <stop
         id="stop3977"
         offset=".6976"
         stop-color="#fee101" />
      <stop
         id="stop3979"
         offset="1"
         stop-color="#aedacf" />
    </linearGradient>
    <linearGradient
       gradientUnits="userSpaceOnUse"
       y2="1986.4"
       y1="1529.5"
       x2="2036"
       x1="2025.9"
       id="c">
      <stop
         id="stop3982"
         offset="0"
         stop-color="#2d1201" />
      <stop
         id="stop3984"
         offset="1"
         stop-opacity="0"
         stop-color="#2d1201" />
    </linearGradient>
    <linearGradient
       gradientUnits="userSpaceOnUse"
       y2="1868.1"
       y1="1462.8"
       x2="2062.5"
       x1="2052.3"
       id="b">
      <stop
         id="stop3987"
         offset="0"
         stop-color="#220c01" />
      <stop
         id="stop3989"
         offset="1"
         stop-opacity="0"
         stop-color="#220c01" />
    </linearGradient>
    <style
       id="style1840"
       type="text/css">
    .str3 {stroke:#373435;stroke-width:5.27277;stroke-linecap:round;stroke-linejoin:round}
    .str1 {stroke:#373435;stroke-width:10.5455;stroke-linecap:round;stroke-linejoin:round}
    .str2 {stroke:#373435;stroke-width:21.0911;stroke-linecap:round;stroke-linejoin:round}
    .str5 {stroke:#96989A;stroke-width:31.6336;stroke-linecap:round;stroke-linejoin:round}
    .str4 {stroke:#373435;stroke-width:42.1792;stroke-linecap:round;stroke-linejoin:round}
    .str0 {stroke:#FEFEFE;stroke-width:42.1792;stroke-linecap:round;stroke-linejoin:round}
    .fil2 {fill:none}
    .fil3 {fill:#373435}
    .fil1 {fill:#96989A}
    .fil0 {fill:whitesmoke}
  </style>
    <filter
       style="color-interpolation-filters:sRGB"
       inkscape:label="Invert"
       id="filter12109">
      <feColorMatrix
         type="hueRotate"
         values="180"
         result="color1"
         id="feColorMatrix12105" />
      <feColorMatrix
         values="1 0 0 0 0 0 0 1 0 0 0 1 0 0 0 0.21 0.72 0.07 1 0 "
         result="color2"
         id="feColorMatrix12107" />
    </filter>
    <pattern
       y="0"
       x="0"
       height="6"
       width="6"
       patternUnits="userSpaceOnUse"
       id="EMFhbasepattern" />
  </defs>
  <sodipodi:namedview
     id="base"
     pagecolor="#ffffff"
     bordercolor="#666666"
     borderopacity="1.0"
     inkscape:pageopacity="0.0"
     inkscape:pageshadow="2"
     inkscape:zoom="1.979899"
     inkscape:cx="-40.083713"
     inkscape:cy="193.74786"
     inkscape:document-units="mm"
     inkscape:current-layer="layer1"
     showgrid="false"
     units="px"
     inkscape:window-width="1920"
     inkscape:window-height="1028"
     inkscape:window-x="-8"
     inkscape:window-y="-8"
     inkscape:window-maximized="1" />
  <metadata
     id="metadata5">
    <rdf:RDF>
      <cc:Work
         rdf:about="">
        <dc:format>image/svg+xml</dc:format>
        <dc:type
           rdf:resource="http://purl.org/dc/dcmitype/StillImage" />
        <dc:title />
      </cc:Work>
    </rdf:RDF>
  </metadata>
  <g
     inkscape:label="Layer 1"
     inkscape:groupmode="layer"
     id="layer1"
     transform="translate(0,-196.45832)">
    <rect
       style="fill:#f0f0f0;stroke-width:0.08164966;stroke-linecap:round;paint-order:markers stroke fill"
       id="rect877"
       width="23.8125"
       height="100.54166"
       x="0"
       y="196.45833"
       rx="0"
       ry="0" />
    <g
       inkscape:transform-center-y="119.65244"
       inkscape:transform-center-x="-44.974764"
       id="g1358"
       transform="matrix(1.4311608,-1.4311608,1.4311608,1.4311608,-227.10672,-293.88753)"
       style="fill:#d6d6d6;fill-opacity:0.8">
      <g
         id="g1356">
        <g
           id="g1324"
           transform="translate(185.73646,-9.5250064)">
          <g
             transform="translate(-137.10274)"
             id="g1308">
            <path
               inkscape:connector-curvature="0"
               style="stroke-width:6.9784193;stroke-linecap:round;paint-order:markers stroke fill"
               d="m -718.94922,154.57227 c -14.32932,0.45458 -33.60356,20.71937 -31.29883,34.27148 -2.45838,14.45558 19.63622,36.55017 34.0918,34.0918 h 134.0918 v -9.0918 h -100.00196 v -25 c 2.45839,-14.4556 -19.63425,-36.54823 -34.08984,-34.08984 -0.90347,-0.15365 -1.83768,-0.21195 -2.79297,-0.18164 z m 1.00586,8.95898 c 0.63005,0.0232 1.22828,0.12471 1.78711,0.3125 8.94127,-3.00469 28.00471,16.05874 25,25 v 25 h -25 c -8.94126,3.00469 -28.00469,-16.05873 -25,-25 -2.8169,-8.38244 13.76214,-25.66117 23.21289,-25.3125 z m 26.78711,150.3125 v 9.0918 h 9.08984 v -9.0918 z"
               transform="matrix(0.26458333,0,0,0.26458333,0,196.45832)"
               id="path1296" />
            <path
               inkscape:connector-curvature="0"
               style="stroke-width:6.9784193;stroke-linecap:round;paint-order:markers stroke fill"
               d="m -718.55273,136.5293 c -24.81903,0.43381 -51.20004,27.62664 -49.87696,52.31445 -1.36576,25.48418 26.78925,53.63919 52.27344,52.27344 h 134.0918 v -9.0918 h -134.0918 c -19.96987,1.91207 -45.09371,-23.21177 -43.18164,-43.18164 -1.91207,-19.96987 23.21177,-45.0937 43.18164,-43.18164 19.96988,-1.91208 45.09374,23.21176 43.18164,43.18164 v 25 h 9.0918 v -25 c 1.36576,-25.4842 -26.78924,-53.63725 -52.27344,-52.27148 -0.79638,-0.0427 -1.59587,-0.057 -2.39648,-0.043 z m 45.57812,177.31445 v 9.0918 h 9.0918 v -9.0918 z"
               transform="matrix(0.26458333,0,0,0.26458333,0,196.45832)"
               id="path1298" />
            <path
               inkscape:connector-curvature="0"
               style="stroke-width:6.9784193;stroke-linecap:round;paint-order:markers stroke fill"
               d="m -716.15625,118.38867 c -36.51277,-0.27315 -70.72823,33.94231 -70.45508,70.45508 -0.27315,36.51277 33.94231,70.72822 70.45508,70.45508 h 134.0918 v -9.0918 h -134.0918 c -30.99848,0.81946 -62.18274,-30.3648 -61.36328,-61.36328 -0.81946,-30.99848 30.3648,-62.18273 61.36328,-61.36328 30.9985,-0.81946 62.18277,30.36478 61.36328,61.36328 v 25 h 9.0918 v -25 c 0.27315,-36.51278 -33.94229,-70.72823 -70.45508,-70.45508 z m 61.36328,195.45508 v 9.0918 h 9.0918 v -9.0918 z"
               transform="matrix(0.26458333,0,0,0.26458333,0,196.45832)"
               id="path1300" />
            <path
               inkscape:connector-curvature="0"
               style="stroke-width:6.9784193;stroke-linecap:round;paint-order:markers stroke fill"
               d="m -716.15625,100.20703 c -47.54138,0.81946 -87.81726,41.09534 -88.63672,88.63672 0.81946,47.54137 41.09535,87.81724 88.63672,88.63672 h 134.0918 v -9.0918 h -134.0918 v 0.002 c -42.02709,-0.27313 -79.27177,-37.51979 -79.54492,-79.54687 0.27315,-42.02708 37.51784,-79.27175 79.54492,-79.54492 42.02711,0.27315 79.2718,37.51781 79.54492,79.54492 v 25 h 9.0918 v -25 c -0.81947,-47.54138 -41.09532,-87.81726 -88.63672,-88.63672 z m 79.54492,213.63672 v 9.0918 h 9.0918 v -9.0918 z"
               transform="matrix(0.26458333,0,0,0.26458333,0,196.45832)"
               id="path1302" />
            <path
               inkscape:connector-curvature="0"
               style="stroke-width:6.9784193;stroke-linecap:round;paint-order:markers stroke fill"
               d="m -716.15625,82.025391 c -58.56997,1.912073 -104.90628,48.248379 -106.81836,106.818359 1.91207,58.56996 48.2484,104.90626 106.81836,106.81836 h 134.0918 v -9.08984 h -134.0918 c -53.05565,-1.36577 -96.3608,-44.67288 -97.72656,-97.72852 1.36576,-53.05564 44.67093,-96.360781 97.72656,-97.726562 53.05567,1.365765 96.36083,44.670882 97.72656,97.726562 v 25 h 9.0918 v -25 C -611.24997,130.27379 -657.58625,83.937471 -716.15625,82.025391 Z m 97.72656,231.818359 v 9.0918 h 9.0918 v -9.0918 z"
               transform="matrix(0.26458333,0,0,0.26458333,0,196.45832)"
               id="path1304" />
            <path
               inkscape:connector-curvature="0"
               style="stroke-width:6.9784193;stroke-linecap:round;paint-order:markers stroke fill"
               d="m -716.15625,63.84375 c -69.59855,3.004689 -121.99531,55.40145 -125,125 3.00469,69.59853 55.40147,121.99529 125,125 h 115.9082 v 9.0918 h 9.0918 v -9.0918 h 9.0918 v -9.08984 h -134.0918 c -64.08426,-2.45838 -113.45177,-51.82592 -115.91016,-115.91016 2.45839,-64.08424 51.82592,-113.449802 115.91016,-115.908203 64.08428,2.458384 113.44986,51.823903 115.9082,115.908203 v 25 h 9.0918 v -25 c -3.0047,-69.59854 -55.40142,-121.99531 -125,-125 z"
               transform="matrix(0.26458333,0,0,0.26458333,0,196.45832)"
               id="path1306" />
          </g>
          <g
             transform="rotate(90,-222.55592,213.35031)"
             id="g1322">
            <path
               inkscape:connector-curvature="0"
               id="path1310"
               transform="matrix(0.26458333,0,0,0.26458333,0,196.45832)"
               d="m -718.94922,154.57227 c -14.32932,0.45458 -33.60356,20.71937 -31.29883,34.27148 -2.45838,14.45558 19.63622,36.55017 34.0918,34.0918 h 134.0918 v -9.0918 h -100.00196 v -25 c 2.45839,-14.4556 -19.63425,-36.54823 -34.08984,-34.08984 -0.90347,-0.15365 -1.83768,-0.21195 -2.79297,-0.18164 z m 1.00586,8.95898 c 0.63005,0.0232 1.22828,0.12471 1.78711,0.3125 8.94127,-3.00469 28.00471,16.05874 25,25 v 25 h -25 c -8.94126,3.00469 -28.00469,-16.05873 -25,-25 -2.8169,-8.38244 13.76214,-25.66117 23.21289,-25.3125 z m 26.78711,150.3125 v 9.0918 h 9.08984 v -9.0918 z"
               style="stroke-width:6.9784193;stroke-linecap:round;paint-order:markers stroke fill" />
            <path
               inkscape:connector-curvature="0"
               id="path1312"
               transform="matrix(0.26458333,0,0,0.26458333,0,196.45832)"
               d="m -718.55273,136.5293 c -24.81903,0.43381 -51.20004,27.62664 -49.87696,52.31445 -1.36576,25.48418 26.78925,53.63919 52.27344,52.27344 h 134.0918 v -9.0918 h -134.0918 c -19.96987,1.91207 -45.09371,-23.21177 -43.18164,-43.18164 -1.91207,-19.96987 23.21177,-45.0937 43.18164,-43.18164 19.96988,-1.91208 45.09374,23.21176 43.18164,43.18164 v 25 h 9.0918 v -25 c 1.36576,-25.4842 -26.78924,-53.63725 -52.27344,-52.27148 -0.79638,-0.0427 -1.59587,-0.057 -2.39648,-0.043 z m 45.57812,177.31445 v 9.0918 h 9.0918 v -9.0918 z"
               style="stroke-width:6.9784193;stroke-linecap:round;paint-order:markers stroke fill" />
            <path
               inkscape:connector-curvature="0"
               id="path1314"
               transform="matrix(0.26458333,0,0,0.26458333,0,196.45832)"
               d="m -716.15625,118.38867 c -36.51277,-0.27315 -70.72823,33.94231 -70.45508,70.45508 -0.27315,36.51277 33.94231,70.72822 70.45508,70.45508 h 134.0918 v -9.0918 h -134.0918 c -30.99848,0.81946 -62.18274,-30.3648 -61.36328,-61.36328 -0.81946,-30.99848 30.3648,-62.18273 61.36328,-61.36328 30.9985,-0.81946 62.18277,30.36478 61.36328,61.36328 v 25 h 9.0918 v -25 c 0.27315,-36.51278 -33.94229,-70.72823 -70.45508,-70.45508 z m 61.36328,195.45508 v 9.0918 h 9.0918 v -9.0918 z"
               style="stroke-width:6.9784193;stroke-linecap:round;paint-order:markers stroke fill" />
            <path
               inkscape:connector-curvature="0"
               id="path1316"
               transform="matrix(0.26458333,0,0,0.26458333,0,196.45832)"
               d="m -716.15625,100.20703 c -47.54138,0.81946 -87.81726,41.09534 -88.63672,88.63672 0.81946,47.54137 41.09535,87.81724 88.63672,88.63672 h 134.0918 v -9.0918 h -134.0918 v 0.002 c -42.02709,-0.27313 -79.27177,-37.51979 -79.54492,-79.54687 0.27315,-42.02708 37.51784,-79.27175 79.54492,-79.54492 42.02711,0.27315 79.2718,37.51781 79.54492,79.54492 v 25 h 9.0918 v -25 c -0.81947,-47.54138 -41.09532,-87.81726 -88.63672,-88.63672 z m 79.54492,213.63672 v 9.0918 h 9.0918 v -9.0918 z"
               style="stroke-width:6.9784193;stroke-linecap:round;paint-order:markers stroke fill" />
            <path
               inkscape:connector-curvature="0"
               id="path1318"
               transform="matrix(0.26458333,0,0,0.26458333,0,196.45832)"
               d="m -716.15625,82.025391 c -58.56997,1.912073 -104.90628,48.248379 -106.81836,106.818359 1.91207,58.56996 48.2484,104.90626 106.81836,106.81836 h 134.0918 v -9.08984 h -134.0918 c -53.05565,-1.36577 -96.3608,-44.67288 -97.72656,-97.72852 1.36576,-53.05564 44.67093,-96.360781 97.72656,-97.726562 53.05567,1.365765 96.36083,44.670882 97.72656,97.726562 v 25 h 9.0918 v -25 C -611.24997,130.27379 -657.58625,83.937471 -716.15625,82.025391 Z m 97.72656,231.818359 v 9.0918 h 9.0918 v -9.0918 z"
               style="stroke-width:6.9784193;stroke-linecap:round;paint-order:markers stroke fill" />
            <path
               inkscape:connector-curvature="0"
               id="path1320"
               transform="matrix(0.26458333,0,0,0.26458333,0,196.45832)"
               d="m -716.15625,63.84375 c -69.59855,3.004689 -121.99531,55.40145 -125,125 3.00469,69.59853 55.40147,121.99529 125,125 h 115.9082 v 9.0918 h 9.0918 v -9.0918 h 9.0918 v -9.08984 h -134.0918 c -64.08426,-2.45838 -113.45177,-51.82592 -115.91016,-115.91016 2.45839,-64.08424 51.82592,-113.449802 115.91016,-115.908203 64.08428,2.458384 113.44986,51.823903 115.9082,115.908203 v 25 h 9.0918 v -25 c -3.0047,-69.59854 -55.40142,-121.99531 -125,-125 z"
               style="stroke-width:6.9784193;stroke-linecap:round;paint-order:markers stroke fill" />
          </g>
        </g>
        <g
           transform="rotate(-180,-198.23854,277.13918)"
           id="g1354">
          <g
             id="g1338"
             transform="translate(-137.10274)">
            <path
               id="path1326"
               transform="matrix(0.26458333,0,0,0.26458333,0,196.45832)"
               d="m -718.94922,154.57227 c -14.32932,0.45458 -33.60356,20.71937 -31.29883,34.27148 -2.45838,14.45558 19.63622,36.55017 34.0918,34.0918 h 134.0918 v -9.0918 h -100.00196 v -25 c 2.45839,-14.4556 -19.63425,-36.54823 -34.08984,-34.08984 -0.90347,-0.15365 -1.83768,-0.21195 -2.79297,-0.18164 z m 1.00586,8.95898 c 0.63005,0.0232 1.22828,0.12471 1.78711,0.3125 8.94127,-3.00469 28.00471,16.05874 25,25 v 25 h -25 c -8.94126,3.00469 -28.00469,-16.05873 -25,-25 -2.8169,-8.38244 13.76214,-25.66117 23.21289,-25.3125 z m 26.78711,150.3125 v 9.0918 h 9.08984 v -9.0918 z"
               style="stroke-width:6.9784193;stroke-linecap:round;paint-order:markers stroke fill"
               inkscape:connector-curvature="0" />
            <path
               id="path1328"
               transform="matrix(0.26458333,0,0,0.26458333,0,196.45832)"
               d="m -718.55273,136.5293 c -24.81903,0.43381 -51.20004,27.62664 -49.87696,52.31445 -1.36576,25.48418 26.78925,53.63919 52.27344,52.27344 h 134.0918 v -9.0918 h -134.0918 c -19.96987,1.91207 -45.09371,-23.21177 -43.18164,-43.18164 -1.91207,-19.96987 23.21177,-45.0937 43.18164,-43.18164 19.96988,-1.91208 45.09374,23.21176 43.18164,43.18164 v 25 h 9.0918 v -25 c 1.36576,-25.4842 -26.78924,-53.63725 -52.27344,-52.27148 -0.79638,-0.0427 -1.59587,-0.057 -2.39648,-0.043 z m 45.57812,177.31445 v 9.0918 h 9.0918 v -9.0918 z"
               style="stroke-width:6.9784193;stroke-linecap:round;paint-order:markers stroke fill"
               inkscape:connector-curvature="0" />
            <path
               id="path1330"
               transform="matrix(0.26458333,0,0,0.26458333,0,196.45832)"
               d="m -716.15625,118.38867 c -36.51277,-0.27315 -70.72823,33.94231 -70.45508,70.45508 -0.27315,36.51277 33.94231,70.72822 70.45508,70.45508 h 134.0918 v -9.0918 h -134.0918 c -30.99848,0.81946 -62.18274,-30.3648 -61.36328,-61.36328 -0.81946,-30.99848 30.3648,-62.18273 61.36328,-61.36328 30.9985,-0.81946 62.18277,30.36478 61.36328,61.36328 v 25 h 9.0918 v -25 c 0.27315,-36.51278 -33.94229,-70.72823 -70.45508,-70.45508 z m 61.36328,195.45508 v 9.0918 h 9.0918 v -9.0918 z"
               style="stroke-width:6.9784193;stroke-linecap:round;paint-order:markers stroke fill"
               inkscape:connector-curvature="0" />
            <path
               id="path1332"
               transform="matrix(0.26458333,0,0,0.26458333,0,196.45832)"
               d="m -716.15625,100.20703 c -47.54138,0.81946 -87.81726,41.09534 -88.63672,88.63672 0.81946,47.54137 41.09535,87.81724 88.63672,88.63672 h 134.0918 v -9.0918 h -134.0918 v 0.002 c -42.02709,-0.27313 -79.27177,-37.51979 -79.54492,-79.54687 0.27315,-42.02708 37.51784,-79.27175 79.54492,-79.54492 42.02711,0.27315 79.2718,37.51781 79.54492,79.54492 v 25 h 9.0918 v -25 c -0.81947,-47.54138 -41.09532,-87.81726 -88.63672,-88.63672 z m 79.54492,213.63672 v 9.0918 h 9.0918 v -9.0918 z"
               style="stroke-width:6.9784193;stroke-linecap:round;paint-order:markers stroke fill"
               inkscape:connector-curvature="0" />
            <path
               id="path1334"
               transform="matrix(0.26458333,0,0,0.26458333,0,196.45832)"
               d="m -716.15625,82.025391 c -58.56997,1.912073 -104.90628,48.248379 -106.81836,106.818359 1.91207,58.56996 48.2484,104.90626 106.81836,106.81836 h 134.0918 v -9.08984 h -134.0918 c -53.05565,-1.36577 -96.3608,-44.67288 -97.72656,-97.72852 1.36576,-53.05564 44.67093,-96.360781 97.72656,-97.726562 53.05567,1.365765 96.36083,44.670882 97.72656,97.726562 v 25 h 9.0918 v -25 C -611.24997,130.27379 -657.58625,83.937471 -716.15625,82.025391 Z m 97.72656,231.818359 v 9.0918 h 9.0918 v -9.0918 z"
               style="stroke-width:6.9784193;stroke-linecap:round;paint-order:markers stroke fill"
               inkscape:connector-curvature="0" />
            <path
               id="path1336"
               transform="matrix(0.26458333,0,0,0.26458333,0,196.45832)"
               d="m -716.15625,63.84375 c -69.59855,3.004689 -121.99531,55.40145 -125,125 3.00469,69.59853 55.40147,121.99529 125,125 h 115.9082 v 9.0918 h 9.0918 v -9.0918 h 9.0918 v -9.08984 h -134.0918 c -64.08426,-2.45838 -113.45177,-51.82592 -115.91016,-115.91016 2.45839,-64.08424 51.82592,-113.449802 115.91016,-115.908203 64.08428,2.458384 113.44986,51.823903 115.9082,115.908203 v 25 h 9.0918 v -25 c -3.0047,-69.59854 -55.40142,-121.99531 -125,-125 z"
               style="stroke-width:6.9784193;stroke-linecap:round;paint-order:markers stroke fill"
               inkscape:connector-curvature="0" />
          </g>
          <g
             id="g1352"
             transform="rotate(90,-222.55592,213.35031)">
            <path
               style="stroke-width:6.9784193;stroke-linecap:round;paint-order:markers stroke fill"
               d="m -718.94922,154.57227 c -14.32932,0.45458 -33.60356,20.71937 -31.29883,34.27148 -2.45838,14.45558 19.63622,36.55017 34.0918,34.0918 h 134.0918 v -9.0918 h -100.00196 v -25 c 2.45839,-14.4556 -19.63425,-36.54823 -34.08984,-34.08984 -0.90347,-0.15365 -1.83768,-0.21195 -2.79297,-0.18164 z m 1.00586,8.95898 c 0.63005,0.0232 1.22828,0.12471 1.78711,0.3125 8.94127,-3.00469 28.00471,16.05874 25,25 v 25 h -25 c -8.94126,3.00469 -28.00469,-16.05873 -25,-25 -2.8169,-8.38244 13.76214,-25.66117 23.21289,-25.3125 z m 26.78711,150.3125 v 9.0918 h 9.08984 v -9.0918 z"
               transform="matrix(0.26458333,0,0,0.26458333,0,196.45832)"
               id="path1340"
               inkscape:connector-curvature="0" />
            <path
               style="stroke-width:6.9784193;stroke-linecap:round;paint-order:markers stroke fill"
               d="m -718.55273,136.5293 c -24.81903,0.43381 -51.20004,27.62664 -49.87696,52.31445 -1.36576,25.48418 26.78925,53.63919 52.27344,52.27344 h 134.0918 v -9.0918 h -134.0918 c -19.96987,1.91207 -45.09371,-23.21177 -43.18164,-43.18164 -1.91207,-19.96987 23.21177,-45.0937 43.18164,-43.18164 19.96988,-1.91208 45.09374,23.21176 43.18164,43.18164 v 25 h 9.0918 v -25 c 1.36576,-25.4842 -26.78924,-53.63725 -52.27344,-52.27148 -0.79638,-0.0427 -1.59587,-0.057 -2.39648,-0.043 z m 45.57812,177.31445 v 9.0918 h 9.0918 v -9.0918 z"
               transform="matrix(0.26458333,0,0,0.26458333,0,196.45832)"
               id="path1342"
               inkscape:connector-curvature="0" />
            <path
               style="stroke-width:6.9784193;stroke-linecap:round;paint-order:markers stroke fill"
               d="m -716.15625,118.38867 c -36.51277,-0.27315 -70.72823,33.94231 -70.45508,70.45508 -0.27315,36.51277 33.94231,70.72822 70.45508,70.45508 h 134.0918 v -9.0918 h -134.0918 c -30.99848,0.81946 -62.18274,-30.3648 -61.36328,-61.36328 -0.81946,-30.99848 30.3648,-62.18273 61.36328,-61.36328 30.9985,-0.81946 62.18277,30.36478 61.36328,61.36328 v 25 h 9.0918 v -25 c 0.27315,-36.51278 -33.94229,-70.72823 -70.45508,-70.45508 z m 61.36328,195.45508 v 9.0918 h 9.0918 v -9.0918 z"
               transform="matrix(0.26458333,0,0,0.26458333,0,196.45832)"
               id="path1344"
               inkscape:connector-curvature="0" />
            <path
               style="stroke-width:6.9784193;stroke-linecap:round;paint-order:markers stroke fill"
               d="m -716.15625,100.20703 c -47.54138,0.81946 -87.81726,41.09534 -88.63672,88.63672 0.81946,47.54137 41.09535,87.81724 88.63672,88.63672 h 134.0918 v -9.0918 h -134.0918 v 0.002 c -42.02709,-0.27313 -79.27177,-37.51979 -79.54492,-79.54687 0.27315,-42.02708 37.51784,-79.27175 79.54492,-79.54492 42.02711,0.27315 79.2718,37.51781 79.54492,79.54492 v 25 h 9.0918 v -25 c -0.81947,-47.54138 -41.09532,-87.81726 -88.63672,-88.63672 z m 79.54492,213.63672 v 9.0918 h 9.0918 v -9.0918 z"
               transform="matrix(0.26458333,0,0,0.26458333,0,196.45832)"
               id="path1346"
               inkscape:connector-curvature="0" />
            <path
               style="stroke-width:6.9784193;stroke-linecap:round;paint-order:markers stroke fill"
               d="m -716.15625,82.025391 c -58.56997,1.912073 -104.90628,48.248379 -106.81836,106.818359 1.91207,58.56996 48.2484,104.90626 106.81836,106.81836 h 134.0918 v -9.08984 h -134.0918 c -53.05565,-1.36577 -96.3608,-44.67288 -97.72656,-97.72852 1.36576,-53.05564 44.67093,-96.360781 97.72656,-97.726562 53.05567,1.365765 96.36083,44.670882 97.72656,97.726562 v 25 h 9.0918 v -25 C -611.24997,130.27379 -657.58625,83.937471 -716.15625,82.025391 Z m 97.72656,231.818359 v 9.0918 h 9.0918 v -9.0918 z"
               transform="matrix(0.26458333,0,0,0.26458333,0,196.45832)"
               id="path1348"
               inkscape:connector-curvature="0" />
            <path
               style="stroke-width:6.9784193;stroke-linecap:round;paint-order:markers stroke fill"
               d="m -716.15625,63.84375 c -69.59855,3.004689 -121.99531,55.40145 -125,125 3.00469,69.59853 55.40147,121.99529 125,125 h 115.9082 v 9.0918 h 9.0918 v -9.0918 h 9.0918 v -9.08984 h -134.0918 c -64.08426,-2.45838 -113.45177,-51.82592 -115.91016,-115.91016 2.45839,-64.08424 51.82592,-113.449802 115.91016,-115.908203 64.08428,2.458384 113.44986,51.823903 115.9082,115.908203 v 25 h 9.0918 v -25 c -3.0047,-69.59854 -55.40142,-121.99531 -125,-125 z"
               transform="matrix(0.26458333,0,0,0.26458333,0,196.45832)"
               id="path1350"
               inkscape:connector-curvature="0" />
          </g>
        </g>
      </g>
    </g>
    <g
       aria-label="VCO"
       style="font-size:2.46944451px;font-family:'DejaVu Sans Mono';-inkscape-font-specification:'DejaVu Sans Mono';letter-spacing:0px;word-spacing:0px;fill:#000000;stroke-width:0.26458332"
       id="text869"
       transform="translate(44.979167,-19.579173)">
      <path
         d="m -25.984189,226.77039 0.42323,-1.59525 h 0.252009 l -0.526928,1.80023 h -0.295417 l -0.526927,-1.80023 h 0.252009 z"
         id="path954"
         inkscape:connector-curvature="0" />
      <path
         d="m -23.947621,226.91147 q -0.09284,0.0494 -0.190513,0.0735 -0.09767,0.0253 -0.207395,0.0253 -0.34606,0 -0.53778,-0.24477 -0.190513,-0.24478 -0.190513,-0.68851 0,-0.44131 0.191719,-0.68729 0.192925,-0.24719 0.536574,-0.24719 0.109726,0 0.207395,0.0253 0.09767,0.0241 0.190513,0.0736 v 0.24959 q -0.08923,-0.0736 -0.191719,-0.11213 -0.102492,-0.0386 -0.206189,-0.0386 -0.23754,0 -0.355706,0.18328 -0.118167,0.18328 -0.118167,0.55345 0,0.36897 0.118167,0.55225 0.118166,0.18328 0.355706,0.18328 0.106109,0 0.207395,-0.0386 0.102491,-0.0386 0.190513,-0.11214 z"
         id="path956"
         inkscape:connector-curvature="0" />
      <path
         d="m -22.664667,226.07706 q 0,-0.3967 -0.08199,-0.56671 -0.08079,-0.17002 -0.266478,-0.17002 -0.184485,0 -0.266479,0.17002 -0.08079,0.17001 -0.08079,0.56671 0,0.3955 0.08079,0.56552 0.08199,0.17001 0.266479,0.17001 0.18569,0 0.266478,-0.16881 0.08199,-0.17001 0.08199,-0.56672 z m 0.25442,0 q 0,0.47026 -0.149517,0.70177 -0.148311,0.23151 -0.453374,0.23151 -0.305064,0 -0.453375,-0.2303 -0.148311,-0.23031 -0.148311,-0.70298 0,-0.47146 0.148311,-0.70297 0.149517,-0.23151 0.453375,-0.23151 0.305063,0 0.453374,0.23151 0.149517,0.23151 0.149517,0.70297 z"
         id="path958"
         inkscape:connector-curvature="0" />
    </g>
    <g
       aria-label="LFO"
       style="font-size:2.46944451px;font-family:'DejaVu Sans Mono';-inkscape-font-specification:'DejaVu Sans Mono';letter-spacing:0px;word-spacing:0px;fill:#000000;stroke-width:0.26458332"
       id="text873"
       transform="translate(44.979167,-15.875004)">
      <path
         d="m -26.467708,230.46681 h 0.244774 v 1.59525 h 0.86937 v 0.20498 h -1.114144 z"
         id="path947"
         inkscape:connector-curvature="0" />
      <path
         d="m -24.960479,230.46681 h 1.059884 v 0.20498 h -0.81511 v 0.53055 h 0.739145 v 0.20498 h -0.739145 v 0.85972 h -0.244774 z"
         id="path949"
         inkscape:connector-curvature="0" />
      <path
         d="m -22.664667,231.36874 q 0,-0.39671 -0.08199,-0.56672 -0.08079,-0.17002 -0.266478,-0.17002 -0.184485,0 -0.266479,0.17002 -0.08079,0.17001 -0.08079,0.56672 0,0.39549 0.08079,0.56551 0.08199,0.17001 0.266479,0.17001 0.18569,0 0.266478,-0.16881 0.08199,-0.17001 0.08199,-0.56671 z m 0.25442,0 q 0,0.47025 -0.149517,0.70176 -0.148311,0.23151 -0.453374,0.23151 -0.305064,0 -0.453375,-0.2303 -0.148311,-0.23031 -0.148311,-0.70297 0,-0.47147 0.148311,-0.70298 0.149517,-0.23151 0.453375,-0.23151 0.305063,0 0.453374,0.23151 0.149517,0.23151 0.149517,0.70298 z"
         id="path951"
         inkscape:connector-curvature="0" />
    </g>
    <g
       aria-label="FREQ"
       style="font-size:2.46944451px;font-family:'DejaVu Sans Mono';-inkscape-font-specification:'DejaVu Sans Mono';letter-spacing:0px;word-spacing:0px;fill:#000000;stroke-width:0.26458332"
       id="text877"
       transform="translate(35.591609,-22.754168)">
      <path
         d="m -26.446004,241.05015 h 1.059884 v 0.20499 h -0.81511 v 0.53054 h 0.739145 v 0.20498 h -0.739145 v 0.85973 h -0.244774 z"
         id="path938"
         inkscape:connector-curvature="0" />
      <path
         d="m -24.325031,242.00031 q 0.09405,0.0241 0.160369,0.0916 0.06632,0.0663 0.165193,0.26648 l 0.244774,0.49196 h -0.261655 l -0.21463,-0.45458 q -0.09285,-0.19413 -0.167604,-0.2496 -0.07355,-0.0567 -0.192925,-0.0567 h -0.232716 v 0.76085 h -0.244774 v -1.80024 h 0.501606 q 0.296622,0 0.45458,0.13384 0.157958,0.13385 0.157958,0.38706 0,0.17846 -0.09767,0.2918 -0.09646,0.11214 -0.272507,0.13746 z m -0.499194,-0.75 v 0.63907 h 0.266478 q 0.174838,0 0.260449,-0.0784 0.08561,-0.0784 0.08561,-0.23995 0,-0.15554 -0.09164,-0.23754 -0.09043,-0.0832 -0.264066,-0.0832 z"
         id="path940"
         inkscape:connector-curvature="0" />
      <path
         d="m -23.518362,241.05015 h 1.068324 v 0.20499 h -0.824756 v 0.53295 h 0.788583 v 0.20499 h -0.788583 v 0.65232 h 0.847666 v 0.20499 h -1.091234 z"
         id="path942"
         inkscape:connector-curvature="0" />
      <path
         d="m -21.480588,242.88294 q -0.0084,0 -0.02411,0.001 -0.01568,0.001 -0.02532,0.001 -0.301446,0 -0.450963,-0.23152 -0.148311,-0.23151 -0.148311,-0.70176 0,-0.47146 0.148311,-0.70297 0.149517,-0.23151 0.453375,-0.23151 0.305063,0 0.453374,0.23151 0.149518,0.23151 0.149518,0.70297 0,0.3545 -0.0832,0.57154 -0.08199,0.21584 -0.249598,0.30265 l 0.241157,0.2291 -0.182073,0.12058 z m 0.301446,-0.93086 q 0,-0.3967 -0.08199,-0.56672 -0.08079,-0.17001 -0.266478,-0.17001 -0.184485,0 -0.266478,0.17001 -0.08079,0.17002 -0.08079,0.56672 0,0.3955 0.08079,0.56551 0.08199,0.17002 0.266478,0.17002 0.185691,0 0.266478,-0.16881 0.08199,-0.17002 0.08199,-0.56672 z"
         id="path944"
         inkscape:connector-curvature="0" />
    </g>
    <g
       aria-label="WAVE"
       style="font-size:2.46944451px;font-family:'DejaVu Sans Mono';-inkscape-font-specification:'DejaVu Sans Mono';letter-spacing:0px;word-spacing:0px;fill:#000000;stroke-width:0.26458332"
       id="text881"
       transform="translate(35.740527,14.020231)">
      <path
         d="m -26.726952,246.34182 h 0.23754 l 0.172427,1.46141 0.204983,-0.96703 h 0.25442 l 0.207395,0.96945 0.172427,-1.46383 h 0.237539 l -0.268889,1.80024 h -0.230305 l -0.244774,-1.06953 -0.243568,1.06953 h -0.230305 z"
         id="path929"
         inkscape:connector-curvature="0" />
      <path
         d="m -24.498664,246.55645 -0.256832,0.92122 h 0.513664 z m -0.147105,-0.21463 h 0.295417 l 0.551043,1.80024 h -0.252009 l -0.132636,-0.46905 h -0.630625 l -0.130225,0.46905 h -0.252008 z"
         id="path931"
         inkscape:connector-curvature="0" />
      <path
         d="m -23.013138,247.93708 0.42323,-1.59526 h 0.252008 l -0.526927,1.80024 h -0.295417 l -0.526927,-1.80024 h 0.252008 z"
         id="path933"
         inkscape:connector-curvature="0" />
      <path
         d="m -22.032836,246.34182 h 1.068324 v 0.20499 h -0.824756 v 0.53295 h 0.788582 v 0.20499 h -0.788582 v 0.65233 h 0.847666 v 0.20498 h -1.091234 z"
         id="path935"
         inkscape:connector-curvature="0" />
    </g>
    <g
       aria-label="PW"
       style="font-size:2.46944451px;font-family:'DejaVu Sans Mono';-inkscape-font-specification:'DejaVu Sans Mono';letter-spacing:0px;word-spacing:0px;fill:#000000;stroke-width:0.26458332"
       id="text885"
       transform="translate(43.818948,-4.4842309)">
      <path
         d="m -26.245844,251.83366 v 0.67644 h 0.282153 q 0.16881,0 0.262861,-0.0892 0.09526,-0.0892 0.09526,-0.24959 0,-0.16037 -0.09405,-0.2484 -0.09405,-0.0892 -0.264067,-0.0892 z m -0.243568,-0.20016 h 0.525721 q 0.301446,0 0.456992,0.13746 0.155546,0.13625 0.155546,0.40032 0,0.26647 -0.155546,0.40273 -0.15434,0.13625 -0.456992,0.13625 h -0.282153 v 0.72347 h -0.243568 z"
         id="path924"
         inkscape:connector-curvature="0" />
      <path
         d="m -25.241426,251.6335 h 0.237539 l 0.172427,1.46141 0.204983,-0.96704 h 0.254421 l 0.207394,0.96945 0.172427,-1.46382 h 0.23754 l -0.26889,1.80023 h -0.230305 l -0.244774,-1.06953 -0.243568,1.06953 h -0.230305 z"
         id="path926"
         inkscape:connector-curvature="0" />
    </g>
    <g
       aria-label="FM"
       style="font-size:2.46944451px;font-family:'DejaVu Sans Mono';-inkscape-font-specification:'DejaVu Sans Mono';letter-spacing:0px;word-spacing:0px;fill:#000000;stroke-width:0.26458332"
       id="text889"
       transform="translate(30.461521,-9.7759009)">
      <path
         d="m -26.446004,256.92517 h 1.059884 v 0.20498 h -0.81511 v 0.53055 h 0.739145 v 0.20498 h -0.739145 v 0.85972 h -0.244774 z"
         id="path919"
         inkscape:connector-curvature="0" />
      <path
         d="m -25.137729,256.92517 h 0.325562 l 0.311092,0.91639 0.313503,-0.91639 h 0.326768 v 1.80023 h -0.225482 v -1.59043 l -0.320738,0.94896 h -0.184485 l -0.321944,-0.94896 v 1.59043 h -0.224276 z"
         id="path921"
         inkscape:connector-curvature="0" />
    </g>
    <g
       aria-label="1V/OCT"
       style="font-size:2.46944451px;font-family:'DejaVu Sans Mono';-inkscape-font-specification:'DejaVu Sans Mono';letter-spacing:0px;word-spacing:0px;fill:#000000;stroke-width:0.26458332"
       id="text893"
       transform="translate(27.516668,7.40296)">
      <path
         d="m -26.40139,263.81208 h 0.378616 v -1.3758 l -0.407555,0.0916 v -0.22187 l 0.405143,-0.0892 h 0.243569 v 1.59526 h 0.373792 v 0.20498 h -0.993565 z"
         id="path906"
         inkscape:connector-curvature="0" />
      <path
         d="m -24.498664,263.81208 0.42323,-1.59526 h 0.252009 l -0.526927,1.80024 h -0.295417 l -0.526928,-1.80024 h 0.252009 z"
         id="path908"
         inkscape:connector-curvature="0" />
      <path
         d="m -22.68396,262.21682 h 0.229099 l -0.947746,2.02934 h -0.230304 z"
         id="path910"
         inkscape:connector-curvature="0" />
      <path
         d="m -21.179142,263.11875 q 0,-0.3967 -0.08199,-0.56672 -0.08079,-0.17001 -0.266478,-0.17001 -0.184485,0 -0.266478,0.17001 -0.08079,0.17002 -0.08079,0.56672 0,0.3955 0.08079,0.56551 0.08199,0.17002 0.266478,0.17002 0.185691,0 0.266478,-0.16881 0.08199,-0.17002 0.08199,-0.56672 z m 0.254421,0 q 0,0.47026 -0.149518,0.70177 -0.148311,0.23151 -0.453374,0.23151 -0.305063,0 -0.453375,-0.23031 -0.148311,-0.2303 -0.148311,-0.70297 0,-0.47146 0.148311,-0.70297 0.149517,-0.23151 0.453375,-0.23151 0.305063,0 0.453374,0.23151 0.149518,0.23151 0.149518,0.70297 z"
         id="path912"
         inkscape:connector-curvature="0" />
      <path
         d="m -19.491045,263.95315 q -0.09285,0.0494 -0.190514,0.0736 -0.09767,0.0253 -0.207394,0.0253 -0.34606,0 -0.53778,-0.24478 -0.190514,-0.24477 -0.190514,-0.6885 0,-0.44132 0.19172,-0.6873 0.192925,-0.24718 0.536574,-0.24718 0.109726,0 0.207394,0.0253 0.09767,0.0241 0.190514,0.0736 v 0.2496 q -0.08923,-0.0736 -0.19172,-0.11214 -0.102491,-0.0386 -0.206188,-0.0386 -0.23754,0 -0.355707,0.18328 -0.118166,0.18328 -0.118166,0.55345 0,0.36897 0.118166,0.55225 0.118167,0.18328 0.355707,0.18328 0.106108,0 0.207394,-0.0386 0.102492,-0.0386 0.190514,-0.11213 z"
         id="path914"
         inkscape:connector-curvature="0" />
      <path
         d="m -19.242654,262.21682 h 1.373388 v 0.20499 h -0.563101 v 1.59525 h -0.244774 v -1.59525 h -0.565513 z"
         id="path916"
         inkscape:connector-curvature="0" />
    </g>
    <g
       aria-label="OUT"
       style="font-size:2.46944451px;font-family:'DejaVu Sans Mono';-inkscape-font-specification:'DejaVu Sans Mono';letter-spacing:0px;word-spacing:0px;fill:#000000;stroke-width:0.26458332"
       id="text897"
       transform="translate(43.68192,23.283335)">
      <path
         d="m -25.635718,268.41041 q 0,-0.39671 -0.08199,-0.56672 -0.08079,-0.17002 -0.266478,-0.17002 -0.184485,0 -0.266478,0.17002 -0.08079,0.17001 -0.08079,0.56672 0,0.39549 0.08079,0.56551 0.08199,0.17002 0.266478,0.17002 0.185691,0 0.266478,-0.16881 0.08199,-0.17002 0.08199,-0.56672 z m 0.254421,0 q 0,0.47025 -0.149517,0.70176 -0.148312,0.23151 -0.453375,0.23151 -0.305063,0 -0.453375,-0.2303 -0.148311,-0.23031 -0.148311,-0.70297 0,-0.47146 0.148311,-0.70297 0.149518,-0.23152 0.453375,-0.23152 0.305063,0 0.453375,0.23152 0.149517,0.23151 0.149517,0.70297 z"
         id="path899"
         inkscape:connector-curvature="0" />
      <path
         d="m -25.064176,268.6178 v -1.10932 h 0.244774 v 1.22025 q 0,0.13143 0.0072,0.18811 0.0072,0.0555 0.02532,0.0856 0.03859,0.0711 0.110932,0.10731 0.07355,0.0362 0.17725,0.0362 0.104903,0 0.17725,-0.0362 0.07235,-0.0362 0.112138,-0.10731 0.01809,-0.0301 0.02532,-0.0856 0.0072,-0.0555 0.0072,-0.18569 v -1.22267 h 0.243569 v 1.10932 q 0,0.27613 -0.03497,0.39309 -0.03376,0.11575 -0.118167,0.19172 -0.07958,0.0711 -0.182073,0.10611 -0.102492,0.035 -0.230305,0.035 -0.126607,0 -0.229099,-0.035 -0.102491,-0.035 -0.183279,-0.10611 -0.0832,-0.0748 -0.118166,-0.19293 -0.03497,-0.11937 -0.03497,-0.39188 z"
         id="path901"
         inkscape:connector-curvature="0" />
      <path
         d="m -23.699229,267.50848 h 1.373387 v 0.20498 h -0.563101 v 1.59526 h -0.244774 v -1.59526 h -0.565512 z"
         id="path903"
         inkscape:connector-curvature="0" />
    </g>
    <g
       aria-label="FINE"
       style="font-size:2.46944451px;font-family:'DejaVu Sans Mono';-inkscape-font-specification:'DejaVu Sans Mono';letter-spacing:0px;word-spacing:0px;fill:#000000;stroke-width:0.26458332"
       id="text963"
       transform="translate(0,-1.5875)">
      <path
         d="m 9.1540488,235.59865 h 1.0598832 v 0.20498 H 9.3988228 v 0.53054 h 0.7391452 v 0.20499 H 9.3988228 v 0.85972 h -0.244774 z"
         id="path965"
         inkscape:connector-curvature="0" />
      <path
         d="m 10.600989,235.59865 h 0.999594 v 0.20498 h -0.37741 v 1.39027 h 0.37741 v 0.20498 h -0.999594 v -0.20498 h 0.37741 v -1.39027 h -0.37741 z"
         id="path967"
         inkscape:connector-curvature="0" />
      <path
         d="m 12.011756,235.59865 h 0.30868 l 0.607715,1.4819 v -1.4819 h 0.235128 v 1.80023 h -0.308681 l -0.607715,-1.48191 v 1.48191 h -0.235127 z"
         id="path969"
         inkscape:connector-curvature="0" />
      <path
         d="m 13.567216,235.59865 h 1.068325 v 0.20498 h -0.824756 v 0.53295 h 0.788582 v 0.20499 h -0.788582 v 0.65233 h 0.847665 v 0.20498 h -1.091234 z"
         id="path971"
         inkscape:connector-curvature="0" />
    </g>
    <g
       aria-label="SYNC"
       style="font-size:2.46944451px;font-family:'DejaVu Sans Mono';-inkscape-font-specification:'DejaVu Sans Mono';letter-spacing:0px;word-spacing:0px;fill:#000000;stroke-width:0.26458332"
       id="text990"
       transform="translate(73.59638,38.500907)">
      <path
         d="m -56.109059,241.67371 v 0.24718 q -0.110932,-0.0711 -0.223069,-0.10731 -0.110933,-0.0362 -0.224276,-0.0362 -0.172427,0 -0.272507,0.0808 -0.10008,0.0796 -0.10008,0.21584 0,0.11937 0.06511,0.18207 0.06632,0.0627 0.24598,0.1049 l 0.127813,0.0289 q 0.253214,0.0591 0.36897,0.18569 0.115755,0.12661 0.115755,0.34486 0,0.25683 -0.159164,0.39188 -0.159163,0.13504 -0.46302,0.13504 -0.126608,0 -0.254421,-0.0277 -0.127813,-0.0265 -0.256832,-0.0808 v -0.25924 q 0.138666,0.088 0.261655,0.12902 0.124196,0.041 0.249598,0.041 0.184484,0 0.286976,-0.082 0.102492,-0.0832 0.102492,-0.23151 0,-0.13505 -0.07114,-0.20619 -0.06994,-0.0711 -0.244774,-0.10972 l -0.130224,-0.0301 q -0.250803,-0.0567 -0.364147,-0.17122 -0.113343,-0.11455 -0.113343,-0.30748 0,-0.24115 0.161575,-0.38585 0.16278,-0.1459 0.43167,-0.1459 0.103697,0 0.218247,0.0241 0.114549,0.0229 0.241156,0.0699 z"
         id="path992"
         inkscape:connector-curvature="0" />
      <path
         d="m -55.799172,241.61221 h 0.259243 l 0.438905,0.79461 0.4377,-0.79461 h 0.261655 l -0.57757,0.99236 v 0.80788 h -0.244774 v -0.80788 z"
         id="path994"
         inkscape:connector-curvature="0" />
      <path
         d="m -54.190657,241.61221 h 0.308681 l 0.607714,1.48191 v -1.48191 h 0.235128 v 1.80024 h -0.30868 l -0.607715,-1.48191 v 1.48191 h -0.235128 z"
         id="path996"
         inkscape:connector-curvature="0" />
      <path
         d="m -51.57893,243.34854 q -0.09284,0.0494 -0.190514,0.0735 -0.09767,0.0253 -0.207394,0.0253 -0.34606,0 -0.53778,-0.24477 -0.190514,-0.24478 -0.190514,-0.6885 0,-0.44132 0.19172,-0.6873 0.192925,-0.24719 0.536574,-0.24719 0.109726,0 0.207394,0.0253 0.09767,0.0241 0.190514,0.0735 v 0.2496 q -0.08923,-0.0736 -0.191719,-0.11214 -0.102492,-0.0386 -0.206189,-0.0386 -0.23754,0 -0.355707,0.18328 -0.118166,0.18328 -0.118166,0.55346 0,0.36897 0.118166,0.55225 0.118167,0.18327 0.355707,0.18327 0.106109,0 0.207394,-0.0386 0.102492,-0.0386 0.190514,-0.11214 z"
         id="path998"
         inkscape:connector-curvature="0" />
    </g>
    <g
       transform="translate(29.595575,23.189092)"
       id="g1009"
       style="font-size:2.46944451px;font-family:'DejaVu Sans Mono';-inkscape-font-specification:'DejaVu Sans Mono';letter-spacing:0px;word-spacing:0px;fill:#000000;stroke-width:0.26458332"
       aria-label="FM">
      <path
         inkscape:connector-curvature="0"
         id="path1005"
         d="m -26.446004,256.92517 h 1.059884 v 0.20498 h -0.81511 v 0.53055 h 0.739145 v 0.20498 h -0.739145 v 0.85972 h -0.244774 z" />
      <path
         inkscape:connector-curvature="0"
         id="path1007"
         d="m -25.137729,256.92517 h 0.325562 l 0.311092,0.91639 0.313503,-0.91639 h 0.326768 v 1.80023 h -0.225482 v -1.59043 l -0.320738,0.94896 h -0.184485 l -0.321944,-0.94896 v 1.59043 h -0.224276 z" />
    </g>
    <g
       transform="translate(44.348115,18.08456)"
       id="g1015"
       style="font-size:2.46944451px;font-family:'DejaVu Sans Mono';-inkscape-font-specification:'DejaVu Sans Mono';letter-spacing:0px;word-spacing:0px;fill:#000000;stroke-width:0.26458332"
       aria-label="PW">
      <path
         inkscape:connector-curvature="0"
         id="path1011"
         d="m -26.245844,251.83366 v 0.67644 h 0.282153 q 0.16881,0 0.262861,-0.0892 0.09526,-0.0892 0.09526,-0.24959 0,-0.16037 -0.09405,-0.2484 -0.09405,-0.0892 -0.264067,-0.0892 z m -0.243568,-0.20016 h 0.525721 q 0.301446,0 0.456992,0.13746 0.155546,0.13625 0.155546,0.40032 0,0.26647 -0.155546,0.40273 -0.15434,0.13625 -0.456992,0.13625 h -0.282153 v 0.72347 h -0.243568 z" />
      <path
         inkscape:connector-curvature="0"
         id="path1013"
         d="m -25.241426,251.6335 h 0.237539 l 0.172427,1.46141 0.204983,-0.96704 h 0.254421 l 0.207394,0.96945 0.172427,-1.46382 h 0.23754 l -0.26889,1.80023 h -0.230305 l -0.244774,-1.06953 -0.243568,1.06953 h -0.230305 z" />
    </g>
    <g
       id="g945"
       transform="translate(69.235563,-21.579785)">
      <path
         inkscape:connector-curvature="0"
         style="fill:#000000;stroke-width:0.26458332"
         d="m -61.742531,223.50466 0.634996,-3.00564 h 0.698495 l -0.846661,3.59831 h -0.994826 l -0.84666,-3.59831 h 0.719661 z"
         id="path922" />
      <path
         inkscape:connector-curvature="0"
         style="fill:#000000;stroke-width:0.26458332"
         d="m -57.657394,223.99149 c -0.105833,0.0635 -0.232832,0.10584 -0.359831,0.127 -0.126999,0.0423 -0.253998,0.0423 -0.380997,0.0423 -0.48683,0 -0.867827,-0.14817 -1.121825,-0.46567 -0.253998,-0.3175 -0.380997,-0.78316 -0.380997,-1.39699 0,-0.59266 0.126999,-1.05832 0.380997,-1.37582 0.253998,-0.3175 0.634995,-0.48683 1.121825,-0.48683 0.126999,0 0.253998,0.0212 0.380997,0.0423 0.126999,0.0212 0.253998,0.0635 0.359831,0.127 v 0.80433 c -0.126999,-0.127 -0.232832,-0.21167 -0.359831,-0.254 -0.105832,-0.0635 -0.232832,-0.0847 -0.359831,-0.0847 -0.253998,0 -0.444496,0.10583 -0.571495,0.31749 -0.148166,0.21167 -0.211665,0.508 -0.211665,0.91016 0,0.40217 0.0635,0.71966 0.211665,0.93133 0.126999,0.1905 0.317497,0.29633 0.571495,0.29633 0.126999,0 0.253999,-0.0212 0.359831,-0.0635 0.126999,-0.0635 0.232832,-0.14816 0.359831,-0.254 z"
         id="path924-5" />
      <path
         inkscape:connector-curvature="0"
         style="fill:#000000;stroke-width:0.26458332"
         d="m -56.260404,221.13401 v 2.32832 h 0.211665 c 0.275164,0 0.465663,-0.0847 0.592662,-0.27516 0.105832,-0.16934 0.169332,-0.46567 0.169332,-0.889 0,-0.42333 -0.0635,-0.71966 -0.169332,-0.88899 -0.126999,-0.16933 -0.317498,-0.27517 -0.592662,-0.27517 z m -0.698495,-0.63499 h 0.761994 c 0.592662,0 1.015992,0.14817 1.26999,0.42333 0.253999,0.27516 0.380998,0.74083 0.380998,1.37582 0,0.635 -0.126999,1.10066 -0.380998,1.37583 -0.253998,0.29633 -0.677328,0.42333 -1.26999,0.42333 h -0.761994 z"
         id="path926-0" />
      <path
         inkscape:connector-curvature="0"
         style="fill:#000000;stroke-width:0.26458332"
         d="m -52.83143,221.07052 c -0.190498,0 -0.317498,0.10583 -0.402164,0.29633 -0.08467,0.1905 -0.126999,0.50799 -0.126999,0.93132 0,0.4445 0.04233,0.74083 0.126999,0.9525 0.08467,0.19049 0.211666,0.27516 0.402164,0.27516 0.169332,0 0.317498,-0.0847 0.402164,-0.27516 0.08467,-0.21167 0.126999,-0.508 0.126999,-0.9525 0,-0.42333 -0.04233,-0.74082 -0.126999,-0.93132 -0.08467,-0.1905 -0.232832,-0.29633 -0.402164,-0.29633 z m -1.269991,1.22765 c 0,-0.61383 0.105833,-1.07949 0.317498,-1.39699 0.211665,-0.31749 0.529163,-0.46566 0.952493,-0.46566 0.423331,0 0.719662,0.14817 0.931327,0.46566 0.232831,0.3175 0.338664,0.78316 0.338664,1.39699 0,0.61383 -0.105833,1.07949 -0.338664,1.39699 -0.211665,0.3175 -0.507996,0.46567 -0.931327,0.46567 -0.42333,0 -0.740828,-0.14817 -0.952493,-0.46567 -0.211665,-0.3175 -0.317498,-0.78316 -0.317498,-1.39699 z"
         id="path928" />
    </g>
  </g>
</svg>
