<?xml version="1.0" encoding="UTF-8" standalone="no"?>
<!-- Created with Inkscape (http://www.inkscape.org/) -->

<svg
   xmlns:dc="http://purl.org/dc/elements/1.1/"
   xmlns:cc="http://creativecommons.org/ns#"
   xmlns:rdf="http://www.w3.org/1999/02/22-rdf-syntax-ns#"
   xmlns:svg="http://www.w3.org/2000/svg"
   xmlns="http://www.w3.org/2000/svg"
   xmlns:sodipodi="http://sodipodi.sourceforge.net/DTD/sodipodi-0.dtd"
   xmlns:inkscape="http://www.inkscape.org/namespaces/inkscape"
   width="150"
   height="380"
   viewBox="0 0 39.687499 100.54167"
   version="1.1"
   id="svg8"
   inkscape:version="0.92.2 (5c3e80d, 2017-08-06)"
   sodipodi:docname="TVCF.svg">
  <defs
     id="defs2" />
  <sodipodi:namedview
     id="base"
     pagecolor="#ffffff"
     bordercolor="#666666"
     borderopacity="1.0"
     inkscape:pageopacity="0.0"
     inkscape:pageshadow="2"
     inkscape:zoom="1.979899"
     inkscape:cx="-38.240058"
     inkscape:cy="211.3551"
     inkscape:document-units="mm"
     inkscape:current-layer="layer1"
     showgrid="false"
     units="px"
     inkscape:window-width="1920"
     inkscape:window-height="1033"
     inkscape:window-x="-4"
     inkscape:window-y="-4"
     inkscape:window-maximized="1" />
  <metadata
     id="metadata5">
    <rdf:RDF>
      <cc:Work
         rdf:about="">
        <dc:format>image/svg+xml</dc:format>
        <dc:type
           rdf:resource="http://purl.org/dc/dcmitype/StillImage" />
        <dc:title />
      </cc:Work>
    </rdf:RDF>
  </metadata>
  <g
     inkscape:label="Ebene 1"
     inkscape:groupmode="layer"
     id="layer1"
     transform="translate(0,-196.45832)">
    <rect
       style="opacity:1;fill:#f0f0f0;fill-opacity:1;fill-rule:nonzero;stroke:none;stroke-width:0.34999999;stroke-linecap:round;stroke-linejoin:miter;stroke-miterlimit:4;stroke-dasharray:none;stroke-dashoffset:0;stroke-opacity:1;paint-order:markers stroke fill"
       id="rect815"
       width="39.6875"
       height="100.54166"
       x="-5.3290705e-015"
       y="196.45833"
       rx="0"
       ry="0" />
    <g
       inkscape:transform-center-y="119.65244"
       inkscape:transform-center-x="-44.974764"
       id="g1358"
       transform="matrix(1.4311608,-1.4311608,1.4311608,1.4311608,-219.16922,-293.88753)"
       style="opacity:1;fill:#d6d6d6;fill-opacity:0.8">
      <g
         id="g1356"
         style="fill:#d6d6d6;fill-opacity:0.8">
        <g
           id="g1324"
           transform="translate(185.73646,-9.5250064)"
           style="fill:#d6d6d6;fill-opacity:0.8">
          <g
             transform="translate(-137.10274)"
             id="g1308"
             style="fill:#d6d6d6;fill-opacity:0.8">
            <path
               inkscape:connector-curvature="0"
               style="opacity:1;fill:#d6d6d6;fill-opacity:0.8;fill-rule:nonzero;stroke:none;stroke-width:6.9784193;stroke-linecap:round;stroke-linejoin:miter;stroke-miterlimit:4;stroke-dasharray:none;stroke-dashoffset:0;stroke-opacity:1;paint-order:markers stroke fill"
               d="m -718.94922,154.57227 c -14.32932,0.45458 -33.60356,20.71937 -31.29883,34.27148 -2.45838,14.45558 19.63622,36.55017 34.0918,34.0918 h 134.0918 v -9.0918 h -100.00196 v -25 c 2.45839,-14.4556 -19.63425,-36.54823 -34.08984,-34.08984 -0.90347,-0.15365 -1.83768,-0.21195 -2.79297,-0.18164 z m 1.00586,8.95898 c 0.63005,0.0232 1.22828,0.12471 1.78711,0.3125 8.94127,-3.00469 28.00471,16.05874 25,25 v 25 h -25 c -8.94126,3.00469 -28.00469,-16.05873 -25,-25 -2.8169,-8.38244 13.76214,-25.66117 23.21289,-25.3125 z m 26.78711,150.3125 v 9.0918 h 9.08984 v -9.0918 z"
               transform="matrix(0.26458333,0,0,0.26458333,0,196.45832)"
               id="path1296" />
            <path
               inkscape:connector-curvature="0"
               style="opacity:1;fill:#d6d6d6;fill-opacity:0.8;fill-rule:nonzero;stroke:none;stroke-width:6.9784193;stroke-linecap:round;stroke-linejoin:miter;stroke-miterlimit:4;stroke-dasharray:none;stroke-dashoffset:0;stroke-opacity:1;paint-order:markers stroke fill"
               d="m -718.55273,136.5293 c -24.81903,0.43381 -51.20004,27.62664 -49.87696,52.31445 -1.36576,25.48418 26.78925,53.63919 52.27344,52.27344 h 134.0918 v -9.0918 h -134.0918 c -19.96987,1.91207 -45.09371,-23.21177 -43.18164,-43.18164 -1.91207,-19.96987 23.21177,-45.0937 43.18164,-43.18164 19.96988,-1.91208 45.09374,23.21176 43.18164,43.18164 v 25 h 9.0918 v -25 c 1.36576,-25.4842 -26.78924,-53.63725 -52.27344,-52.27148 -0.79638,-0.0427 -1.59587,-0.057 -2.39648,-0.043 z m 45.57812,177.31445 v 9.0918 h 9.0918 v -9.0918 z"
               transform="matrix(0.26458333,0,0,0.26458333,0,196.45832)"
               id="path1298" />
            <path
               inkscape:connector-curvature="0"
               style="opacity:1;fill:#d6d6d6;fill-opacity:0.8;fill-rule:nonzero;stroke:none;stroke-width:6.9784193;stroke-linecap:round;stroke-linejoin:miter;stroke-miterlimit:4;stroke-dasharray:none;stroke-dashoffset:0;stroke-opacity:1;paint-order:markers stroke fill"
               d="m -716.15625,118.38867 c -36.51277,-0.27315 -70.72823,33.94231 -70.45508,70.45508 -0.27315,36.51277 33.94231,70.72822 70.45508,70.45508 h 134.0918 v -9.0918 h -134.0918 c -30.99848,0.81946 -62.18274,-30.3648 -61.36328,-61.36328 -0.81946,-30.99848 30.3648,-62.18273 61.36328,-61.36328 30.9985,-0.81946 62.18277,30.36478 61.36328,61.36328 v 25 h 9.0918 v -25 c 0.27315,-36.51278 -33.94229,-70.72823 -70.45508,-70.45508 z m 61.36328,195.45508 v 9.0918 h 9.0918 v -9.0918 z"
               transform="matrix(0.26458333,0,0,0.26458333,0,196.45832)"
               id="path1300" />
            <path
               inkscape:connector-curvature="0"
               style="opacity:1;fill:#d6d6d6;fill-opacity:0.8;fill-rule:nonzero;stroke:none;stroke-width:6.9784193;stroke-linecap:round;stroke-linejoin:miter;stroke-miterlimit:4;stroke-dasharray:none;stroke-dashoffset:0;stroke-opacity:1;paint-order:markers stroke fill"
               d="m -716.15625,100.20703 c -47.54138,0.81946 -87.81726,41.09534 -88.63672,88.63672 0.81946,47.54137 41.09535,87.81724 88.63672,88.63672 h 134.0918 v -9.0918 h -134.0918 v 0.002 c -42.02709,-0.27313 -79.27177,-37.51979 -79.54492,-79.54687 0.27315,-42.02708 37.51784,-79.27175 79.54492,-79.54492 42.02711,0.27315 79.2718,37.51781 79.54492,79.54492 v 25 h 9.0918 v -25 c -0.81947,-47.54138 -41.09532,-87.81726 -88.63672,-88.63672 z m 79.54492,213.63672 v 9.0918 h 9.0918 v -9.0918 z"
               transform="matrix(0.26458333,0,0,0.26458333,0,196.45832)"
               id="path1302" />
            <path
               inkscape:connector-curvature="0"
               style="opacity:1;fill:#d6d6d6;fill-opacity:0.8;fill-rule:nonzero;stroke:none;stroke-width:6.9784193;stroke-linecap:round;stroke-linejoin:miter;stroke-miterlimit:4;stroke-dasharray:none;stroke-dashoffset:0;stroke-opacity:1;paint-order:markers stroke fill"
               d="m -716.15625,82.025391 c -58.56997,1.912073 -104.90628,48.248379 -106.81836,106.818359 1.91207,58.56996 48.2484,104.90626 106.81836,106.81836 h 134.0918 v -9.08984 h -134.0918 c -53.05565,-1.36577 -96.3608,-44.67288 -97.72656,-97.72852 1.36576,-53.05564 44.67093,-96.360781 97.72656,-97.726562 53.05567,1.365765 96.36083,44.670882 97.72656,97.726562 v 25 h 9.0918 v -25 C -611.24997,130.27379 -657.58625,83.937471 -716.15625,82.025391 Z m 97.72656,231.818359 v 9.0918 h 9.0918 v -9.0918 z"
               transform="matrix(0.26458333,0,0,0.26458333,0,196.45832)"
               id="path1304" />
            <path
               inkscape:connector-curvature="0"
               style="opacity:1;fill:#d6d6d6;fill-opacity:0.8;fill-rule:nonzero;stroke:none;stroke-width:6.9784193;stroke-linecap:round;stroke-linejoin:miter;stroke-miterlimit:4;stroke-dasharray:none;stroke-dashoffset:0;stroke-opacity:1;paint-order:markers stroke fill"
               d="m -716.15625,63.84375 c -69.59855,3.004689 -121.99531,55.40145 -125,125 3.00469,69.59853 55.40147,121.99529 125,125 h 115.9082 v 9.0918 h 9.0918 v -9.0918 h 9.0918 v -9.08984 h -134.0918 c -64.08426,-2.45838 -113.45177,-51.82592 -115.91016,-115.91016 2.45839,-64.08424 51.82592,-113.449802 115.91016,-115.908203 64.08428,2.458384 113.44986,51.823903 115.9082,115.908203 v 25 h 9.0918 v -25 c -3.0047,-69.59854 -55.40142,-121.99531 -125,-125 z"
               transform="matrix(0.26458333,0,0,0.26458333,0,196.45832)"
               id="path1306" />
          </g>
          <g
             transform="rotate(90,-222.55592,213.35031)"
             id="g1322"
             style="fill:#d6d6d6;fill-opacity:0.8">
            <path
               inkscape:connector-curvature="0"
               id="path1310"
               transform="matrix(0.26458333,0,0,0.26458333,0,196.45832)"
               d="m -718.94922,154.57227 c -14.32932,0.45458 -33.60356,20.71937 -31.29883,34.27148 -2.45838,14.45558 19.63622,36.55017 34.0918,34.0918 h 134.0918 v -9.0918 h -100.00196 v -25 c 2.45839,-14.4556 -19.63425,-36.54823 -34.08984,-34.08984 -0.90347,-0.15365 -1.83768,-0.21195 -2.79297,-0.18164 z m 1.00586,8.95898 c 0.63005,0.0232 1.22828,0.12471 1.78711,0.3125 8.94127,-3.00469 28.00471,16.05874 25,25 v 25 h -25 c -8.94126,3.00469 -28.00469,-16.05873 -25,-25 -2.8169,-8.38244 13.76214,-25.66117 23.21289,-25.3125 z m 26.78711,150.3125 v 9.0918 h 9.08984 v -9.0918 z"
               style="opacity:1;fill:#d6d6d6;fill-opacity:0.8;fill-rule:nonzero;stroke:none;stroke-width:6.9784193;stroke-linecap:round;stroke-linejoin:miter;stroke-miterlimit:4;stroke-dasharray:none;stroke-dashoffset:0;stroke-opacity:1;paint-order:markers stroke fill" />
            <path
               inkscape:connector-curvature="0"
               id="path1312"
               transform="matrix(0.26458333,0,0,0.26458333,0,196.45832)"
               d="m -718.55273,136.5293 c -24.81903,0.43381 -51.20004,27.62664 -49.87696,52.31445 -1.36576,25.48418 26.78925,53.63919 52.27344,52.27344 h 134.0918 v -9.0918 h -134.0918 c -19.96987,1.91207 -45.09371,-23.21177 -43.18164,-43.18164 -1.91207,-19.96987 23.21177,-45.0937 43.18164,-43.18164 19.96988,-1.91208 45.09374,23.21176 43.18164,43.18164 v 25 h 9.0918 v -25 c 1.36576,-25.4842 -26.78924,-53.63725 -52.27344,-52.27148 -0.79638,-0.0427 -1.59587,-0.057 -2.39648,-0.043 z m 45.57812,177.31445 v 9.0918 h 9.0918 v -9.0918 z"
               style="opacity:1;fill:#d6d6d6;fill-opacity:0.8;fill-rule:nonzero;stroke:none;stroke-width:6.9784193;stroke-linecap:round;stroke-linejoin:miter;stroke-miterlimit:4;stroke-dasharray:none;stroke-dashoffset:0;stroke-opacity:1;paint-order:markers stroke fill" />
            <path
               inkscape:connector-curvature="0"
               id="path1314"
               transform="matrix(0.26458333,0,0,0.26458333,0,196.45832)"
               d="m -716.15625,118.38867 c -36.51277,-0.27315 -70.72823,33.94231 -70.45508,70.45508 -0.27315,36.51277 33.94231,70.72822 70.45508,70.45508 h 134.0918 v -9.0918 h -134.0918 c -30.99848,0.81946 -62.18274,-30.3648 -61.36328,-61.36328 -0.81946,-30.99848 30.3648,-62.18273 61.36328,-61.36328 30.9985,-0.81946 62.18277,30.36478 61.36328,61.36328 v 25 h 9.0918 v -25 c 0.27315,-36.51278 -33.94229,-70.72823 -70.45508,-70.45508 z m 61.36328,195.45508 v 9.0918 h 9.0918 v -9.0918 z"
               style="opacity:1;fill:#d6d6d6;fill-opacity:0.8;fill-rule:nonzero;stroke:none;stroke-width:6.9784193;stroke-linecap:round;stroke-linejoin:miter;stroke-miterlimit:4;stroke-dasharray:none;stroke-dashoffset:0;stroke-opacity:1;paint-order:markers stroke fill" />
            <path
               inkscape:connector-curvature="0"
               id="path1316"
               transform="matrix(0.26458333,0,0,0.26458333,0,196.45832)"
               d="m -716.15625,100.20703 c -47.54138,0.81946 -87.81726,41.09534 -88.63672,88.63672 0.81946,47.54137 41.09535,87.81724 88.63672,88.63672 h 134.0918 v -9.0918 h -134.0918 v 0.002 c -42.02709,-0.27313 -79.27177,-37.51979 -79.54492,-79.54687 0.27315,-42.02708 37.51784,-79.27175 79.54492,-79.54492 42.02711,0.27315 79.2718,37.51781 79.54492,79.54492 v 25 h 9.0918 v -25 c -0.81947,-47.54138 -41.09532,-87.81726 -88.63672,-88.63672 z m 79.54492,213.63672 v 9.0918 h 9.0918 v -9.0918 z"
               style="opacity:1;fill:#d6d6d6;fill-opacity:0.8;fill-rule:nonzero;stroke:none;stroke-width:6.9784193;stroke-linecap:round;stroke-linejoin:miter;stroke-miterlimit:4;stroke-dasharray:none;stroke-dashoffset:0;stroke-opacity:1;paint-order:markers stroke fill" />
            <path
               inkscape:connector-curvature="0"
               id="path1318"
               transform="matrix(0.26458333,0,0,0.26458333,0,196.45832)"
               d="m -716.15625,82.025391 c -58.56997,1.912073 -104.90628,48.248379 -106.81836,106.818359 1.91207,58.56996 48.2484,104.90626 106.81836,106.81836 h 134.0918 v -9.08984 h -134.0918 c -53.05565,-1.36577 -96.3608,-44.67288 -97.72656,-97.72852 1.36576,-53.05564 44.67093,-96.360781 97.72656,-97.726562 53.05567,1.365765 96.36083,44.670882 97.72656,97.726562 v 25 h 9.0918 v -25 C -611.24997,130.27379 -657.58625,83.937471 -716.15625,82.025391 Z m 97.72656,231.818359 v 9.0918 h 9.0918 v -9.0918 z"
               style="opacity:1;fill:#d6d6d6;fill-opacity:0.8;fill-rule:nonzero;stroke:none;stroke-width:6.9784193;stroke-linecap:round;stroke-linejoin:miter;stroke-miterlimit:4;stroke-dasharray:none;stroke-dashoffset:0;stroke-opacity:1;paint-order:markers stroke fill" />
            <path
               inkscape:connector-curvature="0"
               id="path1320"
               transform="matrix(0.26458333,0,0,0.26458333,0,196.45832)"
               d="m -716.15625,63.84375 c -69.59855,3.004689 -121.99531,55.40145 -125,125 3.00469,69.59853 55.40147,121.99529 125,125 h 115.9082 v 9.0918 h 9.0918 v -9.0918 h 9.0918 v -9.08984 h -134.0918 c -64.08426,-2.45838 -113.45177,-51.82592 -115.91016,-115.91016 2.45839,-64.08424 51.82592,-113.449802 115.91016,-115.908203 64.08428,2.458384 113.44986,51.823903 115.9082,115.908203 v 25 h 9.0918 v -25 c -3.0047,-69.59854 -55.40142,-121.99531 -125,-125 z"
               style="opacity:1;fill:#d6d6d6;fill-opacity:0.8;fill-rule:nonzero;stroke:none;stroke-width:6.9784193;stroke-linecap:round;stroke-linejoin:miter;stroke-miterlimit:4;stroke-dasharray:none;stroke-dashoffset:0;stroke-opacity:1;paint-order:markers stroke fill" />
          </g>
        </g>
        <g
           transform="rotate(-180,-198.23854,277.13918)"
           id="g1354"
           style="fill:#d6d6d6;fill-opacity:0.8">
          <g
             id="g1338"
             transform="translate(-137.10274)"
             style="fill:#d6d6d6;fill-opacity:0.8">
            <path
               id="path1326"
               transform="matrix(0.26458333,0,0,0.26458333,0,196.45832)"
               d="m -718.94922,154.57227 c -14.32932,0.45458 -33.60356,20.71937 -31.29883,34.27148 -2.45838,14.45558 19.63622,36.55017 34.0918,34.0918 h 134.0918 v -9.0918 h -100.00196 v -25 c 2.45839,-14.4556 -19.63425,-36.54823 -34.08984,-34.08984 -0.90347,-0.15365 -1.83768,-0.21195 -2.79297,-0.18164 z m 1.00586,8.95898 c 0.63005,0.0232 1.22828,0.12471 1.78711,0.3125 8.94127,-3.00469 28.00471,16.05874 25,25 v 25 h -25 c -8.94126,3.00469 -28.00469,-16.05873 -25,-25 -2.8169,-8.38244 13.76214,-25.66117 23.21289,-25.3125 z m 26.78711,150.3125 v 9.0918 h 9.08984 v -9.0918 z"
               style="opacity:1;fill:#d6d6d6;fill-opacity:0.8;fill-rule:nonzero;stroke:none;stroke-width:6.9784193;stroke-linecap:round;stroke-linejoin:miter;stroke-miterlimit:4;stroke-dasharray:none;stroke-dashoffset:0;stroke-opacity:1;paint-order:markers stroke fill"
               inkscape:connector-curvature="0" />
            <path
               id="path1328"
               transform="matrix(0.26458333,0,0,0.26458333,0,196.45832)"
               d="m -718.55273,136.5293 c -24.81903,0.43381 -51.20004,27.62664 -49.87696,52.31445 -1.36576,25.48418 26.78925,53.63919 52.27344,52.27344 h 134.0918 v -9.0918 h -134.0918 c -19.96987,1.91207 -45.09371,-23.21177 -43.18164,-43.18164 -1.91207,-19.96987 23.21177,-45.0937 43.18164,-43.18164 19.96988,-1.91208 45.09374,23.21176 43.18164,43.18164 v 25 h 9.0918 v -25 c 1.36576,-25.4842 -26.78924,-53.63725 -52.27344,-52.27148 -0.79638,-0.0427 -1.59587,-0.057 -2.39648,-0.043 z m 45.57812,177.31445 v 9.0918 h 9.0918 v -9.0918 z"
               style="opacity:1;fill:#d6d6d6;fill-opacity:0.8;fill-rule:nonzero;stroke:none;stroke-width:6.9784193;stroke-linecap:round;stroke-linejoin:miter;stroke-miterlimit:4;stroke-dasharray:none;stroke-dashoffset:0;stroke-opacity:1;paint-order:markers stroke fill"
               inkscape:connector-curvature="0" />
            <path
               id="path1330"
               transform="matrix(0.26458333,0,0,0.26458333,0,196.45832)"
               d="m -716.15625,118.38867 c -36.51277,-0.27315 -70.72823,33.94231 -70.45508,70.45508 -0.27315,36.51277 33.94231,70.72822 70.45508,70.45508 h 134.0918 v -9.0918 h -134.0918 c -30.99848,0.81946 -62.18274,-30.3648 -61.36328,-61.36328 -0.81946,-30.99848 30.3648,-62.18273 61.36328,-61.36328 30.9985,-0.81946 62.18277,30.36478 61.36328,61.36328 v 25 h 9.0918 v -25 c 0.27315,-36.51278 -33.94229,-70.72823 -70.45508,-70.45508 z m 61.36328,195.45508 v 9.0918 h 9.0918 v -9.0918 z"
               style="opacity:1;fill:#d6d6d6;fill-opacity:0.8;fill-rule:nonzero;stroke:none;stroke-width:6.9784193;stroke-linecap:round;stroke-linejoin:miter;stroke-miterlimit:4;stroke-dasharray:none;stroke-dashoffset:0;stroke-opacity:1;paint-order:markers stroke fill"
               inkscape:connector-curvature="0" />
            <path
               id="path1332"
               transform="matrix(0.26458333,0,0,0.26458333,0,196.45832)"
               d="m -716.15625,100.20703 c -47.54138,0.81946 -87.81726,41.09534 -88.63672,88.63672 0.81946,47.54137 41.09535,87.81724 88.63672,88.63672 h 134.0918 v -9.0918 h -134.0918 v 0.002 c -42.02709,-0.27313 -79.27177,-37.51979 -79.54492,-79.54687 0.27315,-42.02708 37.51784,-79.27175 79.54492,-79.54492 42.02711,0.27315 79.2718,37.51781 79.54492,79.54492 v 25 h 9.0918 v -25 c -0.81947,-47.54138 -41.09532,-87.81726 -88.63672,-88.63672 z m 79.54492,213.63672 v 9.0918 h 9.0918 v -9.0918 z"
               style="opacity:1;fill:#d6d6d6;fill-opacity:0.8;fill-rule:nonzero;stroke:none;stroke-width:6.9784193;stroke-linecap:round;stroke-linejoin:miter;stroke-miterlimit:4;stroke-dasharray:none;stroke-dashoffset:0;stroke-opacity:1;paint-order:markers stroke fill"
               inkscape:connector-curvature="0" />
            <path
               id="path1334"
               transform="matrix(0.26458333,0,0,0.26458333,0,196.45832)"
               d="m -716.15625,82.025391 c -58.56997,1.912073 -104.90628,48.248379 -106.81836,106.818359 1.91207,58.56996 48.2484,104.90626 106.81836,106.81836 h 134.0918 v -9.08984 h -134.0918 c -53.05565,-1.36577 -96.3608,-44.67288 -97.72656,-97.72852 1.36576,-53.05564 44.67093,-96.360781 97.72656,-97.726562 53.05567,1.365765 96.36083,44.670882 97.72656,97.726562 v 25 h 9.0918 v -25 C -611.24997,130.27379 -657.58625,83.937471 -716.15625,82.025391 Z m 97.72656,231.818359 v 9.0918 h 9.0918 v -9.0918 z"
               style="opacity:1;fill:#d6d6d6;fill-opacity:0.8;fill-rule:nonzero;stroke:none;stroke-width:6.9784193;stroke-linecap:round;stroke-linejoin:miter;stroke-miterlimit:4;stroke-dasharray:none;stroke-dashoffset:0;stroke-opacity:1;paint-order:markers stroke fill"
               inkscape:connector-curvature="0" />
            <path
               id="path1336"
               transform="matrix(0.26458333,0,0,0.26458333,0,196.45832)"
               d="m -716.15625,63.84375 c -69.59855,3.004689 -121.99531,55.40145 -125,125 3.00469,69.59853 55.40147,121.99529 125,125 h 115.9082 v 9.0918 h 9.0918 v -9.0918 h 9.0918 v -9.08984 h -134.0918 c -64.08426,-2.45838 -113.45177,-51.82592 -115.91016,-115.91016 2.45839,-64.08424 51.82592,-113.449802 115.91016,-115.908203 64.08428,2.458384 113.44986,51.823903 115.9082,115.908203 v 25 h 9.0918 v -25 c -3.0047,-69.59854 -55.40142,-121.99531 -125,-125 z"
               style="opacity:1;fill:#d6d6d6;fill-opacity:0.8;fill-rule:nonzero;stroke:none;stroke-width:6.9784193;stroke-linecap:round;stroke-linejoin:miter;stroke-miterlimit:4;stroke-dasharray:none;stroke-dashoffset:0;stroke-opacity:1;paint-order:markers stroke fill"
               inkscape:connector-curvature="0" />
          </g>
          <g
             id="g1352"
             transform="rotate(90,-222.55592,213.35031)"
             style="fill:#d6d6d6;fill-opacity:0.8">
            <path
               style="opacity:1;fill:#d6d6d6;fill-opacity:0.8;fill-rule:nonzero;stroke:none;stroke-width:6.9784193;stroke-linecap:round;stroke-linejoin:miter;stroke-miterlimit:4;stroke-dasharray:none;stroke-dashoffset:0;stroke-opacity:1;paint-order:markers stroke fill"
               d="m -718.94922,154.57227 c -14.32932,0.45458 -33.60356,20.71937 -31.29883,34.27148 -2.45838,14.45558 19.63622,36.55017 34.0918,34.0918 h 134.0918 v -9.0918 h -100.00196 v -25 c 2.45839,-14.4556 -19.63425,-36.54823 -34.08984,-34.08984 -0.90347,-0.15365 -1.83768,-0.21195 -2.79297,-0.18164 z m 1.00586,8.95898 c 0.63005,0.0232 1.22828,0.12471 1.78711,0.3125 8.94127,-3.00469 28.00471,16.05874 25,25 v 25 h -25 c -8.94126,3.00469 -28.00469,-16.05873 -25,-25 -2.8169,-8.38244 13.76214,-25.66117 23.21289,-25.3125 z m 26.78711,150.3125 v 9.0918 h 9.08984 v -9.0918 z"
               transform="matrix(0.26458333,0,0,0.26458333,0,196.45832)"
               id="path1340"
               inkscape:connector-curvature="0" />
            <path
               style="opacity:1;fill:#d6d6d6;fill-opacity:0.8;fill-rule:nonzero;stroke:none;stroke-width:6.9784193;stroke-linecap:round;stroke-linejoin:miter;stroke-miterlimit:4;stroke-dasharray:none;stroke-dashoffset:0;stroke-opacity:1;paint-order:markers stroke fill"
               d="m -718.55273,136.5293 c -24.81903,0.43381 -51.20004,27.62664 -49.87696,52.31445 -1.36576,25.48418 26.78925,53.63919 52.27344,52.27344 h 134.0918 v -9.0918 h -134.0918 c -19.96987,1.91207 -45.09371,-23.21177 -43.18164,-43.18164 -1.91207,-19.96987 23.21177,-45.0937 43.18164,-43.18164 19.96988,-1.91208 45.09374,23.21176 43.18164,43.18164 v 25 h 9.0918 v -25 c 1.36576,-25.4842 -26.78924,-53.63725 -52.27344,-52.27148 -0.79638,-0.0427 -1.59587,-0.057 -2.39648,-0.043 z m 45.57812,177.31445 v 9.0918 h 9.0918 v -9.0918 z"
               transform="matrix(0.26458333,0,0,0.26458333,0,196.45832)"
               id="path1342"
               inkscape:connector-curvature="0" />
            <path
               style="opacity:1;fill:#d6d6d6;fill-opacity:0.8;fill-rule:nonzero;stroke:none;stroke-width:6.9784193;stroke-linecap:round;stroke-linejoin:miter;stroke-miterlimit:4;stroke-dasharray:none;stroke-dashoffset:0;stroke-opacity:1;paint-order:markers stroke fill"
               d="m -716.15625,118.38867 c -36.51277,-0.27315 -70.72823,33.94231 -70.45508,70.45508 -0.27315,36.51277 33.94231,70.72822 70.45508,70.45508 h 134.0918 v -9.0918 h -134.0918 c -30.99848,0.81946 -62.18274,-30.3648 -61.36328,-61.36328 -0.81946,-30.99848 30.3648,-62.18273 61.36328,-61.36328 30.9985,-0.81946 62.18277,30.36478 61.36328,61.36328 v 25 h 9.0918 v -25 c 0.27315,-36.51278 -33.94229,-70.72823 -70.45508,-70.45508 z m 61.36328,195.45508 v 9.0918 h 9.0918 v -9.0918 z"
               transform="matrix(0.26458333,0,0,0.26458333,0,196.45832)"
               id="path1344"
               inkscape:connector-curvature="0" />
            <path
               style="opacity:1;fill:#d6d6d6;fill-opacity:0.8;fill-rule:nonzero;stroke:none;stroke-width:6.9784193;stroke-linecap:round;stroke-linejoin:miter;stroke-miterlimit:4;stroke-dasharray:none;stroke-dashoffset:0;stroke-opacity:1;paint-order:markers stroke fill"
               d="m -716.15625,100.20703 c -47.54138,0.81946 -87.81726,41.09534 -88.63672,88.63672 0.81946,47.54137 41.09535,87.81724 88.63672,88.63672 h 134.0918 v -9.0918 h -134.0918 v 0.002 c -42.02709,-0.27313 -79.27177,-37.51979 -79.54492,-79.54687 0.27315,-42.02708 37.51784,-79.27175 79.54492,-79.54492 42.02711,0.27315 79.2718,37.51781 79.54492,79.54492 v 25 h 9.0918 v -25 c -0.81947,-47.54138 -41.09532,-87.81726 -88.63672,-88.63672 z m 79.54492,213.63672 v 9.0918 h 9.0918 v -9.0918 z"
               transform="matrix(0.26458333,0,0,0.26458333,0,196.45832)"
               id="path1346"
               inkscape:connector-curvature="0" />
            <path
               style="opacity:1;fill:#d6d6d6;fill-opacity:0.8;fill-rule:nonzero;stroke:none;stroke-width:6.9784193;stroke-linecap:round;stroke-linejoin:miter;stroke-miterlimit:4;stroke-dasharray:none;stroke-dashoffset:0;stroke-opacity:1;paint-order:markers stroke fill"
               d="m -716.15625,82.025391 c -58.56997,1.912073 -104.90628,48.248379 -106.81836,106.818359 1.91207,58.56996 48.2484,104.90626 106.81836,106.81836 h 134.0918 v -9.08984 h -134.0918 c -53.05565,-1.36577 -96.3608,-44.67288 -97.72656,-97.72852 1.36576,-53.05564 44.67093,-96.360781 97.72656,-97.726562 53.05567,1.365765 96.36083,44.670882 97.72656,97.726562 v 25 h 9.0918 v -25 C -611.24997,130.27379 -657.58625,83.937471 -716.15625,82.025391 Z m 97.72656,231.818359 v 9.0918 h 9.0918 v -9.0918 z"
               transform="matrix(0.26458333,0,0,0.26458333,0,196.45832)"
               id="path1348"
               inkscape:connector-curvature="0" />
            <path
               style="opacity:1;fill:#d6d6d6;fill-opacity:0.8;fill-rule:nonzero;stroke:none;stroke-width:6.9784193;stroke-linecap:round;stroke-linejoin:miter;stroke-miterlimit:4;stroke-dasharray:none;stroke-dashoffset:0;stroke-opacity:1;paint-order:markers stroke fill"
               d="m -716.15625,63.84375 c -69.59855,3.004689 -121.99531,55.40145 -125,125 3.00469,69.59853 55.40147,121.99529 125,125 h 115.9082 v 9.0918 h 9.0918 v -9.0918 h 9.0918 v -9.08984 h -134.0918 c -64.08426,-2.45838 -113.45177,-51.82592 -115.91016,-115.91016 2.45839,-64.08424 51.82592,-113.449802 115.91016,-115.908203 64.08428,2.458384 113.44986,51.823903 115.9082,115.908203 v 25 h 9.0918 v -25 c -3.0047,-69.59854 -55.40142,-121.99531 -125,-125 z"
               transform="matrix(0.26458333,0,0,0.26458333,0,196.45832)"
               id="path1350"
               inkscape:connector-curvature="0" />
          </g>
        </g>
      </g>
    </g>
    <g
       aria-label="OUT"
       style="font-style:normal;font-variant:normal;font-weight:normal;font-stretch:normal;font-size:2.46944451px;line-height:1.25;font-family:'DejaVu Sans Mono';-inkscape-font-specification:'DejaVu Sans Mono';letter-spacing:0px;word-spacing:0px;fill:#000000;fill-opacity:1;stroke:none;stroke-width:0.26458332"
       id="text1114"
       transform="translate(67.521327,3.59346)">
      <path
         d="m -35.005488,287.40821 q 0,-0.3967 -0.08199,-0.56672 -0.08079,-0.17001 -0.266478,-0.17001 -0.184485,0 -0.266478,0.17001 -0.08079,0.17002 -0.08079,0.56672 0,0.3955 0.08079,0.56551 0.08199,0.17002 0.266478,0.17002 0.185691,0 0.266478,-0.16881 0.08199,-0.17002 0.08199,-0.56672 z m 0.254421,0 q 0,0.47026 -0.149517,0.70177 -0.148312,0.23151 -0.453375,0.23151 -0.305063,0 -0.453375,-0.23031 -0.148311,-0.2303 -0.148311,-0.70297 0,-0.47146 0.148311,-0.70297 0.149518,-0.23151 0.453375,-0.23151 0.305063,0 0.453375,0.23151 0.149517,0.23151 0.149517,0.70297 z"
         style="fill:#000000;fill-opacity:1;stroke-width:0.26458332"
         id="path1128"
         inkscape:connector-curvature="0" />
      <path
         d="m -34.433946,287.6156 v -1.10932 h 0.244774 v 1.22026 q 0,0.13143 0.0072,0.1881 0.0072,0.0555 0.02532,0.0856 0.03858,0.0711 0.110932,0.10731 0.07355,0.0362 0.17725,0.0362 0.104903,0 0.17725,-0.0362 0.07235,-0.0362 0.112138,-0.10731 0.01809,-0.0301 0.02532,-0.0856 0.0072,-0.0555 0.0072,-0.18569 v -1.22267 h 0.243569 v 1.10932 q 0,0.27613 -0.03497,0.39309 -0.03376,0.11576 -0.118167,0.19172 -0.07958,0.0711 -0.182073,0.10611 -0.102492,0.035 -0.230305,0.035 -0.126607,0 -0.229099,-0.035 -0.102491,-0.035 -0.183279,-0.10611 -0.0832,-0.0748 -0.118167,-0.19293 -0.03497,-0.11937 -0.03497,-0.39188 z"
         style="fill:#000000;fill-opacity:1;stroke-width:0.26458332"
         id="path1130"
         inkscape:connector-curvature="0" />
      <path
         d="m -33.068999,286.50628 h 1.373387 v 0.20499 h -0.563101 v 1.59525 h -0.244774 v -1.59525 h -0.565512 z"
         style="fill:#000000;fill-opacity:1;stroke-width:0.26458332"
         id="path1132"
         inkscape:connector-curvature="0" />
    </g>
    <g
       aria-label="PEAK A"
       style="font-style:normal;font-variant:normal;font-weight:normal;font-stretch:normal;font-size:2.46944451px;line-height:1.25;font-family:'DejaVu Sans Mono';-inkscape-font-specification:'DejaVu Sans Mono';letter-spacing:0px;word-spacing:0px;fill:#000000;fill-opacity:1;stroke:none;stroke-width:0.26458332"
       id="text860"
       transform="translate(51.83796,2.6458334)">
      <path
         inkscape:connector-curvature="0"
         d="m -45.489252,216.42176 v 0.67645 h 0.282153 q 0.16881,0 0.262861,-0.0892 0.09526,-0.0892 0.09526,-0.2496 0,-0.16037 -0.09405,-0.24839 -0.09405,-0.0892 -0.264067,-0.0892 z m -0.243568,-0.20016 h 0.525721 q 0.301446,0 0.456992,0.13746 0.155546,0.13625 0.155546,0.40032 0,0.26648 -0.155546,0.40273 -0.15434,0.13626 -0.456992,0.13626 h -0.282153 v 0.72347 h -0.243568 z"
         style="stroke-width:0.26458332"
         id="path962" />
      <path
         inkscape:connector-curvature="0"
         d="m -44.247295,216.2216 h 1.068324 v 0.20498 h -0.824756 v 0.53296 h 0.788582 v 0.20498 h -0.788582 v 0.65233 h 0.847666 v 0.20499 h -1.091234 z"
         style="stroke-width:0.26458332"
         id="path964" />
      <path
         inkscape:connector-curvature="0"
         d="m -42.256547,216.43623 -0.256832,0.92122 h 0.513664 z m -0.147105,-0.21463 h 0.295417 l 0.551043,1.80024 h -0.252009 l -0.132636,-0.46905 h -0.630625 l -0.130225,0.46905 h -0.252008 z"
         style="stroke-width:0.26458332"
         id="path966" />
      <path
         inkscape:connector-curvature="0"
         d="m -41.348592,216.2216 h 0.244774 v 0.80064 l 0.76085,-0.80064 h 0.28577 l -0.70056,0.73553 0.721059,1.06471 h -0.294211 l -0.587217,-0.90193 -0.185691,0.19775 v 0.70418 h -0.244774 z"
         style="stroke-width:0.26458332"
         id="path968" />
      <path
         inkscape:connector-curvature="0"
         d="m -37.799971,216.43623 -0.256832,0.92122 h 0.513664 z m -0.147106,-0.21463 h 0.295417 l 0.551043,1.80024 h -0.252008 l -0.132637,-0.46905 h -0.630624 l -0.130225,0.46905 h -0.252009 z"
         style="stroke-width:0.26458332"
         id="path970" />
    </g>
    <g
       aria-label="PEAK B"
       style="font-style:normal;font-variant:normal;font-weight:normal;font-stretch:normal;font-size:2.46944451px;line-height:1.25;font-family:'DejaVu Sans Mono';-inkscape-font-specification:'DejaVu Sans Mono';letter-spacing:0px;word-spacing:0px;fill:#000000;fill-opacity:1;stroke:none;stroke-width:0.26458332"
       id="text864"
       transform="translate(50.250459,2.6458334)">
      <path
         inkscape:connector-curvature="0"
         d="m -24.322584,216.42176 v 0.67645 h 0.282153 q 0.16881,0 0.262861,-0.0892 0.09526,-0.0892 0.09526,-0.2496 0,-0.16037 -0.09405,-0.24839 -0.09405,-0.0892 -0.264067,-0.0892 z m -0.243569,-0.20016 h 0.525722 q 0.301446,0 0.456992,0.13746 0.155546,0.13625 0.155546,0.40032 0,0.26648 -0.155546,0.40273 -0.15434,0.13626 -0.456992,0.13626 h -0.282153 v 0.72347 h -0.243569 z"
         style="stroke-width:0.26458332"
         id="path895" />
      <path
         inkscape:connector-curvature="0"
         d="m -23.080627,216.2216 h 1.068324 v 0.20498 h -0.824756 v 0.53296 h 0.788582 v 0.20498 h -0.788582 v 0.65233 h 0.847666 v 0.20499 h -1.091234 z"
         style="stroke-width:0.26458332"
         id="path897" />
      <path
         inkscape:connector-curvature="0"
         d="m -21.089879,216.43623 -0.256832,0.92122 h 0.513664 z m -0.147105,-0.21463 h 0.295417 l 0.551043,1.80024 h -0.252009 l -0.132636,-0.46905 h -0.630625 l -0.130225,0.46905 h -0.252008 z"
         style="stroke-width:0.26458332"
         id="path899" />
      <path
         inkscape:connector-curvature="0"
         d="m -20.181924,216.2216 h 0.244774 v 0.80064 l 0.76085,-0.80064 h 0.28577 l -0.70056,0.73553 0.721059,1.06471 h -0.294211 l -0.587217,-0.90193 -0.185691,0.19775 v 0.70418 h -0.244774 z"
         style="stroke-width:0.26458332"
         id="path901" />
      <path
         inkscape:connector-curvature="0"
         d="m -16.931132,217.16211 v 0.65957 h 0.288183 q 0.212217,0 0.302651,-0.0736 0.09043,-0.0748 0.09043,-0.24477 0,-0.17605 -0.09526,-0.25804 -0.09526,-0.0832 -0.297828,-0.0832 z m 0,-0.74035 v 0.5426 h 0.283359 q 0.176045,0 0.254421,-0.0675 0.07958,-0.0675 0.07958,-0.21825 0,-0.13625 -0.07838,-0.19654 -0.07717,-0.0603 -0.255627,-0.0603 z m -0.244774,-0.20016 h 0.532957 q 0.276124,0 0.425641,0.11937 0.149517,0.11938 0.149517,0.33762 0,0.16519 -0.07958,0.26045 -0.07838,0.0953 -0.236334,0.11937 0.17725,0.0265 0.27733,0.15193 0.101286,0.1242 0.101286,0.31712 0,0.24478 -0.160369,0.37018 -0.160369,0.1242 -0.47749,0.1242 h -0.532957 z"
         style="stroke-width:0.26458332"
         id="path903" />
    </g>
    <g
       aria-label="PING"
       style="font-style:normal;font-variant:normal;font-weight:normal;font-stretch:normal;font-size:2.46944451px;line-height:1.25;font-family:'DejaVu Sans Mono';-inkscape-font-specification:'DejaVu Sans Mono';letter-spacing:0px;word-spacing:0px;fill:#000000;fill-opacity:1;stroke:none;stroke-width:0.26458332"
       id="text880"
       transform="translate(51.755881,13.758334)">
      <path
         inkscape:connector-curvature="0"
         d="m -24.322584,237.58845 v 0.67644 h 0.282153 q 0.16881,0 0.262861,-0.0892 0.09526,-0.0892 0.09526,-0.24959 0,-0.16037 -0.09405,-0.24839 -0.09405,-0.0892 -0.264067,-0.0892 z m -0.243569,-0.20016 h 0.525722 q 0.301446,0 0.456992,0.13746 0.155546,0.13625 0.155546,0.40032 0,0.26648 -0.155546,0.40273 -0.15434,0.13625 -0.456992,0.13625 h -0.282153 v 0.72347 h -0.243569 z"
         style="stroke-width:0.26458332"
         id="path915" />
      <path
         inkscape:connector-curvature="0"
         d="m -23.075804,237.38829 h 0.999594 v 0.20498 h -0.37741 v 1.39027 h 0.37741 v 0.20498 h -0.999594 v -0.20498 h 0.37741 v -1.39027 h -0.37741 z"
         style="stroke-width:0.26458332"
         id="path917" />
      <path
         inkscape:connector-curvature="0"
         d="m -21.665037,237.38829 h 0.30868 l 0.607715,1.48191 v -1.48191 h 0.235128 v 1.80023 h -0.308681 l -0.607715,-1.48191 v 1.48191 h -0.235127 z"
         style="stroke-width:0.26458332"
         id="path919" />
      <path
         inkscape:connector-curvature="0"
         d="m -19.015931,239.04021 q -0.09767,0.0904 -0.220658,0.13746 -0.121785,0.0458 -0.264067,0.0458 -0.342443,0 -0.532956,-0.24477 -0.190514,-0.24598 -0.190514,-0.68851 0,-0.44131 0.192925,-0.68729 0.192926,-0.24719 0.536574,-0.24719 0.113344,0 0.217041,0.0326 0.103697,0.0313 0.20016,0.0965 v 0.2496 q -0.09767,-0.0928 -0.20016,-0.13626 -0.102492,-0.0446 -0.217041,-0.0446 -0.237539,0 -0.356912,0.18448 -0.118167,0.18328 -0.118167,0.55225 0,0.375 0.11455,0.55587 0.115755,0.17966 0.3545,0.17966 0.08079,0 0.141077,-0.0181 0.0615,-0.0193 0.110932,-0.0591 v -0.48352 h -0.261655 v -0.20016 h 0.494371 z"
         style="stroke-width:0.26458332"
         id="path921" />
    </g>
    <g
       id="g1098"
       transform="translate(0.529167,-1.0583333)">
      <g
         transform="translate(48.471129,19.05)"
         id="text884"
         style="font-style:normal;font-variant:normal;font-weight:normal;font-stretch:normal;font-size:2.46944451px;line-height:1.25;font-family:'DejaVu Sans Mono';-inkscape-font-specification:'DejaVu Sans Mono';letter-spacing:0px;word-spacing:0px;fill:#000000;fill-opacity:1;stroke:none;stroke-width:0.26458332"
         aria-label="LP">
        <path
           id="path933"
           style="stroke-width:0.26458332"
           d="m -45.711116,247.97163 h 0.244774 v 1.59525 h 0.86937 v 0.20499 h -1.114144 z"
           inkscape:connector-curvature="0" />
        <path
           id="path935"
           style="stroke-width:0.26458332"
           d="m -44.003727,248.17179 v 0.67645 h 0.282153 q 0.16881,0 0.262861,-0.0892 0.09526,-0.0892 0.09526,-0.2496 0,-0.16037 -0.09405,-0.24839 -0.09405,-0.0892 -0.264067,-0.0892 z m -0.243568,-0.20016 h 0.525721 q 0.301446,0 0.456992,0.13746 0.155546,0.13625 0.155546,0.40032 0,0.26648 -0.155546,0.40273 -0.15434,0.13626 -0.456992,0.13626 h -0.282153 v 0.72347 h -0.243568 z"
           inkscape:connector-curvature="0" />
      </g>
      <g
         transform="translate(-3.36683,-4.2333335)"
         aria-label="BP"
         style="font-style:normal;font-variant:normal;font-weight:normal;font-stretch:normal;font-size:2.46944451px;line-height:1.25;font-family:'DejaVu Sans Mono';-inkscape-font-specification:'DejaVu Sans Mono';letter-spacing:0px;word-spacing:0px;fill:#000000;fill-opacity:1;stroke:none;stroke-width:0.26458332"
         id="text893">
        <path
           d="m 17.974576,272.19542 v 0.65957 h 0.288182 q 0.212218,0 0.302652,-0.0736 0.09043,-0.0748 0.09043,-0.24477 0,-0.17605 -0.09526,-0.25804 -0.09526,-0.0832 -0.297829,-0.0832 z m 0,-0.74035 v 0.5426 h 0.283359 q 0.176045,0 0.254421,-0.0675 0.07958,-0.0675 0.07958,-0.21825 0,-0.13625 -0.07838,-0.19654 -0.07717,-0.0603 -0.255626,-0.0603 z m -0.244774,-0.20016 h 0.532956 q 0.276125,0 0.425642,0.11937 0.149517,0.11938 0.149517,0.33762 0,0.16519 -0.07958,0.26045 -0.07837,0.0953 -0.236333,0.11937 0.17725,0.0265 0.27733,0.15193 0.101286,0.1242 0.101286,0.31712 0,0.24478 -0.160369,0.37018 -0.16037,0.1242 -0.477491,0.1242 h -0.532956 z"
           style="stroke-width:0.26458332"
           id="path1081"
           inkscape:connector-curvature="0" />
        <path
           d="m 19.496275,271.45507 v 0.67645 h 0.282153 q 0.16881,0 0.262861,-0.0892 0.09526,-0.0892 0.09526,-0.2496 0,-0.16037 -0.09405,-0.24839 -0.09405,-0.0892 -0.264067,-0.0892 z m -0.243568,-0.20016 h 0.525721 q 0.301446,0 0.456992,0.13746 0.155546,0.13625 0.155546,0.40032 0,0.26648 -0.155546,0.40273 -0.15434,0.13626 -0.456992,0.13626 h -0.282153 v 0.72347 h -0.243568 z"
           style="stroke-width:0.26458332"
           id="path1083"
           inkscape:connector-curvature="0" />
      </g>
    </g>
    <g
       aria-label="CV D"
       style="font-style:normal;font-variant:normal;font-weight:normal;font-stretch:normal;font-size:2.46944451px;line-height:1.25;font-family:'DejaVu Sans Mono';-inkscape-font-specification:'DejaVu Sans Mono';letter-spacing:0px;word-spacing:0px;fill:#000000;fill-opacity:1;stroke:none;stroke-width:0.26458332"
       id="text1102"
       transform="translate(69.562963,2.1720197)">
      <path
         d="m -55.969588,277.6593 q -0.09284,0.0494 -0.190514,0.0736 -0.09767,0.0253 -0.207394,0.0253 -0.34606,0 -0.53778,-0.24477 -0.190514,-0.24477 -0.190514,-0.6885 0,-0.44132 0.19172,-0.6873 0.192925,-0.24719 0.536574,-0.24719 0.109726,0 0.207394,0.0253 0.09767,0.0241 0.190514,0.0735 v 0.2496 q -0.08923,-0.0736 -0.191719,-0.11214 -0.102492,-0.0386 -0.206189,-0.0386 -0.23754,0 -0.355706,0.18328 -0.118167,0.18328 -0.118167,0.55346 0,0.36897 0.118167,0.55225 0.118166,0.18327 0.355706,0.18327 0.106109,0 0.207394,-0.0386 0.102492,-0.0386 0.190514,-0.11214 z"
         style="stroke-width:0.26458332"
         id="path1149"
         inkscape:connector-curvature="0" />
      <path
         d="m -55.035106,277.51822 0.42323,-1.59525 h 0.252009 l -0.526927,1.80024 h -0.295417 l -0.526927,-1.80024 h 0.252008 z"
         style="stroke-width:0.26458332"
         id="path1151"
         inkscape:connector-curvature="0" />
      <path
         d="m -52.281096,277.52305 q 0.307475,0 0.429259,-0.15073 0.121784,-0.15193 0.121784,-0.54742 0,-0.39912 -0.121784,-0.54984 -0.120578,-0.15193 -0.429259,-0.15193 h -0.115755 v 1.39992 z m 0.0048,-1.60008 q 0.412378,0 0.607715,0.21945 0.195337,0.21946 0.195337,0.68248 0,0.46061 -0.195337,0.68006 -0.195337,0.21825 -0.607715,0.21825 h -0.365352 v -1.80024 z"
         style="stroke-width:0.26458332"
         id="path1153"
         inkscape:connector-curvature="0" />
    </g>
    <g
       aria-label="IN A"
       style="font-style:normal;font-variant:normal;font-weight:normal;font-stretch:normal;font-size:2.46944451px;line-height:1.25;font-family:'DejaVu Sans Mono';-inkscape-font-specification:'DejaVu Sans Mono';letter-spacing:0px;word-spacing:0px;fill:#000000;fill-opacity:1;stroke:none;stroke-width:0.26458332"
       id="text1106"
       transform="translate(68.102027,2.1720197)">
      <path
         d="m -46.437695,275.92297 h 0.999594 v 0.20498 h -0.37741 v 1.39027 h 0.37741 v 0.20499 h -0.999594 v -0.20499 h 0.37741 v -1.39027 h -0.37741 z"
         style="stroke-width:0.26458332"
         id="path1142"
         inkscape:connector-curvature="0" />
      <path
         d="m -45.026928,275.92297 h 0.30868 l 0.607715,1.48191 v -1.48191 h 0.235128 v 1.80024 h -0.308681 l -0.607715,-1.48191 v 1.48191 h -0.235127 z"
         style="stroke-width:0.26458332"
         id="path1144"
         inkscape:connector-curvature="0" />
      <path
         d="m -41.480719,276.1376 -0.256832,0.92122 h 0.513664 z m -0.147106,-0.21463 h 0.295417 l 0.551043,1.80024 h -0.252008 l -0.132637,-0.46905 h -0.630624 l -0.130225,0.46905 h -0.252009 z"
         style="stroke-width:0.26458332"
         id="path1146"
         inkscape:connector-curvature="0" />
    </g>
    <g
       aria-label="IN B"
       style="font-style:normal;font-variant:normal;font-weight:normal;font-stretch:normal;font-size:2.46944451px;line-height:1.25;font-family:'DejaVu Sans Mono';-inkscape-font-specification:'DejaVu Sans Mono';letter-spacing:0px;word-spacing:0px;fill:#000000;fill-opacity:1;stroke:none;stroke-width:0.26458332"
       id="text1110"
       transform="translate(66.804709,2.1720197)">
      <path
         d="m -35.854359,275.92297 h 0.999594 v 0.20498 h -0.37741 v 1.39027 h 0.37741 v 0.20499 h -0.999594 v -0.20499 h 0.37741 v -1.39027 h -0.37741 z"
         style="stroke-width:0.26458332"
         id="path1135"
         inkscape:connector-curvature="0" />
      <path
         d="m -34.443592,275.92297 h 0.30868 l 0.607715,1.48191 v -1.48191 h 0.235128 v 1.80024 h -0.308681 l -0.607715,-1.48191 v 1.48191 h -0.235127 z"
         style="stroke-width:0.26458332"
         id="path1137"
         inkscape:connector-curvature="0" />
      <path
         d="m -31.195212,276.86348 v 0.65957 h 0.288183 q 0.212217,0 0.302651,-0.0736 0.09043,-0.0748 0.09043,-0.24477 0,-0.17605 -0.09526,-0.25804 -0.09526,-0.0832 -0.297828,-0.0832 z m 0,-0.74035 v 0.5426 h 0.283359 q 0.176045,0 0.254421,-0.0675 0.07958,-0.0675 0.07958,-0.21825 0,-0.13625 -0.07838,-0.19654 -0.07717,-0.0603 -0.255627,-0.0603 z m -0.244774,-0.20016 h 0.532957 q 0.276124,0 0.425641,0.11937 0.149517,0.11938 0.149517,0.33762 0,0.1652 -0.07958,0.26045 -0.07838,0.0953 -0.236334,0.11937 0.17725,0.0265 0.27733,0.15193 0.101286,0.1242 0.101286,0.31712 0,0.24478 -0.160369,0.37018 -0.160369,0.1242 -0.47749,0.1242 h -0.532957 z"
         style="stroke-width:0.26458332"
         id="path1139"
         inkscape:connector-curvature="0" />
    </g>
    <g
       aria-label="PING"
       style="font-style:normal;font-variant:normal;font-weight:normal;font-stretch:normal;font-size:2.46944451px;line-height:1.25;font-family:'DejaVu Sans Mono';-inkscape-font-specification:'DejaVu Sans Mono';letter-spacing:0px;word-spacing:0px;fill:#000000;fill-opacity:1;stroke:none;stroke-width:0.26458332"
       id="text1118"
       transform="translate(-10.374981,-0.11063508)">
      <path
         d="m 23.121885,290.41058 v 0.67644 h 0.282154 q 0.168809,0 0.26286,-0.0892 0.09526,-0.0892 0.09526,-0.24959 0,-0.16037 -0.09405,-0.2484 -0.09405,-0.0892 -0.264066,-0.0892 z m -0.243568,-0.20016 h 0.525722 q 0.301445,0 0.456991,0.13746 0.155547,0.13625 0.155547,0.40032 0,0.26647 -0.155547,0.40273 -0.15434,0.13625 -0.456991,0.13625 h -0.282154 v 0.72347 h -0.243568 z"
         style="stroke-width:0.26458332"
         id="path1174"
         inkscape:connector-curvature="0" />
      <path
         d="m 24.368665,290.21042 h 0.999595 v 0.20498 h -0.37741 v 1.39027 h 0.37741 v 0.20498 h -0.999595 v -0.20498 h 0.377411 v -1.39027 h -0.377411 z"
         style="stroke-width:0.26458332"
         id="path1176"
         inkscape:connector-curvature="0" />
      <path
         d="m 25.779432,290.21042 h 0.308681 l 0.607714,1.4819 v -1.4819 h 0.235128 v 1.80023 h -0.30868 l -0.607715,-1.48191 v 1.48191 h -0.235128 z"
         style="stroke-width:0.26458332"
         id="path1178"
         inkscape:connector-curvature="0" />
      <path
         d="m 28.428538,291.86234 q -0.09767,0.0904 -0.220658,0.13746 -0.121784,0.0458 -0.264067,0.0458 -0.342442,0 -0.532956,-0.24478 -0.190514,-0.24598 -0.190514,-0.6885 0,-0.44131 0.192926,-0.68729 0.192925,-0.24719 0.536573,-0.24719 0.113344,0 0.217041,0.0326 0.103698,0.0313 0.20016,0.0965 v 0.2496 q -0.09767,-0.0928 -0.20016,-0.13626 -0.102491,-0.0446 -0.217041,-0.0446 -0.237539,0 -0.356912,0.18448 -0.118166,0.18328 -0.118166,0.55225 0,0.375 0.114549,0.55587 0.115755,0.17966 0.3545,0.17966 0.08079,0 0.141077,-0.0181 0.06149,-0.0193 0.110932,-0.0591 v -0.48352 h -0.261655 v -0.20016 h 0.494371 z"
         style="stroke-width:0.26458332"
         id="path1180"
         inkscape:connector-curvature="0" />
    </g>
    <g
       aria-label="TVCF"
       style="font-style:normal;font-variant:normal;font-weight:normal;font-stretch:normal;font-size:4.919981px;line-height:1.25;font-family:'DejaVu Sans Mono';-inkscape-font-specification:'DejaVu Sans Mono';letter-spacing:0px;word-spacing:0px;fill:#000000;fill-opacity:1;stroke:none;stroke-width:0.36899859"
       id="text935"
       transform="translate(0,1.0583333)">
      <path
         d="m 15.795816,201.47763 h -0.708689 v -2.96688 h -0.910485 v -0.6198 H 16.7063 v 0.6198 h -0.910484 z"
         style="font-style:normal;font-variant:normal;font-weight:bold;font-stretch:normal;font-family:'DejaVu Sans Mono';-inkscape-font-specification:'DejaVu Sans Mono Bold';stroke-width:0.36899859"
         id="path937"
         inkscape:connector-curvature="0" />
      <path
         d="m 18.399946,200.88666 0.631814,-2.99571 h 0.713493 l -0.852828,3.58668 H 17.90987 l -0.852829,-3.58668 h 0.713493 z"
         style="font-style:normal;font-variant:normal;font-weight:bold;font-stretch:normal;font-family:'DejaVu Sans Mono';-inkscape-font-specification:'DejaVu Sans Mono Bold';stroke-width:0.36899859"
         id="path939"
         inkscape:connector-curvature="0" />
      <path
         d="m 22.476708,201.37433 q -0.168164,0.0865 -0.353143,0.12973 -0.18498,0.0432 -0.389179,0.0432 -0.725505,0 -1.107476,-0.47807 -0.381971,-0.47806 -0.381971,-1.38134 0,-0.90568 0.381971,-1.38374 0.381971,-0.47807 1.107476,-0.47807 0.204199,0 0.391581,0.0432 0.187382,0.0433 0.350741,0.12973 v 0.78797 q -0.182578,-0.16817 -0.355546,-0.24504 -0.170566,-0.0793 -0.353143,-0.0793 -0.389178,0 -0.588572,0.3099 -0.196991,0.3075 -0.196991,0.91529 0,0.60539 0.196991,0.91529 0.199394,0.3075 0.588572,0.3075 0.182577,0 0.353143,-0.0769 0.172968,-0.0793 0.355546,-0.24744 z"
         style="font-style:normal;font-variant:normal;font-weight:bold;font-stretch:normal;font-family:'DejaVu Sans Mono';-inkscape-font-specification:'DejaVu Sans Mono Bold';stroke-width:0.36899859"
         id="path941"
         inkscape:connector-curvature="0" />
      <path
         d="m 25.510856,198.51555 h -1.525482 v 0.77355 h 1.388549 v 0.62461 h -1.388549 v 1.56392 h -0.708689 v -3.58668 h 2.234171 z"
         style="font-style:normal;font-variant:normal;font-weight:bold;font-stretch:normal;font-family:'DejaVu Sans Mono';-inkscape-font-specification:'DejaVu Sans Mono Bold';stroke-width:0.36899859"
         id="path943"
         inkscape:connector-curvature="0" />
    </g>
    <g
       id="g1031"
       transform="translate(-1.0299851)">
      <g
         transform="matrix(0.49336481,0,0,0.49336481,28.06847,118.89561)"
         id="g964">
        <path
           style="opacity:1;fill:none;fill-opacity:1;fill-rule:nonzero;stroke:#000000;stroke-width:0.2;stroke-linecap:round;stroke-linejoin:miter;stroke-miterlimit:4;stroke-dasharray:none;stroke-dashoffset:0;stroke-opacity:1;paint-order:markers stroke fill"
           d="m -42.362222,232.58803 a 2.1381559,2.1381559 0 0 1 -2.138156,2.13815 2.1381559,2.1381559 0 0 1 -2.138156,-2.13815 2.1381559,2.1381559 0 0 1 2.138156,-2.13816 2.1381559,2.1381559 0 0 1 2.138156,2.13816 z"
           id="path949"
           inkscape:connector-curvature="0" />
        <g
           aria-label="-"
           style="font-style:normal;font-variant:normal;font-weight:normal;font-stretch:normal;font-size:10.58333302px;line-height:1.25;font-family:'DejaVu Sans Mono';-inkscape-font-specification:'DejaVu Sans Mono';letter-spacing:0px;word-spacing:0px;fill:#000000;fill-opacity:1;stroke:none;stroke-width:0.26458332"
           id="text953">
          <path
             d="m -45.846547,232.16428 h 2.692342 v 0.84749 h -2.692342 z"
             style="text-align:center;text-anchor:middle;stroke-width:0.26458332"
             id="path1000"
             inkscape:connector-curvature="0" />
        </g>
      </g>
      <g
         transform="matrix(0.49336481,0,0,0.49336481,27.828466,118.89561)"
         id="g969">
        <path
           style="opacity:1;fill:none;fill-opacity:1;fill-rule:nonzero;stroke:#000000;stroke-width:0.2;stroke-linecap:round;stroke-linejoin:miter;stroke-miterlimit:4;stroke-dasharray:none;stroke-dashoffset:0;stroke-opacity:1;paint-order:markers stroke fill"
           d="m -21.195554,232.58803 a 2.1381559,2.1381559 0 0 1 -2.138156,2.13815 2.1381559,2.1381559 0 0 1 -2.138156,-2.13815 2.1381559,2.1381559 0 0 1 2.138156,-2.13816 2.1381559,2.1381559 0 0 1 2.138156,2.13816 z"
           id="circle955"
           inkscape:connector-curvature="0" />
        <g
           aria-label="+"
           style="font-style:normal;font-variant:normal;font-weight:normal;font-stretch:normal;font-size:7.05555534px;line-height:1.25;font-family:'DejaVu Sans Mono';-inkscape-font-specification:'DejaVu Sans Mono';letter-spacing:0px;word-spacing:0px;fill:#000000;fill-opacity:1;stroke:none;stroke-width:0.26458332"
           id="text959">
          <path
             d="m -22.925466,230.69322 v 1.48139 h 1.481391 v 0.81993 h -1.481391 v 1.48829 h -0.816487 v -1.48829 h -1.488282 v -0.81993 h 1.488282 v -1.48139 z"
             style="font-style:normal;font-variant:normal;font-weight:bold;font-stretch:normal;font-family:'DejaVu Sans Mono';-inkscape-font-specification:'DejaVu Sans Mono Bold';text-align:center;text-anchor:middle;stroke-width:0.26458332"
             id="path1004"
             inkscape:connector-curvature="0" />
        </g>
      </g>
    </g>
    <g
       transform="translate(18.749846)"
       id="g1049">
      <g
         id="g1039"
         transform="matrix(0.49336481,0,0,0.49336481,28.06847,118.89561)">
        <path
           inkscape:connector-curvature="0"
           id="path1033"
           d="m -42.362222,232.58803 a 2.1381559,2.1381559 0 0 1 -2.138156,2.13815 2.1381559,2.1381559 0 0 1 -2.138156,-2.13815 2.1381559,2.1381559 0 0 1 2.138156,-2.13816 2.1381559,2.1381559 0 0 1 2.138156,2.13816 z"
           style="opacity:1;fill:none;fill-opacity:1;fill-rule:nonzero;stroke:#000000;stroke-width:0.2;stroke-linecap:round;stroke-linejoin:miter;stroke-miterlimit:4;stroke-dasharray:none;stroke-dashoffset:0;stroke-opacity:1;paint-order:markers stroke fill" />
        <g
           id="g1037"
           style="font-style:normal;font-variant:normal;font-weight:normal;font-stretch:normal;font-size:10.58333302px;line-height:1.25;font-family:'DejaVu Sans Mono';-inkscape-font-specification:'DejaVu Sans Mono';letter-spacing:0px;word-spacing:0px;fill:#000000;fill-opacity:1;stroke:none;stroke-width:0.26458332"
           aria-label="-">
          <path
             inkscape:connector-curvature="0"
             id="path1035"
             style="text-align:center;text-anchor:middle;stroke-width:0.26458332"
             d="m -45.846547,232.16428 h 2.692342 v 0.84749 h -2.692342 z" />
        </g>
      </g>
      <g
         id="g1047"
         transform="matrix(0.49336481,0,0,0.49336481,27.828466,118.89561)">
        <path
           inkscape:connector-curvature="0"
           id="path1041"
           d="m -21.195554,232.58803 a 2.1381559,2.1381559 0 0 1 -2.138156,2.13815 2.1381559,2.1381559 0 0 1 -2.138156,-2.13815 2.1381559,2.1381559 0 0 1 2.138156,-2.13816 2.1381559,2.1381559 0 0 1 2.138156,2.13816 z"
           style="opacity:1;fill:none;fill-opacity:1;fill-rule:nonzero;stroke:#000000;stroke-width:0.2;stroke-linecap:round;stroke-linejoin:miter;stroke-miterlimit:4;stroke-dasharray:none;stroke-dashoffset:0;stroke-opacity:1;paint-order:markers stroke fill" />
        <g
           id="g1045"
           style="font-style:normal;font-variant:normal;font-weight:normal;font-stretch:normal;font-size:7.05555534px;line-height:1.25;font-family:'DejaVu Sans Mono';-inkscape-font-specification:'DejaVu Sans Mono';letter-spacing:0px;word-spacing:0px;fill:#000000;fill-opacity:1;stroke:none;stroke-width:0.26458332"
           aria-label="+">
          <path
             inkscape:connector-curvature="0"
             id="path1043"
             style="font-style:normal;font-variant:normal;font-weight:bold;font-stretch:normal;font-family:'DejaVu Sans Mono';-inkscape-font-specification:'DejaVu Sans Mono Bold';text-align:center;text-anchor:middle;stroke-width:0.26458332"
             d="m -22.925466,230.69322 v 1.48139 h 1.481391 v 0.81993 h -1.481391 v 1.48829 h -0.816487 v -1.48829 h -1.488282 v -0.81993 h 1.488282 v -1.48139 z" />
        </g>
      </g>
    </g>
    <g
       transform="matrix(0.42495351,0,0,0.42495351,21.054629,221.35481)"
       id="g11631">
      <g
         aria-label="MS"
         style="font-style:normal;font-weight:normal;font-size:10.58333302px;line-height:1.25;font-family:sans-serif;letter-spacing:0px;word-spacing:0px;fill:#000000;fill-opacity:1;stroke:none;stroke-width:0.26458332"
         id="text11625">
        <path
           d="m -13.102167,168.46541 q 0.148166,-0.23284 0.370416,-0.32809 0.22225,-0.10583 0.455084,-0.10583 0.275166,0 0.4445,0.20108 0.169333,0.1905 0.169333,0.51859 v 5.02708 l 3.5348333,-5.31283 q 0.1481667,-0.23284 0.3598333,-0.32809 0.22225,-0.10583 0.4656667,-0.10583 0.2751666,0 0.4445,0.20108 0.1693333,0.1905 0.1693333,0.51859 v 7.59883 h -1.4393333 v -5.57742 l -3.2173333,5.08 q -0.179917,0.28575 -0.391583,0.39159 -0.211667,0.10583 -0.433917,0.10583 -0.1905,0 -0.359833,-0.0635 -0.169334,-0.0741 -0.296334,-0.20108 -0.127,-0.127 -0.201083,-0.29634 -0.07408,-0.16933 -0.07408,-0.381 v -4.6355 l -3.534833,5.57742 h -1.7145 z"
           style="font-style:normal;font-variant:normal;font-weight:normal;font-stretch:normal;font-family:Strasua;-inkscape-font-specification:Strasua;stroke-width:0.26458332"
           id="path1877"
           inkscape:connector-curvature="0" />
        <path
           d="m -5.7073936,176.34999 v -1.43933 h 2.8892499 q 0.66675,0 1.1006666,-0.3175 0.4339167,-0.3175 0.4339167,-0.8255 0,-0.254 -0.1164167,-0.46567 -0.1164167,-0.21167 -0.3175,-0.35983 -0.2010833,-0.15875 -0.4868333,-0.24342 -0.28575,-0.0847 -0.6138333,-0.0847 h -0.6561667 q -0.5079999,0 -0.9419166,-0.15875 -0.4339167,-0.16933 -0.7514166,-0.46566 -0.3175,-0.30692 -0.4974167,-0.70909 -0.1799167,-0.41275 -0.1799167,-0.91016 0,-0.48684 0.1799167,-0.89959 0.1905,-0.41275 0.5291667,-0.71966 0.3386666,-0.30692 0.8149166,-0.47625 0.47625,-0.17992 1.04775,-0.17992 h 2.74108322 v 1.43933 H -3.3473104 q -0.4550833,0 -0.7196666,0.254 -0.2645833,0.24342 -0.2645833,0.59267 0,0.381 0.2645833,0.635 0.2751666,0.254 0.7196666,0.254 h 0.8149167 q 0.5503333,0 1.0159999,0.1905 0.4656667,0.17992 0.80433336,0.51858 0.33866665,0.33867 0.52916665,0.80434 0.19049999,0.46566 0.19049999,1.016 0,0.56091 -0.20108333,1.02658 -0.20108332,0.46567 -0.58208331,0.80433 -0.37041666,0.33867 -0.88899996,0.52917 -0.5185833,0.1905 -1.1535833,0.1905 z"
           style="font-style:normal;font-variant:normal;font-weight:normal;font-stretch:normal;font-family:Strasua;-inkscape-font-specification:Strasua;stroke-width:0.26458332"
           id="path1879"
           inkscape:connector-curvature="0" />
      </g>
      <g
         aria-label="M"
         transform="scale(-1,1)"
         style="font-style:normal;font-weight:normal;font-size:10.58333302px;line-height:1.25;font-family:sans-serif;letter-spacing:0px;word-spacing:0px;fill:#000000;fill-opacity:1;stroke:none;stroke-width:0.26458332"
         id="text11629">
        <path
           d="m -7.4032889,168.46365 q 0.1481666,-0.23283 0.3704166,-0.32808 0.22225,-0.10583 0.4550834,-0.10583 0.2751666,0 0.4444999,0.20108 0.1693334,0.1905 0.1693334,0.51858 v 5.02709 l 3.5348332,-5.31284 q 0.1481667,-0.23283 0.3598333,-0.32808 0.22225,-0.10583 0.4656667,-0.10583 0.2751666,0 0.4445,0.20108 0.16933329,0.1905 0.16933329,0.51858 v 7.59884 H -2.4291224 v -5.57742 l -3.2173332,5.08 q -0.1799167,0.28575 -0.3915834,0.39158 -0.2116666,0.10584 -0.4339166,0.10584 -0.1905,0 -0.3598333,-0.0635 -0.1693334,-0.0741 -0.2963334,-0.20109 -0.127,-0.127 -0.2010833,-0.29633 -0.074083,-0.16933 -0.074083,-0.381 v -4.6355 l -3.5348334,5.57742 h -1.7145 z"
           style="font-style:normal;font-variant:normal;font-weight:normal;font-stretch:normal;font-family:Strasua;-inkscape-font-specification:Strasua;stroke-width:0.26458332"
           id="path1882"
           inkscape:connector-curvature="0" />
      </g>
    </g>
    <g
       aria-label="CV A"
       style="font-style:normal;font-variant:normal;font-weight:normal;font-stretch:normal;font-size:2.46944451px;line-height:1.25;font-family:'DejaVu Sans Mono';-inkscape-font-specification:'DejaVu Sans Mono';letter-spacing:0px;word-spacing:0px;fill:#000000;fill-opacity:1;stroke:none;stroke-width:0.26458332"
       id="text961"
       transform="translate(80.148507,14.710664)">
      <path
         d="m -71.466608,222.0968 q -0.09285,0.0494 -0.190514,0.0736 -0.09767,0.0253 -0.207395,0.0253 -0.34606,0 -0.537779,-0.24477 -0.190514,-0.24477 -0.190514,-0.6885 0,-0.44132 0.191719,-0.6873 0.192926,-0.24719 0.536574,-0.24719 0.109726,0 0.207395,0.0253 0.09767,0.0241 0.190514,0.0736 v 0.2496 q -0.08923,-0.0736 -0.19172,-0.11214 -0.102492,-0.0386 -0.206189,-0.0386 -0.237539,0 -0.355706,0.18328 -0.118167,0.18328 -0.118167,0.55346 0,0.36897 0.118167,0.55225 0.118167,0.18327 0.355706,0.18327 0.106109,0 0.207395,-0.0386 0.102491,-0.0386 0.190514,-0.11214 z"
         style="stroke-width:0.26458332"
         id="path986"
         inkscape:connector-curvature="0" />
      <path
         d="m -70.532126,221.95572 0.42323,-1.59525 h 0.252008 l -0.526927,1.80024 h -0.295417 l -0.526927,-1.80024 h 0.252009 z"
         style="stroke-width:0.26458332"
         id="path988"
         inkscape:connector-curvature="0" />
      <path
         d="m -67.561076,220.5751 -0.256832,0.92122 h 0.513664 z m -0.147105,-0.21463 h 0.295417 l 0.551043,1.80024 h -0.252009 l -0.132636,-0.46905 h -0.630625 l -0.130225,0.46905 h -0.252008 z"
         style="stroke-width:0.26458332"
         id="path990"
         inkscape:connector-curvature="0" />
    </g>
    <g
       aria-label="CV B"
       style="font-style:normal;font-variant:normal;font-weight:normal;font-stretch:normal;font-size:2.46944451px;line-height:1.25;font-family:'DejaVu Sans Mono';-inkscape-font-specification:'DejaVu Sans Mono';letter-spacing:0px;word-spacing:0px;fill:#000000;fill-opacity:1;stroke:none;stroke-width:0.26458332"
       id="text965"
       transform="translate(83.852673,14.710675)">
      <path
         d="m -55.591608,222.0968 q -0.09285,0.0494 -0.190514,0.0736 -0.09767,0.0253 -0.207395,0.0253 -0.34606,0 -0.537779,-0.24477 -0.190514,-0.24477 -0.190514,-0.6885 0,-0.44132 0.191719,-0.6873 0.192926,-0.24719 0.536574,-0.24719 0.109726,0 0.207395,0.0253 0.09767,0.0241 0.190514,0.0736 v 0.2496 q -0.08923,-0.0736 -0.19172,-0.11214 -0.102492,-0.0386 -0.206189,-0.0386 -0.237539,0 -0.355706,0.18328 -0.118167,0.18328 -0.118167,0.55346 0,0.36897 0.118167,0.55225 0.118167,0.18327 0.355706,0.18327 0.106109,0 0.207395,-0.0386 0.102491,-0.0386 0.190514,-0.11214 z"
         style="stroke-width:0.26458332"
         id="path1001"
         inkscape:connector-curvature="0" />
      <path
         d="m -54.657126,221.95572 0.42323,-1.59525 h 0.252008 l -0.526927,1.80024 h -0.295417 l -0.526927,-1.80024 h 0.252009 z"
         style="stroke-width:0.26458332"
         id="path1003"
         inkscape:connector-curvature="0" />
      <path
         d="m -51.983904,221.30098 v 0.65957 h 0.288182 q 0.212218,0 0.302652,-0.0736 0.09043,-0.0748 0.09043,-0.24477 0,-0.17605 -0.09526,-0.25804 -0.09526,-0.0832 -0.297829,-0.0832 z m 0,-0.74035 v 0.5426 h 0.283359 q 0.176044,0 0.25442,-0.0675 0.07958,-0.0675 0.07958,-0.21825 0,-0.13625 -0.07838,-0.19654 -0.07717,-0.0603 -0.255626,-0.0603 z m -0.244774,-0.20016 h 0.532956 q 0.276124,0 0.425642,0.11937 0.149517,0.11938 0.149517,0.33762 0,0.1652 -0.07958,0.26045 -0.07838,0.0953 -0.236333,0.11937 0.17725,0.0265 0.27733,0.15193 0.101286,0.1242 0.101286,0.31712 0,0.24478 -0.16037,0.37018 -0.160369,0.1242 -0.47749,0.1242 h -0.532956 z"
         style="stroke-width:0.26458332"
         id="path1005"
         inkscape:connector-curvature="0" />
    </g>
    <g
       aria-label="CV A"
       style="font-style:normal;font-variant:normal;font-weight:normal;font-stretch:normal;font-size:2.46944451px;line-height:1.25;font-family:'DejaVu Sans Mono';-inkscape-font-specification:'DejaVu Sans Mono';letter-spacing:0px;word-spacing:0px;fill:#000000;fill-opacity:1;stroke:none;stroke-width:0.26458332"
       id="text971"
       transform="translate(75.649918,59.155925)">
      <path
         d="m -71.466608,232.68014 q -0.09285,0.0494 -0.190514,0.0736 -0.09767,0.0253 -0.207395,0.0253 -0.34606,0 -0.537779,-0.24478 -0.190514,-0.24477 -0.190514,-0.6885 0,-0.44132 0.191719,-0.6873 0.192926,-0.24718 0.536574,-0.24718 0.109726,0 0.207395,0.0253 0.09767,0.0241 0.190514,0.0736 v 0.2496 q -0.08923,-0.0735 -0.19172,-0.11214 -0.102492,-0.0386 -0.206189,-0.0386 -0.237539,0 -0.355706,0.18328 -0.118167,0.18327 -0.118167,0.55345 0,0.36897 0.118167,0.55225 0.118167,0.18328 0.355706,0.18328 0.106109,0 0.207395,-0.0386 0.102491,-0.0386 0.190514,-0.11213 z"
         style="stroke-width:0.26458332"
         id="path979"
         inkscape:connector-curvature="0" />
      <path
         d="m -70.532126,232.53907 0.42323,-1.59526 h 0.252008 l -0.526927,1.80024 h -0.295417 l -0.526927,-1.80024 h 0.252009 z"
         style="stroke-width:0.26458332"
         id="path981"
         inkscape:connector-curvature="0" />
      <path
         d="m -67.561076,231.15844 -0.256832,0.92122 h 0.513664 z m -0.147105,-0.21463 h 0.295417 l 0.551043,1.80024 h -0.252009 l -0.132636,-0.46905 h -0.630625 l -0.130225,0.46905 h -0.252008 z"
         style="stroke-width:0.26458332"
         id="path983"
         inkscape:connector-curvature="0" />
    </g>
    <g
       aria-label="CV B"
       style="font-style:normal;font-variant:normal;font-weight:normal;font-stretch:normal;font-size:2.46944451px;line-height:1.25;font-family:'DejaVu Sans Mono';-inkscape-font-specification:'DejaVu Sans Mono';letter-spacing:0px;word-spacing:0px;fill:#000000;fill-opacity:1;stroke:none;stroke-width:0.26458332"
       id="text977"
       transform="translate(78.380332,59.155925)">
      <path
         d="m -55.591608,232.68014 q -0.09285,0.0494 -0.190514,0.0736 -0.09767,0.0253 -0.207395,0.0253 -0.34606,0 -0.537779,-0.24478 -0.190514,-0.24477 -0.190514,-0.6885 0,-0.44132 0.191719,-0.6873 0.192926,-0.24718 0.536574,-0.24718 0.109726,0 0.207395,0.0253 0.09767,0.0241 0.190514,0.0736 v 0.2496 q -0.08923,-0.0735 -0.19172,-0.11214 -0.102492,-0.0386 -0.206189,-0.0386 -0.237539,0 -0.355706,0.18328 -0.118167,0.18327 -0.118167,0.55345 0,0.36897 0.118167,0.55225 0.118167,0.18328 0.355706,0.18328 0.106109,0 0.207395,-0.0386 0.102491,-0.0386 0.190514,-0.11213 z"
         style="stroke-width:0.26458332"
         id="path993"
         inkscape:connector-curvature="0" />
      <path
         d="m -54.657126,232.53907 0.42323,-1.59526 h 0.252008 l -0.526927,1.80024 h -0.295417 l -0.526927,-1.80024 h 0.252009 z"
         style="stroke-width:0.26458332"
         id="path995"
         inkscape:connector-curvature="0" />
      <path
         d="m -51.983904,231.88433 v 0.65956 h 0.288182 q 0.212218,0 0.302652,-0.0736 0.09043,-0.0748 0.09043,-0.24478 0,-0.17604 -0.09526,-0.25804 -0.09526,-0.0832 -0.297829,-0.0832 z m 0,-0.74036 v 0.54261 h 0.283359 q 0.176044,0 0.25442,-0.0675 0.07958,-0.0675 0.07958,-0.21824 0,-0.13626 -0.07838,-0.19655 -0.07717,-0.0603 -0.255626,-0.0603 z m -0.244774,-0.20016 h 0.532956 q 0.276124,0 0.425642,0.11938 0.149517,0.11937 0.149517,0.33762 0,0.16519 -0.07958,0.26045 -0.07838,0.0952 -0.236333,0.11937 0.17725,0.0265 0.27733,0.15193 0.101286,0.12419 0.101286,0.31712 0,0.24477 -0.16037,0.37017 -0.160369,0.1242 -0.47749,0.1242 h -0.532956 z"
         style="stroke-width:0.26458332"
         id="path997"
         inkscape:connector-curvature="0" />
    </g>
    <g
       aria-label="DUAL"
       style="font-style:normal;font-variant:normal;font-weight:normal;font-stretch:normal;font-size:2.46944451px;line-height:1.25;font-family:'DejaVu Sans Mono';-inkscape-font-specification:'DejaVu Sans Mono';letter-spacing:0px;word-spacing:0px;fill:#000000;fill-opacity:1;stroke:none;stroke-width:0.26458332"
       id="text1010"
       transform="translate(86.802727,7.246344)">
      <path
         d="m -78.85333,245.48407 q 0.307475,0 0.429259,-0.15072 0.121784,-0.15193 0.121784,-0.54742 0,-0.39912 -0.121784,-0.54984 -0.120578,-0.15193 -0.429259,-0.15193 h -0.115755 v 1.39991 z m 0.0048,-1.60007 q 0.412377,0 0.607714,0.21945 0.195337,0.21946 0.195337,0.68248 0,0.46061 -0.195337,0.68006 -0.195337,0.21824 -0.607714,0.21824 h -0.365353 V 243.884 Z"
         style="stroke-width:0.26458332"
         id="path1012"
         inkscape:connector-curvature="0" />
      <path
         d="M -77.716276,244.99332 V 243.884 h 0.244774 v 1.22025 q 0,0.13143 0.0072,0.1881 0.0072,0.0555 0.02532,0.0856 0.03858,0.0711 0.110932,0.10731 0.07355,0.0362 0.177251,0.0362 0.104903,0 0.17725,-0.0362 0.07235,-0.0362 0.112138,-0.10731 0.01809,-0.0301 0.02532,-0.0856 0.0072,-0.0555 0.0072,-0.18569 V 243.884 h 0.243568 v 1.10932 q 0,0.27613 -0.03497,0.39309 -0.03376,0.11575 -0.118166,0.19172 -0.07958,0.0711 -0.182074,0.1061 -0.102491,0.035 -0.230304,0.035 -0.126608,0 -0.229099,-0.035 -0.102492,-0.035 -0.183279,-0.1061 -0.0832,-0.0748 -0.118167,-0.19293 -0.03497,-0.11937 -0.03497,-0.39188 z"
         style="stroke-width:0.26458332"
         id="path1014"
         inkscape:connector-curvature="0" />
      <path
         d="m -75.665238,244.09863 -0.256832,0.92122 h 0.513664 z m -0.147106,-0.21463 h 0.295417 l 0.551043,1.80023 h -0.252008 l -0.132637,-0.46905 h -0.630624 l -0.130225,0.46905 h -0.252009 z"
         style="stroke-width:0.26458332"
         id="path1016"
         inkscape:connector-curvature="0" />
      <path
         d="m -74.663232,243.884 h 0.244774 v 1.59525 h 0.86937 v 0.20498 h -1.114144 z"
         style="stroke-width:0.26458332"
         id="path1018"
         inkscape:connector-curvature="0" />
    </g>
    <g
       aria-label="V/OCT"
       style="font-style:normal;font-variant:normal;font-weight:normal;font-stretch:normal;font-size:2.46944451px;line-height:1.25;font-family:'DejaVu Sans Mono';-inkscape-font-specification:'DejaVu Sans Mono';letter-spacing:0px;word-spacing:0px;fill:#000000;fill-opacity:1;stroke:none;stroke-width:0.26458332"
       id="text1023"
       transform="translate(71.371847,26.832425)">
      <path
         d="m -68.426877,252.76078 0.42323,-1.59526 h 0.252009 l -0.526928,1.80024 h -0.295417 l -0.526927,-1.80024 h 0.252009 z"
         style="stroke-width:0.26458332"
         id="path1025"
         inkscape:connector-curvature="0" />
      <path
         d="m -66.612173,251.16552 h 0.229099 l -0.947746,2.02934 h -0.230304 z"
         style="stroke-width:0.26458332"
         id="path1027"
         inkscape:connector-curvature="0" />
      <path
         d="m -65.107355,252.06745 q 0,-0.3967 -0.08199,-0.56672 -0.08079,-0.17001 -0.266478,-0.17001 -0.184485,0 -0.266479,0.17001 -0.08079,0.17002 -0.08079,0.56672 0,0.3955 0.08079,0.56551 0.08199,0.17002 0.266479,0.17002 0.18569,0 0.266478,-0.16881 0.08199,-0.17002 0.08199,-0.56672 z m 0.25442,0 q 0,0.47026 -0.149517,0.70177 -0.148311,0.23151 -0.453374,0.23151 -0.305064,0 -0.453375,-0.23031 -0.148311,-0.2303 -0.148311,-0.70297 0,-0.47146 0.148311,-0.70297 0.149517,-0.23151 0.453375,-0.23151 0.305063,0 0.453374,0.23151 0.149517,0.23151 0.149517,0.70297 z"
         style="stroke-width:0.26458332"
         id="path1029"
         inkscape:connector-curvature="0" />
      <path
         d="m -63.419258,252.90185 q -0.09285,0.0494 -0.190514,0.0736 -0.09767,0.0253 -0.207395,0.0253 -0.346059,0 -0.537779,-0.24478 -0.190514,-0.24477 -0.190514,-0.6885 0,-0.44132 0.19172,-0.6873 0.192925,-0.24718 0.536573,-0.24718 0.109727,0 0.207395,0.0253 0.09767,0.0241 0.190514,0.0736 v 0.2496 q -0.08923,-0.0735 -0.19172,-0.11214 -0.102491,-0.0386 -0.206189,-0.0386 -0.237539,0 -0.355706,0.18328 -0.118167,0.18328 -0.118167,0.55345 0,0.36897 0.118167,0.55225 0.118167,0.18328 0.355706,0.18328 0.106109,0 0.207395,-0.0386 0.102492,-0.0386 0.190514,-0.11213 z"
         style="stroke-width:0.26458332"
         id="path1031"
         inkscape:connector-curvature="0" />
      <path
         d="m -63.170867,251.16552 h 1.373388 v 0.20499 h -0.563101 v 1.59525 h -0.244774 v -1.59525 h -0.565513 z"
         style="stroke-width:0.26458332"
         id="path1034"
         inkscape:connector-curvature="0" />
    </g>
    <g
       transform="translate(20.072764,-1.0583333)"
       id="g963">
      <g
         aria-label="LP"
         style="font-style:normal;font-variant:normal;font-weight:normal;font-stretch:normal;font-size:2.46944451px;line-height:1.25;font-family:'DejaVu Sans Mono';-inkscape-font-specification:'DejaVu Sans Mono';letter-spacing:0px;word-spacing:0px;fill:#000000;fill-opacity:1;stroke:none;stroke-width:0.26458332"
         id="g955"
         transform="translate(48.471129,19.05)">
        <path
           inkscape:connector-curvature="0"
           d="m -45.711116,247.97163 h 0.244774 v 1.59525 h 0.86937 v 0.20499 h -1.114144 z"
           style="stroke-width:0.26458332"
           id="path951" />
        <path
           inkscape:connector-curvature="0"
           d="m -44.003727,248.17179 v 0.67645 h 0.282153 q 0.16881,0 0.262861,-0.0892 0.09526,-0.0892 0.09526,-0.2496 0,-0.16037 -0.09405,-0.24839 -0.09405,-0.0892 -0.264067,-0.0892 z m -0.243568,-0.20016 h 0.525721 q 0.301446,0 0.456992,0.13746 0.155546,0.13625 0.155546,0.40032 0,0.26648 -0.155546,0.40273 -0.15434,0.13626 -0.456992,0.13626 h -0.282153 v 0.72347 h -0.243568 z"
           style="stroke-width:0.26458332"
           id="path953" />
      </g>
      <g
         id="g961"
         style="font-style:normal;font-variant:normal;font-weight:normal;font-stretch:normal;font-size:2.46944451px;line-height:1.25;font-family:'DejaVu Sans Mono';-inkscape-font-specification:'DejaVu Sans Mono';letter-spacing:0px;word-spacing:0px;fill:#000000;fill-opacity:1;stroke:none;stroke-width:0.26458332"
         aria-label="BP"
         transform="translate(-3.36683,-4.2333335)">
        <path
           inkscape:connector-curvature="0"
           id="path957"
           style="stroke-width:0.26458332"
           d="m 17.974576,272.19542 v 0.65957 h 0.288182 q 0.212218,0 0.302652,-0.0736 0.09043,-0.0748 0.09043,-0.24477 0,-0.17605 -0.09526,-0.25804 -0.09526,-0.0832 -0.297829,-0.0832 z m 0,-0.74035 v 0.5426 h 0.283359 q 0.176045,0 0.254421,-0.0675 0.07958,-0.0675 0.07958,-0.21825 0,-0.13625 -0.07838,-0.19654 -0.07717,-0.0603 -0.255626,-0.0603 z m -0.244774,-0.20016 h 0.532956 q 0.276125,0 0.425642,0.11937 0.149517,0.11938 0.149517,0.33762 0,0.16519 -0.07958,0.26045 -0.07837,0.0953 -0.236333,0.11937 0.17725,0.0265 0.27733,0.15193 0.101286,0.1242 0.101286,0.31712 0,0.24478 -0.160369,0.37018 -0.16037,0.1242 -0.477491,0.1242 h -0.532956 z" />
        <path
           inkscape:connector-curvature="0"
           id="path959"
           style="stroke-width:0.26458332"
           d="m 19.496275,271.45507 v 0.67645 h 0.282153 q 0.16881,0 0.262861,-0.0892 0.09526,-0.0892 0.09526,-0.2496 0,-0.16037 -0.09405,-0.24839 -0.09405,-0.0892 -0.264067,-0.0892 z m -0.243568,-0.20016 h 0.525721 q 0.301446,0 0.456992,0.13746 0.155546,0.13625 0.155546,0.40032 0,0.26648 -0.155546,0.40273 -0.15434,0.13626 -0.456992,0.13626 h -0.282153 v 0.72347 h -0.243568 z" />
      </g>
    </g>
  </g>
</svg>
