<?xml version="1.0" encoding="UTF-8" standalone="no"?>
<!-- Created with Inkscape (http://www.inkscape.org/) -->

<svg
   xmlns:dc="http://purl.org/dc/elements/1.1/"
   xmlns:cc="http://creativecommons.org/ns#"
   xmlns:rdf="http://www.w3.org/1999/02/22-rdf-syntax-ns#"
   xmlns:svg="http://www.w3.org/2000/svg"
   xmlns="http://www.w3.org/2000/svg"
   xmlns:sodipodi="http://sodipodi.sourceforge.net/DTD/sodipodi-0.dtd"
   xmlns:inkscape="http://www.inkscape.org/namespaces/inkscape"
   width="165"
   height="380"
   viewBox="0 0 43.656249 100.54168"
   version="1.1"
   id="svg8"
   inkscape:version="0.92.2 (5c3e80d, 2017-08-06)"
   sodipodi:docname="WaveShaper.svg">
  <defs
     id="defs2" />
  <sodipodi:namedview
     id="base"
     pagecolor="#ffffff"
     bordercolor="#666666"
     borderopacity="1.0"
     inkscape:pageopacity="0.0"
     inkscape:pageshadow="2"
     inkscape:zoom="1.979899"
     inkscape:cx="-199.09234"
     inkscape:cy="183.43045"
     inkscape:document-units="mm"
     inkscape:current-layer="layer1"
     showgrid="false"
     units="px"
     inkscape:window-width="1920"
     inkscape:window-height="1028"
     inkscape:window-x="-8"
     inkscape:window-y="-8"
     inkscape:window-maximized="1" />
  <metadata
     id="metadata5">
    <rdf:RDF>
      <cc:Work
         rdf:about="">
        <dc:format>image/svg+xml</dc:format>
        <dc:type
           rdf:resource="http://purl.org/dc/dcmitype/StillImage" />
        <dc:title />
      </cc:Work>
    </rdf:RDF>
  </metadata>
  <g
     inkscape:label="Ebene 1"
     inkscape:groupmode="layer"
     id="layer1"
     transform="translate(0,-196.4583)">
    <rect
       style="fill:#f0f0f0;stroke-width:0.07616287;stroke-linecap:round;paint-order:markers stroke fill"
       id="rect815"
       width="43.65625"
       height="100.54166"
       x="-0.00075252075"
       y="196.45937" />
    <g
       inkscape:transform-center-y="119.65244"
       inkscape:transform-center-x="-44.974764"
       id="g1358"
       transform="matrix(1.4311608,-1.4311608,1.4311608,1.4311608,-217.18484,-293.88755)"
       style="fill:#d6d6d6;fill-opacity:0.8">
      <g
         id="g1356">
        <g
           id="g1324"
           transform="translate(185.73646,-9.5250064)">
          <g
             transform="translate(-137.10274)"
             id="g1308">
            <path
               inkscape:connector-curvature="0"
               style="stroke-width:6.9784193;stroke-linecap:round;paint-order:markers stroke fill"
               d="m -718.94922,154.57227 c -14.32932,0.45458 -33.60356,20.71937 -31.29883,34.27148 -2.45838,14.45558 19.63622,36.55017 34.0918,34.0918 h 134.0918 v -9.0918 h -100.00196 v -25 c 2.45839,-14.4556 -19.63425,-36.54823 -34.08984,-34.08984 -0.90347,-0.15365 -1.83768,-0.21195 -2.79297,-0.18164 z m 1.00586,8.95898 c 0.63005,0.0232 1.22828,0.12471 1.78711,0.3125 8.94127,-3.00469 28.00471,16.05874 25,25 v 25 h -25 c -8.94126,3.00469 -28.00469,-16.05873 -25,-25 -2.8169,-8.38244 13.76214,-25.66117 23.21289,-25.3125 z m 26.78711,150.3125 v 9.0918 h 9.08984 v -9.0918 z"
               transform="matrix(0.26458333,0,0,0.26458333,0,196.45832)"
               id="path1296" />
            <path
               inkscape:connector-curvature="0"
               style="stroke-width:6.9784193;stroke-linecap:round;paint-order:markers stroke fill"
               d="m -718.55273,136.5293 c -24.81903,0.43381 -51.20004,27.62664 -49.87696,52.31445 -1.36576,25.48418 26.78925,53.63919 52.27344,52.27344 h 134.0918 v -9.0918 h -134.0918 c -19.96987,1.91207 -45.09371,-23.21177 -43.18164,-43.18164 -1.91207,-19.96987 23.21177,-45.0937 43.18164,-43.18164 19.96988,-1.91208 45.09374,23.21176 43.18164,43.18164 v 25 h 9.0918 v -25 c 1.36576,-25.4842 -26.78924,-53.63725 -52.27344,-52.27148 -0.79638,-0.0427 -1.59587,-0.057 -2.39648,-0.043 z m 45.57812,177.31445 v 9.0918 h 9.0918 v -9.0918 z"
               transform="matrix(0.26458333,0,0,0.26458333,0,196.45832)"
               id="path1298" />
            <path
               inkscape:connector-curvature="0"
               style="stroke-width:6.9784193;stroke-linecap:round;paint-order:markers stroke fill"
               d="m -716.15625,118.38867 c -36.51277,-0.27315 -70.72823,33.94231 -70.45508,70.45508 -0.27315,36.51277 33.94231,70.72822 70.45508,70.45508 h 134.0918 v -9.0918 h -134.0918 c -30.99848,0.81946 -62.18274,-30.3648 -61.36328,-61.36328 -0.81946,-30.99848 30.3648,-62.18273 61.36328,-61.36328 30.9985,-0.81946 62.18277,30.36478 61.36328,61.36328 v 25 h 9.0918 v -25 c 0.27315,-36.51278 -33.94229,-70.72823 -70.45508,-70.45508 z m 61.36328,195.45508 v 9.0918 h 9.0918 v -9.0918 z"
               transform="matrix(0.26458333,0,0,0.26458333,0,196.45832)"
               id="path1300" />
            <path
               inkscape:connector-curvature="0"
               style="stroke-width:6.9784193;stroke-linecap:round;paint-order:markers stroke fill"
               d="m -716.15625,100.20703 c -47.54138,0.81946 -87.81726,41.09534 -88.63672,88.63672 0.81946,47.54137 41.09535,87.81724 88.63672,88.63672 h 134.0918 v -9.0918 h -134.0918 v 0.002 c -42.02709,-0.27313 -79.27177,-37.51979 -79.54492,-79.54687 0.27315,-42.02708 37.51784,-79.27175 79.54492,-79.54492 42.02711,0.27315 79.2718,37.51781 79.54492,79.54492 v 25 h 9.0918 v -25 c -0.81947,-47.54138 -41.09532,-87.81726 -88.63672,-88.63672 z m 79.54492,213.63672 v 9.0918 h 9.0918 v -9.0918 z"
               transform="matrix(0.26458333,0,0,0.26458333,0,196.45832)"
               id="path1302" />
            <path
               inkscape:connector-curvature="0"
               style="stroke-width:6.9784193;stroke-linecap:round;paint-order:markers stroke fill"
               d="m -716.15625,82.025391 c -58.56997,1.912073 -104.90628,48.248379 -106.81836,106.818359 1.91207,58.56996 48.2484,104.90626 106.81836,106.81836 h 134.0918 v -9.08984 h -134.0918 c -53.05565,-1.36577 -96.3608,-44.67288 -97.72656,-97.72852 1.36576,-53.05564 44.67093,-96.360781 97.72656,-97.726562 53.05567,1.365765 96.36083,44.670882 97.72656,97.726562 v 25 h 9.0918 v -25 C -611.24997,130.27379 -657.58625,83.937471 -716.15625,82.025391 Z m 97.72656,231.818359 v 9.0918 h 9.0918 v -9.0918 z"
               transform="matrix(0.26458333,0,0,0.26458333,0,196.45832)"
               id="path1304" />
            <path
               inkscape:connector-curvature="0"
               style="stroke-width:6.9784193;stroke-linecap:round;paint-order:markers stroke fill"
               d="m -716.15625,63.84375 c -69.59855,3.004689 -121.99531,55.40145 -125,125 3.00469,69.59853 55.40147,121.99529 125,125 h 115.9082 v 9.0918 h 9.0918 v -9.0918 h 9.0918 v -9.08984 h -134.0918 c -64.08426,-2.45838 -113.45177,-51.82592 -115.91016,-115.91016 2.45839,-64.08424 51.82592,-113.449802 115.91016,-115.908203 64.08428,2.458384 113.44986,51.823903 115.9082,115.908203 v 25 h 9.0918 v -25 c -3.0047,-69.59854 -55.40142,-121.99531 -125,-125 z"
               transform="matrix(0.26458333,0,0,0.26458333,0,196.45832)"
               id="path1306" />
          </g>
          <g
             transform="rotate(90,-222.55592,213.35031)"
             id="g1322">
            <path
               inkscape:connector-curvature="0"
               id="path1310"
               transform="matrix(0.26458333,0,0,0.26458333,0,196.45832)"
               d="m -718.94922,154.57227 c -14.32932,0.45458 -33.60356,20.71937 -31.29883,34.27148 -2.45838,14.45558 19.63622,36.55017 34.0918,34.0918 h 134.0918 v -9.0918 h -100.00196 v -25 c 2.45839,-14.4556 -19.63425,-36.54823 -34.08984,-34.08984 -0.90347,-0.15365 -1.83768,-0.21195 -2.79297,-0.18164 z m 1.00586,8.95898 c 0.63005,0.0232 1.22828,0.12471 1.78711,0.3125 8.94127,-3.00469 28.00471,16.05874 25,25 v 25 h -25 c -8.94126,3.00469 -28.00469,-16.05873 -25,-25 -2.8169,-8.38244 13.76214,-25.66117 23.21289,-25.3125 z m 26.78711,150.3125 v 9.0918 h 9.08984 v -9.0918 z"
               style="stroke-width:6.9784193;stroke-linecap:round;paint-order:markers stroke fill" />
            <path
               inkscape:connector-curvature="0"
               id="path1312"
               transform="matrix(0.26458333,0,0,0.26458333,0,196.45832)"
               d="m -718.55273,136.5293 c -24.81903,0.43381 -51.20004,27.62664 -49.87696,52.31445 -1.36576,25.48418 26.78925,53.63919 52.27344,52.27344 h 134.0918 v -9.0918 h -134.0918 c -19.96987,1.91207 -45.09371,-23.21177 -43.18164,-43.18164 -1.91207,-19.96987 23.21177,-45.0937 43.18164,-43.18164 19.96988,-1.91208 45.09374,23.21176 43.18164,43.18164 v 25 h 9.0918 v -25 c 1.36576,-25.4842 -26.78924,-53.63725 -52.27344,-52.27148 -0.79638,-0.0427 -1.59587,-0.057 -2.39648,-0.043 z m 45.57812,177.31445 v 9.0918 h 9.0918 v -9.0918 z"
               style="stroke-width:6.9784193;stroke-linecap:round;paint-order:markers stroke fill" />
            <path
               inkscape:connector-curvature="0"
               id="path1314"
               transform="matrix(0.26458333,0,0,0.26458333,0,196.45832)"
               d="m -716.15625,118.38867 c -36.51277,-0.27315 -70.72823,33.94231 -70.45508,70.45508 -0.27315,36.51277 33.94231,70.72822 70.45508,70.45508 h 134.0918 v -9.0918 h -134.0918 c -30.99848,0.81946 -62.18274,-30.3648 -61.36328,-61.36328 -0.81946,-30.99848 30.3648,-62.18273 61.36328,-61.36328 30.9985,-0.81946 62.18277,30.36478 61.36328,61.36328 v 25 h 9.0918 v -25 c 0.27315,-36.51278 -33.94229,-70.72823 -70.45508,-70.45508 z m 61.36328,195.45508 v 9.0918 h 9.0918 v -9.0918 z"
               style="stroke-width:6.9784193;stroke-linecap:round;paint-order:markers stroke fill" />
            <path
               inkscape:connector-curvature="0"
               id="path1316"
               transform="matrix(0.26458333,0,0,0.26458333,0,196.45832)"
               d="m -716.15625,100.20703 c -47.54138,0.81946 -87.81726,41.09534 -88.63672,88.63672 0.81946,47.54137 41.09535,87.81724 88.63672,88.63672 h 134.0918 v -9.0918 h -134.0918 v 0.002 c -42.02709,-0.27313 -79.27177,-37.51979 -79.54492,-79.54687 0.27315,-42.02708 37.51784,-79.27175 79.54492,-79.54492 42.02711,0.27315 79.2718,37.51781 79.54492,79.54492 v 25 h 9.0918 v -25 c -0.81947,-47.54138 -41.09532,-87.81726 -88.63672,-88.63672 z m 79.54492,213.63672 v 9.0918 h 9.0918 v -9.0918 z"
               style="stroke-width:6.9784193;stroke-linecap:round;paint-order:markers stroke fill" />
            <path
               inkscape:connector-curvature="0"
               id="path1318"
               transform="matrix(0.26458333,0,0,0.26458333,0,196.45832)"
               d="m -716.15625,82.025391 c -58.56997,1.912073 -104.90628,48.248379 -106.81836,106.818359 1.91207,58.56996 48.2484,104.90626 106.81836,106.81836 h 134.0918 v -9.08984 h -134.0918 c -53.05565,-1.36577 -96.3608,-44.67288 -97.72656,-97.72852 1.36576,-53.05564 44.67093,-96.360781 97.72656,-97.726562 53.05567,1.365765 96.36083,44.670882 97.72656,97.726562 v 25 h 9.0918 v -25 C -611.24997,130.27379 -657.58625,83.937471 -716.15625,82.025391 Z m 97.72656,231.818359 v 9.0918 h 9.0918 v -9.0918 z"
               style="stroke-width:6.9784193;stroke-linecap:round;paint-order:markers stroke fill" />
            <path
               inkscape:connector-curvature="0"
               id="path1320"
               transform="matrix(0.26458333,0,0,0.26458333,0,196.45832)"
               d="m -716.15625,63.84375 c -69.59855,3.004689 -121.99531,55.40145 -125,125 3.00469,69.59853 55.40147,121.99529 125,125 h 115.9082 v 9.0918 h 9.0918 v -9.0918 h 9.0918 v -9.08984 h -134.0918 c -64.08426,-2.45838 -113.45177,-51.82592 -115.91016,-115.91016 2.45839,-64.08424 51.82592,-113.449802 115.91016,-115.908203 64.08428,2.458384 113.44986,51.823903 115.9082,115.908203 v 25 h 9.0918 v -25 c -3.0047,-69.59854 -55.40142,-121.99531 -125,-125 z"
               style="stroke-width:6.9784193;stroke-linecap:round;paint-order:markers stroke fill" />
          </g>
        </g>
        <g
           transform="rotate(-180,-198.23854,277.13918)"
           id="g1354">
          <g
             id="g1338"
             transform="translate(-137.10274)">
            <path
               id="path1326"
               transform="matrix(0.26458333,0,0,0.26458333,0,196.45832)"
               d="m -718.94922,154.57227 c -14.32932,0.45458 -33.60356,20.71937 -31.29883,34.27148 -2.45838,14.45558 19.63622,36.55017 34.0918,34.0918 h 134.0918 v -9.0918 h -100.00196 v -25 c 2.45839,-14.4556 -19.63425,-36.54823 -34.08984,-34.08984 -0.90347,-0.15365 -1.83768,-0.21195 -2.79297,-0.18164 z m 1.00586,8.95898 c 0.63005,0.0232 1.22828,0.12471 1.78711,0.3125 8.94127,-3.00469 28.00471,16.05874 25,25 v 25 h -25 c -8.94126,3.00469 -28.00469,-16.05873 -25,-25 -2.8169,-8.38244 13.76214,-25.66117 23.21289,-25.3125 z m 26.78711,150.3125 v 9.0918 h 9.08984 v -9.0918 z"
               style="stroke-width:6.9784193;stroke-linecap:round;paint-order:markers stroke fill"
               inkscape:connector-curvature="0" />
            <path
               id="path1328"
               transform="matrix(0.26458333,0,0,0.26458333,0,196.45832)"
               d="m -718.55273,136.5293 c -24.81903,0.43381 -51.20004,27.62664 -49.87696,52.31445 -1.36576,25.48418 26.78925,53.63919 52.27344,52.27344 h 134.0918 v -9.0918 h -134.0918 c -19.96987,1.91207 -45.09371,-23.21177 -43.18164,-43.18164 -1.91207,-19.96987 23.21177,-45.0937 43.18164,-43.18164 19.96988,-1.91208 45.09374,23.21176 43.18164,43.18164 v 25 h 9.0918 v -25 c 1.36576,-25.4842 -26.78924,-53.63725 -52.27344,-52.27148 -0.79638,-0.0427 -1.59587,-0.057 -2.39648,-0.043 z m 45.57812,177.31445 v 9.0918 h 9.0918 v -9.0918 z"
               style="stroke-width:6.9784193;stroke-linecap:round;paint-order:markers stroke fill"
               inkscape:connector-curvature="0" />
            <path
               id="path1330"
               transform="matrix(0.26458333,0,0,0.26458333,0,196.45832)"
               d="m -716.15625,118.38867 c -36.51277,-0.27315 -70.72823,33.94231 -70.45508,70.45508 -0.27315,36.51277 33.94231,70.72822 70.45508,70.45508 h 134.0918 v -9.0918 h -134.0918 c -30.99848,0.81946 -62.18274,-30.3648 -61.36328,-61.36328 -0.81946,-30.99848 30.3648,-62.18273 61.36328,-61.36328 30.9985,-0.81946 62.18277,30.36478 61.36328,61.36328 v 25 h 9.0918 v -25 c 0.27315,-36.51278 -33.94229,-70.72823 -70.45508,-70.45508 z m 61.36328,195.45508 v 9.0918 h 9.0918 v -9.0918 z"
               style="stroke-width:6.9784193;stroke-linecap:round;paint-order:markers stroke fill"
               inkscape:connector-curvature="0" />
            <path
               id="path1332"
               transform="matrix(0.26458333,0,0,0.26458333,0,196.45832)"
               d="m -716.15625,100.20703 c -47.54138,0.81946 -87.81726,41.09534 -88.63672,88.63672 0.81946,47.54137 41.09535,87.81724 88.63672,88.63672 h 134.0918 v -9.0918 h -134.0918 v 0.002 c -42.02709,-0.27313 -79.27177,-37.51979 -79.54492,-79.54687 0.27315,-42.02708 37.51784,-79.27175 79.54492,-79.54492 42.02711,0.27315 79.2718,37.51781 79.54492,79.54492 v 25 h 9.0918 v -25 c -0.81947,-47.54138 -41.09532,-87.81726 -88.63672,-88.63672 z m 79.54492,213.63672 v 9.0918 h 9.0918 v -9.0918 z"
               style="stroke-width:6.9784193;stroke-linecap:round;paint-order:markers stroke fill"
               inkscape:connector-curvature="0" />
            <path
               id="path1334"
               transform="matrix(0.26458333,0,0,0.26458333,0,196.45832)"
               d="m -716.15625,82.025391 c -58.56997,1.912073 -104.90628,48.248379 -106.81836,106.818359 1.91207,58.56996 48.2484,104.90626 106.81836,106.81836 h 134.0918 v -9.08984 h -134.0918 c -53.05565,-1.36577 -96.3608,-44.67288 -97.72656,-97.72852 1.36576,-53.05564 44.67093,-96.360781 97.72656,-97.726562 53.05567,1.365765 96.36083,44.670882 97.72656,97.726562 v 25 h 9.0918 v -25 C -611.24997,130.27379 -657.58625,83.937471 -716.15625,82.025391 Z m 97.72656,231.818359 v 9.0918 h 9.0918 v -9.0918 z"
               style="stroke-width:6.9784193;stroke-linecap:round;paint-order:markers stroke fill"
               inkscape:connector-curvature="0" />
            <path
               id="path1336"
               transform="matrix(0.26458333,0,0,0.26458333,0,196.45832)"
               d="m -716.15625,63.84375 c -69.59855,3.004689 -121.99531,55.40145 -125,125 3.00469,69.59853 55.40147,121.99529 125,125 h 115.9082 v 9.0918 h 9.0918 v -9.0918 h 9.0918 v -9.08984 h -134.0918 c -64.08426,-2.45838 -113.45177,-51.82592 -115.91016,-115.91016 2.45839,-64.08424 51.82592,-113.449802 115.91016,-115.908203 64.08428,2.458384 113.44986,51.823903 115.9082,115.908203 v 25 h 9.0918 v -25 c -3.0047,-69.59854 -55.40142,-121.99531 -125,-125 z"
               style="stroke-width:6.9784193;stroke-linecap:round;paint-order:markers stroke fill"
               inkscape:connector-curvature="0" />
          </g>
          <g
             id="g1352"
             transform="rotate(90,-222.55592,213.35031)">
            <path
               style="stroke-width:6.9784193;stroke-linecap:round;paint-order:markers stroke fill"
               d="m -718.94922,154.57227 c -14.32932,0.45458 -33.60356,20.71937 -31.29883,34.27148 -2.45838,14.45558 19.63622,36.55017 34.0918,34.0918 h 134.0918 v -9.0918 h -100.00196 v -25 c 2.45839,-14.4556 -19.63425,-36.54823 -34.08984,-34.08984 -0.90347,-0.15365 -1.83768,-0.21195 -2.79297,-0.18164 z m 1.00586,8.95898 c 0.63005,0.0232 1.22828,0.12471 1.78711,0.3125 8.94127,-3.00469 28.00471,16.05874 25,25 v 25 h -25 c -8.94126,3.00469 -28.00469,-16.05873 -25,-25 -2.8169,-8.38244 13.76214,-25.66117 23.21289,-25.3125 z m 26.78711,150.3125 v 9.0918 h 9.08984 v -9.0918 z"
               transform="matrix(0.26458333,0,0,0.26458333,0,196.45832)"
               id="path1340"
               inkscape:connector-curvature="0" />
            <path
               style="stroke-width:6.9784193;stroke-linecap:round;paint-order:markers stroke fill"
               d="m -718.55273,136.5293 c -24.81903,0.43381 -51.20004,27.62664 -49.87696,52.31445 -1.36576,25.48418 26.78925,53.63919 52.27344,52.27344 h 134.0918 v -9.0918 h -134.0918 c -19.96987,1.91207 -45.09371,-23.21177 -43.18164,-43.18164 -1.91207,-19.96987 23.21177,-45.0937 43.18164,-43.18164 19.96988,-1.91208 45.09374,23.21176 43.18164,43.18164 v 25 h 9.0918 v -25 c 1.36576,-25.4842 -26.78924,-53.63725 -52.27344,-52.27148 -0.79638,-0.0427 -1.59587,-0.057 -2.39648,-0.043 z m 45.57812,177.31445 v 9.0918 h 9.0918 v -9.0918 z"
               transform="matrix(0.26458333,0,0,0.26458333,0,196.45832)"
               id="path1342"
               inkscape:connector-curvature="0" />
            <path
               style="stroke-width:6.9784193;stroke-linecap:round;paint-order:markers stroke fill"
               d="m -716.15625,118.38867 c -36.51277,-0.27315 -70.72823,33.94231 -70.45508,70.45508 -0.27315,36.51277 33.94231,70.72822 70.45508,70.45508 h 134.0918 v -9.0918 h -134.0918 c -30.99848,0.81946 -62.18274,-30.3648 -61.36328,-61.36328 -0.81946,-30.99848 30.3648,-62.18273 61.36328,-61.36328 30.9985,-0.81946 62.18277,30.36478 61.36328,61.36328 v 25 h 9.0918 v -25 c 0.27315,-36.51278 -33.94229,-70.72823 -70.45508,-70.45508 z m 61.36328,195.45508 v 9.0918 h 9.0918 v -9.0918 z"
               transform="matrix(0.26458333,0,0,0.26458333,0,196.45832)"
               id="path1344"
               inkscape:connector-curvature="0" />
            <path
               style="stroke-width:6.9784193;stroke-linecap:round;paint-order:markers stroke fill"
               d="m -716.15625,100.20703 c -47.54138,0.81946 -87.81726,41.09534 -88.63672,88.63672 0.81946,47.54137 41.09535,87.81724 88.63672,88.63672 h 134.0918 v -9.0918 h -134.0918 v 0.002 c -42.02709,-0.27313 -79.27177,-37.51979 -79.54492,-79.54687 0.27315,-42.02708 37.51784,-79.27175 79.54492,-79.54492 42.02711,0.27315 79.2718,37.51781 79.54492,79.54492 v 25 h 9.0918 v -25 c -0.81947,-47.54138 -41.09532,-87.81726 -88.63672,-88.63672 z m 79.54492,213.63672 v 9.0918 h 9.0918 v -9.0918 z"
               transform="matrix(0.26458333,0,0,0.26458333,0,196.45832)"
               id="path1346"
               inkscape:connector-curvature="0" />
            <path
               style="stroke-width:6.9784193;stroke-linecap:round;paint-order:markers stroke fill"
               d="m -716.15625,82.025391 c -58.56997,1.912073 -104.90628,48.248379 -106.81836,106.818359 1.91207,58.56996 48.2484,104.90626 106.81836,106.81836 h 134.0918 v -9.08984 h -134.0918 c -53.05565,-1.36577 -96.3608,-44.67288 -97.72656,-97.72852 1.36576,-53.05564 44.67093,-96.360781 97.72656,-97.726562 53.05567,1.365765 96.36083,44.670882 97.72656,97.726562 v 25 h 9.0918 v -25 C -611.24997,130.27379 -657.58625,83.937471 -716.15625,82.025391 Z m 97.72656,231.818359 v 9.0918 h 9.0918 v -9.0918 z"
               transform="matrix(0.26458333,0,0,0.26458333,0,196.45832)"
               id="path1348"
               inkscape:connector-curvature="0" />
            <path
               style="stroke-width:6.9784193;stroke-linecap:round;paint-order:markers stroke fill"
               d="m -716.15625,63.84375 c -69.59855,3.004689 -121.99531,55.40145 -125,125 3.00469,69.59853 55.40147,121.99529 125,125 h 115.9082 v 9.0918 h 9.0918 v -9.0918 h 9.0918 v -9.08984 h -134.0918 c -64.08426,-2.45838 -113.45177,-51.82592 -115.91016,-115.91016 2.45839,-64.08424 51.82592,-113.449802 115.91016,-115.908203 64.08428,2.458384 113.44986,51.823903 115.9082,115.908203 v 25 h 9.0918 v -25 c -3.0047,-69.59854 -55.40142,-121.99531 -125,-125 z"
               transform="matrix(0.26458333,0,0,0.26458333,0,196.45832)"
               id="path1350"
               inkscape:connector-curvature="0" />
          </g>
        </g>
      </g>
    </g>
    <g
       transform="matrix(0.44788532,0,0,0.44788532,23.104346,217.48622)"
       id="g1159">
      <g
         aria-label="MS"
         style="font-size:10.58333302px;font-family:sans-serif;letter-spacing:0px;word-spacing:0px;fill:#000000;stroke-width:0.26458332"
         id="text1153">
        <path
           d="m -13.102167,168.46541 q 0.148166,-0.23284 0.370416,-0.32809 0.22225,-0.10583 0.455084,-0.10583 0.275166,0 0.4445,0.20108 0.169333,0.1905 0.169333,0.51859 v 5.02708 l 3.5348333,-5.31283 q 0.1481667,-0.23284 0.3598333,-0.32809 0.22225,-0.10583 0.4656667,-0.10583 0.2751666,0 0.4445,0.20108 0.1693333,0.1905 0.1693333,0.51859 v 7.59883 h -1.4393333 v -5.57742 l -3.2173333,5.08 q -0.179917,0.28575 -0.391583,0.39159 -0.211667,0.10583 -0.433917,0.10583 -0.1905,0 -0.359833,-0.0635 -0.169334,-0.0741 -0.296334,-0.20108 -0.127,-0.127 -0.201083,-0.29634 -0.07408,-0.16933 -0.07408,-0.381 v -4.6355 l -3.534833,5.57742 h -1.7145 z"
           style="-inkscape-font-specification:Strasua"
           id="path1161"
           inkscape:connector-curvature="0" />
        <path
           d="m -5.7073936,176.34999 v -1.43933 h 2.8892499 q 0.66675,0 1.1006666,-0.3175 0.4339167,-0.3175 0.4339167,-0.8255 0,-0.254 -0.1164167,-0.46567 -0.1164167,-0.21167 -0.3175,-0.35983 -0.2010833,-0.15875 -0.4868333,-0.24342 -0.28575,-0.0847 -0.6138333,-0.0847 h -0.6561667 q -0.5079999,0 -0.9419166,-0.15875 -0.4339167,-0.16933 -0.7514166,-0.46566 -0.3175,-0.30692 -0.4974167,-0.70909 -0.1799167,-0.41275 -0.1799167,-0.91016 0,-0.48684 0.1799167,-0.89959 0.1905,-0.41275 0.5291667,-0.71966 0.3386666,-0.30692 0.8149166,-0.47625 0.47625,-0.17992 1.04775,-0.17992 h 2.74108322 v 1.43933 H -3.3473104 q -0.4550833,0 -0.7196666,0.254 -0.2645833,0.24342 -0.2645833,0.59267 0,0.381 0.2645833,0.635 0.2751666,0.254 0.7196666,0.254 h 0.8149167 q 0.5503333,0 1.0159999,0.1905 0.4656667,0.17992 0.80433336,0.51858 0.33866665,0.33867 0.52916665,0.80434 0.19049999,0.46566 0.19049999,1.016 0,0.56091 -0.20108333,1.02658 -0.20108332,0.46567 -0.58208331,0.80433 -0.37041666,0.33867 -0.88899996,0.52917 -0.5185833,0.1905 -1.1535833,0.1905 z"
           style="-inkscape-font-specification:Strasua"
           id="path1163"
           inkscape:connector-curvature="0" />
      </g>
      <g
         aria-label="M"
         transform="scale(-1,1)"
         style="font-size:10.58333302px;font-family:sans-serif;letter-spacing:0px;word-spacing:0px;fill:#000000;stroke-width:0.26458332"
         id="text1157">
        <path
           d="m -7.4032889,168.46365 q 0.1481666,-0.23283 0.3704166,-0.32808 0.22225,-0.10583 0.4550834,-0.10583 0.2751666,0 0.4444999,0.20108 0.1693334,0.1905 0.1693334,0.51858 v 5.02709 l 3.5348332,-5.31284 q 0.1481667,-0.23283 0.3598333,-0.32808 0.22225,-0.10583 0.4656667,-0.10583 0.2751666,0 0.4445,0.20108 0.16933329,0.1905 0.16933329,0.51858 v 7.59884 H -2.4291224 v -5.57742 l -3.2173332,5.08 q -0.1799167,0.28575 -0.3915834,0.39158 -0.2116666,0.10584 -0.4339166,0.10584 -0.1905,0 -0.3598333,-0.0635 -0.1693334,-0.0741 -0.2963334,-0.20109 -0.127,-0.127 -0.2010833,-0.29633 -0.074083,-0.16933 -0.074083,-0.381 v -4.6355 l -3.5348334,5.57742 h -1.7145 z"
           style="-inkscape-font-specification:Strasua"
           id="path1166"
           inkscape:connector-curvature="0" />
      </g>
    </g>
    <g
       aria-label="WaveShaper"
       style="font-size:10.58333302px;font-family:'OmegaForce Condensed';-inkscape-font-specification:'OmegaForce Condensed, ';letter-spacing:0px;word-spacing:0px;fill:#000000;stroke-width:0.26458332"
       id="text917"
       transform="translate(0,0.52916667)">
      <path
         d="m 9.1787691,197.64684 h 0.5333008 l 0.2211751,2.26549 0.26665,-1.46554 h 0.506429 l 0.310059,1.46554 0.173633,-2.26549 h 0.537435 l -0.355534,3.08612 h -0.568441 l -0.3514,-1.62058 -0.328662,1.62058 H 9.5591076 Z"
         style="-inkscape-font-specification:'DejaVu Sans Mono Bold'"
         id="path876"
         inkscape:connector-curvature="0" />
      <path
         d="m 13.172324,199.64568 q -0.338998,0 -0.473357,0.0868 -0.134358,0.0868 -0.134358,0.29766 0,0.15709 0.09302,0.25011 0.09302,0.093 0.252181,0.093 0.239779,0 0.372071,-0.17984 0.132291,-0.1819 0.132291,-0.50643 v -0.0413 z m 0.843359,-0.23357 v 1.32085 h -0.601514 v -0.25839 q -0.109554,0.15297 -0.28112,0.23565 -0.171565,0.0827 -0.378271,0.0827 -0.394808,0 -0.615983,-0.20877 -0.219108,-0.20877 -0.219108,-0.58291 0,-0.40515 0.262516,-0.59738 0.262516,-0.19431 0.812354,-0.19431 h 0.419612 v -0.10128 q 0,-0.14676 -0.107487,-0.22118 -0.10542,-0.0765 -0.312125,-0.0765 -0.217041,0 -0.42168,0.0558 -0.202572,0.0538 -0.423747,0.17364 v -0.51677 q 0.200505,-0.0827 0.407211,-0.12195 0.206705,-0.0393 0.438216,-0.0393 0.564306,0 0.791683,0.22944 0.229443,0.22945 0.229443,0.82063 z"
         style="-inkscape-font-specification:'DejaVu Sans Mono Bold'"
         id="path878"
         inkscape:connector-curvature="0" />
      <path
         d="m 16.655315,198.41785 -0.735872,2.31511 h -0.746208 l -0.735872,-2.31511 h 0.613915 l 0.494027,1.80661 0.496094,-1.80661 z"
         style="-inkscape-font-specification:'DejaVu Sans Mono Bold'"
         id="path880"
         inkscape:connector-curvature="0" />
      <path
         d="m 19.096509,200.61927 q -0.21084,0.0868 -0.429948,0.13022 -0.219108,0.0434 -0.463021,0.0434 -0.580843,0 -0.888834,-0.31006 -0.305925,-0.31212 -0.305925,-0.8971 0,-0.56637 0.29559,-0.89504 0.295589,-0.32866 0.806152,-0.32866 0.514697,0 0.797884,0.30593 0.285254,0.30385 0.285254,0.85782 v 0.24598 h -1.568897 q 0.0021,0.27286 0.161231,0.40721 0.159163,0.13436 0.475423,0.13436 0.208773,0 0.411344,-0.0599 0.202572,-0.0599 0.423747,-0.19017 z m -0.51263,-1.30225 q -0.0041,-0.23978 -0.124023,-0.36173 -0.117823,-0.12403 -0.349333,-0.12403 -0.208773,0 -0.332796,0.12816 -0.124024,0.12609 -0.146761,0.35967 z"
         style="-inkscape-font-specification:'DejaVu Sans Mono Bold'"
         id="path882"
         inkscape:connector-curvature="0" />
      <path
         d="m 20.419426,199.37903 q -0.460954,-0.1757 -0.624251,-0.36793 -0.163298,-0.19431 -0.163298,-0.5209 0,-0.41961 0.268718,-0.65939 0.268717,-0.23978 0.737939,-0.23978 0.212907,0 0.425814,0.0496 0.212907,0.0475 0.421679,0.14263 v 0.59531 q -0.19637,-0.1385 -0.398942,-0.21084 -0.202571,-0.0724 -0.401009,-0.0724 -0.221175,0 -0.338997,0.0889 -0.117822,0.0889 -0.117822,0.25425 0,0.12816 0.08475,0.21291 0.08682,0.0827 0.359668,0.18397 l 0.262516,0.0992 q 0.37207,0.13642 0.54777,0.36173 0.1757,0.22531 0.1757,0.56844 0,0.46716 -0.276985,0.69867 -0.274919,0.22944 -0.833024,0.22944 -0.229444,0 -0.460954,-0.0558 -0.229444,-0.0537 -0.444418,-0.16123 v -0.63045 q 0.243913,0.17363 0.47129,0.25838 0.229443,0.0848 0.452685,0.0848 0.225309,0 0.349333,-0.10129 0.124023,-0.10335 0.124023,-0.28732 0,-0.13849 -0.08268,-0.24184 -0.08268,-0.10542 -0.239779,-0.16537 z"
         style="-inkscape-font-specification:'DejaVu Sans Mono Bold'"
         id="path884"
         inkscape:connector-curvature="0" />
      <path
         d="m 24.12566,199.23021 v 1.50275 h -0.601514 v -1.40974 q 0,-0.25011 -0.07235,-0.3576 -0.07028,-0.10748 -0.23151,-0.10748 -0.165365,0 -0.258383,0.14676 -0.09302,0.14469 -0.09302,0.40307 v 1.32499 h -0.601514 v -3.21635 h 0.601514 v 1.24851 q 0.06408,-0.19224 0.219108,-0.29766 0.155029,-0.10542 0.374137,-0.10542 0.328662,0 0.496094,0.21911 0.167432,0.21704 0.167432,0.64906 z"
         style="-inkscape-font-specification:'DejaVu Sans Mono Bold'"
         id="path886"
         inkscape:connector-curvature="0" />
      <path
         d="m 25.905395,199.64568 q -0.338997,0 -0.473356,0.0868 -0.134359,0.0868 -0.134359,0.29766 0,0.15709 0.09302,0.25011 0.09302,0.093 0.252181,0.093 0.239778,0 0.37207,-0.17984 0.132292,-0.1819 0.132292,-0.50643 v -0.0413 z m 0.843359,-0.23357 v 1.32085 h -0.601513 v -0.25839 q -0.109554,0.15297 -0.28112,0.23565 -0.171566,0.0827 -0.378271,0.0827 -0.394808,0 -0.615983,-0.20877 -0.219109,-0.20877 -0.219109,-0.58291 0,-0.40515 0.262517,-0.59738 0.262516,-0.19431 0.812353,-0.19431 h 0.419613 v -0.10128 q 0,-0.14676 -0.107487,-0.22118 -0.10542,-0.0765 -0.312126,-0.0765 -0.217041,0 -0.421679,0.0558 -0.202572,0.0538 -0.423747,0.17364 v -0.51677 q 0.200504,-0.0827 0.40721,-0.12195 0.206706,-0.0393 0.438216,-0.0393 0.564307,0 0.791683,0.22944 0.229443,0.22945 0.229443,0.82063 z"
         style="-inkscape-font-specification:'DejaVu Sans Mono Bold'"
         id="path888"
         inkscape:connector-curvature="0" />
      <path
         d="m 27.91871,200.40636 v 1.20716 h -0.603581 v -3.19567 h 0.603581 v 0.34727 q 0.09508,-0.20051 0.250114,-0.30179 0.155029,-0.10129 0.363802,-0.10129 0.396875,0 0.615983,0.31833 0.219108,0.31832 0.219108,0.8971 0,0.58705 -0.223242,0.90124 -0.221175,0.31419 -0.63252,0.31419 -0.186035,0 -0.334863,-0.0951 -0.146761,-0.0972 -0.258382,-0.29146 z m 0.843359,-0.83302 q 0,-0.33487 -0.111621,-0.52504 -0.111621,-0.19016 -0.307991,-0.19016 -0.196371,0 -0.310059,0.19016 -0.113688,0.19017 -0.113688,0.52504 0,0.33486 0.113688,0.52503 0.113688,0.19017 0.310059,0.19017 0.19637,0 0.307991,-0.19017 0.111621,-0.19017 0.111621,-0.52503 z"
         style="-inkscape-font-specification:'DejaVu Sans Mono Bold'"
         id="path890"
         inkscape:connector-curvature="0" />
      <path
         d="m 31.829581,200.61927 q -0.210839,0.0868 -0.429947,0.13022 -0.219109,0.0434 -0.463021,0.0434 -0.580843,0 -0.888835,-0.31006 -0.305924,-0.31212 -0.305924,-0.8971 0,-0.56637 0.295589,-0.89504 0.295589,-0.32866 0.806152,-0.32866 0.514697,0 0.797884,0.30593 0.285254,0.30385 0.285254,0.85782 v 0.24598 h -1.568896 q 0.0021,0.27286 0.16123,0.40721 0.159164,0.13436 0.475423,0.13436 0.208773,0 0.411345,-0.0599 0.202571,-0.0599 0.423746,-0.19017 z m -0.51263,-1.30225 q -0.0041,-0.23978 -0.124023,-0.36173 -0.117822,-0.12403 -0.349333,-0.12403 -0.208773,0 -0.332796,0.12816 -0.124024,0.12609 -0.146761,0.35967 z"
         style="-inkscape-font-specification:'DejaVu Sans Mono Bold'"
         id="path892"
         inkscape:connector-curvature="0" />
      <path
         d="m 34.477481,199.05657 q -0.09922,-0.0909 -0.233578,-0.13642 -0.132291,-0.0455 -0.291455,-0.0455 -0.192236,0 -0.33693,0.0682 -0.142627,0.0661 -0.221175,0.19431 -0.04961,0.0786 -0.07028,0.19017 -0.0186,0.11162 -0.0186,0.33899 v 1.06661 h -0.605647 v -2.31511 h 0.605647 v 0.35967 q 0.08888,-0.19844 0.272852,-0.30592 0.183968,-0.10956 0.429948,-0.10956 0.124023,0 0.241846,0.031 0.119889,0.0289 0.227376,0.0868 z"
         style="-inkscape-font-specification:'DejaVu Sans Mono Bold'"
         id="path894"
         inkscape:connector-curvature="0" />
    </g>
    <g
       aria-label="SHAPE A"
       style="font-size:2.46944451px;font-family:'DejaVu Sans Mono';-inkscape-font-specification:'DejaVu Sans Mono';letter-spacing:0px;word-spacing:0px;fill:#000000;stroke-width:0.26458332"
       id="text1013"
       transform="translate(70.762869,-12.02756)">
      <path
         d="m -62.151894,228.63992 v 0.24719 q -0.110932,-0.0711 -0.22307,-0.10732 -0.110932,-0.0362 -0.224275,-0.0362 -0.172427,0 -0.272507,0.0808 -0.10008,0.0796 -0.10008,0.21583 0,0.11938 0.06511,0.18208 0.06632,0.0627 0.24598,0.1049 l 0.127813,0.0289 q 0.253214,0.0591 0.368969,0.18569 0.115756,0.12661 0.115756,0.34485 0,0.25683 -0.159164,0.39188 -0.159163,0.13505 -0.463021,0.13505 -0.126607,0 -0.25442,-0.0277 -0.127813,-0.0265 -0.256832,-0.0808 v -0.25924 q 0.138665,0.088 0.261655,0.12901 0.124196,0.041 0.249597,0.041 0.184485,0 0.286977,-0.082 0.102491,-0.0832 0.102491,-0.23151 0,-0.13505 -0.07114,-0.20619 -0.06994,-0.0711 -0.244774,-0.10973 l -0.130224,-0.0301 q -0.250803,-0.0567 -0.364147,-0.17122 -0.113344,-0.11455 -0.113344,-0.30748 0,-0.24115 0.161575,-0.38585 0.162781,-0.1459 0.431671,-0.1459 0.103697,0 0.218247,0.0241 0.114549,0.0229 0.241156,0.0699 z"
         id="path1098"
         inkscape:connector-curvature="0" />
      <path
         d="m -61.721429,228.57843 h 0.244774 v 0.73794 h 0.666798 v -0.73794 h 0.244774 v 1.80023 h -0.244774 v -0.85731 h -0.666798 v 0.85731 h -0.244774 z"
         id="path1100"
         inkscape:connector-curvature="0" />
      <path
         d="m -59.658333,228.79306 -0.256832,0.92122 h 0.513663 z m -0.147106,-0.21463 h 0.295417 l 0.551043,1.80023 h -0.252009 l -0.132636,-0.46905 h -0.630625 l -0.130224,0.46905 h -0.252009 z"
         id="path1102"
         inkscape:connector-curvature="0" />
      <path
         d="m -58.434463,228.77859 v 0.67644 h 0.282153 q 0.16881,0 0.262861,-0.0892 0.09526,-0.0892 0.09526,-0.24959 0,-0.16037 -0.09405,-0.24839 -0.09405,-0.0892 -0.264067,-0.0892 z m -0.243568,-0.20016 h 0.525721 q 0.301446,0 0.456992,0.13746 0.155546,0.13625 0.155546,0.40032 0,0.26647 -0.155546,0.40273 -0.15434,0.13625 -0.456992,0.13625 h -0.282153 v 0.72347 h -0.243568 z"
         id="path1105"
         inkscape:connector-curvature="0" />
      <path
         d="m -57.192506,228.57843 h 1.068324 v 0.20498 h -0.824756 v 0.53296 h 0.788582 v 0.20498 h -0.788582 v 0.65233 h 0.847666 v 0.20498 h -1.091234 z"
         id="path1107"
         inkscape:connector-curvature="0" />
      <path
         d="m -53.716232,228.79306 -0.256832,0.92122 h 0.513664 z m -0.147106,-0.21463 h 0.295417 l 0.551043,1.80023 h -0.252009 l -0.132636,-0.46905 h -0.630625 l -0.130224,0.46905 h -0.252009 z"
         id="path1109"
         inkscape:connector-curvature="0" />
    </g>
    <g
       aria-label="CV 1"
       style="font-size:2.46944451px;font-family:'DejaVu Sans Mono';-inkscape-font-specification:'DejaVu Sans Mono';letter-spacing:0px;word-spacing:0px;fill:#000000;stroke-width:0.26458332"
       id="text974">
      <path
         d="m 29.687164,218.27469 q -0.09285,0.0494 -0.190514,0.0736 -0.09767,0.0253 -0.207395,0.0253 -0.34606,0 -0.537779,-0.24477 -0.190514,-0.24478 -0.190514,-0.68851 0,-0.44131 0.19172,-0.68729 0.192925,-0.24719 0.536573,-0.24719 0.109727,0 0.207395,0.0253 0.09767,0.0241 0.190514,0.0736 v 0.24959 q -0.08923,-0.0736 -0.19172,-0.11213 -0.102491,-0.0386 -0.206189,-0.0386 -0.237539,0 -0.355706,0.18328 -0.118167,0.18328 -0.118167,0.55345 0,0.36897 0.118167,0.55225 0.118167,0.18328 0.355706,0.18328 0.106109,0 0.207395,-0.0386 0.102492,-0.0386 0.190514,-0.11214 z"
         id="path1024" />
      <path
         d="m 30.621646,218.13361 0.42323,-1.59525 h 0.252009 l -0.526928,1.80023 h -0.295416 l -0.526928,-1.80023 h 0.252009 z"
         id="path1026" />
      <path
         d="m 33.175496,218.13361 h 0.378616 v -1.3758 l -0.407555,0.0916 v -0.22186 l 0.405143,-0.0892 h 0.243568 v 1.59525 h 0.373793 v 0.20498 h -0.993565 z"
         id="path1028" />
    </g>
    <g
       aria-label="CV 2"
       style="font-size:2.46944451px;font-family:'DejaVu Sans Mono';-inkscape-font-specification:'DejaVu Sans Mono';letter-spacing:0px;word-spacing:0px;fill:#000000;stroke-width:0.26458332"
       id="text978">
      <path
         d="m 29.708263,234.1497 q -0.09285,0.0494 -0.190514,0.0736 -0.09767,0.0253 -0.207395,0.0253 -0.346059,0 -0.537779,-0.24478 -0.190514,-0.24477 -0.190514,-0.6885 0,-0.44132 0.19172,-0.6873 0.192925,-0.24718 0.536573,-0.24718 0.109727,0 0.207395,0.0253 0.09767,0.0241 0.190514,0.0736 v 0.2496 q -0.08923,-0.0735 -0.19172,-0.11214 -0.102491,-0.0386 -0.206189,-0.0386 -0.237539,0 -0.355706,0.18327 -0.118166,0.18328 -0.118166,0.55346 0,0.36897 0.118166,0.55225 0.118167,0.18328 0.355706,0.18328 0.106109,0 0.207395,-0.0386 0.102492,-0.0386 0.190514,-0.11214 z"
         id="path1031" />
      <path
         d="m 30.642745,234.00862 0.42323,-1.59525 h 0.252009 l -0.526927,1.80024 H 30.49564 l -0.526928,-1.80024 h 0.252009 z"
         id="path1033" />
      <path
         d="m 33.32079,234.00862 h 0.827168 v 0.20499 h -1.093646 v -0.20499 q 0.225482,-0.23753 0.394291,-0.41961 0.16881,-0.18207 0.232717,-0.25683 0.120578,-0.14711 0.16278,-0.23754 0.0422,-0.0916 0.0422,-0.1869 0,-0.15072 -0.08923,-0.23633 -0.08802,-0.0856 -0.242363,-0.0856 -0.109726,0 -0.230304,0.0398 -0.120579,0.0398 -0.255626,0.12058 v -0.24598 q 0.124195,-0.0591 0.243568,-0.0892 0.120578,-0.0301 0.237539,-0.0301 0.264067,0 0.424436,0.14107 0.161575,0.13987 0.161575,0.36777 0,0.11575 -0.05426,0.23151 -0.05306,0.11575 -0.173633,0.25562 -0.06752,0.0784 -0.196543,0.21705 -0.127813,0.13866 -0.390674,0.41478 z"
         id="path1035" />
    </g>
    <g
       aria-label="CV 3"
       style="font-size:2.46944451px;font-family:'DejaVu Sans Mono';-inkscape-font-specification:'DejaVu Sans Mono';letter-spacing:0px;word-spacing:0px;fill:#000000;stroke-width:0.26458332"
       id="text982">
      <path
         d="m 29.696207,250.02467 q -0.09285,0.0494 -0.190514,0.0736 -0.09767,0.0253 -0.207395,0.0253 -0.34606,0 -0.537779,-0.24477 -0.190514,-0.24477 -0.190514,-0.6885 0,-0.44132 0.191719,-0.6873 0.192926,-0.24718 0.536574,-0.24718 0.109726,0 0.207395,0.0253 0.09767,0.0241 0.190514,0.0735 v 0.2496 q -0.08923,-0.0736 -0.19172,-0.11214 -0.102492,-0.0386 -0.206189,-0.0386 -0.237539,0 -0.355706,0.18328 -0.118167,0.18328 -0.118167,0.55346 0,0.36897 0.118167,0.55225 0.118167,0.18328 0.355706,0.18328 0.106109,0 0.207395,-0.0386 0.102491,-0.0386 0.190514,-0.11214 z"
         id="path1060" />
      <path
         d="m 30.630689,249.88359 0.42323,-1.59525 h 0.252009 L 30.779,250.08858 h -0.295417 l -0.526927,-1.80024 h 0.252009 z"
         id="path1062" />
      <path
         d="m 33.794665,249.12516 q 0.17725,0.047 0.271301,0.1676 0.09405,0.11937 0.09405,0.29903 0,0.2484 -0.167604,0.39068 -0.166398,0.14107 -0.461815,0.14107 -0.124195,0 -0.253214,-0.0229 -0.129019,-0.0229 -0.253215,-0.0663 v -0.24237 q 0.12299,0.0639 0.242363,0.0953 0.119372,0.0314 0.237539,0.0314 0.20016,0 0.307475,-0.0904 0.107314,-0.0904 0.107314,-0.26045 0,-0.15675 -0.107314,-0.24839 -0.107315,-0.0928 -0.290594,-0.0928 h -0.185691 v -0.20016 h 0.185691 q 0.167604,0 0.261655,-0.0736 0.09405,-0.0736 0.09405,-0.20498 0,-0.13867 -0.08802,-0.21222 -0.08682,-0.0748 -0.248392,-0.0748 -0.107314,0 -0.221864,0.0241 -0.114549,0.0241 -0.239951,0.0723 v -0.22427 q 0.1459,-0.0386 0.259244,-0.0579 0.114549,-0.0193 0.202571,-0.0193 0.262861,0 0.419613,0.13263 0.157958,0.13143 0.157958,0.34968 0,0.14831 -0.0832,0.24719 -0.08199,0.0989 -0.239951,0.13987 z"
         id="path1064" />
    </g>
    <g
       aria-label="SHAPE B"
       style="font-size:2.46944451px;font-family:'DejaVu Sans Mono';-inkscape-font-specification:'DejaVu Sans Mono';letter-spacing:0px;word-spacing:0px;fill:#000000;stroke-width:0.26458332"
       id="text1017"
       transform="translate(70.771978,-1.444195)">
      <path
         d="m -62.151894,233.93159 v 0.24719 q -0.110932,-0.0711 -0.22307,-0.10731 -0.110932,-0.0362 -0.224275,-0.0362 -0.172427,0 -0.272507,0.0808 -0.10008,0.0796 -0.10008,0.21583 0,0.11938 0.06511,0.18208 0.06632,0.0627 0.24598,0.1049 l 0.127813,0.0289 q 0.253214,0.0591 0.368969,0.18569 0.115756,0.12661 0.115756,0.34485 0,0.25684 -0.159164,0.39188 -0.159163,0.13505 -0.463021,0.13505 -0.126607,0 -0.25442,-0.0277 -0.127813,-0.0265 -0.256832,-0.0808 v -0.25924 q 0.138665,0.088 0.261655,0.12902 0.124196,0.041 0.249597,0.041 0.184485,0 0.286977,-0.082 0.102491,-0.0832 0.102491,-0.23151 0,-0.13505 -0.07114,-0.20619 -0.06994,-0.0711 -0.244774,-0.10973 l -0.130224,-0.0301 q -0.250803,-0.0567 -0.364147,-0.17122 -0.113344,-0.11455 -0.113344,-0.30748 0,-0.24115 0.161575,-0.38585 0.162781,-0.1459 0.431671,-0.1459 0.103697,0 0.218247,0.0241 0.114549,0.0229 0.241156,0.0699 z"
         id="path1083"
         inkscape:connector-curvature="0" />
      <path
         d="m -61.721429,233.8701 h 0.244774 v 0.73794 h 0.666798 v -0.73794 h 0.244774 v 1.80023 h -0.244774 v -0.85731 h -0.666798 v 0.85731 h -0.244774 z"
         id="path1085"
         inkscape:connector-curvature="0" />
      <path
         d="m -59.658333,234.08473 -0.256832,0.92122 h 0.513663 z m -0.147106,-0.21463 h 0.295417 l 0.551043,1.80023 h -0.252009 l -0.132636,-0.46905 h -0.630625 l -0.130224,0.46905 h -0.252009 z"
         id="path1087"
         inkscape:connector-curvature="0" />
      <path
         d="m -58.434463,234.07026 v 0.67644 h 0.282153 q 0.16881,0 0.262861,-0.0892 0.09526,-0.0892 0.09526,-0.2496 0,-0.16037 -0.09405,-0.24839 -0.09405,-0.0892 -0.264067,-0.0892 z m -0.243568,-0.20016 h 0.525721 q 0.301446,0 0.456992,0.13746 0.155546,0.13625 0.155546,0.40032 0,0.26648 -0.155546,0.40273 -0.15434,0.13625 -0.456992,0.13625 h -0.282153 v 0.72347 h -0.243568 z"
         id="path1089"
         inkscape:connector-curvature="0" />
      <path
         d="m -57.192506,233.8701 h 1.068324 v 0.20498 h -0.824756 v 0.53296 h 0.788582 v 0.20498 h -0.788582 v 0.65233 h 0.847666 v 0.20498 h -1.091234 z"
         id="path1092"
         inkscape:connector-curvature="0" />
      <path
         d="m -54.014061,234.81061 v 0.65956 h 0.288182 q 0.212218,0 0.302652,-0.0735 0.09043,-0.0748 0.09043,-0.24477 0,-0.17605 -0.09526,-0.25804 -0.09526,-0.0832 -0.297829,-0.0832 z m 0,-0.74035 v 0.5426 h 0.283359 q 0.176045,0 0.254421,-0.0675 0.07958,-0.0675 0.07958,-0.21825 0,-0.13625 -0.07838,-0.19654 -0.07717,-0.0603 -0.255626,-0.0603 z m -0.244774,-0.20016 h 0.532956 q 0.276125,0 0.425642,0.11937 0.149517,0.11937 0.149517,0.33762 0,0.16519 -0.07958,0.26045 -0.07838,0.0953 -0.236333,0.11937 0.17725,0.0265 0.27733,0.15193 0.101286,0.1242 0.101286,0.31712 0,0.24478 -0.160369,0.37018 -0.160369,0.12419 -0.477491,0.12419 h -0.532956 z"
         id="path1094"
         inkscape:connector-curvature="0" />
    </g>
    <g
       aria-label="SHAPE C"
       style="font-size:2.46944451px;font-family:'DejaVu Sans Mono';-inkscape-font-specification:'DejaVu Sans Mono';letter-spacing:0px;word-spacing:0px;fill:#000000;stroke-width:0.26458332"
       id="text1021"
       transform="translate(70.829686,9.13908)">
      <path
         d="m -62.151894,239.22327 v 0.24718 q -0.110932,-0.0711 -0.22307,-0.10731 -0.110932,-0.0362 -0.224275,-0.0362 -0.172427,0 -0.272507,0.0808 -0.10008,0.0796 -0.10008,0.21584 0,0.11937 0.06511,0.18207 0.06632,0.0627 0.24598,0.1049 l 0.127813,0.0289 q 0.253214,0.0591 0.368969,0.18569 0.115756,0.12661 0.115756,0.34486 0,0.25683 -0.159164,0.39188 -0.159163,0.13504 -0.463021,0.13504 -0.126607,0 -0.25442,-0.0277 -0.127813,-0.0265 -0.256832,-0.0808 v -0.25924 q 0.138665,0.088 0.261655,0.12902 0.124196,0.041 0.249597,0.041 0.184485,0 0.286977,-0.082 0.102491,-0.0832 0.102491,-0.23151 0,-0.13505 -0.07114,-0.20619 -0.06994,-0.0711 -0.244774,-0.10972 l -0.130224,-0.0302 q -0.250803,-0.0567 -0.364147,-0.17122 -0.113344,-0.11455 -0.113344,-0.30747 0,-0.24116 0.161575,-0.38586 0.162781,-0.1459 0.431671,-0.1459 0.103697,0 0.218247,0.0241 0.114549,0.0229 0.241156,0.0699 z"
         id="path1068"
         inkscape:connector-curvature="0" />
      <path
         d="m -61.721429,239.16177 h 0.244774 v 0.73794 h 0.666798 v -0.73794 h 0.244774 v 1.80024 h -0.244774 v -0.85732 h -0.666798 v 0.85732 h -0.244774 z"
         id="path1070"
         inkscape:connector-curvature="0" />
      <path
         d="m -59.658333,239.3764 -0.256832,0.92122 h 0.513663 z m -0.147106,-0.21463 h 0.295417 l 0.551043,1.80024 h -0.252009 l -0.132636,-0.46905 h -0.630625 l -0.130224,0.46905 h -0.252009 z"
         id="path1072"
         inkscape:connector-curvature="0" />
      <path
         d="m -58.434463,239.36193 v 0.67645 h 0.282153 q 0.16881,0 0.262861,-0.0892 0.09526,-0.0892 0.09526,-0.2496 0,-0.16037 -0.09405,-0.24839 -0.09405,-0.0892 -0.264067,-0.0892 z m -0.243568,-0.20016 h 0.525721 q 0.301446,0 0.456992,0.13746 0.155546,0.13625 0.155546,0.40032 0,0.26648 -0.155546,0.40273 -0.15434,0.13626 -0.456992,0.13626 h -0.282153 v 0.72347 h -0.243568 z"
         id="path1074"
         inkscape:connector-curvature="0" />
      <path
         d="m -57.192506,239.16177 h 1.068324 v 0.20498 h -0.824756 v 0.53296 h 0.788582 v 0.20498 h -0.788582 v 0.65233 h 0.847666 v 0.20499 h -1.091234 z"
         id="path1076"
         inkscape:connector-curvature="0" />
      <path
         d="m -53.165189,240.8981 q -0.09285,0.0494 -0.190514,0.0736 -0.09767,0.0253 -0.207395,0.0253 -0.34606,0 -0.537779,-0.24477 -0.190514,-0.24477 -0.190514,-0.6885 0,-0.44132 0.19172,-0.6873 0.192925,-0.24719 0.536573,-0.24719 0.109727,0 0.207395,0.0253 0.09767,0.0241 0.190514,0.0736 v 0.2496 q -0.08923,-0.0736 -0.19172,-0.11214 -0.102491,-0.0386 -0.206189,-0.0386 -0.237539,0 -0.355706,0.18328 -0.118167,0.18328 -0.118167,0.55346 0,0.36897 0.118167,0.55225 0.118167,0.18327 0.355706,0.18327 0.106109,0 0.207395,-0.0386 0.102492,-0.0386 0.190514,-0.11214 z"
         id="path1079"
         inkscape:connector-curvature="0" />
    </g>
    <g
       id="g1031"
       transform="translate(20.15002,-17.833563)">
      <g
         transform="matrix(0.49336481,0,0,0.49336481,28.06847,118.89561)"
         id="g964">
        <path
           style="fill:none;stroke:#000000;stroke-width:0.2;stroke-linecap:round;paint-order:markers stroke fill"
           d="m -42.362222,232.58803 a 2.1381559,2.1381559 0 0 1 -2.138156,2.13815 2.1381559,2.1381559 0 0 1 -2.138156,-2.13815 2.1381559,2.1381559 0 0 1 2.138156,-2.13816 2.1381559,2.1381559 0 0 1 2.138156,2.13816 z"
           id="path949-2"
           inkscape:connector-curvature="0" />
        <g
           aria-label="-"
           style="font-size:10.58333302px;font-family:'DejaVu Sans Mono';-inkscape-font-specification:'DejaVu Sans Mono';letter-spacing:0px;word-spacing:0px;fill:#000000;stroke-width:0.26458332"
           id="text953">
          <path
             d="m -45.846547,232.16428 h 2.692342 v 0.84749 h -2.692342 z"
             id="path1000"
             inkscape:connector-curvature="0" />
        </g>
      </g>
      <g
         transform="matrix(0.49336481,0,0,0.49336481,27.828466,118.89561)"
         id="g969">
        <path
           style="fill:none;stroke:#000000;stroke-width:0.2;stroke-linecap:round;paint-order:markers stroke fill"
           d="m -21.195554,232.58803 a 2.1381559,2.1381559 0 0 1 -2.138156,2.13815 2.1381559,2.1381559 0 0 1 -2.138156,-2.13815 2.1381559,2.1381559 0 0 1 2.138156,-2.13816 2.1381559,2.1381559 0 0 1 2.138156,2.13816 z"
           id="circle955"
           inkscape:connector-curvature="0" />
        <g
           aria-label="+"
           style="font-size:7.05555534px;font-family:'DejaVu Sans Mono';-inkscape-font-specification:'DejaVu Sans Mono';letter-spacing:0px;word-spacing:0px;fill:#000000;stroke-width:0.26458332"
           id="text959">
          <path
             d="m -22.925466,230.69322 v 1.48139 h 1.481391 v 0.81993 h -1.481391 v 1.48829 h -0.816487 v -1.48829 h -1.488282 v -0.81993 h 1.488282 v -1.48139 z"
             style="-inkscape-font-specification:'DejaVu Sans Mono Bold'"
             id="path1004"
             inkscape:connector-curvature="0" />
        </g>
      </g>
    </g>
    <g
       transform="translate(20.15002,-1.9585626)"
       id="g987">
      <g
         id="g976"
         transform="matrix(0.49336481,0,0,0.49336481,28.06847,118.89561)">
        <path
           inkscape:connector-curvature="0"
           id="path969"
           d="m -42.362222,232.58803 a 2.1381559,2.1381559 0 0 1 -2.138156,2.13815 2.1381559,2.1381559 0 0 1 -2.138156,-2.13815 2.1381559,2.1381559 0 0 1 2.138156,-2.13816 2.1381559,2.1381559 0 0 1 2.138156,2.13816 z"
           style="fill:none;stroke:#000000;stroke-width:0.2;stroke-linecap:round;paint-order:markers stroke fill" />
        <g
           id="g974"
           style="font-size:10.58333302px;font-family:'DejaVu Sans Mono';-inkscape-font-specification:'DejaVu Sans Mono';letter-spacing:0px;word-spacing:0px;fill:#000000;stroke-width:0.26458332"
           aria-label="-">
          <path
             inkscape:connector-curvature="0"
             id="path972"
             d="m -45.846547,232.16428 h 2.692342 v 0.84749 h -2.692342 z" />
        </g>
      </g>
      <g
         id="g985"
         transform="matrix(0.49336481,0,0,0.49336481,27.828466,118.89561)">
        <path
           inkscape:connector-curvature="0"
           id="path979"
           d="m -21.195554,232.58803 a 2.1381559,2.1381559 0 0 1 -2.138156,2.13815 2.1381559,2.1381559 0 0 1 -2.138156,-2.13815 2.1381559,2.1381559 0 0 1 2.138156,-2.13816 2.1381559,2.1381559 0 0 1 2.138156,2.13816 z"
           style="fill:none;stroke:#000000;stroke-width:0.2;stroke-linecap:round;paint-order:markers stroke fill" />
        <g
           id="g983"
           style="font-size:7.05555534px;font-family:'DejaVu Sans Mono';-inkscape-font-specification:'DejaVu Sans Mono';letter-spacing:0px;word-spacing:0px;fill:#000000;stroke-width:0.26458332"
           aria-label="+">
          <path
             inkscape:connector-curvature="0"
             id="path981"
             style="-inkscape-font-specification:'DejaVu Sans Mono Bold'"
             d="m -22.925466,230.69322 v 1.48139 h 1.481391 v 0.81993 h -1.481391 v 1.48829 h -0.816487 v -1.48829 h -1.488282 v -0.81993 h 1.488282 v -1.48139 z" />
        </g>
      </g>
    </g>
    <g
       id="g1007"
       transform="translate(20.15002,13.916437)">
      <g
         transform="matrix(0.49336481,0,0,0.49336481,28.06847,118.89561)"
         id="g997">
        <path
           style="fill:none;stroke:#000000;stroke-width:0.2;stroke-linecap:round;paint-order:markers stroke fill"
           d="m -42.362222,232.58803 a 2.1381559,2.1381559 0 0 1 -2.138156,2.13815 2.1381559,2.1381559 0 0 1 -2.138156,-2.13815 2.1381559,2.1381559 0 0 1 2.138156,-2.13816 2.1381559,2.1381559 0 0 1 2.138156,2.13816 z"
           id="path990"
           inkscape:connector-curvature="0" />
        <g
           aria-label="-"
           style="font-size:10.58333302px;font-family:'DejaVu Sans Mono';-inkscape-font-specification:'DejaVu Sans Mono';letter-spacing:0px;word-spacing:0px;fill:#000000;stroke-width:0.26458332"
           id="g995">
          <path
             d="m -45.846547,232.16428 h 2.692342 v 0.84749 h -2.692342 z"
             id="path993"
             inkscape:connector-curvature="0" />
        </g>
      </g>
      <g
         transform="matrix(0.49336481,0,0,0.49336481,27.828466,118.89561)"
         id="g1005">
        <path
           style="fill:none;stroke:#000000;stroke-width:0.2;stroke-linecap:round;paint-order:markers stroke fill"
           d="m -21.195554,232.58803 a 2.1381559,2.1381559 0 0 1 -2.138156,2.13815 2.1381559,2.1381559 0 0 1 -2.138156,-2.13815 2.1381559,2.1381559 0 0 1 2.138156,-2.13816 2.1381559,2.1381559 0 0 1 2.138156,2.13816 z"
           id="path999"
           inkscape:connector-curvature="0" />
        <g
           aria-label="+"
           style="font-size:7.05555534px;font-family:'DejaVu Sans Mono';-inkscape-font-specification:'DejaVu Sans Mono';letter-spacing:0px;word-spacing:0px;fill:#000000;stroke-width:0.26458332"
           id="g1003">
          <path
             d="m -22.925466,230.69322 v 1.48139 h 1.481391 v 0.81993 h -1.481391 v 1.48829 h -0.816487 v -1.48829 h -1.488282 v -0.81993 h 1.488282 v -1.48139 z"
             style="-inkscape-font-specification:'DejaVu Sans Mono Bold'"
             id="path1001"
             inkscape:connector-curvature="0" />
        </g>
      </g>
    </g>
    <g
       aria-label="IN A"
       style="font-size:2.46944451px;font-family:'DejaVu Sans Mono';-inkscape-font-specification:'DejaVu Sans Mono';letter-spacing:0px;word-spacing:0px;fill:#000000;stroke-width:0.26458332"
       id="text969"
       transform="translate(71.041973,25.138106)">
      <path
         d="m -57.327363,251.76843 h 0.999595 v 0.20498 h -0.37741 v 1.39027 h 0.37741 v 0.20498 h -0.999595 v -0.20498 h 0.377411 v -1.39027 h -0.377411 z"
         id="path1136"
         inkscape:connector-curvature="0" />
      <path
         d="m -55.916596,251.76843 h 0.308681 l 0.607715,1.48191 v -1.48191 h 0.235127 v 1.80023 h -0.30868 l -0.607715,-1.4819 v 1.4819 h -0.235128 z"
         id="path1138"
         inkscape:connector-curvature="0" />
      <path
         d="m -52.370387,251.98306 -0.256831,0.92122 h 0.513663 z m -0.147105,-0.21463 h 0.295417 l 0.551043,1.80023 h -0.252009 l -0.132636,-0.46905 h -0.630625 l -0.130224,0.46905 h -0.252009 z"
         id="path1140"
         inkscape:connector-curvature="0" />
    </g>
    <g
       aria-label="IN B"
       style="font-size:2.46944451px;font-family:'DejaVu Sans Mono';-inkscape-font-specification:'DejaVu Sans Mono';letter-spacing:0px;word-spacing:0px;fill:#000000;stroke-width:0.26458332"
       id="text1001"
       transform="translate(73.81607,25.138106)">
      <path
         d="m -49.389863,251.76843 h 0.999595 v 0.20498 h -0.37741 v 1.39027 h 0.37741 v 0.20498 h -0.999595 v -0.20498 h 0.377411 v -1.39027 h -0.377411 z"
         id="path1129"
         inkscape:connector-curvature="0" />
      <path
         d="m -47.979096,251.76843 h 0.308681 l 0.607715,1.48191 v -1.48191 h 0.235127 v 1.80023 h -0.30868 l -0.607715,-1.4819 v 1.4819 h -0.235128 z"
         id="path1131"
         inkscape:connector-curvature="0" />
      <path
         d="m -44.730715,252.70894 v 0.65956 h 0.288182 q 0.212218,0 0.302652,-0.0736 0.09043,-0.0748 0.09043,-0.24477 0,-0.17605 -0.09526,-0.25804 -0.09526,-0.0832 -0.297829,-0.0832 z m 0,-0.74035 v 0.5426 h 0.283359 q 0.176044,0 0.25442,-0.0675 0.07958,-0.0675 0.07958,-0.21825 0,-0.13625 -0.07838,-0.19654 -0.07717,-0.0603 -0.255626,-0.0603 z m -0.244774,-0.20016 h 0.532956 q 0.276125,0 0.425642,0.11937 0.149517,0.11937 0.149517,0.33762 0,0.16519 -0.07958,0.26045 -0.07838,0.0953 -0.236333,0.11937 0.17725,0.0265 0.27733,0.15193 0.101286,0.1242 0.101286,0.31712 0,0.24478 -0.16037,0.37018 -0.160369,0.12419 -0.47749,0.12419 h -0.532956 z"
         id="path1133"
         inkscape:connector-curvature="0" />
    </g>
    <g
       aria-label="IN C"
       style="font-size:2.46944451px;font-family:'DejaVu Sans Mono';-inkscape-font-specification:'DejaVu Sans Mono';letter-spacing:0px;word-spacing:0px;fill:#000000;stroke-width:0.26458332"
       id="text1005"
       transform="translate(75.938111,25.136971)">
      <path
         d="m -40.923195,251.76843 h 0.999594 v 0.20498 h -0.37741 v 1.39027 h 0.37741 v 0.20498 h -0.999594 v -0.20498 h 0.37741 v -1.39027 h -0.37741 z"
         id="path1122"
         inkscape:connector-curvature="0" />
      <path
         d="m -39.512429,251.76843 h 0.308681 l 0.607715,1.48191 v -1.48191 h 0.235127 v 1.80023 h -0.30868 l -0.607715,-1.4819 v 1.4819 h -0.235128 z"
         id="path1124"
         inkscape:connector-curvature="0" />
      <path
         d="m -35.415176,253.50476 q -0.09285,0.0494 -0.190514,0.0735 -0.09767,0.0253 -0.207395,0.0253 -0.34606,0 -0.537779,-0.24477 -0.190514,-0.24478 -0.190514,-0.6885 0,-0.44132 0.191719,-0.6873 0.192926,-0.24719 0.536574,-0.24719 0.109726,0 0.207395,0.0253 0.09767,0.0241 0.190514,0.0736 v 0.2496 q -0.08923,-0.0736 -0.19172,-0.11214 -0.102492,-0.0386 -0.206189,-0.0386 -0.237539,0 -0.355706,0.18328 -0.118167,0.18328 -0.118167,0.55346 0,0.36897 0.118167,0.55224 0.118167,0.18328 0.355706,0.18328 0.106109,0 0.207395,-0.0386 0.102491,-0.0386 0.190514,-0.11214 z"
         id="path1126"
         inkscape:connector-curvature="0" />
    </g>
    <g
       aria-label="IN M"
       style="font-size:2.46944451px;font-family:'DejaVu Sans Mono';-inkscape-font-specification:'DejaVu Sans Mono';letter-spacing:0px;word-spacing:0px;fill:#000000;stroke-width:0.26458332"
       id="text1009"
       transform="translate(68.396138,25.138106)">
      <path
         d="m -65.264863,251.76843 h 0.999595 v 0.20498 h -0.37741 v 1.39027 h 0.37741 v 0.20498 h -0.999595 v -0.20498 h 0.377411 v -1.39027 h -0.377411 z"
         id="path1113"
         inkscape:connector-curvature="0" />
      <path
         d="m -63.854096,251.76843 h 0.308681 l 0.607715,1.48191 v -1.48191 h 0.235127 v 1.80023 h -0.30868 l -0.607715,-1.4819 v 1.4819 h -0.235128 z"
         id="path1115"
         inkscape:connector-curvature="0" />
      <path
         d="m -60.946952,251.76843 h 0.325562 l 0.311092,0.9164 0.313504,-0.9164 h 0.326767 v 1.80023 h -0.225482 v -1.59042 l -0.320738,0.94895 h -0.184485 l -0.321944,-0.94895 v 1.59042 h -0.224276 z"
         id="path1118"
         inkscape:connector-curvature="0" />
    </g>
    <g
       aria-label="CV A"
       style="font-size:2.46944451px;font-family:'DejaVu Sans Mono';-inkscape-font-specification:'DejaVu Sans Mono';letter-spacing:0px;word-spacing:0px;fill:#000000;stroke-width:0.26458332"
       id="text1025"
       transform="translate(50.392687,60.196846)">
      <path
         d="m -46.203337,230.31476 q -0.09285,0.0494 -0.190514,0.0735 -0.09767,0.0253 -0.207395,0.0253 -0.34606,0 -0.537779,-0.24477 -0.190514,-0.24478 -0.190514,-0.68851 0,-0.44131 0.19172,-0.68729 0.192925,-0.24719 0.536573,-0.24719 0.109727,0 0.207395,0.0253 0.09767,0.0241 0.190514,0.0736 v 0.24959 q -0.08923,-0.0736 -0.19172,-0.11214 -0.102491,-0.0386 -0.206189,-0.0386 -0.237539,0 -0.355706,0.18328 -0.118167,0.18328 -0.118167,0.55345 0,0.36897 0.118167,0.55225 0.118167,0.18328 0.355706,0.18328 0.106109,0 0.207395,-0.0386 0.102492,-0.0386 0.190514,-0.11214 z"
         id="path1061"
         inkscape:connector-curvature="0" />
      <path
         d="m -45.268855,230.17368 0.42323,-1.59525 h 0.252009 l -0.526928,1.80023 h -0.295417 l -0.526927,-1.80023 h 0.252009 z"
         id="path1063"
         inkscape:connector-curvature="0" />
      <path
         d="m -42.297804,228.79306 -0.256832,0.92122 h 0.513664 z m -0.147106,-0.21463 h 0.295417 l 0.551043,1.80023 h -0.252009 l -0.132636,-0.46905 h -0.630625 l -0.130224,0.46905 h -0.252009 z"
         id="path1065"
         inkscape:connector-curvature="0" />
    </g>
    <g
       aria-label="CV B"
       style="font-size:2.46944451px;font-family:'DejaVu Sans Mono';-inkscape-font-specification:'DejaVu Sans Mono';letter-spacing:0px;word-spacing:0px;fill:#000000;stroke-width:0.26458332"
       id="text1029"
       transform="translate(61.04234,54.905076)">
      <path
         d="m -46.203337,235.60643 q -0.09285,0.0494 -0.190514,0.0736 -0.09767,0.0253 -0.207395,0.0253 -0.34606,0 -0.537779,-0.24477 -0.190514,-0.24478 -0.190514,-0.6885 0,-0.44132 0.19172,-0.6873 0.192925,-0.24719 0.536573,-0.24719 0.109727,0 0.207395,0.0253 0.09767,0.0241 0.190514,0.0736 v 0.24959 q -0.08923,-0.0736 -0.19172,-0.11213 -0.102491,-0.0386 -0.206189,-0.0386 -0.237539,0 -0.355706,0.18328 -0.118167,0.18328 -0.118167,0.55346 0,0.36896 0.118167,0.55224 0.118167,0.18328 0.355706,0.18328 0.106109,0 0.207395,-0.0386 0.102492,-0.0386 0.190514,-0.11214 z"
         id="path1054"
         inkscape:connector-curvature="0" />
      <path
         d="m -45.268855,235.46535 0.42323,-1.59525 h 0.252009 l -0.526928,1.80023 h -0.295417 l -0.526927,-1.80023 h 0.252009 z"
         id="path1056"
         inkscape:connector-curvature="0" />
      <path
         d="m -42.595633,234.81061 v 0.65956 h 0.288182 q 0.212218,0 0.302652,-0.0735 0.09043,-0.0748 0.09043,-0.24477 0,-0.17605 -0.09526,-0.25804 -0.09526,-0.0832 -0.297829,-0.0832 z m 0,-0.74035 v 0.5426 h 0.283359 q 0.176045,0 0.254421,-0.0675 0.07958,-0.0675 0.07958,-0.21825 0,-0.13625 -0.07838,-0.19654 -0.07717,-0.0603 -0.255626,-0.0603 z m -0.244774,-0.20016 h 0.532956 q 0.276125,0 0.425642,0.11937 0.149517,0.11937 0.149517,0.33762 0,0.16519 -0.07958,0.26045 -0.07838,0.0953 -0.236333,0.11937 0.17725,0.0265 0.27733,0.15193 0.101286,0.1242 0.101286,0.31712 0,0.24478 -0.160369,0.37018 -0.16037,0.12419 -0.477491,0.12419 h -0.532956 z"
         id="path1058"
         inkscape:connector-curvature="0" />
    </g>
    <g
       aria-label="CV C"
       style="font-size:2.46944451px;font-family:'DejaVu Sans Mono';-inkscape-font-specification:'DejaVu Sans Mono';letter-spacing:0px;word-spacing:0px;fill:#000000;stroke-width:0.26458332"
       id="text1033"
       transform="translate(71.756953,49.613405)">
      <path
         d="m -46.203337,240.8981 q -0.09285,0.0494 -0.190514,0.0736 -0.09767,0.0253 -0.207395,0.0253 -0.34606,0 -0.537779,-0.24477 -0.190514,-0.24477 -0.190514,-0.6885 0,-0.44132 0.19172,-0.6873 0.192925,-0.24719 0.536573,-0.24719 0.109727,0 0.207395,0.0253 0.09767,0.0241 0.190514,0.0736 v 0.2496 q -0.08923,-0.0736 -0.19172,-0.11214 -0.102491,-0.0386 -0.206189,-0.0386 -0.237539,0 -0.355706,0.18328 -0.118167,0.18328 -0.118167,0.55346 0,0.36897 0.118167,0.55225 0.118167,0.18327 0.355706,0.18327 0.106109,0 0.207395,-0.0386 0.102492,-0.0386 0.190514,-0.11214 z"
         id="path1047"
         inkscape:connector-curvature="0" />
      <path
         d="m -45.268855,240.75702 0.42323,-1.59525 h 0.252009 l -0.526928,1.80024 h -0.295417 l -0.526927,-1.80024 h 0.252009 z"
         id="path1049"
         inkscape:connector-curvature="0" />
      <path
         d="m -41.746761,240.8981 q -0.09285,0.0494 -0.190514,0.0736 -0.09767,0.0253 -0.207395,0.0253 -0.34606,0 -0.537779,-0.24477 -0.190514,-0.24477 -0.190514,-0.6885 0,-0.44132 0.19172,-0.6873 0.192925,-0.24719 0.536573,-0.24719 0.109726,0 0.207395,0.0253 0.09767,0.0241 0.190514,0.0736 v 0.2496 q -0.08923,-0.0736 -0.19172,-0.11214 -0.102491,-0.0386 -0.206189,-0.0386 -0.237539,0 -0.355706,0.18328 -0.118167,0.18328 -0.118167,0.55346 0,0.36897 0.118167,0.55225 0.118167,0.18327 0.355706,0.18327 0.106109,0 0.207395,-0.0386 0.102492,-0.0386 0.190514,-0.11214 z"
         id="path1051"
         inkscape:connector-curvature="0" />
    </g>
    <g
       aria-label="OUT"
       style="font-size:2.46944451px;font-family:'DejaVu Sans Mono';-inkscape-font-specification:'DejaVu Sans Mono';letter-spacing:0px;word-spacing:0px;fill:#000000;stroke-width:0.26458332"
       id="text1145"
       transform="translate(113.80781,44.35667)">
      <path
         d="m -77.218741,245.32044 q 0,-0.3967 -0.08199,-0.56672 -0.08079,-0.17001 -0.266478,-0.17001 -0.184485,0 -0.266478,0.17001 -0.08079,0.17002 -0.08079,0.56672 0,0.3955 0.08079,0.56551 0.08199,0.17002 0.266478,0.17002 0.185691,0 0.266478,-0.16881 0.08199,-0.17002 0.08199,-0.56672 z m 0.254421,0 q 0,0.47026 -0.149517,0.70177 -0.148312,0.23151 -0.453375,0.23151 -0.305063,0 -0.453375,-0.23031 -0.148311,-0.2303 -0.148311,-0.70297 0,-0.47146 0.148311,-0.70297 0.149518,-0.23151 0.453375,-0.23151 0.305063,0 0.453375,0.23151 0.149517,0.23151 0.149517,0.70297 z"
         id="path1147"
         inkscape:connector-curvature="0" />
      <path
         d="m -76.647199,245.52784 v -1.10932 h 0.244774 v 1.22025 q 0,0.13143 0.0072,0.1881 0.0072,0.0555 0.02532,0.0856 0.03858,0.0711 0.110932,0.10732 0.07355,0.0362 0.17725,0.0362 0.104903,0 0.17725,-0.0362 0.07235,-0.0362 0.112138,-0.10732 0.01809,-0.0301 0.02532,-0.0856 0.0072,-0.0555 0.0072,-0.18569 v -1.22266 h 0.243569 v 1.10932 q 0,0.27612 -0.03497,0.39308 -0.03376,0.11576 -0.118167,0.19172 -0.07958,0.0711 -0.182073,0.10611 -0.102492,0.035 -0.230305,0.035 -0.126607,0 -0.229099,-0.035 -0.102491,-0.035 -0.183279,-0.10611 -0.0832,-0.0748 -0.118167,-0.19292 -0.03497,-0.11938 -0.03497,-0.39188 z"
         id="path1149"
         inkscape:connector-curvature="0" />
      <path
         d="m -75.282252,244.41852 h 1.373387 v 0.20498 h -0.563101 v 1.59525 h -0.244774 v -1.59525 h -0.565512 z"
         id="path1151"
         inkscape:connector-curvature="0" />
    </g>
    <g
       aria-label="MIX"
       style="font-size:2.46944451px;font-family:'DejaVu Sans Mono';-inkscape-font-specification:'DejaVu Sans Mono';letter-spacing:0px;word-spacing:0px;fill:#000000;stroke-width:0.26458332"
       id="text962">
      <path
         d="m 10.485274,264.30771 h 0.325561 l 0.311093,0.91639 0.313503,-0.91639 h 0.326768 v 1.80023 h -0.225482 v -1.59043 l -0.320738,0.94895 h -0.184485 l -0.321944,-0.94895 v 1.59043 h -0.224276 z"
         id="path977" />
      <path
         d="m 12.109464,264.30771 h 0.999595 v 0.20498 h -0.37741 v 1.39027 h 0.37741 v 0.20498 h -0.999595 v -0.20498 h 0.37741 v -1.39027 h -0.37741 z"
         id="path980" />
      <path
         d="m 13.456324,264.30771 h 0.261655 l 0.395497,0.67885 0.402732,-0.67885 h 0.261655 l -0.538985,0.84646 0.57757,0.95377 h -0.261655 l -0.441317,-0.77532 -0.476284,0.77532 h -0.262861 l 0.602892,-0.95377 z"
         id="path982" />
    </g>
    <g
       aria-label="LEVEL"
       style="font-size:2.46944451px;font-family:'DejaVu Sans Mono';-inkscape-font-specification:'DejaVu Sans Mono';letter-spacing:0px;word-spacing:0px;fill:#000000;stroke-width:0.26458332"
       id="text968"
       transform="translate(109.89509,19.350915)">
      <path
         d="m -82.193401,244.95306 h 0.244774 v 1.59525 h 0.86937 v 0.20499 h -1.114144 z"
         id="path970"
         inkscape:connector-curvature="0" />
      <path
         d="m -80.72958,244.95306 h 1.068324 v 0.20498 h -0.824755 v 0.53296 h 0.788582 v 0.20498 h -0.788582 v 0.65233 h 0.847665 v 0.20499 h -1.091234 z"
         id="path973"
         inkscape:connector-curvature="0" />
      <path
         d="m -78.738831,246.54831 0.42323,-1.59525 h 0.252008 l -0.526927,1.80024 h -0.295417 l -0.526927,-1.80024 h 0.252009 z"
         id="path975"
         inkscape:connector-curvature="0" />
      <path
         d="m -77.758529,244.95306 h 1.068324 v 0.20498 h -0.824756 v 0.53296 h 0.788582 v 0.20498 h -0.788582 v 0.65233 h 0.847666 v 0.20499 h -1.091234 z"
         id="path978"
         inkscape:connector-curvature="0" />
      <path
         d="m -76.2513,244.95306 h 0.244774 v 1.59525 h 0.86937 v 0.20499 H -76.2513 Z"
         id="path983"
         inkscape:connector-curvature="0" />
    </g>
  </g>
</svg>
