<?xml version="1.0" encoding="UTF-8" standalone="no"?>
<!-- Created with Inkscape (http://www.inkscape.org/) -->

<svg
   xmlns:dc="http://purl.org/dc/elements/1.1/"
   xmlns:cc="http://creativecommons.org/ns#"
   xmlns:rdf="http://www.w3.org/1999/02/22-rdf-syntax-ns#"
   xmlns:svg="http://www.w3.org/2000/svg"
   xmlns="http://www.w3.org/2000/svg"
   xmlns:sodipodi="http://sodipodi.sourceforge.net/DTD/sodipodi-0.dtd"
   xmlns:inkscape="http://www.inkscape.org/namespaces/inkscape"
   width="90"
   height="380"
   viewBox="0 0 23.812499 100.54167"
   version="1.1"
   id="svg827"
   inkscape:version="0.92.2 (5c3e80d, 2017-08-06)"
   sodipodi:docname="Wavefolder-Dark.svg">
  <defs
     id="defs821" />
  <sodipodi:namedview
     id="base"
     pagecolor="#ffffff"
     bordercolor="#666666"
     borderopacity="1.0"
     inkscape:pageopacity="0.0"
     inkscape:pageshadow="2"
     inkscape:zoom="5.6"
     inkscape:cx="-10.264698"
     inkscape:cy="304.91241"
     inkscape:document-units="mm"
     inkscape:current-layer="layer1"
     showgrid="false"
     units="px"
     inkscape:window-width="1920"
     inkscape:window-height="1028"
     inkscape:window-x="-8"
     inkscape:window-y="-8"
     inkscape:window-maximized="1" />
  <metadata
     id="metadata824">
    <rdf:RDF>
      <cc:Work
         rdf:about="">
        <dc:format>image/svg+xml</dc:format>
        <dc:type
           rdf:resource="http://purl.org/dc/dcmitype/StillImage" />
        <dc:title />
      </cc:Work>
    </rdf:RDF>
  </metadata>
  <g
     inkscape:label="Layer 1"
     inkscape:groupmode="layer"
     id="layer1"
     transform="translate(0,-196.45832)">
    <rect
       style="fill:#333333;stroke:#f0f0f0;stroke-width:0.08977167;stroke-linecap:round;paint-order:markers stroke fill"
       id="rect815"
       width="23.722729"
       height="100.45191"
       x="0.044885479"
       y="196.5032" />
    <g
       inkscape:transform-center-y="119.65244"
       inkscape:transform-center-x="-44.974764"
       id="g1358"
       transform="matrix(1.4311608,-1.4311608,1.4311608,1.4311608,-227.10672,-293.88753)"
       style="fill:none;fill-opacity:0.80000001;stroke:#000000;stroke-width:0.04940792">
      <g
         id="g1356">
        <g
           id="g1324"
           transform="translate(185.73646,-9.5250064)">
          <g
             transform="translate(-137.10274)"
             id="g1308">
            <path
               inkscape:connector-curvature="0"
               style="stroke-width:0.1867386;stroke-linecap:round;paint-order:markers stroke fill"
               d="m -718.94922,154.57227 c -14.32932,0.45458 -33.60356,20.71937 -31.29883,34.27148 -2.45838,14.45558 19.63622,36.55017 34.0918,34.0918 h 134.0918 v -9.0918 h -100.00196 v -25 c 2.45839,-14.4556 -19.63425,-36.54823 -34.08984,-34.08984 -0.90347,-0.15365 -1.83768,-0.21195 -2.79297,-0.18164 z m 1.00586,8.95898 c 0.63005,0.0232 1.22828,0.12471 1.78711,0.3125 8.94127,-3.00469 28.00471,16.05874 25,25 v 25 h -25 c -8.94126,3.00469 -28.00469,-16.05873 -25,-25 -2.8169,-8.38244 13.76214,-25.66117 23.21289,-25.3125 z m 26.78711,150.3125 v 9.0918 h 9.08984 v -9.0918 z"
               transform="matrix(0.26458333,0,0,0.26458333,0,196.45832)"
               id="path1296" />
            <path
               inkscape:connector-curvature="0"
               style="stroke-width:0.1867386;stroke-linecap:round;paint-order:markers stroke fill"
               d="m -718.55273,136.5293 c -24.81903,0.43381 -51.20004,27.62664 -49.87696,52.31445 -1.36576,25.48418 26.78925,53.63919 52.27344,52.27344 h 134.0918 v -9.0918 h -134.0918 c -19.96987,1.91207 -45.09371,-23.21177 -43.18164,-43.18164 -1.91207,-19.96987 23.21177,-45.0937 43.18164,-43.18164 19.96988,-1.91208 45.09374,23.21176 43.18164,43.18164 v 25 h 9.0918 v -25 c 1.36576,-25.4842 -26.78924,-53.63725 -52.27344,-52.27148 -0.79638,-0.0427 -1.59587,-0.057 -2.39648,-0.043 z m 45.57812,177.31445 v 9.0918 h 9.0918 v -9.0918 z"
               transform="matrix(0.26458333,0,0,0.26458333,0,196.45832)"
               id="path1298" />
            <path
               inkscape:connector-curvature="0"
               style="stroke-width:0.1867386;stroke-linecap:round;paint-order:markers stroke fill"
               d="m -716.15625,118.38867 c -36.51277,-0.27315 -70.72823,33.94231 -70.45508,70.45508 -0.27315,36.51277 33.94231,70.72822 70.45508,70.45508 h 134.0918 v -9.0918 h -134.0918 c -30.99848,0.81946 -62.18274,-30.3648 -61.36328,-61.36328 -0.81946,-30.99848 30.3648,-62.18273 61.36328,-61.36328 30.9985,-0.81946 62.18277,30.36478 61.36328,61.36328 v 25 h 9.0918 v -25 c 0.27315,-36.51278 -33.94229,-70.72823 -70.45508,-70.45508 z m 61.36328,195.45508 v 9.0918 h 9.0918 v -9.0918 z"
               transform="matrix(0.26458333,0,0,0.26458333,0,196.45832)"
               id="path1300" />
            <path
               inkscape:connector-curvature="0"
               style="stroke-width:0.1867386;stroke-linecap:round;paint-order:markers stroke fill"
               d="m -716.15625,100.20703 c -47.54138,0.81946 -87.81726,41.09534 -88.63672,88.63672 0.81946,47.54137 41.09535,87.81724 88.63672,88.63672 h 134.0918 v -9.0918 h -134.0918 v 0.002 c -42.02709,-0.27313 -79.27177,-37.51979 -79.54492,-79.54687 0.27315,-42.02708 37.51784,-79.27175 79.54492,-79.54492 42.02711,0.27315 79.2718,37.51781 79.54492,79.54492 v 25 h 9.0918 v -25 c -0.81947,-47.54138 -41.09532,-87.81726 -88.63672,-88.63672 z m 79.54492,213.63672 v 9.0918 h 9.0918 v -9.0918 z"
               transform="matrix(0.26458333,0,0,0.26458333,0,196.45832)"
               id="path1302" />
            <path
               inkscape:connector-curvature="0"
               style="stroke-width:0.1867386;stroke-linecap:round;paint-order:markers stroke fill"
               d="m -716.15625,82.025391 c -58.56997,1.912073 -104.90628,48.248379 -106.81836,106.818359 1.91207,58.56996 48.2484,104.90626 106.81836,106.81836 h 134.0918 v -9.08984 h -134.0918 c -53.05565,-1.36577 -96.3608,-44.67288 -97.72656,-97.72852 1.36576,-53.05564 44.67093,-96.360781 97.72656,-97.726562 53.05567,1.365765 96.36083,44.670882 97.72656,97.726562 v 25 h 9.0918 v -25 C -611.24997,130.27379 -657.58625,83.937471 -716.15625,82.025391 Z m 97.72656,231.818359 v 9.0918 h 9.0918 v -9.0918 z"
               transform="matrix(0.26458333,0,0,0.26458333,0,196.45832)"
               id="path1304" />
            <path
               inkscape:connector-curvature="0"
               style="stroke-width:0.1867386;stroke-linecap:round;paint-order:markers stroke fill"
               d="m -716.15625,63.84375 c -69.59855,3.004689 -121.99531,55.40145 -125,125 3.00469,69.59853 55.40147,121.99529 125,125 h 115.9082 v 9.0918 h 9.0918 v -9.0918 h 9.0918 v -9.08984 h -134.0918 c -64.08426,-2.45838 -113.45177,-51.82592 -115.91016,-115.91016 2.45839,-64.08424 51.82592,-113.449802 115.91016,-115.908203 64.08428,2.458384 113.44986,51.823903 115.9082,115.908203 v 25 h 9.0918 v -25 c -3.0047,-69.59854 -55.40142,-121.99531 -125,-125 z"
               transform="matrix(0.26458333,0,0,0.26458333,0,196.45832)"
               id="path1306" />
          </g>
          <g
             transform="rotate(90,-222.55592,213.35031)"
             id="g1322">
            <path
               inkscape:connector-curvature="0"
               id="path1310"
               transform="matrix(0.26458333,0,0,0.26458333,0,196.45832)"
               d="m -718.94922,154.57227 c -14.32932,0.45458 -33.60356,20.71937 -31.29883,34.27148 -2.45838,14.45558 19.63622,36.55017 34.0918,34.0918 h 134.0918 v -9.0918 h -100.00196 v -25 c 2.45839,-14.4556 -19.63425,-36.54823 -34.08984,-34.08984 -0.90347,-0.15365 -1.83768,-0.21195 -2.79297,-0.18164 z m 1.00586,8.95898 c 0.63005,0.0232 1.22828,0.12471 1.78711,0.3125 8.94127,-3.00469 28.00471,16.05874 25,25 v 25 h -25 c -8.94126,3.00469 -28.00469,-16.05873 -25,-25 -2.8169,-8.38244 13.76214,-25.66117 23.21289,-25.3125 z m 26.78711,150.3125 v 9.0918 h 9.08984 v -9.0918 z"
               style="stroke-width:0.1867386;stroke-linecap:round;paint-order:markers stroke fill" />
            <path
               inkscape:connector-curvature="0"
               id="path1312"
               transform="matrix(0.26458333,0,0,0.26458333,0,196.45832)"
               d="m -718.55273,136.5293 c -24.81903,0.43381 -51.20004,27.62664 -49.87696,52.31445 -1.36576,25.48418 26.78925,53.63919 52.27344,52.27344 h 134.0918 v -9.0918 h -134.0918 c -19.96987,1.91207 -45.09371,-23.21177 -43.18164,-43.18164 -1.91207,-19.96987 23.21177,-45.0937 43.18164,-43.18164 19.96988,-1.91208 45.09374,23.21176 43.18164,43.18164 v 25 h 9.0918 v -25 c 1.36576,-25.4842 -26.78924,-53.63725 -52.27344,-52.27148 -0.79638,-0.0427 -1.59587,-0.057 -2.39648,-0.043 z m 45.57812,177.31445 v 9.0918 h 9.0918 v -9.0918 z"
               style="stroke-width:0.1867386;stroke-linecap:round;paint-order:markers stroke fill" />
            <path
               inkscape:connector-curvature="0"
               id="path1314"
               transform="matrix(0.26458333,0,0,0.26458333,0,196.45832)"
               d="m -716.15625,118.38867 c -36.51277,-0.27315 -70.72823,33.94231 -70.45508,70.45508 -0.27315,36.51277 33.94231,70.72822 70.45508,70.45508 h 134.0918 v -9.0918 h -134.0918 c -30.99848,0.81946 -62.18274,-30.3648 -61.36328,-61.36328 -0.81946,-30.99848 30.3648,-62.18273 61.36328,-61.36328 30.9985,-0.81946 62.18277,30.36478 61.36328,61.36328 v 25 h 9.0918 v -25 c 0.27315,-36.51278 -33.94229,-70.72823 -70.45508,-70.45508 z m 61.36328,195.45508 v 9.0918 h 9.0918 v -9.0918 z"
               style="stroke-width:0.1867386;stroke-linecap:round;paint-order:markers stroke fill" />
            <path
               inkscape:connector-curvature="0"
               id="path1316"
               transform="matrix(0.26458333,0,0,0.26458333,0,196.45832)"
               d="m -716.15625,100.20703 c -47.54138,0.81946 -87.81726,41.09534 -88.63672,88.63672 0.81946,47.54137 41.09535,87.81724 88.63672,88.63672 h 134.0918 v -9.0918 h -134.0918 v 0.002 c -42.02709,-0.27313 -79.27177,-37.51979 -79.54492,-79.54687 0.27315,-42.02708 37.51784,-79.27175 79.54492,-79.54492 42.02711,0.27315 79.2718,37.51781 79.54492,79.54492 v 25 h 9.0918 v -25 c -0.81947,-47.54138 -41.09532,-87.81726 -88.63672,-88.63672 z m 79.54492,213.63672 v 9.0918 h 9.0918 v -9.0918 z"
               style="stroke-width:0.1867386;stroke-linecap:round;paint-order:markers stroke fill" />
            <path
               inkscape:connector-curvature="0"
               id="path1318"
               transform="matrix(0.26458333,0,0,0.26458333,0,196.45832)"
               d="m -716.15625,82.025391 c -58.56997,1.912073 -104.90628,48.248379 -106.81836,106.818359 1.91207,58.56996 48.2484,104.90626 106.81836,106.81836 h 134.0918 v -9.08984 h -134.0918 c -53.05565,-1.36577 -96.3608,-44.67288 -97.72656,-97.72852 1.36576,-53.05564 44.67093,-96.360781 97.72656,-97.726562 53.05567,1.365765 96.36083,44.670882 97.72656,97.726562 v 25 h 9.0918 v -25 C -611.24997,130.27379 -657.58625,83.937471 -716.15625,82.025391 Z m 97.72656,231.818359 v 9.0918 h 9.0918 v -9.0918 z"
               style="stroke-width:0.1867386;stroke-linecap:round;paint-order:markers stroke fill" />
            <path
               inkscape:connector-curvature="0"
               id="path1320"
               transform="matrix(0.26458333,0,0,0.26458333,0,196.45832)"
               d="m -716.15625,63.84375 c -69.59855,3.004689 -121.99531,55.40145 -125,125 3.00469,69.59853 55.40147,121.99529 125,125 h 115.9082 v 9.0918 h 9.0918 v -9.0918 h 9.0918 v -9.08984 h -134.0918 c -64.08426,-2.45838 -113.45177,-51.82592 -115.91016,-115.91016 2.45839,-64.08424 51.82592,-113.449802 115.91016,-115.908203 64.08428,2.458384 113.44986,51.823903 115.9082,115.908203 v 25 h 9.0918 v -25 c -3.0047,-69.59854 -55.40142,-121.99531 -125,-125 z"
               style="stroke-width:0.1867386;stroke-linecap:round;paint-order:markers stroke fill" />
          </g>
        </g>
        <g
           transform="rotate(-180,-198.23854,277.13918)"
           id="g1354">
          <g
             id="g1338"
             transform="translate(-137.10274)">
            <path
               id="path1326"
               transform="matrix(0.26458333,0,0,0.26458333,0,196.45832)"
               d="m -718.94922,154.57227 c -14.32932,0.45458 -33.60356,20.71937 -31.29883,34.27148 -2.45838,14.45558 19.63622,36.55017 34.0918,34.0918 h 134.0918 v -9.0918 h -100.00196 v -25 c 2.45839,-14.4556 -19.63425,-36.54823 -34.08984,-34.08984 -0.90347,-0.15365 -1.83768,-0.21195 -2.79297,-0.18164 z m 1.00586,8.95898 c 0.63005,0.0232 1.22828,0.12471 1.78711,0.3125 8.94127,-3.00469 28.00471,16.05874 25,25 v 25 h -25 c -8.94126,3.00469 -28.00469,-16.05873 -25,-25 -2.8169,-8.38244 13.76214,-25.66117 23.21289,-25.3125 z m 26.78711,150.3125 v 9.0918 h 9.08984 v -9.0918 z"
               style="stroke-width:0.1867386;stroke-linecap:round;paint-order:markers stroke fill"
               inkscape:connector-curvature="0" />
            <path
               id="path1328"
               transform="matrix(0.26458333,0,0,0.26458333,0,196.45832)"
               d="m -718.55273,136.5293 c -24.81903,0.43381 -51.20004,27.62664 -49.87696,52.31445 -1.36576,25.48418 26.78925,53.63919 52.27344,52.27344 h 134.0918 v -9.0918 h -134.0918 c -19.96987,1.91207 -45.09371,-23.21177 -43.18164,-43.18164 -1.91207,-19.96987 23.21177,-45.0937 43.18164,-43.18164 19.96988,-1.91208 45.09374,23.21176 43.18164,43.18164 v 25 h 9.0918 v -25 c 1.36576,-25.4842 -26.78924,-53.63725 -52.27344,-52.27148 -0.79638,-0.0427 -1.59587,-0.057 -2.39648,-0.043 z m 45.57812,177.31445 v 9.0918 h 9.0918 v -9.0918 z"
               style="stroke-width:0.1867386;stroke-linecap:round;paint-order:markers stroke fill"
               inkscape:connector-curvature="0" />
            <path
               id="path1330"
               transform="matrix(0.26458333,0,0,0.26458333,0,196.45832)"
               d="m -716.15625,118.38867 c -36.51277,-0.27315 -70.72823,33.94231 -70.45508,70.45508 -0.27315,36.51277 33.94231,70.72822 70.45508,70.45508 h 134.0918 v -9.0918 h -134.0918 c -30.99848,0.81946 -62.18274,-30.3648 -61.36328,-61.36328 -0.81946,-30.99848 30.3648,-62.18273 61.36328,-61.36328 30.9985,-0.81946 62.18277,30.36478 61.36328,61.36328 v 25 h 9.0918 v -25 c 0.27315,-36.51278 -33.94229,-70.72823 -70.45508,-70.45508 z m 61.36328,195.45508 v 9.0918 h 9.0918 v -9.0918 z"
               style="stroke-width:0.1867386;stroke-linecap:round;paint-order:markers stroke fill"
               inkscape:connector-curvature="0" />
            <path
               id="path1332"
               transform="matrix(0.26458333,0,0,0.26458333,0,196.45832)"
               d="m -716.15625,100.20703 c -47.54138,0.81946 -87.81726,41.09534 -88.63672,88.63672 0.81946,47.54137 41.09535,87.81724 88.63672,88.63672 h 134.0918 v -9.0918 h -134.0918 v 0.002 c -42.02709,-0.27313 -79.27177,-37.51979 -79.54492,-79.54687 0.27315,-42.02708 37.51784,-79.27175 79.54492,-79.54492 42.02711,0.27315 79.2718,37.51781 79.54492,79.54492 v 25 h 9.0918 v -25 c -0.81947,-47.54138 -41.09532,-87.81726 -88.63672,-88.63672 z m 79.54492,213.63672 v 9.0918 h 9.0918 v -9.0918 z"
               style="stroke-width:0.1867386;stroke-linecap:round;paint-order:markers stroke fill"
               inkscape:connector-curvature="0" />
            <path
               id="path1334"
               transform="matrix(0.26458333,0,0,0.26458333,0,196.45832)"
               d="m -716.15625,82.025391 c -58.56997,1.912073 -104.90628,48.248379 -106.81836,106.818359 1.91207,58.56996 48.2484,104.90626 106.81836,106.81836 h 134.0918 v -9.08984 h -134.0918 c -53.05565,-1.36577 -96.3608,-44.67288 -97.72656,-97.72852 1.36576,-53.05564 44.67093,-96.360781 97.72656,-97.726562 53.05567,1.365765 96.36083,44.670882 97.72656,97.726562 v 25 h 9.0918 v -25 C -611.24997,130.27379 -657.58625,83.937471 -716.15625,82.025391 Z m 97.72656,231.818359 v 9.0918 h 9.0918 v -9.0918 z"
               style="stroke-width:0.1867386;stroke-linecap:round;paint-order:markers stroke fill"
               inkscape:connector-curvature="0" />
            <path
               id="path1336"
               transform="matrix(0.26458333,0,0,0.26458333,0,196.45832)"
               d="m -716.15625,63.84375 c -69.59855,3.004689 -121.99531,55.40145 -125,125 3.00469,69.59853 55.40147,121.99529 125,125 h 115.9082 v 9.0918 h 9.0918 v -9.0918 h 9.0918 v -9.08984 h -134.0918 c -64.08426,-2.45838 -113.45177,-51.82592 -115.91016,-115.91016 2.45839,-64.08424 51.82592,-113.449802 115.91016,-115.908203 64.08428,2.458384 113.44986,51.823903 115.9082,115.908203 v 25 h 9.0918 v -25 c -3.0047,-69.59854 -55.40142,-121.99531 -125,-125 z"
               style="stroke-width:0.1867386;stroke-linecap:round;paint-order:markers stroke fill"
               inkscape:connector-curvature="0" />
          </g>
          <g
             id="g1352"
             transform="rotate(90,-222.55592,213.35031)">
            <path
               style="stroke-width:0.1867386;stroke-linecap:round;paint-order:markers stroke fill"
               d="m -718.94922,154.57227 c -14.32932,0.45458 -33.60356,20.71937 -31.29883,34.27148 -2.45838,14.45558 19.63622,36.55017 34.0918,34.0918 h 134.0918 v -9.0918 h -100.00196 v -25 c 2.45839,-14.4556 -19.63425,-36.54823 -34.08984,-34.08984 -0.90347,-0.15365 -1.83768,-0.21195 -2.79297,-0.18164 z m 1.00586,8.95898 c 0.63005,0.0232 1.22828,0.12471 1.78711,0.3125 8.94127,-3.00469 28.00471,16.05874 25,25 v 25 h -25 c -8.94126,3.00469 -28.00469,-16.05873 -25,-25 -2.8169,-8.38244 13.76214,-25.66117 23.21289,-25.3125 z m 26.78711,150.3125 v 9.0918 h 9.08984 v -9.0918 z"
               transform="matrix(0.26458333,0,0,0.26458333,0,196.45832)"
               id="path1340"
               inkscape:connector-curvature="0" />
            <path
               style="stroke-width:0.1867386;stroke-linecap:round;paint-order:markers stroke fill"
               d="m -718.55273,136.5293 c -24.81903,0.43381 -51.20004,27.62664 -49.87696,52.31445 -1.36576,25.48418 26.78925,53.63919 52.27344,52.27344 h 134.0918 v -9.0918 h -134.0918 c -19.96987,1.91207 -45.09371,-23.21177 -43.18164,-43.18164 -1.91207,-19.96987 23.21177,-45.0937 43.18164,-43.18164 19.96988,-1.91208 45.09374,23.21176 43.18164,43.18164 v 25 h 9.0918 v -25 c 1.36576,-25.4842 -26.78924,-53.63725 -52.27344,-52.27148 -0.79638,-0.0427 -1.59587,-0.057 -2.39648,-0.043 z m 45.57812,177.31445 v 9.0918 h 9.0918 v -9.0918 z"
               transform="matrix(0.26458333,0,0,0.26458333,0,196.45832)"
               id="path1342"
               inkscape:connector-curvature="0" />
            <path
               style="stroke-width:0.1867386;stroke-linecap:round;paint-order:markers stroke fill"
               d="m -716.15625,118.38867 c -36.51277,-0.27315 -70.72823,33.94231 -70.45508,70.45508 -0.27315,36.51277 33.94231,70.72822 70.45508,70.45508 h 134.0918 v -9.0918 h -134.0918 c -30.99848,0.81946 -62.18274,-30.3648 -61.36328,-61.36328 -0.81946,-30.99848 30.3648,-62.18273 61.36328,-61.36328 30.9985,-0.81946 62.18277,30.36478 61.36328,61.36328 v 25 h 9.0918 v -25 c 0.27315,-36.51278 -33.94229,-70.72823 -70.45508,-70.45508 z m 61.36328,195.45508 v 9.0918 h 9.0918 v -9.0918 z"
               transform="matrix(0.26458333,0,0,0.26458333,0,196.45832)"
               id="path1344"
               inkscape:connector-curvature="0" />
            <path
               style="stroke-width:0.1867386;stroke-linecap:round;paint-order:markers stroke fill"
               d="m -716.15625,100.20703 c -47.54138,0.81946 -87.81726,41.09534 -88.63672,88.63672 0.81946,47.54137 41.09535,87.81724 88.63672,88.63672 h 134.0918 v -9.0918 h -134.0918 v 0.002 c -42.02709,-0.27313 -79.27177,-37.51979 -79.54492,-79.54687 0.27315,-42.02708 37.51784,-79.27175 79.54492,-79.54492 42.02711,0.27315 79.2718,37.51781 79.54492,79.54492 v 25 h 9.0918 v -25 c -0.81947,-47.54138 -41.09532,-87.81726 -88.63672,-88.63672 z m 79.54492,213.63672 v 9.0918 h 9.0918 v -9.0918 z"
               transform="matrix(0.26458333,0,0,0.26458333,0,196.45832)"
               id="path1346"
               inkscape:connector-curvature="0" />
            <path
               style="stroke-width:0.1867386;stroke-linecap:round;paint-order:markers stroke fill"
               d="m -716.15625,82.025391 c -58.56997,1.912073 -104.90628,48.248379 -106.81836,106.818359 1.91207,58.56996 48.2484,104.90626 106.81836,106.81836 h 134.0918 v -9.08984 h -134.0918 c -53.05565,-1.36577 -96.3608,-44.67288 -97.72656,-97.72852 1.36576,-53.05564 44.67093,-96.360781 97.72656,-97.726562 53.05567,1.365765 96.36083,44.670882 97.72656,97.726562 v 25 h 9.0918 v -25 C -611.24997,130.27379 -657.58625,83.937471 -716.15625,82.025391 Z m 97.72656,231.818359 v 9.0918 h 9.0918 v -9.0918 z"
               transform="matrix(0.26458333,0,0,0.26458333,0,196.45832)"
               id="path1348"
               inkscape:connector-curvature="0" />
            <path
               style="stroke-width:0.1867386;stroke-linecap:round;paint-order:markers stroke fill"
               d="m -716.15625,63.84375 c -69.59855,3.004689 -121.99531,55.40145 -125,125 3.00469,69.59853 55.40147,121.99529 125,125 h 115.9082 v 9.0918 h 9.0918 v -9.0918 h 9.0918 v -9.08984 h -134.0918 c -64.08426,-2.45838 -113.45177,-51.82592 -115.91016,-115.91016 2.45839,-64.08424 51.82592,-113.449802 115.91016,-115.908203 64.08428,2.458384 113.44986,51.823903 115.9082,115.908203 v 25 h 9.0918 v -25 c -3.0047,-69.59854 -55.40142,-121.99531 -125,-125 z"
               transform="matrix(0.26458333,0,0,0.26458333,0,196.45832)"
               id="path1350"
               inkscape:connector-curvature="0" />
          </g>
        </g>
      </g>
    </g>
    <g
       aria-label="RANGE"
       style="font-size:2.46944451px;font-family:'DejaVu Sans Mono';-inkscape-font-specification:'DejaVu Sans Mono';letter-spacing:0px;word-spacing:0px;fill:#f0f0f0;stroke-width:0.26458332"
       id="text822"
       transform="translate(0,1.7265073)">
      <path
         d="m 14.740017,232.77147 q 0.09405,0.0241 0.160369,0.0916 0.06632,0.0663 0.165193,0.26648 l 0.244774,0.49196 h -0.261655 l -0.21463,-0.45458 q -0.09285,-0.19413 -0.167604,-0.2496 -0.07355,-0.0567 -0.192925,-0.0567 h -0.232716 v 0.76085 h -0.244774 v -1.80023 h 0.501606 q 0.296622,0 0.45458,0.13384 0.157958,0.13384 0.157958,0.38706 0,0.17845 -0.09767,0.29179 -0.09646,0.11214 -0.272507,0.13746 z m -0.499194,-0.74999 v 0.63906 h 0.266478 q 0.174839,0 0.260449,-0.0784 0.08561,-0.0784 0.08561,-0.23995 0,-0.15555 -0.09164,-0.23754 -0.09043,-0.0832 -0.264066,-0.0832 z"
         style="-inkscape-font-specification:'DejaVu Sans Mono'"
         id="path955"
         inkscape:connector-curvature="0" />
      <path
         d="m 16.05191,232.03595 -0.256832,0.92121 h 0.513663 z m -0.147106,-0.21463 h 0.295417 l 0.551043,1.80023 h -0.252009 l -0.132636,-0.46905 h -0.630625 l -0.130224,0.46905 h -0.252009 z"
         style="-inkscape-font-specification:'DejaVu Sans Mono'"
         id="path957"
         inkscape:connector-curvature="0" />
      <path
         d="m 16.962276,231.82132 h 0.308681 l 0.607715,1.4819 v -1.4819 h 0.235127 v 1.80023 h -0.30868 l -0.607715,-1.48191 v 1.48191 h -0.235128 z"
         style="-inkscape-font-specification:'DejaVu Sans Mono'"
         id="path959"
         inkscape:connector-curvature="0" />
      <path
         d="m 19.611383,233.47324 q -0.09767,0.0904 -0.220659,0.13746 -0.121784,0.0458 -0.264066,0.0458 -0.342443,0 -0.532957,-0.24477 -0.190513,-0.24598 -0.190513,-0.68851 0,-0.44131 0.192925,-0.68729 0.192925,-0.24719 0.536574,-0.24719 0.113343,0 0.217041,0.0326 0.103697,0.0314 0.20016,0.0965 v 0.2496 q -0.09767,-0.0928 -0.20016,-0.13626 -0.102492,-0.0446 -0.217041,-0.0446 -0.23754,0 -0.356912,0.18448 -0.118167,0.18328 -0.118167,0.55225 0,0.375 0.114549,0.55587 0.115755,0.17966 0.354501,0.17966 0.08079,0 0.141076,-0.0181 0.0615,-0.0193 0.110932,-0.0591 v -0.48352 h -0.261655 v -0.20016 h 0.494372 z"
         style="-inkscape-font-specification:'DejaVu Sans Mono'"
         id="path961"
         inkscape:connector-curvature="0" />
      <path
         d="m 20.003262,231.82132 h 1.068324 v 0.20498 H 20.24683 v 0.53296 h 0.788583 v 0.20498 H 20.24683 v 0.65233 h 0.847666 v 0.20498 h -1.091234 z"
         style="-inkscape-font-specification:'DejaVu Sans Mono'"
         id="path963"
         inkscape:connector-curvature="0" />
    </g>
    <g
       aria-label="DN"
       style="font-size:2.46944451px;font-family:'DejaVu Sans Mono';-inkscape-font-specification:'DejaVu Sans Mono';letter-spacing:0px;word-spacing:0px;fill:#f0f0f0;stroke-width:0.26458332"
       id="text894"
       transform="translate(0,2.1166667)">
      <path
         d="m 16.586072,246.12136 q 0.307475,0 0.429259,-0.15073 0.121784,-0.15192 0.121784,-0.54742 0,-0.39912 -0.121784,-0.54984 -0.120578,-0.15193 -0.429259,-0.15193 h -0.115755 v 1.39992 z m 0.0048,-1.60008 q 0.412378,0 0.607715,0.21946 0.195337,0.21945 0.195337,0.68247 0,0.46061 -0.195337,0.68006 -0.195337,0.21825 -0.607715,0.21825 H 16.22552 v -1.80024 z"
         style="-inkscape-font-specification:'DejaVu Sans Mono'"
         id="path973"
         inkscape:connector-curvature="0" />
      <path
         d="m 17.71348,244.52128 h 0.30868 l 0.607715,1.48191 v -1.48191 h 0.235128 v 1.80024 h -0.308681 l -0.607715,-1.48191 v 1.48191 H 17.71348 Z"
         style="-inkscape-font-specification:'DejaVu Sans Mono'"
         id="path975"
         inkscape:connector-curvature="0" />
    </g>
    <g
       aria-label="MIX"
       style="font-size:2.46944451px;font-family:'DejaVu Sans Mono';-inkscape-font-specification:'DejaVu Sans Mono';letter-spacing:0px;word-spacing:0px;fill:#f0f0f0;stroke-width:0.26458332"
       id="text898"
       transform="translate(0,-0.52916667)">
      <path
         d="m 15.379685,260.3963 h 0.325562 l 0.311092,0.91639 0.313503,-0.91639 h 0.326768 v 1.80023 h -0.225482 v -1.59043 l -0.320738,0.94896 h -0.184485 l -0.321944,-0.94896 v 1.59043 h -0.224276 z"
         style="-inkscape-font-specification:'DejaVu Sans Mono'"
         id="path983"
         inkscape:connector-curvature="0" />
      <path
         d="m 17.003875,260.3963 h 0.999595 v 0.20498 h -0.37741 v 1.39027 h 0.37741 v 0.20498 h -0.999595 v -0.20498 h 0.377411 v -1.39027 h -0.377411 z"
         style="-inkscape-font-specification:'DejaVu Sans Mono'"
         id="path985"
         inkscape:connector-curvature="0" />
      <path
         d="m 18.350736,260.3963 h 0.261655 l 0.395496,0.67885 0.402732,-0.67885 h 0.261655 l -0.538985,0.84646 0.57757,0.95377 h -0.261655 l -0.441317,-0.77532 -0.476284,0.77532 h -0.262861 l 0.602892,-0.95377 z"
         style="-inkscape-font-specification:'DejaVu Sans Mono'"
         id="path987"
         inkscape:connector-curvature="0" />
    </g>
    <g
       aria-label="SYM"
       style="font-size:2.46944451px;font-family:'DejaVu Sans Mono';-inkscape-font-specification:'DejaVu Sans Mono';letter-spacing:0px;word-spacing:0px;fill:#f0f0f0;stroke-width:0.26458332"
       id="text902"
       transform="translate(0,-0.52916667)">
      <path
         d="m 5.7792748,260.45779 v 0.24719 q -0.1109321,-0.0711 -0.2230699,-0.10732 -0.1109321,-0.0362 -0.2242758,-0.0362 -0.172427,0 -0.272507,0.0808 -0.10008,0.0796 -0.10008,0.21583 0,0.11938 0.065112,0.18208 0.066318,0.0627 0.2459798,0.1049 l 0.127813,0.0289 q 0.2532146,0.0591 0.3689698,0.18569 0.1157552,0.12661 0.1157552,0.34485 0,0.25684 -0.1591634,0.39188 -0.1591634,0.13505 -0.4630209,0.13505 -0.1266072,0 -0.2544203,-0.0277 -0.127813,-0.0265 -0.2568319,-0.0808 v -0.25924 q 0.1386651,0.088 0.261655,0.12902 0.1241957,0.041 0.2495972,0.041 0.1844849,0 0.2869765,-0.082 0.1024916,-0.0832 0.1024916,-0.23151 0,-0.13505 -0.071141,-0.20619 -0.069936,-0.0711 -0.2447741,-0.10973 l -0.1302246,-0.0301 q -0.250803,-0.0567 -0.3641466,-0.17122 -0.1133437,-0.11455 -0.1133437,-0.30748 0,-0.24115 0.161575,-0.38585 0.1627808,-0.1459 0.4316705,-0.1459 0.1036974,0 0.2182468,0.0241 0.1145494,0.0229 0.2411567,0.0699 z"
         style="-inkscape-font-specification:'DejaVu Sans Mono'"
         id="path990"
         inkscape:connector-curvature="0" />
      <path
         d="m 6.0891612,260.3963 h 0.2592434 l 0.4389052,0.79461 0.4376994,-0.79461 h 0.261655 l -0.5775703,0.99236 v 0.80787 h -0.244774 v -0.80787 z"
         style="-inkscape-font-specification:'DejaVu Sans Mono'"
         id="path992"
         inkscape:connector-curvature="0" />
      <path
         d="m 7.6337698,260.3963 h 0.3255616 l 0.3110921,0.91639 0.3135037,-0.91639 h 0.3267673 v 1.80023 H 8.685213 v -1.59043 l -0.3207384,0.94896 H 8.1799897 L 7.8580456,260.6061 v 1.59043 H 7.6337698 Z"
         style="-inkscape-font-specification:'DejaVu Sans Mono'"
         id="path994"
         inkscape:connector-curvature="0" />
    </g>
    <g
       aria-label="UP"
       style="font-size:2.46944451px;font-family:'DejaVu Sans Mono';-inkscape-font-specification:'DejaVu Sans Mono';letter-spacing:0px;word-spacing:0px;fill:#f0f0f0;stroke-width:0.26458332"
       id="text906"
       transform="translate(0,2.1166667)">
      <path
         d="m 5.4766233,245.6306 v -1.10932 h 0.2447741 v 1.22026 q 0,0.13143 0.00723,0.1881 0.00723,0.0555 0.025321,0.0856 0.038585,0.0711 0.1109321,0.10731 0.073553,0.0362 0.1772502,0.0362 0.1049031,0 0.1772501,-0.0362 0.072347,-0.0362 0.1121379,-0.10731 0.018087,-0.0302 0.025321,-0.0856 0.00723,-0.0555 0.00723,-0.18569 v -1.22267 H 6.607638 v 1.10932 q 0,0.27613 -0.034968,0.39309 -0.033762,0.11575 -0.1181668,0.19172 -0.079582,0.0711 -0.1820733,0.10611 -0.1024916,0.035 -0.2303046,0.035 -0.1266073,0 -0.2290989,-0.035 -0.1024916,-0.035 -0.1832791,-0.10611 -0.083199,-0.0748 -0.1181668,-0.19293 -0.034968,-0.11937 -0.034968,-0.39188 z"
         style="-inkscape-font-specification:'DejaVu Sans Mono'"
         id="path978"
         inkscape:connector-curvature="0" />
      <path
         d="m 7.266006,244.72144 v 0.67645 h 0.2821533 q 0.1688097,0 0.2628608,-0.0892 0.095257,-0.0892 0.095257,-0.2496 0,-0.16037 -0.094051,-0.24839 -0.094051,-0.0892 -0.2640666,-0.0892 z m -0.2435683,-0.20016 h 0.5257216 q 0.3014459,0 0.456992,0.13746 0.155546,0.13626 0.155546,0.40032 0,0.26648 -0.155546,0.40273 -0.1543403,0.13626 -0.456992,0.13626 H 7.266006 v 0.72347 H 7.0224377 Z"
         style="-inkscape-font-specification:'DejaVu Sans Mono'"
         id="path980"
         inkscape:connector-curvature="0" />
    </g>
    <g
       aria-label="CV F"
       style="font-size:2.46944451px;font-family:'DejaVu Sans Mono';-inkscape-font-specification:'DejaVu Sans Mono';letter-spacing:0px;word-spacing:0px;fill:#f0f0f0;stroke-width:0.26458332"
       id="text910"
       transform="translate(1.4538652,1.7265073)">
      <path
         d="m 3.6760953,233.55764 q -0.092845,0.0494 -0.1905138,0.0736 -0.097668,0.0253 -0.2073947,0.0253 -0.3460599,0 -0.5377795,-0.24477 -0.1905138,-0.24478 -0.1905138,-0.68851 0,-0.44131 0.1917196,-0.68729 0.1929254,-0.24719 0.5365737,-0.24719 0.1097262,0 0.2073947,0.0253 0.097669,0.0241 0.1905138,0.0736 v 0.2496 q -0.089228,-0.0735 -0.1917196,-0.11214 -0.1024916,-0.0386 -0.2061889,-0.0386 -0.2375394,0 -0.3557062,0.18328 -0.1181667,0.18328 -0.1181667,0.55345 0,0.36897 0.1181667,0.55225 0.1181668,0.18328 0.3557062,0.18328 0.1061089,0 0.2073947,-0.0386 0.1024916,-0.0386 0.1905138,-0.11214 z"
         style="-inkscape-font-specification:'DejaVu Sans Mono'"
         id="path966"
         inkscape:connector-curvature="0" />
      <path
         d="m 4.6105775,233.41657 0.42323,-1.59525 h 0.2520087 l -0.5269273,1.80023 h -0.295417 l -0.5269273,-1.80023 h 0.2520087 z"
         style="-inkscape-font-specification:'DejaVu Sans Mono'"
         id="path968"
         inkscape:connector-curvature="0" />
      <path
         d="m 7.1198131,231.82132 h 1.0598836 v 0.20498 H 7.3645871 v 0.53054 h 0.7391453 v 0.20499 H 7.3645871 v 0.85972 h -0.244774 z"
         style="-inkscape-font-specification:'DejaVu Sans Mono'"
         id="path970"
         inkscape:connector-curvature="0" />
    </g>
    <g
       transform="matrix(0.29362739,0,0,0.29362739,12.742923,244.60903)"
       id="g11309"
       style="fill:#f0f0f0;fill-opacity:0.8">
      <g
         id="text11303"
         style="font-size:10.58333302px;font-family:sans-serif;letter-spacing:0px;word-spacing:0px;stroke-width:0.26458332"
         aria-label="MS">
        <path
           inkscape:connector-curvature="0"
           id="path1043"
           style="-inkscape-font-specification:Strasua"
           d="m -13.102167,168.46541 q 0.148166,-0.23284 0.370416,-0.32809 0.22225,-0.10583 0.455084,-0.10583 0.275166,0 0.4445,0.20108 0.169333,0.1905 0.169333,0.51859 v 5.02708 l 3.5348333,-5.31283 q 0.1481667,-0.23284 0.3598333,-0.32809 0.22225,-0.10583 0.4656667,-0.10583 0.2751666,0 0.4445,0.20108 0.1693333,0.1905 0.1693333,0.51859 v 7.59883 h -1.4393333 v -5.57742 l -3.2173333,5.08 q -0.179917,0.28575 -0.391583,0.39159 -0.211667,0.10583 -0.433917,0.10583 -0.1905,0 -0.359833,-0.0635 -0.169334,-0.0741 -0.296334,-0.20108 -0.127,-0.127 -0.201083,-0.29634 -0.07408,-0.16933 -0.07408,-0.381 v -4.6355 l -3.534833,5.57742 h -1.7145 z" />
        <path
           inkscape:connector-curvature="0"
           id="path1045"
           style="-inkscape-font-specification:Strasua"
           d="m -5.7073936,176.34999 v -1.43933 h 2.8892499 q 0.66675,0 1.1006666,-0.3175 0.4339167,-0.3175 0.4339167,-0.8255 0,-0.254 -0.1164167,-0.46567 -0.1164167,-0.21167 -0.3175,-0.35983 -0.2010833,-0.15875 -0.4868333,-0.24342 -0.28575,-0.0847 -0.6138333,-0.0847 h -0.6561667 q -0.5079999,0 -0.9419166,-0.15875 -0.4339167,-0.16933 -0.7514166,-0.46566 -0.3175,-0.30692 -0.4974167,-0.70909 -0.1799167,-0.41275 -0.1799167,-0.91016 0,-0.48684 0.1799167,-0.89959 0.1905,-0.41275 0.5291667,-0.71966 0.3386666,-0.30692 0.8149166,-0.47625 0.47625,-0.17992 1.04775,-0.17992 h 2.74108322 v 1.43933 H -3.3473104 q -0.4550833,0 -0.7196666,0.254 -0.2645833,0.24342 -0.2645833,0.59267 0,0.381 0.2645833,0.635 0.2751666,0.254 0.7196666,0.254 h 0.8149167 q 0.5503333,0 1.0159999,0.1905 0.4656667,0.17992 0.80433336,0.51858 0.33866665,0.33867 0.52916665,0.80434 0.19049999,0.46566 0.19049999,1.016 0,0.56091 -0.20108333,1.02658 -0.20108332,0.46567 -0.58208331,0.80433 -0.37041666,0.33867 -0.88899996,0.52917 -0.5185833,0.1905 -1.1535833,0.1905 z" />
      </g>
      <g
         id="text11307"
         style="font-size:10.58333302px;font-family:sans-serif;letter-spacing:0px;word-spacing:0px;stroke-width:0.26458332"
         transform="scale(-1,1)"
         aria-label="M">
        <path
           inkscape:connector-curvature="0"
           id="path1048"
           style="-inkscape-font-specification:Strasua"
           d="m -7.4032889,168.46365 q 0.1481666,-0.23283 0.3704166,-0.32808 0.22225,-0.10583 0.4550834,-0.10583 0.2751666,0 0.4444999,0.20108 0.1693334,0.1905 0.1693334,0.51858 v 5.02709 l 3.5348332,-5.31284 q 0.1481667,-0.23283 0.3598333,-0.32808 0.22225,-0.10583 0.4656667,-0.10583 0.2751666,0 0.4445,0.20108 0.16933329,0.1905 0.16933329,0.51858 v 7.59884 H -2.4291224 v -5.57742 l -3.2173332,5.08 q -0.1799167,0.28575 -0.3915834,0.39158 -0.2116666,0.10584 -0.4339166,0.10584 -0.1905,0 -0.3598333,-0.0635 -0.1693334,-0.0741 -0.2963334,-0.20109 -0.127,-0.127 -0.2010833,-0.29633 -0.074083,-0.16933 -0.074083,-0.381 v -4.6355 l -3.5348334,5.57742 h -1.7145 z" />
      </g>
    </g>
    <g
       aria-label="WAVE FOLDER"
       style="font-size:3.52777767px;font-family:'DejaVu Sans Mono';-inkscape-font-specification:'DejaVu Sans Mono';letter-spacing:0px;word-spacing:0px;fill:#f0f0f0;stroke-width:0.26458332"
       id="text1040">
      <path
         d="M 7.5042787,197.61326 H 7.948696 l 0.1843126,1.88792 0.2222087,-1.22129 h 0.4220242 l 0.2583821,1.22129 0.144694,-1.88792 H 9.62818 l -0.2962782,2.57177 H 8.8582012 L 8.5653681,198.83455 8.291483,200.18503 H 7.8212275 Z"
         style="-inkscape-font-specification:'DejaVu Sans Mono Bold'"
         id="path934"
         inkscape:connector-curvature="0" />
      <path
         d="m 10.687547,198.07835 -0.239434,1.05248 h 0.480591 z m -0.310059,-0.46509 h 0.62184 l 0.694187,2.57177 h -0.508152 l -0.158474,-0.63562 h -0.680407 l -0.155029,0.63562 H 9.6833016 Z"
         style="-inkscape-font-specification:'DejaVu Sans Mono Bold'"
         id="path936"
         inkscape:connector-curvature="0" />
      <path
         d="m 12.809726,199.76128 0.45303,-2.14802 h 0.511596 l -0.611504,2.57177 h -0.704522 l -0.611504,-2.57177 h 0.511596 z"
         style="-inkscape-font-specification:'DejaVu Sans Mono Bold'"
         id="path938"
         inkscape:connector-curvature="0" />
      <path
         d="m 15.762172,200.18503 h -1.601969 v -2.57177 h 1.601969 v 0.44787 h -1.093818 v 0.55466 h 0.990465 v 0.44786 h -0.990465 v 0.67352 h 1.093818 z"
         style="-inkscape-font-specification:'DejaVu Sans Mono Bold'"
         id="path940"
         inkscape:connector-curvature="0" />
      <path
         d="M 7.297573,202.47085 H 6.2037552 v 0.55466 h 0.9956326 v 0.44786 H 6.2037552 v 1.12138 H 5.6956037 v -2.57176 H 7.297573 Z"
         style="-inkscape-font-specification:'DejaVu Sans Mono Bold'"
         id="path942"
         inkscape:connector-curvature="0" />
      <path
         d="m 8.5653681,202.43295 q -0.1946478,0 -0.2842203,0.20843 -0.089572,0.20671 -0.089572,0.67007 0,0.46164 0.089572,0.67007 0.089573,0.20671 0.2842203,0.20671 0.1963705,0 0.285943,-0.20671 0.089572,-0.20843 0.089572,-0.67007 0,-0.46336 -0.089572,-0.67007 -0.089573,-0.20843 -0.285943,-0.20843 z m -0.9026149,0.8785 q 0,-0.65973 0.2273763,-0.99735 0.2290988,-0.33762 0.6752386,-0.33762 0.4478624,0 0.6752387,0.33762 0.2290989,0.33762 0.2290989,0.99735 0,0.65802 -0.2290989,0.99563 -0.2273763,0.33762 -0.6752387,0.33762 -0.4461398,0 -0.6752386,-0.33762 -0.2273763,-0.33761 -0.2273763,-0.99563 z"
         style="-inkscape-font-specification:'DejaVu Sans Mono Bold'"
         id="path944"
         inkscape:connector-curvature="0" />
      <path
         d="m 10.014031,204.59475 v -2.57176 h 0.508151 v 2.1239 h 1.086928 v 0.44786 z"
         style="-inkscape-font-specification:'DejaVu Sans Mono Bold'"
         id="path946"
         inkscape:connector-curvature="0" />
      <path
         d="m 12.492777,202.48118 v 1.65537 h 0.137804 q 0.299723,0 0.427191,-0.18776 0.127469,-0.18948 0.127469,-0.64251 0,-0.44958 -0.127469,-0.63734 -0.127468,-0.18776 -0.427191,-0.18776 z m -0.508152,-0.45819 h 0.544325 q 0.630453,0 0.907783,0.30144 0.27733,0.29973 0.27733,0.98185 0,0.68386 -0.27733,0.98702 -0.27733,0.30145 -0.907783,0.30145 h -0.544325 z"
         style="-inkscape-font-specification:'DejaVu Sans Mono Bold'"
         id="path948"
         inkscape:connector-curvature="0" />
      <path
         d="m 15.762173,204.59475 h -1.60197 v -2.57176 h 1.60197 v 0.44786 h -1.093818 v 0.55466 h 0.990465 v 0.44786 h -0.990465 v 0.67352 h 1.093818 z"
         style="-inkscape-font-specification:'DejaVu Sans Mono Bold'"
         id="path950"
         inkscape:connector-curvature="0" />
      <path
         d="m 17.38309,203.38035 q 0.07579,0.0155 0.130914,0.0724 0.05684,0.0551 0.137804,0.21704 l 0.465087,0.92501 H 17.55879 l -0.310059,-0.6494 q -0.01378,-0.0276 -0.03617,-0.0758 -0.136081,-0.29111 -0.320394,-0.29111 h -0.161919 v 1.0163 h -0.508152 v -2.57176 h 0.733805 q 0.496094,0 0.711413,0.1757 0.217041,0.1757 0.217041,0.57188 0,0.26527 -0.129192,0.42203 -0.129191,0.15675 -0.37207,0.18775 z m -0.652845,-0.93017 v 0.70108 h 0.239434 q 0.208428,0 0.298,-0.081 0.0913,-0.0827 0.0913,-0.27044 0,-0.18776 -0.08957,-0.26872 -0.08957,-0.081 -0.299723,-0.081 z"
         style="-inkscape-font-specification:'DejaVu Sans Mono Bold'"
         id="path952"
         inkscape:connector-curvature="0" />
    </g>
    <g
       aria-label="FOLD"
       style="font-size:2.46944451px;font-family:'DejaVu Sans Mono';-inkscape-font-specification:'DejaVu Sans Mono';letter-spacing:0px;word-spacing:0px;fill:#f0f0f0;stroke-width:0.26458332"
       id="text999"
       transform="translate(28.114106,-6.35)">
      <path
         d="m -18.962457,227.31329 h 1.059884 v 0.20498 h -0.81511 v 0.53055 h 0.739145 v 0.20498 h -0.739145 v 0.85973 h -0.244774 z"
         id="path1001"
         inkscape:connector-curvature="0" />
      <path
         d="m -16.666645,228.21522 q 0,-0.39671 -0.08199,-0.56672 -0.08079,-0.17002 -0.266479,-0.17002 -0.184484,0 -0.266478,0.17002 -0.08079,0.17001 -0.08079,0.56672 0,0.39549 0.08079,0.56551 0.08199,0.17001 0.266478,0.17001 0.185691,0 0.266479,-0.16881 0.08199,-0.17001 0.08199,-0.56671 z m 0.25442,0 q 0,0.47025 -0.149517,0.70176 -0.148311,0.23151 -0.453375,0.23151 -0.305063,0 -0.453374,-0.2303 -0.148311,-0.23031 -0.148311,-0.70297 0,-0.47146 0.148311,-0.70298 0.149517,-0.23151 0.453374,-0.23151 0.305064,0 0.453375,0.23151 0.149517,0.23152 0.149517,0.70298 z"
         id="path1003"
         inkscape:connector-curvature="0" />
      <path
         d="m -16.01311,227.31329 h 0.244774 v 1.59525 h 0.869369 v 0.20499 h -1.114143 z"
         id="path1005"
         inkscape:connector-curvature="0" />
      <path
         d="m -14.261107,228.91337 q 0.307475,0 0.429259,-0.15073 0.121784,-0.15193 0.121784,-0.54742 0,-0.39912 -0.121784,-0.54984 -0.120578,-0.15193 -0.429259,-0.15193 h -0.115755 v 1.39992 z m 0.0048,-1.60008 q 0.412378,0 0.607715,0.21945 0.195337,0.21946 0.195337,0.68248 0,0.46061 -0.195337,0.68006 -0.195337,0.21825 -0.607715,0.21825 h -0.365352 v -1.80024 z"
         id="path1007"
         inkscape:connector-curvature="0" />
    </g>
    <g
       aria-label="I"
       style="font-size:2.46944451px;font-family:'DejaVu Sans Mono';-inkscape-font-specification:'DejaVu Sans Mono';letter-spacing:0px;word-spacing:0px;fill:#f0f0f0;stroke-width:0.26458332"
       id="text1012"
       transform="translate(41.737351,-13.758335)">
      <path
         d="m -39.046254,231.45596 h 0.999595 v 0.20498 h -0.37741 v 1.39027 h 0.37741 v 0.20499 h -0.999595 v -0.20499 h 0.377411 v -1.39027 h -0.377411 z"
         id="path1018"
         inkscape:connector-curvature="0" />
    </g>
    <g
       aria-label="II"
       style="font-size:2.46944451px;font-family:'DejaVu Sans Mono';-inkscape-font-specification:'DejaVu Sans Mono';letter-spacing:0px;word-spacing:0px;fill:#f0f0f0;stroke-width:0.26458332"
       id="text1016"
       transform="translate(41.737351,-28.575002)">
      <path
         d="m -39.789017,236.74763 h 0.999594 v 0.20499 h -0.37741 v 1.39026 h 0.37741 v 0.20499 h -0.999594 v -0.20499 h 0.37741 v -1.39026 h -0.37741 z"
         id="path1021"
         inkscape:connector-curvature="0" />
      <path
         d="m -38.303492,236.74763 h 0.999595 v 0.20499 h -0.377411 v 1.39026 h 0.377411 v 0.20499 h -0.999595 v -0.20499 h 0.37741 v -1.39026 h -0.37741 z"
         id="path1023"
         inkscape:connector-curvature="0" />
    </g>
    <g
       aria-label="OUT"
       style="font-size:2.46944451px;font-family:'DejaVu Sans Mono';-inkscape-font-specification:'DejaVu Sans Mono';letter-spacing:0px;word-spacing:0px;fill:#f0f0f0;fill-opacity:0.98333333;stroke-width:0.26458332"
       id="text1292"
       transform="translate(43.737738,25.398362)">
      <path
         d="m -25.635718,266.5684 q 0,-0.39671 -0.08199,-0.56672 -0.08079,-0.17002 -0.266478,-0.17002 -0.184485,0 -0.266478,0.17002 -0.08079,0.17001 -0.08079,0.56672 0,0.39549 0.08079,0.56551 0.08199,0.17001 0.266478,0.17001 0.185691,0 0.266478,-0.16881 0.08199,-0.17001 0.08199,-0.56671 z m 0.254421,0 q 0,0.47025 -0.149517,0.70176 -0.148312,0.23151 -0.453375,0.23151 -0.305063,0 -0.453375,-0.2303 -0.148311,-0.23031 -0.148311,-0.70297 0,-0.47146 0.148311,-0.70298 0.149518,-0.23151 0.453375,-0.23151 0.305063,0 0.453375,0.23151 0.149517,0.23152 0.149517,0.70298 z"
         id="path1294"
         inkscape:connector-curvature="0" />
      <path
         d="m -25.064176,266.77579 v -1.10932 h 0.244774 v 1.22025 q 0,0.13143 0.0072,0.18811 0.0072,0.0555 0.02532,0.0856 0.03859,0.0711 0.110932,0.10731 0.07355,0.0362 0.17725,0.0362 0.104903,0 0.17725,-0.0362 0.07235,-0.0362 0.112138,-0.10731 0.01809,-0.0301 0.02532,-0.0856 0.0072,-0.0555 0.0072,-0.18569 v -1.22267 h 0.243569 v 1.10932 q 0,0.27613 -0.03497,0.39309 -0.03376,0.11575 -0.118167,0.19172 -0.07958,0.0711 -0.182073,0.10611 -0.102492,0.035 -0.230305,0.035 -0.126607,0 -0.229099,-0.035 -0.102491,-0.035 -0.183279,-0.10611 -0.0832,-0.0748 -0.118166,-0.19293 -0.03497,-0.11937 -0.03497,-0.39188 z"
         id="path1297"
         inkscape:connector-curvature="0" />
      <path
         d="m -23.699229,265.66647 h 1.373387 v 0.20498 h -0.563101 v 1.59526 h -0.244774 v -1.59526 h -0.565512 z"
         id="path1299"
         inkscape:connector-curvature="0" />
    </g>
    <g
       aria-label="IN"
       style="font-size:2.46944451px;font-family:'DejaVu Sans Mono';-inkscape-font-specification:'DejaVu Sans Mono';letter-spacing:0px;word-spacing:0px;fill:#f0f0f0;fill-opacity:0.98333333;stroke-width:0.26458332"
       id="text1304"
       transform="translate(38.644639,-0.00163846)">
      <path
         d="m -35.170849,291.06769 h 0.999594 v 0.20498 h -0.37741 v 1.39027 h 0.37741 v 0.20498 h -0.999594 v -0.20498 h 0.37741 v -1.39027 h -0.37741 z"
         id="path1327"
         inkscape:connector-curvature="0" />
      <path
         d="m -33.760083,291.06769 h 0.308681 l 0.607715,1.4819 v -1.4819 h 0.235128 v 1.80023 h -0.308681 l -0.607715,-1.48191 v 1.48191 h -0.235128 z"
         id="path1329"
         inkscape:connector-curvature="0" />
    </g>
    <g
       aria-label="CV F"
       style="font-size:2.46944451px;font-family:'DejaVu Sans Mono';-inkscape-font-specification:'DejaVu Sans Mono';letter-spacing:0px;word-spacing:0px;fill:#f0f0f0;fill-opacity:0.98333333;stroke-width:0.26458332"
       id="text1308"
       transform="translate(33.769095,-0.00163846)">
      <path
         d="m -23.536074,292.80401 q -0.09285,0.0494 -0.190514,0.0736 -0.09767,0.0253 -0.207395,0.0253 -0.34606,0 -0.537779,-0.24478 -0.190514,-0.24477 -0.190514,-0.6885 0,-0.44132 0.19172,-0.6873 0.192925,-0.24718 0.536573,-0.24718 0.109727,0 0.207395,0.0253 0.09767,0.0241 0.190514,0.0736 v 0.2496 q -0.08923,-0.0736 -0.19172,-0.11214 -0.102491,-0.0386 -0.206189,-0.0386 -0.237539,0 -0.355706,0.18328 -0.118167,0.18328 -0.118167,0.55345 0,0.36897 0.118167,0.55225 0.118167,0.18328 0.355706,0.18328 0.106109,0 0.207395,-0.0386 0.102492,-0.0386 0.190514,-0.11213 z"
         id="path1333"
         inkscape:connector-curvature="0" />
      <path
         d="m -22.601592,292.66294 0.42323,-1.59525 h 0.252009 l -0.526928,1.80023 h -0.295416 l -0.526928,-1.80023 h 0.252009 z"
         id="path1335"
         inkscape:connector-curvature="0" />
      <path
         d="m -20.092356,291.06769 h 1.059883 v 0.20498 h -0.815109 v 0.53054 h 0.739145 v 0.20499 h -0.739145 v 0.85972 h -0.244774 z"
         id="path1337"
         inkscape:connector-curvature="0" />
    </g>
    <g
       aria-label="UP"
       style="font-size:2.46944451px;font-family:'DejaVu Sans Mono';-inkscape-font-specification:'DejaVu Sans Mono';letter-spacing:0px;word-spacing:0px;fill:#f0f0f0;fill-opacity:0.98333333;stroke-width:0.26458332"
       id="text1312"
       transform="translate(38.644639,-4.252472)">
      <path
         d="m -35.235962,286.88535 v -1.10932 h 0.244774 v 1.22025 q 0,0.13143 0.0072,0.1881 0.0072,0.0555 0.02532,0.0856 0.03858,0.0711 0.110932,0.10732 0.07355,0.0362 0.17725,0.0362 0.104903,0 0.17725,-0.0362 0.07235,-0.0362 0.112138,-0.10732 0.01809,-0.0301 0.02532,-0.0856 0.0072,-0.0555 0.0072,-0.18569 v -1.22266 h 0.243568 v 1.10932 q 0,0.27612 -0.03497,0.39308 -0.03376,0.11576 -0.118167,0.19172 -0.07958,0.0711 -0.182074,0.10611 -0.102491,0.035 -0.230304,0.035 -0.126607,0 -0.229099,-0.035 -0.102492,-0.035 -0.183279,-0.10611 -0.0832,-0.0747 -0.118167,-0.19292 -0.03497,-0.11937 -0.03497,-0.39188 z"
         id="path1322"
         inkscape:connector-curvature="0" />
      <path
         d="m -33.446579,285.97619 v 0.67644 h 0.282153 q 0.16881,0 0.262861,-0.0892 0.09526,-0.0892 0.09526,-0.2496 0,-0.16037 -0.09405,-0.24839 -0.09405,-0.0892 -0.264067,-0.0892 z m -0.243568,-0.20016 h 0.525721 q 0.301446,0 0.456992,0.13746 0.155546,0.13625 0.155546,0.40032 0,0.26648 -0.155546,0.40273 -0.15434,0.13625 -0.456992,0.13625 h -0.282153 v 0.72347 h -0.243568 z"
         id="path1324"
         inkscape:connector-curvature="0" />
    </g>
    <g
       id="g991">
      <g
         transform="translate(35.266688,-4.234972)"
         id="text1316"
         style="font-size:2.46944451px;font-family:'DejaVu Sans Mono';-inkscape-font-specification:'DejaVu Sans Mono';letter-spacing:0px;word-spacing:0px;fill:#f0f0f0;fill-opacity:0.98333333;stroke-width:0.26458332"
         aria-label="DN">
        <path
           inkscape:connector-curvature="0"
           id="path1341"
           d="m -24.304158,287.3761 q 0.307475,0 0.429259,-0.15072 0.121784,-0.15193 0.121784,-0.54743 0,-0.39911 -0.121784,-0.54983 -0.120579,-0.15193 -0.429259,-0.15193 h -0.115755 v 1.39991 z m 0.0048,-1.60007 q 0.412378,0 0.607715,0.21945 0.195337,0.21945 0.195337,0.68247 0,0.46061 -0.195337,0.68007 -0.195337,0.21824 -0.607715,0.21824 h -0.365352 v -1.80023 z" />
        <path
           inkscape:connector-curvature="0"
           id="path1343"
           d="m -23.176751,285.77603 h 0.308681 l 0.607715,1.48191 v -1.48191 h 0.235128 v 1.80023 h -0.308681 l -0.607715,-1.4819 v 1.4819 h -0.235128 z" />
      </g>
      <g
         aria-label="CV M"
         style="font-size:2.46944451px;font-family:'DejaVu Sans Mono';-inkscape-font-specification:'DejaVu Sans Mono';letter-spacing:0px;word-spacing:0px;fill:#f0f0f0;stroke-width:0.26458332"
         id="g958"
         transform="translate(38.722488,1.3613364)">
        <path
           d="m -28.509364,272.48092 q -0.09284,0.0494 -0.190514,0.0736 -0.09767,0.0253 -0.207394,0.0253 -0.34606,0 -0.53778,-0.24478 -0.190514,-0.24477 -0.190514,-0.6885 0,-0.44132 0.19172,-0.68729 0.192925,-0.24719 0.536574,-0.24719 0.109726,0 0.207394,0.0253 0.09767,0.0241 0.190514,0.0735 v 0.2496 q -0.08923,-0.0736 -0.191719,-0.11214 -0.102492,-0.0386 -0.206189,-0.0386 -0.23754,0 -0.355706,0.18328 -0.118167,0.18328 -0.118167,0.55345 0,0.36897 0.118167,0.55225 0.118166,0.18328 0.355706,0.18328 0.106109,0 0.207394,-0.0386 0.102492,-0.0386 0.190514,-0.11213 z"
           id="path951"
           inkscape:connector-curvature="0" />
        <path
           d="m -27.574882,272.33985 0.42323,-1.59525 h 0.252009 l -0.526927,1.80023 h -0.295417 l -0.526928,-1.80023 h 0.252009 z"
           id="path953"
           inkscape:connector-curvature="0" />
        <path
           d="m -25.242896,270.7446 h 0.325561 l 0.311092,0.91639 0.313504,-0.91639 h 0.326768 v 1.80023 h -0.225482 v -1.59043 l -0.320738,0.94895 h -0.184485 l -0.321944,-0.94895 v 1.59043 h -0.224276 z"
           id="path956"
           inkscape:connector-curvature="0" />
      </g>
    </g>
    <g
       aria-label="CV M"
       style="font-size:2.46944451px;font-family:'DejaVu Sans Mono';-inkscape-font-specification:'DejaVu Sans Mono';letter-spacing:0px;word-spacing:0px;fill:#f0f0f0;stroke-width:0.26458332"
       id="g937"
       transform="translate(46.082647,10.795233)">
      <path
         d="m -28.509364,272.48092 q -0.09284,0.0494 -0.190514,0.0736 -0.09767,0.0253 -0.207394,0.0253 -0.34606,0 -0.53778,-0.24478 -0.190514,-0.24477 -0.190514,-0.6885 0,-0.44132 0.19172,-0.68729 0.192925,-0.24719 0.536574,-0.24719 0.109726,0 0.207394,0.0253 0.09767,0.0241 0.190514,0.0735 v 0.2496 q -0.08923,-0.0736 -0.191719,-0.11214 -0.102492,-0.0386 -0.206189,-0.0386 -0.23754,0 -0.355706,0.18328 -0.118167,0.18328 -0.118167,0.55345 0,0.36897 0.118167,0.55225 0.118166,0.18328 0.355706,0.18328 0.106109,0 0.207394,-0.0386 0.102492,-0.0386 0.190514,-0.11213 z"
         id="path930"
         inkscape:connector-curvature="0" />
      <path
         d="m -27.574882,272.33985 0.42323,-1.59525 h 0.252009 l -0.526927,1.80023 h -0.295417 l -0.526928,-1.80023 h 0.252009 z"
         id="path932"
         inkscape:connector-curvature="0" />
      <path
         d="m -25.242896,270.7446 h 0.325561 l 0.311092,0.91639 0.313504,-0.91639 h 0.326768 v 1.80023 h -0.225482 v -1.59043 l -0.320738,0.94895 h -0.184485 l -0.321944,-0.94895 v 1.59043 h -0.224276 z"
         id="path935"
         inkscape:connector-curvature="0" />
    </g>
  </g>
</svg>
