<?xml version="1.0" encoding="UTF-8" standalone="no"?>
<!-- Created with Inkscape (http://www.inkscape.org/) -->

<svg
   xmlns:dc="http://purl.org/dc/elements/1.1/"
   xmlns:cc="http://creativecommons.org/ns#"
   xmlns:rdf="http://www.w3.org/1999/02/22-rdf-syntax-ns#"
   xmlns:svg="http://www.w3.org/2000/svg"
   xmlns="http://www.w3.org/2000/svg"
   xmlns:sodipodi="http://sodipodi.sourceforge.net/DTD/sodipodi-0.dtd"
   xmlns:inkscape="http://www.inkscape.org/namespaces/inkscape"
   width="240"
   height="380"
   viewBox="0 0 63.499999 100.54167"
   version="1.1"
   id="svg8"
   inkscape:version="0.92.2 (5c3e80d, 2017-08-06)"
   sodipodi:docname="XSEQ-Expension-Dark.svg">
  <defs
     id="defs2" />
  <sodipodi:namedview
     id="base"
     pagecolor="#ffffff"
     bordercolor="#666666"
     borderopacity="1.0"
     inkscape:pageopacity="0.0"
     inkscape:pageshadow="2"
     inkscape:zoom="1.4142136"
     inkscape:cx="-137.75945"
     inkscape:cy="189.01737"
     inkscape:document-units="mm"
     inkscape:current-layer="layer1"
     showgrid="false"
     units="px"
     inkscape:window-width="1920"
     inkscape:window-height="1028"
     inkscape:window-x="-8"
     inkscape:window-y="-8"
     inkscape:window-maximized="1"
     showguides="true"
     inkscape:guide-bbox="true" />
  <metadata
     id="metadata5">
    <rdf:RDF>
      <cc:Work
         rdf:about="">
        <dc:format>image/svg+xml</dc:format>
        <dc:type
           rdf:resource="http://purl.org/dc/dcmitype/StillImage" />
        <dc:title />
      </cc:Work>
    </rdf:RDF>
  </metadata>
  <g
     inkscape:label="Ebene 1"
     inkscape:groupmode="layer"
     id="layer1"
     transform="translate(0,-196.45832)">
    <rect
       style="fill:#333333;stroke-width:1.13389337;stroke-linecap:round;paint-order:markers stroke fill"
       id="rect815"
       width="47.625"
       height="100.54166"
       x="-6.357829e-007"
       y="196.45833" />
    <g
       style="fill:none;fill-opacity:0.8;stroke:#000000;stroke-width:0.04940792"
       transform="matrix(1.4311608,-1.4311608,1.4311608,1.4311608,-214.82629,-293.88753)"
       id="g935"
       inkscape:transform-center-x="-44.974764"
       inkscape:transform-center-y="119.65244">
      <g
         id="g933">
        <g
           transform="translate(185.73646,-9.5250064)"
           id="g901">
          <g
             id="g885"
             transform="translate(-137.10274)">
            <path
               id="path873"
               transform="matrix(0.26458333,0,0,0.26458333,0,196.45832)"
               d="m -718.94922,154.57227 c -14.32932,0.45458 -33.60356,20.71937 -31.29883,34.27148 -2.45838,14.45558 19.63622,36.55017 34.0918,34.0918 h 134.0918 v -9.0918 h -100.00196 v -25 c 2.45839,-14.4556 -19.63425,-36.54823 -34.08984,-34.08984 -0.90347,-0.15365 -1.83768,-0.21195 -2.79297,-0.18164 z m 1.00586,8.95898 c 0.63005,0.0232 1.22828,0.12471 1.78711,0.3125 8.94127,-3.00469 28.00471,16.05874 25,25 v 25 h -25 c -8.94126,3.00469 -28.00469,-16.05873 -25,-25 -2.8169,-8.38244 13.76214,-25.66117 23.21289,-25.3125 z m 26.78711,150.3125 v 9.0918 h 9.08984 v -9.0918 z"
               style="stroke-width:0.1867386;stroke-linecap:round;paint-order:markers stroke fill"
               inkscape:connector-curvature="0" />
            <path
               id="path875"
               transform="matrix(0.26458333,0,0,0.26458333,0,196.45832)"
               d="m -718.55273,136.5293 c -24.81903,0.43381 -51.20004,27.62664 -49.87696,52.31445 -1.36576,25.48418 26.78925,53.63919 52.27344,52.27344 h 134.0918 v -9.0918 h -134.0918 c -19.96987,1.91207 -45.09371,-23.21177 -43.18164,-43.18164 -1.91207,-19.96987 23.21177,-45.0937 43.18164,-43.18164 19.96988,-1.91208 45.09374,23.21176 43.18164,43.18164 v 25 h 9.0918 v -25 c 1.36576,-25.4842 -26.78924,-53.63725 -52.27344,-52.27148 -0.79638,-0.0427 -1.59587,-0.057 -2.39648,-0.043 z m 45.57812,177.31445 v 9.0918 h 9.0918 v -9.0918 z"
               style="stroke-width:0.1867386;stroke-linecap:round;paint-order:markers stroke fill"
               inkscape:connector-curvature="0" />
            <path
               id="path877"
               transform="matrix(0.26458333,0,0,0.26458333,0,196.45832)"
               d="m -716.15625,118.38867 c -36.51277,-0.27315 -70.72823,33.94231 -70.45508,70.45508 -0.27315,36.51277 33.94231,70.72822 70.45508,70.45508 h 134.0918 v -9.0918 h -134.0918 c -30.99848,0.81946 -62.18274,-30.3648 -61.36328,-61.36328 -0.81946,-30.99848 30.3648,-62.18273 61.36328,-61.36328 30.9985,-0.81946 62.18277,30.36478 61.36328,61.36328 v 25 h 9.0918 v -25 c 0.27315,-36.51278 -33.94229,-70.72823 -70.45508,-70.45508 z m 61.36328,195.45508 v 9.0918 h 9.0918 v -9.0918 z"
               style="stroke-width:0.1867386;stroke-linecap:round;paint-order:markers stroke fill"
               inkscape:connector-curvature="0" />
            <path
               id="path879"
               transform="matrix(0.26458333,0,0,0.26458333,0,196.45832)"
               d="m -716.15625,100.20703 c -47.54138,0.81946 -87.81726,41.09534 -88.63672,88.63672 0.81946,47.54137 41.09535,87.81724 88.63672,88.63672 h 134.0918 v -9.0918 h -134.0918 v 0.002 c -42.02709,-0.27313 -79.27177,-37.51979 -79.54492,-79.54687 0.27315,-42.02708 37.51784,-79.27175 79.54492,-79.54492 42.02711,0.27315 79.2718,37.51781 79.54492,79.54492 v 25 h 9.0918 v -25 c -0.81947,-47.54138 -41.09532,-87.81726 -88.63672,-88.63672 z m 79.54492,213.63672 v 9.0918 h 9.0918 v -9.0918 z"
               style="stroke-width:0.1867386;stroke-linecap:round;paint-order:markers stroke fill"
               inkscape:connector-curvature="0" />
            <path
               id="path881"
               transform="matrix(0.26458333,0,0,0.26458333,0,196.45832)"
               d="m -716.15625,82.025391 c -58.56997,1.912073 -104.90628,48.248379 -106.81836,106.818359 1.91207,58.56996 48.2484,104.90626 106.81836,106.81836 h 134.0918 v -9.08984 h -134.0918 c -53.05565,-1.36577 -96.3608,-44.67288 -97.72656,-97.72852 1.36576,-53.05564 44.67093,-96.360781 97.72656,-97.726562 53.05567,1.365765 96.36083,44.670882 97.72656,97.726562 v 25 h 9.0918 v -25 C -611.24997,130.27379 -657.58625,83.937471 -716.15625,82.025391 Z m 97.72656,231.818359 v 9.0918 h 9.0918 v -9.0918 z"
               style="stroke-width:0.1867386;stroke-linecap:round;paint-order:markers stroke fill"
               inkscape:connector-curvature="0" />
            <path
               id="path883"
               transform="matrix(0.26458333,0,0,0.26458333,0,196.45832)"
               d="m -716.15625,63.84375 c -69.59855,3.004689 -121.99531,55.40145 -125,125 3.00469,69.59853 55.40147,121.99529 125,125 h 115.9082 v 9.0918 h 9.0918 v -9.0918 h 9.0918 v -9.08984 h -134.0918 c -64.08426,-2.45838 -113.45177,-51.82592 -115.91016,-115.91016 2.45839,-64.08424 51.82592,-113.449802 115.91016,-115.908203 64.08428,2.458384 113.44986,51.823903 115.9082,115.908203 v 25 h 9.0918 v -25 c -3.0047,-69.59854 -55.40142,-121.99531 -125,-125 z"
               style="stroke-width:0.1867386;stroke-linecap:round;paint-order:markers stroke fill"
               inkscape:connector-curvature="0" />
          </g>
          <g
             id="g899"
             transform="rotate(90,-222.55592,213.35031)">
            <path
               style="stroke-width:0.1867386;stroke-linecap:round;paint-order:markers stroke fill"
               d="m -718.94922,154.57227 c -14.32932,0.45458 -33.60356,20.71937 -31.29883,34.27148 -2.45838,14.45558 19.63622,36.55017 34.0918,34.0918 h 134.0918 v -9.0918 h -100.00196 v -25 c 2.45839,-14.4556 -19.63425,-36.54823 -34.08984,-34.08984 -0.90347,-0.15365 -1.83768,-0.21195 -2.79297,-0.18164 z m 1.00586,8.95898 c 0.63005,0.0232 1.22828,0.12471 1.78711,0.3125 8.94127,-3.00469 28.00471,16.05874 25,25 v 25 h -25 c -8.94126,3.00469 -28.00469,-16.05873 -25,-25 -2.8169,-8.38244 13.76214,-25.66117 23.21289,-25.3125 z m 26.78711,150.3125 v 9.0918 h 9.08984 v -9.0918 z"
               transform="matrix(0.26458333,0,0,0.26458333,0,196.45832)"
               id="path887"
               inkscape:connector-curvature="0" />
            <path
               style="stroke-width:0.1867386;stroke-linecap:round;paint-order:markers stroke fill"
               d="m -718.55273,136.5293 c -24.81903,0.43381 -51.20004,27.62664 -49.87696,52.31445 -1.36576,25.48418 26.78925,53.63919 52.27344,52.27344 h 134.0918 v -9.0918 h -134.0918 c -19.96987,1.91207 -45.09371,-23.21177 -43.18164,-43.18164 -1.91207,-19.96987 23.21177,-45.0937 43.18164,-43.18164 19.96988,-1.91208 45.09374,23.21176 43.18164,43.18164 v 25 h 9.0918 v -25 c 1.36576,-25.4842 -26.78924,-53.63725 -52.27344,-52.27148 -0.79638,-0.0427 -1.59587,-0.057 -2.39648,-0.043 z m 45.57812,177.31445 v 9.0918 h 9.0918 v -9.0918 z"
               transform="matrix(0.26458333,0,0,0.26458333,0,196.45832)"
               id="path889"
               inkscape:connector-curvature="0" />
            <path
               style="stroke-width:0.1867386;stroke-linecap:round;paint-order:markers stroke fill"
               d="m -716.15625,118.38867 c -36.51277,-0.27315 -70.72823,33.94231 -70.45508,70.45508 -0.27315,36.51277 33.94231,70.72822 70.45508,70.45508 h 134.0918 v -9.0918 h -134.0918 c -30.99848,0.81946 -62.18274,-30.3648 -61.36328,-61.36328 -0.81946,-30.99848 30.3648,-62.18273 61.36328,-61.36328 30.9985,-0.81946 62.18277,30.36478 61.36328,61.36328 v 25 h 9.0918 v -25 c 0.27315,-36.51278 -33.94229,-70.72823 -70.45508,-70.45508 z m 61.36328,195.45508 v 9.0918 h 9.0918 v -9.0918 z"
               transform="matrix(0.26458333,0,0,0.26458333,0,196.45832)"
               id="path891"
               inkscape:connector-curvature="0" />
            <path
               style="stroke-width:0.1867386;stroke-linecap:round;paint-order:markers stroke fill"
               d="m -716.15625,100.20703 c -47.54138,0.81946 -87.81726,41.09534 -88.63672,88.63672 0.81946,47.54137 41.09535,87.81724 88.63672,88.63672 h 134.0918 v -9.0918 h -134.0918 v 0.002 c -42.02709,-0.27313 -79.27177,-37.51979 -79.54492,-79.54687 0.27315,-42.02708 37.51784,-79.27175 79.54492,-79.54492 42.02711,0.27315 79.2718,37.51781 79.54492,79.54492 v 25 h 9.0918 v -25 c -0.81947,-47.54138 -41.09532,-87.81726 -88.63672,-88.63672 z m 79.54492,213.63672 v 9.0918 h 9.0918 v -9.0918 z"
               transform="matrix(0.26458333,0,0,0.26458333,0,196.45832)"
               id="path893"
               inkscape:connector-curvature="0" />
            <path
               style="stroke-width:0.1867386;stroke-linecap:round;paint-order:markers stroke fill"
               d="m -716.15625,82.025391 c -58.56997,1.912073 -104.90628,48.248379 -106.81836,106.818359 1.91207,58.56996 48.2484,104.90626 106.81836,106.81836 h 134.0918 v -9.08984 h -134.0918 c -53.05565,-1.36577 -96.3608,-44.67288 -97.72656,-97.72852 1.36576,-53.05564 44.67093,-96.360781 97.72656,-97.726562 53.05567,1.365765 96.36083,44.670882 97.72656,97.726562 v 25 h 9.0918 v -25 C -611.24997,130.27379 -657.58625,83.937471 -716.15625,82.025391 Z m 97.72656,231.818359 v 9.0918 h 9.0918 v -9.0918 z"
               transform="matrix(0.26458333,0,0,0.26458333,0,196.45832)"
               id="path895"
               inkscape:connector-curvature="0" />
            <path
               style="stroke-width:0.1867386;stroke-linecap:round;paint-order:markers stroke fill"
               d="m -716.15625,63.84375 c -69.59855,3.004689 -121.99531,55.40145 -125,125 3.00469,69.59853 55.40147,121.99529 125,125 h 115.9082 v 9.0918 h 9.0918 v -9.0918 h 9.0918 v -9.08984 h -134.0918 c -64.08426,-2.45838 -113.45177,-51.82592 -115.91016,-115.91016 2.45839,-64.08424 51.82592,-113.449802 115.91016,-115.908203 64.08428,2.458384 113.44986,51.823903 115.9082,115.908203 v 25 h 9.0918 v -25 c -3.0047,-69.59854 -55.40142,-121.99531 -125,-125 z"
               transform="matrix(0.26458333,0,0,0.26458333,0,196.45832)"
               id="path897"
               inkscape:connector-curvature="0" />
          </g>
        </g>
        <g
           id="g931"
           transform="rotate(-180,-198.23854,277.13918)">
          <g
             transform="translate(-137.10274)"
             id="g915">
            <path
               inkscape:connector-curvature="0"
               style="stroke-width:0.1867386;stroke-linecap:round;paint-order:markers stroke fill"
               d="m -718.94922,154.57227 c -14.32932,0.45458 -33.60356,20.71937 -31.29883,34.27148 -2.45838,14.45558 19.63622,36.55017 34.0918,34.0918 h 134.0918 v -9.0918 h -100.00196 v -25 c 2.45839,-14.4556 -19.63425,-36.54823 -34.08984,-34.08984 -0.90347,-0.15365 -1.83768,-0.21195 -2.79297,-0.18164 z m 1.00586,8.95898 c 0.63005,0.0232 1.22828,0.12471 1.78711,0.3125 8.94127,-3.00469 28.00471,16.05874 25,25 v 25 h -25 c -8.94126,3.00469 -28.00469,-16.05873 -25,-25 -2.8169,-8.38244 13.76214,-25.66117 23.21289,-25.3125 z m 26.78711,150.3125 v 9.0918 h 9.08984 v -9.0918 z"
               transform="matrix(0.26458333,0,0,0.26458333,0,196.45832)"
               id="path903" />
            <path
               inkscape:connector-curvature="0"
               style="stroke-width:0.1867386;stroke-linecap:round;paint-order:markers stroke fill"
               d="m -718.55273,136.5293 c -24.81903,0.43381 -51.20004,27.62664 -49.87696,52.31445 -1.36576,25.48418 26.78925,53.63919 52.27344,52.27344 h 134.0918 v -9.0918 h -134.0918 c -19.96987,1.91207 -45.09371,-23.21177 -43.18164,-43.18164 -1.91207,-19.96987 23.21177,-45.0937 43.18164,-43.18164 19.96988,-1.91208 45.09374,23.21176 43.18164,43.18164 v 25 h 9.0918 v -25 c 1.36576,-25.4842 -26.78924,-53.63725 -52.27344,-52.27148 -0.79638,-0.0427 -1.59587,-0.057 -2.39648,-0.043 z m 45.57812,177.31445 v 9.0918 h 9.0918 v -9.0918 z"
               transform="matrix(0.26458333,0,0,0.26458333,0,196.45832)"
               id="path905" />
            <path
               inkscape:connector-curvature="0"
               style="stroke-width:0.1867386;stroke-linecap:round;paint-order:markers stroke fill"
               d="m -716.15625,118.38867 c -36.51277,-0.27315 -70.72823,33.94231 -70.45508,70.45508 -0.27315,36.51277 33.94231,70.72822 70.45508,70.45508 h 134.0918 v -9.0918 h -134.0918 c -30.99848,0.81946 -62.18274,-30.3648 -61.36328,-61.36328 -0.81946,-30.99848 30.3648,-62.18273 61.36328,-61.36328 30.9985,-0.81946 62.18277,30.36478 61.36328,61.36328 v 25 h 9.0918 v -25 c 0.27315,-36.51278 -33.94229,-70.72823 -70.45508,-70.45508 z m 61.36328,195.45508 v 9.0918 h 9.0918 v -9.0918 z"
               transform="matrix(0.26458333,0,0,0.26458333,0,196.45832)"
               id="path907" />
            <path
               inkscape:connector-curvature="0"
               style="stroke-width:0.1867386;stroke-linecap:round;paint-order:markers stroke fill"
               d="m -716.15625,100.20703 c -47.54138,0.81946 -87.81726,41.09534 -88.63672,88.63672 0.81946,47.54137 41.09535,87.81724 88.63672,88.63672 h 134.0918 v -9.0918 h -134.0918 v 0.002 c -42.02709,-0.27313 -79.27177,-37.51979 -79.54492,-79.54687 0.27315,-42.02708 37.51784,-79.27175 79.54492,-79.54492 42.02711,0.27315 79.2718,37.51781 79.54492,79.54492 v 25 h 9.0918 v -25 c -0.81947,-47.54138 -41.09532,-87.81726 -88.63672,-88.63672 z m 79.54492,213.63672 v 9.0918 h 9.0918 v -9.0918 z"
               transform="matrix(0.26458333,0,0,0.26458333,0,196.45832)"
               id="path909" />
            <path
               inkscape:connector-curvature="0"
               style="stroke-width:0.1867386;stroke-linecap:round;paint-order:markers stroke fill"
               d="m -716.15625,82.025391 c -58.56997,1.912073 -104.90628,48.248379 -106.81836,106.818359 1.91207,58.56996 48.2484,104.90626 106.81836,106.81836 h 134.0918 v -9.08984 h -134.0918 c -53.05565,-1.36577 -96.3608,-44.67288 -97.72656,-97.72852 1.36576,-53.05564 44.67093,-96.360781 97.72656,-97.726562 53.05567,1.365765 96.36083,44.670882 97.72656,97.726562 v 25 h 9.0918 v -25 C -611.24997,130.27379 -657.58625,83.937471 -716.15625,82.025391 Z m 97.72656,231.818359 v 9.0918 h 9.0918 v -9.0918 z"
               transform="matrix(0.26458333,0,0,0.26458333,0,196.45832)"
               id="path911" />
            <path
               inkscape:connector-curvature="0"
               style="stroke-width:0.1867386;stroke-linecap:round;paint-order:markers stroke fill"
               d="m -716.15625,63.84375 c -69.59855,3.004689 -121.99531,55.40145 -125,125 3.00469,69.59853 55.40147,121.99529 125,125 h 115.9082 v 9.0918 h 9.0918 v -9.0918 h 9.0918 v -9.08984 h -134.0918 c -64.08426,-2.45838 -113.45177,-51.82592 -115.91016,-115.91016 2.45839,-64.08424 51.82592,-113.449802 115.91016,-115.908203 64.08428,2.458384 113.44986,51.823903 115.9082,115.908203 v 25 h 9.0918 v -25 c -3.0047,-69.59854 -55.40142,-121.99531 -125,-125 z"
               transform="matrix(0.26458333,0,0,0.26458333,0,196.45832)"
               id="path913" />
          </g>
          <g
             transform="rotate(90,-222.55592,213.35031)"
             id="g929">
            <path
               inkscape:connector-curvature="0"
               id="path917"
               transform="matrix(0.26458333,0,0,0.26458333,0,196.45832)"
               d="m -718.94922,154.57227 c -14.32932,0.45458 -33.60356,20.71937 -31.29883,34.27148 -2.45838,14.45558 19.63622,36.55017 34.0918,34.0918 h 134.0918 v -9.0918 h -100.00196 v -25 c 2.45839,-14.4556 -19.63425,-36.54823 -34.08984,-34.08984 -0.90347,-0.15365 -1.83768,-0.21195 -2.79297,-0.18164 z m 1.00586,8.95898 c 0.63005,0.0232 1.22828,0.12471 1.78711,0.3125 8.94127,-3.00469 28.00471,16.05874 25,25 v 25 h -25 c -8.94126,3.00469 -28.00469,-16.05873 -25,-25 -2.8169,-8.38244 13.76214,-25.66117 23.21289,-25.3125 z m 26.78711,150.3125 v 9.0918 h 9.08984 v -9.0918 z"
               style="stroke-width:0.1867386;stroke-linecap:round;paint-order:markers stroke fill" />
            <path
               inkscape:connector-curvature="0"
               id="path919"
               transform="matrix(0.26458333,0,0,0.26458333,0,196.45832)"
               d="m -718.55273,136.5293 c -24.81903,0.43381 -51.20004,27.62664 -49.87696,52.31445 -1.36576,25.48418 26.78925,53.63919 52.27344,52.27344 h 134.0918 v -9.0918 h -134.0918 c -19.96987,1.91207 -45.09371,-23.21177 -43.18164,-43.18164 -1.91207,-19.96987 23.21177,-45.0937 43.18164,-43.18164 19.96988,-1.91208 45.09374,23.21176 43.18164,43.18164 v 25 h 9.0918 v -25 c 1.36576,-25.4842 -26.78924,-53.63725 -52.27344,-52.27148 -0.79638,-0.0427 -1.59587,-0.057 -2.39648,-0.043 z m 45.57812,177.31445 v 9.0918 h 9.0918 v -9.0918 z"
               style="stroke-width:0.1867386;stroke-linecap:round;paint-order:markers stroke fill" />
            <path
               inkscape:connector-curvature="0"
               id="path921"
               transform="matrix(0.26458333,0,0,0.26458333,0,196.45832)"
               d="m -716.15625,118.38867 c -36.51277,-0.27315 -70.72823,33.94231 -70.45508,70.45508 -0.27315,36.51277 33.94231,70.72822 70.45508,70.45508 h 134.0918 v -9.0918 h -134.0918 c -30.99848,0.81946 -62.18274,-30.3648 -61.36328,-61.36328 -0.81946,-30.99848 30.3648,-62.18273 61.36328,-61.36328 30.9985,-0.81946 62.18277,30.36478 61.36328,61.36328 v 25 h 9.0918 v -25 c 0.27315,-36.51278 -33.94229,-70.72823 -70.45508,-70.45508 z m 61.36328,195.45508 v 9.0918 h 9.0918 v -9.0918 z"
               style="stroke-width:0.1867386;stroke-linecap:round;paint-order:markers stroke fill" />
            <path
               inkscape:connector-curvature="0"
               id="path923"
               transform="matrix(0.26458333,0,0,0.26458333,0,196.45832)"
               d="m -716.15625,100.20703 c -47.54138,0.81946 -87.81726,41.09534 -88.63672,88.63672 0.81946,47.54137 41.09535,87.81724 88.63672,88.63672 h 134.0918 v -9.0918 h -134.0918 v 0.002 c -42.02709,-0.27313 -79.27177,-37.51979 -79.54492,-79.54687 0.27315,-42.02708 37.51784,-79.27175 79.54492,-79.54492 42.02711,0.27315 79.2718,37.51781 79.54492,79.54492 v 25 h 9.0918 v -25 c -0.81947,-47.54138 -41.09532,-87.81726 -88.63672,-88.63672 z m 79.54492,213.63672 v 9.0918 h 9.0918 v -9.0918 z"
               style="stroke-width:0.1867386;stroke-linecap:round;paint-order:markers stroke fill" />
            <path
               inkscape:connector-curvature="0"
               id="path925"
               transform="matrix(0.26458333,0,0,0.26458333,0,196.45832)"
               d="m -716.15625,82.025391 c -58.56997,1.912073 -104.90628,48.248379 -106.81836,106.818359 1.91207,58.56996 48.2484,104.90626 106.81836,106.81836 h 134.0918 v -9.08984 h -134.0918 c -53.05565,-1.36577 -96.3608,-44.67288 -97.72656,-97.72852 1.36576,-53.05564 44.67093,-96.360781 97.72656,-97.726562 53.05567,1.365765 96.36083,44.670882 97.72656,97.726562 v 25 h 9.0918 v -25 C -611.24997,130.27379 -657.58625,83.937471 -716.15625,82.025391 Z m 97.72656,231.818359 v 9.0918 h 9.0918 v -9.0918 z"
               style="stroke-width:0.1867386;stroke-linecap:round;paint-order:markers stroke fill" />
            <path
               inkscape:connector-curvature="0"
               id="path927"
               transform="matrix(0.26458333,0,0,0.26458333,0,196.45832)"
               d="m -716.15625,63.84375 c -69.59855,3.004689 -121.99531,55.40145 -125,125 3.00469,69.59853 55.40147,121.99529 125,125 h 115.9082 v 9.0918 h 9.0918 v -9.0918 h 9.0918 v -9.08984 h -134.0918 c -64.08426,-2.45838 -113.45177,-51.82592 -115.91016,-115.91016 2.45839,-64.08424 51.82592,-113.449802 115.91016,-115.908203 64.08428,2.458384 113.44986,51.823903 115.9082,115.908203 v 25 h 9.0918 v -25 c -3.0047,-69.59854 -55.40142,-121.99531 -125,-125 z"
               style="stroke-width:0.1867386;stroke-linecap:round;paint-order:markers stroke fill" />
          </g>
        </g>
      </g>
    </g>
    <rect
       y="196.45833"
       x="47.625"
       height="100.54166"
       width="15.875"
       id="rect871"
       style="fill:#333333;stroke-width:0.65465367;stroke-linecap:round;paint-order:markers stroke fill" />
    <rect
       style="fill:#b2b2b2;stroke:#999999;stroke-width:1.5;stroke-linecap:round;paint-order:markers stroke fill"
       id="rect870"
       width="11.244792"
       height="96.176041"
       x="49.940105"
       y="198.64114"
       rx="2.5135417"
       ry="2.5135417" />
    <path
       style="fill:#d9d9d9;stroke:#333333;stroke-width:1.43282187;stroke-linecap:round;paint-order:markers stroke fill"
       d="m 52.670312,199.23897 h 5.737609 c 1.28498,0 2.319459,1.10846 2.319459,2.48535 v 90.1266 c 0,1.37688 -1.034479,2.48535 -2.319459,2.48535 h -5.737609 c -1.28498,0 -2.319459,-1.10847 -2.319459,-2.48535 v -90.1266 c 0,-1.37689 1.034479,-2.48535 2.319459,-2.48535 z"
       id="rect880" />
    <g
       aria-label="XSEQ"
       style="font-size:3.52777767px;font-family:'DejaVu Sans Mono';-inkscape-font-specification:'DejaVu Sans Mono';letter-spacing:0px;word-spacing:0px;fill:#f0f0f0;stroke-width:0.26458332"
       id="text819"
       transform="matrix(1.767733,0,0,1.767733,-12.435232,-154.04944)">
      <path
         d="m 18.393366,201.7224 h -0.525377 l -0.490926,-0.85094 -0.489204,0.85094 h -0.525377 l 0.754476,-1.30569 -0.733805,-1.26608 h 0.525377 l 0.468533,0.81821 0.470255,-0.81821 h 0.525377 l -0.73036,1.26608 z"
         style="-inkscape-font-specification:'DejaVu Sans Mono Bold'"
         id="path825"
         inkscape:connector-curvature="0" />
      <path
         d="m 19.316651,200.59413 q -0.384128,-0.14642 -0.520209,-0.30662 -0.136081,-0.16191 -0.136081,-0.43408 0,-0.34967 0.223931,-0.54949 0.223931,-0.19982 0.614949,-0.19982 0.177423,0 0.354845,0.0413 0.177423,0.0396 0.3514,0.11885 v 0.4961 q -0.163642,-0.11542 -0.332452,-0.1757 -0.168809,-0.0603 -0.334174,-0.0603 -0.184313,0 -0.282498,0.0741 -0.09819,0.0741 -0.09819,0.21187 0,0.1068 0.07062,0.17742 0.07235,0.0689 0.299724,0.15331 l 0.218763,0.0827 q 0.310059,0.11369 0.456475,0.30145 0.146417,0.18775 0.146417,0.4737 0,0.38929 -0.230821,0.58222 -0.229099,0.1912 -0.694187,0.1912 -0.191203,0 -0.384128,-0.0465 -0.191203,-0.0448 -0.370348,-0.13436 v -0.52537 q 0.203261,0.14469 0.392741,0.21531 0.191203,0.0706 0.377238,0.0706 0.187758,0 0.29111,-0.0844 0.103353,-0.0861 0.103353,-0.23943 0,-0.11541 -0.0689,-0.20154 -0.0689,-0.0879 -0.199815,-0.1378 z"
         style="-inkscape-font-specification:'DejaVu Sans Mono Bold'"
         id="path827"
         inkscape:connector-curvature="0" />
      <path
         d="m 22.451688,201.7224 h -1.601969 v -2.57177 h 1.601969 v 0.44787 H 21.35787 v 0.55466 h 0.990465 v 0.44786 H 21.35787 v 0.67351 h 1.093818 z"
         style="-inkscape-font-specification:'DejaVu Sans Mono Bold'"
         id="path829"
         inkscape:connector-curvature="0" />
      <path
         d="m 23.812501,201.76202 q -0.02412,0.005 -0.04134,0.007 -0.0155,0.003 -0.03101,0.003 -0.442695,0 -0.671794,-0.33762 -0.227376,-0.33762 -0.227376,-0.99563 0,-0.65974 0.227376,-0.99736 0.229099,-0.33762 0.675239,-0.33762 0.447862,0 0.675238,0.33762 0.229099,0.33762 0.229099,0.99736 0,0.45303 -0.10852,0.75964 -0.108521,0.30489 -0.315226,0.43581 l 0.320393,0.3135 -0.347954,0.25838 z m -0.0689,-2.20142 q -0.194648,0 -0.284221,0.20843 -0.08957,0.2067 -0.08957,0.67007 0,0.46164 0.08957,0.67007 0.08957,0.20671 0.284221,0.20671 0.19637,0 0.285943,-0.20671 0.08957,-0.20843 0.08957,-0.67007 0,-0.46337 -0.08957,-0.67007 -0.08957,-0.20843 -0.285943,-0.20843 z"
         style="-inkscape-font-specification:'DejaVu Sans Mono Bold'"
         id="path831"
         inkscape:connector-curvature="0" />
    </g>
    <g
       aria-label="IN1"
       style="font-size:2.46944451px;font-family:'DejaVu Sans Mono';-inkscape-font-specification:'DejaVu Sans Mono';letter-spacing:0px;word-spacing:0px;fill:#f0f0f0;stroke-width:0.26458332"
       id="text823"
       transform="translate(0.44534883,0.38330719)">
      <path
         d="m 5.9750018,205.21383 h 0.9995945 v 0.20499 H 6.597186 v 1.39027 h 0.3774103 v 0.20498 H 5.9750018 v -0.20498 H 6.352412 v -1.39027 H 5.9750018 Z"
         style="-inkscape-font-specification:'DejaVu Sans Mono'"
         id="path856"
         inkscape:connector-curvature="0" />
      <path
         d="M 7.3857685,205.21383 H 7.694449 l 0.6077149,1.48191 v -1.48191 h 0.2351278 v 1.80024 H 8.2286111 l -0.6077149,-1.48191 v 1.48191 H 7.3857685 Z"
         style="-inkscape-font-specification:'DejaVu Sans Mono'"
         id="path858"
         inkscape:connector-curvature="0" />
      <path
         d="m 9.0292513,206.80909 h 0.3786161 v -1.3758 l -0.4075549,0.0916 v -0.22187 l 0.4051433,-0.0892 H 9.649024 v 1.59526 h 0.373793 v 0.20498 H 9.0292513 Z"
         style="-inkscape-font-specification:'DejaVu Sans Mono'"
         id="path860"
         inkscape:connector-curvature="0" />
    </g>
    <g
       aria-label="IN2"
       style="font-size:2.46944451px;font-family:'DejaVu Sans Mono';-inkscape-font-specification:'DejaVu Sans Mono';letter-spacing:0px;word-spacing:0px;fill:#f0f0f0;stroke-width:0.26458332"
       id="text836"
       transform="translate(5.251358,0.3833)">
      <path
         d="m 16.558336,205.21383 h 0.999594 v 0.20499 h -0.37741 v 1.39027 h 0.37741 v 0.20498 h -0.999594 v -0.20498 h 0.37741 v -1.39027 h -0.37741 z"
         style="-inkscape-font-specification:'DejaVu Sans Mono'"
         id="path849"
         inkscape:connector-curvature="0" />
      <path
         d="m 17.969102,205.21383 h 0.308681 l 0.607715,1.48191 v -1.48191 h 0.235128 v 1.80024 h -0.308681 l -0.607715,-1.48191 v 1.48191 h -0.235128 z"
         style="-inkscape-font-specification:'DejaVu Sans Mono'"
         id="path851"
         inkscape:connector-curvature="0" />
      <path
         d="m 19.736781,206.80909 h 0.827167 v 0.20498 h -1.093645 v -0.20498 q 0.225481,-0.23754 0.394291,-0.41962 0.16881,-0.18207 0.232716,-0.25683 0.120579,-0.1471 0.162781,-0.23754 0.0422,-0.0916 0.0422,-0.18689 0,-0.15073 -0.08923,-0.23634 -0.08802,-0.0856 -0.242362,-0.0856 -0.109726,0 -0.230305,0.0398 -0.120578,0.0398 -0.255626,0.12058 v -0.24598 q 0.124196,-0.0591 0.243569,-0.0892 0.120578,-0.0301 0.237539,-0.0301 0.264066,0 0.424436,0.14107 0.161575,0.13988 0.161575,0.36777 0,0.11575 -0.05426,0.23151 -0.05305,0.11575 -0.173632,0.25562 -0.06752,0.0784 -0.196543,0.21705 -0.127813,0.13866 -0.390674,0.41479 z"
         style="-inkscape-font-specification:'DejaVu Sans Mono'"
         id="path853"
         inkscape:connector-curvature="0" />
    </g>
    <g
       aria-label="IN3"
       style="font-size:2.46944451px;font-family:'DejaVu Sans Mono';-inkscape-font-specification:'DejaVu Sans Mono';letter-spacing:0px;word-spacing:0px;fill:#f0f0f0;stroke-width:0.26458332"
       id="text840"
       transform="translate(5.968921,0.3833)">
      <path
         d="m 32.433334,205.21383 h 0.999594 v 0.20499 h -0.37741 v 1.39027 h 0.37741 v 0.20498 h -0.999594 v -0.20498 h 0.37741 v -1.39027 h -0.37741 z"
         style="-inkscape-font-specification:'DejaVu Sans Mono'"
         id="path842"
         inkscape:connector-curvature="0" />
      <path
         d="m 33.844101,205.21383 h 0.30868 l 0.607715,1.48191 v -1.48191 h 0.235128 v 1.80024 h -0.308681 l -0.607715,-1.48191 v 1.48191 h -0.235127 z"
         style="-inkscape-font-specification:'DejaVu Sans Mono'"
         id="path844"
         inkscape:connector-curvature="0" />
      <path
         d="m 36.09771,206.05065 q 0.17725,0.047 0.271301,0.1676 0.09405,0.11937 0.09405,0.29904 0,0.24839 -0.167604,0.39067 -0.166398,0.14108 -0.461815,0.14108 -0.124195,0 -0.253214,-0.0229 -0.129019,-0.0229 -0.253215,-0.0663 v -0.24236 q 0.12299,0.0639 0.242363,0.0952 0.119372,0.0314 0.237539,0.0314 0.20016,0 0.307475,-0.0904 0.107315,-0.0904 0.107315,-0.26045 0,-0.15675 -0.107315,-0.24839 -0.107315,-0.0928 -0.290594,-0.0928 h -0.185691 v -0.20016 h 0.185691 q 0.167604,0 0.261655,-0.0736 0.09405,-0.0736 0.09405,-0.20498 0,-0.13867 -0.08802,-0.21222 -0.08682,-0.0748 -0.248391,-0.0748 -0.107315,0 -0.221865,0.0241 -0.114549,0.0241 -0.239951,0.0723 v -0.22427 q 0.1459,-0.0386 0.259244,-0.0579 0.114549,-0.0193 0.202572,-0.0193 0.26286,0 0.419612,0.13263 0.157958,0.13143 0.157958,0.34968 0,0.14831 -0.0832,0.24719 -0.08199,0.0989 -0.239951,0.13987 z"
         style="-inkscape-font-specification:'DejaVu Sans Mono'"
         id="path846"
         inkscape:connector-curvature="0" />
    </g>
    <g
       transform="matrix(0.58084932,0,0,0.58084932,25.467594,193.81886)"
       id="g11631"
       style="fill:#f0f0f0">
      <g
         aria-label="MS"
         style="font-size:10.58333302px;font-family:sans-serif;letter-spacing:0px;word-spacing:0px;stroke-width:0.26458332"
         id="text11625">
        <path
           d="m -13.102167,168.46541 q 0.148166,-0.23284 0.370416,-0.32809 0.22225,-0.10583 0.455084,-0.10583 0.275166,0 0.4445,0.20108 0.169333,0.1905 0.169333,0.51859 v 5.02708 l 3.5348333,-5.31283 q 0.1481667,-0.23284 0.3598333,-0.32809 0.22225,-0.10583 0.4656667,-0.10583 0.2751666,0 0.4445,0.20108 0.1693333,0.1905 0.1693333,0.51859 v 7.59883 h -1.4393333 v -5.57742 l -3.2173333,5.08 q -0.179917,0.28575 -0.391583,0.39159 -0.211667,0.10583 -0.433917,0.10583 -0.1905,0 -0.359833,-0.0635 -0.169334,-0.0741 -0.296334,-0.20108 -0.127,-0.127 -0.201083,-0.29634 -0.07408,-0.16933 -0.07408,-0.381 v -4.6355 l -3.534833,5.57742 h -1.7145 z"
           style="-inkscape-font-specification:Strasua"
           id="path1877"
           inkscape:connector-curvature="0" />
        <path
           d="m -5.7073936,176.34999 v -1.43933 h 2.8892499 q 0.66675,0 1.1006666,-0.3175 0.4339167,-0.3175 0.4339167,-0.8255 0,-0.254 -0.1164167,-0.46567 -0.1164167,-0.21167 -0.3175,-0.35983 -0.2010833,-0.15875 -0.4868333,-0.24342 -0.28575,-0.0847 -0.6138333,-0.0847 h -0.6561667 q -0.5079999,0 -0.9419166,-0.15875 -0.4339167,-0.16933 -0.7514166,-0.46566 -0.3175,-0.30692 -0.4974167,-0.70909 -0.1799167,-0.41275 -0.1799167,-0.91016 0,-0.48684 0.1799167,-0.89959 0.1905,-0.41275 0.5291667,-0.71966 0.3386666,-0.30692 0.8149166,-0.47625 0.47625,-0.17992 1.04775,-0.17992 h 2.74108322 v 1.43933 H -3.3473104 q -0.4550833,0 -0.7196666,0.254 -0.2645833,0.24342 -0.2645833,0.59267 0,0.381 0.2645833,0.635 0.2751666,0.254 0.7196666,0.254 h 0.8149167 q 0.5503333,0 1.0159999,0.1905 0.4656667,0.17992 0.80433336,0.51858 0.33866665,0.33867 0.52916665,0.80434 0.19049999,0.46566 0.19049999,1.016 0,0.56091 -0.20108333,1.02658 -0.20108332,0.46567 -0.58208331,0.80433 -0.37041666,0.33867 -0.88899996,0.52917 -0.5185833,0.1905 -1.1535833,0.1905 z"
           style="-inkscape-font-specification:Strasua"
           id="path1879"
           inkscape:connector-curvature="0" />
      </g>
      <g
         aria-label="M"
         transform="scale(-1,1)"
         style="font-size:10.58333302px;font-family:sans-serif;letter-spacing:0px;word-spacing:0px;stroke-width:0.26458332"
         id="text11629">
        <path
           d="m -7.4032889,168.46365 q 0.1481666,-0.23283 0.3704166,-0.32808 0.22225,-0.10583 0.4550834,-0.10583 0.2751666,0 0.4444999,0.20108 0.1693334,0.1905 0.1693334,0.51858 v 5.02709 l 3.5348332,-5.31284 q 0.1481667,-0.23283 0.3598333,-0.32808 0.22225,-0.10583 0.4656667,-0.10583 0.2751666,0 0.4445,0.20108 0.16933329,0.1905 0.16933329,0.51858 v 7.59884 H -2.4291224 v -5.57742 l -3.2173332,5.08 q -0.1799167,0.28575 -0.3915834,0.39158 -0.2116666,0.10584 -0.4339166,0.10584 -0.1905,0 -0.3598333,-0.0635 -0.1693334,-0.0741 -0.2963334,-0.20109 -0.127,-0.127 -0.2010833,-0.29633 -0.074083,-0.16933 -0.074083,-0.381 v -4.6355 l -3.5348334,5.57742 h -1.7145 z"
           style="-inkscape-font-specification:Strasua"
           id="path1882"
           inkscape:connector-curvature="0" />
      </g>
    </g>
    <rect
       style="fill:#f0f0f0;stroke:#f0f0f0;stroke-width:0.05207876;stroke-linecap:round;stroke-opacity:0.69999999;paint-order:markers stroke fill"
       id="rect1005"
       width="0.26359275"
       height="99.113106"
       x="47.650497"
       y="197.08415" />
    <g
       aria-label="3"
       style="font-size:2.46944451px;font-family:'DejaVu Sans Mono';-inkscape-font-specification:'DejaVu Sans Mono';letter-spacing:0px;word-spacing:0px;fill:#000000;stroke-width:0.26458332"
       id="text888"
       transform="translate(-15.105705,19.092743)">
      <path
         d="m 70.847393,209.34302 q 0.17725,0.047 0.271301,0.16761 0.09405,0.11937 0.09405,0.29903 0,0.24839 -0.167604,0.39067 -0.166398,0.14108 -0.461815,0.14108 -0.124195,0 -0.253214,-0.0229 -0.129019,-0.0229 -0.253215,-0.0663 v -0.24236 q 0.12299,0.0639 0.242363,0.0953 0.119372,0.0314 0.237539,0.0314 0.20016,0 0.307475,-0.0904 0.107315,-0.0904 0.107315,-0.26045 0,-0.15675 -0.107315,-0.24839 -0.107315,-0.0928 -0.290594,-0.0928 h -0.185691 v -0.20016 h 0.185691 q 0.167604,0 0.261655,-0.0736 0.09405,-0.0736 0.09405,-0.20498 0,-0.13866 -0.08802,-0.21222 -0.08682,-0.0748 -0.248391,-0.0748 -0.107315,0 -0.221864,0.0241 -0.11455,0.0241 -0.239951,0.0724 v -0.22428 q 0.145899,-0.0386 0.259243,-0.0579 0.114549,-0.0193 0.202572,-0.0193 0.26286,0 0.419612,0.13264 0.157958,0.13143 0.157958,0.34967 0,0.14832 -0.0832,0.24719 -0.08199,0.0989 -0.239951,0.13987 z"
         id="path951"
         inkscape:connector-curvature="0" />
    </g>
    <g
       aria-label="7"
       style="font-size:2.46944451px;font-family:'DejaVu Sans Mono';-inkscape-font-specification:'DejaVu Sans Mono';letter-spacing:0px;word-spacing:0px;fill:#000000;stroke-width:0.26458332"
       id="text897"
       transform="translate(-15.106913,45.508337)">
      <path
         d="m 70.079309,219.08955 h 1.133436 v 0.1037 l -0.643888,1.69654 h -0.25442 l 0.627007,-1.59526 h -0.862135 z"
         id="path948"
         inkscape:connector-curvature="0" />
    </g>
    <g
       aria-label="4"
       style="font-size:2.46944451px;font-family:'DejaVu Sans Mono';-inkscape-font-specification:'DejaVu Sans Mono';letter-spacing:0px;word-spacing:0px;fill:#000000;stroke-width:0.26458332"
       id="text911"
       transform="translate(-20.410032,28.111984)">
      <path
         d="m 76.08962,208.72807 -0.567924,0.95136 h 0.567924 z m -0.03979,-0.22186 h 0.282153 v 1.17322 h 0.239951 v 0.19775 h -0.239951 v 0.42926 H 76.08962 v -0.42926 h -0.763261 v -0.2303 z"
         id="path945"
         inkscape:connector-curvature="0" />
    </g>
    <g
       aria-label="8"
       style="font-size:2.46944451px;font-family:'DejaVu Sans Mono';-inkscape-font-specification:'DejaVu Sans Mono';letter-spacing:0px;word-spacing:0px;fill:#000000;stroke-width:0.26458332"
       id="text915"
       transform="translate(-20.407617,54.702608)">
      <path
         d="m 75.946132,220.03489 q -0.162781,0 -0.252009,0.0916 -0.08802,0.0904 -0.08802,0.25684 0,0.16639 0.08923,0.25924 0.09043,0.0916 0.250803,0.0916 0.163986,0 0.252008,-0.0904 0.08923,-0.0916 0.08923,-0.26045 0,-0.1652 -0.09043,-0.25684 -0.08923,-0.0916 -0.250803,-0.0916 z m -0.212218,-0.10129 q -0.155546,-0.0398 -0.243568,-0.14831 -0.08682,-0.10852 -0.08682,-0.26166 0,-0.21463 0.1459,-0.34003 0.1459,-0.12661 0.396703,-0.12661 0.252008,0 0.397908,0.12661 0.1459,0.1254 0.1459,0.34003 0,0.15314 -0.08802,0.26166 -0.08682,0.10852 -0.242363,0.14831 0.180868,0.0398 0.276125,0.16037 0.09646,0.12058 0.09646,0.3123 0,0.24356 -0.155547,0.38102 -0.155546,0.13746 -0.430464,0.13746 -0.274919,0 -0.430465,-0.13625 -0.15434,-0.13746 -0.15434,-0.37982 0,-0.19293 0.09526,-0.31351 0.09646,-0.12178 0.27733,-0.16157 z m -0.08802,-0.38706 q 0,0.1447 0.07717,0.22066 0.07717,0.076 0.22307,0.076 0.147105,0 0.224275,-0.076 0.07717,-0.076 0.07717,-0.22066 0,-0.1471 -0.07717,-0.22427 -0.07596,-0.0772 -0.224275,-0.0772 -0.1459,0 -0.22307,0.0784 -0.07717,0.0772 -0.07717,0.22307 z"
         id="path942"
         inkscape:connector-curvature="0" />
    </g>
    <g
       aria-label="5"
       style="font-size:2.46944451px;font-family:'DejaVu Sans Mono';-inkscape-font-specification:'DejaVu Sans Mono';letter-spacing:0px;word-spacing:0px;fill:#000000;stroke-width:0.26458332"
       id="text919"
       transform="translate(-25.686624,37.438545)">
      <path
         d="m 80.74463,208.50621 h 0.911573 v 0.20498 h -0.689708 v 0.44252 q 0.05185,-0.0193 0.103697,-0.0277 0.05305,-0.01 0.106109,-0.01 0.279742,0 0.443728,0.1652 0.163987,0.16519 0.163987,0.44734 0,0.28457 -0.172427,0.44855 -0.171222,0.16399 -0.46905,0.16399 -0.143488,0 -0.262861,-0.0193 -0.118167,-0.0193 -0.212218,-0.0579 v -0.24719 q 0.110932,0.0603 0.22307,0.0904 0.112138,0.0289 0.229099,0.0289 0.201366,0 0.309886,-0.10611 0.109727,-0.10611 0.109727,-0.30145 0,-0.19292 -0.113344,-0.30024 -0.112138,-0.10731 -0.313504,-0.10731 -0.09767,0 -0.190513,0.0229 -0.09285,0.0217 -0.177251,0.0663 z"
         id="path939"
         inkscape:connector-curvature="0" />
    </g>
    <g
       aria-label="9"
       style="font-size:2.46944451px;font-family:'DejaVu Sans Mono';-inkscape-font-specification:'DejaVu Sans Mono';letter-spacing:0px;word-spacing:0px;fill:#000000;stroke-width:0.26458332"
       id="text923"
       transform="translate(-25.69205,64.293756)">
      <path
         d="m 81.21368,220.09156 q 0.155546,0 0.243568,-0.11214 0.08923,-0.11214 0.08923,-0.30989 0,-0.19775 -0.08923,-0.30988 -0.08802,-0.11214 -0.243568,-0.11214 -0.161575,0 -0.243568,0.10731 -0.08199,0.10611 -0.08199,0.31471 0,0.20981 0.08079,0.31592 0.08199,0.10611 0.244774,0.10611 z m -0.434082,0.76085 v -0.22428 q 0.07597,0.0446 0.161575,0.0687 0.08561,0.0229 0.178456,0.0229 0.231511,0 0.349677,-0.17363 0.119373,-0.17484 0.119373,-0.51367 -0.05667,0.12058 -0.159164,0.18569 -0.102491,0.0639 -0.235127,0.0639 -0.26045,0 -0.403938,-0.16037 -0.142282,-0.16037 -0.142282,-0.45458 0,-0.29059 0.1459,-0.44976 0.147105,-0.16037 0.414789,-0.16037 0.313504,0 0.459404,0.22549 0.145899,0.22548 0.145899,0.709 0,0.45458 -0.176044,0.69453 -0.174839,0.23874 -0.508841,0.23874 -0.08802,0 -0.17725,-0.0193 -0.08923,-0.0181 -0.172427,-0.0531 z"
         id="path936"
         inkscape:connector-curvature="0" />
    </g>
    <g
       aria-label="6"
       style="font-size:2.46944451px;font-family:'DejaVu Sans Mono';-inkscape-font-specification:'DejaVu Sans Mono';letter-spacing:0px;word-spacing:0px;fill:#000000;stroke-width:0.26458332"
       id="text927"
       transform="translate(-30.990949,46.632814)">
      <path
         d="m 86.981629,208.546 v 0.22427 q -0.07596,-0.0446 -0.161575,-0.0675 -0.08561,-0.0241 -0.178456,-0.0241 -0.231511,0 -0.350883,0.17484 -0.119373,0.17364 -0.119373,0.51246 0.05788,-0.12058 0.16037,-0.18448 0.102491,-0.0651 0.235127,-0.0651 0.26045,0 0.402732,0.16037 0.143488,0.15917 0.143488,0.45217 0,0.2918 -0.147105,0.45217 -0.147106,0.16037 -0.413584,0.16037 -0.313504,0 -0.459404,-0.22428 -0.145899,-0.22548 -0.145899,-0.709 0,-0.45578 0.174838,-0.69453 0.176045,-0.23995 0.508841,-0.23995 0.08923,0 0.178456,0.0193 0.08923,0.0181 0.172427,0.0531 z m -0.434082,0.76085 q -0.155546,0 -0.244774,0.11214 -0.08923,0.11213 -0.08923,0.30988 0,0.19775 0.08923,0.30989 0.08923,0.11214 0.244774,0.11214 0.161575,0 0.243568,-0.10611 0.08199,-0.10732 0.08199,-0.31592 0,-0.2098 -0.08199,-0.31591 -0.08199,-0.10611 -0.243568,-0.10611 z"
         id="path933"
         inkscape:connector-curvature="0" />
    </g>
    <g
       aria-label="1"
       style="font-size:2.46944451px;font-family:'DejaVu Sans Mono';-inkscape-font-specification:'DejaVu Sans Mono';letter-spacing:0px;word-spacing:0px;fill:#000000;stroke-width:0.26458332"
       id="text964">
      <path
         d="m 55.056801,210.56917 h 0.378616 v -1.3758 l -0.407555,0.0916 v -0.22186 l 0.405143,-0.0892 h 0.243569 v 1.59525 h 0.373792 v 0.20498 h -0.993565 z"
         id="path988" />
    </g>
    <g
       aria-label="2"
       style="font-size:2.46944451px;font-family:'DejaVu Sans Mono';-inkscape-font-specification:'DejaVu Sans Mono';letter-spacing:0px;word-spacing:0px;fill:#000000;stroke-width:0.26458332"
       id="text968">
      <path
         d="m 55.258771,219.61716 h 0.827167 v 0.20498 h -1.093646 v -0.20498 q 0.225482,-0.23754 0.394292,-0.41961 0.168809,-0.18208 0.232716,-0.25683 0.120578,-0.14711 0.162781,-0.23754 0.0422,-0.0916 0.0422,-0.1869 0,-0.15072 -0.08923,-0.23633 -0.08802,-0.0856 -0.242362,-0.0856 -0.109727,0 -0.230305,0.0398 -0.120578,0.0398 -0.255626,0.12058 v -0.24598 q 0.124196,-0.0591 0.243568,-0.0892 0.120578,-0.0301 0.237539,-0.0301 0.264067,0 0.424436,0.14108 0.161575,0.13987 0.161575,0.36776 0,0.11576 -0.05426,0.23151 -0.05306,0.11576 -0.173633,0.25563 -0.06752,0.0784 -0.196543,0.21704 -0.127813,0.13867 -0.390673,0.41479 z"
         id="path985" />
    </g>
    <g
       transform="translate(-33.891118,17.92894)"
       id="g993"
       style="font-size:2.46944451px;font-family:'DejaVu Sans Mono';-inkscape-font-specification:'DejaVu Sans Mono';letter-spacing:0px;word-spacing:0px;fill:#f0f0f0;stroke-width:0.26458332"
       aria-label="3">
      <path
         inkscape:connector-curvature="0"
         id="path991"
         d="m 70.847393,209.34302 q 0.17725,0.047 0.271301,0.16761 0.09405,0.11937 0.09405,0.29903 0,0.24839 -0.167604,0.39067 -0.166398,0.14108 -0.461815,0.14108 -0.124195,0 -0.253214,-0.0229 -0.129019,-0.0229 -0.253215,-0.0663 v -0.24236 q 0.12299,0.0639 0.242363,0.0953 0.119372,0.0314 0.237539,0.0314 0.20016,0 0.307475,-0.0904 0.107315,-0.0904 0.107315,-0.26045 0,-0.15675 -0.107315,-0.24839 -0.107315,-0.0928 -0.290594,-0.0928 h -0.185691 v -0.20016 h 0.185691 q 0.167604,0 0.261655,-0.0736 0.09405,-0.0736 0.09405,-0.20498 0,-0.13866 -0.08802,-0.21222 -0.08682,-0.0748 -0.248391,-0.0748 -0.107315,0 -0.221864,0.0241 -0.11455,0.0241 -0.239951,0.0724 v -0.22428 q 0.145899,-0.0386 0.259243,-0.0579 0.114549,-0.0193 0.202572,-0.0193 0.26286,0 0.419612,0.13264 0.157958,0.13143 0.157958,0.34967 0,0.14832 -0.0832,0.24719 -0.08199,0.0989 -0.239951,0.13987 z" />
    </g>
    <g
       transform="translate(-65.377747,54.703808)"
       id="g997"
       style="font-size:2.46944451px;font-family:'DejaVu Sans Mono';-inkscape-font-specification:'DejaVu Sans Mono';letter-spacing:0px;word-spacing:0px;fill:#f0f0f0;stroke-width:0.26458332"
       aria-label="7">
      <path
         inkscape:connector-curvature="0"
         id="path995"
         d="m 70.079309,219.08955 h 1.133436 v 0.1037 l -0.643888,1.69654 h -0.25442 l 0.627007,-1.59526 h -0.862135 z" />
    </g>
    <g
       transform="translate(-70.680867,41.473447)"
       id="g1001"
       style="font-size:2.46944451px;font-family:'DejaVu Sans Mono';-inkscape-font-specification:'DejaVu Sans Mono';letter-spacing:0px;word-spacing:0px;fill:#f0f0f0;stroke-width:0.26458332"
       aria-label="4">
      <path
         inkscape:connector-curvature="0"
         id="path999"
         d="m 76.08962,208.72807 -0.567924,0.95136 h 0.567924 z m -0.03979,-0.22186 h 0.282153 v 1.17322 h 0.239951 v 0.19775 h -0.239951 v 0.42926 H 76.08962 v -0.42926 h -0.763261 v -0.2303 z" />
    </g>
    <g
       transform="translate(-55.332616,54.702608)"
       id="g1005"
       style="font-size:2.46944451px;font-family:'DejaVu Sans Mono';-inkscape-font-specification:'DejaVu Sans Mono';letter-spacing:0px;word-spacing:0px;fill:#f0f0f0;stroke-width:0.26458332"
       aria-label="8">
      <path
         inkscape:connector-curvature="0"
         id="path1003"
         d="m 75.946132,220.03489 q -0.162781,0 -0.252009,0.0916 -0.08802,0.0904 -0.08802,0.25684 0,0.16639 0.08923,0.25924 0.09043,0.0916 0.250803,0.0916 0.163986,0 0.252008,-0.0904 0.08923,-0.0916 0.08923,-0.26045 0,-0.1652 -0.09043,-0.25684 -0.08923,-0.0916 -0.250803,-0.0916 z m -0.212218,-0.10129 q -0.155546,-0.0398 -0.243568,-0.14831 -0.08682,-0.10852 -0.08682,-0.26166 0,-0.21463 0.1459,-0.34003 0.1459,-0.12661 0.396703,-0.12661 0.252008,0 0.397908,0.12661 0.1459,0.1254 0.1459,0.34003 0,0.15314 -0.08802,0.26166 -0.08682,0.10852 -0.242363,0.14831 0.180868,0.0398 0.276125,0.16037 0.09646,0.12058 0.09646,0.3123 0,0.24356 -0.155547,0.38102 -0.155546,0.13746 -0.430464,0.13746 -0.274919,0 -0.430465,-0.13625 -0.15434,-0.13746 -0.15434,-0.37982 0,-0.19293 0.09526,-0.31351 0.09646,-0.12178 0.27733,-0.16157 z m -0.08802,-0.38706 q 0,0.1447 0.07717,0.22066 0.07717,0.076 0.22307,0.076 0.147105,0 0.224275,-0.076 0.07717,-0.076 0.07717,-0.22066 0,-0.1471 -0.07717,-0.22427 -0.07596,-0.0772 -0.224275,-0.0772 -0.1459,0 -0.22307,0.0784 -0.07717,0.0772 -0.07717,0.22307 z" />
    </g>
    <g
       transform="translate(-60.611623,41.456122)"
       id="g1009"
       style="font-size:2.46944451px;font-family:'DejaVu Sans Mono';-inkscape-font-specification:'DejaVu Sans Mono';letter-spacing:0px;word-spacing:0px;fill:#f0f0f0;stroke-width:0.26458332"
       aria-label="5">
      <path
         inkscape:connector-curvature="0"
         id="path1007"
         d="m 80.74463,208.50621 h 0.911573 v 0.20498 h -0.689708 v 0.44252 q 0.05185,-0.0193 0.103697,-0.0277 0.05305,-0.01 0.106109,-0.01 0.279742,0 0.443728,0.1652 0.163987,0.16519 0.163987,0.44734 0,0.28457 -0.172427,0.44855 -0.171222,0.16399 -0.46905,0.16399 -0.143488,0 -0.262861,-0.0193 -0.118167,-0.0193 -0.212218,-0.0579 v -0.24719 q 0.110932,0.0603 0.22307,0.0904 0.112138,0.0289 0.229099,0.0289 0.201366,0 0.309886,-0.10611 0.109727,-0.10611 0.109727,-0.30145 0,-0.19292 -0.113344,-0.30024 -0.112138,-0.10731 -0.313504,-0.10731 -0.09767,0 -0.190513,0.0229 -0.09285,0.0217 -0.177251,0.0663 z" />
    </g>
    <g
       transform="translate(-44.477462,54.702658)"
       id="g1013"
       style="font-size:2.46944451px;font-family:'DejaVu Sans Mono';-inkscape-font-specification:'DejaVu Sans Mono';letter-spacing:0px;word-spacing:0px;fill:#f0f0f0;stroke-width:0.26458332"
       aria-label="9">
      <path
         inkscape:connector-curvature="0"
         id="path1011"
         d="m 81.21368,220.09156 q 0.155546,0 0.243568,-0.11214 0.08923,-0.11214 0.08923,-0.30989 0,-0.19775 -0.08923,-0.30988 -0.08802,-0.11214 -0.243568,-0.11214 -0.161575,0 -0.243568,0.10731 -0.08199,0.10611 -0.08199,0.31471 0,0.20981 0.08079,0.31592 0.08199,0.10611 0.244774,0.10611 z m -0.434082,0.76085 v -0.22428 q 0.07597,0.0446 0.161575,0.0687 0.08561,0.0229 0.178456,0.0229 0.231511,0 0.349677,-0.17363 0.119373,-0.17484 0.119373,-0.51367 -0.05667,0.12058 -0.159164,0.18569 -0.102491,0.0639 -0.235127,0.0639 -0.26045,0 -0.403938,-0.16037 -0.142282,-0.16037 -0.142282,-0.45458 0,-0.29059 0.1459,-0.44976 0.147105,-0.16037 0.414789,-0.16037 0.313504,0 0.459404,0.22549 0.145899,0.22548 0.145899,0.709 0,0.45458 -0.176044,0.69453 -0.174839,0.23874 -0.508841,0.23874 -0.08802,0 -0.17725,-0.0193 -0.08923,-0.0181 -0.172427,-0.0531 z" />
    </g>
    <g
       transform="translate(-49.776361,41.472182)"
       id="g1017"
       style="font-size:2.46944451px;font-family:'DejaVu Sans Mono';-inkscape-font-specification:'DejaVu Sans Mono';letter-spacing:0px;word-spacing:0px;fill:#f0f0f0;stroke-width:0.26458332"
       aria-label="6">
      <path
         inkscape:connector-curvature="0"
         id="path1015"
         d="m 86.981629,208.546 v 0.22427 q -0.07596,-0.0446 -0.161575,-0.0675 -0.08561,-0.0241 -0.178456,-0.0241 -0.231511,0 -0.350883,0.17484 -0.119373,0.17364 -0.119373,0.51246 0.05788,-0.12058 0.16037,-0.18448 0.102491,-0.0651 0.235127,-0.0651 0.26045,0 0.402732,0.16037 0.143488,0.15917 0.143488,0.45217 0,0.2918 -0.147105,0.45217 -0.147106,0.16037 -0.413584,0.16037 -0.313504,0 -0.459404,-0.22428 -0.145899,-0.22548 -0.145899,-0.709 0,-0.45578 0.174838,-0.69453 0.176045,-0.23995 0.508841,-0.23995 0.08923,0 0.178456,0.0193 0.08923,0.0181 0.172427,0.0531 z m -0.434082,0.76085 q -0.155546,0 -0.244774,0.11214 -0.08923,0.11213 -0.08923,0.30988 0,0.19775 0.08923,0.30989 0.08923,0.11214 0.244774,0.11214 0.161575,0 0.243568,-0.10611 0.08199,-0.10732 0.08199,-0.31592 0,-0.2098 -0.08199,-0.31591 -0.08199,-0.10611 -0.243568,-0.10611 z" />
    </g>
    <g
       id="g1021"
       style="font-size:2.46944451px;font-family:'DejaVu Sans Mono';-inkscape-font-specification:'DejaVu Sans Mono';letter-spacing:0px;word-spacing:0px;fill:#f0f0f0;stroke-width:0.26458332"
       aria-label="1"
       transform="translate(-50.270834,17.462505)">
      <path
         id="path1019"
         d="m 55.056801,210.56917 h 0.378616 v -1.3758 l -0.407555,0.0916 v -0.22186 l 0.405143,-0.0892 h 0.243569 v 1.59525 h 0.373792 v 0.20498 h -0.993565 z"
         inkscape:connector-curvature="0" />
    </g>
    <g
       id="g1025"
       style="font-size:2.46944451px;font-family:'DejaVu Sans Mono';-inkscape-font-specification:'DejaVu Sans Mono';letter-spacing:0px;word-spacing:0px;fill:#f0f0f0;stroke-width:0.26458332"
       aria-label="2"
       transform="translate(-34.925,8.430735)">
      <path
         id="path1023"
         d="m 55.258771,219.61716 h 0.827167 v 0.20498 h -1.093646 v -0.20498 q 0.225482,-0.23754 0.394292,-0.41961 0.168809,-0.18208 0.232716,-0.25683 0.120578,-0.14711 0.162781,-0.23754 0.0422,-0.0916 0.0422,-0.1869 0,-0.15072 -0.08923,-0.23633 -0.08802,-0.0856 -0.242362,-0.0856 -0.109727,0 -0.230305,0.0398 -0.120578,0.0398 -0.255626,0.12058 v -0.24598 q 0.124196,-0.0591 0.243568,-0.0892 0.120578,-0.0301 0.237539,-0.0301 0.264067,0 0.424436,0.14108 0.161575,0.13987 0.161575,0.36776 0,0.11576 -0.05426,0.23151 -0.05306,0.11576 -0.173633,0.25563 -0.06752,0.0784 -0.196543,0.21704 -0.127813,0.13867 -0.390673,0.41479 z"
         inkscape:connector-curvature="0" />
    </g>
    <g
       aria-label="CVs IN"
       style="font-size:2.46944451px;font-family:'DejaVu Sans Mono';-inkscape-font-specification:'DejaVu Sans Mono';letter-spacing:0px;word-spacing:0px;fill:#000000;stroke-width:0.26458332"
       id="text1029"
       transform="matrix(0.79966519,0,0,0.79966519,11.126419,58.126729)">
      <path
         d="m 52.375745,290.98291 q -0.09285,0.0494 -0.190513,0.0736 -0.09767,0.0253 -0.207395,0.0253 -0.34606,0 -0.53778,-0.24477 -0.190513,-0.24478 -0.190513,-0.6885 0,-0.44132 0.191719,-0.6873 0.192926,-0.24719 0.536574,-0.24719 0.109726,0 0.207395,0.0253 0.09767,0.0241 0.190513,0.0736 v 0.24959 q -0.08923,-0.0736 -0.191719,-0.11213 -0.102492,-0.0386 -0.206189,-0.0386 -0.23754,0 -0.355706,0.18328 -0.118167,0.18328 -0.118167,0.55346 0,0.36897 0.118167,0.55224 0.118166,0.18328 0.355706,0.18328 0.106109,0 0.207395,-0.0386 0.102491,-0.0386 0.190513,-0.11214 z"
         id="path1031"
         inkscape:connector-curvature="0" />
      <path
         d="m 53.310228,290.84183 0.42323,-1.59525 h 0.252008 l -0.526927,1.80023 h -0.295417 l -0.526927,-1.80023 h 0.252008 z"
         id="path1033"
         inkscape:connector-curvature="0" />
      <path
         d="m 55.226217,289.74336 v 0.21704 q -0.09526,-0.0555 -0.191719,-0.0832 -0.09646,-0.0277 -0.196543,-0.0277 -0.150723,0 -0.225481,0.0494 -0.07355,0.0482 -0.07355,0.14831 0,0.0904 0.05547,0.13505 0.05547,0.0446 0.276124,0.0868 l 0.08923,0.0169 q 0.165193,0.0314 0.249598,0.12541 0.08561,0.0941 0.08561,0.24477 0,0.20016 -0.142282,0.3135 -0.142283,0.11214 -0.395497,0.11214 -0.10008,0 -0.209807,-0.0217 -0.109726,-0.0205 -0.237539,-0.0627 v -0.2291 q 0.124196,0.0639 0.237539,0.0965 0.113344,0.0314 0.21463,0.0314 0.147105,0 0.227893,-0.0591 0.08079,-0.0603 0.08079,-0.16761 0,-0.15434 -0.295417,-0.21342 l -0.0096,-0.002 -0.0832,-0.0169 q -0.191719,-0.0374 -0.279742,-0.1254 -0.08802,-0.0892 -0.08802,-0.24237 0,-0.19413 0.131431,-0.29903 0.13143,-0.10611 0.374998,-0.10611 0.108521,0 0.208601,0.0205 0.10008,0.0193 0.196542,0.0591 z"
         id="path1035"
         inkscape:connector-curvature="0" />
      <path
         d="m 57.266403,289.24658 h 0.999595 v 0.20498 h -0.377411 v 1.39027 h 0.377411 v 0.20498 h -0.999595 v -0.20498 h 0.37741 v -1.39027 h -0.37741 z"
         id="path1037"
         inkscape:connector-curvature="0" />
      <path
         d="m 58.67717,289.24658 h 0.30868 l 0.607715,1.48191 v -1.48191 h 0.235128 v 1.80023 h -0.308681 l -0.607714,-1.4819 v 1.4819 H 58.67717 Z"
         id="path1039"
         inkscape:connector-curvature="0" />
    </g>
  </g>
</svg>
